<svg xmlns="http://www.w3.org/2000/svg" xmlns:xlink="http://www.w3.org/1999/xlink" contentStyleType="text/css" height="540px" preserveAspectRatio="none" style="width:1020px;height:540px;background:#24273A;" version="1.1" viewBox="0 0 1020 540" width="1020px" zoomAndPan="magnify"><defs/><g><rect fill="#24273A" height="540" style="stroke:none;stroke-width:1.0;" width="1020" x="0" y="0"/><!--cluster java--><g id="cluster_java"><path d="M527.55,314 L553.9055,314 A2.25,2.25 0 0 1 555.4055,315.5 L562.4055,332 L830.55,332 A1.5,1.5 0 0 1 832.05,333.5 L832.05,531.5 A1.5,1.5 0 0 1 830.55,533 L527.55,533 A1.5,1.5 0 0 1 526.05,531.5 L526.05,315.5 A1.5,1.5 0 0 1 527.55,314 " fill="#24273A" style="stroke:#CAD3F5;stroke-width:1.5;"/><line style="stroke:#CAD3F5;stroke-width:1.5;" x1="526.05" x2="562.4055" y1="332" y2="332"/><text fill="#CAD3F5" font-family="Helvetica" font-size="12" font-weight="bold" lengthAdjust="spacing" textLength="23.3555" x="530.05" y="325.2402">java</text></g><!--cluster util--><g id="cluster_util"><path d="M551.55,353 L572.5441,353 A2.25,2.25 0 0 1 574.0441,354.5 L581.0441,371 L806.55,371 A1.5,1.5 0 0 1 808.05,372.5 L808.05,507.5 A1.5,1.5 0 0 1 806.55,509 L551.55,509 A1.5,1.5 0 0 1 550.05,507.5 L550.05,354.5 A1.5,1.5 0 0 1 551.55,353 " fill="#24273A" style="stroke:#CAD3F5;stroke-width:1.5;"/><line style="stroke:#CAD3F5;stroke-width:1.5;" x1="550.05" x2="581.0441" y1="371" y2="371"/><text fill="#CAD3F5" font-family="Helvetica" font-size="12" font-weight="bold" lengthAdjust="spacing" textLength="17.9941" x="554.05" y="364.2402">util</text></g><!--cluster concurrent--><g id="cluster_concurrent"><path d="M575.55,392 L641.2277,392 A2.25,2.25 0 0 1 642.7277,393.5 L649.7277,410 L782.55,410 A1.5,1.5 0 0 1 784.05,411.5 L784.05,483.5 A1.5,1.5 0 0 1 782.55,485 L575.55,485 A1.5,1.5 0 0 1 574.05,483.5 L574.05,393.5 A1.5,1.5 0 0 1 575.55,392 " fill="#24273A" style="stroke:#CAD3F5;stroke-width:1.5;"/><line style="stroke:#CAD3F5;stroke-width:1.5;" x1="574.05" x2="649.7277" y1="410" y2="410"/><text fill="#CAD3F5" font-family="Helvetica" font-size="12" font-weight="bold" lengthAdjust="spacing" textLength="62.6777" x="578.05" y="403.2402">concurrent</text></g><!--cluster helper--><g id="cluster_helper"><rect fill="#363A4F" height="261" rx="1.5" ry="1.5" style="stroke:#CAD3F5;stroke-width:1.0;" width="781" x="233.05" y="7"/><text fill="#CAD3F5" font-family="Helvetica" font-size="12" font-weight="bold" lengthAdjust="spacing" textLength="36.0117" x="605.5441" y="18.2402">helper</text></g><!--class CompletableFuture--><g id="elem_CompletableFuture"><rect codeLine="10" fill="#24273A" height="46" id="CompletableFuture" rx="1.5" ry="1.5" style="stroke:#C6A0F6;stroke-width:2.0;" width="178.0742" x="590.01" y="423"/><rect fill="#363A4F" height="30" rx="1.5" ry="1.5" style="stroke:#363A4F;stroke-width:2.0;" width="178.0742" x="590.01" y="423"/><rect fill="#363A4F" height="1.5" style="stroke:#363A4F;stroke-width:2.0;" width="178.0742" x="590.01" y="451.5"/><rect codeLine="10" fill="none" height="46" id="CompletableFuture" rx="1.5" ry="1.5" style="stroke:#C6A0F6;stroke-width:2.0;" width="178.0742" x="590.01" y="423"/><ellipse cx="604.01" cy="438" fill="#ADD1B2" rx="10" ry="10" style="stroke:#181818;stroke-width:1.0;"/><path d="M605.844,442.248 Q605.4338,442.459 604.9827,442.5645 Q604.5315,442.6699 604.0334,442.6699 Q602.2639,442.6699 601.3323,441.5039 Q600.4006,440.3379 600.4006,438.1348 Q600.4006,435.9258 601.3323,434.7598 Q602.2639,433.5938 604.0334,433.5938 Q604.5315,433.5938 604.9885,433.6992 Q605.4455,433.8047 605.844,434.0156 L605.844,435.9375 Q605.3987,435.5273 604.9797,435.3369 Q604.5608,435.1465 604.1155,435.1465 Q603.1663,435.1465 602.6829,435.8994 Q602.1995,436.6523 602.1995,438.1348 Q602.1995,439.6113 602.6829,440.3643 Q603.1663,441.1172 604.1155,441.1172 Q604.5608,441.1172 604.9797,440.9268 Q605.3987,440.7363 605.844,440.3262 Z " fill="#CAD3F5"/><text fill="#A6DA95" font-family="Helvetica" font-size="16" lengthAdjust="spacing" textLength="136.0703" x="617.01" y="442.3203">CompletableFuture</text><rect fill="#24273A" height="14" style="stroke:#C6A0F6;stroke-width:1.0;stroke-dasharray:2.0,2.0;" width="10.0039" x="761.0803" y="420"/><text fill="#CAD3F5" font-family="Helvetica" font-size="12" font-style="italic" lengthAdjust="spacing" textLength="8.0039" x="762.0803" y="430.2402">A</text><line style="stroke:#C6A0F6;stroke-width:2.0;" x1="591.01" x2="767.0842" y1="453" y2="453"/><line style="stroke:#C6A0F6;stroke-width:2.0;" x1="591.01" x2="767.0842" y1="461" y2="461"/></g><!--class CompletableFutureKindHelper--><g id="elem_CompletableFutureKindHelper"><rect codeLine="15" fill="#24273A" height="82" id="CompletableFutureKindHelper" rx="1.5" ry="1.5" style="stroke:#C6A0F6;stroke-width:2.0;" width="516.2969" x="481.9" y="38"/><rect fill="#363A4F" height="30" rx="1.5" ry="1.5" style="stroke:#363A4F;stroke-width:2.0;" width="516.2969" x="481.9" y="38"/><rect fill="#363A4F" height="1.5" style="stroke:#363A4F;stroke-width:2.0;" width="516.2969" x="481.9" y="66.5"/><rect codeLine="15" fill="none" height="82" id="CompletableFutureKindHelper" rx="1.5" ry="1.5" style="stroke:#C6A0F6;stroke-width:2.0;" width="516.2969" x="481.9" y="38"/><ellipse cx="628.4352" cy="53" fill="#ADD1B2" rx="10" ry="10" style="stroke:#181818;stroke-width:1.0;"/><path d="M630.2691,57.248 Q629.859,57.459 629.4078,57.5645 Q628.9566,57.6699 628.4586,57.6699 Q626.6891,57.6699 625.7574,56.5039 Q624.8258,55.3379 624.8258,53.1348 Q624.8258,50.9258 625.7574,49.7598 Q626.6891,48.5938 628.4586,48.5938 Q628.9566,48.5938 629.4137,48.6992 Q629.8707,48.8047 630.2691,49.0156 L630.2691,50.9375 Q629.8238,50.5273 629.4049,50.3369 Q628.9859,50.1465 628.5406,50.1465 Q627.5914,50.1465 627.108,50.8994 Q626.6246,51.6523 626.6246,53.1348 Q626.6246,54.6113 627.108,55.3643 Q627.5914,56.1172 628.5406,56.1172 Q628.9859,56.1172 629.4049,55.9268 Q629.8238,55.7363 630.2691,55.3262 Z " fill="#CAD3F5"/><text fill="#A6DA95" font-family="Helvetica" font-size="16" lengthAdjust="spacing" textLength="215.2266" x="647.4352" y="57.3203">CompletableFutureKindHelper</text><line style="stroke:#C6A0F6;stroke-width:2.0;" x1="482.9" x2="997.1969" y1="68" y2="68"/><line style="stroke:#C6A0F6;stroke-width:2.0;" x1="482.9" x2="997.1969" y1="76" y2="76"/><ellipse cx="492.9" cy="87.5" fill="#84BE84" rx="3" ry="3" style="stroke:#038048;stroke-width:1.0;"/><text fill="#A6DA95" font-family="Helvetica" font-size="12" lengthAdjust="spacing" text-decoration="underline" textLength="367.6992" x="500.9" y="89.2402">CompletableFutureKind&lt;A&gt; wrap(@NonNull CompletableFuture&lt;A&gt;)</text><ellipse cx="492.9" cy="99.5" fill="#84BE84" rx="3" ry="3" style="stroke:#038048;stroke-width:1.0;"/><text fill="#A6DA95" font-family="Helvetica" font-size="12" lengthAdjust="spacing" text-decoration="underline" textLength="491.2969" x="500.9" y="101.2402">@NonNull CompletableFuture&lt;A&gt; unwrap(@Nullable Kind&lt;CompletableFutureKind&lt;?&gt;, A&gt;)</text><ellipse cx="492.9" cy="111.5" fill="#84BE84" rx="3" ry="3" style="stroke:#038048;stroke-width:1.0;"/><text fill="#A6DA95" font-family="Helvetica" font-size="12" lengthAdjust="spacing" text-decoration="underline" textLength="237.4746" x="500.9" y="113.2402">A join(Kind&lt;CompletableFutureKind&lt;?&gt;, A&gt;)</text></g><!--class CompletableFutureHolder--><g id="elem_CompletableFutureHolder"><rect codeLine="22" fill="#24273A" height="58" id="CompletableFutureHolder" rx="1.5" ry="1.5" style="stroke:#C6A0F6;stroke-width:2.0;" width="241.293" x="428.4" y="194"/><rect fill="#363A4F" height="30" rx="1.5" ry="1.5" style="stroke:#363A4F;stroke-width:2.0;" width="241.293" x="428.4" y="194"/><rect fill="#363A4F" height="1.5" style="stroke:#363A4F;stroke-width:2.0;" width="241.293" x="428.4" y="222.5"/><rect codeLine="22" fill="none" height="58" id="CompletableFutureHolder" rx="1.5" ry="1.5" style="stroke:#C6A0F6;stroke-width:2.0;" width="241.293" x="428.4" y="194"/><ellipse cx="449.6387" cy="209" fill="#ADD1B2" rx="10" ry="10" style="stroke:#181818;stroke-width:1.0;"/><path d="M451.4727,213.248 Q451.0625,213.459 450.6113,213.5645 Q450.1602,213.6699 449.6621,213.6699 Q447.8926,213.6699 446.9609,212.5039 Q446.0293,211.3379 446.0293,209.1348 Q446.0293,206.9258 446.9609,205.7598 Q447.8926,204.5938 449.6621,204.5938 Q450.1602,204.5938 450.6172,204.6992 Q451.0742,204.8047 451.4727,205.0156 L451.4727,206.9375 Q451.0273,206.5273 450.6084,206.3369 Q450.1895,206.1465 449.7441,206.1465 Q448.7949,206.1465 448.3115,206.8994 Q447.8281,207.6523 447.8281,209.1348 Q447.8281,210.6113 448.3115,211.3643 Q448.7949,212.1172 449.7441,212.1172 Q450.1895,212.1172 450.6084,211.9268 Q451.0273,211.7363 451.4727,211.3262 Z " fill="#CAD3F5"/><text fill="#A6DA95" font-family="Helvetica" font-size="16" lengthAdjust="spacing" textLength="183.2031" x="464.2473" y="213.3203">CompletableFutureHolder</text><rect fill="#24273A" height="14" style="stroke:#C6A0F6;stroke-width:1.0;stroke-dasharray:2.0,2.0;" width="10.0039" x="662.6891" y="191"/><text fill="#CAD3F5" font-family="Helvetica" font-size="12" font-style="italic" lengthAdjust="spacing" textLength="8.0039" x="663.6891" y="201.2402">A</text><line style="stroke:#C6A0F6;stroke-width:2.0;" x1="429.4" x2="668.693" y1="224" y2="224"/><rect fill="none" height="6" style="stroke:#C82930;stroke-width:1.0;" width="6" x="436.4" y="232.5"/><text fill="#A6DA95" font-family="Helvetica" font-size="12" lengthAdjust="spacing" textLength="216.293" x="447.4" y="237.2402">@NonNull CompletableFuture&lt;A&gt; future</text><line style="stroke:#C6A0F6;stroke-width:2.0;" x1="429.4" x2="668.693" y1="244" y2="244"/></g><!--class CompletableFutureKind--><g id="elem_CompletableFutureKind"><rect fill="#24273A" height="46" id="CompletableFutureKind" rx="1.5" ry="1.5" style="stroke:#C6A0F6;stroke-width:2.0;" width="198.0938" x="249" y="56"/><rect fill="#363A4F" height="30" rx="1.5" ry="1.5" style="stroke:#363A4F;stroke-width:2.0;" width="198.0938" x="249" y="56"/><rect fill="#363A4F" height="1.5" style="stroke:#363A4F;stroke-width:2.0;" width="198.0938" x="249" y="84.5"/><rect fill="none" height="46" id="CompletableFutureKind" rx="1.5" ry="1.5" style="stroke:#C6A0F6;stroke-width:2.0;" width="198.0938" x="249" y="56"/><ellipse cx="263" cy="71" fill="#B4A7E5" rx="10" ry="10" style="stroke:#181818;stroke-width:1.0;"/><path d="M260.0078,68.2754 L260.0078,66.752 L265.2168,66.752 L265.2168,68.2754 L263.4766,68.2754 L263.4766,73.9766 L265.2168,73.9766 L265.2168,75.5 L260.0078,75.5 L260.0078,73.9766 L261.748,73.9766 L261.748,68.2754 Z " fill="#CAD3F5"/><text fill="#A6DA95" font-family="Helvetica" font-size="16" font-style="italic" lengthAdjust="spacing" textLength="168.0938" x="276" y="75.3203">CompletableFutureKind</text><line style="stroke:#C6A0F6;stroke-width:2.0;" x1="250" x2="446.0938" y1="86" y2="86"/><line style="stroke:#C6A0F6;stroke-width:2.0;" x1="250" x2="446.0938" y1="94" y2="94"/></g><!--class Kind--><g id="elem_Kind"><rect codeLine="4" fill="#24273A" height="54" id="Kind" rx="1.5" ry="1.5" style="stroke:#C6A0F6;stroke-width:2.0;" width="127.3711" x="48.36" y="52"/><rect fill="#363A4F" height="38" rx="1.5" ry="1.5" style="stroke:#363A4F;stroke-width:2.0;" width="127.3711" x="48.36" y="52"/><rect fill="#363A4F" height="1.5" style="stroke:#363A4F;stroke-width:2.0;" width="127.3711" x="48.36" y="88.5"/><rect codeLine="4" fill="none" height="54" id="Kind" rx="1.5" ry="1.5" style="stroke:#C6A0F6;stroke-width:2.0;" width="127.3711" x="48.36" y="52"/><ellipse cx="62.36" cy="71" fill="#B4A7E5" rx="10" ry="10" style="stroke:#181818;stroke-width:1.0;"/><path d="M59.3678,68.2754 L59.3678,66.752 L64.5768,66.752 L64.5768,68.2754 L62.8366,68.2754 L62.8366,73.9766 L64.5768,73.9766 L64.5768,75.5 L59.3678,75.5 L59.3678,73.9766 L61.108,73.9766 L61.108,68.2754 Z " fill="#CAD3F5"/><text fill="#CAD3F5" font-family="Helvetica" font-size="12" font-style="italic" lengthAdjust="spacing" textLength="75.3691" x="73.36" y="66.2402">&#171;HKT Bridge&#187;</text><text fill="#A6DA95" font-family="Helvetica" font-size="16" font-style="italic" lengthAdjust="spacing" textLength="32.0234" x="95.0329" y="81.3203">Kind</text><rect fill="#24273A" height="14" style="stroke:#C6A0F6;stroke-width:1.0;stroke-dasharray:2.0,2.0;" width="24.002" x="154.7291" y="49"/><text fill="#CAD3F5" font-family="Helvetica" font-size="12" font-style="italic" lengthAdjust="spacing" textLength="22.002" x="155.7291" y="59.2402">F, A</text><line style="stroke:#C6A0F6;stroke-width:2.0;" x1="49.36" x2="174.7311" y1="90" y2="90"/><line style="stroke:#C6A0F6;stroke-width:2.0;" x1="49.36" x2="174.7311" y1="98" y2="98"/></g><!--class CompletableFutureKind--><g id="elem_CompletableFutureKind"><rect codeLine="6" fill="#24273A" height="46" id="CompletableFutureKind" rx="1.5" ry="1.5" style="stroke:#C6A0F6;stroke-width:2.0;" width="210.0977" x="7" y="200"/><rect fill="#363A4F" height="30" rx="1.5" ry="1.5" style="stroke:#363A4F;stroke-width:2.0;" width="210.0977" x="7" y="200"/><rect fill="#363A4F" height="1.5" style="stroke:#363A4F;stroke-width:2.0;" width="210.0977" x="7" y="228.5"/><rect codeLine="6" fill="none" height="46" id="CompletableFutureKind" rx="1.5" ry="1.5" style="stroke:#C6A0F6;stroke-width:2.0;" width="210.0977" x="7" y="200"/><ellipse cx="21" cy="215" fill="#B4A7E5" rx="10" ry="10" style="stroke:#181818;stroke-width:1.0;"/><path d="M18.0078,212.2754 L18.0078,210.752 L23.2168,210.752 L23.2168,212.2754 L21.4766,212.2754 L21.4766,217.9766 L23.2168,217.9766 L23.2168,219.5 L18.0078,219.5 L18.0078,217.9766 L19.748,217.9766 L19.748,212.2754 Z " fill="#CAD3F5"/><text fill="#A6DA95" font-family="Helvetica" font-size="16" font-style="italic" lengthAdjust="spacing" textLength="168.0938" x="34" y="219.3203">CompletableFutureKind</text><rect fill="#24273A" height="14" style="stroke:#C6A0F6;stroke-width:1.0;stroke-dasharray:2.0,2.0;" width="10.0039" x="210.0938" y="197"/><text fill="#CAD3F5" font-family="Helvetica" font-size="12" font-style="italic" lengthAdjust="spacing" textLength="8.0039" x="211.0938" y="207.2402">A</text><line style="stroke:#C6A0F6;stroke-width:2.0;" x1="8" x2="216.0977" y1="230" y2="230"/><line style="stroke:#C6A0F6;stroke-width:2.0;" x1="8" x2="216.0977" y1="238" y2="238"/></g><!--reverse link Kind to CompletableFutureKind--><g id="link_Kind_CompletableFutureKind"><path d="M112.05,124.38 C112.05,151.17 112.05,174.21 112.05,199.51 " fill="none" id="Kind-backto-CompletableFutureKind" style="stroke:#F5BDE6;stroke-width:1.0;"/><polygon fill="none" points="112.05,106.38,106.05,124.38,118.05,124.38,112.05,106.38" style="stroke:#F5BDE6;stroke-width:1.0;"/></g><!--reverse link CompletableFutureKind to CompletableFutureHolder--><g id="link_CompletableFutureKind_CompletableFutureHolder"><path d="M394.1611,112.5764 C429.0511,137.2264 470.77,166.7 508.86,193.61 " fill="none" id="CompletableFutureKind-backto-CompletableFutureHolder" style="stroke:#F5BDE6;stroke-width:1.0;stroke-dasharray:7.0,7.0;"/><polygon fill="none" points="379.46,102.19,390.699,117.4768,397.6232,107.6761,379.46,102.19" style="stroke:#F5BDE6;stroke-width:1.0;"/></g><!--link CompletableFutureKindHelper to CompletableFutureHolder--><g id="link_CompletableFutureKindHelper_CompletableFutureHolder"><path codeLine="26" d="M685.83,120.31 C654.39,143.68 620.3847,168.9597 592.1447,189.9597 " fill="none" id="CompletableFutureKindHelper-to-CompletableFutureHolder" style="stroke:#F5BDE6;stroke-width:1.0;stroke-dasharray:7.0,7.0;"/><polygon fill="#F5BDE6" points="587.33,193.54,596.9389,191.3793,591.3422,190.5564,592.1651,184.9597,587.33,193.54" style="stroke:#F5BDE6;stroke-width:1.0;"/><text fill="#CAD3F5" font-family="Helvetica" font-size="12" lengthAdjust="spacing" textLength="39.3516" x="645.55" y="160.2402">creates</text></g><!--link CompletableFutureKindHelper to CompletableFuture--><g id="link_CompletableFutureKindHelper_CompletableFuture"><path codeLine="27" d="M733.29,120.46 C720.41,197.48 693.769,356.9421 683.759,416.8421 " fill="none" id="CompletableFutureKindHelper-to-CompletableFuture" style="stroke:#F5BDE6;stroke-width:1.0;stroke-dasharray:7.0,7.0;"/><polygon fill="#F5BDE6" points="682.77,422.76,688.1987,414.5424,683.5941,417.8284,680.3081,413.2238,682.77,422.76" style="stroke:#F5BDE6;stroke-width:1.0;"/><text fill="#CAD3F5" font-family="Helvetica" font-size="12" lengthAdjust="spacing" textLength="128.0449" x="721.51" y="226.2402">unwraps to / wraps from</text></g><!--link CompletableFutureHolder to CompletableFuture--><g id="link_CompletableFutureHolder_CompletableFuture"><path codeLine="28" d="M571.8635,262.7836 C598.0535,307.3136 639.0872,377.0688 662.8772,417.4988 " fill="none" id="CompletableFutureHolder-CompletableFuture" style="stroke:#F5BDE6;stroke-width:1.0;"/><polygon fill="none" points="565.78,252.44,565.3739,259.6397,571.8635,262.7836,572.2696,255.584,565.78,252.44" style="stroke:#F5BDE6;stroke-width:1.0;"/><polygon fill="#F5BDE6" points="665.92,422.67,664.8032,412.8847,663.3843,418.3607,657.9083,416.9418,665.92,422.67" style="stroke:#F5BDE6;stroke-width:1.0;"/><text fill="#CAD3F5" font-family="Helvetica" font-size="12" lengthAdjust="spacing" textLength="28.6875" x="592.1" y="294.2402">holds</text></g><!--SRC=[dP91Jzn038Nl-HNk2L2RoHrjqrAarQf870fIpyRnRePEPaOpdb89yTzn4bfLa43LcnM_zzb-atVMaoiTGoyIysdJ9Bmp1ojzkIcP4mKlxCLG61fF8GlMbXf2YR4GMLyFIDHRb517XrxAu6hfUU1cGEkRgJHHlrPLPHMLzaWC5zPtc-q7E6jXizbTNCENPBi3j-tVelCmHCU2DuwtHKhYoQKM_gKhTNccBAi-jHFylW8uWkzMFESCM_W8Q_BgeQh8eQfkyIUQ8jRfpPvAIkFvBsoRF_GhGTzXwk2h6k5yP8omYFG33nehkyX9p_p6fCg3qoidvpnjSP_Tx1bL0E_XNbCNIm_hYTmbZCUVBuE_BCx1qh8dprclgg7u9wGgnixRMRyOS0QtmVhZVpGUWJ56AqrkDPfTS1sdSJqxTWPzcBoUoPnU_SQX-wdwFVYrrp2cNLi9Je4Iet3-7uQwvxWpI806vdAVmh14UveOwdePrMj__04V0G00]--></g></svg>