<svg xmlns="http://www.w3.org/2000/svg" xmlns:xlink="http://www.w3.org/1999/xlink" contentStyleType="text/css" height="692px" preserveAspectRatio="none" style="width:1765px;height:692px;background:#24273A;" version="1.1" viewBox="0 0 1765 692" width="1765px" zoomAndPan="magnify"><defs/><g><rect fill="#24273A" height="692" style="stroke:none;stroke-width:1.0;" width="1765" x="0" y="0"/><!--cluster CompletableFutureKind--><g id="cluster_CompletableFutureKind"><path d="M1215.89,6 L1354.892,6 A2.25,2.25 0 0 1 1356.392,7.5 L1363.392,24 L1566.89,24 A1.5,1.5 0 0 1 1568.39,25.5 L1568.39,160.5 A1.5,1.5 0 0 1 1566.89,162 L1215.89,162 A1.5,1.5 0 0 1 1214.39,160.5 L1214.39,7.5 A1.5,1.5 0 0 1 1215.89,6 " fill="#24273A" style="stroke:#CAD3F5;stroke-width:1.5;"/><line style="stroke:#CAD3F5;stroke-width:1.5;" x1="1214.39" x2="1363.392" y1="24" y2="24"/><text fill="#CAD3F5" font-family="Helvetica" font-size="12" font-weight="bold" lengthAdjust="spacing" textLength="136.002" x="1218.39" y="17.2402">CompletableFutureKind</text></g><!--cluster Witness<A> extends Kind<CompletableFutureKind--><g id="cluster_Witness&lt;A&gt; extends Kind&lt;CompletableFutureKind"><path d="M1239.89,45 L1533.2689,45 A2.25,2.25 0 0 1 1534.7689,46.5 L1541.7689,63 L1542.89,63 A1.5,1.5 0 0 1 1544.39,64.5 L1544.39,136.5 A1.5,1.5 0 0 1 1542.89,138 L1239.89,138 A1.5,1.5 0 0 1 1238.39,136.5 L1238.39,46.5 A1.5,1.5 0 0 1 1239.89,45 " fill="#24273A" style="stroke:#CAD3F5;stroke-width:1.5;"/><line style="stroke:#CAD3F5;stroke-width:1.5;" x1="1238.39" x2="1541.7689" y1="63" y2="63"/><text fill="#CAD3F5" font-family="Helvetica" font-size="12" font-weight="bold" lengthAdjust="spacing" textLength="290.3789" x="1242.39" y="56.2402">Witness&lt;A&gt; extends Kind&lt;CompletableFutureKind</text></g><!--class Witness, A>--><g id="elem_Witness, A&gt;"><rect codeLine="6" fill="#24273A" height="46" id="Witness, A&gt;" rx="1.5" ry="1.5" style="stroke:#C6A0F6;stroke-width:2.0;" width="115.8047" x="1333.49" y="76"/><rect fill="#363A4F" height="30" rx="1.5" ry="1.5" style="stroke:#363A4F;stroke-width:2.0;" width="115.8047" x="1333.49" y="76"/><rect fill="#363A4F" height="1.5" style="stroke:#363A4F;stroke-width:2.0;" width="115.8047" x="1333.49" y="104.5"/><rect codeLine="6" fill="none" height="46" id="Witness, A&gt;" rx="1.5" ry="1.5" style="stroke:#C6A0F6;stroke-width:2.0;" width="115.8047" x="1333.49" y="76"/><ellipse cx="1347.49" cy="91" fill="#B4A7E5" rx="10" ry="10" style="stroke:#181818;stroke-width:1.0;"/><path d="M1344.4978,88.2754 L1344.4978,86.752 L1349.7068,86.752 L1349.7068,88.2754 L1347.9666,88.2754 L1347.9666,93.9766 L1349.7068,93.9766 L1349.7068,95.5 L1344.4978,95.5 L1344.4978,93.9766 L1346.238,93.9766 L1346.238,88.2754 Z " fill="#CAD3F5"/><text fill="#A6DA95" font-family="Helvetica" font-size="16" font-style="italic" lengthAdjust="spacing" textLength="85.8047" x="1360.49" y="95.3203">Witness, A&gt;</text><line style="stroke:#C6A0F6;stroke-width:2.0;" x1="1334.49" x2="1448.2947" y1="106" y2="106"/><line style="stroke:#C6A0F6;stroke-width:2.0;" x1="1334.49" x2="1448.2947" y1="114" y2="114"/></g><!--class Kind--><g id="elem_Kind"><rect codeLine="5" fill="#24273A" height="46" id="Kind" rx="1.5" ry="1.5" style="stroke:#C6A0F6;stroke-width:2.0;" width="88.0254" x="805.38" y="76"/><rect fill="#363A4F" height="30" rx="1.5" ry="1.5" style="stroke:#363A4F;stroke-width:2.0;" width="88.0254" x="805.38" y="76"/><rect fill="#363A4F" height="1.5" style="stroke:#363A4F;stroke-width:2.0;" width="88.0254" x="805.38" y="104.5"/><rect codeLine="5" fill="none" height="46" id="Kind" rx="1.5" ry="1.5" style="stroke:#C6A0F6;stroke-width:2.0;" width="88.0254" x="805.38" y="76"/><ellipse cx="819.38" cy="91" fill="#B4A7E5" rx="10" ry="10" style="stroke:#181818;stroke-width:1.0;"/><path d="M816.3878,88.2754 L816.3878,86.752 L821.5968,86.752 L821.5968,88.2754 L819.8566,88.2754 L819.8566,93.9766 L821.5968,93.9766 L821.5968,95.5 L816.3878,95.5 L816.3878,93.9766 L818.128,93.9766 L818.128,88.2754 Z " fill="#CAD3F5"/><text fill="#A6DA95" font-family="Helvetica" font-size="16" font-style="italic" lengthAdjust="spacing" textLength="32.0234" x="832.38" y="95.3203">Kind</text><rect fill="#24273A" height="14" style="stroke:#C6A0F6;stroke-width:1.0;stroke-dasharray:2.0,2.0;" width="24.002" x="872.4034" y="73"/><text fill="#CAD3F5" font-family="Helvetica" font-size="12" font-style="italic" lengthAdjust="spacing" textLength="22.002" x="873.4034" y="83.2402">F, A</text><line style="stroke:#C6A0F6;stroke-width:2.0;" x1="806.38" x2="892.4054" y1="106" y2="106"/><line style="stroke:#C6A0F6;stroke-width:2.0;" x1="806.38" x2="892.4054" y1="114" y2="114"/></g><!--class Functor--><g id="elem_Functor"><rect codeLine="8" fill="#24273A" height="58" id="Functor" rx="1.5" ry="1.5" style="stroke:#C6A0F6;stroke-width:2.0;" width="269.125" x="928.83" y="70"/><rect fill="#363A4F" height="30" rx="1.5" ry="1.5" style="stroke:#363A4F;stroke-width:2.0;" width="269.125" x="928.83" y="70"/><rect fill="#363A4F" height="1.5" style="stroke:#363A4F;stroke-width:2.0;" width="269.125" x="928.83" y="98.5"/><rect codeLine="8" fill="none" height="58" id="Functor" rx="1.5" ry="1.5" style="stroke:#C6A0F6;stroke-width:2.0;" width="269.125" x="928.83" y="70"/><ellipse cx="1026.6064" cy="85" fill="#B4A7E5" rx="10" ry="10" style="stroke:#181818;stroke-width:1.0;"/><path d="M1023.6142,82.2754 L1023.6142,80.752 L1028.8232,80.752 L1028.8232,82.2754 L1027.0829,82.2754 L1027.0829,87.9766 L1028.8232,87.9766 L1028.8232,89.5 L1023.6142,89.5 L1023.6142,87.9766 L1025.3544,87.9766 L1025.3544,82.2754 Z " fill="#CAD3F5"/><text fill="#A6DA95" font-family="Helvetica" font-size="16" font-style="italic" lengthAdjust="spacing" textLength="54.2422" x="1045.6064" y="89.3203">Functor</text><rect fill="#24273A" height="14" style="stroke:#C6A0F6;stroke-width:1.0;stroke-dasharray:2.0,2.0;" width="9.3301" x="1191.6249" y="67"/><text fill="#CAD3F5" font-family="Helvetica" font-size="12" font-style="italic" lengthAdjust="spacing" textLength="7.3301" x="1192.6249" y="77.2402">F</text><line style="stroke:#C6A0F6;stroke-width:2.0;" x1="929.83" x2="1196.955" y1="100" y2="100"/><line style="stroke:#C6A0F6;stroke-width:2.0;" x1="929.83" x2="1196.955" y1="108" y2="108"/><ellipse cx="939.83" cy="119.5" fill="#84BE84" rx="3" ry="3" style="stroke:#038048;stroke-width:1.0;"/><text fill="#A6DA95" font-family="Helvetica" font-size="12" lengthAdjust="spacing" textLength="244.125" x="947.83" y="121.2402">Kind&lt;F, B&gt; map(Function&lt;A, B&gt;, Kind&lt;F, A&gt;)</text></g><!--class Applicative--><g id="elem_Applicative"><rect codeLine="11" fill="#24273A" height="70" id="Applicative" rx="1.5" ry="1.5" style="stroke:#C6A0F6;stroke-width:2.0;" width="311.1602" x="606.81" y="209"/><rect fill="#363A4F" height="30" rx="1.5" ry="1.5" style="stroke:#363A4F;stroke-width:2.0;" width="311.1602" x="606.81" y="209"/><rect fill="#363A4F" height="1.5" style="stroke:#363A4F;stroke-width:2.0;" width="311.1602" x="606.81" y="237.5"/><rect codeLine="11" fill="none" height="70" id="Applicative" rx="1.5" ry="1.5" style="stroke:#C6A0F6;stroke-width:2.0;" width="311.1602" x="606.81" y="209"/><ellipse cx="714.0375" cy="224" fill="#B4A7E5" rx="10" ry="10" style="stroke:#181818;stroke-width:1.0;"/><path d="M711.0454,221.2754 L711.0454,219.752 L716.2543,219.752 L716.2543,221.2754 L714.5141,221.2754 L714.5141,226.9766 L716.2543,226.9766 L716.2543,228.5 L711.0454,228.5 L711.0454,226.9766 L712.7856,226.9766 L712.7856,221.2754 Z " fill="#CAD3F5"/><text fill="#A6DA95" font-family="Helvetica" font-size="16" font-style="italic" lengthAdjust="spacing" textLength="77.375" x="733.0375" y="228.3203">Applicative</text><rect fill="#24273A" height="14" style="stroke:#C6A0F6;stroke-width:1.0;stroke-dasharray:2.0,2.0;" width="9.3301" x="911.6401" y="206"/><text fill="#CAD3F5" font-family="Helvetica" font-size="12" font-style="italic" lengthAdjust="spacing" textLength="7.3301" x="912.6401" y="216.2402">F</text><line style="stroke:#C6A0F6;stroke-width:2.0;" x1="607.81" x2="916.9702" y1="239" y2="239"/><line style="stroke:#C6A0F6;stroke-width:2.0;" x1="607.81" x2="916.9702" y1="247" y2="247"/><ellipse cx="617.81" cy="258.5" fill="#84BE84" rx="3" ry="3" style="stroke:#038048;stroke-width:1.0;"/><text fill="#A6DA95" font-family="Helvetica" font-size="12" lengthAdjust="spacing" textLength="89.373" x="625.81" y="260.2402">Kind&lt;F, A&gt; of(A)</text><ellipse cx="617.81" cy="270.5" fill="#84BE84" rx="3" ry="3" style="stroke:#038048;stroke-width:1.0;"/><text fill="#A6DA95" font-family="Helvetica" font-size="12" lengthAdjust="spacing" textLength="286.1602" x="625.81" y="272.2402">Kind&lt;F, B&gt; ap(Kind&lt;F, Function&lt;A, B&gt;&gt;, Kind&lt;F, A&gt;)</text></g><!--class Monad--><g id="elem_Monad"><rect codeLine="15" fill="#24273A" height="58" id="Monad" rx="1.5" ry="1.5" style="stroke:#C6A0F6;stroke-width:2.0;" width="337.1641" x="134.81" y="359"/><rect fill="#363A4F" height="30" rx="1.5" ry="1.5" style="stroke:#363A4F;stroke-width:2.0;" width="337.1641" x="134.81" y="359"/><rect fill="#363A4F" height="1.5" style="stroke:#363A4F;stroke-width:2.0;" width="337.1641" x="134.81" y="387.5"/><rect codeLine="15" fill="none" height="58" id="Monad" rx="1.5" ry="1.5" style="stroke:#C6A0F6;stroke-width:2.0;" width="337.1641" x="134.81" y="359"/><ellipse cx="269.2661" cy="374" fill="#B4A7E5" rx="10" ry="10" style="stroke:#181818;stroke-width:1.0;"/><path d="M266.2739,371.2754 L266.2739,369.752 L271.4829,369.752 L271.4829,371.2754 L269.7426,371.2754 L269.7426,376.9766 L271.4829,376.9766 L271.4829,378.5 L266.2739,378.5 L266.2739,376.9766 L268.0141,376.9766 L268.0141,371.2754 Z " fill="#CAD3F5"/><text fill="#A6DA95" font-family="Helvetica" font-size="16" font-style="italic" lengthAdjust="spacing" textLength="48.9219" x="288.2661" y="378.3203">Monad</text><rect fill="#24273A" height="14" style="stroke:#C6A0F6;stroke-width:1.0;stroke-dasharray:2.0,2.0;" width="9.3301" x="465.644" y="356"/><text fill="#CAD3F5" font-family="Helvetica" font-size="12" font-style="italic" lengthAdjust="spacing" textLength="7.3301" x="466.644" y="366.2402">F</text><line style="stroke:#C6A0F6;stroke-width:2.0;" x1="135.81" x2="470.9741" y1="389" y2="389"/><line style="stroke:#C6A0F6;stroke-width:2.0;" x1="135.81" x2="470.9741" y1="397" y2="397"/><ellipse cx="145.81" cy="408.5" fill="#84BE84" rx="3" ry="3" style="stroke:#038048;stroke-width:1.0;"/><text fill="#A6DA95" font-family="Helvetica" font-size="12" lengthAdjust="spacing" textLength="312.1641" x="153.81" y="410.2402">Kind&lt;F, B&gt; flatMap(Function&lt;A, Kind&lt;F, B&gt;&gt;, Kind&lt;F, A&gt;)</text></g><!--class MonadError--><g id="elem_MonadError"><rect codeLine="18" fill="#24273A" height="70" id="MonadError" rx="1.5" ry="1.5" style="stroke:#C6A0F6;stroke-width:2.0;" width="384.5137" x="111.13" y="484"/><rect fill="#363A4F" height="30" rx="1.5" ry="1.5" style="stroke:#363A4F;stroke-width:2.0;" width="384.5137" x="111.13" y="484"/><rect fill="#363A4F" height="1.5" style="stroke:#363A4F;stroke-width:2.0;" width="384.5137" x="111.13" y="512.5"/><rect codeLine="18" fill="none" height="70" id="MonadError" rx="1.5" ry="1.5" style="stroke:#C6A0F6;stroke-width:2.0;" width="384.5137" x="111.13" y="484"/><ellipse cx="244.1476" cy="499" fill="#B4A7E5" rx="10" ry="10" style="stroke:#181818;stroke-width:1.0;"/><path d="M241.1554,496.2754 L241.1554,494.752 L246.3644,494.752 L246.3644,496.2754 L244.6241,496.2754 L244.6241,501.9766 L246.3644,501.9766 L246.3644,503.5 L241.1554,503.5 L241.1554,501.9766 L242.8956,501.9766 L242.8956,496.2754 Z " fill="#CAD3F5"/><text fill="#A6DA95" font-family="Helvetica" font-size="16" font-style="italic" lengthAdjust="spacing" textLength="84.4766" x="263.1476" y="503.3203">MonadError</text><rect fill="#24273A" height="14" style="stroke:#C6A0F6;stroke-width:1.0;stroke-dasharray:2.0,2.0;" width="24.002" x="474.6417" y="481"/><text fill="#CAD3F5" font-family="Helvetica" font-size="12" font-style="italic" lengthAdjust="spacing" textLength="22.002" x="475.6417" y="491.2402">F, E</text><line style="stroke:#C6A0F6;stroke-width:2.0;" x1="112.13" x2="494.6437" y1="514" y2="514"/><line style="stroke:#C6A0F6;stroke-width:2.0;" x1="112.13" x2="494.6437" y1="522" y2="522"/><ellipse cx="122.13" cy="533.5" fill="#84BE84" rx="3" ry="3" style="stroke:#038048;stroke-width:1.0;"/><text fill="#A6DA95" font-family="Helvetica" font-size="12" lengthAdjust="spacing" textLength="132.041" x="130.13" y="535.2402">Kind&lt;F, A&gt; raiseError(E)</text><ellipse cx="122.13" cy="545.5" fill="#84BE84" rx="3" ry="3" style="stroke:#038048;stroke-width:1.0;"/><text fill="#A6DA95" font-family="Helvetica" font-size="12" lengthAdjust="spacing" textLength="359.5137" x="130.13" y="547.2402">Kind&lt;F, A&gt; handleErrorWith(Kind&lt;F, A&gt;, Function&lt;E, Kind&lt;F, A&gt;&gt;)</text></g><!--class CompletableFutureKindHelper--><g id="elem_CompletableFutureKindHelper"><rect codeLine="23" fill="#24273A" height="70" id="CompletableFutureKindHelper" rx="1.5" ry="1.5" style="stroke:#C6A0F6;stroke-width:2.0;" width="411.5391" x="1346.62" y="353"/><rect fill="#363A4F" height="30" rx="1.5" ry="1.5" style="stroke:#363A4F;stroke-width:2.0;" width="411.5391" x="1346.62" y="353"/><rect fill="#363A4F" height="1.5" style="stroke:#363A4F;stroke-width:2.0;" width="411.5391" x="1346.62" y="381.5"/><rect codeLine="23" fill="none" height="70" id="CompletableFutureKindHelper" rx="1.5" ry="1.5" style="stroke:#C6A0F6;stroke-width:2.0;" width="411.5391" x="1346.62" y="353"/><ellipse cx="1440.7763" cy="368" fill="#ADD1B2" rx="10" ry="10" style="stroke:#181818;stroke-width:1.0;"/><path d="M1442.6102,372.248 Q1442.2001,372.459 1441.7489,372.5645 Q1441.2977,372.6699 1440.7997,372.6699 Q1439.0302,372.6699 1438.0985,371.5039 Q1437.1669,370.3379 1437.1669,368.1348 Q1437.1669,365.9258 1438.0985,364.7598 Q1439.0302,363.5938 1440.7997,363.5938 Q1441.2977,363.5938 1441.7548,363.6992 Q1442.2118,363.8047 1442.6102,364.0156 L1442.6102,365.9375 Q1442.1649,365.5273 1441.746,365.3369 Q1441.327,365.1465 1440.8817,365.1465 Q1439.9325,365.1465 1439.4491,365.8994 Q1438.9657,366.6523 1438.9657,368.1348 Q1438.9657,369.6113 1439.4491,370.3643 Q1439.9325,371.1172 1440.8817,371.1172 Q1441.327,371.1172 1441.746,370.9268 Q1442.1649,370.7363 1442.6102,370.3262 Z " fill="#CAD3F5"/><text fill="#A6DA95" font-family="Helvetica" font-size="16" lengthAdjust="spacing" textLength="215.2266" x="1459.7763" y="372.3203">CompletableFutureKindHelper</text><line style="stroke:#C6A0F6;stroke-width:2.0;" x1="1347.62" x2="1757.1591" y1="383" y2="383"/><line style="stroke:#C6A0F6;stroke-width:2.0;" x1="1347.62" x2="1757.1591" y1="391" y2="391"/><text fill="#A6DA95" font-family="Helvetica" font-size="12" lengthAdjust="spacing" text-decoration="underline" textLength="355.5059" x="1352.62" y="404.2402">CompletableFutureKind.Witness&lt;A&gt; wrap(CompletableFuture&lt;A&gt;)</text><text fill="#A6DA95" font-family="Helvetica" font-size="12" lengthAdjust="spacing" text-decoration="underline" textLength="399.5391" x="1352.62" y="416.2402">CompletableFuture&lt;A&gt; unwrap(Kind&lt;CompletableFutureKind.Witness, A&gt;)</text></g><!--class CompletableFutureFunctor--><g id="elem_CompletableFutureFunctor"><rect codeLine="29" fill="#24273A" height="58" id="CompletableFutureFunctor" rx="1.5" ry="1.5" style="stroke:#C6A0F6;stroke-width:2.0;" width="598.6211" x="953.08" y="215"/><rect fill="#363A4F" height="30" rx="1.5" ry="1.5" style="stroke:#363A4F;stroke-width:2.0;" width="598.6211" x="953.08" y="215"/><rect fill="#363A4F" height="1.5" style="stroke:#363A4F;stroke-width:2.0;" width="598.6211" x="953.08" y="243.5"/><rect codeLine="29" fill="none" height="58" id="CompletableFutureFunctor" rx="1.5" ry="1.5" style="stroke:#C6A0F6;stroke-width:2.0;" width="598.6211" x="953.08" y="215"/><ellipse cx="1153.2343" cy="230" fill="#ADD1B2" rx="10" ry="10" style="stroke:#181818;stroke-width:1.0;"/><path d="M1155.0683,234.248 Q1154.6581,234.459 1154.207,234.5645 Q1153.7558,234.6699 1153.2577,234.6699 Q1151.4882,234.6699 1150.5566,233.5039 Q1149.6249,232.3379 1149.6249,230.1348 Q1149.6249,227.9258 1150.5566,226.7598 Q1151.4882,225.5938 1153.2577,225.5938 Q1153.7558,225.5938 1154.2128,225.6992 Q1154.6698,225.8047 1155.0683,226.0156 L1155.0683,227.9375 Q1154.623,227.5273 1154.204,227.3369 Q1153.7851,227.1465 1153.3398,227.1465 Q1152.3905,227.1465 1151.9071,227.8994 Q1151.4238,228.6523 1151.4238,230.1348 Q1151.4238,231.6113 1151.9071,232.3643 Q1152.3905,233.1172 1153.3398,233.1172 Q1153.7851,233.1172 1154.204,232.9268 Q1154.623,232.7363 1155.0683,232.3262 Z " fill="#CAD3F5"/><text fill="#A6DA95" font-family="Helvetica" font-size="16" lengthAdjust="spacing" textLength="190.3125" x="1172.2343" y="234.3203">CompletableFutureFunctor</text><line style="stroke:#C6A0F6;stroke-width:2.0;" x1="954.08" x2="1550.7011" y1="245" y2="245"/><line style="stroke:#C6A0F6;stroke-width:2.0;" x1="954.08" x2="1550.7011" y1="253" y2="253"/><ellipse cx="964.08" cy="264.5" fill="#84BE84" rx="3" ry="3" style="stroke:#038048;stroke-width:1.0;"/><text fill="#A6DA95" font-family="Helvetica" font-size="12" lengthAdjust="spacing" textLength="573.6211" x="972.08" y="266.2402">Kind&lt;CompletableFutureKind.Witness, B&gt; map(Function&lt;A, B&gt;, Kind&lt;CompletableFutureKind.Witness, A&gt;)</text></g><!--class CompletableFutureApplicative--><g id="elem_CompletableFutureApplicative"><rect codeLine="34" fill="#24273A" height="70" id="CompletableFutureApplicative" rx="1.5" ry="1.5" style="stroke:#C6A0F6;stroke-width:2.0;" width="805.4043" x="506.69" y="353"/><rect fill="#363A4F" height="30" rx="1.5" ry="1.5" style="stroke:#363A4F;stroke-width:2.0;" width="805.4043" x="506.69" y="353"/><rect fill="#363A4F" height="1.5" style="stroke:#363A4F;stroke-width:2.0;" width="805.4043" x="506.69" y="381.5"/><rect codeLine="34" fill="none" height="70" id="CompletableFutureApplicative" rx="1.5" ry="1.5" style="stroke:#C6A0F6;stroke-width:2.0;" width="805.4043" x="506.69" y="353"/><ellipse cx="798.6695" cy="368" fill="#ADD1B2" rx="10" ry="10" style="stroke:#181818;stroke-width:1.0;"/><path d="M800.5035,372.248 Q800.0933,372.459 799.6421,372.5645 Q799.191,372.6699 798.6929,372.6699 Q796.9234,372.6699 795.9918,371.5039 Q795.0601,370.3379 795.0601,368.1348 Q795.0601,365.9258 795.9918,364.7598 Q796.9234,363.5938 798.6929,363.5938 Q799.191,363.5938 799.648,363.6992 Q800.105,363.8047 800.5035,364.0156 L800.5035,365.9375 Q800.0582,365.5273 799.6392,365.3369 Q799.2203,365.1465 798.775,365.1465 Q797.8257,365.1465 797.3423,365.8994 Q796.8589,366.6523 796.8589,368.1348 Q796.8589,369.6113 797.3423,370.3643 Q797.8257,371.1172 798.775,371.1172 Q799.2203,371.1172 799.6392,370.9268 Q800.0582,370.7363 800.5035,370.3262 Z " fill="#CAD3F5"/><text fill="#A6DA95" font-family="Helvetica" font-size="16" lengthAdjust="spacing" textLength="213.4453" x="817.6695" y="372.3203">CompletableFutureApplicative</text><line style="stroke:#C6A0F6;stroke-width:2.0;" x1="507.69" x2="1311.0943" y1="383" y2="383"/><line style="stroke:#C6A0F6;stroke-width:2.0;" x1="507.69" x2="1311.0943" y1="391" y2="391"/><ellipse cx="517.69" cy="402.5" fill="#84BE84" rx="3" ry="3" style="stroke:#038048;stroke-width:1.0;"/><text fill="#A6DA95" font-family="Helvetica" font-size="12" lengthAdjust="spacing" textLength="254.1211" x="525.69" y="404.2402">Kind&lt;CompletableFutureKind.Witness, A&gt; of(A)</text><ellipse cx="517.69" cy="414.5" fill="#84BE84" rx="3" ry="3" style="stroke:#038048;stroke-width:1.0;"/><text fill="#A6DA95" font-family="Helvetica" font-size="12" lengthAdjust="spacing" textLength="780.4043" x="525.69" y="416.2402">Kind&lt;CompletableFutureKind.Witness, B&gt; ap(Kind&lt;CompletableFutureKind.Witness, Function&lt;A, B&gt;&gt;, Kind&lt;CompletableFutureKind.Witness, A&gt;)</text></g><!--class CompletableFutureMonad--><g id="elem_CompletableFutureMonad"><rect codeLine="39" fill="#24273A" height="46" id="CompletableFutureMonad" rx="1.5" ry="1.5" style="stroke:#C6A0F6;stroke-width:2.0;" width="214.9922" x="530.89" y="496"/><rect fill="#363A4F" height="30" rx="1.5" ry="1.5" style="stroke:#363A4F;stroke-width:2.0;" width="214.9922" x="530.89" y="496"/><rect fill="#363A4F" height="1.5" style="stroke:#363A4F;stroke-width:2.0;" width="214.9922" x="530.89" y="524.5"/><rect codeLine="39" fill="none" height="46" id="CompletableFutureMonad" rx="1.5" ry="1.5" style="stroke:#C6A0F6;stroke-width:2.0;" width="214.9922" x="530.89" y="496"/><ellipse cx="544.89" cy="511" fill="#ADD1B2" rx="10" ry="10" style="stroke:#181818;stroke-width:1.0;"/><path d="M546.724,515.248 Q546.3138,515.459 545.8627,515.5645 Q545.4115,515.6699 544.9134,515.6699 Q543.1439,515.6699 542.2123,514.5039 Q541.2806,513.3379 541.2806,511.1348 Q541.2806,508.9258 542.2123,507.7598 Q543.1439,506.5938 544.9134,506.5938 Q545.4115,506.5938 545.8685,506.6992 Q546.3255,506.8047 546.724,507.0156 L546.724,508.9375 Q546.2787,508.5273 545.8597,508.3369 Q545.4408,508.1465 544.9955,508.1465 Q544.0463,508.1465 543.5629,508.8994 Q543.0795,509.6523 543.0795,511.1348 Q543.0795,512.6113 543.5629,513.3643 Q544.0463,514.1172 544.9955,514.1172 Q545.4408,514.1172 545.8597,513.9268 Q546.2787,513.7363 546.724,513.3262 Z " fill="#CAD3F5"/><text fill="#A6DA95" font-family="Helvetica" font-size="16" lengthAdjust="spacing" textLength="184.9922" x="557.89" y="515.3203">CompletableFutureMonad</text><line style="stroke:#C6A0F6;stroke-width:2.0;" x1="531.89" x2="744.8822" y1="526" y2="526"/><line style="stroke:#C6A0F6;stroke-width:2.0;" x1="531.89" x2="744.8822" y1="534" y2="534"/></g><!--class CompletableFutureMonadError--><g id="elem_CompletableFutureMonadError"><rect codeLine="43" fill="#24273A" height="70" id="CompletableFutureMonadError" rx="1.5" ry="1.5" style="stroke:#C6A0F6;stroke-width:2.0;" width="926.7813" x="7" y="615"/><rect fill="#363A4F" height="30" rx="1.5" ry="1.5" style="stroke:#363A4F;stroke-width:2.0;" width="926.7813" x="7" y="615"/><rect fill="#363A4F" height="1.5" style="stroke:#363A4F;stroke-width:2.0;" width="926.7813" x="7" y="643.5"/><rect codeLine="43" fill="none" height="70" id="CompletableFutureMonadError" rx="1.5" ry="1.5" style="stroke:#C6A0F6;stroke-width:2.0;" width="926.7813" x="7" y="615"/><ellipse cx="356.1172" cy="630" fill="#ADD1B2" rx="10" ry="10" style="stroke:#181818;stroke-width:1.0;"/><path d="M357.9512,634.248 Q357.541,634.459 357.0898,634.5645 Q356.6387,634.6699 356.1406,634.6699 Q354.3711,634.6699 353.4395,633.5039 Q352.5078,632.3379 352.5078,630.1348 Q352.5078,627.9258 353.4395,626.7598 Q354.3711,625.5938 356.1406,625.5938 Q356.6387,625.5938 357.0957,625.6992 Q357.5527,625.8047 357.9512,626.0156 L357.9512,627.9375 Q357.5059,627.5273 357.0869,627.3369 Q356.668,627.1465 356.2227,627.1465 Q355.2734,627.1465 354.79,627.8994 Q354.3066,628.6523 354.3066,630.1348 Q354.3066,631.6113 354.79,632.3643 Q355.2734,633.1172 356.2227,633.1172 Q356.668,633.1172 357.0869,632.9268 Q357.5059,632.7363 357.9512,632.3262 Z " fill="#CAD3F5"/><text fill="#A6DA95" font-family="Helvetica" font-size="16" lengthAdjust="spacing" textLength="220.5469" x="375.1172" y="634.3203">CompletableFutureMonadError</text><line style="stroke:#C6A0F6;stroke-width:2.0;" x1="8" x2="932.7813" y1="645" y2="645"/><line style="stroke:#C6A0F6;stroke-width:2.0;" x1="8" x2="932.7813" y1="653" y2="653"/><ellipse cx="18" cy="664.5" fill="#84BE84" rx="3" ry="3" style="stroke:#038048;stroke-width:1.0;"/><text fill="#A6DA95" font-family="Helvetica" font-size="12" lengthAdjust="spacing" textLength="344.8125" x="26" y="666.2402">Kind&lt;CompletableFutureKind.Witness, A&gt; raiseError(Throwable)</text><ellipse cx="18" cy="676.5" fill="#84BE84" rx="3" ry="3" style="stroke:#038048;stroke-width:1.0;"/><text fill="#A6DA95" font-family="Helvetica" font-size="12" lengthAdjust="spacing" textLength="901.7813" x="26" y="678.2402">Kind&lt;CompletableFutureKind.Witness, A&gt; handleErrorWith(Kind&lt;CompletableFutureKind.Witness, A&gt;, Function&lt;Throwable, Kind&lt;CompletableFutureKind.Witness, A&gt;&gt;)</text></g><!--reverse link Functor to Applicative--><g id="link_Functor_Applicative"><path d="M987.3014,136.1438 C938.7814,159.1938 886.48,184.05 834.85,208.57 " fill="none" id="Functor-backto-Applicative" style="stroke:#F5BDE6;stroke-width:1.0;"/><polygon fill="none" points="1003.56,128.42,984.7268,130.7243,989.876,141.5634,1003.56,128.42" style="stroke:#F5BDE6;stroke-width:1.0;"/></g><!--reverse link Applicative to Monad--><g id="link_Applicative_Monad"><path d="M633.7942,284.7804 C555.3842,309.0404 468.89,335.8 395.22,358.59 " fill="none" id="Applicative-backto-Monad" style="stroke:#F5BDE6;stroke-width:1.0;"/><polygon fill="none" points="650.99,279.46,632.0208,279.0484,635.5677,290.5123,650.99,279.46" style="stroke:#F5BDE6;stroke-width:1.0;"/></g><!--reverse link Monad to MonadError--><g id="link_Monad_MonadError"><path d="M303.39,435.31 C303.39,454.89 303.39,463.05 303.39,483.8 " fill="none" id="Monad-backto-MonadError" style="stroke:#F5BDE6;stroke-width:1.0;"/><polygon fill="none" points="303.39,417.31,297.39,435.31,309.39,435.31,303.39,417.31" style="stroke:#F5BDE6;stroke-width:1.0;"/></g><!--reverse link Functor to CompletableFutureFunctor--><g id="link_Functor_CompletableFutureFunctor"><path d="M1115.0845,139.1104 C1148.1145,164.1004 1181.7,189.52 1214.8,214.56 " fill="none" id="Functor-backto-CompletableFutureFunctor" style="stroke:#F5BDE6;stroke-width:1.0;stroke-dasharray:7.0,7.0;"/><polygon fill="none" points="1100.73,128.25,1111.4644,143.8952,1118.7046,134.3256,1100.73,128.25" style="stroke:#F5BDE6;stroke-width:1.0;"/></g><!--link CompletableFutureFunctor to CompletableFutureKindHelper--><g id="link_CompletableFutureFunctor_CompletableFutureKindHelper"><path codeLine="32" d="M1312.38,273.39 C1360.51,296.18 1422.8469,325.6829 1474.0969,349.9429 " fill="none" id="CompletableFutureFunctor-to-CompletableFutureKindHelper" style="stroke:#F5BDE6;stroke-width:1.0;stroke-dasharray:7.0,7.0;"/><polygon fill="#F5BDE6" points="1479.52,352.51,1473.0968,345.0439,1475.0008,350.3707,1469.674,352.2747,1479.52,352.51" style="stroke:#F5BDE6;stroke-width:1.0;"/><text fill="#CAD3F5" font-family="Helvetica" font-size="12" lengthAdjust="spacing" textLength="25.3477" x="1412.39" y="319.2402">uses</text></g><!--reverse link CompletableFutureFunctor to CompletableFutureApplicative--><g id="link_CompletableFutureFunctor_CompletableFutureApplicative"><path d="M1167.1697,280.2772 C1112.1397,303.0672 1051.3,328.25 992.7,352.51 " fill="none" id="CompletableFutureFunctor-backto-CompletableFutureApplicative" style="stroke:#F5BDE6;stroke-width:1.0;"/><polygon fill="none" points="1183.8,273.39,1164.874,274.7338,1169.4655,285.8207,1183.8,273.39" style="stroke:#F5BDE6;stroke-width:1.0;"/></g><!--reverse link Applicative to CompletableFutureApplicative--><g id="link_Applicative_CompletableFutureApplicative"><path d="M810.9225,291.8796 C833.9425,314.1296 850.87,330.47 873.88,352.7 " fill="none" id="Applicative-backto-CompletableFutureApplicative" style="stroke:#F5BDE6;stroke-width:1.0;stroke-dasharray:7.0,7.0;"/><polygon fill="none" points="797.98,279.37,806.7527,296.1938,815.0924,287.5654,797.98,279.37" style="stroke:#F5BDE6;stroke-width:1.0;"/></g><!--reverse link CompletableFutureApplicative to CompletableFutureMonad--><g id="link_CompletableFutureApplicative_CompletableFutureMonad"><path d="M820.8673,431.1363 C772.7373,454.0463 727.13,475.76 685.31,495.67 " fill="none" id="CompletableFutureApplicative-backto-CompletableFutureMonad" style="stroke:#F5BDE6;stroke-width:1.0;"/><polygon fill="none" points="837.12,423.4,818.2886,425.7188,823.4461,436.5539,837.12,423.4" style="stroke:#F5BDE6;stroke-width:1.0;"/></g><!--reverse link Monad to CompletableFutureMonad--><g id="link_Monad_CompletableFutureMonad"><path d="M394.1177,423.9383 C455.1977,447.4583 523.93,473.92 580.21,495.6 " fill="none" id="Monad-backto-CompletableFutureMonad" style="stroke:#F5BDE6;stroke-width:1.0;stroke-dasharray:7.0,7.0;"/><polygon fill="none" points="377.32,417.47,391.9616,429.5375,396.2738,418.339,377.32,417.47" style="stroke:#F5BDE6;stroke-width:1.0;"/></g><!--reverse link CompletableFutureMonad to CompletableFutureMonadError--><g id="link_CompletableFutureMonad_CompletableFutureMonadError"><path d="M594.8517,553.4304 C568.9017,573.3504 544.89,591.79 515.11,614.66 " fill="none" id="CompletableFutureMonad-backto-CompletableFutureMonadError" style="stroke:#F5BDE6;stroke-width:1.0;"/><polygon fill="none" points="609.13,542.47,591.1983,548.671,598.5052,558.1899,609.13,542.47" style="stroke:#F5BDE6;stroke-width:1.0;"/></g><!--reverse link MonadError to CompletableFutureMonadError--><g id="link_MonadError_CompletableFutureMonadError"><path d="M361.9535,565.2356 C386.1035,583.8956 401.68,595.92 425.87,614.61 " fill="none" id="MonadError-backto-CompletableFutureMonadError" style="stroke:#F5BDE6;stroke-width:1.0;stroke-dasharray:7.0,7.0;"/><polygon fill="none" points="347.71,554.23,358.285,569.9834,365.622,560.4877,347.71,554.23" style="stroke:#F5BDE6;stroke-width:1.0;"/></g><!--SRC=[ZLF1RgCm4Btp5MulJTG4xXL2OgkWIbLlkzgpQuPb96DRjcbMglBlQviDE13Itc1cFE-zcJTtA1ZlQo2jjSeyPPccn_GFshP_xmre9eK5OLCckqmmQIpT8yiOjKhrZA7OTvIn5gcLUyMfi7t7zxQ53hAEeiZ2PwfSD4dkQcXG07ckNb7Kv5bsYeEbxnogtlOQV3JzZLQ0CKc23bStb07nyRpQaRA8WlT3bxmi2Fnr36ipr0rXNtmVzwXwmQpKULMGpuIGnx7fZu9qL6r27gN8In_QHPZRv1JrAPNYwDJZ1_XUP-ZLzewUR3RbTexf8Cz_bz0tiD-ae7MCEYEp4DPmQjzcugRqLqW7hRsY7JbCY2E5XKfDqK1uiZbivycMYfeFMRVVTZEb8lc7c4yWb31EZRbkb1VW2hJdyUayQP6ToEI8etQg5yzoBpCglv8dlGXlPrPopnv8cgOtEFrt044Vxzp5JAOO-eIPFLwQz9RvOlHJiegNfiND0JqHTyLcbNPaeN79tz4MMo_IDnUuj7yaVJxdwuTmEOSr7S6OwmfYcP6AmSuH_mVooqsBe6X1euNwV4B4gLTQVc3jiaO1mmPPwFGLfs3wTM83xpcbuVJEod-sMXxzaxKHHxStrcwlLbuzn2aVxM1ij5X3sCC_]--></g></svg>