<svg xmlns="http://www.w3.org/2000/svg" xmlns:xlink="http://www.w3.org/1999/xlink" contentStyleType="text/css" height="612px" preserveAspectRatio="none" style="width:1626px;height:612px;background:#24273A;" version="1.1" viewBox="0 0 1626 612" width="1626px" zoomAndPan="magnify"><defs/><g><rect fill="#24273A" height="612" style="stroke:none;stroke-width:1.0;" width="1626" x="0" y="0"/><!--class Kind--><g id="elem_Kind"><rect codeLine="5" fill="#24273A" height="46" id="Kind" rx="1.5" ry="1.5" style="stroke:#C6A0F6;stroke-width:2.0;" width="88.0254" x="98.4" y="16"/><rect fill="#363A4F" height="30" rx="1.5" ry="1.5" style="stroke:#363A4F;stroke-width:2.0;" width="88.0254" x="98.4" y="16"/><rect fill="#363A4F" height="1.5" style="stroke:#363A4F;stroke-width:2.0;" width="88.0254" x="98.4" y="44.5"/><rect codeLine="5" fill="none" height="46" id="Kind" rx="1.5" ry="1.5" style="stroke:#C6A0F6;stroke-width:2.0;" width="88.0254" x="98.4" y="16"/><ellipse cx="112.4" cy="31" fill="#B4A7E5" rx="10" ry="10" style="stroke:#181818;stroke-width:1.0;"/><path d="M109.4078,28.2754 L109.4078,26.752 L114.6168,26.752 L114.6168,28.2754 L112.8766,28.2754 L112.8766,33.9766 L114.6168,33.9766 L114.6168,35.5 L109.4078,35.5 L109.4078,33.9766 L111.148,33.9766 L111.148,28.2754 Z " fill="#CAD3F5"/><text fill="#A6DA95" font-family="Helvetica" font-size="16" font-style="italic" lengthAdjust="spacing" textLength="32.0234" x="125.4" y="35.3203">Kind</text><rect fill="#24273A" height="14" style="stroke:#C6A0F6;stroke-width:1.0;stroke-dasharray:2.0,2.0;" width="24.002" x="165.4234" y="13"/><text fill="#CAD3F5" font-family="Helvetica" font-size="12" font-style="italic" lengthAdjust="spacing" textLength="22.002" x="166.4234" y="23.2402">F, A</text><line style="stroke:#C6A0F6;stroke-width:2.0;" x1="99.4" x2="185.4254" y1="46" y2="46"/><line style="stroke:#C6A0F6;stroke-width:2.0;" x1="99.4" x2="185.4254" y1="54" y2="54"/></g><!--class CompletableFutureKind<?><A> extends Kind<CompletableFutureKind<?>, A>--><g id="elem_CompletableFutureKind&lt;?&gt;&lt;A&gt; extends Kind&lt;CompletableFutureKind&lt;?&gt;, A&gt;"><rect codeLine="6" fill="#24273A" height="46" id="CompletableFutureKind&lt;?&gt;&lt;A&gt; extends Kind&lt;CompletableFutureKind&lt;?&gt;, A&gt;" rx="1.5" ry="1.5" style="stroke:#C6A0F6;stroke-width:2.0;" width="585.9219" x="221.45" y="16"/><rect fill="#363A4F" height="30" rx="1.5" ry="1.5" style="stroke:#363A4F;stroke-width:2.0;" width="585.9219" x="221.45" y="16"/><rect fill="#363A4F" height="1.5" style="stroke:#363A4F;stroke-width:2.0;" width="585.9219" x="221.45" y="44.5"/><rect codeLine="6" fill="none" height="46" id="CompletableFutureKind&lt;?&gt;&lt;A&gt; extends Kind&lt;CompletableFutureKind&lt;?&gt;, A&gt;" rx="1.5" ry="1.5" style="stroke:#C6A0F6;stroke-width:2.0;" width="585.9219" x="221.45" y="16"/><ellipse cx="235.45" cy="31" fill="#B4A7E5" rx="10" ry="10" style="stroke:#181818;stroke-width:1.0;"/><path d="M232.4578,28.2754 L232.4578,26.752 L237.6668,26.752 L237.6668,28.2754 L235.9266,28.2754 L235.9266,33.9766 L237.6668,33.9766 L237.6668,35.5 L232.4578,35.5 L232.4578,33.9766 L234.198,33.9766 L234.198,28.2754 Z " fill="#CAD3F5"/><text fill="#A6DA95" font-family="Helvetica" font-size="16" font-style="italic" lengthAdjust="spacing" textLength="555.9219" x="248.45" y="35.3203">CompletableFutureKind&lt;?&gt;&lt;A&gt; extends Kind&lt;CompletableFutureKind&lt;?&gt;, A&gt;</text><line style="stroke:#C6A0F6;stroke-width:2.0;" x1="222.45" x2="806.3719" y1="46" y2="46"/><line style="stroke:#C6A0F6;stroke-width:2.0;" x1="222.45" x2="806.3719" y1="54" y2="54"/></g><!--class Functor--><g id="elem_Functor"><rect codeLine="8" fill="#24273A" height="58" id="Functor" rx="1.5" ry="1.5" style="stroke:#C6A0F6;stroke-width:2.0;" width="269.125" x="842.85" y="10"/><rect fill="#363A4F" height="30" rx="1.5" ry="1.5" style="stroke:#363A4F;stroke-width:2.0;" width="269.125" x="842.85" y="10"/><rect fill="#363A4F" height="1.5" style="stroke:#363A4F;stroke-width:2.0;" width="269.125" x="842.85" y="38.5"/><rect codeLine="8" fill="none" height="58" id="Functor" rx="1.5" ry="1.5" style="stroke:#C6A0F6;stroke-width:2.0;" width="269.125" x="842.85" y="10"/><ellipse cx="940.6264" cy="25" fill="#B4A7E5" rx="10" ry="10" style="stroke:#181818;stroke-width:1.0;"/><path d="M937.6342,22.2754 L937.6342,20.752 L942.8432,20.752 L942.8432,22.2754 L941.1029,22.2754 L941.1029,27.9766 L942.8432,27.9766 L942.8432,29.5 L937.6342,29.5 L937.6342,27.9766 L939.3744,27.9766 L939.3744,22.2754 Z " fill="#CAD3F5"/><text fill="#A6DA95" font-family="Helvetica" font-size="16" font-style="italic" lengthAdjust="spacing" textLength="54.2422" x="959.6264" y="29.3203">Functor</text><rect fill="#24273A" height="14" style="stroke:#C6A0F6;stroke-width:1.0;stroke-dasharray:2.0,2.0;" width="9.3301" x="1105.6449" y="7"/><text fill="#CAD3F5" font-family="Helvetica" font-size="12" font-style="italic" lengthAdjust="spacing" textLength="7.3301" x="1106.6449" y="17.2402">F</text><line style="stroke:#C6A0F6;stroke-width:2.0;" x1="843.85" x2="1110.975" y1="40" y2="40"/><line style="stroke:#C6A0F6;stroke-width:2.0;" x1="843.85" x2="1110.975" y1="48" y2="48"/><ellipse cx="853.85" cy="59.5" fill="#84BE84" rx="3" ry="3" style="stroke:#038048;stroke-width:1.0;"/><text fill="#A6DA95" font-family="Helvetica" font-size="12" lengthAdjust="spacing" textLength="244.125" x="861.85" y="61.2402">Kind&lt;F, B&gt; map(Function&lt;A, B&gt;, Kind&lt;F, A&gt;)</text></g><!--class Applicative--><g id="elem_Applicative"><rect codeLine="11" fill="#24273A" height="70" id="Applicative" rx="1.5" ry="1.5" style="stroke:#C6A0F6;stroke-width:2.0;" width="311.1602" x="535.83" y="129"/><rect fill="#363A4F" height="30" rx="1.5" ry="1.5" style="stroke:#363A4F;stroke-width:2.0;" width="311.1602" x="535.83" y="129"/><rect fill="#363A4F" height="1.5" style="stroke:#363A4F;stroke-width:2.0;" width="311.1602" x="535.83" y="157.5"/><rect codeLine="11" fill="none" height="70" id="Applicative" rx="1.5" ry="1.5" style="stroke:#C6A0F6;stroke-width:2.0;" width="311.1602" x="535.83" y="129"/><ellipse cx="643.0575" cy="144" fill="#B4A7E5" rx="10" ry="10" style="stroke:#181818;stroke-width:1.0;"/><path d="M640.0654,141.2754 L640.0654,139.752 L645.2743,139.752 L645.2743,141.2754 L643.5341,141.2754 L643.5341,146.9766 L645.2743,146.9766 L645.2743,148.5 L640.0654,148.5 L640.0654,146.9766 L641.8056,146.9766 L641.8056,141.2754 Z " fill="#CAD3F5"/><text fill="#A6DA95" font-family="Helvetica" font-size="16" font-style="italic" lengthAdjust="spacing" textLength="77.375" x="662.0575" y="148.3203">Applicative</text><rect fill="#24273A" height="14" style="stroke:#C6A0F6;stroke-width:1.0;stroke-dasharray:2.0,2.0;" width="9.3301" x="840.6601" y="126"/><text fill="#CAD3F5" font-family="Helvetica" font-size="12" font-style="italic" lengthAdjust="spacing" textLength="7.3301" x="841.6601" y="136.2402">F</text><line style="stroke:#C6A0F6;stroke-width:2.0;" x1="536.83" x2="845.9902" y1="159" y2="159"/><line style="stroke:#C6A0F6;stroke-width:2.0;" x1="536.83" x2="845.9902" y1="167" y2="167"/><ellipse cx="546.83" cy="178.5" fill="#84BE84" rx="3" ry="3" style="stroke:#038048;stroke-width:1.0;"/><text fill="#A6DA95" font-family="Helvetica" font-size="12" lengthAdjust="spacing" textLength="89.373" x="554.83" y="180.2402">Kind&lt;F, A&gt; of(A)</text><ellipse cx="546.83" cy="190.5" fill="#84BE84" rx="3" ry="3" style="stroke:#038048;stroke-width:1.0;"/><text fill="#A6DA95" font-family="Helvetica" font-size="12" lengthAdjust="spacing" textLength="286.1602" x="554.83" y="192.2402">Kind&lt;F, B&gt; ap(Kind&lt;F, Function&lt;A, B&gt;&gt;, Kind&lt;F, A&gt;)</text></g><!--class Monad--><g id="elem_Monad"><rect codeLine="15" fill="#24273A" height="58" id="Monad" rx="1.5" ry="1.5" style="stroke:#C6A0F6;stroke-width:2.0;" width="337.1641" x="96.83" y="279"/><rect fill="#363A4F" height="30" rx="1.5" ry="1.5" style="stroke:#363A4F;stroke-width:2.0;" width="337.1641" x="96.83" y="279"/><rect fill="#363A4F" height="1.5" style="stroke:#363A4F;stroke-width:2.0;" width="337.1641" x="96.83" y="307.5"/><rect codeLine="15" fill="none" height="58" id="Monad" rx="1.5" ry="1.5" style="stroke:#C6A0F6;stroke-width:2.0;" width="337.1641" x="96.83" y="279"/><ellipse cx="231.2861" cy="294" fill="#B4A7E5" rx="10" ry="10" style="stroke:#181818;stroke-width:1.0;"/><path d="M228.2939,291.2754 L228.2939,289.752 L233.5029,289.752 L233.5029,291.2754 L231.7626,291.2754 L231.7626,296.9766 L233.5029,296.9766 L233.5029,298.5 L228.2939,298.5 L228.2939,296.9766 L230.0341,296.9766 L230.0341,291.2754 Z " fill="#CAD3F5"/><text fill="#A6DA95" font-family="Helvetica" font-size="16" font-style="italic" lengthAdjust="spacing" textLength="48.9219" x="250.2861" y="298.3203">Monad</text><rect fill="#24273A" height="14" style="stroke:#C6A0F6;stroke-width:1.0;stroke-dasharray:2.0,2.0;" width="9.3301" x="427.664" y="276"/><text fill="#CAD3F5" font-family="Helvetica" font-size="12" font-style="italic" lengthAdjust="spacing" textLength="7.3301" x="428.664" y="286.2402">F</text><line style="stroke:#C6A0F6;stroke-width:2.0;" x1="97.83" x2="432.9941" y1="309" y2="309"/><line style="stroke:#C6A0F6;stroke-width:2.0;" x1="97.83" x2="432.9941" y1="317" y2="317"/><ellipse cx="107.83" cy="328.5" fill="#84BE84" rx="3" ry="3" style="stroke:#038048;stroke-width:1.0;"/><text fill="#A6DA95" font-family="Helvetica" font-size="12" lengthAdjust="spacing" textLength="312.1641" x="115.83" y="330.2402">Kind&lt;F, B&gt; flatMap(Function&lt;A, Kind&lt;F, B&gt;&gt;, Kind&lt;F, A&gt;)</text></g><!--class MonadError--><g id="elem_MonadError"><rect codeLine="18" fill="#24273A" height="70" id="MonadError" rx="1.5" ry="1.5" style="stroke:#C6A0F6;stroke-width:2.0;" width="384.5137" x="73.16" y="404"/><rect fill="#363A4F" height="30" rx="1.5" ry="1.5" style="stroke:#363A4F;stroke-width:2.0;" width="384.5137" x="73.16" y="404"/><rect fill="#363A4F" height="1.5" style="stroke:#363A4F;stroke-width:2.0;" width="384.5137" x="73.16" y="432.5"/><rect codeLine="18" fill="none" height="70" id="MonadError" rx="1.5" ry="1.5" style="stroke:#C6A0F6;stroke-width:2.0;" width="384.5137" x="73.16" y="404"/><ellipse cx="206.1776" cy="419" fill="#B4A7E5" rx="10" ry="10" style="stroke:#181818;stroke-width:1.0;"/><path d="M203.1854,416.2754 L203.1854,414.752 L208.3944,414.752 L208.3944,416.2754 L206.6541,416.2754 L206.6541,421.9766 L208.3944,421.9766 L208.3944,423.5 L203.1854,423.5 L203.1854,421.9766 L204.9256,421.9766 L204.9256,416.2754 Z " fill="#CAD3F5"/><text fill="#A6DA95" font-family="Helvetica" font-size="16" font-style="italic" lengthAdjust="spacing" textLength="84.4766" x="225.1776" y="423.3203">MonadError</text><rect fill="#24273A" height="14" style="stroke:#C6A0F6;stroke-width:1.0;stroke-dasharray:2.0,2.0;" width="24.002" x="436.6717" y="401"/><text fill="#CAD3F5" font-family="Helvetica" font-size="12" font-style="italic" lengthAdjust="spacing" textLength="22.002" x="437.6717" y="411.2402">F, E</text><line style="stroke:#C6A0F6;stroke-width:2.0;" x1="74.16" x2="456.6737" y1="434" y2="434"/><line style="stroke:#C6A0F6;stroke-width:2.0;" x1="74.16" x2="456.6737" y1="442" y2="442"/><ellipse cx="84.16" cy="453.5" fill="#84BE84" rx="3" ry="3" style="stroke:#038048;stroke-width:1.0;"/><text fill="#A6DA95" font-family="Helvetica" font-size="12" lengthAdjust="spacing" textLength="132.041" x="92.16" y="455.2402">Kind&lt;F, A&gt; raiseError(E)</text><ellipse cx="84.16" cy="465.5" fill="#84BE84" rx="3" ry="3" style="stroke:#038048;stroke-width:1.0;"/><text fill="#A6DA95" font-family="Helvetica" font-size="12" lengthAdjust="spacing" textLength="359.5137" x="92.16" y="467.2402">Kind&lt;F, A&gt; handleErrorWith(Kind&lt;F, A&gt;, Function&lt;E, Kind&lt;F, A&gt;&gt;)</text></g><!--class CompletableFutureKindHelper--><g id="elem_CompletableFutureKindHelper"><rect codeLine="23" fill="#24273A" height="70" id="CompletableFutureKindHelper" rx="1.5" ry="1.5" style="stroke:#C6A0F6;stroke-width:2.0;" width="386.2207" x="1233.3" y="273"/><rect fill="#363A4F" height="30" rx="1.5" ry="1.5" style="stroke:#363A4F;stroke-width:2.0;" width="386.2207" x="1233.3" y="273"/><rect fill="#363A4F" height="1.5" style="stroke:#363A4F;stroke-width:2.0;" width="386.2207" x="1233.3" y="301.5"/><rect codeLine="23" fill="none" height="70" id="CompletableFutureKindHelper" rx="1.5" ry="1.5" style="stroke:#C6A0F6;stroke-width:2.0;" width="386.2207" x="1233.3" y="273"/><ellipse cx="1314.7971" cy="288" fill="#ADD1B2" rx="10" ry="10" style="stroke:#181818;stroke-width:1.0;"/><path d="M1316.6311,292.248 Q1316.2209,292.459 1315.7697,292.5645 Q1315.3186,292.6699 1314.8205,292.6699 Q1313.051,292.6699 1312.1193,291.5039 Q1311.1877,290.3379 1311.1877,288.1348 Q1311.1877,285.9258 1312.1193,284.7598 Q1313.051,283.5938 1314.8205,283.5938 Q1315.3186,283.5938 1315.7756,283.6992 Q1316.2326,283.8047 1316.6311,284.0156 L1316.6311,285.9375 Q1316.1857,285.5273 1315.7668,285.3369 Q1315.3479,285.1465 1314.9025,285.1465 Q1313.9533,285.1465 1313.4699,285.8994 Q1312.9865,286.6523 1312.9865,288.1348 Q1312.9865,289.6113 1313.4699,290.3643 Q1313.9533,291.1172 1314.9025,291.1172 Q1315.3479,291.1172 1315.7668,290.9268 Q1316.1857,290.7363 1316.6311,290.3262 Z " fill="#CAD3F5"/><text fill="#A6DA95" font-family="Helvetica" font-size="16" lengthAdjust="spacing" textLength="215.2266" x="1333.7971" y="292.3203">CompletableFutureKindHelper</text><line style="stroke:#C6A0F6;stroke-width:2.0;" x1="1234.3" x2="1618.5207" y1="303" y2="303"/><line style="stroke:#C6A0F6;stroke-width:2.0;" x1="1234.3" x2="1618.5207" y1="311" y2="311"/><text fill="#A6DA95" font-family="Helvetica" font-size="12" lengthAdjust="spacing" text-decoration="underline" textLength="330.1875" x="1239.3" y="324.2402">CompletableFutureKind&lt;?&gt;&lt;A&gt; wrap(CompletableFuture&lt;A&gt;)</text><text fill="#A6DA95" font-family="Helvetica" font-size="12" lengthAdjust="spacing" text-decoration="underline" textLength="374.2207" x="1239.3" y="336.2402">CompletableFuture&lt;A&gt; unwrap(Kind&lt;CompletableFutureKind&lt;?&gt;, A&gt;)</text></g><!--class CompletableFutureFunctor--><g id="elem_CompletableFutureFunctor"><rect codeLine="29" fill="#24273A" height="58" id="CompletableFutureFunctor" rx="1.5" ry="1.5" style="stroke:#C6A0F6;stroke-width:2.0;" width="547.9844" x="882.42" y="135"/><rect fill="#363A4F" height="30" rx="1.5" ry="1.5" style="stroke:#363A4F;stroke-width:2.0;" width="547.9844" x="882.42" y="135"/><rect fill="#363A4F" height="1.5" style="stroke:#363A4F;stroke-width:2.0;" width="547.9844" x="882.42" y="163.5"/><rect codeLine="29" fill="none" height="58" id="CompletableFutureFunctor" rx="1.5" ry="1.5" style="stroke:#C6A0F6;stroke-width:2.0;" width="547.9844" x="882.42" y="135"/><ellipse cx="1057.2559" cy="150" fill="#ADD1B2" rx="10" ry="10" style="stroke:#181818;stroke-width:1.0;"/><path d="M1059.0899,154.248 Q1058.6798,154.459 1058.2286,154.5645 Q1057.7774,154.6699 1057.2794,154.6699 Q1055.5098,154.6699 1054.5782,153.5039 Q1053.6466,152.3379 1053.6466,150.1348 Q1053.6466,147.9258 1054.5782,146.7598 Q1055.5098,145.5938 1057.2794,145.5938 Q1057.7774,145.5938 1058.2345,145.6992 Q1058.6915,145.8047 1059.0899,146.0156 L1059.0899,147.9375 Q1058.6446,147.5273 1058.2257,147.3369 Q1057.8067,147.1465 1057.3614,147.1465 Q1056.4122,147.1465 1055.9288,147.8994 Q1055.4454,148.6523 1055.4454,150.1348 Q1055.4454,151.6113 1055.9288,152.3643 Q1056.4122,153.1172 1057.3614,153.1172 Q1057.8067,153.1172 1058.2257,152.9268 Q1058.6446,152.7363 1059.0899,152.3262 Z " fill="#CAD3F5"/><text fill="#A6DA95" font-family="Helvetica" font-size="16" lengthAdjust="spacing" textLength="190.3125" x="1076.2559" y="154.3203">CompletableFutureFunctor</text><line style="stroke:#C6A0F6;stroke-width:2.0;" x1="883.42" x2="1429.4044" y1="165" y2="165"/><line style="stroke:#C6A0F6;stroke-width:2.0;" x1="883.42" x2="1429.4044" y1="173" y2="173"/><ellipse cx="893.42" cy="184.5" fill="#84BE84" rx="3" ry="3" style="stroke:#038048;stroke-width:1.0;"/><text fill="#A6DA95" font-family="Helvetica" font-size="12" lengthAdjust="spacing" textLength="522.9844" x="901.42" y="186.2402">Kind&lt;CompletableFutureKind&lt;?&gt;, B&gt; map(Function&lt;A, B&gt;, Kind&lt;CompletableFutureKind&lt;?&gt;, A&gt;)</text></g><!--class CompletableFutureApplicative--><g id="elem_CompletableFutureApplicative"><rect codeLine="34" fill="#24273A" height="70" id="CompletableFutureApplicative" rx="1.5" ry="1.5" style="stroke:#C6A0F6;stroke-width:2.0;" width="729.4492" x="468.69" y="273"/><rect fill="#363A4F" height="30" rx="1.5" ry="1.5" style="stroke:#363A4F;stroke-width:2.0;" width="729.4492" x="468.69" y="273"/><rect fill="#363A4F" height="1.5" style="stroke:#363A4F;stroke-width:2.0;" width="729.4492" x="468.69" y="301.5"/><rect codeLine="34" fill="none" height="70" id="CompletableFutureApplicative" rx="1.5" ry="1.5" style="stroke:#C6A0F6;stroke-width:2.0;" width="729.4492" x="468.69" y="273"/><ellipse cx="722.692" cy="288" fill="#ADD1B2" rx="10" ry="10" style="stroke:#181818;stroke-width:1.0;"/><path d="M724.5259,292.248 Q724.1158,292.459 723.6646,292.5645 Q723.2134,292.6699 722.7154,292.6699 Q720.9459,292.6699 720.0142,291.5039 Q719.0826,290.3379 719.0826,288.1348 Q719.0826,285.9258 720.0142,284.7598 Q720.9459,283.5938 722.7154,283.5938 Q723.2134,283.5938 723.6705,283.6992 Q724.1275,283.8047 724.5259,284.0156 L724.5259,285.9375 Q724.0806,285.5273 723.6617,285.3369 Q723.2427,285.1465 722.7974,285.1465 Q721.8482,285.1465 721.3648,285.8994 Q720.8814,286.6523 720.8814,288.1348 Q720.8814,289.6113 721.3648,290.3643 Q721.8482,291.1172 722.7974,291.1172 Q723.2427,291.1172 723.6617,290.9268 Q724.0806,290.7363 724.5259,290.3262 Z " fill="#CAD3F5"/><text fill="#A6DA95" font-family="Helvetica" font-size="16" lengthAdjust="spacing" textLength="213.4453" x="741.692" y="292.3203">CompletableFutureApplicative</text><line style="stroke:#C6A0F6;stroke-width:2.0;" x1="469.69" x2="1197.1392" y1="303" y2="303"/><line style="stroke:#C6A0F6;stroke-width:2.0;" x1="469.69" x2="1197.1392" y1="311" y2="311"/><ellipse cx="479.69" cy="322.5" fill="#84BE84" rx="3" ry="3" style="stroke:#038048;stroke-width:1.0;"/><text fill="#A6DA95" font-family="Helvetica" font-size="12" lengthAdjust="spacing" textLength="228.8027" x="487.69" y="324.2402">Kind&lt;CompletableFutureKind&lt;?&gt;, A&gt; of(A)</text><ellipse cx="479.69" cy="334.5" fill="#84BE84" rx="3" ry="3" style="stroke:#038048;stroke-width:1.0;"/><text fill="#A6DA95" font-family="Helvetica" font-size="12" lengthAdjust="spacing" textLength="704.4492" x="487.69" y="336.2402">Kind&lt;CompletableFutureKind&lt;?&gt;, B&gt; ap(Kind&lt;CompletableFutureKind&lt;?&gt;, Function&lt;A, B&gt;&gt;, Kind&lt;CompletableFutureKind&lt;?&gt;, A&gt;)</text></g><!--class CompletableFutureMonad--><g id="elem_CompletableFutureMonad"><rect codeLine="39" fill="#24273A" height="46" id="CompletableFutureMonad" rx="1.5" ry="1.5" style="stroke:#C6A0F6;stroke-width:2.0;" width="214.9922" x="492.92" y="416"/><rect fill="#363A4F" height="30" rx="1.5" ry="1.5" style="stroke:#363A4F;stroke-width:2.0;" width="214.9922" x="492.92" y="416"/><rect fill="#363A4F" height="1.5" style="stroke:#363A4F;stroke-width:2.0;" width="214.9922" x="492.92" y="444.5"/><rect codeLine="39" fill="none" height="46" id="CompletableFutureMonad" rx="1.5" ry="1.5" style="stroke:#C6A0F6;stroke-width:2.0;" width="214.9922" x="492.92" y="416"/><ellipse cx="506.92" cy="431" fill="#ADD1B2" rx="10" ry="10" style="stroke:#181818;stroke-width:1.0;"/><path d="M508.754,435.248 Q508.3438,435.459 507.8927,435.5645 Q507.4415,435.6699 506.9434,435.6699 Q505.1739,435.6699 504.2423,434.5039 Q503.3106,433.3379 503.3106,431.1348 Q503.3106,428.9258 504.2423,427.7598 Q505.1739,426.5938 506.9434,426.5938 Q507.4415,426.5938 507.8985,426.6992 Q508.3555,426.8047 508.754,427.0156 L508.754,428.9375 Q508.3087,428.5273 507.8897,428.3369 Q507.4708,428.1465 507.0255,428.1465 Q506.0763,428.1465 505.5929,428.8994 Q505.1095,429.6523 505.1095,431.1348 Q505.1095,432.6113 505.5929,433.3643 Q506.0763,434.1172 507.0255,434.1172 Q507.4708,434.1172 507.8897,433.9268 Q508.3087,433.7363 508.754,433.3262 Z " fill="#CAD3F5"/><text fill="#A6DA95" font-family="Helvetica" font-size="16" lengthAdjust="spacing" textLength="184.9922" x="519.92" y="435.3203">CompletableFutureMonad</text><line style="stroke:#C6A0F6;stroke-width:2.0;" x1="493.92" x2="706.9122" y1="446" y2="446"/><line style="stroke:#C6A0F6;stroke-width:2.0;" x1="493.92" x2="706.9122" y1="454" y2="454"/></g><!--class CompletableFutureMonadError--><g id="elem_CompletableFutureMonadError"><rect codeLine="43" fill="#24273A" height="70" id="CompletableFutureMonadError" rx="1.5" ry="1.5" style="stroke:#C6A0F6;stroke-width:2.0;" width="850.8262" x="7" y="535"/><rect fill="#363A4F" height="30" rx="1.5" ry="1.5" style="stroke:#363A4F;stroke-width:2.0;" width="850.8262" x="7" y="535"/><rect fill="#363A4F" height="1.5" style="stroke:#363A4F;stroke-width:2.0;" width="850.8262" x="7" y="563.5"/><rect codeLine="43" fill="none" height="70" id="CompletableFutureMonadError" rx="1.5" ry="1.5" style="stroke:#C6A0F6;stroke-width:2.0;" width="850.8262" x="7" y="535"/><ellipse cx="318.1396" cy="550" fill="#ADD1B2" rx="10" ry="10" style="stroke:#181818;stroke-width:1.0;"/><path d="M319.9736,554.248 Q319.5635,554.459 319.1123,554.5645 Q318.6611,554.6699 318.1631,554.6699 Q316.3936,554.6699 315.4619,553.5039 Q314.5303,552.3379 314.5303,550.1348 Q314.5303,547.9258 315.4619,546.7598 Q316.3936,545.5938 318.1631,545.5938 Q318.6611,545.5938 319.1182,545.6992 Q319.5752,545.8047 319.9736,546.0156 L319.9736,547.9375 Q319.5283,547.5273 319.1094,547.3369 Q318.6904,547.1465 318.2451,547.1465 Q317.2959,547.1465 316.8125,547.8994 Q316.3291,548.6523 316.3291,550.1348 Q316.3291,551.6113 316.8125,552.3643 Q317.2959,553.1172 318.2451,553.1172 Q318.6904,553.1172 319.1094,552.9268 Q319.5283,552.7363 319.9736,552.3262 Z " fill="#CAD3F5"/><text fill="#A6DA95" font-family="Helvetica" font-size="16" lengthAdjust="spacing" textLength="220.5469" x="337.1396" y="554.3203">CompletableFutureMonadError</text><line style="stroke:#C6A0F6;stroke-width:2.0;" x1="8" x2="856.8262" y1="565" y2="565"/><line style="stroke:#C6A0F6;stroke-width:2.0;" x1="8" x2="856.8262" y1="573" y2="573"/><ellipse cx="18" cy="584.5" fill="#84BE84" rx="3" ry="3" style="stroke:#038048;stroke-width:1.0;"/><text fill="#A6DA95" font-family="Helvetica" font-size="12" lengthAdjust="spacing" textLength="319.4941" x="26" y="586.2402">Kind&lt;CompletableFutureKind&lt;?&gt;, A&gt; raiseError(Throwable)</text><ellipse cx="18" cy="596.5" fill="#84BE84" rx="3" ry="3" style="stroke:#038048;stroke-width:1.0;"/><text fill="#A6DA95" font-family="Helvetica" font-size="12" lengthAdjust="spacing" textLength="825.8262" x="26" y="598.2402">Kind&lt;CompletableFutureKind&lt;?&gt;, A&gt; handleErrorWith(Kind&lt;CompletableFutureKind&lt;?&gt;, A&gt;, Function&lt;Throwable, Kind&lt;CompletableFutureKind&lt;?&gt;, A&gt;&gt;)</text></g><!--reverse link Functor to Applicative--><g id="link_Functor_Applicative"><path d="M894.9055,75.484 C853.2555,93.404 815.7,109.55 771.58,128.52 " fill="none" id="Functor-backto-Applicative" style="stroke:#F5BDE6;stroke-width:1.0;"/><polygon fill="none" points="911.44,68.37,892.5341,69.9725,897.2768,80.9955,911.44,68.37" style="stroke:#F5BDE6;stroke-width:1.0;"/></g><!--reverse link Applicative to Monad--><g id="link_Applicative_Monad"><path d="M570.9439,205.1528 C498.1739,229.4128 419.02,255.8 350.64,278.59 " fill="none" id="Applicative-backto-Monad" style="stroke:#F5BDE6;stroke-width:1.0;"/><polygon fill="none" points="588.02,199.46,569.0463,199.4608,572.8415,210.8448,588.02,199.46" style="stroke:#F5BDE6;stroke-width:1.0;"/></g><!--reverse link Monad to MonadError--><g id="link_Monad_MonadError"><path d="M265.41,355.31 C265.41,374.89 265.41,383.05 265.41,403.8 " fill="none" id="Monad-backto-MonadError" style="stroke:#F5BDE6;stroke-width:1.0;"/><polygon fill="none" points="265.41,337.31,259.41,355.31,271.41,355.31,265.41,337.31" style="stroke:#F5BDE6;stroke-width:1.0;"/></g><!--reverse link Functor to CompletableFutureFunctor--><g id="link_Functor_CompletableFutureFunctor"><path d="M1033.3145,78.4149 C1062.3145,98.3449 1086.2,114.75 1115.23,134.7 " fill="none" id="Functor-backto-CompletableFutureFunctor" style="stroke:#F5BDE6;stroke-width:1.0;stroke-dasharray:7.0,7.0;"/><polygon fill="none" points="1018.48,68.22,1029.9162,83.3598,1036.7128,73.4701,1018.48,68.22" style="stroke:#F5BDE6;stroke-width:1.0;"/></g><!--link CompletableFutureFunctor to CompletableFutureKindHelper--><g id="link_CompletableFutureFunctor_CompletableFutureKindHelper"><path codeLine="32" d="M1210.4,193.39 C1253.8,216.22 1309.6098,245.5668 1355.7698,269.8468 " fill="none" id="CompletableFutureFunctor-to-CompletableFutureKindHelper" style="stroke:#F5BDE6;stroke-width:1.0;stroke-dasharray:7.0,7.0;"/><polygon fill="#F5BDE6" points="1361.08,272.64,1354.9768,264.9101,1356.6548,270.3124,1351.2526,271.9904,1361.08,272.64" style="stroke:#F5BDE6;stroke-width:1.0;"/><text fill="#CAD3F5" font-family="Helvetica" font-size="12" lengthAdjust="spacing" textLength="25.3477" x="1300.51" y="239.2402">uses</text></g><!--reverse link CompletableFutureFunctor to CompletableFutureApplicative--><g id="link_CompletableFutureFunctor_CompletableFutureApplicative"><path d="M1075.3525,200.6352 C1023.5225,223.4252 967.05,248.25 911.87,272.51 " fill="none" id="CompletableFutureFunctor-backto-CompletableFutureApplicative" style="stroke:#F5BDE6;stroke-width:1.0;"/><polygon fill="none" points="1091.83,193.39,1072.9375,195.1428,1077.7676,206.1277,1091.83,193.39" style="stroke:#F5BDE6;stroke-width:1.0;"/></g><!--reverse link Applicative to CompletableFutureApplicative--><g id="link_Applicative_CompletableFutureApplicative"><path d="M738.5151,212.1008 C760.8351,234.4308 777.09,250.68 799.36,272.94 " fill="none" id="Applicative-backto-CompletableFutureApplicative" style="stroke:#F5BDE6;stroke-width:1.0;stroke-dasharray:7.0,7.0;"/><polygon fill="none" points="725.79,199.37,734.2715,216.3425,742.7587,207.8591,725.79,199.37" style="stroke:#F5BDE6;stroke-width:1.0;"/></g><!--reverse link CompletableFutureApplicative to CompletableFutureMonad--><g id="link_CompletableFutureApplicative_CompletableFutureMonad"><path d="M755.5315,352.117 C714.1415,375.027 676.71,395.76 640.75,415.67 " fill="none" id="CompletableFutureApplicative-backto-CompletableFutureMonad" style="stroke:#F5BDE6;stroke-width:1.0;"/><polygon fill="none" points="771.28,343.4,752.6259,346.8675,758.4372,357.3665,771.28,343.4" style="stroke:#F5BDE6;stroke-width:1.0;"/></g><!--reverse link Monad to CompletableFutureMonad--><g id="link_Monad_CompletableFutureMonad"><path d="M356.138,343.9373 C417.228,367.4573 485.95,393.92 542.23,415.6 " fill="none" id="Monad-backto-CompletableFutureMonad" style="stroke:#F5BDE6;stroke-width:1.0;stroke-dasharray:7.0,7.0;"/><polygon fill="none" points="339.34,337.47,353.9822,349.5367,358.2938,338.338,339.34,337.47" style="stroke:#F5BDE6;stroke-width:1.0;"/></g><!--reverse link CompletableFutureMonad to CompletableFutureMonadError--><g id="link_CompletableFutureMonad_CompletableFutureMonadError"><path d="M556.8717,473.4304 C530.9217,493.3504 506.91,511.79 477.13,534.66 " fill="none" id="CompletableFutureMonad-backto-CompletableFutureMonadError" style="stroke:#F5BDE6;stroke-width:1.0;"/><polygon fill="none" points="571.15,462.47,553.2183,468.671,560.5252,478.1899,571.15,462.47" style="stroke:#F5BDE6;stroke-width:1.0;"/></g><!--reverse link MonadError to CompletableFutureMonadError--><g id="link_MonadError_CompletableFutureMonadError"><path d="M323.9757,485.2327 C348.1357,503.8927 363.7,515.92 387.89,534.61 " fill="none" id="MonadError-backto-CompletableFutureMonadError" style="stroke:#F5BDE6;stroke-width:1.0;stroke-dasharray:7.0,7.0;"/><polygon fill="none" points="309.73,474.23,320.3082,489.9813,327.6433,480.4841,309.73,474.23" style="stroke:#F5BDE6;stroke-width:1.0;"/></g><!--SRC=[ZLDDRwCm4BtpAwQzD54Jk5U85Li5LQfwszMUNJCi8ndRCgPPgSf_NsCsu118zmRpzTuRlxaZoKLN8jJMwlOfIGmxnh_9rjrxrwBXIbgKDkQgIIHNhMLxuWbdLkkESvBxXd5U4xDghmMJjcl4tjROOD8maed_ZBMBHj5TYHL9XEVYbMG9pwhH0Yrx5rXqjZFOHzDlMHIHWpGLumW-LEmWpuBW_J0WpJF0FuvSsGvrGxWllWzd59taLfcqoE0p0dWSXtxFe65wu_EaP9hteLs0kOrEmPnSQq5EE7rWF-iClJhUqLFL9j_ECHta-UyI-WRscvAi355dPAw4LOBPjvcuAVqLqi6ONj4E3XFYIE5AfM7Kec_P7BRpPCraAORiBsUgpPGAv1z2FfvGn0LhssMFlA3GQ7eUdywEblW99aSSZLDzrPRsCeFoXJnqqlVEhEJQ7Y2EunkS_Za0g8ytxbWcKmnp_CuUBqrwotmX-YbQnOlZxEQ2di0TSBjAEx3G-CZ_eosqNg1lBl3Q_e7q-PwN3-5o3siwl37N5OGo0nM3dGF-3_3JRGj8rcZ8Oda-8N3gjL4VLBfigv5JHTnF-egJD_qwiO7tdD9mUcVbFsgZZdtBseg3snjhjukLYuSuvOCt60TTFOD_Xxy0]--></g></svg>