<svg xmlns="http://www.w3.org/2000/svg" xmlns:xlink="http://www.w3.org/1999/xlink" contentStyleType="text/css" height="866.6px" preserveAspectRatio="none" style="width:1889px;height:866px;background:#24273A;" version="1.1" viewBox="0 0 1889 866" width="1890px" zoomAndPan="magnify"><defs/><g><rect fill="#24273A" height="866.6" style="stroke:none;stroke-width:1.3999999999999997;" width="1890" x="0" y="0"/><!--cluster HKT Core - Type Classes--><g id="cluster_HKT Core - Type Classes"><path d="M10.5,8.4 L214.4953,8.4 A3.15,3.15 0 0 1 216.5953,10.5 L226.3953,33.6 L1878.1,33.6 A2.1,2.1 0 0 1 1880.2,35.7 L1880.2,854.7 A2.1,2.1 0 0 1 1878.1,856.8 L10.5,856.8 A2.1,2.1 0 0 1 8.4,854.7 L8.4,10.5 A2.1,2.1 0 0 1 10.5,8.4 " fill="#24273A" style="stroke:#CAD3F5;stroke-width:2.0999999999999996;"/><line style="stroke:#CAD3F5;stroke-width:2.0999999999999996;" x1="8.4" x2="226.3953" y1="33.6" y2="33.6"/><text fill="#CAD3F5" font-family="Helvetica" font-size="16.8" font-weight="bold" lengthAdjust="spacing" textLength="199.7953" x="14" y="24.1363">HKT Core - Type Classes</text></g><!--class Kind--><g id="elem_Kind"><rect codeLine="6" fill="#24273A" height="64.4" id="Kind" rx="2.1" ry="2.1" style="stroke:#C6A0F6;stroke-width:2.7999999999999994;" width="209.1141" x="760.648" y="770"/><rect fill="#363A4F" height="42" rx="2.1" ry="2.1" style="stroke:#363A4F;stroke-width:2.7999999999999994;" width="209.1141" x="760.648" y="770"/><rect fill="#363A4F" height="2.1" style="stroke:#363A4F;stroke-width:2.7999999999999994;" width="209.1141" x="760.648" y="809.9"/><rect codeLine="6" fill="none" height="64.4" id="Kind" rx="2.1" ry="2.1" style="stroke:#C6A0F6;stroke-width:2.7999999999999994;" width="209.1141" x="760.648" y="770"/><ellipse cx="780.248" cy="791" fill="#B4A7E5" rx="14" ry="14" style="stroke:#181818;stroke-width:1.3999999999999997;"/><path d="M776.0589,787.1855 L776.0589,785.0527 L783.3515,785.0527 L783.3515,787.1855 L780.9152,787.1855 L780.9152,795.1672 L783.3515,795.1672 L783.3515,797.3 L776.0589,797.3 L776.0589,795.1672 L778.4953,795.1672 L778.4953,787.1855 Z " fill="#CAD3F5"/><text fill="#A6DA95" font-family="Helvetica" font-size="22.4" font-style="italic" lengthAdjust="spacing" textLength="44.8328" x="798.448" y="797.0484">Kind</text><rect fill="#24273A" height="19.6" style="stroke:#C6A0F6;stroke-width:1.3999999999999997;stroke-dasharray:2.0,2.0;" width="119.4812" x="854.4808" y="765.8"/><text fill="#CAD3F5" font-family="Helvetica" font-size="16.8" font-style="italic" lengthAdjust="spacing" textLength="116.6812" x="855.8808" y="780.1363">F_WITNESS, A</text><line style="stroke:#C6A0F6;stroke-width:2.7999999999999994;" x1="762.048" x2="968.3621" y1="812" y2="812"/><line style="stroke:#C6A0F6;stroke-width:2.7999999999999994;" x1="762.048" x2="968.3621" y1="823.2" y2="823.2"/></g><!--class Functor--><g id="elem_Functor"><rect codeLine="10" fill="#24273A" height="81.2" id="Functor" rx="2.1" ry="2.1" style="stroke:#C6A0F6;stroke-width:2.7999999999999994;" width="590.5566" x="569.926" y="585.2"/><rect fill="#363A4F" height="42" rx="2.1" ry="2.1" style="stroke:#363A4F;stroke-width:2.7999999999999994;" width="590.5566" x="569.926" y="585.2"/><rect fill="#363A4F" height="2.1" style="stroke:#363A4F;stroke-width:2.7999999999999994;" width="590.5566" x="569.926" y="625.1"/><rect codeLine="10" fill="none" height="81.2" id="Functor" rx="2.1" ry="2.1" style="stroke:#C6A0F6;stroke-width:2.7999999999999994;" width="590.5566" x="569.926" y="585.2"/><ellipse cx="770.7645" cy="606.2" fill="#B4A7E5" rx="14" ry="14" style="stroke:#181818;stroke-width:1.3999999999999997;"/><path d="M766.5754,602.3855 L766.5754,600.2527 L773.868,600.2527 L773.868,602.3855 L771.4317,602.3855 L771.4317,610.3672 L773.868,610.3672 L773.868,612.5 L766.5754,612.5 L766.5754,610.3672 L769.0117,610.3672 L769.0117,602.3855 Z " fill="#CAD3F5"/><text fill="#A6DA95" font-family="Helvetica" font-size="22.4" font-style="italic" lengthAdjust="spacing" textLength="75.9391" x="797.3645" y="612.2484">Functor</text><rect fill="#24273A" height="19.6" style="stroke:#C6A0F6;stroke-width:1.3999999999999997;stroke-dasharray:2.0,2.0;" width="98.9406" x="1065.742" y="581"/><text fill="#CAD3F5" font-family="Helvetica" font-size="16.8" font-style="italic" lengthAdjust="spacing" textLength="96.1406" x="1067.142" y="595.3363">F_WITNESS</text><line style="stroke:#C6A0F6;stroke-width:2.7999999999999994;" x1="571.326" x2="1159.0826" y1="627.2" y2="627.2"/><line style="stroke:#C6A0F6;stroke-width:2.7999999999999994;" x1="571.326" x2="1159.0826" y1="638.4" y2="638.4"/><ellipse cx="585.326" cy="654.5" fill="#84BE84" rx="4.2" ry="4.2" style="stroke:#038048;stroke-width:1.3999999999999997;"/><text fill="#A6DA95" font-family="Helvetica" font-size="16.8" lengthAdjust="spacing" textLength="555.5566" x="596.526" y="656.9363">map(fn: Function&lt;A,B&gt;, fa: Kind&lt;F_WITNESS,A&gt;) : Kind&lt;F_WITNESS,B&gt;</text></g><!--class Applicative--><g id="elem_Applicative"><rect codeLine="13" fill="#24273A" height="98" id="Applicative" rx="2.1" ry="2.1" style="stroke:#C6A0F6;stroke-width:2.7999999999999994;" width="730.6086" x="30.898" y="401.8"/><rect fill="#363A4F" height="42" rx="2.1" ry="2.1" style="stroke:#363A4F;stroke-width:2.7999999999999994;" width="730.6086" x="30.898" y="401.8"/><rect fill="#363A4F" height="2.1" style="stroke:#363A4F;stroke-width:2.7999999999999994;" width="730.6086" x="30.898" y="441.7"/><rect codeLine="13" fill="none" height="98" id="Applicative" rx="2.1" ry="2.1" style="stroke:#C6A0F6;stroke-width:2.7999999999999994;" width="730.6086" x="30.898" y="401.8"/><ellipse cx="285.5695" cy="422.8" fill="#B4A7E5" rx="14" ry="14" style="stroke:#181818;stroke-width:1.3999999999999997;"/><path d="M281.3804,418.9855 L281.3804,416.8527 L288.673,416.8527 L288.673,418.9855 L286.2367,418.9855 L286.2367,426.9672 L288.673,426.9672 L288.673,429.1 L281.3804,429.1 L281.3804,426.9672 L283.8167,426.9672 L283.8167,418.9855 Z " fill="#CAD3F5"/><text fill="#A6DA95" font-family="Helvetica" font-size="22.4" font-style="italic" lengthAdjust="spacing" textLength="108.325" x="312.1695" y="428.8484">Applicative</text><rect fill="#24273A" height="19.6" style="stroke:#C6A0F6;stroke-width:1.3999999999999997;stroke-dasharray:2.0,2.0;" width="98.9406" x="666.766" y="397.6"/><text fill="#CAD3F5" font-family="Helvetica" font-size="16.8" font-style="italic" lengthAdjust="spacing" textLength="96.1406" x="668.166" y="411.9363">F_WITNESS</text><line style="stroke:#C6A0F6;stroke-width:2.7999999999999994;" x1="32.298" x2="760.1066" y1="443.8" y2="443.8"/><line style="stroke:#C6A0F6;stroke-width:2.7999999999999994;" x1="32.298" x2="760.1066" y1="455" y2="455"/><ellipse cx="46.298" cy="471.1" fill="#84BE84" rx="4.2" ry="4.2" style="stroke:#038048;stroke-width:1.3999999999999997;"/><text fill="#A6DA95" font-family="Helvetica" font-size="16.8" lengthAdjust="spacing" textLength="265.166" x="57.498" y="473.5363">of(value: A) : Kind&lt;F_WITNESS,A&gt;</text><ellipse cx="46.298" cy="487.9" fill="#84BE84" rx="4.2" ry="4.2" style="stroke:#038048;stroke-width:1.3999999999999997;"/><text fill="#A6DA95" font-family="Helvetica" font-size="16.8" lengthAdjust="spacing" textLength="695.6086" x="57.498" y="490.3363">ap(ff: Kind&lt;F_WITNESS, Function&lt;A,B&gt;&gt;, fa: Kind&lt;F_WITNESS,A&gt;) : Kind&lt;F_WITNESS,B&gt;</text></g><!--class Monad--><g id="elem_Monad"><rect codeLine="19" fill="#24273A" height="81.2" id="Monad" rx="2.1" ry="2.1" style="stroke:#C6A0F6;stroke-width:2.7999999999999994;" width="781.0168" x="57.498" y="235.2"/><rect fill="#363A4F" height="42" rx="2.1" ry="2.1" style="stroke:#363A4F;stroke-width:2.7999999999999994;" width="781.0168" x="57.498" y="235.2"/><rect fill="#363A4F" height="2.1" style="stroke:#363A4F;stroke-width:2.7999999999999994;" width="781.0168" x="57.498" y="275.1"/><rect codeLine="19" fill="none" height="81.2" id="Monad" rx="2.1" ry="2.1" style="stroke:#C6A0F6;stroke-width:2.7999999999999994;" width="781.0168" x="57.498" y="235.2"/><ellipse cx="357.2908" cy="256.2" fill="#B4A7E5" rx="14" ry="14" style="stroke:#181818;stroke-width:1.3999999999999997;"/><path d="M353.1017,252.3855 L353.1017,250.2527 L360.3943,250.2527 L360.3943,252.3855 L357.958,252.3855 L357.958,260.3672 L360.3943,260.3672 L360.3943,262.5 L353.1017,262.5 L353.1017,260.3672 L355.538,260.3672 L355.538,252.3855 Z " fill="#CAD3F5"/><text fill="#A6DA95" font-family="Helvetica" font-size="22.4" font-style="italic" lengthAdjust="spacing" textLength="68.4906" x="383.8908" y="262.2484">Monad</text><rect fill="#24273A" height="19.6" style="stroke:#C6A0F6;stroke-width:1.3999999999999997;stroke-dasharray:2.0,2.0;" width="98.9406" x="743.7742" y="231"/><text fill="#CAD3F5" font-family="Helvetica" font-size="16.8" font-style="italic" lengthAdjust="spacing" textLength="96.1406" x="745.1742" y="245.3363">F_WITNESS</text><line style="stroke:#C6A0F6;stroke-width:2.7999999999999994;" x1="58.898" x2="837.1148" y1="277.2" y2="277.2"/><line style="stroke:#C6A0F6;stroke-width:2.7999999999999994;" x1="58.898" x2="837.1148" y1="288.4" y2="288.4"/><ellipse cx="72.898" cy="304.5" fill="#84BE84" rx="4.2" ry="4.2" style="stroke:#038048;stroke-width:1.3999999999999997;"/><text fill="#A6DA95" font-family="Helvetica" font-size="16.8" lengthAdjust="spacing" textLength="746.0168" x="84.098" y="306.9363">flatMap(fn: Function&lt;A, Kind&lt;F_WITNESS,B&gt;&gt;, ma: Kind&lt;F_WITNESS,A&gt;) : Kind&lt;F_WITNESS,B&gt;</text></g><!--class MonadError--><g id="elem_MonadError"><rect codeLine="22" fill="#24273A" height="98" id="MonadError" rx="2.1" ry="2.1" style="stroke:#C6A0F6;stroke-width:2.7999999999999994;" width="889.3391" x="31.332" y="51.8"/><rect fill="#363A4F" height="42" rx="2.1" ry="2.1" style="stroke:#363A4F;stroke-width:2.7999999999999994;" width="889.3391" x="31.332" y="51.8"/><rect fill="#363A4F" height="2.1" style="stroke:#363A4F;stroke-width:2.7999999999999994;" width="889.3391" x="31.332" y="91.7"/><rect codeLine="22" fill="none" height="98" id="MonadError" rx="2.1" ry="2.1" style="stroke:#C6A0F6;stroke-width:2.7999999999999994;" width="889.3391" x="31.332" y="51.8"/><ellipse cx="350.1273" cy="72.8" fill="#B4A7E5" rx="14" ry="14" style="stroke:#181818;stroke-width:1.3999999999999997;"/><path d="M345.9382,68.9855 L345.9382,66.8527 L353.2308,66.8527 L353.2308,68.9855 L350.7945,68.9855 L350.7945,76.9672 L353.2308,76.9672 L353.2308,79.1 L345.9382,79.1 L345.9382,76.9672 L348.3746,76.9672 L348.3746,68.9855 Z " fill="#CAD3F5"/><text fill="#A6DA95" font-family="Helvetica" font-size="22.4" font-style="italic" lengthAdjust="spacing" textLength="118.2672" x="376.7273" y="78.8484">MonadError</text><rect fill="#24273A" height="19.6" style="stroke:#C6A0F6;stroke-width:1.3999999999999997;stroke-dasharray:2.0,2.0;" width="119.4812" x="805.3898" y="47.6"/><text fill="#CAD3F5" font-family="Helvetica" font-size="16.8" font-style="italic" lengthAdjust="spacing" textLength="116.6812" x="806.7898" y="61.9363">F_WITNESS, E</text><line style="stroke:#C6A0F6;stroke-width:2.7999999999999994;" x1="32.732" x2="919.2711" y1="93.8" y2="93.8"/><line style="stroke:#C6A0F6;stroke-width:2.7999999999999994;" x1="32.732" x2="919.2711" y1="105" y2="105"/><ellipse cx="46.732" cy="121.1" fill="#84BE84" rx="4.2" ry="4.2" style="stroke:#038048;stroke-width:1.3999999999999997;"/><text fill="#A6DA95" font-family="Helvetica" font-size="16.8" lengthAdjust="spacing" textLength="320.209" x="57.932" y="123.5363">raiseError(error: E) : Kind&lt;F_WITNESS,A&gt;</text><ellipse cx="46.732" cy="137.9" fill="#84BE84" rx="4.2" ry="4.2" style="stroke:#038048;stroke-width:1.3999999999999997;"/><text fill="#A6DA95" font-family="Helvetica" font-size="16.8" lengthAdjust="spacing" textLength="854.3391" x="57.932" y="140.3363">handleErrorWith(ma: Kind&lt;F_WITNESS,A&gt;, handler: Function&lt;E, Kind&lt;F_WITNESS,A&gt;&gt;) : Kind&lt;F_WITNESS,A&gt;</text></g><!--class Monoid--><g id="elem_Monoid"><rect codeLine="28" fill="#24273A" height="98" id="Monoid" rx="2.1" ry="2.1" style="stroke:#C6A0F6;stroke-width:2.7999999999999994;" width="202.1141" x="1312.948" y="51.8"/><rect fill="#363A4F" height="42" rx="2.1" ry="2.1" style="stroke:#363A4F;stroke-width:2.7999999999999994;" width="202.1141" x="1312.948" y="51.8"/><rect fill="#363A4F" height="2.1" style="stroke:#363A4F;stroke-width:2.7999999999999994;" width="202.1141" x="1312.948" y="91.7"/><rect codeLine="28" fill="none" height="98" id="Monoid" rx="2.1" ry="2.1" style="stroke:#C6A0F6;stroke-width:2.7999999999999994;" width="202.1141" x="1312.948" y="51.8"/><ellipse cx="1363.9766" cy="72.8" fill="#B4A7E5" rx="14" ry="14" style="stroke:#181818;stroke-width:1.3999999999999997;"/><path d="M1359.7876,68.9855 L1359.7876,66.8527 L1367.0801,66.8527 L1367.0801,68.9855 L1364.6438,68.9855 L1364.6438,76.9672 L1367.0801,76.9672 L1367.0801,79.1 L1359.7876,79.1 L1359.7876,76.9672 L1362.2239,76.9672 L1362.2239,68.9855 Z " fill="#CAD3F5"/><text fill="#A6DA95" font-family="Helvetica" font-size="22.4" font-style="italic" lengthAdjust="spacing" textLength="73.4672" x="1389.1608" y="78.8484">Monoid</text><rect fill="#24273A" height="19.6" style="stroke:#C6A0F6;stroke-width:1.3999999999999997;stroke-dasharray:2.0,2.0;" width="14.0055" x="1505.2566" y="47.6"/><text fill="#CAD3F5" font-family="Helvetica" font-size="16.8" font-style="italic" lengthAdjust="spacing" textLength="11.2055" x="1506.6566" y="61.9363">A</text><line style="stroke:#C6A0F6;stroke-width:2.7999999999999994;" x1="1314.348" x2="1513.6621" y1="93.8" y2="93.8"/><line style="stroke:#C6A0F6;stroke-width:2.7999999999999994;" x1="1314.348" x2="1513.6621" y1="105" y2="105"/><ellipse cx="1328.348" cy="121.1" fill="#84BE84" rx="4.2" ry="4.2" style="stroke:#038048;stroke-width:1.3999999999999997;"/><text fill="#A6DA95" font-family="Helvetica" font-size="16.8" lengthAdjust="spacing" textLength="82.1461" x="1339.548" y="123.5363">empty() : A</text><ellipse cx="1328.348" cy="137.9" fill="#84BE84" rx="4.2" ry="4.2" style="stroke:#038048;stroke-width:1.3999999999999997;"/><text fill="#A6DA95" font-family="Helvetica" font-size="16.8" lengthAdjust="spacing" textLength="167.1141" x="1339.548" y="140.3363">combine(x: A, y: A) : A</text></g><!--class Traverse--><g id="elem_Traverse"><rect codeLine="33" fill="#24273A" height="98" id="Traverse" rx="2.1" ry="2.1" style="stroke:#C6A0F6;stroke-width:2.7999999999999994;" width="1048.2254" x="810.082" y="401.8"/><rect fill="#363A4F" height="42" rx="2.1" ry="2.1" style="stroke:#363A4F;stroke-width:2.7999999999999994;" width="1048.2254" x="810.082" y="401.8"/><rect fill="#363A4F" height="2.1" style="stroke:#363A4F;stroke-width:2.7999999999999994;" width="1048.2254" x="810.082" y="441.7"/><rect codeLine="33" fill="none" height="98" id="Traverse" rx="2.1" ry="2.1" style="stroke:#C6A0F6;stroke-width:2.7999999999999994;" width="1048.2254" x="810.082" y="401.8"/><ellipse cx="1276.0045" cy="422.8" fill="#B4A7E5" rx="14" ry="14" style="stroke:#181818;stroke-width:1.3999999999999997;"/><path d="M1271.8154,418.9855 L1271.8154,416.8527 L1279.108,416.8527 L1279.108,418.9855 L1276.6716,418.9855 L1276.6716,426.9672 L1279.108,426.9672 L1279.108,429.1 L1271.8154,429.1 L1271.8154,426.9672 L1274.2517,426.9672 L1274.2517,418.9855 Z " fill="#CAD3F5"/><text fill="#A6DA95" font-family="Helvetica" font-size="22.4" font-style="italic" lengthAdjust="spacing" textLength="88.375" x="1302.6045" y="428.8484">Traverse</text><rect fill="#24273A" height="19.6" style="stroke:#C6A0F6;stroke-width:1.3999999999999997;stroke-dasharray:2.0,2.0;" width="14.0055" x="1848.5019" y="397.6"/><text fill="#CAD3F5" font-family="Helvetica" font-size="16.8" font-style="italic" lengthAdjust="spacing" textLength="11.2055" x="1849.9019" y="411.9363">A</text><line style="stroke:#C6A0F6;stroke-width:2.7999999999999994;" x1="811.482" x2="1856.9074" y1="443.8" y2="443.8"/><line style="stroke:#C6A0F6;stroke-width:2.7999999999999994;" x1="811.482" x2="1856.9074" y1="455" y2="455"/><ellipse cx="825.482" cy="471.1" fill="#84BE84" rx="4.2" ry="4.2" style="stroke:#038048;stroke-width:1.3999999999999997;"/><text fill="#A6DA95" font-family="Helvetica" font-size="16.8" lengthAdjust="spacing" textLength="1013.2254" x="836.682" y="473.5363">traverse(a: Applicative&lt;G&gt;, ta : Kind&lt;T, A&gt;, f : Function&lt;? super A, ? extends Kind&lt;G, ? extends B&gt;&gt;) : &lt;G, A, B&gt; Kind&lt;G, Kind&lt;T, B&gt;&gt;</text><ellipse cx="825.482" cy="487.9" fill="#84BE84" rx="4.2" ry="4.2" style="stroke:#038048;stroke-width:1.3999999999999997;"/><text fill="#A6DA95" font-family="Helvetica" font-size="16.8" lengthAdjust="spacing" textLength="654.6504" x="836.682" y="490.3363">sequence(a: Applicative&lt;G&gt;, tga : Kind&lt;T, Kind&lt;G, A&gt;&gt;) : &lt;G, A&gt; Kind&lt;G, Kind&lt;T, A&gt;&gt;</text></g><!--link Functor to Kind--><g id="link_Functor_Kind"><path codeLine="38" d="M865.2,667.03 C865.2,698.264 865.2,732.704 865.2,761.404 " fill="none" id="Functor-to-Kind" style="stroke:#F5BDE6;stroke-width:1.3999999999999997;stroke-dasharray:7.0,7.0;"/><polygon fill="#F5BDE6" points="865.2,769.804,870.8,757.204,865.2,762.804,859.6,757.204,865.2,769.804" style="stroke:#F5BDE6;stroke-width:1.3999999999999997;"/><text fill="#CAD3F5" font-family="Helvetica" font-size="16.8" lengthAdjust="spacing" textLength="99.9223" x="866.6" y="722.7363">(operates on)</text></g><!--link Applicative to Functor--><g id="link_Applicative_Functor"><path codeLine="39" d="M527.464,500.402 C599.816,526.96 664.9069,550.8503 733.2549,575.9523 " fill="none" id="Applicative-to-Functor" style="stroke:#F5BDE6;stroke-width:1.3999999999999997;"/><polygon fill="none" points="756.91,584.64,736.1508,568.0672,730.359,583.8373,756.91,584.64" style="stroke:#F5BDE6;stroke-width:1.3999999999999997;"/></g><!--link Monad to Applicative--><g id="link_Monad_Applicative"><path codeLine="40" d="M436.114,316.708 C428.526,341.922 425.9017,350.6484 417.8657,377.3604 " fill="none" id="Monad-to-Applicative" style="stroke:#F5BDE6;stroke-width:1.3999999999999997;"/><polygon fill="none" points="410.606,401.492,425.9096,379.7803,409.8218,374.9404,410.606,401.492" style="stroke:#F5BDE6;stroke-width:1.3999999999999997;"/></g><!--link MonadError to Monad--><g id="link_MonadError_Monad"><path codeLine="41" d="M468.202,150.164 C463.862,176.834 462.5632,184.7472 458.4752,209.9472 " fill="none" id="MonadError-to-Monad" style="stroke:#F5BDE6;stroke-width:1.3999999999999997;"/><polygon fill="none" points="454.44,234.822,466.7669,211.2923,450.1836,208.6021,454.44,234.822" style="stroke:#F5BDE6;stroke-width:1.3999999999999997;"/></g><!--link Traverse to Functor--><g id="link_Traverse_Functor"><path codeLine="42" d="M1202.936,500.402 C1130.584,526.96 1065.4931,550.8503 997.1451,575.9523 " fill="none" id="Traverse-to-Functor" style="stroke:#F5BDE6;stroke-width:1.3999999999999997;"/><polygon fill="none" points="973.49,584.64,1000.041,583.8373,994.2492,568.0672,973.49,584.64" style="stroke:#F5BDE6;stroke-width:1.3999999999999997;"/></g><!--SRC=[fLHDRvj04BtxLqnp2L4nbdgqB29iEMaL9Jt4KdAhrijWLeLTkhiaiThyzmuBE8jn6rNr0PatNsyUC_D1I5xKAK9kRMNcivbcpz5EsBpUrWOrLzAYj15NvKnoPIoR2ZxZp5PLpRcGqv9ndWjcrRGgcBHrMKnjZYNEIYRapFsDAa8daqd5-7UsGpZxVBE1bT88KzZiAuHLmOn1SmO_9q0_GILrnZXvtWYPBgw-FNpPtAtlxqD8uZDW1XguSmOuXuC320DK4ggSgAWIR9Czm6WNXV3O14KFmaeqvk8Gc_GnJwoeqKKus-inbQjQSglq6vkMIWSVs01yX99LGIRdhKqekKZ2PHn2nkPmr50INy08NCQd6IHLLGYINZpXCGlFD62Yii3rDOVaHA4azbmRpjd8PTZ3lpVHYao2t469DbUf0SuaR15ChfubY0nID49Z6iAsji1eAbH68qTmnkh26Y-DK_PJC2eVZek7i1G-zN1rYkJg3qhVAidIOuqTE50tAvYz7N_hCHkYK_xdntVLrrhx4nZ2sgFcZ0D-cWc33WwmUSvX_TuKqEAaHHj3gv879sc7dPlssbw7Ox_uxzNEuIijdWQDN3sXthyt8Pqm9vHH8bqa1odeRI03bfNT1msNn4Ffecs5nE25u13stOOaVX6_oaOpucYmhzE_3ohP3Wn8DNzRhqaootenDiqTeqq2JxvBC7L5MX2LIy0NMe2qFNEBQnzPjfes87akuuDBdvWSF3u6VzGe-Ma-EvzGdoVn2eop9ttsJg3- -4LHwqkHWQ8sc4K3IhPNrhzDq-clk8zondQf7EpvlPdQeNPsz-ui1-q7wOZJwsy0]--></g></svg>