<svg xmlns="http://www.w3.org/2000/svg" xmlns:xlink="http://www.w3.org/1999/xlink" contentStyleType="text/css" data-diagram-type="CLASS" height="580px" preserveAspectRatio="none" style="width:1811px;height:580px;background:#24273A;" version="1.1" viewBox="0 0 1811 580" width="1811px" zoomAndPan="magnify"><defs/><g><rect fill="#24273A" height="580" style="stroke:none;stroke-width:1;" width="1811" x="0" y="0"/><!--cluster Core Interfaces--><g class="cluster" data-entity="Core Interfaces" data-source-line="5" data-uid="ent0002" id="cluster_Core Interfaces"><path d="M7.5,6 L114.2988,6 A2.25,2.25 0 0 1 115.7988,7.5 L122.7988,25.9688 L1802.62,25.9688 A1.5,1.5 0 0 1 1804.12,27.4688 L1804.12,344.5 A1.5,1.5 0 0 1 1802.62,346 L7.5,346 A1.5,1.5 0 0 1 6,344.5 L6,7.5 A1.5,1.5 0 0 1 7.5,6" fill="#24273A" style="stroke:#CAD3F5;stroke-width:1.5;"/><line style="stroke:#CAD3F5;stroke-width:1.5;" x1="6" x2="122.7988" y1="25.9688" y2="25.9688"/><text fill="#CAD3F5" font-family="Helvetica" font-size="12" font-weight="bold" lengthAdjust="spacing" textLength="103.7988" x="10" y="19.1387">Core Interfaces</text></g><!--cluster Defunctionalisation (Pattern)--><g class="cluster" data-entity="Defunctionalisation (Pattern)" data-source-line="33" data-uid="ent0016" id="cluster_Defunctionalisation (Pattern)"><path d="M558.54,370 L760.0088,370 A2.25,2.25 0 0 1 761.5088,371.5 L768.5088,389.9688 L1575.65,389.9688 A1.5,1.5 0 0 1 1577.15,391.4688 L1577.15,571.5 A1.5,1.5 0 0 1 1575.65,573 L558.54,573 A1.5,1.5 0 0 1 557.04,571.5 L557.04,371.5 A1.5,1.5 0 0 1 558.54,370" fill="#24273A" style="stroke:#CAD3F5;stroke-width:1.5;"/><line style="stroke:#CAD3F5;stroke-width:1.5;" x1="557.04" x2="768.5088" y1="389.9688" y2="389.9688"/><text fill="#CAD3F5" font-family="Helvetica" font-size="12" font-weight="bold" lengthAdjust="spacing" textLength="198.4688" x="561.04" y="383.1387">Defunctionalisation (Pattern)</text></g><!--class Kind--><g class="entity" data-entity="Kind" data-source-line="6" data-uid="ent0003" id="entity_Kind"><rect fill="#24273A" height="46" rx="1.5" ry="1.5" style="stroke:#C6A0F6;stroke-width:2;" width="91.9746" x="1696.15" y="249"/><rect fill="#363A4F" height="30" rx="1.5" ry="1.5" style="stroke:#363A4F;stroke-width:2;" width="91.9746" x="1696.15" y="249"/><rect fill="#363A4F" height="1.5" style="stroke:#363A4F;stroke-width:2;" width="91.9746" x="1696.15" y="277.5"/><rect fill="none" height="46" rx="1.5" ry="1.5" style="stroke:#C6A0F6;stroke-width:2;" width="91.9746" x="1696.15" y="249"/><ellipse cx="1710.15" cy="264" fill="#B4A7E5" rx="10" ry="10" style="stroke:#181818;stroke-width:1;"/><path d="M1707.1656,261.2813 L1707.1656,259.75 L1712.3688,259.75 L1712.3688,261.2813 L1710.6344,261.2813 L1710.6344,266.9688 L1712.3688,266.9688 L1712.3688,268.5 L1707.1656,268.5 L1707.1656,266.9688 L1708.9,266.9688 L1708.9,261.2813 L1707.1656,261.2813 Z " fill="#CAD3F5"/><text fill="#A6DA95" font-family="Helvetica" font-size="16" font-style="italic" lengthAdjust="spacing" textLength="35.2344" x="1723.15" y="269.5391">Kind</text><rect fill="#24273A" height="15.9688" style="stroke:#C6A0F6;stroke-width:1;stroke-dasharray:2.0,2.0;" width="24.7402" x="1766.3844" y="246"/><text fill="#CAD3F5" font-family="Helvetica" font-size="12" font-style="italic" lengthAdjust="spacing" textLength="22.7402" x="1767.3844" y="258.1387">F, A</text><line style="stroke:#C6A0F6;stroke-width:2;" x1="1697.15" x2="1787.1246" y1="279" y2="279"/><line style="stroke:#C6A0F6;stroke-width:2;" x1="1697.15" x2="1787.1246" y1="287" y2="287"/></g><!--class Functor<F>--><g class="entity" data-entity="Functor&lt;F&gt;" data-source-line="7" data-uid="ent0004" id="entity_Functor&lt;F&gt;"><rect fill="#24273A" height="59.9688" rx="1.5" ry="1.5" style="stroke:#C6A0F6;stroke-width:2;" width="303.332" x="74.33" y="270.02"/><rect fill="#363A4F" height="30" rx="1.5" ry="1.5" style="stroke:#363A4F;stroke-width:2;" width="303.332" x="74.33" y="270.02"/><rect fill="#363A4F" height="1.5" style="stroke:#363A4F;stroke-width:2;" width="303.332" x="74.33" y="298.52"/><rect fill="none" height="59.9688" rx="1.5" ry="1.5" style="stroke:#C6A0F6;stroke-width:2;" width="303.332" x="74.33" y="270.02"/><ellipse cx="173.5273" cy="285.02" fill="#B4A7E5" rx="10" ry="10" style="stroke:#181818;stroke-width:1;"/><path d="M170.5429,282.3013 L170.5429,280.77 L175.746,280.77 L175.746,282.3013 L174.0116,282.3013 L174.0116,287.9888 L175.746,287.9888 L175.746,289.52 L170.5429,289.52 L170.5429,287.9888 L172.2773,287.9888 L172.2773,282.3013 L170.5429,282.3013 Z " fill="#CAD3F5"/><text fill="#A6DA95" font-family="Helvetica" font-size="16" font-style="italic" lengthAdjust="spacing" textLength="96.9375" x="192.5273" y="290.5591">Functor&lt;F&gt;</text><line style="stroke:#C6A0F6;stroke-width:2;" x1="75.33" x2="376.662" y1="300.02" y2="300.02"/><line style="stroke:#C6A0F6;stroke-width:2;" x1="75.33" x2="376.662" y1="308.02" y2="308.02"/><ellipse cx="85.33" cy="320.5044" fill="#84BE84" rx="3" ry="3" style="stroke:#038048;stroke-width:1;"/><text fill="#A6DA95" font-family="Helvetica" font-size="12" lengthAdjust="spacing" textLength="278.332" x="93.33" y="323.1587">map(Function&lt;A,B&gt;, Kind&lt;F,A&gt;) : Kind&lt;F,B&gt;</text></g><!--class Applicative<F>--><g class="entity" data-entity="Applicative&lt;F&gt;" data-source-line="10" data-uid="ent0005" id="entity_Applicative&lt;F&gt;"><rect fill="#24273A" height="101.875" rx="1.5" ry="1.5" style="stroke:#C6A0F6;stroke-width:2;" width="407.9863" x="22" y="133.06"/><rect fill="#363A4F" height="30" rx="1.5" ry="1.5" style="stroke:#363A4F;stroke-width:2;" width="407.9863" x="22" y="133.06"/><rect fill="#363A4F" height="1.5" style="stroke:#363A4F;stroke-width:2;" width="407.9863" x="22" y="161.56"/><rect fill="none" height="101.875" rx="1.5" ry="1.5" style="stroke:#C6A0F6;stroke-width:2;" width="407.9863" x="22" y="133.06"/><ellipse cx="159.5947" cy="148.06" fill="#B4A7E5" rx="10" ry="10" style="stroke:#181818;stroke-width:1;"/><path d="M156.6104,145.3413 L156.6104,143.81 L161.8135,143.81 L161.8135,145.3413 L160.0791,145.3413 L160.0791,151.0288 L161.8135,151.0288 L161.8135,152.56 L156.6104,152.56 L156.6104,151.0288 L158.3447,151.0288 L158.3447,145.3413 L156.6104,145.3413 Z " fill="#CAD3F5"/><text fill="#A6DA95" font-family="Helvetica" font-size="16" font-style="italic" lengthAdjust="spacing" textLength="124.7969" x="178.5947" y="153.5991">Applicative&lt;F&gt;</text><line style="stroke:#C6A0F6;stroke-width:2;" x1="23" x2="428.9863" y1="163.06" y2="163.06"/><line style="stroke:#C6A0F6;stroke-width:2;" x1="23" x2="428.9863" y1="171.06" y2="171.06"/><ellipse cx="33" cy="183.5444" fill="#84BE84" rx="3" ry="3" style="stroke:#038048;stroke-width:1;"/><text fill="#A6DA95" font-family="Helvetica" font-size="12" lengthAdjust="spacing" textLength="106.2715" x="41" y="186.1987">of(A) : Kind&lt;F,A&gt;</text><ellipse cx="33" cy="197.5131" fill="#84BE84" rx="3" ry="3" style="stroke:#038048;stroke-width:1;"/><text fill="#A6DA95" font-family="Helvetica" font-size="12" lengthAdjust="spacing" textLength="327.709" x="41" y="200.1674">ap(Kind&lt;F, Function&lt;A,B&gt;&gt;, Kind&lt;F,A&gt;) : Kind&lt;F,B&gt;</text><ellipse cx="33" cy="211.4819" fill="#84BE84" rx="3" ry="3" style="stroke:#038048;stroke-width:1;"/><text fill="#A6DA95" font-family="Helvetica" font-size="12" lengthAdjust="spacing" textLength="382.9863" x="41" y="214.1362">map2(Kind&lt;F,A&gt;, Kind&lt;F,B&gt;, BiFunction&lt;A,B,C&gt;) : Kind&lt;F,C&gt;</text><ellipse cx="33" cy="225.4506" fill="#84BE84" rx="3" ry="3" style="stroke:#038048;stroke-width:1;"/><text fill="#A6DA95" font-family="Helvetica" font-size="12" lengthAdjust="spacing" textLength="133.7051" x="41" y="228.1049">mapN(...) : Kind&lt;F,R&gt;</text></g><!--class Monad<F>--><g class="entity" data-entity="Monad&lt;F&gt;" data-source-line="16" data-uid="ent0006" id="entity_Monad&lt;F&gt;"><rect fill="#24273A" height="59.9688" rx="1.5" ry="1.5" style="stroke:#C6A0F6;stroke-width:2;" width="382.6797" x="517.25" y="270.02"/><rect fill="#363A4F" height="30" rx="1.5" ry="1.5" style="stroke:#363A4F;stroke-width:2;" width="382.6797" x="517.25" y="270.02"/><rect fill="#363A4F" height="1.5" style="stroke:#363A4F;stroke-width:2;" width="382.6797" x="517.25" y="298.52"/><rect fill="none" height="59.9688" rx="1.5" ry="1.5" style="stroke:#C6A0F6;stroke-width:2;" width="382.6797" x="517.25" y="270.02"/><ellipse cx="659.7344" cy="285.02" fill="#B4A7E5" rx="10" ry="10" style="stroke:#181818;stroke-width:1;"/><path d="M656.75,282.3013 L656.75,280.77 L661.9531,280.77 L661.9531,282.3013 L660.2188,282.3013 L660.2188,287.9888 L661.9531,287.9888 L661.9531,289.52 L656.75,289.52 L656.75,287.9888 L658.4844,287.9888 L658.4844,282.3013 L656.75,282.3013 Z " fill="#CAD3F5"/><text fill="#A6DA95" font-family="Helvetica" font-size="16" font-style="italic" lengthAdjust="spacing" textLength="89.7109" x="678.7344" y="290.5591">Monad&lt;F&gt;</text><line style="stroke:#C6A0F6;stroke-width:2;" x1="518.25" x2="898.9297" y1="300.02" y2="300.02"/><line style="stroke:#C6A0F6;stroke-width:2;" x1="518.25" x2="898.9297" y1="308.02" y2="308.02"/><ellipse cx="528.25" cy="320.5044" fill="#84BE84" rx="3" ry="3" style="stroke:#038048;stroke-width:1;"/><text fill="#A6DA95" font-family="Helvetica" font-size="12" lengthAdjust="spacing" textLength="357.6797" x="536.25" y="323.1587">flatMap(Function&lt;A, Kind&lt;F,B&gt;&gt;, Kind&lt;F,A&gt;) : Kind&lt;F,B&gt;</text></g><!--class MonadError<F, E>--><g class="entity" data-entity="MonadError&lt;F, E&gt;" data-source-line="19" data-uid="ent0007" id="entity_MonadError&lt;F, E&gt;"><rect fill="#24273A" height="115.8438" rx="1.5" ry="1.5" style="stroke:#C6A0F6;stroke-width:2;" width="435.1973" x="490.99" y="119.08"/><rect fill="#363A4F" height="30" rx="1.5" ry="1.5" style="stroke:#363A4F;stroke-width:2;" width="435.1973" x="490.99" y="119.08"/><rect fill="#363A4F" height="1.5" style="stroke:#363A4F;stroke-width:2;" width="435.1973" x="490.99" y="147.58"/><rect fill="none" height="115.8438" rx="1.5" ry="1.5" style="stroke:#C6A0F6;stroke-width:2;" width="435.1973" x="490.99" y="119.08"/><ellipse cx="629.7761" cy="134.08" fill="#B4A7E5" rx="10" ry="10" style="stroke:#181818;stroke-width:1;"/><path d="M626.7918,131.3612 L626.7918,129.83 L631.9949,129.83 L631.9949,131.3612 L630.2605,131.3612 L630.2605,137.0487 L631.9949,137.0487 L631.9949,138.58 L626.7918,138.58 L626.7918,137.0487 L628.5261,137.0487 L628.5261,131.3612 L626.7918,131.3612 Z " fill="#CAD3F5"/><text fill="#A6DA95" font-family="Helvetica" font-size="16" font-style="italic" lengthAdjust="spacing" textLength="149.625" x="648.7761" y="139.6191">MonadError&lt;F, E&gt;</text><line style="stroke:#C6A0F6;stroke-width:2;" x1="491.99" x2="925.1873" y1="149.08" y2="149.08"/><line style="stroke:#C6A0F6;stroke-width:2;" x1="491.99" x2="925.1873" y1="157.08" y2="157.08"/><ellipse cx="501.99" cy="169.5644" fill="#84BE84" rx="3" ry="3" style="stroke:#038048;stroke-width:1;"/><text fill="#A6DA95" font-family="Helvetica" font-size="12" lengthAdjust="spacing" textLength="153.0586" x="509.99" y="172.2187">raiseError(E) : Kind&lt;F,A&gt;</text><ellipse cx="501.99" cy="183.5331" fill="#84BE84" rx="3" ry="3" style="stroke:#038048;stroke-width:1;"/><text fill="#A6DA95" font-family="Helvetica" font-size="12" lengthAdjust="spacing" textLength="410.1973" x="509.99" y="186.1874">handleErrorWith(Kind&lt;F,A&gt;, Function&lt;E, Kind&lt;F,A&gt;&gt;) : Kind&lt;F,A&gt;</text><ellipse cx="501.99" cy="197.5019" fill="#84BE84" rx="3" ry="3" style="stroke:#038048;stroke-width:1;"/><text fill="#A6DA95" font-family="Helvetica" font-size="12" lengthAdjust="spacing" textLength="321.6211" x="509.99" y="200.1562">handleError(Kind&lt;F,A&gt;, Function&lt;E,A&gt;) : Kind&lt;F,A&gt;</text><ellipse cx="501.99" cy="211.4706" fill="#84BE84" rx="3" ry="3" style="stroke:#038048;stroke-width:1;"/><text fill="#A6DA95" font-family="Helvetica" font-size="12" lengthAdjust="spacing" textLength="298.2305" x="509.99" y="214.1249">recoverWith(Kind&lt;F,A&gt;, Kind&lt;F,A&gt;) : Kind&lt;F,A&gt;</text><ellipse cx="501.99" cy="225.4394" fill="#84BE84" rx="3" ry="3" style="stroke:#038048;stroke-width:1;"/><text fill="#A6DA95" font-family="Helvetica" font-size="12" lengthAdjust="spacing" textLength="213.4688" x="509.99" y="228.0937">recover(Kind&lt;F,A&gt;, A) : Kind&lt;F,A&gt;</text></g><!--class Functor--><g class="entity" data-entity="Functor" data-source-line="27" data-uid="ent0008" id="entity_Functor"><rect fill="#24273A" height="46" rx="1.5" ry="1.5" style="stroke:#C6A0F6;stroke-width:2;" width="90.9219" x="1426.6" y="185"/><rect fill="#363A4F" height="30" rx="1.5" ry="1.5" style="stroke:#363A4F;stroke-width:2;" width="90.9219" x="1426.6" y="185"/><rect fill="#363A4F" height="1.5" style="stroke:#363A4F;stroke-width:2;" width="90.9219" x="1426.6" y="213.5"/><rect fill="none" height="46" rx="1.5" ry="1.5" style="stroke:#C6A0F6;stroke-width:2;" width="90.9219" x="1426.6" y="185"/><ellipse cx="1440.6" cy="200" fill="#ADD1B2" rx="10" ry="10" style="stroke:#181818;stroke-width:1;"/><path d="M1442.4281,204.25 Q1442.0219,204.4531 1441.5688,204.5625 Q1441.1156,204.6719 1440.6313,204.6719 Q1438.85,204.6719 1437.9125,203.5156 Q1436.9906,202.3438 1436.9906,200.1406 Q1436.9906,197.9219 1437.9125,196.7656 Q1438.85,195.5938 1440.6313,195.5938 Q1441.1156,195.5938 1441.5688,195.7031 Q1442.0375,195.7969 1442.4281,196.0156 L1442.4281,197.9375 Q1441.9906,197.5313 1441.5688,197.3438 Q1441.1469,197.1406 1440.7094,197.1406 Q1439.7563,197.1406 1439.2719,197.9063 Q1438.7875,198.6563 1438.7875,200.1406 Q1438.7875,201.6094 1439.2719,202.3594 Q1439.7563,203.1094 1440.7094,203.1094 Q1441.1469,203.1094 1441.5688,202.9219 Q1441.9906,202.7344 1442.4281,202.3281 L1442.4281,204.25 Z " fill="#CAD3F5"/><text fill="#A6DA95" font-family="Helvetica" font-size="16" lengthAdjust="spacing" textLength="60.9219" x="1453.6" y="205.5391">Functor</text><line style="stroke:#C6A0F6;stroke-width:2;" x1="1427.6" x2="1516.5219" y1="215" y2="215"/><line style="stroke:#C6A0F6;stroke-width:2;" x1="1427.6" x2="1516.5219" y1="223" y2="223"/></g><!--class Applicative--><g class="entity" data-entity="Applicative" data-source-line="28" data-uid="ent0010" id="entity_Applicative"><rect fill="#24273A" height="46" rx="1.5" ry="1.5" style="stroke:#C6A0F6;stroke-width:2;" width="118.7813" x="1117.19" y="53"/><rect fill="#363A4F" height="30" rx="1.5" ry="1.5" style="stroke:#363A4F;stroke-width:2;" width="118.7813" x="1117.19" y="53"/><rect fill="#363A4F" height="1.5" style="stroke:#363A4F;stroke-width:2;" width="118.7813" x="1117.19" y="81.5"/><rect fill="none" height="46" rx="1.5" ry="1.5" style="stroke:#C6A0F6;stroke-width:2;" width="118.7813" x="1117.19" y="53"/><ellipse cx="1131.19" cy="68" fill="#ADD1B2" rx="10" ry="10" style="stroke:#181818;stroke-width:1;"/><path d="M1133.0181,72.25 Q1132.6119,72.4531 1132.1588,72.5625 Q1131.7056,72.6719 1131.2213,72.6719 Q1129.44,72.6719 1128.5025,71.5156 Q1127.5806,70.3438 1127.5806,68.1406 Q1127.5806,65.9219 1128.5025,64.7656 Q1129.44,63.5938 1131.2213,63.5938 Q1131.7056,63.5938 1132.1588,63.7031 Q1132.6275,63.7969 1133.0181,64.0156 L1133.0181,65.9375 Q1132.5806,65.5313 1132.1588,65.3438 Q1131.7369,65.1406 1131.2994,65.1406 Q1130.3463,65.1406 1129.8619,65.9063 Q1129.3775,66.6563 1129.3775,68.1406 Q1129.3775,69.6094 1129.8619,70.3594 Q1130.3463,71.1094 1131.2994,71.1094 Q1131.7369,71.1094 1132.1588,70.9219 Q1132.5806,70.7344 1133.0181,70.3281 L1133.0181,72.25 Z " fill="#CAD3F5"/><text fill="#A6DA95" font-family="Helvetica" font-size="16" lengthAdjust="spacing" textLength="88.7813" x="1144.19" y="73.5391">Applicative</text><line style="stroke:#C6A0F6;stroke-width:2;" x1="1118.19" x2="1234.9713" y1="83" y2="83"/><line style="stroke:#C6A0F6;stroke-width:2;" x1="1118.19" x2="1234.9713" y1="91" y2="91"/></g><!--class Monad--><g class="entity" data-entity="Monad" data-source-line="29" data-uid="ent0012" id="entity_Monad"><rect fill="#24273A" height="46" rx="1.5" ry="1.5" style="stroke:#C6A0F6;stroke-width:2;" width="83.6953" x="666.74" y="38"/><rect fill="#363A4F" height="30" rx="1.5" ry="1.5" style="stroke:#363A4F;stroke-width:2;" width="83.6953" x="666.74" y="38"/><rect fill="#363A4F" height="1.5" style="stroke:#363A4F;stroke-width:2;" width="83.6953" x="666.74" y="66.5"/><rect fill="none" height="46" rx="1.5" ry="1.5" style="stroke:#C6A0F6;stroke-width:2;" width="83.6953" x="666.74" y="38"/><ellipse cx="680.74" cy="53" fill="#ADD1B2" rx="10" ry="10" style="stroke:#181818;stroke-width:1;"/><path d="M682.5681,57.25 Q682.1619,57.4531 681.7088,57.5625 Q681.2556,57.6719 680.7713,57.6719 Q678.99,57.6719 678.0525,56.5156 Q677.1306,55.3438 677.1306,53.1406 Q677.1306,50.9219 678.0525,49.7656 Q678.99,48.5938 680.7713,48.5938 Q681.2556,48.5938 681.7088,48.7031 Q682.1775,48.7969 682.5681,49.0156 L682.5681,50.9375 Q682.1306,50.5313 681.7088,50.3438 Q681.2869,50.1406 680.8494,50.1406 Q679.8963,50.1406 679.4119,50.9063 Q678.9275,51.6563 678.9275,53.1406 Q678.9275,54.6094 679.4119,55.3594 Q679.8963,56.1094 680.8494,56.1094 Q681.2869,56.1094 681.7088,55.9219 Q682.1306,55.7344 682.5681,55.3281 L682.5681,57.25 Z " fill="#CAD3F5"/><text fill="#A6DA95" font-family="Helvetica" font-size="16" lengthAdjust="spacing" textLength="53.6953" x="693.74" y="58.5391">Monad</text><line style="stroke:#C6A0F6;stroke-width:2;" x1="667.74" x2="749.4353" y1="68" y2="68"/><line style="stroke:#C6A0F6;stroke-width:2;" x1="667.74" x2="749.4353" y1="76" y2="76"/></g><!--class MonadError--><g class="entity" data-entity="MonadError" data-source-line="30" data-uid="ent0014" id="entity_MonadError"><rect fill="#24273A" height="46" rx="1.5" ry="1.5" style="stroke:#C6A0F6;stroke-width:2;" width="123.3281" x="164.33" y="38"/><rect fill="#363A4F" height="30" rx="1.5" ry="1.5" style="stroke:#363A4F;stroke-width:2;" width="123.3281" x="164.33" y="38"/><rect fill="#363A4F" height="1.5" style="stroke:#363A4F;stroke-width:2;" width="123.3281" x="164.33" y="66.5"/><rect fill="none" height="46" rx="1.5" ry="1.5" style="stroke:#C6A0F6;stroke-width:2;" width="123.3281" x="164.33" y="38"/><ellipse cx="178.33" cy="53" fill="#ADD1B2" rx="10" ry="10" style="stroke:#181818;stroke-width:1;"/><path d="M180.1581,57.25 Q179.7519,57.4531 179.2988,57.5625 Q178.8456,57.6719 178.3613,57.6719 Q176.58,57.6719 175.6425,56.5156 Q174.7206,55.3438 174.7206,53.1406 Q174.7206,50.9219 175.6425,49.7656 Q176.58,48.5938 178.3613,48.5938 Q178.8456,48.5938 179.2988,48.7031 Q179.7675,48.7969 180.1581,49.0156 L180.1581,50.9375 Q179.7206,50.5313 179.2988,50.3438 Q178.8769,50.1406 178.4394,50.1406 Q177.4863,50.1406 177.0019,50.9063 Q176.5175,51.6563 176.5175,53.1406 Q176.5175,54.6094 177.0019,55.3594 Q177.4863,56.1094 178.4394,56.1094 Q178.8769,56.1094 179.2988,55.9219 Q179.7206,55.7344 180.1581,55.3281 L180.1581,57.25 Z " fill="#CAD3F5"/><text fill="#A6DA95" font-family="Helvetica" font-size="16" lengthAdjust="spacing" textLength="93.3281" x="191.33" y="58.5391">MonadError</text><line style="stroke:#C6A0F6;stroke-width:2;" x1="165.33" x2="286.6581" y1="68" y2="68"/><line style="stroke:#C6A0F6;stroke-width:2;" x1="165.33" x2="286.6581" y1="76" y2="76"/></g><!--class KindUnwrapException--><g class="entity" data-entity="KindUnwrapException" data-source-line="34" data-uid="ent0017" id="entity_KindUnwrapException"><rect fill="#24273A" height="46" rx="1.5" ry="1.5" style="stroke:#C6A0F6;stroke-width:2;" width="205.7344" x="605.72" y="511"/><rect fill="#363A4F" height="30" rx="1.5" ry="1.5" style="stroke:#363A4F;stroke-width:2;" width="205.7344" x="605.72" y="511"/><rect fill="#363A4F" height="1.5" style="stroke:#363A4F;stroke-width:2;" width="205.7344" x="605.72" y="539.5"/><rect fill="none" height="46" rx="1.5" ry="1.5" style="stroke:#C6A0F6;stroke-width:2;" width="205.7344" x="605.72" y="511"/><ellipse cx="619.72" cy="526" fill="#ADD1B2" rx="10" ry="10" style="stroke:#181818;stroke-width:1;"/><path d="M621.5481,530.25 Q621.1419,530.4531 620.6888,530.5625 Q620.2356,530.6719 619.7513,530.6719 Q617.97,530.6719 617.0325,529.5156 Q616.1106,528.3438 616.1106,526.1406 Q616.1106,523.9219 617.0325,522.7656 Q617.97,521.5938 619.7513,521.5938 Q620.2356,521.5938 620.6888,521.7031 Q621.1575,521.7969 621.5481,522.0156 L621.5481,523.9375 Q621.1106,523.5313 620.6888,523.3438 Q620.2669,523.1406 619.8294,523.1406 Q618.8763,523.1406 618.3919,523.9063 Q617.9075,524.6563 617.9075,526.1406 Q617.9075,527.6094 618.3919,528.3594 Q618.8763,529.1094 619.8294,529.1094 Q620.2669,529.1094 620.6888,528.9219 Q621.1106,528.7344 621.5481,528.3281 L621.5481,530.25 Z " fill="#CAD3F5"/><text fill="#A6DA95" font-family="Helvetica" font-size="16" lengthAdjust="spacing" textLength="175.7344" x="632.72" y="531.5391">KindUnwrapException</text><line style="stroke:#C6A0F6;stroke-width:2;" x1="606.72" x2="810.4544" y1="541" y2="541"/><line style="stroke:#C6A0F6;stroke-width:2;" x1="606.72" x2="810.4544" y1="549" y2="549"/></g><!--class Helper--><g class="entity" data-entity="Helper" data-source-line="35" data-uid="ent0018" id="entity_Helper"><rect fill="#24273A" height="73.9375" rx="1.5" ry="1.5" style="stroke:#C6A0F6;stroke-width:2;" width="271.082" x="573.04" y="402.03"/><rect fill="#363A4F" height="30" rx="1.5" ry="1.5" style="stroke:#363A4F;stroke-width:2;" width="271.082" x="573.04" y="402.03"/><rect fill="#363A4F" height="1.5" style="stroke:#363A4F;stroke-width:2;" width="271.082" x="573.04" y="430.53"/><rect fill="none" height="73.9375" rx="1.5" ry="1.5" style="stroke:#C6A0F6;stroke-width:2;" width="271.082" x="573.04" y="402.03"/><ellipse cx="655.0341" cy="417.03" fill="#ADD1B2" rx="10" ry="10" style="stroke:#181818;stroke-width:1;"/><path d="M656.8623,421.28 Q656.456,421.4831 656.0029,421.5925 Q655.5498,421.7019 655.0654,421.7019 Q653.2841,421.7019 652.3466,420.5456 Q651.4248,419.3738 651.4248,417.1706 Q651.4248,414.9519 652.3466,413.7956 Q653.2841,412.6238 655.0654,412.6238 Q655.5498,412.6238 656.0029,412.7331 Q656.4716,412.8269 656.8623,413.0456 L656.8623,414.9675 Q656.4248,414.5613 656.0029,414.3738 Q655.581,414.1706 655.1435,414.1706 Q654.1904,414.1706 653.706,414.9363 Q653.2216,415.6863 653.2216,417.1706 Q653.2216,418.6394 653.706,419.3894 Q654.1904,420.1394 655.1435,420.1394 Q655.581,420.1394 656.0029,419.9519 Q656.4248,419.7644 656.8623,419.3581 L656.8623,421.28 Z " fill="#CAD3F5"/><text fill="#A6DA95" font-family="Helvetica" font-size="16" lengthAdjust="spacing" textLength="99.0938" x="674.0341" y="422.5691">XKindHelper</text><line style="stroke:#C6A0F6;stroke-width:2;" x1="574.04" x2="843.122" y1="432.03" y2="432.03"/><line style="stroke:#C6A0F6;stroke-width:2;" x1="574.04" x2="843.122" y1="440.03" y2="440.03"/><ellipse cx="584.04" cy="452.5144" fill="#84BE84" rx="3" ry="3" style="stroke:#038048;stroke-width:1;"/><text fill="#A6DA95" font-family="Helvetica" font-size="12" lengthAdjust="spacing" text-decoration="underline" textLength="230.8711" x="592.04" y="455.1687">wrap(JavaType&lt;A&gt;) : Kind&lt;XKind, A&gt;</text><ellipse cx="584.04" cy="466.4831" fill="#84BE84" rx="3" ry="3" style="stroke:#038048;stroke-width:1;"/><text fill="#A6DA95" font-family="Helvetica" font-size="12" lengthAdjust="spacing" text-decoration="underline" textLength="246.082" x="592.04" y="469.1374">unwrap(Kind&lt;XKind, A&gt;) : JavaType&lt;A&gt;</text></g><!--class Holder--><g class="entity" data-entity="Holder" data-source-line="39" data-uid="ent0019" id="entity_Holder"><rect fill="#24273A" height="59.9688" rx="1.5" ry="1.5" style="stroke:#C6A0F6;stroke-width:2;" width="178.7969" x="1087.18" y="408.02"/><rect fill="#363A4F" height="30" rx="1.5" ry="1.5" style="stroke:#363A4F;stroke-width:2;" width="178.7969" x="1087.18" y="408.02"/><rect fill="#363A4F" height="1.5" style="stroke:#363A4F;stroke-width:2;" width="178.7969" x="1087.18" y="436.52"/><rect fill="none" height="59.9688" rx="1.5" ry="1.5" style="stroke:#C6A0F6;stroke-width:2;" width="178.7969" x="1087.18" y="408.02"/><ellipse cx="1134.5716" cy="423.02" fill="#ADD1B2" rx="10" ry="10" style="stroke:#181818;stroke-width:1;"/><path d="M1136.3997,427.27 Q1135.9935,427.4731 1135.5404,427.5825 Q1135.0872,427.6919 1134.6029,427.6919 Q1132.8216,427.6919 1131.8841,426.5356 Q1130.9622,425.3638 1130.9622,423.1606 Q1130.9622,420.9419 1131.8841,419.7856 Q1132.8216,418.6138 1134.6029,418.6138 Q1135.0872,418.6138 1135.5404,418.7231 Q1136.0091,418.8169 1136.3997,419.0356 L1136.3997,420.9575 Q1135.9622,420.5513 1135.5404,420.3638 Q1135.1185,420.1606 1134.681,420.1606 Q1133.7279,420.1606 1133.2435,420.9263 Q1132.7591,421.6763 1132.7591,423.1606 Q1132.7591,424.6294 1133.2435,425.3794 Q1133.7279,426.1294 1134.681,426.1294 Q1135.1185,426.1294 1135.5404,425.9419 Q1135.9622,425.7544 1136.3997,425.3481 L1136.3997,427.27 Z " fill="#CAD3F5"/><text fill="#A6DA95" font-family="Helvetica" font-size="16" lengthAdjust="spacing" textLength="63.8047" x="1153.5716" y="428.5591">XHolder</text><rect fill="#24273A" height="15.9688" style="stroke:#C6A0F6;stroke-width:1;stroke-dasharray:2.0,2.0;" width="10.209" x="1258.7679" y="405.02"/><text fill="#CAD3F5" font-family="Helvetica" font-size="12" font-style="italic" lengthAdjust="spacing" textLength="8.209" x="1259.7679" y="417.1587">A</text><line style="stroke:#C6A0F6;stroke-width:2;" x1="1088.18" x2="1264.9769" y1="438.02" y2="438.02"/><rect fill="none" height="6" style="stroke:#C82930;stroke-width:1;" width="6" x="1095.18" y="447.5044"/><text fill="#A6DA95" font-family="Helvetica" font-size="12" lengthAdjust="spacing" textLength="153.7969" x="1106.18" y="453.1587">javaValue : JavaType&lt;A&gt;</text><line style="stroke:#C6A0F6;stroke-width:2;" x1="1088.18" x2="1264.9769" y1="459.9888" y2="459.9888"/></g><!--class XKind--><g class="entity" data-entity="XKind" data-source-line="42" data-uid="ent0020" id="entity_XKind"><rect fill="#24273A" height="58.9531" rx="1.5" ry="1.5" style="stroke:#C6A0F6;stroke-width:2;" width="178.168" x="1382.98" y="402.52"/><rect fill="#363A4F" height="30" rx="1.5" ry="1.5" style="stroke:#363A4F;stroke-width:2;" width="178.168" x="1382.98" y="402.52"/><rect fill="#363A4F" height="1.5" style="stroke:#363A4F;stroke-width:2;" width="178.168" x="1382.98" y="431.02"/><rect fill="none" height="58.9531" rx="1.5" ry="1.5" style="stroke:#C6A0F6;stroke-width:2;" width="178.168" x="1382.98" y="402.52"/><ellipse cx="1438.8618" cy="417.52" fill="#B4A7E5" rx="10" ry="10" style="stroke:#181818;stroke-width:1;"/><path d="M1435.8775,414.8013 L1435.8775,413.27 L1441.0806,413.27 L1441.0806,414.8013 L1439.3462,414.8013 L1439.3462,420.4888 L1441.0806,420.4888 L1441.0806,422.02 L1435.8775,422.02 L1435.8775,420.4888 L1437.6118,420.4888 L1437.6118,414.8013 L1435.8775,414.8013 Z " fill="#CAD3F5"/><text fill="#A6DA95" font-family="Helvetica" font-size="16" font-style="italic" lengthAdjust="spacing" textLength="46.1953" x="1457.8618" y="423.0591">XKind</text><rect fill="#24273A" height="15.9688" style="stroke:#C6A0F6;stroke-width:1;stroke-dasharray:2.0,2.0;" width="10.209" x="1553.939" y="399.52"/><text fill="#CAD3F5" font-family="Helvetica" font-size="12" font-style="italic" lengthAdjust="spacing" textLength="8.209" x="1554.939" y="411.6587">A</text><line style="stroke:#C6A0F6;stroke-width:2;" x1="1383.98" x2="1560.148" y1="432.52" y2="432.52"/><line style="stroke:#C6A0F6;stroke-width:2;" x1="1383.98" x2="1386.98" y1="447.5044" y2="447.5044"/><text fill="#A6DA95" font-family="Helvetica" font-size="12" lengthAdjust="spacing" textLength="170.168" x="1386.98" y="451.1587">Witness Type F = XKind&lt;?&gt;</text><line style="stroke:#C6A0F6;stroke-width:2;" x1="1557.148" x2="1560.148" y1="447.5044" y2="447.5044"/></g><!--link Functor to Kind--><g class="link" data-entity-1="Functor" data-entity-2="Kind" data-source-line="27" data-uid="lnk9" id="link_Functor_Kind"><path codeLine="27" d="M1517.93,218.71 C1567.27,230.49 1628.5925,245.1283 1678.1625,256.9683" fill="none" id="Functor-to-Kind" style="stroke:#F5BDE6;stroke-width:1;"/><polygon fill="none" points="1695.67,261.15,1679.5564,251.1324,1676.7686,262.8041,1695.67,261.15" style="stroke:#F5BDE6;stroke-width:1;"/><text fill="#CAD3F5" font-family="Helvetica" font-size="12" lengthAdjust="spacing" textLength="71.7305" x="1594.15" y="236.1387">operates on</text></g><!--link Applicative to Functor--><g class="link" data-entity-1="Applicative" data-entity-2="Functor" data-source-line="28" data-uid="lnk11" id="link_Applicative_Functor"><path codeLine="28" d="M1229.71,99.45 C1285.55,124.56 1356.8337,156.6273 1409.7337,180.4173" fill="none" id="Applicative-to-Functor" style="stroke:#F5BDE6;stroke-width:1;"/><polygon fill="none" points="1426.15,187.8,1412.1946,174.9452,1407.2728,185.8894,1426.15,187.8" style="stroke:#F5BDE6;stroke-width:1;"/></g><!--link Monad to Applicative--><g class="link" data-entity-1="Monad" data-entity-2="Applicative" data-source-line="29" data-uid="lnk13" id="link_Monad_Applicative"><path codeLine="29" d="M750.53,62.32 C833.37,64.98 1003.1093,70.4518 1098.9393,73.5318" fill="none" id="Monad-to-Applicative" style="stroke:#F5BDE6;stroke-width:1;"/><polygon fill="none" points="1116.93,74.11,1099.132,67.5349,1098.7465,79.5287,1116.93,74.11" style="stroke:#F5BDE6;stroke-width:1;"/></g><!--link MonadError to Monad--><g class="link" data-entity-1="MonadError" data-entity-2="Monad" data-source-line="30" data-uid="lnk15" id="link_MonadError_Monad"><path codeLine="30" d="M287.86,61 C387.25,61 563.79,61 648.51,61" fill="none" id="MonadError-to-Monad" style="stroke:#F5BDE6;stroke-width:1;"/><polygon fill="none" points="666.51,61,648.51,55,648.51,67,666.51,61" style="stroke:#F5BDE6;stroke-width:1;"/></g><!--reverse link XKind to Kind--><g class="link" data-entity-1="XKind" data-entity-2="Kind" data-source-line="46" data-uid="lnk21" id="link_XKind_Kind"><path codeLine="46" d="M1538.6269,392.8659 C1590.4569,361.9359 1654.84,323.51 1702.15,295.27" fill="none" id="XKind-backto-Kind" style="stroke:#F5BDE6;stroke-width:1;stroke-dasharray:7.0,7.0;"/><polygon fill="none" points="1523.17,402.09,1541.7016,398.0183,1535.5522,387.7136,1523.17,402.09" style="stroke:#F5BDE6;stroke-width:1;"/></g><!--reverse link Holder to XKind--><g class="link" data-entity-1="Holder" data-entity-2="XKind" data-source-line="47" data-uid="lnk22" id="link_Holder_XKind"><path codeLine="47" d="M1284.4263,435.813 C1321.2063,435.063 1345.77,434.56 1382.52,433.81" fill="none" id="Holder-backto-XKind" style="stroke:#F5BDE6;stroke-width:1;stroke-dasharray:7.0,7.0;"/><polygon fill="none" points="1266.43,436.18,1284.5486,441.8118,1284.3039,429.8143,1266.43,436.18" style="stroke:#F5BDE6;stroke-width:1;"/><text fill="#CAD3F5" font-family="Helvetica" font-size="12" lengthAdjust="spacing" textLength="55.6172" x="1296.98" y="432.1387">(internal)</text></g><!--link Helper to Holder--><g class="link" data-entity-1="Helper" data-entity-2="Holder" data-source-line="48" data-uid="lnk23" id="link_Helper_Holder"><path codeLine="48" d="M844.37,438.71 C922.32,438.54 1012.23,438.3531 1080.74,438.2031" fill="none" id="Helper-to-Holder" style="stroke:#F5BDE6;stroke-width:1;stroke-dasharray:7.0,7.0;"/><polygon fill="#F5BDE6" points="1086.74,438.19,1077.7313,434.2097,1081.74,438.2009,1077.7488,442.2097,1086.74,438.19" style="stroke:#F5BDE6;stroke-width:1;"/><text fill="#CAD3F5" font-family="Helvetica" font-size="12" lengthAdjust="spacing" textLength="99.832" x="957.18" y="436.1387">creates/unwraps</text></g><!--SRC=[bLJRZjCm47tFLmnzIaKk4ezL24fBgmMq224k-xOQNBSn9BRbE5tGRlzz7Jjft1k2lCJsd3bdF1U_O9nKxPf2gRLiPccgy27PCbssFzg6AYAufbmdHDGf9wBH63EI4jHIjeGm7jT8ICbGYrXMo7LRLx4kQKtJ6XbFxJAHvZG8AhhHe0KejYqrh9cYH3F1Wq0Y-OLR2fE5K1JU6K6rGKAR2Jm6O3usdC3a0-FhR1L1aKy06-Ysfv1LouaMAblbWt_tlOGQPMXjHZChedaUGSzMv5EO3PjvRdtsfxI5b1KpzsOxUaOjDc7XKHIvPpEgGz17wd-NFuJyAZoWeX4JmPpvRD72vrYSS7mCaoJnx9-lNF5MS5oVNMvJeRuzpjqOo7ycqIeibUhA4y7oH4aXQwYrXijhwIoHhoi7-cwQrC_E8S2b5rJ-3qHNI8ghlgPpnOwU1N0f4vVyV9yBVRCFxA_lOuZZfzmY3518gb3J1ipOT1YlAHskTx96csntxE56axsxizjziFT6yItTz9d0YZNOBI3yXDgKaa-7if4A6pU4N_c3GhdyJQYqCprQ9tUT_OPM9dGxisvvLFX7ywneHlRGaOJlSOTV_aYQUOcq9DtON_9ghNXu3EnSFIQl7uUuRaIrfYhhdnAtyyAAuQTn_uPLIwzIUQrjXGSokncvxk_1z0gdHhRZW1MyTf3iJMwCVjMTP_QK9EFZreTc3-_wJWYjj2dEr45SKfCa7z0p88fslPAwz3J1_Xa0]--></g></svg>