<svg xmlns="http://www.w3.org/2000/svg" xmlns:xlink="http://www.w3.org/1999/xlink" contentStyleType="text/css" height="949px" preserveAspectRatio="none" style="width:1986px;height:949px;background:#24273A;" version="1.1" viewBox="0 0 1986 949" width="1986px" zoomAndPan="magnify"><defs/><g><rect fill="#24273A" height="949" style="stroke:none;stroke-width:1.0;" width="1986" x="0" y="0"/><!--class Kind--><g id="elem_Kind"><rect codeLine="7" fill="#24273A" height="28.8438" id="Kind" rx="1.5" ry="1.5" style="stroke:#C6A0F6;stroke-width:2.0;" width="90.7422" x="650.15" y="717.09"/><rect fill="#363A4F" height="28.8438" rx="1.5" ry="1.5" style="stroke:#363A4F;stroke-width:2.0;" width="90.7422" x="650.15" y="717.09"/><rect fill="#363A4F" height="1.5" style="stroke:#363A4F;stroke-width:2.0;" width="90.7422" x="650.15" y="744.4338"/><rect codeLine="7" fill="none" height="28.8438" id="Kind" rx="1.5" ry="1.5" style="stroke:#C6A0F6;stroke-width:2.0;" width="90.7422" x="650.15" y="717.09"/><ellipse cx="663.15" cy="731.5119" fill="#FFFFFF" rx="9" ry="9" style="stroke:#000000;stroke-width:1.0;"/><path d="M660.1578,728.7873 L660.1578,727.2638 L665.3668,727.2638 L665.3668,728.7873 L663.6266,728.7873 L663.6266,734.4884 L665.3668,734.4884 L665.3668,736.0119 L660.1578,736.0119 L660.1578,734.4884 L661.898,734.4884 L661.898,728.7873 Z " fill="#CAD3F5"/><text fill="#A6DA95" font-family="sans-serif" font-size="16" font-style="italic" lengthAdjust="spacing" textLength="35.0703" x="675.15" y="737.5588">Kind</text><rect fill="#24273A" height="16.584" style="stroke:#C6A0F6;stroke-width:1.0;stroke-dasharray:2.0,2.0;" width="25.6719" x="718.2203" y="714.09"/><text fill="#000000" font-family="Verdana" font-size="12" font-style="italic" lengthAdjust="spacing" textLength="23.6719" x="719.2203" y="727.1545">F, A</text></g><!--class Monad<F> extends Applicative<F>--><g id="elem_Monad&lt;F&gt; extends Applicative&lt;F&gt;"><rect codeLine="9" fill="#24273A" height="28.8438" id="Monad&lt;F&gt; extends Applicative&lt;F&gt;" rx="1.5" ry="1.5" style="stroke:#C6A0F6;stroke-width:2.0;" width="305.6484" x="1308.7" y="79.53"/><rect fill="#363A4F" height="28.8438" rx="1.5" ry="1.5" style="stroke:#363A4F;stroke-width:2.0;" width="305.6484" x="1308.7" y="79.53"/><rect fill="#363A4F" height="1.5" style="stroke:#363A4F;stroke-width:2.0;" width="305.6484" x="1308.7" y="106.8738"/><rect codeLine="9" fill="none" height="28.8438" id="Monad&lt;F&gt; extends Applicative&lt;F&gt;" rx="1.5" ry="1.5" style="stroke:#C6A0F6;stroke-width:2.0;" width="305.6484" x="1308.7" y="79.53"/><ellipse cx="1321.7" cy="93.9519" fill="#FFFFFF" rx="9" ry="9" style="stroke:#000000;stroke-width:1.0;"/><path d="M1318.7078,91.2273 L1318.7078,89.7038 L1323.9168,89.7038 L1323.9168,91.2273 L1322.1766,91.2273 L1322.1766,96.9284 L1323.9168,96.9284 L1323.9168,98.4519 L1318.7078,98.4519 L1318.7078,96.9284 L1320.448,96.9284 L1320.448,91.2273 Z " fill="#CAD3F5"/><text fill="#A6DA95" font-family="sans-serif" font-size="16" font-style="italic" lengthAdjust="spacing" textLength="277.6484" x="1333.7" y="99.9988">Monad&lt;F&gt; extends Applicative&lt;F&gt;</text></g><!--class MonadError<F, E> extends Monad<F>--><g id="elem_MonadError&lt;F, E&gt; extends Monad&lt;F&gt;"><rect codeLine="10" fill="#24273A" height="28.8438" id="MonadError&lt;F, E&gt; extends Monad&lt;F&gt;" rx="1.5" ry="1.5" style="stroke:#C6A0F6;stroke-width:2.0;" width="329.7656" x="1649.64" y="79.53"/><rect fill="#363A4F" height="28.8438" rx="1.5" ry="1.5" style="stroke:#363A4F;stroke-width:2.0;" width="329.7656" x="1649.64" y="79.53"/><rect fill="#363A4F" height="1.5" style="stroke:#363A4F;stroke-width:2.0;" width="329.7656" x="1649.64" y="106.8738"/><rect codeLine="10" fill="none" height="28.8438" id="MonadError&lt;F, E&gt; extends Monad&lt;F&gt;" rx="1.5" ry="1.5" style="stroke:#C6A0F6;stroke-width:2.0;" width="329.7656" x="1649.64" y="79.53"/><ellipse cx="1662.64" cy="93.9519" fill="#FFFFFF" rx="9" ry="9" style="stroke:#000000;stroke-width:1.0;"/><path d="M1659.6478,91.2273 L1659.6478,89.7038 L1664.8568,89.7038 L1664.8568,91.2273 L1663.1166,91.2273 L1663.1166,96.9284 L1664.8568,96.9284 L1664.8568,98.4519 L1659.6478,98.4519 L1659.6478,96.9284 L1661.388,96.9284 L1661.388,91.2273 Z " fill="#CAD3F5"/><text fill="#A6DA95" font-family="sans-serif" font-size="16" font-style="italic" lengthAdjust="spacing" textLength="301.7656" x="1674.64" y="99.9988">MonadError&lt;F, E&gt; extends Monad&lt;F&gt;</text></g><!--class EitherKind--><g id="elem_EitherKind"><rect codeLine="13" fill="#24273A" height="135.7734" id="EitherKind" rx="1.5" ry="1.5" style="stroke:#C6A0F6;stroke-width:2.0;" width="375.7324" x="587.66" y="806.94"/><rect fill="#363A4F" height="28.8438" rx="1.5" ry="1.5" style="stroke:#363A4F;stroke-width:2.0;" width="375.7324" x="587.66" y="806.94"/><rect fill="#363A4F" height="1.5" style="stroke:#363A4F;stroke-width:2.0;" width="375.7324" x="587.66" y="834.2838"/><rect codeLine="13" fill="none" height="135.7734" id="EitherKind" rx="1.5" ry="1.5" style="stroke:#C6A0F6;stroke-width:2.0;" width="375.7324" x="587.66" y="806.94"/><ellipse cx="718.1014" cy="821.3619" fill="#FFFFFF" rx="9" ry="9" style="stroke:#000000;stroke-width:1.0;"/><path d="M715.1092,818.6373 L715.1092,817.1138 L720.3182,817.1138 L720.3182,818.6373 L718.578,818.6373 L718.578,824.3384 L720.3182,824.3384 L720.3182,825.8619 L715.1092,825.8619 L715.1092,824.3384 L716.8495,824.3384 L716.8495,818.6373 Z " fill="#CAD3F5"/><text fill="#A6DA95" font-family="sans-serif" font-size="16" font-style="italic" lengthAdjust="spacing" textLength="79.7422" x="735.6014" y="827.4088">EitherKind</text><rect fill="#24273A" height="16.584" style="stroke:#C6A0F6;stroke-width:1.0;stroke-dasharray:2.0,2.0;" width="25.6074" x="940.785" y="803.94"/><text fill="#000000" font-family="Verdana" font-size="12" font-style="italic" lengthAdjust="spacing" textLength="23.6074" x="941.785" y="817.0045">L, R</text><line style="stroke:#C6A0F6;stroke-width:2.0;" x1="588.66" x2="962.3924" y1="835.7838" y2="835.7838"/><text fill="#A6DA95" font-family="sans-serif" font-size="12" font-style="italic" lengthAdjust="spacing" textLength="245.9297" x="593.66" y="851.3853">+fold(Function&lt;L, T&gt;, Function&lt;R, T&gt;): T</text><text fill="#A6DA95" font-family="sans-serif" font-size="12" font-style="italic" lengthAdjust="spacing" textLength="103.0313" x="593.66" y="865.5181">+isLeft(): boolean</text><text fill="#A6DA95" font-family="sans-serif" font-size="12" font-style="italic" lengthAdjust="spacing" textLength="111.5215" x="593.66" y="879.6509">+isRight(): boolean</text><text fill="#A6DA95" font-family="sans-serif" font-size="12" font-style="italic" lengthAdjust="spacing" textLength="127.9277" x="593.66" y="893.7838">+getLeft(): L &#171;throws&#187;</text><text fill="#A6DA95" font-family="sans-serif" font-size="12" font-style="italic" lengthAdjust="spacing" textLength="137.6074" x="593.66" y="907.9166">+getRight(): R &#171;throws&#187;</text><text fill="#A6DA95" font-family="sans-serif" font-size="12" font-style="italic" lengthAdjust="spacing" textLength="279.0293" x="593.66" y="922.0494">+map(Function&lt;R, R_OUT&gt;): Either&lt;L, R_OUT&gt;</text><text fill="#A6DA95" font-family="sans-serif" font-size="12" font-style="italic" lengthAdjust="spacing" textLength="363.7324" x="593.66" y="936.1822">+flatMap(Function&lt;R, Either&lt;L, R_OUT&gt;&gt;): Either&lt;L, R_OUT&gt;</text></g><!--class Either--><g id="elem_Either"><rect codeLine="23" fill="#24273A" height="65.1094" id="Either" rx="1.5" ry="1.5" style="stroke:#C6A0F6;stroke-width:2.0;" width="146.4844" x="92.28" y="61.4"/><rect fill="#363A4F" height="28.8438" rx="1.5" ry="1.5" style="stroke:#363A4F;stroke-width:2.0;" width="146.4844" x="92.28" y="61.4"/><rect fill="#363A4F" height="1.5" style="stroke:#363A4F;stroke-width:2.0;" width="146.4844" x="92.28" y="88.7438"/><rect codeLine="23" fill="none" height="65.1094" id="Either" rx="1.5" ry="1.5" style="stroke:#C6A0F6;stroke-width:2.0;" width="146.4844" x="92.28" y="61.4"/><ellipse cx="126.0723" cy="75.8219" fill="#FFFFFF" rx="9" ry="9" style="stroke:#000000;stroke-width:1.0;"/><path d="M127.9063,80.0699 Q127.4961,80.2809 127.0449,80.3863 Q126.5938,80.4918 126.0957,80.4918 Q124.3262,80.4918 123.3946,79.3258 Q122.4629,78.1598 122.4629,75.9566 Q122.4629,73.7477 123.3946,72.5816 Q124.3262,71.4156 126.0957,71.4156 Q126.5938,71.4156 127.0508,71.5211 Q127.5078,71.6266 127.9063,71.8375 L127.9063,73.7594 Q127.461,73.3492 127.042,73.1588 Q126.6231,72.9684 126.1778,72.9684 Q125.2285,72.9684 124.7451,73.7213 Q124.2617,74.4742 124.2617,75.9566 Q124.2617,77.4332 124.7451,78.1861 Q125.2285,78.9391 126.1778,78.9391 Q126.6231,78.9391 127.042,78.7486 Q127.461,78.5582 127.9063,78.148 Z " fill="#CAD3F5"/><text fill="#A6DA95" font-family="sans-serif" font-size="16" lengthAdjust="spacing" textLength="44.6719" x="142.6928" y="81.8688">Either</text><rect fill="#24273A" height="16.584" style="stroke:#C6A0F6;stroke-width:1.0;stroke-dasharray:2.0,2.0;" width="25.6074" x="216.157" y="58.4"/><text fill="#000000" font-family="Verdana" font-size="12" font-style="italic" lengthAdjust="spacing" textLength="23.6074" x="217.157" y="71.4645">L, R</text><line style="stroke:#C6A0F6;stroke-width:2.0;" x1="93.28" x2="237.7644" y1="90.2438" y2="90.2438"/><text fill="#A6DA95" font-family="sans-serif" font-size="12" lengthAdjust="spacing" text-decoration="underline" textLength="124.5527" x="98.28" y="105.8453">+left(L): Either&lt;L, R&gt;</text><text fill="#A6DA95" font-family="sans-serif" font-size="12" lengthAdjust="spacing" text-decoration="underline" textLength="134.4844" x="98.28" y="119.9781">+right(R): Either&lt;L, R&gt;</text></g><g id="elem_GMN8"><path d="M274.21,83.39 L274.21,89.96 L239.2,93.96 L274.21,97.96 L274.21,104.5228 A1.5,1.5 0 0 0 275.71,106.0228 L845.3467,106.0228 A1.5,1.5 0 0 0 846.8467,104.5228 L846.8467,91.89 L836.8467,81.89 L275.71,81.89 A1.5,1.5 0 0 0 274.21,83.39 " fill="#EED49F" style="stroke:#24273A;stroke-width:1.0;"/><path d="M836.8467,81.89 L836.8467,91.14 A0.75,0.75 0 0 0 837.5967,91.89 L846.8467,91.89 L836.8467,81.89 " fill="#EED49F" style="stroke:#24273A;stroke-width:1.0;"/><text fill="#24273A" font-family="sans-serif" font-size="12" lengthAdjust="spacing" textLength="551.6367" x="280.21" y="98.4916">Concrete implementation (e.g., using sealed interface with Left/Right records) not shown fully.</text></g><!--class EitherTKind--><g id="elem_EitherTKind"><rect codeLine="31" fill="#24273A" height="28.8438" id="EitherTKind" rx="1.5" ry="1.5" style="stroke:#C6A0F6;stroke-width:2.0;" width="160.9473" x="392.05" y="860.4"/><rect fill="#363A4F" height="28.8438" rx="1.5" ry="1.5" style="stroke:#363A4F;stroke-width:2.0;" width="160.9473" x="392.05" y="860.4"/><rect fill="#363A4F" height="1.5" style="stroke:#363A4F;stroke-width:2.0;" width="160.9473" x="392.05" y="887.7438"/><rect codeLine="31" fill="none" height="28.8438" id="EitherTKind" rx="1.5" ry="1.5" style="stroke:#C6A0F6;stroke-width:2.0;" width="160.9473" x="392.05" y="860.4"/><ellipse cx="405.05" cy="874.8219" fill="#FFFFFF" rx="9" ry="9" style="stroke:#000000;stroke-width:1.0;"/><path d="M402.0578,872.0973 L402.0578,870.5738 L407.2668,870.5738 L407.2668,872.0973 L405.5266,872.0973 L405.5266,877.7984 L407.2668,877.7984 L407.2668,879.3219 L402.0578,879.3219 L402.0578,877.7984 L403.798,877.7984 L403.798,872.0973 Z " fill="#CAD3F5"/><text fill="#A6DA95" font-family="sans-serif" font-size="16" font-style="italic" lengthAdjust="spacing" textLength="89.8594" x="417.05" y="880.8688">EitherTKind</text><rect fill="#24273A" height="16.584" style="stroke:#C6A0F6;stroke-width:1.0;stroke-dasharray:2.0,2.0;" width="41.0879" x="514.9094" y="857.4"/><text fill="#000000" font-family="Verdana" font-size="12" font-style="italic" lengthAdjust="spacing" textLength="39.0879" x="515.9094" y="870.4645">F, L, R</text></g><!--class EitherT--><g id="elem_EitherT"><rect codeLine="35" fill="#24273A" height="154.3574" id="EitherT" rx="1.5" ry="1.5" style="stroke:#C6A0F6;stroke-width:2.0;" width="340.7168" x="525.17" y="452.74"/><rect fill="#363A4F" height="43.4277" rx="1.5" ry="1.5" style="stroke:#363A4F;stroke-width:2.0;" width="340.7168" x="525.17" y="452.74"/><rect fill="#363A4F" height="1.5" style="stroke:#363A4F;stroke-width:2.0;" width="340.7168" x="525.17" y="494.6677"/><rect codeLine="35" fill="none" height="154.3574" id="EitherT" rx="1.5" ry="1.5" style="stroke:#C6A0F6;stroke-width:2.0;" width="340.7168" x="525.17" y="452.74"/><ellipse cx="642.8399" cy="474.4539" fill="#FFFFFF" rx="9" ry="9" style="stroke:#000000;stroke-width:1.0;"/><path d="M644.6739,478.7019 Q644.2638,478.9129 643.8126,479.0183 Q643.3614,479.1238 642.8634,479.1238 Q641.0938,479.1238 640.1622,477.9578 Q639.2305,476.7918 639.2305,474.5886 Q639.2305,472.3796 640.1622,471.2136 Q641.0938,470.0476 642.8634,470.0476 Q643.3614,470.0476 643.8184,470.1531 Q644.2755,470.2586 644.6739,470.4695 L644.6739,472.3914 Q644.2286,471.9812 643.8096,471.7908 Q643.3907,471.6004 642.9454,471.6004 Q641.9962,471.6004 641.5128,472.3533 Q641.0294,473.1062 641.0294,474.5886 Q641.0294,476.0652 641.5128,476.8181 Q641.9962,477.5711 642.9454,477.5711 Q643.3907,477.5711 643.8096,477.3806 Q644.2286,477.1902 644.6739,476.78 Z " fill="#CAD3F5"/><text fill="#000000" font-family="Verdana" font-size="12" font-style="italic" lengthAdjust="spacing" textLength="53.8711" x="660.7989" y="469.8045">&#171;record&#187;</text><text fill="#A6DA95" font-family="sans-serif" font-size="16" lengthAdjust="spacing" textLength="54.7891" x="660.3399" y="487.7927">EitherT</text><rect fill="#24273A" height="16.584" style="stroke:#C6A0F6;stroke-width:1.0;stroke-dasharray:2.0,2.0;" width="41.0879" x="827.7989" y="449.74"/><text fill="#000000" font-family="Verdana" font-size="12" font-style="italic" lengthAdjust="spacing" textLength="39.0879" x="828.7989" y="462.8045">F, L, R</text><line style="stroke:#C6A0F6;stroke-width:2.0;" x1="526.17" x2="864.8868" y1="496.1677" y2="496.1677"/><text fill="#A6DA95" font-family="sans-serif" font-size="12" lengthAdjust="spacing" textLength="226.2422" x="531.17" y="511.7693">+EitherT(Kind&lt;F, Either&lt;L, R&gt;&gt; value)</text><text fill="#A6DA95" font-family="sans-serif" font-size="12" lengthAdjust="spacing" text-decoration="underline" textLength="308.4844" x="531.17" y="544.0349">+fromKind(Kind&lt;F, Either&lt;L, R&gt;&gt;): EitherT&lt;F, L, R&gt;</text><text fill="#A6DA95" font-family="sans-serif" font-size="12" lengthAdjust="spacing" text-decoration="underline" textLength="228.5391" x="531.17" y="558.1677">+right(Monad&lt;F&gt;, R): EitherT&lt;F, L, R&gt;</text><text fill="#A6DA95" font-family="sans-serif" font-size="12" lengthAdjust="spacing" text-decoration="underline" textLength="218.6074" x="531.17" y="572.3005">+left(Monad&lt;F&gt;, L): EitherT&lt;F, L, R&gt;</text><text fill="#A6DA95" font-family="sans-serif" font-size="12" lengthAdjust="spacing" text-decoration="underline" textLength="328.7168" x="531.17" y="586.4334">+fromEither(Monad&lt;F&gt;, Either&lt;L, R&gt;): EitherT&lt;F, L, R&gt;</text><text fill="#A6DA95" font-family="sans-serif" font-size="12" lengthAdjust="spacing" text-decoration="underline" textLength="282.4219" x="531.17" y="600.5662">+liftF(Monad&lt;F&gt;, Kind&lt;F, R&gt;): EitherT&lt;F, L, R&gt;</text><line style="stroke:#C6A0F6;stroke-width:2.0;" x1="526.17" x2="670.5294" y1="525.367" y2="525.367"/><text fill="#A6DA95" font-family="sans-serif" font-size="12" lengthAdjust="spacing" textLength="49.998" x="670.5294" y="529.4021">Methods</text><line style="stroke:#C6A0F6;stroke-width:2.0;" x1="720.5274" x2="864.8868" y1="525.367" y2="525.367"/></g><!--class EitherTKindHelper--><g id="elem_EitherTKindHelper"><rect codeLine="45" fill="#24273A" height="93.8262" id="EitherTKindHelper" rx="1.5" ry="1.5" style="stroke:#C6A0F6;stroke-width:2.0;" width="979.0488" x="12" y="282.91"/><rect fill="#363A4F" height="43.4277" rx="1.5" ry="1.5" style="stroke:#363A4F;stroke-width:2.0;" width="979.0488" x="12" y="282.91"/><rect fill="#363A4F" height="1.5" style="stroke:#363A4F;stroke-width:2.0;" width="979.0488" x="12" y="324.8377"/><rect codeLine="45" fill="none" height="93.8262" id="EitherTKindHelper" rx="1.5" ry="1.5" style="stroke:#C6A0F6;stroke-width:2.0;" width="979.0488" x="12" y="282.91"/><ellipse cx="414.3506" cy="304.6239" fill="#FFFFFF" rx="9" ry="9" style="stroke:#000000;stroke-width:1.0;"/><path d="M416.1846,308.8719 Q415.7744,309.0829 415.3232,309.1883 Q414.8721,309.2938 414.374,309.2938 Q412.6045,309.2938 411.6729,308.1278 Q410.7412,306.9618 410.7412,304.7586 Q410.7412,302.5496 411.6729,301.3836 Q412.6045,300.2176 414.374,300.2176 Q414.8721,300.2176 415.3291,300.3231 Q415.7861,300.4286 416.1846,300.6395 L416.1846,302.5614 Q415.7393,302.1512 415.3203,301.9608 Q414.9014,301.7704 414.4561,301.7704 Q413.5068,301.7704 413.0234,302.5233 Q412.54,303.2762 412.54,304.7586 Q412.54,306.2352 413.0234,306.9881 Q413.5068,307.7411 414.4561,307.7411 Q414.9014,307.7411 415.3203,307.5506 Q415.7393,307.3602 416.1846,306.95 Z " fill="#CAD3F5"/><text fill="#000000" font-family="Verdana" font-size="12" font-style="italic" lengthAdjust="spacing" textLength="49.4883" x="477.4502" y="299.9745">&#171;utility&#187;</text><text fill="#A6DA95" font-family="sans-serif" font-size="16" lengthAdjust="spacing" textLength="140.6875" x="431.8506" y="317.9627">EitherTKindHelper</text><rect fill="#24273A" height="16.584" style="stroke:#C6A0F6;stroke-width:1.0;stroke-dasharray:2.0,2.0;" width="24.1602" x="969.8887" y="279.91"/><text fill="#000000" font-family="Verdana" font-size="12" font-style="italic" lengthAdjust="spacing" textLength="22.1602" x="970.8887" y="292.9745">F, L</text><line style="stroke:#C6A0F6;stroke-width:2.0;" x1="13" x2="990.0488" y1="326.3377" y2="326.3377"/><text fill="#A6DA95" font-family="sans-serif" font-size="12" lengthAdjust="spacing" text-decoration="underline" textLength="271.1309" x="18" y="341.9393">+wrap(EitherT&lt;F, L, R&gt;): EitherTKind&lt;F, L, R&gt;</text><text fill="#A6DA95" font-family="sans-serif" font-size="12" lengthAdjust="spacing" text-decoration="underline" textLength="344.0625" x="18" y="356.0721">+unwrap(Kind&lt;EitherTKind&lt;F, L, ?&gt;, R&gt;): EitherT&lt;F, L, R&gt;</text><text fill="#A6DA95" font-family="sans-serif" font-size="12" lengthAdjust="spacing" text-decoration="underline" textLength="967.0488" x="18" y="370.2049">-record EitherTHolder&lt;F_HOLDER, L_HOLDER, R_HOLDER&gt;(EitherT&lt;F_HOLDER, L_HOLDER, R_HOLDER&gt;) implements EitherTKind&lt;F_HOLDER, L_HOLDER, R_HOLDER&gt;</text></g><!--class EitherTMonad--><g id="elem_EitherTMonad"><rect codeLine="52" fill="#24273A" height="157.9063" id="EitherTMonad" rx="1.5" ry="1.5" style="stroke:#C6A0F6;stroke-width:2.0;" width="391.6699" x="881.69" y="15"/><rect fill="#363A4F" height="28.8438" rx="1.5" ry="1.5" style="stroke:#363A4F;stroke-width:2.0;" width="391.6699" x="881.69" y="15"/><rect fill="#363A4F" height="1.5" style="stroke:#363A4F;stroke-width:2.0;" width="391.6699" x="881.69" y="42.3438"/><rect codeLine="52" fill="none" height="157.9063" id="EitherTMonad" rx="1.5" ry="1.5" style="stroke:#C6A0F6;stroke-width:2.0;" width="391.6699" x="881.69" y="15"/><ellipse cx="1007.0777" cy="29.4219" fill="#FFFFFF" rx="9" ry="9" style="stroke:#000000;stroke-width:1.0;"/><path d="M1008.9117,33.6699 Q1008.5015,33.8809 1008.0504,33.9863 Q1007.5992,34.0918 1007.1011,34.0918 Q1005.3316,34.0918 1004.4,32.9258 Q1003.4683,31.7598 1003.4683,29.5566 Q1003.4683,27.3477 1004.4,26.1816 Q1005.3316,25.0156 1007.1011,25.0156 Q1007.5992,25.0156 1008.0562,25.1211 Q1008.5132,25.2266 1008.9117,25.4375 L1008.9117,27.3594 Q1008.4664,26.9492 1008.0474,26.7588 Q1007.6285,26.5684 1007.1832,26.5684 Q1006.2339,26.5684 1005.7505,27.3213 Q1005.2671,28.0742 1005.2671,29.5566 Q1005.2671,31.0332 1005.7505,31.7861 Q1006.2339,32.5391 1007.1832,32.5391 Q1007.6285,32.5391 1008.0474,32.3486 Q1008.4664,32.1582 1008.9117,31.748 Z " fill="#CAD3F5"/><text fill="#A6DA95" font-family="sans-serif" font-size="16" lengthAdjust="spacing" textLength="107.2344" x="1024.5777" y="35.4688">EitherTMonad</text><rect fill="#24273A" height="16.584" style="stroke:#C6A0F6;stroke-width:1.0;stroke-dasharray:2.0,2.0;" width="24.1602" x="1252.1998" y="12"/><text fill="#000000" font-family="Verdana" font-size="12" font-style="italic" lengthAdjust="spacing" textLength="22.1602" x="1253.1998" y="25.0645">F, L</text><line style="stroke:#C6A0F6;stroke-width:2.0;" x1="882.69" x2="1272.3599" y1="43.8438" y2="43.8438"/><text fill="#A6DA95" font-family="sans-serif" font-size="12" lengthAdjust="spacing" textLength="149.6191" x="887.69" y="59.4453">-outerMonad: Monad&lt;F&gt;</text><line style="stroke:#C6A0F6;stroke-width:2.0;" x1="882.69" x2="1272.3599" y1="65.9766" y2="65.9766"/><text fill="#A6DA95" font-family="sans-serif" font-size="12" lengthAdjust="spacing" textLength="162.6152" x="887.69" y="81.5781">+EitherTMonad(Monad&lt;F&gt;)</text><text fill="#A6DA95" font-family="sans-serif" font-size="12" lengthAdjust="spacing" textLength="224.4258" x="887.69" y="95.7109">+of(R): Kind&lt;EitherTKind&lt;F, L, ?&gt;, R&gt;</text><text fill="#A6DA95" font-family="sans-serif" font-size="12" lengthAdjust="spacing" textLength="313.1016" x="887.69" y="109.8438">+map(Function&lt;R_IN, R_OUT&gt;, Kind&lt;...&gt;): Kind&lt;...&gt;</text><text fill="#A6DA95" font-family="sans-serif" font-size="12" lengthAdjust="spacing" textLength="285.2227" x="887.69" y="123.9766">+ap(Kind&lt;...Func...&gt;, Kind&lt;...Val...&gt;): Kind&lt;...&gt;</text><text fill="#A6DA95" font-family="sans-serif" font-size="12" lengthAdjust="spacing" textLength="349.1895" x="887.69" y="138.1094">+flatMap(Function&lt;R_IN, Kind&lt;...&gt;&gt;, Kind&lt;...&gt;): Kind&lt;...&gt;</text><text fill="#A6DA95" font-family="sans-serif" font-size="12" lengthAdjust="spacing" textLength="267.8672" x="887.69" y="152.2422">+raiseError(L): Kind&lt;EitherTKind&lt;F, L, ?&gt;, R&gt;</text><text fill="#A6DA95" font-family="sans-serif" font-size="12" lengthAdjust="spacing" textLength="379.6699" x="887.69" y="166.375">+handleErrorWith(Kind&lt;...&gt;, Function&lt;L, Kind&lt;...&gt;&gt;): Kind&lt;...&gt;</text></g><!--class MonadError--><g id="elem_MonadError"><rect fill="#24273A" height="28.8438" id="MonadError" rx="1.5" ry="1.5" style="stroke:#C6A0F6;stroke-width:2.0;" width="118.5859" x="1026.23" y="315.4"/><rect fill="#363A4F" height="28.8438" rx="1.5" ry="1.5" style="stroke:#363A4F;stroke-width:2.0;" width="118.5859" x="1026.23" y="315.4"/><rect fill="#363A4F" height="1.5" style="stroke:#363A4F;stroke-width:2.0;" width="118.5859" x="1026.23" y="342.7438"/><rect fill="none" height="28.8438" id="MonadError" rx="1.5" ry="1.5" style="stroke:#C6A0F6;stroke-width:2.0;" width="118.5859" x="1026.23" y="315.4"/><ellipse cx="1039.23" cy="329.8219" fill="#FFFFFF" rx="9" ry="9" style="stroke:#000000;stroke-width:1.0;"/><path d="M1036.2378,327.0973 L1036.2378,325.5738 L1041.4468,325.5738 L1041.4468,327.0973 L1039.7066,327.0973 L1039.7066,332.7984 L1041.4468,332.7984 L1041.4468,334.3219 L1036.2378,334.3219 L1036.2378,332.7984 L1037.978,332.7984 L1037.978,327.0973 Z " fill="#CAD3F5"/><text fill="#A6DA95" font-family="sans-serif" font-size="16" font-style="italic" lengthAdjust="spacing" textLength="90.5859" x="1051.23" y="335.8688">MonadError</text></g><!--class Monad--><g id="elem_Monad"><rect fill="#24273A" height="28.8438" id="Monad" rx="1.5" ry="1.5" style="stroke:#C6A0F6;stroke-width:2.0;" width="80.4453" x="1180.3" y="315.4"/><rect fill="#363A4F" height="28.8438" rx="1.5" ry="1.5" style="stroke:#363A4F;stroke-width:2.0;" width="80.4453" x="1180.3" y="315.4"/><rect fill="#363A4F" height="1.5" style="stroke:#363A4F;stroke-width:2.0;" width="80.4453" x="1180.3" y="342.7438"/><rect fill="none" height="28.8438" id="Monad" rx="1.5" ry="1.5" style="stroke:#C6A0F6;stroke-width:2.0;" width="80.4453" x="1180.3" y="315.4"/><ellipse cx="1193.3" cy="329.8219" fill="#FFFFFF" rx="9" ry="9" style="stroke:#000000;stroke-width:1.0;"/><path d="M1195.134,334.0699 Q1194.7238,334.2809 1194.2727,334.3863 Q1193.8215,334.4918 1193.3234,334.4918 Q1191.5539,334.4918 1190.6223,333.3258 Q1189.6906,332.1598 1189.6906,329.9566 Q1189.6906,327.7477 1190.6223,326.5816 Q1191.5539,325.4156 1193.3234,325.4156 Q1193.8215,325.4156 1194.2785,325.5211 Q1194.7355,325.6266 1195.134,325.8375 L1195.134,327.7594 Q1194.6887,327.3492 1194.2697,327.1588 Q1193.8508,326.9684 1193.4055,326.9684 Q1192.4563,326.9684 1191.9729,327.7213 Q1191.4895,328.4742 1191.4895,329.9566 Q1191.4895,331.4332 1191.9729,332.1861 Q1192.4563,332.9391 1193.4055,332.9391 Q1193.8508,332.9391 1194.2697,332.7486 Q1194.6887,332.5582 1195.134,332.148 Z " fill="#CAD3F5"/><text fill="#A6DA95" font-family="sans-serif" font-size="16" lengthAdjust="spacing" textLength="52.4453" x="1205.3" y="335.8688">Monad</text></g><!--reverse link Kind to EitherKind--><g id="link_Kind_EitherKind"><path d="M712.2065,761.9848 C720.2665,776.2248 724.58,783.83 737.48,806.63 " fill="none" id="Kind-backto-EitherKind" style="stroke:#F5BDE6;stroke-width:1.0;"/><polygon fill="none" points="703.34,746.32,706.9849,764.9403,717.4281,759.0293,703.34,746.32" style="stroke:#F5BDE6;stroke-width:1.0;"/></g><!--reverse link Kind to EitherTKind--><g id="link_Kind_EitherTKind"><path d="M655.6927,755.3347 C630.3127,769.9547 605.02,784.93 570.52,806.94 C542.74,824.67 511.41,846.36 491.81,860.14 " fill="none" id="Kind-backto-EitherTKind" style="stroke:#F5BDE6;stroke-width:1.0;"/><polygon fill="none" points="671.29,746.35,652.6978,750.1356,658.6876,760.5338,671.29,746.35" style="stroke:#F5BDE6;stroke-width:1.0;"/></g><!--reverse link MonadError to EitherTMonad--><g id="link_MonadError_EitherTMonad"><path d="M1093.9105,297.5573 C1097.8705,282.4373 1099.23,274.88 1101.52,252.91 C1103.83,230.81 1103.95,225 1101.52,202.91 C1100.47,193.27 1098.89,183.24 1097.05,173.33 " fill="none" id="MonadError-backto-EitherTMonad" style="stroke:#F5BDE6;stroke-width:1.0;stroke-dasharray:7.0,7.0;"/><polygon fill="none" points="1089.35,314.97,1099.7147,299.0775,1088.1062,296.0371,1089.35,314.97" style="stroke:#F5BDE6;stroke-width:1.0;"/></g><!--link EitherTMonad to MonadError--><g id="link_EitherTMonad_MonadError"><path codeLine="79" d="M1029.35,173.03 C1019.33,198.54 1014.28,226.98 1023.52,252.91 C1032.55,278.23 1040.782,289.0562 1055.922,302.9362 " fill="none" id="EitherTMonad-to-MonadError" style="stroke:#F5BDE6;stroke-width:1.0;stroke-dasharray:7.0,7.0;"/><polygon fill="none" points="1069.19,315.1,1059.9766,298.5135,1051.8673,307.3588,1069.19,315.1" style="stroke:#F5BDE6;stroke-width:1.0;"/><text fill="#CAD3F5" font-family="sans-serif" font-size="12" lengthAdjust="spacing" textLength="68.3203" x="1024.52" y="232.5116">implements</text></g><!--reverse link EitherT to Kind--><g id="link_EitherT_Kind"><path codeLine="65" d="M695.52,619.51 C695.52,660.19 695.52,694.31 695.52,716.77 " fill="none" id="EitherT-backto-Kind" style="stroke:#F5BDE6;stroke-width:1.0;"/><polygon fill="#F5BDE6" points="695.52,607.51,691.52,613.51,695.52,619.51,699.52,613.51,695.52,607.51" style="stroke:#F5BDE6;stroke-width:1.0;"/><polygon fill="#CAD3F5" points="790.5698,649.1564,792.9209,641.9203,788.2187,641.9203,790.5698,649.1564" style="stroke:#CAD3F5;stroke-width:1.0;"/><text fill="#CAD3F5" font-family="sans-serif" font-size="12" lengthAdjust="spacing" textLength="49.1133" x="799.5698" y="649.6916">contains</text><path d="M700.52,659.7228 L700.52,680.7228 A1.5,1.5 0 0 0 702.02,682.2228 L934.02,682.2228 A1.5,1.5 0 0 0 935.52,680.7228 L935.52,668.2228 L925.52,658.2228 L702.02,658.2228 A1.5,1.5 0 0 0 700.52,659.7228 " fill="#EED49F" style="stroke:#24273A;stroke-width:1.0;"/><path d="M925.52,658.2228 L925.52,667.4728 A0.75,0.75 0 0 0 926.27,668.2228 L935.52,668.2228 L925.52,658.2228 " fill="#EED49F" style="stroke:#24273A;stroke-width:1.0;"/><text fill="#24273A" font-family="sans-serif" font-size="12" lengthAdjust="spacing" textLength="214.2129" x="706.52" y="674.8244">EitherT holds Kind&lt;F, Either&lt;L, R&gt;&gt;</text></g><!--link EitherTKindHelper to EitherT--><g id="link_EitherTKindHelper_EitherT"><path codeLine="68" d="M546.76,377.02 C568.71,399.42 591.4514,422.6537 616.3514,448.0737 " fill="none" id="EitherTKindHelper-to-EitherT" style="stroke:#F5BDE6;stroke-width:1.0;"/><polygon fill="#F5BDE6" points="620.55,452.36,617.1096,443.1316,617.0512,448.7881,611.3946,448.7297,620.55,452.36" style="stroke:#F5BDE6;stroke-width:1.0;"/><text fill="#CAD3F5" font-family="sans-serif" font-size="12" lengthAdjust="spacing" textLength="120.5977" x="587.91" y="419.3416">&#171;uses&#187; wrap/unwrap</text></g><!--link EitherTKindHelper to EitherTKind--><g id="link_EitherTKindHelper_EitherTKind"><path codeLine="69" d="M499.05,377.12 C492.85,493.3 477.1806,786.7286 473.5706,854.1886 " fill="none" id="EitherTKindHelper-to-EitherTKind" style="stroke:#F5BDE6;stroke-width:1.0;"/><polygon fill="#F5BDE6" points="473.25,860.18,477.7252,851.4066,473.5172,855.1871,469.7366,850.9791,473.25,860.18" style="stroke:#F5BDE6;stroke-width:1.0;"/><text fill="#CAD3F5" font-family="sans-serif" font-size="12" lengthAdjust="spacing" textLength="106.4707" x="486.15" y="666.6916">&#171;creates&#187; via wrap</text></g><!--link EitherTMonad to EitherTKindHelper--><g id="link_EitherTMonad_EitherTKindHelper"><path codeLine="75" d="M884.52,173.32 C795.27,209.56 697.8693,249.1031 621.1893,280.2331 " fill="none" id="EitherTMonad-to-EitherTKindHelper" style="stroke:#F5BDE6;stroke-width:1.0;"/><polygon fill="#F5BDE6" points="615.63,282.49,625.4736,282.8108,620.2628,280.6092,622.4644,275.3984,615.63,282.49" style="stroke:#F5BDE6;stroke-width:1.0;"/><text fill="#CAD3F5" font-family="sans-serif" font-size="12" lengthAdjust="spacing" textLength="38.9414" x="807.8" y="232.5116">&#171;uses&#187;</text></g><!--link EitherTMonad to Monad--><g id="link_EitherTMonad_Monad"><path codeLine="76" d="M1125.34,173.16 C1156.84,224.68 1192.13,282.3911 1208.89,309.8011 " fill="none" id="EitherTMonad-to-Monad" style="stroke:#F5BDE6;stroke-width:1.0;"/><polygon fill="#F5BDE6" points="1212.02,314.92,1210.7376,305.155,1209.4117,310.6542,1203.9124,309.3283,1212.02,314.92" style="stroke:#F5BDE6;stroke-width:1.0;"/><polygon fill="#CAD3F5" points="1246.5491,214.389,1244.7802,206.989,1240.7684,209.4421,1246.5491,214.389" style="stroke:#CAD3F5;stroke-width:1.0;"/><text fill="#CAD3F5" font-family="sans-serif" font-size="12" lengthAdjust="spacing" textLength="47.7773" x="1253.4625" y="215.5116">requires</text><path d="M1175.19,225.5428 L1175.19,246.5428 A1.5,1.5 0 0 0 1176.69,248.0428 L1365.69,248.0428 A1.5,1.5 0 0 0 1367.19,246.5428 L1367.19,234.0428 L1357.19,224.0428 L1176.69,224.0428 A1.5,1.5 0 0 0 1175.19,225.5428 " fill="#EED49F" style="stroke:#24273A;stroke-width:1.0;"/><path d="M1357.19,224.0428 L1357.19,233.2928 A0.75,0.75 0 0 0 1357.94,234.0428 L1367.19,234.0428 L1357.19,224.0428 " fill="#EED49F" style="stroke:#24273A;stroke-width:1.0;"/><text fill="#24273A" font-family="sans-serif" font-size="12" lengthAdjust="spacing" textLength="171.3223" x="1181.19" y="240.6444">Requires Monad&lt;F&gt; instance</text></g><!--SRC=[XLPDazeu4BtxLtIu0CbWzanHtfhQ7MfIyIHL3hjxf8IHiMfaoIl9a4d2VqzB_hO9t8pqNd- -Rl7Ef3IZa7F2XFUEYPWN1mgfCRbUBPUAdFqZCscnBpHLiHI62kF7CbkAM6f35YnUniJaUH77J2mo4iSf8qOkq9umHSONplmoG-jBz-ddUEhfLoPoeaW6CITQFngZsBumz2Ew-Cg-K_YZ0pdGX1JSRD3xPuAnJYAvbqO-m3Fb9sfOJ2PUoZ1gckNc3JAQxQdIdiSmMfMGcC8d9WxhpGCy1jtJoOiK1Cy3eDymhuE6nppdQCwm4yNZoGZxf9HKrj1JowcDJ3nl2el50fwmNbJ1NpBBfS1oQNlQCLNUkv321uXQI-weV_jdu10_F80Fy8FijL4aDXT893_CDeM83PF20hS8R7v7zlTy1TiXZUcG9cQ6LtifEILY38ZOCRs5E59JsmXXlJQfacST15TWZQNe1YuZ-QmRTxJxye-BlQo3gv0x6bM04_Co80yvlx4p1T_tGRekLStAg4dbGNiNp-cnosggZt97hLs0s_J3lkcW3r4kzMY8kNX26bhUWaogonLAHSIAuWtBSeup8gmPAM16_QF_08LcuWYQ4auFqEheZ6omlLYwIeEYiLG7FGTq0ZgLPm59mVcRtnVcTgZCaJItzRZyLfvTH4UYKtWXwXNBsLfCf8BdJrlGB2jucTKKwz0hyxRrjLwNMGHrrIl4h7ROhMS09y8BEaVWRWSlPGlniz-BHCdCig-RQ5hK1d6jbVMGu_rTXjD7ImZl4co49Q93wqPvtoLBpAP3hbEzJXsMtw9nbURKhRRGTg4mZ3Fp5ep4VrOuSqEBhPEUSlhCGZZkJHLTJxHKRwxOYTWPiTeIX4EAEn2rPk-cY5fqUkOqL9jwThZrPlVy9Vpx2TT4s7n5rLVGfdGBDMy7LFSpliKQrRlgaojrns3dXRbUdx3inW8alfJAmLVDyzET5dVMo67khcJYzj7DyZjWVoFlFdwkDsSbAzoTGMt8VZjItLWyi5nxtiB_9VmgQRp2dRS6TDEZ8anJLostY-_dbH9nu2NZFyGryNOVph3hlUVoKY_HY9PhJASih_PdlLVVuxLbm0hiFoNyowCXA5S-hZtEn6iZRoTU3LTNKcEmdKlq4pJKbPrFJV4nTTEuB0VhDgaAQxt6TmQ7o79FZ3Z-DNSVsjUYFVLxyuJMcacivYtmxd5y_-Smf7O0xhBVTzwmLLN1jbfExiESgtpQaetHvTSAa_Y_O8gEMnRL5ytVHMoi8IAc0zykktQA-ydz0W00]--></g></svg>