<svg xmlns="http://www.w3.org/2000/svg" xmlns:xlink="http://www.w3.org/1999/xlink" contentStyleType="text/css" height="817px" preserveAspectRatio="none" style="width:2028px;height:817px;background:#24273A;" version="1.1" viewBox="0 0 2028 817" width="2028px" zoomAndPan="magnify"><defs/><g><rect fill="#24273A" height="817" style="stroke:none;stroke-width:1.0;" width="2028" x="0" y="0"/><!--cluster helper--><g id="cluster_helper"><rect fill="#363A4F" height="281" rx="1.5" ry="1.5" style="stroke:#CAD3F5;stroke-width:1.0;" width="412" x="899.63" y="243"/><text fill="#CAD3F5" font-family="Helvetica" font-size="12" font-weight="bold" lengthAdjust="spacing" textLength="36.0117" x="1087.6241" y="254.2402">helper</text></g><!--class IOKindHelper--><g id="elem_IOKindHelper"><rect codeLine="25" fill="#24273A" height="102" id="IOKindHelper" rx="1.5" ry="1.5" style="stroke:#C6A0F6;stroke-width:2.0;" width="266.459" x="1029.4" y="274"/><rect fill="#363A4F" height="30" rx="1.5" ry="1.5" style="stroke:#363A4F;stroke-width:2.0;" width="266.459" x="1029.4" y="274"/><rect fill="#363A4F" height="1.5" style="stroke:#363A4F;stroke-width:2.0;" width="266.459" x="1029.4" y="302.5"/><rect codeLine="25" fill="none" height="102" id="IOKindHelper" rx="1.5" ry="1.5" style="stroke:#C6A0F6;stroke-width:2.0;" width="266.459" x="1029.4" y="274"/><ellipse cx="1110.6061" cy="289" fill="#ADD1B2" rx="10" ry="10" style="stroke:#181818;stroke-width:1.0;"/><path d="M1112.44,293.248 Q1112.0299,293.459 1111.5787,293.5645 Q1111.1275,293.6699 1110.6295,293.6699 Q1108.86,293.6699 1107.9283,292.5039 Q1106.9967,291.3379 1106.9967,289.1348 Q1106.9967,286.9258 1107.9283,285.7598 Q1108.86,284.5938 1110.6295,284.5938 Q1111.1275,284.5938 1111.5846,284.6992 Q1112.0416,284.8047 1112.44,285.0156 L1112.44,286.9375 Q1111.9947,286.5273 1111.5758,286.3369 Q1111.1568,286.1465 1110.7115,286.1465 Q1109.7623,286.1465 1109.2789,286.8994 Q1108.7955,287.6523 1108.7955,289.1348 Q1108.7955,290.6113 1109.2789,291.3643 Q1109.7623,292.1172 1110.7115,292.1172 Q1111.1568,292.1172 1111.5758,291.9268 Q1111.9947,291.7363 1112.44,291.3262 Z " fill="#CAD3F5"/><text fill="#A6DA95" font-family="Helvetica" font-size="16" lengthAdjust="spacing" textLength="96.0469" x="1129.6061" y="293.3203">IOKindHelper</text><line style="stroke:#C6A0F6;stroke-width:2.0;" x1="1030.4" x2="1294.859" y1="304" y2="304"/><ellipse cx="1040.4" cy="331.5" fill="#84BE84" rx="3" ry="3" style="stroke:#038048;stroke-width:1.0;"/><text fill="#A6DA95" font-family="Helvetica" font-size="12" lengthAdjust="spacing" text-decoration="underline" textLength="130.7285" x="1048.4" y="333.2402">IOKind&lt;A&gt; wrap(IO&lt;A&gt;)</text><ellipse cx="1040.4" cy="343.5" fill="#84BE84" rx="3" ry="3" style="stroke:#038048;stroke-width:1.0;"/><text fill="#A6DA95" font-family="Helvetica" font-size="12" lengthAdjust="spacing" text-decoration="underline" textLength="220.7695" x="1048.4" y="345.2402">IO&lt;A&gt; unwrap(Kind&lt;IOKind.Witness, A&gt;)</text><ellipse cx="1040.4" cy="355.5" fill="#84BE84" rx="3" ry="3" style="stroke:#038048;stroke-width:1.0;"/><text fill="#A6DA95" font-family="Helvetica" font-size="12" lengthAdjust="spacing" text-decoration="underline" textLength="241.459" x="1048.4" y="357.2402">Kind&lt;IOKind.Witness, A&gt; delay(Supplier&lt;A&gt;)</text><ellipse cx="1040.4" cy="367.5" fill="#84BE84" rx="3" ry="3" style="stroke:#038048;stroke-width:1.0;"/><text fill="#A6DA95" font-family="Helvetica" font-size="12" lengthAdjust="spacing" text-decoration="underline" textLength="239.4492" x="1048.4" y="369.2402">A unsafeRunSync(Kind&lt;IOKind.Witness, A&gt;)</text><line style="stroke:#C6A0F6;stroke-width:1.0;stroke-dasharray:1.0,2.0;" x1="1030.4" x2="1103.6021" y1="318" y2="318"/><text fill="#A6DA95" font-family="Helvetica" font-size="12" lengthAdjust="spacing" textLength="118.0547" x="1103.6021" y="320.7402">Static Helper Methods</text><line style="stroke:#C6A0F6;stroke-width:1.0;stroke-dasharray:1.0,2.0;" x1="1221.6568" x2="1294.859" y1="318" y2="318"/></g><!--class IOHolder--><g id="elem_IOHolder"><rect codeLine="34" fill="#24273A" height="58" id="IOHolder" rx="1.5" ry="1.5" style="stroke:#C6A0F6;stroke-width:2.0;" width="117.7246" x="974.76" y="450"/><rect fill="#363A4F" height="30" rx="1.5" ry="1.5" style="stroke:#363A4F;stroke-width:2.0;" width="117.7246" x="974.76" y="450"/><rect fill="#363A4F" height="1.5" style="stroke:#363A4F;stroke-width:2.0;" width="117.7246" x="974.76" y="478.5"/><rect codeLine="34" fill="none" height="58" id="IOHolder" rx="1.5" ry="1.5" style="stroke:#C6A0F6;stroke-width:2.0;" width="117.7246" x="974.76" y="450"/><ellipse cx="994.0238" cy="465" fill="#ADD1B2" rx="10" ry="10" style="stroke:#181818;stroke-width:1.0;"/><path d="M995.8578,469.248 Q995.4476,469.459 994.9964,469.5645 Q994.5453,469.6699 994.0472,469.6699 Q992.2777,469.6699 991.346,468.5039 Q990.4144,467.3379 990.4144,465.1348 Q990.4144,462.9258 991.346,461.7598 Q992.2777,460.5938 994.0472,460.5938 Q994.5453,460.5938 995.0023,460.6992 Q995.4593,460.8047 995.8578,461.0156 L995.8578,462.9375 Q995.4124,462.5273 994.9935,462.3369 Q994.5746,462.1465 994.1292,462.1465 Q993.18,462.1465 992.6966,462.8994 Q992.2132,463.6523 992.2132,465.1348 Q992.2132,466.6113 992.6966,467.3643 Q993.18,468.1172 994.1292,468.1172 Q994.5746,468.1172 994.9935,467.9268 Q995.4124,467.7363 995.8578,467.3262 Z " fill="#CAD3F5"/><text fill="#A6DA95" font-family="Helvetica" font-size="16" lengthAdjust="spacing" textLength="64.0234" x="1008.1935" y="469.3203">IOHolder</text><rect fill="#24273A" height="14" style="stroke:#C6A0F6;stroke-width:1.0;stroke-dasharray:2.0,2.0;" width="10.0039" x="1085.4807" y="447"/><text fill="#CAD3F5" font-family="Helvetica" font-size="12" font-style="italic" lengthAdjust="spacing" textLength="8.0039" x="1086.4807" y="457.2402">A</text><line style="stroke:#C6A0F6;stroke-width:2.0;" x1="975.76" x2="1091.4846" y1="480" y2="480"/><rect fill="none" height="6" style="stroke:#C82930;stroke-width:1.0;" width="6" x="982.76" y="488.5"/><text fill="#A6DA95" font-family="Helvetica" font-size="12" lengthAdjust="spacing" textLength="92.7246" x="993.76" y="493.2402">IO&lt;A&gt; ioInstance</text><line style="stroke:#C6A0F6;stroke-width:2.0;" x1="975.76" x2="1091.4846" y1="500" y2="500"/></g><!--class IOKind--><g id="elem_IOKind"><rect fill="#24273A" height="46" id="IOKind" rx="1.5" ry="1.5" style="stroke:#C6A0F6;stroke-width:2.0;" width="78.9141" x="915.17" y="302"/><rect fill="#363A4F" height="30" rx="1.5" ry="1.5" style="stroke:#363A4F;stroke-width:2.0;" width="78.9141" x="915.17" y="302"/><rect fill="#363A4F" height="1.5" style="stroke:#363A4F;stroke-width:2.0;" width="78.9141" x="915.17" y="330.5"/><rect fill="none" height="46" id="IOKind" rx="1.5" ry="1.5" style="stroke:#C6A0F6;stroke-width:2.0;" width="78.9141" x="915.17" y="302"/><ellipse cx="929.17" cy="317" fill="#B4A7E5" rx="10" ry="10" style="stroke:#181818;stroke-width:1.0;"/><path d="M926.1778,314.2754 L926.1778,312.752 L931.3868,312.752 L931.3868,314.2754 L929.6466,314.2754 L929.6466,319.9766 L931.3868,319.9766 L931.3868,321.5 L926.1778,321.5 L926.1778,319.9766 L927.918,319.9766 L927.918,314.2754 Z " fill="#CAD3F5"/><text fill="#A6DA95" font-family="Helvetica" font-size="16" font-style="italic" lengthAdjust="spacing" textLength="48.9141" x="942.17" y="321.3203">IOKind</text><line style="stroke:#C6A0F6;stroke-width:2.0;" x1="916.17" x2="993.0841" y1="332" y2="332"/><line style="stroke:#C6A0F6;stroke-width:2.0;" x1="916.17" x2="993.0841" y1="340" y2="340"/></g><!--class Supplier--><g id="elem_Supplier"><rect codeLine="3" fill="#24273A" height="58" id="Supplier" rx="1.5" ry="1.5" style="stroke:#C6A0F6;stroke-width:2.0;" width="100.0332" x="1066.61" y="752"/><rect fill="#363A4F" height="30" rx="1.5" ry="1.5" style="stroke:#363A4F;stroke-width:2.0;" width="100.0332" x="1066.61" y="752"/><rect fill="#363A4F" height="1.5" style="stroke:#363A4F;stroke-width:2.0;" width="100.0332" x="1066.61" y="780.5"/><rect codeLine="3" fill="none" height="58" id="Supplier" rx="1.5" ry="1.5" style="stroke:#C6A0F6;stroke-width:2.0;" width="100.0332" x="1066.61" y="752"/><ellipse cx="1080.61" cy="767" fill="#B4A7E5" rx="10" ry="10" style="stroke:#181818;stroke-width:1.0;"/><path d="M1077.6178,764.2754 L1077.6178,762.752 L1082.8268,762.752 L1082.8268,764.2754 L1081.0866,764.2754 L1081.0866,769.9766 L1082.8268,769.9766 L1082.8268,771.5 L1077.6178,771.5 L1077.6178,769.9766 L1079.358,769.9766 L1079.358,764.2754 Z " fill="#CAD3F5"/><text fill="#A6DA95" font-family="Helvetica" font-size="16" font-style="italic" lengthAdjust="spacing" textLength="58.7031" x="1093.61" y="771.3203">Supplier</text><rect fill="#24273A" height="14" style="stroke:#C6A0F6;stroke-width:1.0;stroke-dasharray:2.0,2.0;" width="9.3301" x="1160.3131" y="749"/><text fill="#CAD3F5" font-family="Helvetica" font-size="12" font-style="italic" lengthAdjust="spacing" textLength="7.3301" x="1161.3131" y="759.2402">T</text><line style="stroke:#C6A0F6;stroke-width:2.0;" x1="1067.61" x2="1165.6432" y1="782" y2="782"/><line style="stroke:#C6A0F6;stroke-width:2.0;" x1="1067.61" x2="1165.6432" y1="790" y2="790"/><ellipse cx="1077.61" cy="801.5" fill="#84BE84" rx="3" ry="3" style="stroke:#038048;stroke-width:1.0;"/><text fill="#A6DA95" font-family="Helvetica" font-size="12" lengthAdjust="spacing" textLength="35.3379" x="1085.61" y="803.2402">T get()</text></g><!--class IO--><g id="elem_IO"><rect codeLine="7" fill="#24273A" height="94" id="IO" rx="1.5" ry="1.5" style="stroke:#C6A0F6;stroke-width:2.0;" width="289.6914" x="971.78" y="584"/><rect fill="#363A4F" height="30" rx="1.5" ry="1.5" style="stroke:#363A4F;stroke-width:2.0;" width="289.6914" x="971.78" y="584"/><rect fill="#363A4F" height="1.5" style="stroke:#363A4F;stroke-width:2.0;" width="289.6914" x="971.78" y="612.5"/><rect codeLine="7" fill="none" height="94" id="IO" rx="1.5" ry="1.5" style="stroke:#C6A0F6;stroke-width:2.0;" width="289.6914" x="971.78" y="584"/><ellipse cx="1098.1784" cy="599" fill="#B4A7E5" rx="10" ry="10" style="stroke:#181818;stroke-width:1.0;"/><path d="M1095.1863,596.2754 L1095.1863,594.752 L1100.3952,594.752 L1100.3952,596.2754 L1098.655,596.2754 L1098.655,601.9766 L1100.3952,601.9766 L1100.3952,603.5 L1095.1863,603.5 L1095.1863,601.9766 L1096.9265,601.9766 L1096.9265,596.2754 Z " fill="#CAD3F5"/><text fill="#A6DA95" font-family="Helvetica" font-size="16" font-style="italic" lengthAdjust="spacing" textLength="16.8906" x="1117.1784" y="603.3203">IO</text><rect fill="#24273A" height="14" style="stroke:#C6A0F6;stroke-width:1.0;stroke-dasharray:2.0,2.0;" width="10.0039" x="1254.4675" y="581"/><text fill="#CAD3F5" font-family="Helvetica" font-size="12" font-style="italic" lengthAdjust="spacing" textLength="8.0039" x="1255.4675" y="591.2402">A</text><line style="stroke:#C6A0F6;stroke-width:2.0;" x1="972.78" x2="1260.4714" y1="614" y2="614"/><line style="stroke:#C6A0F6;stroke-width:2.0;" x1="972.78" x2="1260.4714" y1="622" y2="622"/><ellipse cx="982.78" cy="633.5" fill="#84BE84" rx="3" ry="3" style="stroke:#038048;stroke-width:1.0;"/><text fill="#A6DA95" font-family="Helvetica" font-size="12" font-style="italic" lengthAdjust="spacing" textLength="104.0508" x="990.78" y="635.2402">A unsafeRunSync()</text><ellipse cx="982.78" cy="645.5" fill="#84BE84" rx="3" ry="3" style="stroke:#038048;stroke-width:1.0;"/><text fill="#A6DA95" font-family="Helvetica" font-size="12" lengthAdjust="spacing" text-decoration="underline" textLength="140.748" x="990.78" y="647.2402">IO&lt;A&gt; delay(Supplier&lt;A&gt;)</text><ellipse cx="982.78" cy="657.5" fill="#84BE84" rx="3" ry="3" style="stroke:#038048;stroke-width:1.0;"/><text fill="#A6DA95" font-family="Helvetica" font-size="12" lengthAdjust="spacing" textLength="12.668" x="990.78" y="659.2402">IO</text><text fill="#A6DA95" font-family="Helvetica" font-size="12" font-weight="bold" lengthAdjust="spacing" textLength="227.3613" x="1006.782" y="659.2402">map(Function&lt;? super A, ? extends B&gt;)</text><ellipse cx="982.78" cy="669.5" fill="#84BE84" rx="3" ry="3" style="stroke:#038048;stroke-width:1.0;"/><text fill="#A6DA95" font-family="Helvetica" font-size="12" lengthAdjust="spacing" textLength="12.668" x="990.78" y="671.2402">IO</text><text fill="#A6DA95" font-family="Helvetica" font-size="12" font-weight="bold" lengthAdjust="spacing" textLength="237.6855" x="1006.782" y="671.2402">flatMap(Function&lt;? super A, ? extends IO</text><text fill="#A6DA95" font-family="Helvetica" font-size="12" font-weight="bold" lengthAdjust="spacing" textLength="11.0039" x="1244.4675" y="671.2402">&gt;)</text></g><!--class Kind--><g id="elem_Kind"><rect codeLine="15" fill="#24273A" height="54" id="Kind" rx="1.5" ry="1.5" style="stroke:#C6A0F6;stroke-width:2.0;" width="127.3711" x="1262.94" y="10"/><rect fill="#363A4F" height="38" rx="1.5" ry="1.5" style="stroke:#363A4F;stroke-width:2.0;" width="127.3711" x="1262.94" y="10"/><rect fill="#363A4F" height="1.5" style="stroke:#363A4F;stroke-width:2.0;" width="127.3711" x="1262.94" y="46.5"/><rect codeLine="15" fill="none" height="54" id="Kind" rx="1.5" ry="1.5" style="stroke:#C6A0F6;stroke-width:2.0;" width="127.3711" x="1262.94" y="10"/><ellipse cx="1276.94" cy="29" fill="#B4A7E5" rx="10" ry="10" style="stroke:#181818;stroke-width:1.0;"/><path d="M1273.9478,26.2754 L1273.9478,24.752 L1279.1568,24.752 L1279.1568,26.2754 L1277.4166,26.2754 L1277.4166,31.9766 L1279.1568,31.9766 L1279.1568,33.5 L1273.9478,33.5 L1273.9478,31.9766 L1275.688,31.9766 L1275.688,26.2754 Z " fill="#CAD3F5"/><text fill="#CAD3F5" font-family="Helvetica" font-size="12" font-style="italic" lengthAdjust="spacing" textLength="75.3691" x="1287.94" y="24.2402">&#171;HKT Bridge&#187;</text><text fill="#A6DA95" font-family="Helvetica" font-size="16" font-style="italic" lengthAdjust="spacing" textLength="32.0234" x="1309.6129" y="39.3203">Kind</text><rect fill="#24273A" height="14" style="stroke:#C6A0F6;stroke-width:1.0;stroke-dasharray:2.0,2.0;" width="24.002" x="1369.3091" y="7"/><text fill="#CAD3F5" font-family="Helvetica" font-size="12" font-style="italic" lengthAdjust="spacing" textLength="22.002" x="1370.3091" y="17.2402">F, A</text><line style="stroke:#C6A0F6;stroke-width:2.0;" x1="1263.94" x2="1389.3111" y1="48" y2="48"/><line style="stroke:#C6A0F6;stroke-width:2.0;" x1="1263.94" x2="1389.3111" y1="56" y2="56"/></g><!--class IOKind--><g id="elem_IOKind"><rect codeLine="18" fill="#24273A" height="46" id="IOKind" rx="1.5" ry="1.5" style="stroke:#C6A0F6;stroke-width:2.0;" width="90.918" x="1281.17" y="131"/><rect fill="#363A4F" height="30" rx="1.5" ry="1.5" style="stroke:#363A4F;stroke-width:2.0;" width="90.918" x="1281.17" y="131"/><rect fill="#363A4F" height="1.5" style="stroke:#363A4F;stroke-width:2.0;" width="90.918" x="1281.17" y="159.5"/><rect codeLine="18" fill="none" height="46" id="IOKind" rx="1.5" ry="1.5" style="stroke:#C6A0F6;stroke-width:2.0;" width="90.918" x="1281.17" y="131"/><ellipse cx="1295.17" cy="146" fill="#B4A7E5" rx="10" ry="10" style="stroke:#181818;stroke-width:1.0;"/><path d="M1292.1778,143.2754 L1292.1778,141.752 L1297.3868,141.752 L1297.3868,143.2754 L1295.6466,143.2754 L1295.6466,148.9766 L1297.3868,148.9766 L1297.3868,150.5 L1292.1778,150.5 L1292.1778,148.9766 L1293.918,148.9766 L1293.918,143.2754 Z " fill="#CAD3F5"/><text fill="#A6DA95" font-family="Helvetica" font-size="16" font-style="italic" lengthAdjust="spacing" textLength="48.9141" x="1308.17" y="150.3203">IOKind</text><rect fill="#24273A" height="14" style="stroke:#C6A0F6;stroke-width:1.0;stroke-dasharray:2.0,2.0;" width="10.0039" x="1365.0841" y="128"/><text fill="#CAD3F5" font-family="Helvetica" font-size="12" font-style="italic" lengthAdjust="spacing" textLength="8.0039" x="1366.0841" y="138.2402">A</text><line style="stroke:#C6A0F6;stroke-width:2.0;" x1="1282.17" x2="1371.088" y1="161" y2="161"/><line style="stroke:#C6A0F6;stroke-width:2.0;" x1="1282.17" x2="1371.088" y1="169" y2="169"/></g><!--class Functor--><g id="elem_Functor"><rect codeLine="43" fill="#24273A" height="46" id="Functor" rx="1.5" ry="1.5" style="stroke:#C6A0F6;stroke-width:2.0;" width="95.5723" x="988.84" y="14"/><rect fill="#363A4F" height="30" rx="1.5" ry="1.5" style="stroke:#363A4F;stroke-width:2.0;" width="95.5723" x="988.84" y="14"/><rect fill="#363A4F" height="1.5" style="stroke:#363A4F;stroke-width:2.0;" width="95.5723" x="988.84" y="42.5"/><rect codeLine="43" fill="none" height="46" id="Functor" rx="1.5" ry="1.5" style="stroke:#C6A0F6;stroke-width:2.0;" width="95.5723" x="988.84" y="14"/><ellipse cx="1002.84" cy="29" fill="#B4A7E5" rx="10" ry="10" style="stroke:#181818;stroke-width:1.0;"/><path d="M999.8478,26.2754 L999.8478,24.752 L1005.0568,24.752 L1005.0568,26.2754 L1003.3166,26.2754 L1003.3166,31.9766 L1005.0568,31.9766 L1005.0568,33.5 L999.8478,33.5 L999.8478,31.9766 L1001.588,31.9766 L1001.588,26.2754 Z " fill="#CAD3F5"/><text fill="#A6DA95" font-family="Helvetica" font-size="16" font-style="italic" lengthAdjust="spacing" textLength="54.2422" x="1015.84" y="33.3203">Functor</text><rect fill="#24273A" height="14" style="stroke:#C6A0F6;stroke-width:1.0;stroke-dasharray:2.0,2.0;" width="9.3301" x="1078.0822" y="11"/><text fill="#CAD3F5" font-family="Helvetica" font-size="12" font-style="italic" lengthAdjust="spacing" textLength="7.3301" x="1079.0822" y="21.2402">F</text><line style="stroke:#C6A0F6;stroke-width:2.0;" x1="989.84" x2="1083.4123" y1="44" y2="44"/><line style="stroke:#C6A0F6;stroke-width:2.0;" x1="989.84" x2="1083.4123" y1="52" y2="52"/></g><!--class Applicative<F> extends Functor<F>--><g id="elem_Applicative&lt;F&gt; extends Functor&lt;F&gt;"><rect codeLine="44" fill="#24273A" height="46" id="Applicative&lt;F&gt; extends Functor&lt;F&gt;" rx="1.5" ry="1.5" style="stroke:#C6A0F6;stroke-width:2.0;" width="283.4688" x="1424.89" y="14"/><rect fill="#363A4F" height="30" rx="1.5" ry="1.5" style="stroke:#363A4F;stroke-width:2.0;" width="283.4688" x="1424.89" y="14"/><rect fill="#363A4F" height="1.5" style="stroke:#363A4F;stroke-width:2.0;" width="283.4688" x="1424.89" y="42.5"/><rect codeLine="44" fill="none" height="46" id="Applicative&lt;F&gt; extends Functor&lt;F&gt;" rx="1.5" ry="1.5" style="stroke:#C6A0F6;stroke-width:2.0;" width="283.4688" x="1424.89" y="14"/><ellipse cx="1438.89" cy="29" fill="#B4A7E5" rx="10" ry="10" style="stroke:#181818;stroke-width:1.0;"/><path d="M1435.8978,26.2754 L1435.8978,24.752 L1441.1068,24.752 L1441.1068,26.2754 L1439.3666,26.2754 L1439.3666,31.9766 L1441.1068,31.9766 L1441.1068,33.5 L1435.8978,33.5 L1435.8978,31.9766 L1437.638,31.9766 L1437.638,26.2754 Z " fill="#CAD3F5"/><text fill="#A6DA95" font-family="Helvetica" font-size="16" font-style="italic" lengthAdjust="spacing" textLength="253.4688" x="1451.89" y="33.3203">Applicative&lt;F&gt; extends Functor&lt;F&gt;</text><line style="stroke:#C6A0F6;stroke-width:2.0;" x1="1425.89" x2="1707.3588" y1="44" y2="44"/><line style="stroke:#C6A0F6;stroke-width:2.0;" x1="1425.89" x2="1707.3588" y1="52" y2="52"/></g><!--class Monad<F> extends Applicative<F>--><g id="elem_Monad&lt;F&gt; extends Applicative&lt;F&gt;"><rect codeLine="45" fill="#24273A" height="46" id="Monad&lt;F&gt; extends Applicative&lt;F&gt;" rx="1.5" ry="1.5" style="stroke:#C6A0F6;stroke-width:2.0;" width="278.1484" x="1743.55" y="14"/><rect fill="#363A4F" height="30" rx="1.5" ry="1.5" style="stroke:#363A4F;stroke-width:2.0;" width="278.1484" x="1743.55" y="14"/><rect fill="#363A4F" height="1.5" style="stroke:#363A4F;stroke-width:2.0;" width="278.1484" x="1743.55" y="42.5"/><rect codeLine="45" fill="none" height="46" id="Monad&lt;F&gt; extends Applicative&lt;F&gt;" rx="1.5" ry="1.5" style="stroke:#C6A0F6;stroke-width:2.0;" width="278.1484" x="1743.55" y="14"/><ellipse cx="1757.55" cy="29" fill="#B4A7E5" rx="10" ry="10" style="stroke:#181818;stroke-width:1.0;"/><path d="M1754.5578,26.2754 L1754.5578,24.752 L1759.7668,24.752 L1759.7668,26.2754 L1758.0266,26.2754 L1758.0266,31.9766 L1759.7668,31.9766 L1759.7668,33.5 L1754.5578,33.5 L1754.5578,31.9766 L1756.298,31.9766 L1756.298,26.2754 Z " fill="#CAD3F5"/><text fill="#A6DA95" font-family="Helvetica" font-size="16" font-style="italic" lengthAdjust="spacing" textLength="248.1484" x="1770.55" y="33.3203">Monad&lt;F&gt; extends Applicative&lt;F&gt;</text><line style="stroke:#C6A0F6;stroke-width:2.0;" x1="1744.55" x2="2020.6984" y1="44" y2="44"/><line style="stroke:#C6A0F6;stroke-width:2.0;" x1="1744.55" x2="2020.6984" y1="52" y2="52"/></g><!--class IOFunctor--><g id="elem_IOFunctor"><rect codeLine="47" fill="#24273A" height="58" id="IOFunctor" rx="1.5" ry="1.5" style="stroke:#C6A0F6;stroke-width:2.0;" width="419.8516" x="826.7" y="125"/><rect fill="#363A4F" height="30" rx="1.5" ry="1.5" style="stroke:#363A4F;stroke-width:2.0;" width="419.8516" x="826.7" y="125"/><rect fill="#363A4F" height="1.5" style="stroke:#363A4F;stroke-width:2.0;" width="419.8516" x="826.7" y="153.5"/><rect codeLine="47" fill="none" height="58" id="IOFunctor" rx="1.5" ry="1.5" style="stroke:#C6A0F6;stroke-width:2.0;" width="419.8516" x="826.7" y="125"/><ellipse cx="997.0594" cy="140" fill="#ADD1B2" rx="10" ry="10" style="stroke:#181818;stroke-width:1.0;"/><path d="M998.8934,144.248 Q998.4832,144.459 998.032,144.5645 Q997.5809,144.6699 997.0828,144.6699 Q995.3133,144.6699 994.3816,143.5039 Q993.45,142.3379 993.45,140.1348 Q993.45,137.9258 994.3816,136.7598 Q995.3133,135.5938 997.0828,135.5938 Q997.5809,135.5938 998.0379,135.6992 Q998.4949,135.8047 998.8934,136.0156 L998.8934,137.9375 Q998.448,137.5273 998.0291,137.3369 Q997.6102,137.1465 997.1648,137.1465 Q996.2156,137.1465 995.7322,137.8994 Q995.2488,138.6523 995.2488,140.1348 Q995.2488,141.6113 995.7322,142.3643 Q996.2156,143.1172 997.1648,143.1172 Q997.6102,143.1172 998.0291,142.9268 Q998.448,142.7363 998.8934,142.3262 Z " fill="#CAD3F5"/><text fill="#A6DA95" font-family="Helvetica" font-size="16" lengthAdjust="spacing" textLength="71.1328" x="1016.0594" y="144.3203">IOFunctor</text><line style="stroke:#C6A0F6;stroke-width:2.0;" x1="827.7" x2="1245.5516" y1="155" y2="155"/><line style="stroke:#C6A0F6;stroke-width:2.0;" x1="827.7" x2="1245.5516" y1="163" y2="163"/><ellipse cx="837.7" cy="174.5" fill="#84BE84" rx="3" ry="3" style="stroke:#038048;stroke-width:1.0;"/><text fill="#A6DA95" font-family="Helvetica" font-size="12" lengthAdjust="spacing" textLength="394.8516" x="845.7" y="176.2402">Kind&lt;IOKind.Witness, B&gt; map(Function&lt;A, B&gt;, Kind&lt;IOKind.Witness, A&gt;)</text></g><!--class IOApplicative--><g id="elem_IOApplicative"><rect codeLine="52" fill="#24273A" height="70" id="IOApplicative" rx="1.5" ry="1.5" style="stroke:#C6A0F6;stroke-width:2.0;" width="537.25" x="343" y="290"/><rect fill="#363A4F" height="30" rx="1.5" ry="1.5" style="stroke:#363A4F;stroke-width:2.0;" width="537.25" x="343" y="290"/><rect fill="#363A4F" height="1.5" style="stroke:#363A4F;stroke-width:2.0;" width="537.25" x="343" y="318.5"/><rect codeLine="52" fill="none" height="70" id="IOApplicative" rx="1.5" ry="1.5" style="stroke:#C6A0F6;stroke-width:2.0;" width="537.25" x="343" y="290"/><ellipse cx="560.4922" cy="305" fill="#ADD1B2" rx="10" ry="10" style="stroke:#181818;stroke-width:1.0;"/><path d="M562.3262,309.248 Q561.916,309.459 561.4648,309.5645 Q561.0137,309.6699 560.5156,309.6699 Q558.7461,309.6699 557.8145,308.5039 Q556.8828,307.3379 556.8828,305.1348 Q556.8828,302.9258 557.8145,301.7598 Q558.7461,300.5938 560.5156,300.5938 Q561.0137,300.5938 561.4707,300.6992 Q561.9277,300.8047 562.3262,301.0156 L562.3262,302.9375 Q561.8809,302.5273 561.4619,302.3369 Q561.043,302.1465 560.5977,302.1465 Q559.6484,302.1465 559.165,302.8994 Q558.6816,303.6523 558.6816,305.1348 Q558.6816,306.6113 559.165,307.3643 Q559.6484,308.1172 560.5977,308.1172 Q561.043,308.1172 561.4619,307.9268 Q561.8809,307.7363 562.3262,307.3262 Z " fill="#CAD3F5"/><text fill="#A6DA95" font-family="Helvetica" font-size="16" lengthAdjust="spacing" textLength="94.2656" x="579.4922" y="309.3203">IOApplicative</text><line style="stroke:#C6A0F6;stroke-width:2.0;" x1="344" x2="879.25" y1="320" y2="320"/><line style="stroke:#C6A0F6;stroke-width:2.0;" x1="344" x2="879.25" y1="328" y2="328"/><ellipse cx="354" cy="339.5" fill="#84BE84" rx="3" ry="3" style="stroke:#038048;stroke-width:1.0;"/><text fill="#A6DA95" font-family="Helvetica" font-size="12" lengthAdjust="spacing" textLength="164.7363" x="362" y="341.2402">Kind&lt;IOKind.Witness, A&gt; of(A)</text><ellipse cx="354" cy="351.5" fill="#84BE84" rx="3" ry="3" style="stroke:#038048;stroke-width:1.0;"/><text fill="#A6DA95" font-family="Helvetica" font-size="12" lengthAdjust="spacing" textLength="512.25" x="362" y="353.2402">Kind&lt;IOKind.Witness, B&gt; ap(Kind&lt;IOKind.Witness, Function&lt;A, B&gt;&gt;, Kind&lt;IOKind.Witness, A&gt;)</text></g><!--class Applicative--><g id="elem_Applicative"><rect fill="#24273A" height="46" id="Applicative" rx="1.5" ry="1.5" style="stroke:#C6A0F6;stroke-width:2.0;" width="107.375" x="557.94" y="131"/><rect fill="#363A4F" height="30" rx="1.5" ry="1.5" style="stroke:#363A4F;stroke-width:2.0;" width="107.375" x="557.94" y="131"/><rect fill="#363A4F" height="1.5" style="stroke:#363A4F;stroke-width:2.0;" width="107.375" x="557.94" y="159.5"/><rect fill="none" height="46" id="Applicative" rx="1.5" ry="1.5" style="stroke:#C6A0F6;stroke-width:2.0;" width="107.375" x="557.94" y="131"/><ellipse cx="571.94" cy="146" fill="#B4A7E5" rx="10" ry="10" style="stroke:#181818;stroke-width:1.0;"/><path d="M568.9478,143.2754 L568.9478,141.752 L574.1568,141.752 L574.1568,143.2754 L572.4166,143.2754 L572.4166,148.9766 L574.1568,148.9766 L574.1568,150.5 L568.9478,150.5 L568.9478,148.9766 L570.688,148.9766 L570.688,143.2754 Z " fill="#CAD3F5"/><text fill="#A6DA95" font-family="Helvetica" font-size="16" font-style="italic" lengthAdjust="spacing" textLength="77.375" x="584.94" y="150.3203">Applicative</text><line style="stroke:#C6A0F6;stroke-width:2.0;" x1="558.94" x2="664.315" y1="161" y2="161"/><line style="stroke:#C6A0F6;stroke-width:2.0;" x1="558.94" x2="664.315" y1="169" y2="169"/></g><!--class IOMonad--><g id="elem_IOMonad"><rect codeLine="57" fill="#24273A" height="58" id="IOMonad" rx="1.5" ry="1.5" style="stroke:#C6A0F6;stroke-width:2.0;" width="563.2539" x="7" y="450"/><rect fill="#363A4F" height="30" rx="1.5" ry="1.5" style="stroke:#363A4F;stroke-width:2.0;" width="563.2539" x="7" y="450"/><rect fill="#363A4F" height="1.5" style="stroke:#363A4F;stroke-width:2.0;" width="563.2539" x="7" y="478.5"/><rect codeLine="57" fill="none" height="58" id="IOMonad" rx="1.5" ry="1.5" style="stroke:#C6A0F6;stroke-width:2.0;" width="563.2539" x="7" y="450"/><ellipse cx="251.7207" cy="465" fill="#ADD1B2" rx="10" ry="10" style="stroke:#181818;stroke-width:1.0;"/><path d="M253.5547,469.248 Q253.1445,469.459 252.6934,469.5645 Q252.2422,469.6699 251.7441,469.6699 Q249.9746,469.6699 249.043,468.5039 Q248.1113,467.3379 248.1113,465.1348 Q248.1113,462.9258 249.043,461.7598 Q249.9746,460.5938 251.7441,460.5938 Q252.2422,460.5938 252.6992,460.6992 Q253.1563,460.8047 253.5547,461.0156 L253.5547,462.9375 Q253.1094,462.5273 252.6904,462.3369 Q252.2715,462.1465 251.8262,462.1465 Q250.877,462.1465 250.3936,462.8994 Q249.9102,463.6523 249.9102,465.1348 Q249.9102,466.6113 250.3936,467.3643 Q250.877,468.1172 251.8262,468.1172 Q252.2715,468.1172 252.6904,467.9268 Q253.1094,467.7363 253.5547,467.3262 Z " fill="#CAD3F5"/><text fill="#A6DA95" font-family="Helvetica" font-size="16" lengthAdjust="spacing" textLength="65.8125" x="270.7207" y="469.3203">IOMonad</text><line style="stroke:#C6A0F6;stroke-width:2.0;" x1="8" x2="569.2539" y1="480" y2="480"/><line style="stroke:#C6A0F6;stroke-width:2.0;" x1="8" x2="569.2539" y1="488" y2="488"/><ellipse cx="18" cy="499.5" fill="#84BE84" rx="3" ry="3" style="stroke:#038048;stroke-width:1.0;"/><text fill="#A6DA95" font-family="Helvetica" font-size="12" lengthAdjust="spacing" textLength="538.2539" x="26" y="501.2402">Kind&lt;IOKind.Witness, B&gt; flatMap(Function&lt;A, Kind&lt;IOKind.Witness, B&gt;&gt;, Kind&lt;IOKind.Witness, A&gt;)</text></g><!--class Monad--><g id="elem_Monad"><rect fill="#24273A" height="46" id="Monad" rx="1.5" ry="1.5" style="stroke:#C6A0F6;stroke-width:2.0;" width="78.9219" x="229.17" y="302"/><rect fill="#363A4F" height="30" rx="1.5" ry="1.5" style="stroke:#363A4F;stroke-width:2.0;" width="78.9219" x="229.17" y="302"/><rect fill="#363A4F" height="1.5" style="stroke:#363A4F;stroke-width:2.0;" width="78.9219" x="229.17" y="330.5"/><rect fill="none" height="46" id="Monad" rx="1.5" ry="1.5" style="stroke:#C6A0F6;stroke-width:2.0;" width="78.9219" x="229.17" y="302"/><ellipse cx="243.17" cy="317" fill="#B4A7E5" rx="10" ry="10" style="stroke:#181818;stroke-width:1.0;"/><path d="M240.1778,314.2754 L240.1778,312.752 L245.3868,312.752 L245.3868,314.2754 L243.6466,314.2754 L243.6466,319.9766 L245.3868,319.9766 L245.3868,321.5 L240.1778,321.5 L240.1778,319.9766 L241.918,319.9766 L241.918,314.2754 Z " fill="#CAD3F5"/><text fill="#A6DA95" font-family="Helvetica" font-size="16" font-style="italic" lengthAdjust="spacing" textLength="48.9219" x="256.17" y="321.3203">Monad</text><line style="stroke:#C6A0F6;stroke-width:2.0;" x1="230.17" x2="307.0919" y1="332" y2="332"/><line style="stroke:#C6A0F6;stroke-width:2.0;" x1="230.17" x2="307.0919" y1="340" y2="340"/></g><!--link IO to Supplier--><g id="link_IO_Supplier"><path codeLine="13" d="M1116.63,678.42 C1116.63,702.5 1116.63,725.12 1116.63,745.83 " fill="none" id="IO-to-Supplier" style="stroke:#F5BDE6;stroke-width:1.0;stroke-dasharray:7.0,7.0;"/><polygon fill="#F5BDE6" points="1116.63,751.83,1120.63,742.83,1116.63,746.83,1112.63,742.83,1116.63,751.83" style="stroke:#F5BDE6;stroke-width:1.0;"/><polygon fill="#CAD3F5" points="1120.63,719,1122.9811,711.7639,1118.2789,711.7639,1120.63,719" style="stroke:#CAD3F5;stroke-width:1.0;"/><text fill="#CAD3F5" font-family="Helvetica" font-size="12" lengthAdjust="spacing" textLength="25.3477" x="1129.63" y="718.2402">uses</text></g><!--reverse link Kind to IOKind--><g id="link_Kind_IOKind"><path d="M1326.63,82.38 C1326.63,102.41 1326.63,111.64 1326.63,130.61 " fill="none" id="Kind-backto-IOKind" style="stroke:#F5BDE6;stroke-width:1.0;"/><polygon fill="none" points="1326.63,64.38,1320.63,82.38,1332.63,82.38,1326.63,64.38" style="stroke:#F5BDE6;stroke-width:1.0;"/></g><!--reverse link IOKind to IOHolder--><g id="link_IOKind_IOHolder"><path d="M974.5812,364.4016 C988.5312,391.2416 1003.61,420.24 1018.82,449.51 " fill="none" id="IOKind-backto-IOHolder" style="stroke:#F5BDE6;stroke-width:1.0;stroke-dasharray:7.0,7.0;"/><polygon fill="none" points="966.28,348.43,969.2573,367.1686,979.905,361.6345,966.28,348.43" style="stroke:#F5BDE6;stroke-width:1.0;"/></g><!--link IOKindHelper to IOHolder--><g id="link_IOKindHelper_IOHolder"><path codeLine="37" d="M1110.27,376.41 C1101.1,385.97 1091.86,396.09 1083.63,406 C1072.15,419.81 1063.9548,431.1954 1054.8748,444.8354 " fill="none" id="IOKindHelper-to-IOHolder" style="stroke:#F5BDE6;stroke-width:1.0;stroke-dasharray:7.0,7.0;"/><polygon fill="#F5BDE6" points="1051.55,449.83,1059.8669,444.5547,1054.3207,445.6679,1053.2075,440.1216,1051.55,449.83" style="stroke:#F5BDE6;stroke-width:1.0;"/><polygon fill="#CAD3F5" points="1085.1131,416.1089,1091.4936,411.9642,1087.8388,409.0055,1085.1131,416.1089" style="stroke:#CAD3F5;stroke-width:1.0;"/><text fill="#CAD3F5" font-family="Helvetica" font-size="12" lengthAdjust="spacing" textLength="39.3516" x="1096.63" y="416.2402">creates</text></g><!--link IOKindHelper to IO--><g id="link_IOKindHelper_IO"><path codeLine="38" d="M1155.03,376.2 C1146.3,433.87 1132.9976,521.8075 1124.5276,577.7875 " fill="none" id="IOKindHelper-to-IO" style="stroke:#F5BDE6;stroke-width:1.0;"/><polygon fill="#F5BDE6" points="1123.63,583.72,1128.9314,575.4197,1124.378,578.7763,1121.0214,574.2229,1123.63,583.72" style="stroke:#F5BDE6;stroke-width:1.0;"/><polygon fill="#CAD3F5" points="1146.8416,482.955,1150.2488,476.1521,1145.5995,475.4486,1146.8416,482.955" style="stroke:#CAD3F5;stroke-width:1.0;"/><text fill="#CAD3F5" font-family="Helvetica" font-size="12" lengthAdjust="spacing" textLength="25.3477" x="1156.44" y="482.2402">uses</text></g><!--link IOHolder to IO--><g id="link_IOHolder_IO"><path codeLine="39" d="M1055.0492,518.7101 C1066.7892,539.9301 1074.4152,553.71 1088.0652,578.38 " fill="none" id="IOHolder-IO" style="stroke:#F5BDE6;stroke-width:1.0;"/><polygon fill="none" points="1049.24,508.21,1048.6446,515.3965,1055.0492,518.7101,1055.6447,511.5237,1049.24,508.21" style="stroke:#F5BDE6;stroke-width:1.0;"/><polygon fill="#F5BDE6" points="1090.97,583.63,1090.1127,573.8185,1088.5493,579.255,1083.1128,577.6916,1090.97,583.63" style="stroke:#F5BDE6;stroke-width:1.0;"/><text fill="#CAD3F5" font-family="Helvetica" font-size="12" lengthAdjust="spacing" textLength="28.6875" x="1073.64" y="550.2402">holds</text></g><!--reverse link Functor to IOFunctor--><g id="link_Functor_IOFunctor"><path d="M1036.63,78.45 C1036.63,96.88 1036.63,105.08 1036.63,124.91 " fill="none" id="Functor-backto-IOFunctor" style="stroke:#F5BDE6;stroke-width:1.0;stroke-dasharray:7.0,7.0;"/><polygon fill="none" points="1036.63,60.45,1030.63,78.45,1042.63,78.45,1036.63,60.45" style="stroke:#F5BDE6;stroke-width:1.0;"/></g><!--link IOFunctor to IOKindHelper--><g id="link_IOFunctor_IOKindHelper"><path codeLine="50" d="M1057.72,183.29 C1076.07,207.91 1099.5238,239.3697 1121.5538,268.9197 " fill="none" id="IOFunctor-to-IOKindHelper" style="stroke:#F5BDE6;stroke-width:1.0;stroke-dasharray:7.0,7.0;"/><polygon fill="#F5BDE6" points="1125.14,273.73,1122.9676,264.1237,1122.1515,269.7214,1116.5538,268.9053,1125.14,273.73" style="stroke:#F5BDE6;stroke-width:1.0;"/><text fill="#CAD3F5" font-family="Helvetica" font-size="12" lengthAdjust="spacing" textLength="25.3477" x="1089.34" y="223.2402">uses</text></g><!--reverse link IOFunctor to IOApplicative--><g id="link_IOFunctor_IOApplicative"><path d="M948.2835,190.1301 C874.7135,219.3801 776.86,258.29 698.24,289.56 " fill="none" id="IOFunctor-backto-IOApplicative" style="stroke:#F5BDE6;stroke-width:1.0;"/><polygon fill="none" points="965.01,183.48,946.0668,184.5546,950.5002,195.7056,965.01,183.48" style="stroke:#F5BDE6;stroke-width:1.0;"/></g><!--reverse link Applicative to IOApplicative--><g id="link_Applicative_IOApplicative"><path d="M611.63,195.44 C611.63,224.17 611.63,256.24 611.63,289.75 " fill="none" id="Applicative-backto-IOApplicative" style="stroke:#F5BDE6;stroke-width:1.0;stroke-dasharray:7.0,7.0;"/><polygon fill="none" points="611.63,177.44,605.63,195.44,617.63,195.44,611.63,177.44" style="stroke:#F5BDE6;stroke-width:1.0;"/></g><!--reverse link IOApplicative to IOMonad--><g id="link_IOApplicative_IOMonad"><path d="M522.0433,368.1545 C464.9033,395.0445 402.8,424.27 349.18,449.5 " fill="none" id="IOApplicative-backto-IOMonad" style="stroke:#F5BDE6;stroke-width:1.0;"/><polygon fill="none" points="538.33,360.49,519.4885,362.7256,524.5982,373.5834,538.33,360.49" style="stroke:#F5BDE6;stroke-width:1.0;"/></g><!--reverse link Monad to IOMonad--><g id="link_Monad_IOMonad"><path d="M273.9271,366.2763 C277.4571,393.1163 281.03,420.24 284.88,449.51 " fill="none" id="Monad-backto-IOMonad" style="stroke:#F5BDE6;stroke-width:1.0;stroke-dasharray:7.0,7.0;"/><polygon fill="none" points="271.58,348.43,267.9784,367.0587,279.8759,365.4939,271.58,348.43" style="stroke:#F5BDE6;stroke-width:1.0;"/></g><!--SRC=[bLJ1Rk8m4Btp5RDSbgeakLTfgd10e0fLAcZtx3g6M7Nio7QsYoh-VSSE0GT8gxsHcJSpxxqPyuDBAfg2GMbjRHwIH9EFUCTjsRmrXccgf6NInbHLYQJAM19ncb1YwxgXbCke8fIMd5WLrO98srGYiYMhM58HBXF_CwunEXfnxAItX39ODtKjEDFf9eFF4S0zR637xEHkT0XXovSqxm2VvCrOJQWzG0wDD6JBNXkvtakALHw0r2odXsDLmGJPJqw3ygn5ONAMGKNgoRoHr78bqoSmJSqqv5Du0lONrHO6PZtyLX2x-hR6OpEdOVa2SPoTPC83e9K6ib3SCvT5Efy2SatJnVC6PfeNEvOvmHSkU2ZYka7-kmt7lxcLp1ZVnpdr4rol5T7lE7UhD9Rxw147StY4VgbF_oAYOR3PrmpjVOJSKQW9VISxF0mcdDOqVMNK4haJBKa0AeWnnswB5kJ2WE9XxRS1n_2AsL8XypZs-TwsEdKV6Xtsoxkx1Zb08praGFrLqP1BDo-ZLtbvO5zCH9kSVKktBKa4B9GeK2ywfNGHMDJ6dGfUrGBVXBGcqDxQ5Xs5ShMKo4LIvYT0ts9tMLr3l2og6R7-k2vmKUHmvzk3SvKwvKeC6BViuE3ybIkTphCWECwTN_Zk-H-6cTCjdi7Z4BrIaXGXhby-7eqwPuuDGb-wddtBlKltjzTw-QPp5vh2uEBS4-q6jtu6nhMEdHa6r8EtVeDtgF46zo7ok76rdUHtmmYKDtJuVSbVQpufyji9j8GA0ptj4lzh2rV_bFbq2FiDrty0]--></g></svg>