<svg xmlns="http://www.w3.org/2000/svg" xmlns:xlink="http://www.w3.org/1999/xlink" contentStyleType="text/css" height="817px" preserveAspectRatio="none" style="width:1888px;height:817px;background:#24273A;" version="1.1" viewBox="0 0 1888 817" width="1888px" zoomAndPan="magnify"><defs/><g><rect fill="#24273A" height="817" style="stroke:none;stroke-width:1.0;" width="1888" x="0" y="0"/><!--cluster helper--><g id="cluster_helper"><rect fill="#363A4F" height="281" rx="1.5" ry="1.5" style="stroke:#CAD3F5;stroke-width:1.0;" width="387" x="785.65" y="243"/><text fill="#CAD3F5" font-family="Helvetica" font-size="12" font-weight="bold" lengthAdjust="spacing" textLength="36.0117" x="961.1441" y="254.2402">helper</text></g><!--class IOKindHelper--><g id="elem_IOKindHelper"><rect codeLine="25" fill="#24273A" height="102" id="IOKindHelper" rx="1.5" ry="1.5" style="stroke:#C6A0F6;stroke-width:2.0;" width="241.1406" x="915.08" y="274"/><rect fill="#363A4F" height="30" rx="1.5" ry="1.5" style="stroke:#363A4F;stroke-width:2.0;" width="241.1406" x="915.08" y="274"/><rect fill="#363A4F" height="1.5" style="stroke:#363A4F;stroke-width:2.0;" width="241.1406" x="915.08" y="302.5"/><rect codeLine="25" fill="none" height="102" id="IOKindHelper" rx="1.5" ry="1.5" style="stroke:#C6A0F6;stroke-width:2.0;" width="241.1406" x="915.08" y="274"/><ellipse cx="983.6269" cy="289" fill="#ADD1B2" rx="10" ry="10" style="stroke:#181818;stroke-width:1.0;"/><path d="M985.4609,293.248 Q985.0507,293.459 984.5995,293.5645 Q984.1484,293.6699 983.6503,293.6699 Q981.8808,293.6699 980.9491,292.5039 Q980.0175,291.3379 980.0175,289.1348 Q980.0175,286.9258 980.9491,285.7598 Q981.8808,284.5938 983.6503,284.5938 Q984.1484,284.5938 984.6054,284.6992 Q985.0624,284.8047 985.4609,285.0156 L985.4609,286.9375 Q985.0155,286.5273 984.5966,286.3369 Q984.1777,286.1465 983.7323,286.1465 Q982.7831,286.1465 982.2997,286.8994 Q981.8163,287.6523 981.8163,289.1348 Q981.8163,290.6113 982.2997,291.3643 Q982.7831,292.1172 983.7323,292.1172 Q984.1777,292.1172 984.5966,291.9268 Q985.0155,291.7363 985.4609,291.3262 Z " fill="#CAD3F5"/><text fill="#A6DA95" font-family="Helvetica" font-size="16" lengthAdjust="spacing" textLength="96.0469" x="1002.6269" y="293.3203">IOKindHelper</text><line style="stroke:#C6A0F6;stroke-width:2.0;" x1="916.08" x2="1155.2206" y1="304" y2="304"/><ellipse cx="926.08" cy="331.5" fill="#84BE84" rx="3" ry="3" style="stroke:#038048;stroke-width:1.0;"/><text fill="#A6DA95" font-family="Helvetica" font-size="12" lengthAdjust="spacing" text-decoration="underline" textLength="130.7285" x="934.08" y="333.2402">IOKind&lt;A&gt; wrap(IO&lt;A&gt;)</text><ellipse cx="926.08" cy="343.5" fill="#84BE84" rx="3" ry="3" style="stroke:#038048;stroke-width:1.0;"/><text fill="#A6DA95" font-family="Helvetica" font-size="12" lengthAdjust="spacing" text-decoration="underline" textLength="195.4512" x="934.08" y="345.2402">IO&lt;A&gt; unwrap(Kind&lt;IOKind&lt;?&gt;, A&gt;)</text><ellipse cx="926.08" cy="355.5" fill="#84BE84" rx="3" ry="3" style="stroke:#038048;stroke-width:1.0;"/><text fill="#A6DA95" font-family="Helvetica" font-size="12" lengthAdjust="spacing" text-decoration="underline" textLength="216.1406" x="934.08" y="357.2402">Kind&lt;IOKind&lt;?&gt;, A&gt; delay(Supplier&lt;A&gt;)</text><ellipse cx="926.08" cy="367.5" fill="#84BE84" rx="3" ry="3" style="stroke:#038048;stroke-width:1.0;"/><text fill="#A6DA95" font-family="Helvetica" font-size="12" lengthAdjust="spacing" text-decoration="underline" textLength="214.1309" x="934.08" y="369.2402">A unsafeRunSync(Kind&lt;IOKind&lt;?&gt;, A&gt;)</text><line style="stroke:#C6A0F6;stroke-width:1.0;stroke-dasharray:1.0,2.0;" x1="916.08" x2="976.623" y1="318" y2="318"/><text fill="#A6DA95" font-family="Helvetica" font-size="12" lengthAdjust="spacing" textLength="118.0547" x="976.623" y="320.7402">Static Helper Methods</text><line style="stroke:#C6A0F6;stroke-width:1.0;stroke-dasharray:1.0,2.0;" x1="1094.6777" x2="1155.2206" y1="318" y2="318"/></g><!--class IOHolder--><g id="elem_IOHolder"><rect codeLine="34" fill="#24273A" height="58" id="IOHolder" rx="1.5" ry="1.5" style="stroke:#C6A0F6;stroke-width:2.0;" width="117.7246" x="847.79" y="450"/><rect fill="#363A4F" height="30" rx="1.5" ry="1.5" style="stroke:#363A4F;stroke-width:2.0;" width="117.7246" x="847.79" y="450"/><rect fill="#363A4F" height="1.5" style="stroke:#363A4F;stroke-width:2.0;" width="117.7246" x="847.79" y="478.5"/><rect codeLine="34" fill="none" height="58" id="IOHolder" rx="1.5" ry="1.5" style="stroke:#C6A0F6;stroke-width:2.0;" width="117.7246" x="847.79" y="450"/><ellipse cx="867.0538" cy="465" fill="#ADD1B2" rx="10" ry="10" style="stroke:#181818;stroke-width:1.0;"/><path d="M868.8878,469.248 Q868.4776,469.459 868.0264,469.5645 Q867.5753,469.6699 867.0772,469.6699 Q865.3077,469.6699 864.376,468.5039 Q863.4444,467.3379 863.4444,465.1348 Q863.4444,462.9258 864.376,461.7598 Q865.3077,460.5938 867.0772,460.5938 Q867.5753,460.5938 868.0323,460.6992 Q868.4893,460.8047 868.8878,461.0156 L868.8878,462.9375 Q868.4424,462.5273 868.0235,462.3369 Q867.6046,462.1465 867.1592,462.1465 Q866.21,462.1465 865.7266,462.8994 Q865.2432,463.6523 865.2432,465.1348 Q865.2432,466.6113 865.7266,467.3643 Q866.21,468.1172 867.1592,468.1172 Q867.6046,468.1172 868.0235,467.9268 Q868.4424,467.7363 868.8878,467.3262 Z " fill="#CAD3F5"/><text fill="#A6DA95" font-family="Helvetica" font-size="16" lengthAdjust="spacing" textLength="64.0234" x="881.2235" y="469.3203">IOHolder</text><rect fill="#24273A" height="14" style="stroke:#C6A0F6;stroke-width:1.0;stroke-dasharray:2.0,2.0;" width="10.0039" x="958.5107" y="447"/><text fill="#CAD3F5" font-family="Helvetica" font-size="12" font-style="italic" lengthAdjust="spacing" textLength="8.0039" x="959.5107" y="457.2402">A</text><line style="stroke:#C6A0F6;stroke-width:2.0;" x1="848.79" x2="964.5146" y1="480" y2="480"/><rect fill="none" height="6" style="stroke:#C82930;stroke-width:1.0;" width="6" x="855.79" y="488.5"/><text fill="#A6DA95" font-family="Helvetica" font-size="12" lengthAdjust="spacing" textLength="92.7246" x="866.79" y="493.2402">IO&lt;A&gt; ioInstance</text><line style="stroke:#C6A0F6;stroke-width:2.0;" x1="848.79" x2="964.5146" y1="500" y2="500"/></g><!--class IOKind--><g id="elem_IOKind"><rect fill="#24273A" height="46" id="IOKind" rx="1.5" ry="1.5" style="stroke:#C6A0F6;stroke-width:2.0;" width="78.9141" x="801.19" y="302"/><rect fill="#363A4F" height="30" rx="1.5" ry="1.5" style="stroke:#363A4F;stroke-width:2.0;" width="78.9141" x="801.19" y="302"/><rect fill="#363A4F" height="1.5" style="stroke:#363A4F;stroke-width:2.0;" width="78.9141" x="801.19" y="330.5"/><rect fill="none" height="46" id="IOKind" rx="1.5" ry="1.5" style="stroke:#C6A0F6;stroke-width:2.0;" width="78.9141" x="801.19" y="302"/><ellipse cx="815.19" cy="317" fill="#B4A7E5" rx="10" ry="10" style="stroke:#181818;stroke-width:1.0;"/><path d="M812.1978,314.2754 L812.1978,312.752 L817.4068,312.752 L817.4068,314.2754 L815.6666,314.2754 L815.6666,319.9766 L817.4068,319.9766 L817.4068,321.5 L812.1978,321.5 L812.1978,319.9766 L813.938,319.9766 L813.938,314.2754 Z " fill="#CAD3F5"/><text fill="#A6DA95" font-family="Helvetica" font-size="16" font-style="italic" lengthAdjust="spacing" textLength="48.9141" x="828.19" y="321.3203">IOKind</text><line style="stroke:#C6A0F6;stroke-width:2.0;" x1="802.19" x2="879.1041" y1="332" y2="332"/><line style="stroke:#C6A0F6;stroke-width:2.0;" x1="802.19" x2="879.1041" y1="340" y2="340"/></g><!--class Supplier--><g id="elem_Supplier"><rect codeLine="3" fill="#24273A" height="58" id="Supplier" rx="1.5" ry="1.5" style="stroke:#C6A0F6;stroke-width:2.0;" width="100.0332" x="939.63" y="752"/><rect fill="#363A4F" height="30" rx="1.5" ry="1.5" style="stroke:#363A4F;stroke-width:2.0;" width="100.0332" x="939.63" y="752"/><rect fill="#363A4F" height="1.5" style="stroke:#363A4F;stroke-width:2.0;" width="100.0332" x="939.63" y="780.5"/><rect codeLine="3" fill="none" height="58" id="Supplier" rx="1.5" ry="1.5" style="stroke:#C6A0F6;stroke-width:2.0;" width="100.0332" x="939.63" y="752"/><ellipse cx="953.63" cy="767" fill="#B4A7E5" rx="10" ry="10" style="stroke:#181818;stroke-width:1.0;"/><path d="M950.6378,764.2754 L950.6378,762.752 L955.8468,762.752 L955.8468,764.2754 L954.1066,764.2754 L954.1066,769.9766 L955.8468,769.9766 L955.8468,771.5 L950.6378,771.5 L950.6378,769.9766 L952.378,769.9766 L952.378,764.2754 Z " fill="#CAD3F5"/><text fill="#A6DA95" font-family="Helvetica" font-size="16" font-style="italic" lengthAdjust="spacing" textLength="58.7031" x="966.63" y="771.3203">Supplier</text><rect fill="#24273A" height="14" style="stroke:#C6A0F6;stroke-width:1.0;stroke-dasharray:2.0,2.0;" width="9.3301" x="1033.3331" y="749"/><text fill="#CAD3F5" font-family="Helvetica" font-size="12" font-style="italic" lengthAdjust="spacing" textLength="7.3301" x="1034.3331" y="759.2402">T</text><line style="stroke:#C6A0F6;stroke-width:2.0;" x1="940.63" x2="1038.6632" y1="782" y2="782"/><line style="stroke:#C6A0F6;stroke-width:2.0;" x1="940.63" x2="1038.6632" y1="790" y2="790"/><ellipse cx="950.63" cy="801.5" fill="#84BE84" rx="3" ry="3" style="stroke:#038048;stroke-width:1.0;"/><text fill="#A6DA95" font-family="Helvetica" font-size="12" lengthAdjust="spacing" textLength="35.3379" x="958.63" y="803.2402">T get()</text></g><!--class IO--><g id="elem_IO"><rect codeLine="7" fill="#24273A" height="94" id="IO" rx="1.5" ry="1.5" style="stroke:#C6A0F6;stroke-width:2.0;" width="289.6914" x="844.8" y="584"/><rect fill="#363A4F" height="30" rx="1.5" ry="1.5" style="stroke:#363A4F;stroke-width:2.0;" width="289.6914" x="844.8" y="584"/><rect fill="#363A4F" height="1.5" style="stroke:#363A4F;stroke-width:2.0;" width="289.6914" x="844.8" y="612.5"/><rect codeLine="7" fill="none" height="94" id="IO" rx="1.5" ry="1.5" style="stroke:#C6A0F6;stroke-width:2.0;" width="289.6914" x="844.8" y="584"/><ellipse cx="971.1984" cy="599" fill="#B4A7E5" rx="10" ry="10" style="stroke:#181818;stroke-width:1.0;"/><path d="M968.2063,596.2754 L968.2063,594.752 L973.4152,594.752 L973.4152,596.2754 L971.675,596.2754 L971.675,601.9766 L973.4152,601.9766 L973.4152,603.5 L968.2063,603.5 L968.2063,601.9766 L969.9465,601.9766 L969.9465,596.2754 Z " fill="#CAD3F5"/><text fill="#A6DA95" font-family="Helvetica" font-size="16" font-style="italic" lengthAdjust="spacing" textLength="16.8906" x="990.1984" y="603.3203">IO</text><rect fill="#24273A" height="14" style="stroke:#C6A0F6;stroke-width:1.0;stroke-dasharray:2.0,2.0;" width="10.0039" x="1127.4875" y="581"/><text fill="#CAD3F5" font-family="Helvetica" font-size="12" font-style="italic" lengthAdjust="spacing" textLength="8.0039" x="1128.4875" y="591.2402">A</text><line style="stroke:#C6A0F6;stroke-width:2.0;" x1="845.8" x2="1133.4914" y1="614" y2="614"/><line style="stroke:#C6A0F6;stroke-width:2.0;" x1="845.8" x2="1133.4914" y1="622" y2="622"/><ellipse cx="855.8" cy="633.5" fill="#84BE84" rx="3" ry="3" style="stroke:#038048;stroke-width:1.0;"/><text fill="#A6DA95" font-family="Helvetica" font-size="12" font-style="italic" lengthAdjust="spacing" textLength="104.0508" x="863.8" y="635.2402">A unsafeRunSync()</text><ellipse cx="855.8" cy="645.5" fill="#84BE84" rx="3" ry="3" style="stroke:#038048;stroke-width:1.0;"/><text fill="#A6DA95" font-family="Helvetica" font-size="12" lengthAdjust="spacing" text-decoration="underline" textLength="140.748" x="863.8" y="647.2402">IO&lt;A&gt; delay(Supplier&lt;A&gt;)</text><ellipse cx="855.8" cy="657.5" fill="#84BE84" rx="3" ry="3" style="stroke:#038048;stroke-width:1.0;"/><text fill="#A6DA95" font-family="Helvetica" font-size="12" lengthAdjust="spacing" textLength="12.668" x="863.8" y="659.2402">IO</text><text fill="#A6DA95" font-family="Helvetica" font-size="12" font-weight="bold" lengthAdjust="spacing" textLength="227.3613" x="879.802" y="659.2402">map(Function&lt;? super A, ? extends B&gt;)</text><ellipse cx="855.8" cy="669.5" fill="#84BE84" rx="3" ry="3" style="stroke:#038048;stroke-width:1.0;"/><text fill="#A6DA95" font-family="Helvetica" font-size="12" lengthAdjust="spacing" textLength="12.668" x="863.8" y="671.2402">IO</text><text fill="#A6DA95" font-family="Helvetica" font-size="12" font-weight="bold" lengthAdjust="spacing" textLength="237.6855" x="879.802" y="671.2402">flatMap(Function&lt;? super A, ? extends IO</text><text fill="#A6DA95" font-family="Helvetica" font-size="12" font-weight="bold" lengthAdjust="spacing" textLength="11.0039" x="1117.4875" y="671.2402">&gt;)</text></g><!--class Kind--><g id="elem_Kind"><rect codeLine="15" fill="#24273A" height="54" id="Kind" rx="1.5" ry="1.5" style="stroke:#C6A0F6;stroke-width:2.0;" width="127.3711" x="1122.96" y="10"/><rect fill="#363A4F" height="38" rx="1.5" ry="1.5" style="stroke:#363A4F;stroke-width:2.0;" width="127.3711" x="1122.96" y="10"/><rect fill="#363A4F" height="1.5" style="stroke:#363A4F;stroke-width:2.0;" width="127.3711" x="1122.96" y="46.5"/><rect codeLine="15" fill="none" height="54" id="Kind" rx="1.5" ry="1.5" style="stroke:#C6A0F6;stroke-width:2.0;" width="127.3711" x="1122.96" y="10"/><ellipse cx="1136.96" cy="29" fill="#B4A7E5" rx="10" ry="10" style="stroke:#181818;stroke-width:1.0;"/><path d="M1133.9678,26.2754 L1133.9678,24.752 L1139.1768,24.752 L1139.1768,26.2754 L1137.4366,26.2754 L1137.4366,31.9766 L1139.1768,31.9766 L1139.1768,33.5 L1133.9678,33.5 L1133.9678,31.9766 L1135.708,31.9766 L1135.708,26.2754 Z " fill="#CAD3F5"/><text fill="#CAD3F5" font-family="Helvetica" font-size="12" font-style="italic" lengthAdjust="spacing" textLength="75.3691" x="1147.96" y="24.2402">&#171;HKT Bridge&#187;</text><text fill="#A6DA95" font-family="Helvetica" font-size="16" font-style="italic" lengthAdjust="spacing" textLength="32.0234" x="1169.6329" y="39.3203">Kind</text><rect fill="#24273A" height="14" style="stroke:#C6A0F6;stroke-width:1.0;stroke-dasharray:2.0,2.0;" width="24.002" x="1229.3291" y="7"/><text fill="#CAD3F5" font-family="Helvetica" font-size="12" font-style="italic" lengthAdjust="spacing" textLength="22.002" x="1230.3291" y="17.2402">F, A</text><line style="stroke:#C6A0F6;stroke-width:2.0;" x1="1123.96" x2="1249.3311" y1="48" y2="48"/><line style="stroke:#C6A0F6;stroke-width:2.0;" x1="1123.96" x2="1249.3311" y1="56" y2="56"/></g><!--class IOKind--><g id="elem_IOKind"><rect codeLine="18" fill="#24273A" height="46" id="IOKind" rx="1.5" ry="1.5" style="stroke:#C6A0F6;stroke-width:2.0;" width="90.918" x="1141.19" y="131"/><rect fill="#363A4F" height="30" rx="1.5" ry="1.5" style="stroke:#363A4F;stroke-width:2.0;" width="90.918" x="1141.19" y="131"/><rect fill="#363A4F" height="1.5" style="stroke:#363A4F;stroke-width:2.0;" width="90.918" x="1141.19" y="159.5"/><rect codeLine="18" fill="none" height="46" id="IOKind" rx="1.5" ry="1.5" style="stroke:#C6A0F6;stroke-width:2.0;" width="90.918" x="1141.19" y="131"/><ellipse cx="1155.19" cy="146" fill="#B4A7E5" rx="10" ry="10" style="stroke:#181818;stroke-width:1.0;"/><path d="M1152.1978,143.2754 L1152.1978,141.752 L1157.4068,141.752 L1157.4068,143.2754 L1155.6666,143.2754 L1155.6666,148.9766 L1157.4068,148.9766 L1157.4068,150.5 L1152.1978,150.5 L1152.1978,148.9766 L1153.938,148.9766 L1153.938,143.2754 Z " fill="#CAD3F5"/><text fill="#A6DA95" font-family="Helvetica" font-size="16" font-style="italic" lengthAdjust="spacing" textLength="48.9141" x="1168.19" y="150.3203">IOKind</text><rect fill="#24273A" height="14" style="stroke:#C6A0F6;stroke-width:1.0;stroke-dasharray:2.0,2.0;" width="10.0039" x="1225.1041" y="128"/><text fill="#CAD3F5" font-family="Helvetica" font-size="12" font-style="italic" lengthAdjust="spacing" textLength="8.0039" x="1226.1041" y="138.2402">A</text><line style="stroke:#C6A0F6;stroke-width:2.0;" x1="1142.19" x2="1231.108" y1="161" y2="161"/><line style="stroke:#C6A0F6;stroke-width:2.0;" x1="1142.19" x2="1231.108" y1="169" y2="169"/></g><!--class Functor--><g id="elem_Functor"><rect codeLine="43" fill="#24273A" height="46" id="Functor" rx="1.5" ry="1.5" style="stroke:#C6A0F6;stroke-width:2.0;" width="95.5723" x="873.86" y="14"/><rect fill="#363A4F" height="30" rx="1.5" ry="1.5" style="stroke:#363A4F;stroke-width:2.0;" width="95.5723" x="873.86" y="14"/><rect fill="#363A4F" height="1.5" style="stroke:#363A4F;stroke-width:2.0;" width="95.5723" x="873.86" y="42.5"/><rect codeLine="43" fill="none" height="46" id="Functor" rx="1.5" ry="1.5" style="stroke:#C6A0F6;stroke-width:2.0;" width="95.5723" x="873.86" y="14"/><ellipse cx="887.86" cy="29" fill="#B4A7E5" rx="10" ry="10" style="stroke:#181818;stroke-width:1.0;"/><path d="M884.8678,26.2754 L884.8678,24.752 L890.0768,24.752 L890.0768,26.2754 L888.3366,26.2754 L888.3366,31.9766 L890.0768,31.9766 L890.0768,33.5 L884.8678,33.5 L884.8678,31.9766 L886.608,31.9766 L886.608,26.2754 Z " fill="#CAD3F5"/><text fill="#A6DA95" font-family="Helvetica" font-size="16" font-style="italic" lengthAdjust="spacing" textLength="54.2422" x="900.86" y="33.3203">Functor</text><rect fill="#24273A" height="14" style="stroke:#C6A0F6;stroke-width:1.0;stroke-dasharray:2.0,2.0;" width="9.3301" x="963.1022" y="11"/><text fill="#CAD3F5" font-family="Helvetica" font-size="12" font-style="italic" lengthAdjust="spacing" textLength="7.3301" x="964.1022" y="21.2402">F</text><line style="stroke:#C6A0F6;stroke-width:2.0;" x1="874.86" x2="968.4323" y1="44" y2="44"/><line style="stroke:#C6A0F6;stroke-width:2.0;" x1="874.86" x2="968.4323" y1="52" y2="52"/></g><!--class Applicative<F> extends Functor<F>--><g id="elem_Applicative&lt;F&gt; extends Functor&lt;F&gt;"><rect codeLine="44" fill="#24273A" height="46" id="Applicative&lt;F&gt; extends Functor&lt;F&gt;" rx="1.5" ry="1.5" style="stroke:#C6A0F6;stroke-width:2.0;" width="283.4688" x="1284.92" y="14"/><rect fill="#363A4F" height="30" rx="1.5" ry="1.5" style="stroke:#363A4F;stroke-width:2.0;" width="283.4688" x="1284.92" y="14"/><rect fill="#363A4F" height="1.5" style="stroke:#363A4F;stroke-width:2.0;" width="283.4688" x="1284.92" y="42.5"/><rect codeLine="44" fill="none" height="46" id="Applicative&lt;F&gt; extends Functor&lt;F&gt;" rx="1.5" ry="1.5" style="stroke:#C6A0F6;stroke-width:2.0;" width="283.4688" x="1284.92" y="14"/><ellipse cx="1298.92" cy="29" fill="#B4A7E5" rx="10" ry="10" style="stroke:#181818;stroke-width:1.0;"/><path d="M1295.9278,26.2754 L1295.9278,24.752 L1301.1368,24.752 L1301.1368,26.2754 L1299.3966,26.2754 L1299.3966,31.9766 L1301.1368,31.9766 L1301.1368,33.5 L1295.9278,33.5 L1295.9278,31.9766 L1297.668,31.9766 L1297.668,26.2754 Z " fill="#CAD3F5"/><text fill="#A6DA95" font-family="Helvetica" font-size="16" font-style="italic" lengthAdjust="spacing" textLength="253.4688" x="1311.92" y="33.3203">Applicative&lt;F&gt; extends Functor&lt;F&gt;</text><line style="stroke:#C6A0F6;stroke-width:2.0;" x1="1285.92" x2="1567.3888" y1="44" y2="44"/><line style="stroke:#C6A0F6;stroke-width:2.0;" x1="1285.92" x2="1567.3888" y1="52" y2="52"/></g><!--class Monad<F> extends Applicative<F>--><g id="elem_Monad&lt;F&gt; extends Applicative&lt;F&gt;"><rect codeLine="45" fill="#24273A" height="46" id="Monad&lt;F&gt; extends Applicative&lt;F&gt;" rx="1.5" ry="1.5" style="stroke:#C6A0F6;stroke-width:2.0;" width="278.1484" x="1603.58" y="14"/><rect fill="#363A4F" height="30" rx="1.5" ry="1.5" style="stroke:#363A4F;stroke-width:2.0;" width="278.1484" x="1603.58" y="14"/><rect fill="#363A4F" height="1.5" style="stroke:#363A4F;stroke-width:2.0;" width="278.1484" x="1603.58" y="42.5"/><rect codeLine="45" fill="none" height="46" id="Monad&lt;F&gt; extends Applicative&lt;F&gt;" rx="1.5" ry="1.5" style="stroke:#C6A0F6;stroke-width:2.0;" width="278.1484" x="1603.58" y="14"/><ellipse cx="1617.58" cy="29" fill="#B4A7E5" rx="10" ry="10" style="stroke:#181818;stroke-width:1.0;"/><path d="M1614.5878,26.2754 L1614.5878,24.752 L1619.7968,24.752 L1619.7968,26.2754 L1618.0566,26.2754 L1618.0566,31.9766 L1619.7968,31.9766 L1619.7968,33.5 L1614.5878,33.5 L1614.5878,31.9766 L1616.328,31.9766 L1616.328,26.2754 Z " fill="#CAD3F5"/><text fill="#A6DA95" font-family="Helvetica" font-size="16" font-style="italic" lengthAdjust="spacing" textLength="248.1484" x="1630.58" y="33.3203">Monad&lt;F&gt; extends Applicative&lt;F&gt;</text><line style="stroke:#C6A0F6;stroke-width:2.0;" x1="1604.58" x2="1880.7284" y1="44" y2="44"/><line style="stroke:#C6A0F6;stroke-width:2.0;" x1="1604.58" x2="1880.7284" y1="52" y2="52"/></g><!--class IOFunctor--><g id="elem_IOFunctor"><rect codeLine="47" fill="#24273A" height="58" id="IOFunctor" rx="1.5" ry="1.5" style="stroke:#C6A0F6;stroke-width:2.0;" width="369.2148" x="737.04" y="125"/><rect fill="#363A4F" height="30" rx="1.5" ry="1.5" style="stroke:#363A4F;stroke-width:2.0;" width="369.2148" x="737.04" y="125"/><rect fill="#363A4F" height="1.5" style="stroke:#363A4F;stroke-width:2.0;" width="369.2148" x="737.04" y="153.5"/><rect codeLine="47" fill="none" height="58" id="IOFunctor" rx="1.5" ry="1.5" style="stroke:#C6A0F6;stroke-width:2.0;" width="369.2148" x="737.04" y="125"/><ellipse cx="882.081" cy="140" fill="#ADD1B2" rx="10" ry="10" style="stroke:#181818;stroke-width:1.0;"/><path d="M883.915,144.248 Q883.5048,144.459 883.0537,144.5645 Q882.6025,144.6699 882.1045,144.6699 Q880.3349,144.6699 879.4033,143.5039 Q878.4716,142.3379 878.4716,140.1348 Q878.4716,137.9258 879.4033,136.7598 Q880.3349,135.5938 882.1045,135.5938 Q882.6025,135.5938 883.0595,135.6992 Q883.5166,135.8047 883.915,136.0156 L883.915,137.9375 Q883.4697,137.5273 883.0507,137.3369 Q882.6318,137.1465 882.1865,137.1465 Q881.2373,137.1465 880.7539,137.8994 Q880.2705,138.6523 880.2705,140.1348 Q880.2705,141.6113 880.7539,142.3643 Q881.2373,143.1172 882.1865,143.1172 Q882.6318,143.1172 883.0507,142.9268 Q883.4697,142.7363 883.915,142.3262 Z " fill="#CAD3F5"/><text fill="#A6DA95" font-family="Helvetica" font-size="16" lengthAdjust="spacing" textLength="71.1328" x="901.081" y="144.3203">IOFunctor</text><line style="stroke:#C6A0F6;stroke-width:2.0;" x1="738.04" x2="1105.2548" y1="155" y2="155"/><line style="stroke:#C6A0F6;stroke-width:2.0;" x1="738.04" x2="1105.2548" y1="163" y2="163"/><ellipse cx="748.04" cy="174.5" fill="#84BE84" rx="3" ry="3" style="stroke:#038048;stroke-width:1.0;"/><text fill="#A6DA95" font-family="Helvetica" font-size="12" lengthAdjust="spacing" textLength="344.2148" x="756.04" y="176.2402">Kind&lt;IOKind&lt;?&gt;, B&gt; map(Function&lt;A, B&gt;, Kind&lt;IOKind&lt;?&gt;, A&gt;)</text></g><!--class IOApplicative--><g id="elem_IOApplicative"><rect codeLine="52" fill="#24273A" height="70" id="IOApplicative" rx="1.5" ry="1.5" style="stroke:#C6A0F6;stroke-width:2.0;" width="461.2949" x="305" y="290"/><rect fill="#363A4F" height="30" rx="1.5" ry="1.5" style="stroke:#363A4F;stroke-width:2.0;" width="461.2949" x="305" y="290"/><rect fill="#363A4F" height="1.5" style="stroke:#363A4F;stroke-width:2.0;" width="461.2949" x="305" y="318.5"/><rect codeLine="52" fill="none" height="70" id="IOApplicative" rx="1.5" ry="1.5" style="stroke:#C6A0F6;stroke-width:2.0;" width="461.2949" x="305" y="290"/><ellipse cx="484.5146" cy="305" fill="#ADD1B2" rx="10" ry="10" style="stroke:#181818;stroke-width:1.0;"/><path d="M486.3486,309.248 Q485.9385,309.459 485.4873,309.5645 Q485.0361,309.6699 484.5381,309.6699 Q482.7686,309.6699 481.8369,308.5039 Q480.9053,307.3379 480.9053,305.1348 Q480.9053,302.9258 481.8369,301.7598 Q482.7686,300.5938 484.5381,300.5938 Q485.0361,300.5938 485.4932,300.6992 Q485.9502,300.8047 486.3486,301.0156 L486.3486,302.9375 Q485.9033,302.5273 485.4844,302.3369 Q485.0654,302.1465 484.6201,302.1465 Q483.6709,302.1465 483.1875,302.8994 Q482.7041,303.6523 482.7041,305.1348 Q482.7041,306.6113 483.1875,307.3643 Q483.6709,308.1172 484.6201,308.1172 Q485.0654,308.1172 485.4844,307.9268 Q485.9033,307.7363 486.3486,307.3262 Z " fill="#CAD3F5"/><text fill="#A6DA95" font-family="Helvetica" font-size="16" lengthAdjust="spacing" textLength="94.2656" x="503.5146" y="309.3203">IOApplicative</text><line style="stroke:#C6A0F6;stroke-width:2.0;" x1="306" x2="765.2949" y1="320" y2="320"/><line style="stroke:#C6A0F6;stroke-width:2.0;" x1="306" x2="765.2949" y1="328" y2="328"/><ellipse cx="316" cy="339.5" fill="#84BE84" rx="3" ry="3" style="stroke:#038048;stroke-width:1.0;"/><text fill="#A6DA95" font-family="Helvetica" font-size="12" lengthAdjust="spacing" textLength="139.418" x="324" y="341.2402">Kind&lt;IOKind&lt;?&gt;, A&gt; of(A)</text><ellipse cx="316" cy="351.5" fill="#84BE84" rx="3" ry="3" style="stroke:#038048;stroke-width:1.0;"/><text fill="#A6DA95" font-family="Helvetica" font-size="12" lengthAdjust="spacing" textLength="436.2949" x="324" y="353.2402">Kind&lt;IOKind&lt;?&gt;, B&gt; ap(Kind&lt;IOKind&lt;?&gt;, Function&lt;A, B&gt;&gt;, Kind&lt;IOKind&lt;?&gt;, A&gt;)</text></g><!--class Applicative--><g id="elem_Applicative"><rect fill="#24273A" height="46" id="Applicative" rx="1.5" ry="1.5" style="stroke:#C6A0F6;stroke-width:2.0;" width="107.375" x="481.96" y="131"/><rect fill="#363A4F" height="30" rx="1.5" ry="1.5" style="stroke:#363A4F;stroke-width:2.0;" width="107.375" x="481.96" y="131"/><rect fill="#363A4F" height="1.5" style="stroke:#363A4F;stroke-width:2.0;" width="107.375" x="481.96" y="159.5"/><rect fill="none" height="46" id="Applicative" rx="1.5" ry="1.5" style="stroke:#C6A0F6;stroke-width:2.0;" width="107.375" x="481.96" y="131"/><ellipse cx="495.96" cy="146" fill="#B4A7E5" rx="10" ry="10" style="stroke:#181818;stroke-width:1.0;"/><path d="M492.9678,143.2754 L492.9678,141.752 L498.1768,141.752 L498.1768,143.2754 L496.4366,143.2754 L496.4366,148.9766 L498.1768,148.9766 L498.1768,150.5 L492.9678,150.5 L492.9678,148.9766 L494.708,148.9766 L494.708,143.2754 Z " fill="#CAD3F5"/><text fill="#A6DA95" font-family="Helvetica" font-size="16" font-style="italic" lengthAdjust="spacing" textLength="77.375" x="508.96" y="150.3203">Applicative</text><line style="stroke:#C6A0F6;stroke-width:2.0;" x1="482.96" x2="588.335" y1="161" y2="161"/><line style="stroke:#C6A0F6;stroke-width:2.0;" x1="482.96" x2="588.335" y1="169" y2="169"/></g><!--class IOMonad--><g id="elem_IOMonad"><rect codeLine="57" fill="#24273A" height="58" id="IOMonad" rx="1.5" ry="1.5" style="stroke:#C6A0F6;stroke-width:2.0;" width="487.2988" x="7" y="450"/><rect fill="#363A4F" height="30" rx="1.5" ry="1.5" style="stroke:#363A4F;stroke-width:2.0;" width="487.2988" x="7" y="450"/><rect fill="#363A4F" height="1.5" style="stroke:#363A4F;stroke-width:2.0;" width="487.2988" x="7" y="478.5"/><rect codeLine="57" fill="none" height="58" id="IOMonad" rx="1.5" ry="1.5" style="stroke:#C6A0F6;stroke-width:2.0;" width="487.2988" x="7" y="450"/><ellipse cx="213.7432" cy="465" fill="#ADD1B2" rx="10" ry="10" style="stroke:#181818;stroke-width:1.0;"/><path d="M215.5771,469.248 Q215.167,469.459 214.7158,469.5645 Q214.2646,469.6699 213.7666,469.6699 Q211.9971,469.6699 211.0654,468.5039 Q210.1338,467.3379 210.1338,465.1348 Q210.1338,462.9258 211.0654,461.7598 Q211.9971,460.5938 213.7666,460.5938 Q214.2646,460.5938 214.7217,460.6992 Q215.1787,460.8047 215.5771,461.0156 L215.5771,462.9375 Q215.1318,462.5273 214.7129,462.3369 Q214.2939,462.1465 213.8486,462.1465 Q212.8994,462.1465 212.416,462.8994 Q211.9326,463.6523 211.9326,465.1348 Q211.9326,466.6113 212.416,467.3643 Q212.8994,468.1172 213.8486,468.1172 Q214.2939,468.1172 214.7129,467.9268 Q215.1318,467.7363 215.5771,467.3262 Z " fill="#CAD3F5"/><text fill="#A6DA95" font-family="Helvetica" font-size="16" lengthAdjust="spacing" textLength="65.8125" x="232.7432" y="469.3203">IOMonad</text><line style="stroke:#C6A0F6;stroke-width:2.0;" x1="8" x2="493.2988" y1="480" y2="480"/><line style="stroke:#C6A0F6;stroke-width:2.0;" x1="8" x2="493.2988" y1="488" y2="488"/><ellipse cx="18" cy="499.5" fill="#84BE84" rx="3" ry="3" style="stroke:#038048;stroke-width:1.0;"/><text fill="#A6DA95" font-family="Helvetica" font-size="12" lengthAdjust="spacing" textLength="462.2988" x="26" y="501.2402">Kind&lt;IOKind&lt;?&gt;, B&gt; flatMap(Function&lt;A, Kind&lt;IOKind&lt;?&gt;, B&gt;&gt;, Kind&lt;IOKind&lt;?&gt;, A&gt;)</text></g><!--class Monad--><g id="elem_Monad"><rect fill="#24273A" height="46" id="Monad" rx="1.5" ry="1.5" style="stroke:#C6A0F6;stroke-width:2.0;" width="78.9219" x="191.19" y="302"/><rect fill="#363A4F" height="30" rx="1.5" ry="1.5" style="stroke:#363A4F;stroke-width:2.0;" width="78.9219" x="191.19" y="302"/><rect fill="#363A4F" height="1.5" style="stroke:#363A4F;stroke-width:2.0;" width="78.9219" x="191.19" y="330.5"/><rect fill="none" height="46" id="Monad" rx="1.5" ry="1.5" style="stroke:#C6A0F6;stroke-width:2.0;" width="78.9219" x="191.19" y="302"/><ellipse cx="205.19" cy="317" fill="#B4A7E5" rx="10" ry="10" style="stroke:#181818;stroke-width:1.0;"/><path d="M202.1978,314.2754 L202.1978,312.752 L207.4068,312.752 L207.4068,314.2754 L205.6666,314.2754 L205.6666,319.9766 L207.4068,319.9766 L207.4068,321.5 L202.1978,321.5 L202.1978,319.9766 L203.938,319.9766 L203.938,314.2754 Z " fill="#CAD3F5"/><text fill="#A6DA95" font-family="Helvetica" font-size="16" font-style="italic" lengthAdjust="spacing" textLength="48.9219" x="218.19" y="321.3203">Monad</text><line style="stroke:#C6A0F6;stroke-width:2.0;" x1="192.19" x2="269.1119" y1="332" y2="332"/><line style="stroke:#C6A0F6;stroke-width:2.0;" x1="192.19" x2="269.1119" y1="340" y2="340"/></g><!--link IO to Supplier--><g id="link_IO_Supplier"><path codeLine="13" d="M989.65,678.42 C989.65,702.5 989.65,725.12 989.65,745.83 " fill="none" id="IO-to-Supplier" style="stroke:#F5BDE6;stroke-width:1.0;stroke-dasharray:7.0,7.0;"/><polygon fill="#F5BDE6" points="989.65,751.83,993.65,742.83,989.65,746.83,985.65,742.83,989.65,751.83" style="stroke:#F5BDE6;stroke-width:1.0;"/><polygon fill="#CAD3F5" points="993.65,719,996.0011,711.7639,991.2989,711.7639,993.65,719" style="stroke:#CAD3F5;stroke-width:1.0;"/><text fill="#CAD3F5" font-family="Helvetica" font-size="12" lengthAdjust="spacing" textLength="25.3477" x="1002.65" y="718.2402">uses</text></g><!--reverse link Kind to IOKind--><g id="link_Kind_IOKind"><path d="M1186.65,82.38 C1186.65,102.41 1186.65,111.64 1186.65,130.61 " fill="none" id="Kind-backto-IOKind" style="stroke:#F5BDE6;stroke-width:1.0;"/><polygon fill="none" points="1186.65,64.38,1180.65,82.38,1192.65,82.38,1186.65,64.38" style="stroke:#F5BDE6;stroke-width:1.0;"/></g><!--reverse link IOKind to IOHolder--><g id="link_IOKind_IOHolder"><path d="M857.5569,364.9417 C869.2069,391.7817 881.57,420.24 894.28,449.51 " fill="none" id="IOKind-backto-IOHolder" style="stroke:#F5BDE6;stroke-width:1.0;stroke-dasharray:7.0,7.0;"/><polygon fill="none" points="850.39,348.43,852.0531,367.3306,863.0608,362.5527,850.39,348.43" style="stroke:#F5BDE6;stroke-width:1.0;"/></g><!--link IOKindHelper to IOHolder--><g id="link_IOKindHelper_IOHolder"><path codeLine="37" d="M983.3,376.41 C974.12,385.97 964.88,396.09 956.65,406 C945.18,419.81 936.9874,431.1971 927.8974,444.8371 " fill="none" id="IOKindHelper-to-IOHolder" style="stroke:#F5BDE6;stroke-width:1.0;stroke-dasharray:7.0,7.0;"/><polygon fill="#F5BDE6" points="924.57,449.83,932.8896,444.5589,927.3428,445.6693,926.2325,440.1225,924.57,449.83" style="stroke:#F5BDE6;stroke-width:1.0;"/><polygon fill="#CAD3F5" points="958.133,416.1088,964.5136,411.9644,960.859,409.0055,958.133,416.1088" style="stroke:#CAD3F5;stroke-width:1.0;"/><text fill="#CAD3F5" font-family="Helvetica" font-size="12" lengthAdjust="spacing" textLength="39.3516" x="969.65" y="416.2402">creates</text></g><!--link IOKindHelper to IO--><g id="link_IOKindHelper_IO"><path codeLine="38" d="M1028.05,376.2 C1019.33,433.87 1006.0176,521.8075 997.5476,577.7875 " fill="none" id="IOKindHelper-to-IO" style="stroke:#F5BDE6;stroke-width:1.0;"/><polygon fill="#F5BDE6" points="996.65,583.72,1001.9514,575.4197,997.398,578.7763,994.0414,574.2229,996.65,583.72" style="stroke:#F5BDE6;stroke-width:1.0;"/><polygon fill="#CAD3F5" points="1019.8716,482.955,1023.2788,476.1521,1018.6295,475.4486,1019.8716,482.955" style="stroke:#CAD3F5;stroke-width:1.0;"/><text fill="#CAD3F5" font-family="Helvetica" font-size="12" lengthAdjust="spacing" textLength="25.3477" x="1029.47" y="482.2402">uses</text></g><!--link IOHolder to IO--><g id="link_IOHolder_IO"><path codeLine="39" d="M928.0692,518.7101 C939.8092,539.9301 947.4352,553.71 961.0852,578.38 " fill="none" id="IOHolder-IO" style="stroke:#F5BDE6;stroke-width:1.0;"/><polygon fill="none" points="922.26,508.21,921.6646,515.3965,928.0692,518.7101,928.6647,511.5237,922.26,508.21" style="stroke:#F5BDE6;stroke-width:1.0;"/><polygon fill="#F5BDE6" points="963.99,583.63,963.1327,573.8185,961.5693,579.255,956.1328,577.6916,963.99,583.63" style="stroke:#F5BDE6;stroke-width:1.0;"/><text fill="#CAD3F5" font-family="Helvetica" font-size="12" lengthAdjust="spacing" textLength="28.6875" x="946.66" y="550.2402">holds</text></g><!--reverse link Functor to IOFunctor--><g id="link_Functor_IOFunctor"><path d="M921.65,78.45 C921.65,96.88 921.65,105.08 921.65,124.91 " fill="none" id="Functor-backto-IOFunctor" style="stroke:#F5BDE6;stroke-width:1.0;stroke-dasharray:7.0,7.0;"/><polygon fill="none" points="921.65,60.45,915.65,78.45,927.65,78.45,921.65,60.45" style="stroke:#F5BDE6;stroke-width:1.0;"/></g><!--link IOFunctor to IOKindHelper--><g id="link_IOFunctor_IOKindHelper"><path codeLine="50" d="M940.73,183.29 C957.34,207.91 978.4439,239.2064 998.3839,268.7564 " fill="none" id="IOFunctor-to-IOKindHelper" style="stroke:#F5BDE6;stroke-width:1.0;stroke-dasharray:7.0,7.0;"/><polygon fill="#F5BDE6" points="1001.74,273.73,1000.0215,264.0322,998.9432,269.5854,993.3901,268.507,1001.74,273.73" style="stroke:#F5BDE6;stroke-width:1.0;"/><text fill="#CAD3F5" font-family="Helvetica" font-size="12" lengthAdjust="spacing" textLength="25.3477" x="969.44" y="223.2402">uses</text></g><!--reverse link IOFunctor to IOApplicative--><g id="link_IOFunctor_IOApplicative"><path d="M840.1206,190.6981 C773.3006,219.9481 685.72,258.29 614.31,289.56 " fill="none" id="IOFunctor-backto-IOApplicative" style="stroke:#F5BDE6;stroke-width:1.0;"/><polygon fill="none" points="856.61,183.48,837.7146,185.2017,842.5267,196.1946,856.61,183.48" style="stroke:#F5BDE6;stroke-width:1.0;"/></g><!--reverse link Applicative to IOApplicative--><g id="link_Applicative_IOApplicative"><path d="M535.65,195.44 C535.65,224.17 535.65,256.24 535.65,289.75 " fill="none" id="Applicative-backto-IOApplicative" style="stroke:#F5BDE6;stroke-width:1.0;stroke-dasharray:7.0,7.0;"/><polygon fill="none" points="535.65,177.44,529.65,195.44,541.65,195.44,535.65,177.44" style="stroke:#F5BDE6;stroke-width:1.0;"/></g><!--reverse link IOApplicative to IOMonad--><g id="link_IOApplicative_IOMonad"><path d="M455.0976,368.9604 C404.6776,395.8504 351.39,424.27 304.08,449.5 " fill="none" id="IOApplicative-backto-IOMonad" style="stroke:#F5BDE6;stroke-width:1.0;"/><polygon fill="none" points="470.98,360.49,452.2741,363.6663,457.921,374.2546,470.98,360.49" style="stroke:#F5BDE6;stroke-width:1.0;"/></g><!--reverse link Monad to IOMonad--><g id="link_Monad_IOMonad"><path d="M235.9471,366.2763 C239.4771,393.1163 243.05,420.24 246.9,449.51 " fill="none" id="Monad-backto-IOMonad" style="stroke:#F5BDE6;stroke-width:1.0;stroke-dasharray:7.0,7.0;"/><polygon fill="none" points="233.6,348.43,229.9984,367.0587,241.8959,365.4939,233.6,348.43" style="stroke:#F5BDE6;stroke-width:1.0;"/></g><!--SRC=[ZLJ1Rk8m4Btp5RDS5bGIxbKQ50u8LA5A1UsUNSSGguuTsSvsKSM_xzWXmO5KtHkPUJFptfinFxYaeiuP5DPMvd4-r-GZFd9Rr6-rOPegQPcqCLNbN59bB8audLDYgwgcbCke99GMd5WLLO98MvSYiWKhsRmaNCxzpxZ2w6Z4iPC-4CfWLrULu4md-nG-Hm0Fi8SZivFfw1p2DYz9rW8-oPkncb1xXWngQSY1lTPoTv8Kgpm0gLbEpvUgd0bocdI3ihH1ONAPGacgoQgMr78bamMOkc8QiXaiWFr5jRc1PGz_4CHklwtnsDHfsBn07AUTJ7W4jD906efxvZ9FLZD0hacoVjx3KlFyo58d-CO53qLSEyX_NyABrBTm9lq4rsPBz3kEF2YDbJxwcrl9Z84LF45NvJE_YAWPx4yLGrEV87E3AqBVoH7FWGcdC4bU6RL47aL33O0AOiobqRe1kJ2WPDZv7S0bl6MsKCWtZds-jwDMquT6N_tAflSW1wYbXznhliCFs39u1RsYssCQdeE-EBysRYcI25WhaQD0j4RfFF2aYJlQlAm4dhwq9X3R-1HTb76raKX3KkOdGDzJTq1jGpmWgXcn_ePkS57aSDSJWskLwd851epRRd1N_fYLJbPf41ndpYfytlmFmqntSbVmE4HlbIHvYEkNZqUZrfbBWz2NjcVdjZVeuMwFjmysSw4P36tAFRrsKcDWu5HZqPLIm3LummD4Gr5ziWDiSR7gCCccWqcKCd3BVMLVIkk8UzS3og6GW7QpdFzmz-xlBPiDmBxczGy0]--></g></svg>