<svg xmlns="http://www.w3.org/2000/svg" xmlns:xlink="http://www.w3.org/1999/xlink" contentStyleType="text/css" height="490px" preserveAspectRatio="none" style="width:1190px;height:490px;background:#24273A;" version="1.1" viewBox="0 0 1190 490" width="1190px" zoomAndPan="magnify"><defs/><g><rect fill="#24273A" height="490" style="stroke:none;stroke-width:1.0;" width="1190" x="0" y="0"/><!--cluster IOKind<A> extends Kind<IOKind--><g id="cluster_IOKind&lt;A&gt; extends Kind&lt;IOKind"><path d="M927.08,6 L1117.1054,6 A2.25,2.25 0 0 1 1118.6054,7.5 L1125.6054,24 L1127.08,24 A1.5,1.5 0 0 1 1128.58,25.5 L1128.58,97.5 A1.5,1.5 0 0 1 1127.08,99 L927.08,99 A1.5,1.5 0 0 1 925.58,97.5 L925.58,7.5 A1.5,1.5 0 0 1 927.08,6 " fill="#24273A" style="stroke:#CAD3F5;stroke-width:1.5;"/><line style="stroke:#CAD3F5;stroke-width:1.5;" x1="925.58" x2="1125.6054" y1="24" y2="24"/><text fill="#CAD3F5" font-family="Helvetica" font-size="12" font-weight="bold" lengthAdjust="spacing" textLength="187.0254" x="929.58" y="17.2402">IOKind&lt;A&gt; extends Kind&lt;IOKind</text></g><!--class Witness, A>--><g id="elem_Witness, A&gt;"><rect codeLine="3" fill="#24273A" height="46" id="Witness, A&gt;" rx="1.5" ry="1.5" style="stroke:#C6A0F6;stroke-width:2.0;" width="115.8047" x="942.68" y="37"/><rect fill="#363A4F" height="30" rx="1.5" ry="1.5" style="stroke:#363A4F;stroke-width:2.0;" width="115.8047" x="942.68" y="37"/><rect fill="#363A4F" height="1.5" style="stroke:#363A4F;stroke-width:2.0;" width="115.8047" x="942.68" y="65.5"/><rect codeLine="3" fill="none" height="46" id="Witness, A&gt;" rx="1.5" ry="1.5" style="stroke:#C6A0F6;stroke-width:2.0;" width="115.8047" x="942.68" y="37"/><ellipse cx="956.68" cy="52" fill="#B4A7E5" rx="10" ry="10" style="stroke:#181818;stroke-width:1.0;"/><path d="M953.6878,49.2754 L953.6878,47.752 L958.8968,47.752 L958.8968,49.2754 L957.1566,49.2754 L957.1566,54.9766 L958.8968,54.9766 L958.8968,56.5 L953.6878,56.5 L953.6878,54.9766 L955.428,54.9766 L955.428,49.2754 Z " fill="#CAD3F5"/><text fill="#A6DA95" font-family="Helvetica" font-size="16" font-style="italic" lengthAdjust="spacing" textLength="85.8047" x="969.68" y="56.3203">Witness, A&gt;</text><line style="stroke:#C6A0F6;stroke-width:2.0;" x1="943.68" x2="1057.4847" y1="67" y2="67"/><line style="stroke:#C6A0F6;stroke-width:2.0;" x1="943.68" x2="1057.4847" y1="75" y2="75"/></g><!--class Kind--><g id="elem_Kind"><rect codeLine="2" fill="#24273A" height="46" id="Kind" rx="1.5" ry="1.5" style="stroke:#C6A0F6;stroke-width:2.0;" width="88.0254" x="515.57" y="37"/><rect fill="#363A4F" height="30" rx="1.5" ry="1.5" style="stroke:#363A4F;stroke-width:2.0;" width="88.0254" x="515.57" y="37"/><rect fill="#363A4F" height="1.5" style="stroke:#363A4F;stroke-width:2.0;" width="88.0254" x="515.57" y="65.5"/><rect codeLine="2" fill="none" height="46" id="Kind" rx="1.5" ry="1.5" style="stroke:#C6A0F6;stroke-width:2.0;" width="88.0254" x="515.57" y="37"/><ellipse cx="529.57" cy="52" fill="#B4A7E5" rx="10" ry="10" style="stroke:#181818;stroke-width:1.0;"/><path d="M526.5778,49.2754 L526.5778,47.752 L531.7868,47.752 L531.7868,49.2754 L530.0466,49.2754 L530.0466,54.9766 L531.7868,54.9766 L531.7868,56.5 L526.5778,56.5 L526.5778,54.9766 L528.318,54.9766 L528.318,49.2754 Z " fill="#CAD3F5"/><text fill="#A6DA95" font-family="Helvetica" font-size="16" font-style="italic" lengthAdjust="spacing" textLength="32.0234" x="542.57" y="56.3203">Kind</text><rect fill="#24273A" height="14" style="stroke:#C6A0F6;stroke-width:1.0;stroke-dasharray:2.0,2.0;" width="24.002" x="582.5934" y="34"/><text fill="#CAD3F5" font-family="Helvetica" font-size="12" font-style="italic" lengthAdjust="spacing" textLength="22.002" x="583.5934" y="44.2402">F, A</text><line style="stroke:#C6A0F6;stroke-width:2.0;" x1="516.57" x2="602.5954" y1="67" y2="67"/><line style="stroke:#C6A0F6;stroke-width:2.0;" x1="516.57" x2="602.5954" y1="75" y2="75"/></g><!--class Functor--><g id="elem_Functor"><rect codeLine="5" fill="#24273A" height="58" id="Functor" rx="1.5" ry="1.5" style="stroke:#C6A0F6;stroke-width:2.0;" width="269.125" x="639.02" y="31"/><rect fill="#363A4F" height="30" rx="1.5" ry="1.5" style="stroke:#363A4F;stroke-width:2.0;" width="269.125" x="639.02" y="31"/><rect fill="#363A4F" height="1.5" style="stroke:#363A4F;stroke-width:2.0;" width="269.125" x="639.02" y="59.5"/><rect codeLine="5" fill="none" height="58" id="Functor" rx="1.5" ry="1.5" style="stroke:#C6A0F6;stroke-width:2.0;" width="269.125" x="639.02" y="31"/><ellipse cx="736.7964" cy="46" fill="#B4A7E5" rx="10" ry="10" style="stroke:#181818;stroke-width:1.0;"/><path d="M733.8042,43.2754 L733.8042,41.752 L739.0132,41.752 L739.0132,43.2754 L737.2729,43.2754 L737.2729,48.9766 L739.0132,48.9766 L739.0132,50.5 L733.8042,50.5 L733.8042,48.9766 L735.5444,48.9766 L735.5444,43.2754 Z " fill="#CAD3F5"/><text fill="#A6DA95" font-family="Helvetica" font-size="16" font-style="italic" lengthAdjust="spacing" textLength="54.2422" x="755.7964" y="50.3203">Functor</text><rect fill="#24273A" height="14" style="stroke:#C6A0F6;stroke-width:1.0;stroke-dasharray:2.0,2.0;" width="9.3301" x="901.8149" y="28"/><text fill="#CAD3F5" font-family="Helvetica" font-size="12" font-style="italic" lengthAdjust="spacing" textLength="7.3301" x="902.8149" y="38.2402">F</text><line style="stroke:#C6A0F6;stroke-width:2.0;" x1="640.02" x2="907.145" y1="61" y2="61"/><line style="stroke:#C6A0F6;stroke-width:2.0;" x1="640.02" x2="907.145" y1="69" y2="69"/><ellipse cx="650.02" cy="80.5" fill="#84BE84" rx="3" ry="3" style="stroke:#038048;stroke-width:1.0;"/><text fill="#A6DA95" font-family="Helvetica" font-size="12" lengthAdjust="spacing" textLength="244.125" x="658.02" y="82.2402">Kind&lt;F, B&gt; map(Function&lt;A, B&gt;, Kind&lt;F, A&gt;)</text></g><!--class Applicative--><g id="elem_Applicative"><rect codeLine="8" fill="#24273A" height="70" id="Applicative" rx="1.5" ry="1.5" style="stroke:#C6A0F6;stroke-width:2.0;" width="311.1602" x="372" y="150"/><rect fill="#363A4F" height="30" rx="1.5" ry="1.5" style="stroke:#363A4F;stroke-width:2.0;" width="311.1602" x="372" y="150"/><rect fill="#363A4F" height="1.5" style="stroke:#363A4F;stroke-width:2.0;" width="311.1602" x="372" y="178.5"/><rect codeLine="8" fill="none" height="70" id="Applicative" rx="1.5" ry="1.5" style="stroke:#C6A0F6;stroke-width:2.0;" width="311.1602" x="372" y="150"/><ellipse cx="479.2275" cy="165" fill="#B4A7E5" rx="10" ry="10" style="stroke:#181818;stroke-width:1.0;"/><path d="M476.2354,162.2754 L476.2354,160.752 L481.4443,160.752 L481.4443,162.2754 L479.7041,162.2754 L479.7041,167.9766 L481.4443,167.9766 L481.4443,169.5 L476.2354,169.5 L476.2354,167.9766 L477.9756,167.9766 L477.9756,162.2754 Z " fill="#CAD3F5"/><text fill="#A6DA95" font-family="Helvetica" font-size="16" font-style="italic" lengthAdjust="spacing" textLength="77.375" x="498.2275" y="169.3203">Applicative</text><rect fill="#24273A" height="14" style="stroke:#C6A0F6;stroke-width:1.0;stroke-dasharray:2.0,2.0;" width="9.3301" x="676.8301" y="147"/><text fill="#CAD3F5" font-family="Helvetica" font-size="12" font-style="italic" lengthAdjust="spacing" textLength="7.3301" x="677.8301" y="157.2402">F</text><line style="stroke:#C6A0F6;stroke-width:2.0;" x1="373" x2="682.1602" y1="180" y2="180"/><line style="stroke:#C6A0F6;stroke-width:2.0;" x1="373" x2="682.1602" y1="188" y2="188"/><ellipse cx="383" cy="199.5" fill="#84BE84" rx="3" ry="3" style="stroke:#038048;stroke-width:1.0;"/><text fill="#A6DA95" font-family="Helvetica" font-size="12" lengthAdjust="spacing" textLength="89.373" x="391" y="201.2402">Kind&lt;F, A&gt; of(A)</text><ellipse cx="383" cy="211.5" fill="#84BE84" rx="3" ry="3" style="stroke:#038048;stroke-width:1.0;"/><text fill="#A6DA95" font-family="Helvetica" font-size="12" lengthAdjust="spacing" textLength="286.1602" x="391" y="213.2402">Kind&lt;F, B&gt; ap(Kind&lt;F, Function&lt;A, B&gt;&gt;, Kind&lt;F, A&gt;)</text></g><!--class Monad--><g id="elem_Monad"><rect codeLine="12" fill="#24273A" height="58" id="Monad" rx="1.5" ry="1.5" style="stroke:#C6A0F6;stroke-width:2.0;" width="337.1641" x="7" y="300"/><rect fill="#363A4F" height="30" rx="1.5" ry="1.5" style="stroke:#363A4F;stroke-width:2.0;" width="337.1641" x="7" y="300"/><rect fill="#363A4F" height="1.5" style="stroke:#363A4F;stroke-width:2.0;" width="337.1641" x="7" y="328.5"/><rect codeLine="12" fill="none" height="58" id="Monad" rx="1.5" ry="1.5" style="stroke:#C6A0F6;stroke-width:2.0;" width="337.1641" x="7" y="300"/><ellipse cx="141.4561" cy="315" fill="#B4A7E5" rx="10" ry="10" style="stroke:#181818;stroke-width:1.0;"/><path d="M138.4639,312.2754 L138.4639,310.752 L143.6729,310.752 L143.6729,312.2754 L141.9326,312.2754 L141.9326,317.9766 L143.6729,317.9766 L143.6729,319.5 L138.4639,319.5 L138.4639,317.9766 L140.2041,317.9766 L140.2041,312.2754 Z " fill="#CAD3F5"/><text fill="#A6DA95" font-family="Helvetica" font-size="16" font-style="italic" lengthAdjust="spacing" textLength="48.9219" x="160.4561" y="319.3203">Monad</text><rect fill="#24273A" height="14" style="stroke:#C6A0F6;stroke-width:1.0;stroke-dasharray:2.0,2.0;" width="9.3301" x="337.834" y="297"/><text fill="#CAD3F5" font-family="Helvetica" font-size="12" font-style="italic" lengthAdjust="spacing" textLength="7.3301" x="338.834" y="307.2402">F</text><line style="stroke:#C6A0F6;stroke-width:2.0;" x1="8" x2="343.1641" y1="330" y2="330"/><line style="stroke:#C6A0F6;stroke-width:2.0;" x1="8" x2="343.1641" y1="338" y2="338"/><ellipse cx="18" cy="349.5" fill="#84BE84" rx="3" ry="3" style="stroke:#038048;stroke-width:1.0;"/><text fill="#A6DA95" font-family="Helvetica" font-size="12" lengthAdjust="spacing" textLength="312.1641" x="26" y="351.2402">Kind&lt;F, B&gt; flatMap(Function&lt;A, Kind&lt;F, B&gt;&gt;, Kind&lt;F, A&gt;)</text></g><!--class IOKindHelper--><g id="elem_IOKindHelper"><rect codeLine="17" fill="#24273A" height="70" id="IOKindHelper" rx="1.5" ry="1.5" style="stroke:#C6A0F6;stroke-width:2.0;" width="232.7695" x="951.2" y="294"/><rect fill="#363A4F" height="30" rx="1.5" ry="1.5" style="stroke:#363A4F;stroke-width:2.0;" width="232.7695" x="951.2" y="294"/><rect fill="#363A4F" height="1.5" style="stroke:#363A4F;stroke-width:2.0;" width="232.7695" x="951.2" y="322.5"/><rect codeLine="17" fill="none" height="70" id="IOKindHelper" rx="1.5" ry="1.5" style="stroke:#C6A0F6;stroke-width:2.0;" width="232.7695" x="951.2" y="294"/><ellipse cx="1015.5613" cy="309" fill="#ADD1B2" rx="10" ry="10" style="stroke:#181818;stroke-width:1.0;"/><path d="M1017.3953,313.248 Q1016.9852,313.459 1016.534,313.5645 Q1016.0828,313.6699 1015.5848,313.6699 Q1013.8152,313.6699 1012.8836,312.5039 Q1011.952,311.3379 1011.952,309.1348 Q1011.952,306.9258 1012.8836,305.7598 Q1013.8152,304.5938 1015.5848,304.5938 Q1016.0828,304.5938 1016.5398,304.6992 Q1016.9969,304.8047 1017.3953,305.0156 L1017.3953,306.9375 Q1016.95,306.5273 1016.5311,306.3369 Q1016.1121,306.1465 1015.6668,306.1465 Q1014.7176,306.1465 1014.2342,306.8994 Q1013.7508,307.6523 1013.7508,309.1348 Q1013.7508,310.6113 1014.2342,311.3643 Q1014.7176,312.1172 1015.6668,312.1172 Q1016.1121,312.1172 1016.5311,311.9268 Q1016.95,311.7363 1017.3953,311.3262 Z " fill="#CAD3F5"/><text fill="#A6DA95" font-family="Helvetica" font-size="16" lengthAdjust="spacing" textLength="96.0469" x="1034.5613" y="313.3203">IOKindHelper</text><line style="stroke:#C6A0F6;stroke-width:2.0;" x1="952.2" x2="1182.9695" y1="324" y2="324"/><line style="stroke:#C6A0F6;stroke-width:2.0;" x1="952.2" x2="1182.9695" y1="332" y2="332"/><text fill="#A6DA95" font-family="Helvetica" font-size="12" lengthAdjust="spacing" text-decoration="underline" textLength="207.4219" x="957.2" y="345.2402">Kind&lt;IOKind.Witness, A&gt; wrap(IO&lt;A&gt;)</text><text fill="#A6DA95" font-family="Helvetica" font-size="12" lengthAdjust="spacing" text-decoration="underline" textLength="220.7695" x="957.2" y="357.2402">IO&lt;A&gt; unwrap(Kind&lt;IOKind.Witness, A&gt;)</text></g><!--class IOFunctor--><g id="elem_IOFunctor"><rect codeLine="23" fill="#24273A" height="58" id="IOFunctor" rx="1.5" ry="1.5" style="stroke:#C6A0F6;stroke-width:2.0;" width="419.8516" x="718.66" y="156"/><rect fill="#363A4F" height="30" rx="1.5" ry="1.5" style="stroke:#363A4F;stroke-width:2.0;" width="419.8516" x="718.66" y="156"/><rect fill="#363A4F" height="1.5" style="stroke:#363A4F;stroke-width:2.0;" width="419.8516" x="718.66" y="184.5"/><rect codeLine="23" fill="none" height="58" id="IOFunctor" rx="1.5" ry="1.5" style="stroke:#C6A0F6;stroke-width:2.0;" width="419.8516" x="718.66" y="156"/><ellipse cx="889.0194" cy="171" fill="#ADD1B2" rx="10" ry="10" style="stroke:#181818;stroke-width:1.0;"/><path d="M890.8534,175.248 Q890.4432,175.459 889.992,175.5645 Q889.5409,175.6699 889.0428,175.6699 Q887.2733,175.6699 886.3416,174.5039 Q885.41,173.3379 885.41,171.1348 Q885.41,168.9258 886.3416,167.7598 Q887.2733,166.5938 889.0428,166.5938 Q889.5409,166.5938 889.9979,166.6992 Q890.4549,166.8047 890.8534,167.0156 L890.8534,168.9375 Q890.408,168.5273 889.9891,168.3369 Q889.5702,168.1465 889.1248,168.1465 Q888.1756,168.1465 887.6922,168.8994 Q887.2088,169.6523 887.2088,171.1348 Q887.2088,172.6113 887.6922,173.3643 Q888.1756,174.1172 889.1248,174.1172 Q889.5702,174.1172 889.9891,173.9268 Q890.408,173.7363 890.8534,173.3262 Z " fill="#CAD3F5"/><text fill="#A6DA95" font-family="Helvetica" font-size="16" lengthAdjust="spacing" textLength="71.1328" x="908.0194" y="175.3203">IOFunctor</text><line style="stroke:#C6A0F6;stroke-width:2.0;" x1="719.66" x2="1137.5116" y1="186" y2="186"/><line style="stroke:#C6A0F6;stroke-width:2.0;" x1="719.66" x2="1137.5116" y1="194" y2="194"/><ellipse cx="729.66" cy="205.5" fill="#84BE84" rx="3" ry="3" style="stroke:#038048;stroke-width:1.0;"/><text fill="#A6DA95" font-family="Helvetica" font-size="12" lengthAdjust="spacing" textLength="394.8516" x="737.66" y="207.2402">Kind&lt;IOKind.Witness, B&gt; map(Function&lt;A, B&gt;, Kind&lt;IOKind.Witness, A&gt;)</text></g><!--class IOApplicative--><g id="elem_IOApplicative"><rect codeLine="28" fill="#24273A" height="70" id="IOApplicative" rx="1.5" ry="1.5" style="stroke:#C6A0F6;stroke-width:2.0;" width="537.25" x="378.96" y="294"/><rect fill="#363A4F" height="30" rx="1.5" ry="1.5" style="stroke:#363A4F;stroke-width:2.0;" width="537.25" x="378.96" y="294"/><rect fill="#363A4F" height="1.5" style="stroke:#363A4F;stroke-width:2.0;" width="537.25" x="378.96" y="322.5"/><rect codeLine="28" fill="none" height="70" id="IOApplicative" rx="1.5" ry="1.5" style="stroke:#C6A0F6;stroke-width:2.0;" width="537.25" x="378.96" y="294"/><ellipse cx="596.4522" cy="309" fill="#ADD1B2" rx="10" ry="10" style="stroke:#181818;stroke-width:1.0;"/><path d="M598.2862,313.248 Q597.876,313.459 597.4248,313.5645 Q596.9737,313.6699 596.4756,313.6699 Q594.7061,313.6699 593.7745,312.5039 Q592.8428,311.3379 592.8428,309.1348 Q592.8428,306.9258 593.7745,305.7598 Q594.7061,304.5938 596.4756,304.5938 Q596.9737,304.5938 597.4307,304.6992 Q597.8877,304.8047 598.2862,305.0156 L598.2862,306.9375 Q597.8409,306.5273 597.4219,306.3369 Q597.003,306.1465 596.5577,306.1465 Q595.6084,306.1465 595.125,306.8994 Q594.6416,307.6523 594.6416,309.1348 Q594.6416,310.6113 595.125,311.3643 Q595.6084,312.1172 596.5577,312.1172 Q597.003,312.1172 597.4219,311.9268 Q597.8409,311.7363 598.2862,311.3262 Z " fill="#CAD3F5"/><text fill="#A6DA95" font-family="Helvetica" font-size="16" lengthAdjust="spacing" textLength="94.2656" x="615.4522" y="313.3203">IOApplicative</text><line style="stroke:#C6A0F6;stroke-width:2.0;" x1="379.96" x2="915.21" y1="324" y2="324"/><line style="stroke:#C6A0F6;stroke-width:2.0;" x1="379.96" x2="915.21" y1="332" y2="332"/><ellipse cx="389.96" cy="343.5" fill="#84BE84" rx="3" ry="3" style="stroke:#038048;stroke-width:1.0;"/><text fill="#A6DA95" font-family="Helvetica" font-size="12" lengthAdjust="spacing" textLength="164.7363" x="397.96" y="345.2402">Kind&lt;IOKind.Witness, A&gt; of(A)</text><ellipse cx="389.96" cy="355.5" fill="#84BE84" rx="3" ry="3" style="stroke:#038048;stroke-width:1.0;"/><text fill="#A6DA95" font-family="Helvetica" font-size="12" lengthAdjust="spacing" textLength="512.25" x="397.96" y="357.2402">Kind&lt;IOKind.Witness, B&gt; ap(Kind&lt;IOKind.Witness, Function&lt;A, B&gt;&gt;, Kind&lt;IOKind.Witness, A&gt;)</text></g><!--class IOMonad--><g id="elem_IOMonad"><rect codeLine="33" fill="#24273A" height="58" id="IOMonad" rx="1.5" ry="1.5" style="stroke:#C6A0F6;stroke-width:2.0;" width="563.2539" x="128.96" y="425"/><rect fill="#363A4F" height="30" rx="1.5" ry="1.5" style="stroke:#363A4F;stroke-width:2.0;" width="563.2539" x="128.96" y="425"/><rect fill="#363A4F" height="1.5" style="stroke:#363A4F;stroke-width:2.0;" width="563.2539" x="128.96" y="453.5"/><rect codeLine="33" fill="none" height="58" id="IOMonad" rx="1.5" ry="1.5" style="stroke:#C6A0F6;stroke-width:2.0;" width="563.2539" x="128.96" y="425"/><ellipse cx="373.6807" cy="440" fill="#ADD1B2" rx="10" ry="10" style="stroke:#181818;stroke-width:1.0;"/><path d="M375.5147,444.248 Q375.1045,444.459 374.6534,444.5645 Q374.2022,444.6699 373.7041,444.6699 Q371.9346,444.6699 371.003,443.5039 Q370.0713,442.3379 370.0713,440.1348 Q370.0713,437.9258 371.003,436.7598 Q371.9346,435.5938 373.7041,435.5938 Q374.2022,435.5938 374.6592,435.6992 Q375.1163,435.8047 375.5147,436.0156 L375.5147,437.9375 Q375.0694,437.5273 374.6504,437.3369 Q374.2315,437.1465 373.7862,437.1465 Q372.837,437.1465 372.3536,437.8994 Q371.8702,438.6523 371.8702,440.1348 Q371.8702,441.6113 372.3536,442.3643 Q372.837,443.1172 373.7862,443.1172 Q374.2315,443.1172 374.6504,442.9268 Q375.0694,442.7363 375.5147,442.3262 Z " fill="#CAD3F5"/><text fill="#A6DA95" font-family="Helvetica" font-size="16" lengthAdjust="spacing" textLength="65.8125" x="392.6807" y="444.3203">IOMonad</text><line style="stroke:#C6A0F6;stroke-width:2.0;" x1="129.96" x2="691.2139" y1="455" y2="455"/><line style="stroke:#C6A0F6;stroke-width:2.0;" x1="129.96" x2="691.2139" y1="463" y2="463"/><ellipse cx="139.96" cy="474.5" fill="#84BE84" rx="3" ry="3" style="stroke:#038048;stroke-width:1.0;"/><text fill="#A6DA95" font-family="Helvetica" font-size="12" lengthAdjust="spacing" textLength="538.2539" x="147.96" y="476.2402">Kind&lt;IOKind.Witness, B&gt; flatMap(Function&lt;A, Kind&lt;IOKind.Witness, B&gt;&gt;, Kind&lt;IOKind.Witness, A&gt;)</text></g><!--reverse link Functor to Applicative--><g id="link_Functor_Applicative"><path d="M700.7403,97.4198 C664.8403,115.3698 634.3,130.64 596.31,149.63 " fill="none" id="Functor-backto-Applicative" style="stroke:#F5BDE6;stroke-width:1.0;"/><polygon fill="none" points="716.84,89.37,698.057,92.0533,703.4236,102.7864,716.84,89.37" style="stroke:#F5BDE6;stroke-width:1.0;"/></g><!--reverse link Applicative to Monad--><g id="link_Applicative_Monad"><path d="M425.6778,227.1057 C365.5578,251.3657 302.66,276.74 246.1,299.55 " fill="none" id="Applicative-backto-Monad" style="stroke:#F5BDE6;stroke-width:1.0;"/><polygon fill="none" points="442.37,220.37,423.4325,221.5417,427.923,232.6698,442.37,220.37" style="stroke:#F5BDE6;stroke-width:1.0;"/></g><!--reverse link Functor to IOFunctor--><g id="link_Functor_IOFunctor"><path d="M823.241,100.4076 C848.361,120.3376 867.78,135.75 892.92,155.7 " fill="none" id="Functor-backto-IOFunctor" style="stroke:#F5BDE6;stroke-width:1.0;stroke-dasharray:7.0,7.0;"/><polygon fill="none" points="809.14,89.22,819.5118,105.1079,826.9702,95.7073,809.14,89.22" style="stroke:#F5BDE6;stroke-width:1.0;"/></g><!--link IOFunctor to IOKindHelper--><g id="link_IOFunctor_IOKindHelper"><path codeLine="26" d="M956.38,214.39 C978.72,237.22 1005.9826,265.0726 1029.7526,289.3526 " fill="none" id="IOFunctor-to-IOKindHelper" style="stroke:#F5BDE6;stroke-width:1.0;stroke-dasharray:7.0,7.0;"/><polygon fill="#F5BDE6" points="1033.95,293.64,1030.5122,284.4106,1030.4522,290.0671,1024.7957,290.0071,1033.95,293.64" style="stroke:#F5BDE6;stroke-width:1.0;"/><text fill="#CAD3F5" font-family="Helvetica" font-size="12" lengthAdjust="spacing" textLength="25.3477" x="1003.25" y="260.2402">uses</text></g><!--reverse link IOFunctor to IOApplicative--><g id="link_IOFunctor_IOApplicative"><path d="M856.3261,222.511 C811.2461,245.301 763.84,269.25 715.83,293.51 " fill="none" id="IOFunctor-backto-IOApplicative" style="stroke:#F5BDE6;stroke-width:1.0;"/><polygon fill="none" points="872.39,214.39,853.6191,217.1564,859.0331,227.8657,872.39,214.39" style="stroke:#F5BDE6;stroke-width:1.0;"/></g><!--reverse link Applicative to IOApplicative--><g id="link_Applicative_IOApplicative"><path d="M568.2481,234.1184 C587.1181,256.4484 599.99,271.68 618.8,293.94 " fill="none" id="Applicative-backto-IOApplicative" style="stroke:#F5BDE6;stroke-width:1.0;stroke-dasharray:7.0,7.0;"/><polygon fill="none" points="556.63,220.37,563.6653,237.9911,572.8309,230.2457,556.63,220.37" style="stroke:#F5BDE6;stroke-width:1.0;"/></g><!--reverse link IOApplicative to IOMonad--><g id="link_IOApplicative_IOMonad"><path d="M565.2727,372.7202 C528.7127,391.6902 499.85,406.67 465.3,424.6 " fill="none" id="IOApplicative-backto-IOMonad" style="stroke:#F5BDE6;stroke-width:1.0;"/><polygon fill="none" points="581.25,364.43,562.5093,367.3944,568.0361,378.0459,581.25,364.43" style="stroke:#F5BDE6;stroke-width:1.0;"/></g><!--reverse link Monad to IOMonad--><g id="link_Monad_IOMonad"><path d="M245.7364,366.7193 C283.6864,386.5893 318.26,404.68 356.24,424.56 " fill="none" id="Monad-backto-IOMonad" style="stroke:#F5BDE6;stroke-width:1.0;stroke-dasharray:7.0,7.0;"/><polygon fill="none" points="229.79,358.37,242.9533,372.0348,248.5195,361.4038,229.79,358.37" style="stroke:#F5BDE6;stroke-width:1.0;"/></g><!--SRC=[bL8xRy8m4DxpAroMWY3EZg98wO2AAiJOsNLCOyalnUTI2V7VwoI56E8WiILtv-znzxrmHOMh6Ae1Z5rdMKEE-9j3xRwSPGtL2fW2JBNC5DKMICffHWaOuoZbAfM4qfeJqAaHH86J8eMQIPP9mbNMVMBZgmdtGCs1K8O-kAhopGgLHL2SRVTTlImG-_MKbUtd-ZB-vA2OjUsZMH8yspX5GJVvfa2d1A7b5VojG9AOUTVdMkLbMre5t8la7E2KnWZkRV4Vrc9T94p2UvdwC2yNzvoUyl9tI_s0UwSLgKBMEp4ZOmT1O7TdRcYFc9A42c8jwbVvpeHXJGjwyjS4JizJYqR7nfDiztaBCqnt1UHKrvruwkTV4SQuPR-G_-yISMc4JuM2ORst09tZPLpLexF6P9oJWHZZudO7Q-GZRWU5mTwljuZg3WyKqJubVXoQYBsffSRZ5FTyTTH5A_0IEWpyz0bywWgJ6HpFFjRw1m00]--></g></svg>