<svg xmlns="http://www.w3.org/2000/svg" xmlns:xlink="http://www.w3.org/1999/xlink" contentStyleType="text/css" height="369px" preserveAspectRatio="none" style="width:684px;height:369px;background:#24273A;" version="1.1" viewBox="0 0 684 369" width="684px" zoomAndPan="magnify"><defs/><g><rect fill="#24273A" height="369" style="stroke:none;stroke-width:1.0;" width="684" x="0" y="0"/><!--cluster helper--><g id="cluster_helper"><rect fill="#363A4F" height="249" rx="1.5" ry="1.5" style="stroke:#CAD3F5;stroke-width:1.0;" width="525" x="153.69" y="7"/><text fill="#CAD3F5" font-family="Helvetica" font-size="12" font-weight="bold" lengthAdjust="spacing" textLength="36.0117" x="398.1841" y="18.2402">helper</text></g><!--class LazyKindHelper--><g id="elem_LazyKindHelper"><rect codeLine="14" fill="#24273A" height="70" id="LazyKindHelper" rx="1.5" ry="1.5" style="stroke:#C6A0F6;stroke-width:2.0;" width="362.8867" x="300.24" y="38"/><rect fill="#363A4F" height="30" rx="1.5" ry="1.5" style="stroke:#363A4F;stroke-width:2.0;" width="362.8867" x="300.24" y="38"/><rect fill="#363A4F" height="1.5" style="stroke:#363A4F;stroke-width:2.0;" width="362.8867" x="300.24" y="66.5"/><rect codeLine="14" fill="none" height="70" id="LazyKindHelper" rx="1.5" ry="1.5" style="stroke:#C6A0F6;stroke-width:2.0;" width="362.8867" x="300.24" y="38"/><ellipse cx="421.2068" cy="53" fill="#ADD1B2" rx="10" ry="10" style="stroke:#181818;stroke-width:1.0;"/><path d="M423.0408,57.248 Q422.6306,57.459 422.1795,57.5645 Q421.7283,57.6699 421.2302,57.6699 Q419.4607,57.6699 418.5291,56.5039 Q417.5974,55.3379 417.5974,53.1348 Q417.5974,50.9258 418.5291,49.7598 Q419.4607,48.5938 421.2302,48.5938 Q421.7283,48.5938 422.1853,48.6992 Q422.6423,48.8047 423.0408,49.0156 L423.0408,50.9375 Q422.5955,50.5273 422.1765,50.3369 Q421.7576,50.1465 421.3123,50.1465 Q420.363,50.1465 419.8796,50.8994 Q419.3963,51.6523 419.3963,53.1348 Q419.3963,54.6113 419.8796,55.3643 Q420.363,56.1172 421.3123,56.1172 Q421.7576,56.1172 422.1765,55.9268 Q422.5955,55.7363 423.0408,55.3262 Z " fill="#CAD3F5"/><text fill="#A6DA95" font-family="Helvetica" font-size="16" lengthAdjust="spacing" textLength="112.9531" x="440.2068" y="57.3203">LazyKindHelper</text><line style="stroke:#C6A0F6;stroke-width:2.0;" x1="301.24" x2="662.1267" y1="68" y2="68"/><line style="stroke:#C6A0F6;stroke-width:2.0;" x1="301.24" x2="662.1267" y1="76" y2="76"/><ellipse cx="311.24" cy="87.5" fill="#84BE84" rx="3" ry="3" style="stroke:#038048;stroke-width:1.0;"/><text fill="#A6DA95" font-family="Helvetica" font-size="12" lengthAdjust="spacing" text-decoration="underline" textLength="214.2891" x="319.24" y="89.2402">LazyKind&lt;A&gt; wrap(@NonNull Lazy&lt;A&gt;)</text><ellipse cx="311.24" cy="99.5" fill="#84BE84" rx="3" ry="3" style="stroke:#038048;stroke-width:1.0;"/><text fill="#A6DA95" font-family="Helvetica" font-size="12" lengthAdjust="spacing" text-decoration="underline" textLength="337.8867" x="319.24" y="101.2402">@NonNull Lazy&lt;A&gt; unwrap(@Nullable Kind&lt;LazyKind&lt;?&gt;, A&gt;)</text></g><!--class LazyHolder--><g id="elem_LazyHolder"><rect codeLine="20" fill="#24273A" height="58" id="LazyHolder" rx="1.5" ry="1.5" style="stroke:#C6A0F6;stroke-width:2.0;" width="200.6055" x="211.38" y="182"/><rect fill="#363A4F" height="30" rx="1.5" ry="1.5" style="stroke:#363A4F;stroke-width:2.0;" width="200.6055" x="211.38" y="182"/><rect fill="#363A4F" height="1.5" style="stroke:#363A4F;stroke-width:2.0;" width="200.6055" x="211.38" y="210.5"/><rect codeLine="20" fill="none" height="58" id="LazyHolder" rx="1.5" ry="1.5" style="stroke:#C6A0F6;stroke-width:2.0;" width="200.6055" x="211.38" y="182"/><ellipse cx="261.2159" cy="197" fill="#ADD1B2" rx="10" ry="10" style="stroke:#181818;stroke-width:1.0;"/><path d="M263.0499,201.248 Q262.6398,201.459 262.1886,201.5645 Q261.7374,201.6699 261.2394,201.6699 Q259.4698,201.6699 258.5382,200.5039 Q257.6066,199.3379 257.6066,197.1348 Q257.6066,194.9258 258.5382,193.7598 Q259.4698,192.5938 261.2394,192.5938 Q261.7374,192.5938 262.1945,192.6992 Q262.6515,192.8047 263.0499,193.0156 L263.0499,194.9375 Q262.6046,194.5273 262.1857,194.3369 Q261.7667,194.1465 261.3214,194.1465 Q260.3722,194.1465 259.8888,194.8994 Q259.4054,195.6523 259.4054,197.1348 Q259.4054,198.6113 259.8888,199.3643 Q260.3722,200.1172 261.3214,200.1172 Q261.7667,200.1172 262.1857,199.9268 Q262.6046,199.7363 263.0499,199.3262 Z " fill="#CAD3F5"/><text fill="#A6DA95" font-family="Helvetica" font-size="16" lengthAdjust="spacing" textLength="80.9297" x="280.2159" y="201.3203">LazyHolder</text><rect fill="#24273A" height="14" style="stroke:#C6A0F6;stroke-width:1.0;stroke-dasharray:2.0,2.0;" width="10.0039" x="404.9816" y="179"/><text fill="#CAD3F5" font-family="Helvetica" font-size="12" font-style="italic" lengthAdjust="spacing" textLength="8.0039" x="405.9816" y="189.2402">A</text><line style="stroke:#C6A0F6;stroke-width:2.0;" x1="212.38" x2="410.9855" y1="212" y2="212"/><rect fill="none" height="6" style="stroke:#C82930;stroke-width:1.0;" width="6" x="219.38" y="220.5"/><text fill="#A6DA95" font-family="Helvetica" font-size="12" lengthAdjust="spacing" textLength="175.6055" x="230.38" y="225.2402">@NonNull Lazy&lt;A&gt; lazyInstance</text><line style="stroke:#C6A0F6;stroke-width:2.0;" x1="212.38" x2="410.9855" y1="232" y2="232"/></g><!--class LazyKind--><g id="elem_LazyKind"><rect fill="#24273A" height="46" id="LazyKind" rx="1.5" ry="1.5" style="stroke:#C6A0F6;stroke-width:2.0;" width="95.8203" x="169.78" y="50"/><rect fill="#363A4F" height="30" rx="1.5" ry="1.5" style="stroke:#363A4F;stroke-width:2.0;" width="95.8203" x="169.78" y="50"/><rect fill="#363A4F" height="1.5" style="stroke:#363A4F;stroke-width:2.0;" width="95.8203" x="169.78" y="78.5"/><rect fill="none" height="46" id="LazyKind" rx="1.5" ry="1.5" style="stroke:#C6A0F6;stroke-width:2.0;" width="95.8203" x="169.78" y="50"/><ellipse cx="183.78" cy="65" fill="#B4A7E5" rx="10" ry="10" style="stroke:#181818;stroke-width:1.0;"/><path d="M180.7878,62.2754 L180.7878,60.752 L185.9968,60.752 L185.9968,62.2754 L184.2566,62.2754 L184.2566,67.9766 L185.9968,67.9766 L185.9968,69.5 L180.7878,69.5 L180.7878,67.9766 L182.528,67.9766 L182.528,62.2754 Z " fill="#CAD3F5"/><text fill="#A6DA95" font-family="Helvetica" font-size="16" font-style="italic" lengthAdjust="spacing" textLength="65.8203" x="196.78" y="69.3203">LazyKind</text><line style="stroke:#C6A0F6;stroke-width:2.0;" x1="170.78" x2="264.6003" y1="80" y2="80"/><line style="stroke:#C6A0F6;stroke-width:2.0;" x1="170.78" x2="264.6003" y1="88" y2="88"/></g><!--class Kind--><g id="elem_Kind"><rect codeLine="3" fill="#24273A" height="54" id="Kind" rx="1.5" ry="1.5" style="stroke:#C6A0F6;stroke-width:2.0;" width="127.3711" x="7" y="46"/><rect fill="#363A4F" height="38" rx="1.5" ry="1.5" style="stroke:#363A4F;stroke-width:2.0;" width="127.3711" x="7" y="46"/><rect fill="#363A4F" height="1.5" style="stroke:#363A4F;stroke-width:2.0;" width="127.3711" x="7" y="82.5"/><rect codeLine="3" fill="none" height="54" id="Kind" rx="1.5" ry="1.5" style="stroke:#C6A0F6;stroke-width:2.0;" width="127.3711" x="7" y="46"/><ellipse cx="21" cy="65" fill="#B4A7E5" rx="10" ry="10" style="stroke:#181818;stroke-width:1.0;"/><path d="M18.0078,62.2754 L18.0078,60.752 L23.2168,60.752 L23.2168,62.2754 L21.4766,62.2754 L21.4766,67.9766 L23.2168,67.9766 L23.2168,69.5 L18.0078,69.5 L18.0078,67.9766 L19.748,67.9766 L19.748,62.2754 Z " fill="#CAD3F5"/><text fill="#CAD3F5" font-family="Helvetica" font-size="12" font-style="italic" lengthAdjust="spacing" textLength="75.3691" x="32" y="60.2402">&#171;HKT Bridge&#187;</text><text fill="#A6DA95" font-family="Helvetica" font-size="16" font-style="italic" lengthAdjust="spacing" textLength="32.0234" x="53.6729" y="75.3203">Kind</text><rect fill="#24273A" height="14" style="stroke:#C6A0F6;stroke-width:1.0;stroke-dasharray:2.0,2.0;" width="24.002" x="113.3691" y="43"/><text fill="#CAD3F5" font-family="Helvetica" font-size="12" font-style="italic" lengthAdjust="spacing" textLength="22.002" x="114.3691" y="53.2402">F, A</text><line style="stroke:#C6A0F6;stroke-width:2.0;" x1="8" x2="133.3711" y1="84" y2="84"/><line style="stroke:#C6A0F6;stroke-width:2.0;" x1="8" x2="133.3711" y1="92" y2="92"/></g><!--class LazyKind--><g id="elem_LazyKind"><rect codeLine="5" fill="#24273A" height="46" id="LazyKind" rx="1.5" ry="1.5" style="stroke:#C6A0F6;stroke-width:2.0;" width="107.8242" x="16.77" y="188"/><rect fill="#363A4F" height="30" rx="1.5" ry="1.5" style="stroke:#363A4F;stroke-width:2.0;" width="107.8242" x="16.77" y="188"/><rect fill="#363A4F" height="1.5" style="stroke:#363A4F;stroke-width:2.0;" width="107.8242" x="16.77" y="216.5"/><rect codeLine="5" fill="none" height="46" id="LazyKind" rx="1.5" ry="1.5" style="stroke:#C6A0F6;stroke-width:2.0;" width="107.8242" x="16.77" y="188"/><ellipse cx="30.77" cy="203" fill="#B4A7E5" rx="10" ry="10" style="stroke:#181818;stroke-width:1.0;"/><path d="M27.7778,200.2754 L27.7778,198.752 L32.9868,198.752 L32.9868,200.2754 L31.2466,200.2754 L31.2466,205.9766 L32.9868,205.9766 L32.9868,207.5 L27.7778,207.5 L27.7778,205.9766 L29.518,205.9766 L29.518,200.2754 Z " fill="#CAD3F5"/><text fill="#A6DA95" font-family="Helvetica" font-size="16" font-style="italic" lengthAdjust="spacing" textLength="65.8203" x="43.77" y="207.3203">LazyKind</text><rect fill="#24273A" height="14" style="stroke:#C6A0F6;stroke-width:1.0;stroke-dasharray:2.0,2.0;" width="10.0039" x="117.5903" y="185"/><text fill="#CAD3F5" font-family="Helvetica" font-size="12" font-style="italic" lengthAdjust="spacing" textLength="8.0039" x="118.5903" y="195.2402">A</text><line style="stroke:#C6A0F6;stroke-width:2.0;" x1="17.77" x2="123.5942" y1="218" y2="218"/><line style="stroke:#C6A0F6;stroke-width:2.0;" x1="17.77" x2="123.5942" y1="226" y2="226"/></g><!--class Lazy--><g id="elem_Lazy"><rect codeLine="9" fill="#24273A" height="46" id="Lazy" rx="1.5" ry="1.5" style="stroke:#C6A0F6;stroke-width:2.0;" width="75.8008" x="387.79" y="316"/><rect fill="#363A4F" height="30" rx="1.5" ry="1.5" style="stroke:#363A4F;stroke-width:2.0;" width="75.8008" x="387.79" y="316"/><rect fill="#363A4F" height="1.5" style="stroke:#363A4F;stroke-width:2.0;" width="75.8008" x="387.79" y="344.5"/><rect codeLine="9" fill="none" height="46" id="Lazy" rx="1.5" ry="1.5" style="stroke:#C6A0F6;stroke-width:2.0;" width="75.8008" x="387.79" y="316"/><ellipse cx="401.79" cy="331" fill="#ADD1B2" rx="10" ry="10" style="stroke:#181818;stroke-width:1.0;"/><path d="M403.624,335.248 Q403.2138,335.459 402.7627,335.5645 Q402.3115,335.6699 401.8134,335.6699 Q400.0439,335.6699 399.1123,334.5039 Q398.1806,333.3379 398.1806,331.1348 Q398.1806,328.9258 399.1123,327.7598 Q400.0439,326.5938 401.8134,326.5938 Q402.3115,326.5938 402.7685,326.6992 Q403.2255,326.8047 403.624,327.0156 L403.624,328.9375 Q403.1787,328.5273 402.7597,328.3369 Q402.3408,328.1465 401.8955,328.1465 Q400.9463,328.1465 400.4629,328.8994 Q399.9795,329.6523 399.9795,331.1348 Q399.9795,332.6113 400.4629,333.3643 Q400.9463,334.1172 401.8955,334.1172 Q402.3408,334.1172 402.7597,333.9268 Q403.1787,333.7363 403.624,333.3262 Z " fill="#CAD3F5"/><text fill="#A6DA95" font-family="Helvetica" font-size="16" lengthAdjust="spacing" textLength="33.7969" x="414.79" y="335.3203">Lazy</text><rect fill="#24273A" height="14" style="stroke:#C6A0F6;stroke-width:1.0;stroke-dasharray:2.0,2.0;" width="10.0039" x="456.5869" y="313"/><text fill="#CAD3F5" font-family="Helvetica" font-size="12" font-style="italic" lengthAdjust="spacing" textLength="8.0039" x="457.5869" y="323.2402">A</text><line style="stroke:#C6A0F6;stroke-width:2.0;" x1="388.79" x2="462.5908" y1="346" y2="346"/><line style="stroke:#C6A0F6;stroke-width:2.0;" x1="388.79" x2="462.5908" y1="354" y2="354"/></g><!--reverse link Kind to LazyKind--><g id="link_Kind_LazyKind"><path d="M70.69,118.22 C70.69,143.69 70.69,163.94 70.69,187.9 " fill="none" id="Kind-backto-LazyKind" style="stroke:#F5BDE6;stroke-width:1.0;"/><polygon fill="none" points="70.69,100.22,64.69,118.22,76.69,118.22,70.69,100.22" style="stroke:#F5BDE6;stroke-width:1.0;"/></g><!--reverse link LazyKind to LazyHolder--><g id="link_LazyKind_LazyHolder"><path d="M243.4416,111.2693 C259.6016,134.6593 274.73,156.54 292.23,181.85 " fill="none" id="LazyKind-backto-LazyHolder" style="stroke:#F5BDE6;stroke-width:1.0;stroke-dasharray:7.0,7.0;"/><polygon fill="none" points="233.21,96.46,238.5052,114.6798,248.378,107.8587,233.21,96.46" style="stroke:#F5BDE6;stroke-width:1.0;"/></g><!--link LazyKindHelper to LazyHolder--><g id="link_LazyKindHelper_LazyHolder"><path codeLine="24" d="M438.79,108.32 C410.46,130.98 378.4642,156.5705 351.8042,177.9105 " fill="none" id="LazyKindHelper-to-LazyHolder" style="stroke:#F5BDE6;stroke-width:1.0;stroke-dasharray:7.0,7.0;"/><polygon fill="#F5BDE6" points="347.12,181.66,356.6459,179.1586,351.0235,178.5355,351.6466,172.913,347.12,181.66" style="stroke:#F5BDE6;stroke-width:1.0;"/><text fill="#CAD3F5" font-family="Helvetica" font-size="12" lengthAdjust="spacing" textLength="39.3516" x="397.69" y="148.2402">creates</text></g><!--link LazyKindHelper to Lazy--><g id="link_LazyKindHelper_Lazy"><path codeLine="25" d="M474.42,108.24 C462.76,163.21 441.4356,263.7707 431.6456,309.9007 " fill="none" id="LazyKindHelper-to-Lazy" style="stroke:#F5BDE6;stroke-width:1.0;stroke-dasharray:7.0,7.0;"/><polygon fill="#F5BDE6" points="430.4,315.77,436.1813,307.7965,431.438,310.8789,428.3556,306.1357,430.4,315.77" style="stroke:#F5BDE6;stroke-width:1.0;"/><text fill="#CAD3F5" font-family="Helvetica" font-size="12" lengthAdjust="spacing" textLength="128.0449" x="459.33" y="214.2402">unwraps to / wraps from</text></g><!--link LazyHolder to Lazy--><g id="link_LazyHolder_Lazy"><path codeLine="26" d="M345.3209,249.1785 C365.9309,271.9585 382.4454,290.2 401.4654,311.23 " fill="none" id="LazyHolder-Lazy" style="stroke:#F5BDE6;stroke-width:1.0;"/><polygon fill="none" points="337.27,240.28,338.3293,247.4129,345.3209,249.1785,344.2616,242.0456,337.27,240.28" style="stroke:#F5BDE6;stroke-width:1.0;"/><polygon fill="#F5BDE6" points="405.49,315.68,402.4197,306.322,402.1361,311.9717,396.4864,311.6881,405.49,315.68" style="stroke:#F5BDE6;stroke-width:1.0;"/><text fill="#CAD3F5" font-family="Helvetica" font-size="12" lengthAdjust="spacing" textLength="28.6875" x="376.51" y="282.2402">holds</text></g><!--SRC=[TL7BJiD03BpdAym942IvLoKy3gYe22I4nDaufbcnsLtjEYfGyUyuILjAWLDMuvdnU79W7DckPcX4GfgKPSHbiJ3ITCzTuaZU2JifoBUb8vy4SqCbeOJG4HcNjqZK61IV1ujEkjRcqd3BPOl6bSEp28fcHetY2nB3tBXwUdqAbnLCfxFv8rn5Ko-ugh8TqYr-l0z4PV6RPgZJADmEpgl1OfK17CAJ4SSfmJMSmGuZ-ymoigY37fnkwPSa7Te1X9isM4tf1CLuroi2qYikj1AsWQE6V60IT0kh6GU3Ryj-psoazGE04rYbtea-VvomZ1YEBkwyk-kitOGvtbVi4w1pQw62-6pvpmf6cqEurxOZQ7lYutkv3j-oDBvEHL4eIs_R3J_pjkROxp6R3jAFrED9-UzSLhytJcCxuetlNXr5KUqiWGbGP1HE_pELCzwRG3oKC3vVec_NchMLp_Eje54ewJ_x0W00]--></g></svg>