<svg xmlns="http://www.w3.org/2000/svg" xmlns:xlink="http://www.w3.org/1999/xlink" contentStyleType="text/css" height="375px" preserveAspectRatio="none" style="width:1498px;height:375px;background:#24273A;" version="1.1" viewBox="0 0 1498 375" width="1498px" zoomAndPan="magnify"><defs/><g><rect fill="#24273A" height="375" style="stroke:none;stroke-width:1.0;" width="1498" x="0" y="0"/><!--class Kind--><g id="elem_Kind"><rect codeLine="2" fill="#24273A" height="46" id="Kind" rx="1.5" ry="1.5" style="stroke:#C6A0F6;stroke-width:2.0;" width="88.0254" x="879.97" y="10"/><rect fill="#363A4F" height="30" rx="1.5" ry="1.5" style="stroke:#363A4F;stroke-width:2.0;" width="88.0254" x="879.97" y="10"/><rect fill="#363A4F" height="1.5" style="stroke:#363A4F;stroke-width:2.0;" width="88.0254" x="879.97" y="38.5"/><rect codeLine="2" fill="none" height="46" id="Kind" rx="1.5" ry="1.5" style="stroke:#C6A0F6;stroke-width:2.0;" width="88.0254" x="879.97" y="10"/><ellipse cx="893.97" cy="25" fill="#B4A7E5" rx="10" ry="10" style="stroke:#181818;stroke-width:1.0;"/><path d="M890.9778,22.2754 L890.9778,20.752 L896.1868,20.752 L896.1868,22.2754 L894.4466,22.2754 L894.4466,27.9766 L896.1868,27.9766 L896.1868,29.5 L890.9778,29.5 L890.9778,27.9766 L892.718,27.9766 L892.718,22.2754 Z " fill="#CAD3F5"/><text fill="#A6DA95" font-family="Helvetica" font-size="16" font-style="italic" lengthAdjust="spacing" textLength="32.0234" x="906.97" y="29.3203">Kind</text><rect fill="#24273A" height="14" style="stroke:#C6A0F6;stroke-width:1.0;stroke-dasharray:2.0,2.0;" width="24.002" x="946.9934" y="7"/><text fill="#CAD3F5" font-family="Helvetica" font-size="12" font-style="italic" lengthAdjust="spacing" textLength="22.002" x="947.9934" y="17.2402">F, A</text><line style="stroke:#C6A0F6;stroke-width:2.0;" x1="880.97" x2="966.9954" y1="40" y2="40"/><line style="stroke:#C6A0F6;stroke-width:2.0;" x1="880.97" x2="966.9954" y1="48" y2="48"/></g><!--class LazyKind<A> extends Kind<LazyKind<?>, A>--><g id="elem_LazyKind&lt;A&gt; extends Kind&lt;LazyKind&lt;?&gt;, A&gt;"><rect codeLine="3" fill="#24273A" height="46" id="LazyKind&lt;A&gt; extends Kind&lt;LazyKind&lt;?&gt;, A&gt;" rx="1.5" ry="1.5" style="stroke:#C6A0F6;stroke-width:2.0;" width="353.7891" x="1003.09" y="10"/><rect fill="#363A4F" height="30" rx="1.5" ry="1.5" style="stroke:#363A4F;stroke-width:2.0;" width="353.7891" x="1003.09" y="10"/><rect fill="#363A4F" height="1.5" style="stroke:#363A4F;stroke-width:2.0;" width="353.7891" x="1003.09" y="38.5"/><rect codeLine="3" fill="none" height="46" id="LazyKind&lt;A&gt; extends Kind&lt;LazyKind&lt;?&gt;, A&gt;" rx="1.5" ry="1.5" style="stroke:#C6A0F6;stroke-width:2.0;" width="353.7891" x="1003.09" y="10"/><ellipse cx="1017.09" cy="25" fill="#B4A7E5" rx="10" ry="10" style="stroke:#181818;stroke-width:1.0;"/><path d="M1014.0978,22.2754 L1014.0978,20.752 L1019.3068,20.752 L1019.3068,22.2754 L1017.5666,22.2754 L1017.5666,27.9766 L1019.3068,27.9766 L1019.3068,29.5 L1014.0978,29.5 L1014.0978,27.9766 L1015.838,27.9766 L1015.838,22.2754 Z " fill="#CAD3F5"/><text fill="#A6DA95" font-family="Helvetica" font-size="16" font-style="italic" lengthAdjust="spacing" textLength="323.7891" x="1030.09" y="29.3203">LazyKind&lt;A&gt; extends Kind&lt;LazyKind&lt;?&gt;, A&gt;</text><line style="stroke:#C6A0F6;stroke-width:2.0;" x1="1004.09" x2="1355.8791" y1="40" y2="40"/><line style="stroke:#C6A0F6;stroke-width:2.0;" x1="1004.09" x2="1355.8791" y1="48" y2="48"/></g><!--class Functor--><g id="elem_Functor"><rect codeLine="4" fill="#24273A" height="46" id="Functor" rx="1.5" ry="1.5" style="stroke:#C6A0F6;stroke-width:2.0;" width="95.5723" x="1392.2" y="10"/><rect fill="#363A4F" height="30" rx="1.5" ry="1.5" style="stroke:#363A4F;stroke-width:2.0;" width="95.5723" x="1392.2" y="10"/><rect fill="#363A4F" height="1.5" style="stroke:#363A4F;stroke-width:2.0;" width="95.5723" x="1392.2" y="38.5"/><rect codeLine="4" fill="none" height="46" id="Functor" rx="1.5" ry="1.5" style="stroke:#C6A0F6;stroke-width:2.0;" width="95.5723" x="1392.2" y="10"/><ellipse cx="1406.2" cy="25" fill="#B4A7E5" rx="10" ry="10" style="stroke:#181818;stroke-width:1.0;"/><path d="M1403.2078,22.2754 L1403.2078,20.752 L1408.4168,20.752 L1408.4168,22.2754 L1406.6766,22.2754 L1406.6766,27.9766 L1408.4168,27.9766 L1408.4168,29.5 L1403.2078,29.5 L1403.2078,27.9766 L1404.948,27.9766 L1404.948,22.2754 Z " fill="#CAD3F5"/><text fill="#A6DA95" font-family="Helvetica" font-size="16" font-style="italic" lengthAdjust="spacing" textLength="54.2422" x="1419.2" y="29.3203">Functor</text><rect fill="#24273A" height="14" style="stroke:#C6A0F6;stroke-width:1.0;stroke-dasharray:2.0,2.0;" width="9.3301" x="1481.4422" y="7"/><text fill="#CAD3F5" font-family="Helvetica" font-size="12" font-style="italic" lengthAdjust="spacing" textLength="7.3301" x="1482.4422" y="17.2402">F</text><line style="stroke:#C6A0F6;stroke-width:2.0;" x1="1393.2" x2="1486.7723" y1="40" y2="40"/><line style="stroke:#C6A0F6;stroke-width:2.0;" x1="1393.2" x2="1486.7723" y1="48" y2="48"/></g><!--class Applicative<F> extends Functor<F>--><g id="elem_Applicative&lt;F&gt; extends Functor&lt;F&gt;"><rect codeLine="5" fill="#24273A" height="46" id="Applicative&lt;F&gt; extends Functor&lt;F&gt;" rx="1.5" ry="1.5" style="stroke:#C6A0F6;stroke-width:2.0;" width="283.4688" x="782.25" y="154"/><rect fill="#363A4F" height="30" rx="1.5" ry="1.5" style="stroke:#363A4F;stroke-width:2.0;" width="283.4688" x="782.25" y="154"/><rect fill="#363A4F" height="1.5" style="stroke:#363A4F;stroke-width:2.0;" width="283.4688" x="782.25" y="182.5"/><rect codeLine="5" fill="none" height="46" id="Applicative&lt;F&gt; extends Functor&lt;F&gt;" rx="1.5" ry="1.5" style="stroke:#C6A0F6;stroke-width:2.0;" width="283.4688" x="782.25" y="154"/><ellipse cx="796.25" cy="169" fill="#B4A7E5" rx="10" ry="10" style="stroke:#181818;stroke-width:1.0;"/><path d="M793.2578,166.2754 L793.2578,164.752 L798.4668,164.752 L798.4668,166.2754 L796.7266,166.2754 L796.7266,171.9766 L798.4668,171.9766 L798.4668,173.5 L793.2578,173.5 L793.2578,171.9766 L794.998,171.9766 L794.998,166.2754 Z " fill="#CAD3F5"/><text fill="#A6DA95" font-family="Helvetica" font-size="16" font-style="italic" lengthAdjust="spacing" textLength="253.4688" x="809.25" y="173.3203">Applicative&lt;F&gt; extends Functor&lt;F&gt;</text><line style="stroke:#C6A0F6;stroke-width:2.0;" x1="783.25" x2="1064.7188" y1="184" y2="184"/><line style="stroke:#C6A0F6;stroke-width:2.0;" x1="783.25" x2="1064.7188" y1="192" y2="192"/></g><!--class Monad<F> extends Applicative<F>--><g id="elem_Monad&lt;F&gt; extends Applicative&lt;F&gt;"><rect codeLine="6" fill="#24273A" height="46" id="Monad&lt;F&gt; extends Applicative&lt;F&gt;" rx="1.5" ry="1.5" style="stroke:#C6A0F6;stroke-width:2.0;" width="278.1484" x="1100.91" y="154"/><rect fill="#363A4F" height="30" rx="1.5" ry="1.5" style="stroke:#363A4F;stroke-width:2.0;" width="278.1484" x="1100.91" y="154"/><rect fill="#363A4F" height="1.5" style="stroke:#363A4F;stroke-width:2.0;" width="278.1484" x="1100.91" y="182.5"/><rect codeLine="6" fill="none" height="46" id="Monad&lt;F&gt; extends Applicative&lt;F&gt;" rx="1.5" ry="1.5" style="stroke:#C6A0F6;stroke-width:2.0;" width="278.1484" x="1100.91" y="154"/><ellipse cx="1114.91" cy="169" fill="#B4A7E5" rx="10" ry="10" style="stroke:#181818;stroke-width:1.0;"/><path d="M1111.9178,166.2754 L1111.9178,164.752 L1117.1268,164.752 L1117.1268,166.2754 L1115.3866,166.2754 L1115.3866,171.9766 L1117.1268,171.9766 L1117.1268,173.5 L1111.9178,173.5 L1111.9178,171.9766 L1113.658,171.9766 L1113.658,166.2754 Z " fill="#CAD3F5"/><text fill="#A6DA95" font-family="Helvetica" font-size="16" font-style="italic" lengthAdjust="spacing" textLength="248.1484" x="1127.91" y="173.3203">Monad&lt;F&gt; extends Applicative&lt;F&gt;</text><line style="stroke:#C6A0F6;stroke-width:2.0;" x1="1101.91" x2="1378.0584" y1="184" y2="184"/><line style="stroke:#C6A0F6;stroke-width:2.0;" x1="1101.91" x2="1378.0584" y1="192" y2="192"/></g><!--class LazyKindHelper--><g id="elem_LazyKindHelper"><rect codeLine="8" fill="#24273A" height="70" id="LazyKindHelper" rx="1.5" ry="1.5" style="stroke:#C6A0F6;stroke-width:2.0;" width="232.8105" x="161.58" y="298"/><rect fill="#363A4F" height="30" rx="1.5" ry="1.5" style="stroke:#363A4F;stroke-width:2.0;" width="232.8105" x="161.58" y="298"/><rect fill="#363A4F" height="1.5" style="stroke:#363A4F;stroke-width:2.0;" width="232.8105" x="161.58" y="326.5"/><rect codeLine="8" fill="none" height="70" id="LazyKindHelper" rx="1.5" ry="1.5" style="stroke:#C6A0F6;stroke-width:2.0;" width="232.8105" x="161.58" y="298"/><ellipse cx="217.5087" cy="313" fill="#ADD1B2" rx="10" ry="10" style="stroke:#181818;stroke-width:1.0;"/><path d="M219.3427,317.248 Q218.9325,317.459 218.4814,317.5645 Q218.0302,317.6699 217.5321,317.6699 Q215.7626,317.6699 214.831,316.5039 Q213.8993,315.3379 213.8993,313.1348 Q213.8993,310.9258 214.831,309.7598 Q215.7626,308.5938 217.5321,308.5938 Q218.0302,308.5938 218.4872,308.6992 Q218.9443,308.8047 219.3427,309.0156 L219.3427,310.9375 Q218.8974,310.5273 218.4784,310.3369 Q218.0595,310.1465 217.6142,310.1465 Q216.665,310.1465 216.1816,310.8994 Q215.6982,311.6523 215.6982,313.1348 Q215.6982,314.6113 216.1816,315.3643 Q216.665,316.1172 217.6142,316.1172 Q218.0595,316.1172 218.4784,315.9268 Q218.8974,315.7363 219.3427,315.3262 Z " fill="#CAD3F5"/><text fill="#A6DA95" font-family="Helvetica" font-size="16" lengthAdjust="spacing" textLength="112.9531" x="236.5087" y="317.3203">LazyKindHelper</text><line style="stroke:#C6A0F6;stroke-width:2.0;" x1="162.58" x2="393.3905" y1="328" y2="328"/><line style="stroke:#C6A0F6;stroke-width:2.0;" x1="162.58" x2="393.3905" y1="336" y2="336"/><text fill="#A6DA95" font-family="Helvetica" font-size="12" lengthAdjust="spacing" text-decoration="underline" textLength="156.0879" x="167.58" y="349.2402">LazyKind&lt;A&gt; wrap(Lazy&lt;A&gt;)</text><text fill="#A6DA95" font-family="Helvetica" font-size="12" lengthAdjust="spacing" text-decoration="underline" textLength="220.8105" x="167.58" y="361.2402">Lazy&lt;A&gt; unwrap(Kind&lt;LazyKind&lt;?&gt;, A&gt;)</text></g><!--class LazyMonad--><g id="elem_LazyMonad"><rect codeLine="14" fill="#24273A" height="94" id="LazyMonad" rx="1.5" ry="1.5" style="stroke:#C6A0F6;stroke-width:2.0;" width="739.9668" x="7" y="130"/><rect fill="#363A4F" height="30" rx="1.5" ry="1.5" style="stroke:#363A4F;stroke-width:2.0;" width="739.9668" x="7" y="130"/><rect fill="#363A4F" height="1.5" style="stroke:#363A4F;stroke-width:2.0;" width="739.9668" x="7" y="158.5"/><rect codeLine="14" fill="none" height="94" id="LazyMonad" rx="1.5" ry="1.5" style="stroke:#C6A0F6;stroke-width:2.0;" width="739.9668" x="7" y="130"/><ellipse cx="331.624" cy="145" fill="#ADD1B2" rx="10" ry="10" style="stroke:#181818;stroke-width:1.0;"/><path d="M333.458,149.248 Q333.0479,149.459 332.5967,149.5645 Q332.1455,149.6699 331.6475,149.6699 Q329.8779,149.6699 328.9463,148.5039 Q328.0146,147.3379 328.0146,145.1348 Q328.0146,142.9258 328.9463,141.7598 Q329.8779,140.5938 331.6475,140.5938 Q332.1455,140.5938 332.6025,140.6992 Q333.0596,140.8047 333.458,141.0156 L333.458,142.9375 Q333.0127,142.5273 332.5938,142.3369 Q332.1748,142.1465 331.7295,142.1465 Q330.7803,142.1465 330.2969,142.8994 Q329.8135,143.6523 329.8135,145.1348 Q329.8135,146.6113 330.2969,147.3643 Q330.7803,148.1172 331.7295,148.1172 Q332.1748,148.1172 332.5938,147.9268 Q333.0127,147.7363 333.458,147.3262 Z " fill="#CAD3F5"/><text fill="#A6DA95" font-family="Helvetica" font-size="16" lengthAdjust="spacing" textLength="82.7188" x="350.624" y="149.3203">LazyMonad</text><line style="stroke:#C6A0F6;stroke-width:2.0;" x1="8" x2="745.9668" y1="160" y2="160"/><line style="stroke:#C6A0F6;stroke-width:2.0;" x1="8" x2="745.9668" y1="168" y2="168"/><ellipse cx="18" cy="179.5" fill="#84BE84" rx="3" ry="3" style="stroke:#038048;stroke-width:1.0;"/><text fill="#A6DA95" font-family="Helvetica" font-size="12" lengthAdjust="spacing" textLength="584.2031" x="26" y="181.2402">&lt;A, B&gt; @NonNull Kind&lt;LazyKind&lt;?&gt;, B&gt; map(@NonNull Function&lt;A, B&gt;, @NonNull Kind&lt;LazyKind&lt;?&gt;, A&gt;)</text><ellipse cx="18" cy="191.5" fill="#84BE84" rx="3" ry="3" style="stroke:#038048;stroke-width:1.0;"/><text fill="#A6DA95" font-family="Helvetica" font-size="12" lengthAdjust="spacing" textLength="294.5273" x="26" y="193.2402">&lt;A&gt; @NonNull Kind&lt;LazyKind&lt;?&gt;, A&gt; of(@Nullable A)</text><ellipse cx="18" cy="203.5" fill="#84BE84" rx="3" ry="3" style="stroke:#038048;stroke-width:1.0;"/><text fill="#A6DA95" font-family="Helvetica" font-size="12" lengthAdjust="spacing" textLength="688.9629" x="26" y="205.2402">&lt;A, B&gt; @NonNull Kind&lt;LazyKind&lt;?&gt;, B&gt; ap(@NonNull Kind&lt;LazyKind&lt;?&gt;, Function&lt;A, B&gt;&gt;, @NonNull Kind&lt;LazyKind&lt;?&gt;, A&gt;)</text><ellipse cx="18" cy="215.5" fill="#84BE84" rx="3" ry="3" style="stroke:#038048;stroke-width:1.0;"/><text fill="#A6DA95" font-family="Helvetica" font-size="12" lengthAdjust="spacing" textLength="714.9668" x="26" y="217.2402">&lt;A, B&gt; @NonNull Kind&lt;LazyKind&lt;?&gt;, B&gt; flatMap(@NonNull Function&lt;A, Kind&lt;LazyKind&lt;?&gt;, B&gt;&gt;, @NonNull Kind&lt;LazyKind&lt;?&gt;, A&gt;)</text></g><!--class Monad--><g id="elem_Monad"><rect fill="#24273A" height="46" id="Monad" rx="1.5" ry="1.5" style="stroke:#C6A0F6;stroke-width:2.0;" width="78.9219" x="337.52" y="10"/><rect fill="#363A4F" height="30" rx="1.5" ry="1.5" style="stroke:#363A4F;stroke-width:2.0;" width="78.9219" x="337.52" y="10"/><rect fill="#363A4F" height="1.5" style="stroke:#363A4F;stroke-width:2.0;" width="78.9219" x="337.52" y="38.5"/><rect fill="none" height="46" id="Monad" rx="1.5" ry="1.5" style="stroke:#C6A0F6;stroke-width:2.0;" width="78.9219" x="337.52" y="10"/><ellipse cx="351.52" cy="25" fill="#B4A7E5" rx="10" ry="10" style="stroke:#181818;stroke-width:1.0;"/><path d="M348.5278,22.2754 L348.5278,20.752 L353.7368,20.752 L353.7368,22.2754 L351.9966,22.2754 L351.9966,27.9766 L353.7368,27.9766 L353.7368,29.5 L348.5278,29.5 L348.5278,27.9766 L350.268,27.9766 L350.268,22.2754 Z " fill="#CAD3F5"/><text fill="#A6DA95" font-family="Helvetica" font-size="16" font-style="italic" lengthAdjust="spacing" textLength="48.9219" x="364.52" y="29.3203">Monad</text><line style="stroke:#C6A0F6;stroke-width:2.0;" x1="338.52" x2="415.4419" y1="40" y2="40"/><line style="stroke:#C6A0F6;stroke-width:2.0;" x1="338.52" x2="415.4419" y1="48" y2="48"/></g><!--class LazyKind--><g id="elem_LazyKind"><rect fill="#24273A" height="46" id="LazyKind" rx="1.5" ry="1.5" style="stroke:#C6A0F6;stroke-width:2.0;" width="95.8203" x="429.07" y="310"/><rect fill="#363A4F" height="30" rx="1.5" ry="1.5" style="stroke:#363A4F;stroke-width:2.0;" width="95.8203" x="429.07" y="310"/><rect fill="#363A4F" height="1.5" style="stroke:#363A4F;stroke-width:2.0;" width="95.8203" x="429.07" y="338.5"/><rect fill="none" height="46" id="LazyKind" rx="1.5" ry="1.5" style="stroke:#C6A0F6;stroke-width:2.0;" width="95.8203" x="429.07" y="310"/><ellipse cx="443.07" cy="325" fill="#ADD1B2" rx="10" ry="10" style="stroke:#181818;stroke-width:1.0;"/><path d="M444.904,329.248 Q444.4938,329.459 444.0427,329.5645 Q443.5915,329.6699 443.0934,329.6699 Q441.3239,329.6699 440.3923,328.5039 Q439.4606,327.3379 439.4606,325.1348 Q439.4606,322.9258 440.3923,321.7598 Q441.3239,320.5938 443.0934,320.5938 Q443.5915,320.5938 444.0485,320.6992 Q444.5055,320.8047 444.904,321.0156 L444.904,322.9375 Q444.4587,322.5273 444.0397,322.3369 Q443.6208,322.1465 443.1755,322.1465 Q442.2263,322.1465 441.7429,322.8994 Q441.2595,323.6523 441.2595,325.1348 Q441.2595,326.6113 441.7429,327.3643 Q442.2263,328.1172 443.1755,328.1172 Q443.6208,328.1172 444.0397,327.9268 Q444.4587,327.7363 444.904,327.3262 Z " fill="#CAD3F5"/><text fill="#A6DA95" font-family="Helvetica" font-size="16" lengthAdjust="spacing" textLength="65.8203" x="456.07" y="329.3203">LazyKind</text><line style="stroke:#C6A0F6;stroke-width:2.0;" x1="430.07" x2="523.8903" y1="340" y2="340"/><line style="stroke:#C6A0F6;stroke-width:2.0;" x1="430.07" x2="523.8903" y1="348" y2="348"/></g><!--reverse link Monad to LazyMonad--><g id="link_Monad_LazyMonad"><path d="M370.698,74.2724 C369.368,83.4124 370.64,76.27 369.98,86 C369.03,100.23 369.64,115.72 370.82,129.77 " fill="none" id="Monad-backto-LazyMonad" style="stroke:#F5BDE6;stroke-width:1.0;stroke-dasharray:7.0,7.0;"/><polygon fill="none" points="373.29,56.46,364.7606,73.4084,376.6355,75.1364,373.29,56.46" style="stroke:#F5BDE6;stroke-width:1.0;"/></g><!--reverse link Monad to LazyMonad--><g id="link_Monad_LazyMonad"><path codeLine="21" d="M376.98,74.19 C376.98,93.77 376.98,104.94 376.98,129.6 " fill="none" id="Monad-backto-LazyMonad-1" style="stroke:#F5BDE6;stroke-width:1.0;stroke-dasharray:7.0,7.0;"/><polygon fill="none" points="376.98,56.19,370.98,74.19,382.98,74.19,376.98,56.19" style="stroke:#F5BDE6;stroke-width:1.0;"/><text fill="#CAD3F5" font-family="Helvetica" font-size="12" lengthAdjust="spacing" textLength="61.3535" x="377.98" y="96.2402">implements</text></g><!--link LazyMonad to LazyKindHelper--><g id="link_LazyMonad_LazyKindHelper"><path codeLine="22" d="M347.28,224.21 C332.13,247.77 317.2654,270.9035 303.3554,292.5335 " fill="none" id="LazyMonad-to-LazyKindHelper" style="stroke:#F5BDE6;stroke-width:1.0;stroke-dasharray:7.0,7.0;"/><polygon fill="#F5BDE6" points="300.11,297.58,308.3424,292.1738,302.8145,293.3745,301.6137,287.8466,300.11,297.58" style="stroke:#F5BDE6;stroke-width:1.0;"/><text fill="#CAD3F5" font-family="Helvetica" font-size="12" lengthAdjust="spacing" textLength="25.3477" x="328.48" y="264.2402">uses</text></g><!--link LazyMonad to LazyKind--><g id="link_LazyMonad_LazyKind"><path codeLine="23" d="M406.99,224.21 C425.4,252.56 444.8725,282.5477 459.3325,304.8177 " fill="none" id="LazyMonad-to-LazyKind" style="stroke:#F5BDE6;stroke-width:1.0;stroke-dasharray:7.0,7.0;"/><polygon fill="#F5BDE6" points="462.6,309.85,461.0536,300.1233,459.8771,305.6564,454.344,304.4799,462.6,309.85" style="stroke:#F5BDE6;stroke-width:1.0;"/><text fill="#CAD3F5" font-family="Helvetica" font-size="12" lengthAdjust="spacing" textLength="63.3809" x="433.97" y="264.2402">operates on</text></g><!--SRC=[ZPFTKi8m48Nl-nHhRvIHflSC4wqNZ3CAxn3IO3EJlsaIKP5tTzkE412GkpRdExidk-sDD5p5Ma0JWlEJicpPchp9qCHbzABbrWHX0k5MbuPR7rWXUSbPS2voBasX6UUDPC4MJZ4JebP5Q8GMfMRIbFqZSNYQIIpKhXWNy29DFPsDeQB9OVxAlZvxfQ8WFh1fxGTo9ppGpfCdfbaqFDXsEZkeL3cd94QKxmALNR4zd9R8vzQmEkKExNcMSSMyXzyOpq8vqS8cWmrE8qY-XJJwkcNkhZl0bz4Hq-dHzCIfco5-2uIGR9lsxFE1r4xXA4tmC0HElBGBSm_JQWnF51uNrYoYKYU6Xwh6tZkYduYqPd2EBrdxT5qFUfa2kyBwgBAb4b2DhWwMvleB72QzCkeLNLUAXVcvaPno_DyQbxTV6udacmuRWqcon1GXzFZRcW3-UkSOL2r2B0WFrcG_]--></g></svg>