<svg xmlns="http://www.w3.org/2000/svg" xmlns:xlink="http://www.w3.org/1999/xlink" contentStyleType="text/css" height="369px" preserveAspectRatio="none" style="width:798px;height:369px;background:#24273A;" version="1.1" viewBox="0 0 798 369" width="798px" zoomAndPan="magnify"><defs/><g><rect fill="#24273A" height="369" style="stroke:none;stroke-width:1.0;" width="798" x="0" y="0"/><!--cluster helper--><g id="cluster_helper"><rect fill="#363A4F" height="249" rx="1.5" ry="1.5" style="stroke:#CAD3F5;stroke-width:1.0;" width="551" x="241.71" y="7"/><text fill="#CAD3F5" font-family="Helvetica" font-size="12" font-weight="bold" lengthAdjust="spacing" textLength="36.0117" x="499.2041" y="18.2402">helper</text></g><!--class LazyKindHelper--><g id="elem_LazyKindHelper"><rect codeLine="14" fill="#24273A" height="70" id="LazyKindHelper" rx="1.5" ry="1.5" style="stroke:#C6A0F6;stroke-width:2.0;" width="388.2051" x="388.6" y="38"/><rect fill="#363A4F" height="30" rx="1.5" ry="1.5" style="stroke:#363A4F;stroke-width:2.0;" width="388.2051" x="388.6" y="38"/><rect fill="#363A4F" height="1.5" style="stroke:#363A4F;stroke-width:2.0;" width="388.2051" x="388.6" y="66.5"/><rect codeLine="14" fill="none" height="70" id="LazyKindHelper" rx="1.5" ry="1.5" style="stroke:#C6A0F6;stroke-width:2.0;" width="388.2051" x="388.6" y="38"/><ellipse cx="522.226" cy="53" fill="#ADD1B2" rx="10" ry="10" style="stroke:#181818;stroke-width:1.0;"/><path d="M524.06,57.248 Q523.6498,57.459 523.1986,57.5645 Q522.7475,57.6699 522.2494,57.6699 Q520.4799,57.6699 519.5482,56.5039 Q518.6166,55.3379 518.6166,53.1348 Q518.6166,50.9258 519.5482,49.7598 Q520.4799,48.5938 522.2494,48.5938 Q522.7475,48.5938 523.2045,48.6992 Q523.6615,48.8047 524.06,49.0156 L524.06,50.9375 Q523.6146,50.5273 523.1957,50.3369 Q522.7768,50.1465 522.3314,50.1465 Q521.3822,50.1465 520.8988,50.8994 Q520.4154,51.6523 520.4154,53.1348 Q520.4154,54.6113 520.8988,55.3643 Q521.3822,56.1172 522.3314,56.1172 Q522.7768,56.1172 523.1957,55.9268 Q523.6146,55.7363 524.06,55.3262 Z " fill="#CAD3F5"/><text fill="#A6DA95" font-family="Helvetica" font-size="16" lengthAdjust="spacing" textLength="112.9531" x="541.226" y="57.3203">LazyKindHelper</text><line style="stroke:#C6A0F6;stroke-width:2.0;" x1="389.6" x2="775.8051" y1="68" y2="68"/><line style="stroke:#C6A0F6;stroke-width:2.0;" x1="389.6" x2="775.8051" y1="76" y2="76"/><ellipse cx="399.6" cy="87.5" fill="#84BE84" rx="3" ry="3" style="stroke:#038048;stroke-width:1.0;"/><text fill="#A6DA95" font-family="Helvetica" font-size="12" lengthAdjust="spacing" text-decoration="underline" textLength="214.2891" x="407.6" y="89.2402">LazyKind&lt;A&gt; wrap(@NonNull Lazy&lt;A&gt;)</text><ellipse cx="399.6" cy="99.5" fill="#84BE84" rx="3" ry="3" style="stroke:#038048;stroke-width:1.0;"/><text fill="#A6DA95" font-family="Helvetica" font-size="12" lengthAdjust="spacing" text-decoration="underline" textLength="363.2051" x="407.6" y="101.2402">@NonNull Lazy&lt;A&gt; unwrap(@Nullable Kind&lt;LazyKind.Witness, A&gt;)</text></g><!--class LazyHolder--><g id="elem_LazyHolder"><rect codeLine="20" fill="#24273A" height="58" id="LazyHolder" rx="1.5" ry="1.5" style="stroke:#C6A0F6;stroke-width:2.0;" width="200.6055" x="272.4" y="182"/><rect fill="#363A4F" height="30" rx="1.5" ry="1.5" style="stroke:#363A4F;stroke-width:2.0;" width="200.6055" x="272.4" y="182"/><rect fill="#363A4F" height="1.5" style="stroke:#363A4F;stroke-width:2.0;" width="200.6055" x="272.4" y="210.5"/><rect codeLine="20" fill="none" height="58" id="LazyHolder" rx="1.5" ry="1.5" style="stroke:#C6A0F6;stroke-width:2.0;" width="200.6055" x="272.4" y="182"/><ellipse cx="322.2359" cy="197" fill="#ADD1B2" rx="10" ry="10" style="stroke:#181818;stroke-width:1.0;"/><path d="M324.0699,201.248 Q323.6598,201.459 323.2086,201.5645 Q322.7574,201.6699 322.2594,201.6699 Q320.4898,201.6699 319.5582,200.5039 Q318.6266,199.3379 318.6266,197.1348 Q318.6266,194.9258 319.5582,193.7598 Q320.4898,192.5938 322.2594,192.5938 Q322.7574,192.5938 323.2145,192.6992 Q323.6715,192.8047 324.0699,193.0156 L324.0699,194.9375 Q323.6246,194.5273 323.2057,194.3369 Q322.7867,194.1465 322.3414,194.1465 Q321.3922,194.1465 320.9088,194.8994 Q320.4254,195.6523 320.4254,197.1348 Q320.4254,198.6113 320.9088,199.3643 Q321.3922,200.1172 322.3414,200.1172 Q322.7867,200.1172 323.2057,199.9268 Q323.6246,199.7363 324.0699,199.3262 Z " fill="#CAD3F5"/><text fill="#A6DA95" font-family="Helvetica" font-size="16" lengthAdjust="spacing" textLength="80.9297" x="341.2359" y="201.3203">LazyHolder</text><rect fill="#24273A" height="14" style="stroke:#C6A0F6;stroke-width:1.0;stroke-dasharray:2.0,2.0;" width="10.0039" x="466.0016" y="179"/><text fill="#CAD3F5" font-family="Helvetica" font-size="12" font-style="italic" lengthAdjust="spacing" textLength="8.0039" x="467.0016" y="189.2402">A</text><line style="stroke:#C6A0F6;stroke-width:2.0;" x1="273.4" x2="472.0055" y1="212" y2="212"/><rect fill="none" height="6" style="stroke:#C82930;stroke-width:1.0;" width="6" x="280.4" y="220.5"/><text fill="#A6DA95" font-family="Helvetica" font-size="12" lengthAdjust="spacing" textLength="175.6055" x="291.4" y="225.2402">@NonNull Lazy&lt;A&gt; lazyInstance</text><line style="stroke:#C6A0F6;stroke-width:2.0;" x1="273.4" x2="472.0055" y1="232" y2="232"/></g><!--class LazyKind--><g id="elem_LazyKind"><rect fill="#24273A" height="46" id="LazyKind" rx="1.5" ry="1.5" style="stroke:#C6A0F6;stroke-width:2.0;" width="95.8203" x="257.8" y="50"/><rect fill="#363A4F" height="30" rx="1.5" ry="1.5" style="stroke:#363A4F;stroke-width:2.0;" width="95.8203" x="257.8" y="50"/><rect fill="#363A4F" height="1.5" style="stroke:#363A4F;stroke-width:2.0;" width="95.8203" x="257.8" y="78.5"/><rect fill="none" height="46" id="LazyKind" rx="1.5" ry="1.5" style="stroke:#C6A0F6;stroke-width:2.0;" width="95.8203" x="257.8" y="50"/><ellipse cx="271.8" cy="65" fill="#B4A7E5" rx="10" ry="10" style="stroke:#181818;stroke-width:1.0;"/><path d="M268.8078,62.2754 L268.8078,60.752 L274.0168,60.752 L274.0168,62.2754 L272.2766,62.2754 L272.2766,67.9766 L274.0168,67.9766 L274.0168,69.5 L268.8078,69.5 L268.8078,67.9766 L270.548,67.9766 L270.548,62.2754 Z " fill="#CAD3F5"/><text fill="#A6DA95" font-family="Helvetica" font-size="16" font-style="italic" lengthAdjust="spacing" textLength="65.8203" x="284.8" y="69.3203">LazyKind</text><line style="stroke:#C6A0F6;stroke-width:2.0;" x1="258.8" x2="352.6203" y1="80" y2="80"/><line style="stroke:#C6A0F6;stroke-width:2.0;" x1="258.8" x2="352.6203" y1="88" y2="88"/></g><!--class Kind--><g id="elem_Kind"><rect codeLine="3" fill="#24273A" height="54" id="Kind" rx="1.5" ry="1.5" style="stroke:#C6A0F6;stroke-width:2.0;" width="215.4141" x="7" y="46"/><rect fill="#363A4F" height="38" rx="1.5" ry="1.5" style="stroke:#363A4F;stroke-width:2.0;" width="215.4141" x="7" y="46"/><rect fill="#363A4F" height="1.5" style="stroke:#363A4F;stroke-width:2.0;" width="215.4141" x="7" y="82.5"/><rect codeLine="3" fill="none" height="54" id="Kind" rx="1.5" ry="1.5" style="stroke:#C6A0F6;stroke-width:2.0;" width="215.4141" x="7" y="46"/><ellipse cx="21" cy="65" fill="#B4A7E5" rx="10" ry="10" style="stroke:#181818;stroke-width:1.0;"/><path d="M18.0078,62.2754 L18.0078,60.752 L23.2168,60.752 L23.2168,62.2754 L21.4766,62.2754 L21.4766,67.9766 L23.2168,67.9766 L23.2168,69.5 L18.0078,69.5 L18.0078,67.9766 L19.748,67.9766 L19.748,62.2754 Z " fill="#CAD3F5"/><text fill="#CAD3F5" font-family="Helvetica" font-size="12" font-style="italic" lengthAdjust="spacing" textLength="75.3691" x="32" y="60.2402">&#171;HKT Bridge&#187;</text><text fill="#A6DA95" font-family="Helvetica" font-size="16" font-style="italic" lengthAdjust="spacing" textLength="32.0234" x="53.6729" y="75.3203">Kind</text><rect fill="#24273A" height="14" style="stroke:#C6A0F6;stroke-width:1.0;stroke-dasharray:2.0,2.0;" width="112.0449" x="113.3691" y="43"/><text fill="#CAD3F5" font-family="Helvetica" font-size="12" font-style="italic" lengthAdjust="spacing" textLength="110.0449" x="114.3691" y="53.2402">LazyKind.Witness, A</text><line style="stroke:#C6A0F6;stroke-width:2.0;" x1="8" x2="221.4141" y1="84" y2="84"/><line style="stroke:#C6A0F6;stroke-width:2.0;" x1="8" x2="221.4141" y1="92" y2="92"/></g><!--class LazyKind--><g id="elem_LazyKind"><rect codeLine="5" fill="#24273A" height="46" id="LazyKind" rx="1.5" ry="1.5" style="stroke:#C6A0F6;stroke-width:2.0;" width="107.8242" x="102.79" y="188"/><rect fill="#363A4F" height="30" rx="1.5" ry="1.5" style="stroke:#363A4F;stroke-width:2.0;" width="107.8242" x="102.79" y="188"/><rect fill="#363A4F" height="1.5" style="stroke:#363A4F;stroke-width:2.0;" width="107.8242" x="102.79" y="216.5"/><rect codeLine="5" fill="none" height="46" id="LazyKind" rx="1.5" ry="1.5" style="stroke:#C6A0F6;stroke-width:2.0;" width="107.8242" x="102.79" y="188"/><ellipse cx="116.79" cy="203" fill="#B4A7E5" rx="10" ry="10" style="stroke:#181818;stroke-width:1.0;"/><path d="M113.7978,200.2754 L113.7978,198.752 L119.0068,198.752 L119.0068,200.2754 L117.2666,200.2754 L117.2666,205.9766 L119.0068,205.9766 L119.0068,207.5 L113.7978,207.5 L113.7978,205.9766 L115.538,205.9766 L115.538,200.2754 Z " fill="#CAD3F5"/><text fill="#A6DA95" font-family="Helvetica" font-size="16" font-style="italic" lengthAdjust="spacing" textLength="65.8203" x="129.79" y="207.3203">LazyKind</text><rect fill="#24273A" height="14" style="stroke:#C6A0F6;stroke-width:1.0;stroke-dasharray:2.0,2.0;" width="10.0039" x="203.6103" y="185"/><text fill="#CAD3F5" font-family="Helvetica" font-size="12" font-style="italic" lengthAdjust="spacing" textLength="8.0039" x="204.6103" y="195.2402">A</text><line style="stroke:#C6A0F6;stroke-width:2.0;" x1="103.79" x2="209.6142" y1="218" y2="218"/><line style="stroke:#C6A0F6;stroke-width:2.0;" x1="103.79" x2="209.6142" y1="226" y2="226"/></g><!--class Lazy--><g id="elem_Lazy"><rect codeLine="9" fill="#24273A" height="46" id="Lazy" rx="1.5" ry="1.5" style="stroke:#C6A0F6;stroke-width:2.0;" width="75.8008" x="334.81" y="316"/><rect fill="#363A4F" height="30" rx="1.5" ry="1.5" style="stroke:#363A4F;stroke-width:2.0;" width="75.8008" x="334.81" y="316"/><rect fill="#363A4F" height="1.5" style="stroke:#363A4F;stroke-width:2.0;" width="75.8008" x="334.81" y="344.5"/><rect codeLine="9" fill="none" height="46" id="Lazy" rx="1.5" ry="1.5" style="stroke:#C6A0F6;stroke-width:2.0;" width="75.8008" x="334.81" y="316"/><ellipse cx="348.81" cy="331" fill="#ADD1B2" rx="10" ry="10" style="stroke:#181818;stroke-width:1.0;"/><path d="M350.644,335.248 Q350.2338,335.459 349.7827,335.5645 Q349.3315,335.6699 348.8334,335.6699 Q347.0639,335.6699 346.1323,334.5039 Q345.2006,333.3379 345.2006,331.1348 Q345.2006,328.9258 346.1323,327.7598 Q347.0639,326.5938 348.8334,326.5938 Q349.3315,326.5938 349.7885,326.6992 Q350.2455,326.8047 350.644,327.0156 L350.644,328.9375 Q350.1987,328.5273 349.7797,328.3369 Q349.3608,328.1465 348.9155,328.1465 Q347.9663,328.1465 347.4829,328.8994 Q346.9995,329.6523 346.9995,331.1348 Q346.9995,332.6113 347.4829,333.3643 Q347.9663,334.1172 348.9155,334.1172 Q349.3608,334.1172 349.7797,333.9268 Q350.1987,333.7363 350.644,333.3262 Z " fill="#CAD3F5"/><text fill="#A6DA95" font-family="Helvetica" font-size="16" lengthAdjust="spacing" textLength="33.7969" x="361.81" y="335.3203">Lazy</text><rect fill="#24273A" height="14" style="stroke:#C6A0F6;stroke-width:1.0;stroke-dasharray:2.0,2.0;" width="10.0039" x="403.6069" y="313"/><text fill="#CAD3F5" font-family="Helvetica" font-size="12" font-style="italic" lengthAdjust="spacing" textLength="8.0039" x="404.6069" y="323.2402">A</text><line style="stroke:#C6A0F6;stroke-width:2.0;" x1="335.81" x2="409.6108" y1="346" y2="346"/><line style="stroke:#C6A0F6;stroke-width:2.0;" x1="335.81" x2="409.6108" y1="354" y2="354"/></g><!--reverse link Kind to LazyKind--><g id="link_Kind_LazyKind"><path d="M128.1178,117.4196 C135.9778,142.8896 142.48,163.94 149.88,187.9 " fill="none" id="Kind-backto-LazyKind" style="stroke:#F5BDE6;stroke-width:1.0;"/><polygon fill="none" points="122.81,100.22,122.3846,119.1889,133.851,115.6504,122.81,100.22" style="stroke:#F5BDE6;stroke-width:1.0;"/></g><!--reverse link LazyKind to Lazy--><g id="link_LazyKind_Lazy"><path d="M207.8446,243.7322 C222.9546,253.0422 225.45,254.44 241.71,264 C272.67,282.21 308.16,302.2 334.39,316.81 " fill="none" id="LazyKind-backto-Lazy" style="stroke:#F5BDE6;stroke-width:1.0;stroke-dasharray:7.0,7.0;"/><polygon fill="none" points="192.52,234.29,204.6972,248.8404,210.992,238.624,192.52,234.29" style="stroke:#F5BDE6;stroke-width:1.0;"/></g><!--reverse link LazyKind to LazyHolder--><g id="link_LazyKind_LazyHolder"><path d="M324.723,112.6077 C336.243,135.9977 346.37,156.54 358.84,181.85 " fill="none" id="LazyKind-backto-LazyHolder" style="stroke:#F5BDE6;stroke-width:1.0;stroke-dasharray:7.0,7.0;"/><polygon fill="none" points="316.77,96.46,319.3405,115.2587,330.1056,109.9567,316.77,96.46" style="stroke:#F5BDE6;stroke-width:1.0;"/></g><!--link LazyKindHelper to LazyHolder--><g id="link_LazyKindHelper_LazyHolder"><path codeLine="24" d="M529.44,108.49 C494.57,131.08 454.5755,156.9776 421.7455,178.2476 " fill="none" id="LazyKindHelper-to-LazyHolder" style="stroke:#F5BDE6;stroke-width:1.0;stroke-dasharray:7.0,7.0;"/><polygon fill="#F5BDE6" points="416.71,181.51,426.4382,179.9734,420.9063,178.7913,422.0883,173.2593,416.71,181.51" style="stroke:#F5BDE6;stroke-width:1.0;"/><text fill="#CAD3F5" font-family="Helvetica" font-size="12" lengthAdjust="spacing" textLength="39.3516" x="478.71" y="148.2402">creates</text></g><!--link LazyKindHelper to Lazy--><g id="link_LazyKindHelper_Lazy"><path codeLine="25" d="M572.61,108.21 C559.22,149.04 532.29,217.61 490.71,264 C468.51,288.76 441.4742,305.5621 416.2442,318.3221 " fill="none" id="LazyKindHelper-to-Lazy" style="stroke:#F5BDE6;stroke-width:1.0;stroke-dasharray:7.0,7.0;"/><polygon fill="#F5BDE6" points="410.89,321.03,420.7265,320.5377,415.3518,318.7734,417.1161,313.3987,410.89,321.03" style="stroke:#F5BDE6;stroke-width:1.0;"/><text fill="#CAD3F5" font-family="Helvetica" font-size="12" lengthAdjust="spacing" textLength="128.0449" x="543.39" y="214.2402">unwraps to / wraps from</text></g><!--link LazyHolder to Lazy--><g id="link_LazyHolder_Lazy"><path codeLine="26" d="M372.71,252.28 C372.71,275.06 372.71,288.65 372.71,309.68 " fill="none" id="LazyHolder-Lazy" style="stroke:#F5BDE6;stroke-width:1.0;"/><polygon fill="none" points="372.71,240.28,368.71,246.28,372.71,252.28,376.71,246.28,372.71,240.28" style="stroke:#F5BDE6;stroke-width:1.0;"/><polygon fill="#F5BDE6" points="372.71,315.68,376.71,306.68,372.71,310.68,368.71,306.68,372.71,315.68" style="stroke:#F5BDE6;stroke-width:1.0;"/><text fill="#CAD3F5" font-family="Helvetica" font-size="12" lengthAdjust="spacing" textLength="28.6875" x="373.71" y="282.2402">holds</text></g><!--SRC=[VL9DJyCm3BttLvWJ86XwHsC23cW81192ukovPer8aoXnnPVstt7N3iRGTgfbFp-_zz83wybrDKCZ4lDPLILyCmihJJVlCYSANjYBeT1Mda8MB2rLX19ZHsHzsI9HOr526HrwwLfNIiCjLorQNwrA4xLRM2LABqWCjzRNaply_EWBysp5SywdS3c5oMHs-mHNoTOBdawBZPqrVA8eVbT9TTx3yrK07CBOWMiuXsrOiImASgZJVjApsZOw5UibRnuRc2v9EdIhFjoiSIWs-9ud8htYGXDa5pcfYKScGRzmwc4bvVTGppeROFq0u0I-Siz4opyMtnB6eulxuEyxvzOIZxStjW7G-N5HcpXtUw8Uk0xXGLyeWKOi8NrKeuEMfGbrDiOeIWrkEfW5LtFQ7TZeg_mlpkdtngjsJxpctSh4cEd64JW3Iep2UJTICOFf31AWWg5yIQ4TTqQgK9O_2uss-X_W6m00]--></g></svg>