<svg xmlns="http://www.w3.org/2000/svg" xmlns:xlink="http://www.w3.org/1999/xlink" contentStyleType="text/css" height="404px" preserveAspectRatio="none" style="width:1462px;height:404px;background:#24273A;" version="1.1" viewBox="0 0 1462 404" width="1462px" zoomAndPan="magnify"><defs/><g><rect fill="#24273A" height="404" style="stroke:none;stroke-width:1.0;" width="1462" x="0" y="0"/><!--cluster LazyKind<A> extends Kind<LazyKind--><g id="cluster_LazyKind&lt;A&gt; extends Kind&lt;LazyKind"><path d="M1194.46,6 L1412.5049,6 A2.25,2.25 0 0 1 1414.0049,7.5 L1421.0049,24 L1422.46,24 A1.5,1.5 0 0 1 1423.96,25.5 L1423.96,97.5 A1.5,1.5 0 0 1 1422.46,99 L1194.46,99 A1.5,1.5 0 0 1 1192.96,97.5 L1192.96,7.5 A1.5,1.5 0 0 1 1194.46,6 " fill="#24273A" style="stroke:#CAD3F5;stroke-width:1.5;"/><line style="stroke:#CAD3F5;stroke-width:1.5;" x1="1192.96" x2="1421.0049" y1="24" y2="24"/><text fill="#CAD3F5" font-family="Helvetica" font-size="12" font-weight="bold" lengthAdjust="spacing" textLength="215.0449" x="1196.96" y="17.2402">LazyKind&lt;A&gt; extends Kind&lt;LazyKind</text></g><!--class Witness, A>--><g id="elem_Witness, A&gt;"><rect codeLine="3" fill="#24273A" height="46" id="Witness, A&gt;" rx="1.5" ry="1.5" style="stroke:#C6A0F6;stroke-width:2.0;" width="115.8047" x="1210.06" y="37"/><rect fill="#363A4F" height="30" rx="1.5" ry="1.5" style="stroke:#363A4F;stroke-width:2.0;" width="115.8047" x="1210.06" y="37"/><rect fill="#363A4F" height="1.5" style="stroke:#363A4F;stroke-width:2.0;" width="115.8047" x="1210.06" y="65.5"/><rect codeLine="3" fill="none" height="46" id="Witness, A&gt;" rx="1.5" ry="1.5" style="stroke:#C6A0F6;stroke-width:2.0;" width="115.8047" x="1210.06" y="37"/><ellipse cx="1224.06" cy="52" fill="#B4A7E5" rx="10" ry="10" style="stroke:#181818;stroke-width:1.0;"/><path d="M1221.0678,49.2754 L1221.0678,47.752 L1226.2768,47.752 L1226.2768,49.2754 L1224.5366,49.2754 L1224.5366,54.9766 L1226.2768,54.9766 L1226.2768,56.5 L1221.0678,56.5 L1221.0678,54.9766 L1222.808,54.9766 L1222.808,49.2754 Z " fill="#CAD3F5"/><text fill="#A6DA95" font-family="Helvetica" font-size="16" font-style="italic" lengthAdjust="spacing" textLength="85.8047" x="1237.06" y="56.3203">Witness, A&gt;</text><line style="stroke:#C6A0F6;stroke-width:2.0;" x1="1211.06" x2="1324.8647" y1="67" y2="67"/><line style="stroke:#C6A0F6;stroke-width:2.0;" x1="1211.06" x2="1324.8647" y1="75" y2="75"/></g><!--class Kind--><g id="elem_Kind"><rect codeLine="2" fill="#24273A" height="46" id="Kind" rx="1.5" ry="1.5" style="stroke:#C6A0F6;stroke-width:2.0;" width="88.0254" x="955.95" y="37"/><rect fill="#363A4F" height="30" rx="1.5" ry="1.5" style="stroke:#363A4F;stroke-width:2.0;" width="88.0254" x="955.95" y="37"/><rect fill="#363A4F" height="1.5" style="stroke:#363A4F;stroke-width:2.0;" width="88.0254" x="955.95" y="65.5"/><rect codeLine="2" fill="none" height="46" id="Kind" rx="1.5" ry="1.5" style="stroke:#C6A0F6;stroke-width:2.0;" width="88.0254" x="955.95" y="37"/><ellipse cx="969.95" cy="52" fill="#B4A7E5" rx="10" ry="10" style="stroke:#181818;stroke-width:1.0;"/><path d="M966.9578,49.2754 L966.9578,47.752 L972.1668,47.752 L972.1668,49.2754 L970.4266,49.2754 L970.4266,54.9766 L972.1668,54.9766 L972.1668,56.5 L966.9578,56.5 L966.9578,54.9766 L968.698,54.9766 L968.698,49.2754 Z " fill="#CAD3F5"/><text fill="#A6DA95" font-family="Helvetica" font-size="16" font-style="italic" lengthAdjust="spacing" textLength="32.0234" x="982.95" y="56.3203">Kind</text><rect fill="#24273A" height="14" style="stroke:#C6A0F6;stroke-width:1.0;stroke-dasharray:2.0,2.0;" width="24.002" x="1022.9734" y="34"/><text fill="#CAD3F5" font-family="Helvetica" font-size="12" font-style="italic" lengthAdjust="spacing" textLength="22.002" x="1023.9734" y="44.2402">F, A</text><line style="stroke:#C6A0F6;stroke-width:2.0;" x1="956.95" x2="1042.9754" y1="67" y2="67"/><line style="stroke:#C6A0F6;stroke-width:2.0;" x1="956.95" x2="1042.9754" y1="75" y2="75"/></g><!--class Functor--><g id="elem_Functor"><rect codeLine="4" fill="#24273A" height="46" id="Functor" rx="1.5" ry="1.5" style="stroke:#C6A0F6;stroke-width:2.0;" width="95.5723" x="1079.17" y="37"/><rect fill="#363A4F" height="30" rx="1.5" ry="1.5" style="stroke:#363A4F;stroke-width:2.0;" width="95.5723" x="1079.17" y="37"/><rect fill="#363A4F" height="1.5" style="stroke:#363A4F;stroke-width:2.0;" width="95.5723" x="1079.17" y="65.5"/><rect codeLine="4" fill="none" height="46" id="Functor" rx="1.5" ry="1.5" style="stroke:#C6A0F6;stroke-width:2.0;" width="95.5723" x="1079.17" y="37"/><ellipse cx="1093.17" cy="52" fill="#B4A7E5" rx="10" ry="10" style="stroke:#181818;stroke-width:1.0;"/><path d="M1090.1778,49.2754 L1090.1778,47.752 L1095.3868,47.752 L1095.3868,49.2754 L1093.6466,49.2754 L1093.6466,54.9766 L1095.3868,54.9766 L1095.3868,56.5 L1090.1778,56.5 L1090.1778,54.9766 L1091.918,54.9766 L1091.918,49.2754 Z " fill="#CAD3F5"/><text fill="#A6DA95" font-family="Helvetica" font-size="16" font-style="italic" lengthAdjust="spacing" textLength="54.2422" x="1106.17" y="56.3203">Functor</text><rect fill="#24273A" height="14" style="stroke:#C6A0F6;stroke-width:1.0;stroke-dasharray:2.0,2.0;" width="9.3301" x="1168.4122" y="34"/><text fill="#CAD3F5" font-family="Helvetica" font-size="12" font-style="italic" lengthAdjust="spacing" textLength="7.3301" x="1169.4122" y="44.2402">F</text><line style="stroke:#C6A0F6;stroke-width:2.0;" x1="1080.17" x2="1173.7423" y1="67" y2="67"/><line style="stroke:#C6A0F6;stroke-width:2.0;" x1="1080.17" x2="1173.7423" y1="75" y2="75"/></g><!--class Applicative<F> extends Functor<F>--><g id="elem_Applicative&lt;F&gt; extends Functor&lt;F&gt;"><rect codeLine="5" fill="#24273A" height="46" id="Applicative&lt;F&gt; extends Functor&lt;F&gt;" rx="1.5" ry="1.5" style="stroke:#C6A0F6;stroke-width:2.0;" width="283.4688" x="858.23" y="183"/><rect fill="#363A4F" height="30" rx="1.5" ry="1.5" style="stroke:#363A4F;stroke-width:2.0;" width="283.4688" x="858.23" y="183"/><rect fill="#363A4F" height="1.5" style="stroke:#363A4F;stroke-width:2.0;" width="283.4688" x="858.23" y="211.5"/><rect codeLine="5" fill="none" height="46" id="Applicative&lt;F&gt; extends Functor&lt;F&gt;" rx="1.5" ry="1.5" style="stroke:#C6A0F6;stroke-width:2.0;" width="283.4688" x="858.23" y="183"/><ellipse cx="872.23" cy="198" fill="#B4A7E5" rx="10" ry="10" style="stroke:#181818;stroke-width:1.0;"/><path d="M869.2378,195.2754 L869.2378,193.752 L874.4468,193.752 L874.4468,195.2754 L872.7066,195.2754 L872.7066,200.9766 L874.4468,200.9766 L874.4468,202.5 L869.2378,202.5 L869.2378,200.9766 L870.978,200.9766 L870.978,195.2754 Z " fill="#CAD3F5"/><text fill="#A6DA95" font-family="Helvetica" font-size="16" font-style="italic" lengthAdjust="spacing" textLength="253.4688" x="885.23" y="202.3203">Applicative&lt;F&gt; extends Functor&lt;F&gt;</text><line style="stroke:#C6A0F6;stroke-width:2.0;" x1="859.23" x2="1140.6988" y1="213" y2="213"/><line style="stroke:#C6A0F6;stroke-width:2.0;" x1="859.23" x2="1140.6988" y1="221" y2="221"/></g><!--class Monad<F> extends Applicative<F>--><g id="elem_Monad&lt;F&gt; extends Applicative&lt;F&gt;"><rect codeLine="6" fill="#24273A" height="46" id="Monad&lt;F&gt; extends Applicative&lt;F&gt;" rx="1.5" ry="1.5" style="stroke:#C6A0F6;stroke-width:2.0;" width="278.1484" x="1176.89" y="183"/><rect fill="#363A4F" height="30" rx="1.5" ry="1.5" style="stroke:#363A4F;stroke-width:2.0;" width="278.1484" x="1176.89" y="183"/><rect fill="#363A4F" height="1.5" style="stroke:#363A4F;stroke-width:2.0;" width="278.1484" x="1176.89" y="211.5"/><rect codeLine="6" fill="none" height="46" id="Monad&lt;F&gt; extends Applicative&lt;F&gt;" rx="1.5" ry="1.5" style="stroke:#C6A0F6;stroke-width:2.0;" width="278.1484" x="1176.89" y="183"/><ellipse cx="1190.89" cy="198" fill="#B4A7E5" rx="10" ry="10" style="stroke:#181818;stroke-width:1.0;"/><path d="M1187.8978,195.2754 L1187.8978,193.752 L1193.1068,193.752 L1193.1068,195.2754 L1191.3666,195.2754 L1191.3666,200.9766 L1193.1068,200.9766 L1193.1068,202.5 L1187.8978,202.5 L1187.8978,200.9766 L1189.638,200.9766 L1189.638,195.2754 Z " fill="#CAD3F5"/><text fill="#A6DA95" font-family="Helvetica" font-size="16" font-style="italic" lengthAdjust="spacing" textLength="248.1484" x="1203.89" y="202.3203">Monad&lt;F&gt; extends Applicative&lt;F&gt;</text><line style="stroke:#C6A0F6;stroke-width:2.0;" x1="1177.89" x2="1454.0384" y1="213" y2="213"/><line style="stroke:#C6A0F6;stroke-width:2.0;" x1="1177.89" x2="1454.0384" y1="221" y2="221"/></g><!--class LazyKindHelper--><g id="elem_LazyKindHelper"><rect codeLine="8" fill="#24273A" height="70" id="LazyKindHelper" rx="1.5" ry="1.5" style="stroke:#C6A0F6;stroke-width:2.0;" width="258.1289" x="179.9" y="327"/><rect fill="#363A4F" height="30" rx="1.5" ry="1.5" style="stroke:#363A4F;stroke-width:2.0;" width="258.1289" x="179.9" y="327"/><rect fill="#363A4F" height="1.5" style="stroke:#363A4F;stroke-width:2.0;" width="258.1289" x="179.9" y="355.5"/><rect codeLine="8" fill="none" height="70" id="LazyKindHelper" rx="1.5" ry="1.5" style="stroke:#C6A0F6;stroke-width:2.0;" width="258.1289" x="179.9" y="327"/><ellipse cx="248.4879" cy="342" fill="#ADD1B2" rx="10" ry="10" style="stroke:#181818;stroke-width:1.0;"/><path d="M250.3219,346.248 Q249.9117,346.459 249.4605,346.5645 Q249.0094,346.6699 248.5113,346.6699 Q246.7418,346.6699 245.8102,345.5039 Q244.8785,344.3379 244.8785,342.1348 Q244.8785,339.9258 245.8102,338.7598 Q246.7418,337.5938 248.5113,337.5938 Q249.0094,337.5938 249.4664,337.6992 Q249.9234,337.8047 250.3219,338.0156 L250.3219,339.9375 Q249.8766,339.5273 249.4576,339.3369 Q249.0387,339.1465 248.5934,339.1465 Q247.6441,339.1465 247.1607,339.8994 Q246.6773,340.6523 246.6773,342.1348 Q246.6773,343.6113 247.1607,344.3643 Q247.6441,345.1172 248.5934,345.1172 Q249.0387,345.1172 249.4576,344.9268 Q249.8766,344.7363 250.3219,344.3262 Z " fill="#CAD3F5"/><text fill="#A6DA95" font-family="Helvetica" font-size="16" lengthAdjust="spacing" textLength="112.9531" x="267.4879" y="346.3203">LazyKindHelper</text><line style="stroke:#C6A0F6;stroke-width:2.0;" x1="180.9" x2="437.0289" y1="357" y2="357"/><line style="stroke:#C6A0F6;stroke-width:2.0;" x1="180.9" x2="437.0289" y1="365" y2="365"/><text fill="#A6DA95" font-family="Helvetica" font-size="12" lengthAdjust="spacing" text-decoration="underline" textLength="156.0879" x="185.9" y="378.2402">LazyKind&lt;A&gt; wrap(Lazy&lt;A&gt;)</text><text fill="#A6DA95" font-family="Helvetica" font-size="12" lengthAdjust="spacing" text-decoration="underline" textLength="246.1289" x="185.9" y="390.2402">Lazy&lt;A&gt; unwrap(Kind&lt;LazyKind.Witness, A&gt;)</text></g><!--class LazyMonad--><g id="elem_LazyMonad"><rect codeLine="14" fill="#24273A" height="94" id="LazyMonad" rx="1.5" ry="1.5" style="stroke:#C6A0F6;stroke-width:2.0;" width="815.9219" x="7" y="159"/><rect fill="#363A4F" height="30" rx="1.5" ry="1.5" style="stroke:#363A4F;stroke-width:2.0;" width="815.9219" x="7" y="159"/><rect fill="#363A4F" height="1.5" style="stroke:#363A4F;stroke-width:2.0;" width="815.9219" x="7" y="187.5"/><rect codeLine="14" fill="none" height="94" id="LazyMonad" rx="1.5" ry="1.5" style="stroke:#C6A0F6;stroke-width:2.0;" width="815.9219" x="7" y="159"/><ellipse cx="369.6016" cy="174" fill="#ADD1B2" rx="10" ry="10" style="stroke:#181818;stroke-width:1.0;"/><path d="M371.4355,178.248 Q371.0254,178.459 370.5742,178.5645 Q370.123,178.6699 369.625,178.6699 Q367.8555,178.6699 366.9238,177.5039 Q365.9922,176.3379 365.9922,174.1348 Q365.9922,171.9258 366.9238,170.7598 Q367.8555,169.5938 369.625,169.5938 Q370.123,169.5938 370.5801,169.6992 Q371.0371,169.8047 371.4355,170.0156 L371.4355,171.9375 Q370.9902,171.5273 370.5713,171.3369 Q370.1523,171.1465 369.707,171.1465 Q368.7578,171.1465 368.2744,171.8994 Q367.791,172.6523 367.791,174.1348 Q367.791,175.6113 368.2744,176.3643 Q368.7578,177.1172 369.707,177.1172 Q370.1523,177.1172 370.5713,176.9268 Q370.9902,176.7363 371.4355,176.3262 Z " fill="#CAD3F5"/><text fill="#A6DA95" font-family="Helvetica" font-size="16" lengthAdjust="spacing" textLength="82.7188" x="388.6016" y="178.3203">LazyMonad</text><line style="stroke:#C6A0F6;stroke-width:2.0;" x1="8" x2="821.9219" y1="189" y2="189"/><line style="stroke:#C6A0F6;stroke-width:2.0;" x1="8" x2="821.9219" y1="197" y2="197"/><ellipse cx="18" cy="208.5" fill="#84BE84" rx="3" ry="3" style="stroke:#038048;stroke-width:1.0;"/><text fill="#A6DA95" font-family="Helvetica" font-size="12" lengthAdjust="spacing" textLength="634.8398" x="26" y="210.2402">&lt;A, B&gt; @NonNull Kind&lt;LazyKind.Witness, B&gt; map(@NonNull Function&lt;A, B&gt;, @NonNull Kind&lt;LazyKind.Witness, A&gt;)</text><ellipse cx="18" cy="220.5" fill="#84BE84" rx="3" ry="3" style="stroke:#038048;stroke-width:1.0;"/><text fill="#A6DA95" font-family="Helvetica" font-size="12" lengthAdjust="spacing" textLength="319.8457" x="26" y="222.2402">&lt;A&gt; @NonNull Kind&lt;LazyKind.Witness, A&gt; of(@Nullable A)</text><ellipse cx="18" cy="232.5" fill="#84BE84" rx="3" ry="3" style="stroke:#038048;stroke-width:1.0;"/><text fill="#A6DA95" font-family="Helvetica" font-size="12" lengthAdjust="spacing" textLength="764.918" x="26" y="234.2402">&lt;A, B&gt; @NonNull Kind&lt;LazyKind.Witness, B&gt; ap(@NonNull Kind&lt;LazyKind.Witness, Function&lt;A, B&gt;&gt;, @NonNull Kind&lt;LazyKind.Witness, A&gt;)</text><ellipse cx="18" cy="244.5" fill="#84BE84" rx="3" ry="3" style="stroke:#038048;stroke-width:1.0;"/><text fill="#A6DA95" font-family="Helvetica" font-size="12" lengthAdjust="spacing" textLength="790.9219" x="26" y="246.2402">&lt;A, B&gt; @NonNull Kind&lt;LazyKind.Witness, B&gt; flatMap(@NonNull Function&lt;A, Kind&lt;LazyKind.Witness, B&gt;&gt;, @NonNull Kind&lt;LazyKind.Witness, A&gt;)</text></g><!--class Monad--><g id="elem_Monad"><rect fill="#24273A" height="46" id="Monad" rx="1.5" ry="1.5" style="stroke:#C6A0F6;stroke-width:2.0;" width="78.9219" x="375.5" y="37"/><rect fill="#363A4F" height="30" rx="1.5" ry="1.5" style="stroke:#363A4F;stroke-width:2.0;" width="78.9219" x="375.5" y="37"/><rect fill="#363A4F" height="1.5" style="stroke:#363A4F;stroke-width:2.0;" width="78.9219" x="375.5" y="65.5"/><rect fill="none" height="46" id="Monad" rx="1.5" ry="1.5" style="stroke:#C6A0F6;stroke-width:2.0;" width="78.9219" x="375.5" y="37"/><ellipse cx="389.5" cy="52" fill="#B4A7E5" rx="10" ry="10" style="stroke:#181818;stroke-width:1.0;"/><path d="M386.5078,49.2754 L386.5078,47.752 L391.7168,47.752 L391.7168,49.2754 L389.9766,49.2754 L389.9766,54.9766 L391.7168,54.9766 L391.7168,56.5 L386.5078,56.5 L386.5078,54.9766 L388.248,54.9766 L388.248,49.2754 Z " fill="#CAD3F5"/><text fill="#A6DA95" font-family="Helvetica" font-size="16" font-style="italic" lengthAdjust="spacing" textLength="48.9219" x="402.5" y="56.3203">Monad</text><line style="stroke:#C6A0F6;stroke-width:2.0;" x1="376.5" x2="453.4219" y1="67" y2="67"/><line style="stroke:#C6A0F6;stroke-width:2.0;" x1="376.5" x2="453.4219" y1="75" y2="75"/></g><!--class LazyKind--><g id="elem_LazyKind"><rect fill="#24273A" height="46" id="LazyKind" rx="1.5" ry="1.5" style="stroke:#C6A0F6;stroke-width:2.0;" width="95.8203" x="473.05" y="339"/><rect fill="#363A4F" height="30" rx="1.5" ry="1.5" style="stroke:#363A4F;stroke-width:2.0;" width="95.8203" x="473.05" y="339"/><rect fill="#363A4F" height="1.5" style="stroke:#363A4F;stroke-width:2.0;" width="95.8203" x="473.05" y="367.5"/><rect fill="none" height="46" id="LazyKind" rx="1.5" ry="1.5" style="stroke:#C6A0F6;stroke-width:2.0;" width="95.8203" x="473.05" y="339"/><ellipse cx="487.05" cy="354" fill="#ADD1B2" rx="10" ry="10" style="stroke:#181818;stroke-width:1.0;"/><path d="M488.884,358.248 Q488.4738,358.459 488.0227,358.5645 Q487.5715,358.6699 487.0734,358.6699 Q485.3039,358.6699 484.3723,357.5039 Q483.4406,356.3379 483.4406,354.1348 Q483.4406,351.9258 484.3723,350.7598 Q485.3039,349.5938 487.0734,349.5938 Q487.5715,349.5938 488.0285,349.6992 Q488.4855,349.8047 488.884,350.0156 L488.884,351.9375 Q488.4387,351.5273 488.0197,351.3369 Q487.6008,351.1465 487.1555,351.1465 Q486.2063,351.1465 485.7229,351.8994 Q485.2395,352.6523 485.2395,354.1348 Q485.2395,355.6113 485.7229,356.3643 Q486.2063,357.1172 487.1555,357.1172 Q487.6008,357.1172 488.0197,356.9268 Q488.4387,356.7363 488.884,356.3262 Z " fill="#CAD3F5"/><text fill="#A6DA95" font-family="Helvetica" font-size="16" lengthAdjust="spacing" textLength="65.8203" x="500.05" y="358.3203">LazyKind</text><line style="stroke:#C6A0F6;stroke-width:2.0;" x1="474.05" x2="567.8703" y1="369" y2="369"/><line style="stroke:#C6A0F6;stroke-width:2.0;" x1="474.05" x2="567.8703" y1="377" y2="377"/></g><!--reverse link Monad to LazyMonad--><g id="link_Monad_LazyMonad"><path d="M408.8898,101.0913 C407.5098,110.8113 408.64,104.53 407.96,115 C407.04,129.23 407.66,144.72 408.84,158.77 " fill="none" id="Monad-backto-LazyMonad" style="stroke:#F5BDE6;stroke-width:1.0;stroke-dasharray:7.0,7.0;"/><polygon fill="none" points="411.42,83.27,402.9494,100.2479,414.8302,101.9347,411.42,83.27" style="stroke:#F5BDE6;stroke-width:1.0;"/></g><!--reverse link Monad to LazyMonad--><g id="link_Monad_LazyMonad"><path codeLine="21" d="M414.96,101.5 C414.96,121.51 414.96,133.41 414.96,158.55 " fill="none" id="Monad-backto-LazyMonad-1" style="stroke:#F5BDE6;stroke-width:1.0;stroke-dasharray:7.0,7.0;"/><polygon fill="none" points="414.96,83.5,408.96,101.5,420.96,101.5,414.96,83.5" style="stroke:#F5BDE6;stroke-width:1.0;"/><text fill="#CAD3F5" font-family="Helvetica" font-size="12" lengthAdjust="spacing" textLength="61.3535" x="415.96" y="125.2402">implements</text></g><!--link LazyMonad to LazyKindHelper--><g id="link_LazyMonad_LazyKindHelper"><path codeLine="22" d="M383.16,253.21 C366.94,276.77 350.9422,300.0078 336.0522,321.6378 " fill="none" id="LazyMonad-to-LazyKindHelper" style="stroke:#F5BDE6;stroke-width:1.0;stroke-dasharray:7.0,7.0;"/><polygon fill="#F5BDE6" points="332.65,326.58,341.0481,321.4348,335.4851,322.4615,334.4585,316.8986,332.65,326.58" style="stroke:#F5BDE6;stroke-width:1.0;"/><text fill="#CAD3F5" font-family="Helvetica" font-size="12" lengthAdjust="spacing" textLength="25.3477" x="362.96" y="293.2402">uses</text></g><!--link LazyMonad to LazyKind--><g id="link_LazyMonad_LazyKind"><path codeLine="23" d="M446.76,253.21 C466.28,281.56 486.9764,311.6388 502.3164,333.9088 " fill="none" id="LazyMonad-to-LazyKind" style="stroke:#F5BDE6;stroke-width:1.0;stroke-dasharray:7.0,7.0;"/><polygon fill="#F5BDE6" points="505.72,338.85,503.9087,329.1691,502.8837,334.7323,497.3205,333.7073,505.72,338.85" style="stroke:#F5BDE6;stroke-width:1.0;"/><text fill="#CAD3F5" font-family="Helvetica" font-size="12" lengthAdjust="spacing" textLength="63.3809" x="475.31" y="293.2402">operates on</text></g><!--SRC=[bPF1Ri8m343l_GglbmsDfdU4gdK7D6c3wyuX3MkaD8aQPsnZ_FlSLa10gWQtDdwsN-psJXcXGoMXHdH-bkSjtx8FXNLO1ozROGrAWqpO9ZV2UkIP4hdWw5mGGfciuKBKYgFDdEO6GwCph6KZyuOha_UFpD5fegXGk-52mgiorNmnXRA83jCt_lFTHye2v1SrhVn07WBiNQ6HtdU9QPIv24QWRUUBitAbSrgHf_gK53bMFC5nYNHf3QzYxZmzJHAXkVTmS7cHsiaMTWdiQ2Ien1vY_stBtKDtG2-J2wQB1zCJezUZd7jWZ2Nxk74l2QfncePgqCDWVLcWwBGUOLvEuRc0fvKrgw3rs2m9QKZbYFK3KjOCwTD_ytlPhbjn1GfsGvq8uMijePpSvXbhZb3dzhVeNoknqHoNOmCRJRlIXDPzMZGBxBSOTWopQEqnmehBJt86zDkECHIr176K7gn9_W00]--></g></svg>