<svg xmlns="http://www.w3.org/2000/svg" xmlns:xlink="http://www.w3.org/1999/xlink" contentStyleType="text/css" height="463px" preserveAspectRatio="none" style="width:795px;height:463px;background:#24273A;" version="1.1" viewBox="0 0 795 463" width="795px" zoomAndPan="magnify"><defs/><g><rect fill="#24273A" height="463" style="stroke:none;stroke-width:1.0;" width="795" x="0" y="0"/><!--class Kind--><g id="elem_Kind"><rect codeLine="6" fill="#24273A" height="30" id="Kind" rx="1.5" ry="1.5" style="stroke:#C6A0F6;stroke-width:2.0;" width="88.0254" x="460.34" y="426"/><rect fill="#363A4F" height="30" rx="1.5" ry="1.5" style="stroke:#363A4F;stroke-width:2.0;" width="88.0254" x="460.34" y="426"/><rect fill="#363A4F" height="1.5" style="stroke:#363A4F;stroke-width:2.0;" width="88.0254" x="460.34" y="454.5"/><rect codeLine="6" fill="none" height="30" id="Kind" rx="1.5" ry="1.5" style="stroke:#C6A0F6;stroke-width:2.0;" width="88.0254" x="460.34" y="426"/><ellipse cx="474.34" cy="441" fill="#B4A7E5" rx="10" ry="10" style="stroke:#181818;stroke-width:1.0;"/><path d="M471.3478,438.2754 L471.3478,436.752 L476.5568,436.752 L476.5568,438.2754 L474.8166,438.2754 L474.8166,443.9766 L476.5568,443.9766 L476.5568,445.5 L471.3478,445.5 L471.3478,443.9766 L473.088,443.9766 L473.088,438.2754 Z " fill="#CAD3F5"/><text fill="#A6DA95" font-family="Helvetica" font-size="16" font-style="italic" lengthAdjust="spacing" textLength="32.0234" x="487.34" y="445.3203">Kind</text><rect fill="#24273A" height="14" style="stroke:#C6A0F6;stroke-width:1.0;stroke-dasharray:2.0,2.0;" width="24.002" x="527.3634" y="423"/><text fill="#CAD3F5" font-family="Helvetica" font-size="12" font-style="italic" lengthAdjust="spacing" textLength="22.002" x="528.3634" y="433.2402">F, A</text></g><!--class Functor--><g id="elem_Functor"><rect codeLine="7" fill="#24273A" height="30" id="Functor" rx="1.5" ry="1.5" style="stroke:#C6A0F6;stroke-width:2.0;" width="95.5723" x="523.57" y="322"/><rect fill="#363A4F" height="30" rx="1.5" ry="1.5" style="stroke:#363A4F;stroke-width:2.0;" width="95.5723" x="523.57" y="322"/><rect fill="#363A4F" height="1.5" style="stroke:#363A4F;stroke-width:2.0;" width="95.5723" x="523.57" y="350.5"/><rect codeLine="7" fill="none" height="30" id="Functor" rx="1.5" ry="1.5" style="stroke:#C6A0F6;stroke-width:2.0;" width="95.5723" x="523.57" y="322"/><ellipse cx="537.57" cy="337" fill="#B4A7E5" rx="10" ry="10" style="stroke:#181818;stroke-width:1.0;"/><path d="M534.5778,334.2754 L534.5778,332.752 L539.7868,332.752 L539.7868,334.2754 L538.0466,334.2754 L538.0466,339.9766 L539.7868,339.9766 L539.7868,341.5 L534.5778,341.5 L534.5778,339.9766 L536.318,339.9766 L536.318,334.2754 Z " fill="#CAD3F5"/><text fill="#A6DA95" font-family="Helvetica" font-size="16" font-style="italic" lengthAdjust="spacing" textLength="54.2422" x="550.57" y="341.3203">Functor</text><rect fill="#24273A" height="14" style="stroke:#C6A0F6;stroke-width:1.0;stroke-dasharray:2.0,2.0;" width="9.3301" x="612.8122" y="319"/><text fill="#CAD3F5" font-family="Helvetica" font-size="12" font-style="italic" lengthAdjust="spacing" textLength="7.3301" x="613.8122" y="329.2402">F</text></g><!--class Applicative--><g id="elem_Applicative"><rect codeLine="8" fill="#24273A" height="30" id="Applicative" rx="1.5" ry="1.5" style="stroke:#C6A0F6;stroke-width:2.0;" width="118.7051" x="7" y="223"/><rect fill="#363A4F" height="30" rx="1.5" ry="1.5" style="stroke:#363A4F;stroke-width:2.0;" width="118.7051" x="7" y="223"/><rect fill="#363A4F" height="1.5" style="stroke:#363A4F;stroke-width:2.0;" width="118.7051" x="7" y="251.5"/><rect codeLine="8" fill="none" height="30" id="Applicative" rx="1.5" ry="1.5" style="stroke:#C6A0F6;stroke-width:2.0;" width="118.7051" x="7" y="223"/><ellipse cx="21" cy="238" fill="#B4A7E5" rx="10" ry="10" style="stroke:#181818;stroke-width:1.0;"/><path d="M18.0078,235.2754 L18.0078,233.752 L23.2168,233.752 L23.2168,235.2754 L21.4766,235.2754 L21.4766,240.9766 L23.2168,240.9766 L23.2168,242.5 L18.0078,242.5 L18.0078,240.9766 L19.748,240.9766 L19.748,235.2754 Z " fill="#CAD3F5"/><text fill="#A6DA95" font-family="Helvetica" font-size="16" font-style="italic" lengthAdjust="spacing" textLength="77.375" x="34" y="242.3203">Applicative</text><rect fill="#24273A" height="14" style="stroke:#C6A0F6;stroke-width:1.0;stroke-dasharray:2.0,2.0;" width="9.3301" x="119.375" y="220"/><text fill="#CAD3F5" font-family="Helvetica" font-size="12" font-style="italic" lengthAdjust="spacing" textLength="7.3301" x="120.375" y="230.2402">F</text></g><!--class MonadBase--><g id="elem_MonadBase"><rect codeLine="9" fill="#24273A" height="30" id="MonadBase" rx="1.5" ry="1.5" style="stroke:#C6A0F6;stroke-width:2.0;" width="92.918" x="36.89" y="111"/><rect fill="#363A4F" height="30" rx="1.5" ry="1.5" style="stroke:#363A4F;stroke-width:2.0;" width="92.918" x="36.89" y="111"/><rect fill="#363A4F" height="1.5" style="stroke:#363A4F;stroke-width:2.0;" width="92.918" x="36.89" y="139.5"/><rect codeLine="9" fill="none" height="30" id="MonadBase" rx="1.5" ry="1.5" style="stroke:#C6A0F6;stroke-width:2.0;" width="92.918" x="36.89" y="111"/><ellipse cx="50.89" cy="126" fill="#B4A7E5" rx="10" ry="10" style="stroke:#181818;stroke-width:1.0;"/><path d="M47.8978,123.2754 L47.8978,121.752 L53.1068,121.752 L53.1068,123.2754 L51.3666,123.2754 L51.3666,128.9766 L53.1068,128.9766 L53.1068,130.5 L47.8978,130.5 L47.8978,128.9766 L49.638,128.9766 L49.638,123.2754 Z " fill="#CAD3F5"/><text fill="#A6DA95" font-family="Helvetica" font-size="16" font-style="italic" lengthAdjust="spacing" textLength="48.9219" x="63.89" y="130.3203">Monad</text><rect fill="#24273A" height="14" style="stroke:#C6A0F6;stroke-width:1.0;stroke-dasharray:2.0,2.0;" width="11.9961" x="120.8119" y="108"/><text fill="#CAD3F5" font-family="Helvetica" font-size="12" font-style="italic" lengthAdjust="spacing" textLength="9.9961" x="121.8119" y="118.2402">M</text></g><!--class ListKindBase--><g id="elem_ListKindBase"><rect codeLine="11" fill="#24273A" height="30" id="ListKindBase" rx="1.5" ry="1.5" style="stroke:#C6A0F6;stroke-width:2.0;" width="98.9258" x="387.89" y="322"/><rect fill="#363A4F" height="30" rx="1.5" ry="1.5" style="stroke:#363A4F;stroke-width:2.0;" width="98.9258" x="387.89" y="322"/><rect fill="#363A4F" height="1.5" style="stroke:#363A4F;stroke-width:2.0;" width="98.9258" x="387.89" y="350.5"/><rect codeLine="11" fill="none" height="30" id="ListKindBase" rx="1.5" ry="1.5" style="stroke:#C6A0F6;stroke-width:2.0;" width="98.9258" x="387.89" y="322"/><ellipse cx="401.89" cy="337" fill="#DA70D6" rx="10" ry="10" style="stroke:#181818;stroke-width:1.0;"/><path d="M399.2084,341.5 L399.2084,332.752 L400.9369,332.752 L400.9369,339.9766 L404.6341,339.9766 L404.6341,341.5 Z " fill="#CAD3F5"/><text fill="#A6DA95" font-family="Helvetica" font-size="16" font-style="italic" lengthAdjust="spacing" textLength="56.9219" x="414.89" y="341.3203">ListKind</text><rect fill="#24273A" height="14" style="stroke:#C6A0F6;stroke-width:1.0;stroke-dasharray:2.0,2.0;" width="10.0039" x="479.8119" y="319"/><text fill="#CAD3F5" font-family="Helvetica" font-size="12" font-style="italic" lengthAdjust="spacing" textLength="8.0039" x="480.8119" y="329.2402">A</text></g><!--class ListKindHelper--><g id="elem_ListKindHelper"><rect codeLine="15" fill="#24273A" height="30" id="ListKindHelper" rx="1.5" ry="1.5" style="stroke:#C6A0F6;stroke-width:2.0;" width="134.0547" x="160.33" y="223"/><rect fill="#363A4F" height="30" rx="1.5" ry="1.5" style="stroke:#363A4F;stroke-width:2.0;" width="134.0547" x="160.33" y="223"/><rect fill="#363A4F" height="1.5" style="stroke:#363A4F;stroke-width:2.0;" width="134.0547" x="160.33" y="251.5"/><rect codeLine="15" fill="none" height="30" id="ListKindHelper" rx="1.5" ry="1.5" style="stroke:#C6A0F6;stroke-width:2.0;" width="134.0547" x="160.33" y="223"/><ellipse cx="174.33" cy="238" fill="#808080" rx="10" ry="10" style="stroke:#181818;stroke-width:1.0;"/><path d="M171.1327,233.752 L172.8613,233.752 L172.8613,237.0859 L175.0234,237.0859 L175.0234,233.752 L176.7519,233.752 L176.7519,242.5 L175.0234,242.5 L175.0234,238.6094 L172.8613,238.6094 L172.8613,242.5 L171.1327,242.5 Z " fill="#CAD3F5"/><text fill="#A6DA95" font-family="Helvetica" font-size="16" lengthAdjust="spacing" textLength="104.0547" x="187.33" y="242.3203">ListKindHelper</text></g><g id="elem_GMN8"><path d="M329.78,216.5 L329.78,234 L294.65,238 L329.78,242 L329.78,259.5 A1.5,1.5 0 0 0 331.28,261 L681.4304,261 A1.5,1.5 0 0 0 682.9304,259.5 L682.9304,225 L672.9304,215 L331.28,215 A1.5,1.5 0 0 0 329.78,216.5 " fill="#EED49F" style="stroke:#24273A;stroke-width:0.5;"/><path d="M672.9304,215 L672.9304,224.25 A0.75,0.75 0 0 0 673.6804,225 L682.9304,225 L672.9304,215 " fill="#EED49F" style="stroke:#24273A;stroke-width:0.5;"/><text fill="#24273A" font-family="Helvetica" font-size="12" lengthAdjust="spacing" textLength="211.3594" x="335.78" y="229.2402">Contains internal 'ListHolder&lt;A&gt; record'</text><text fill="#24273A" font-family="Helvetica" font-size="12" lengthAdjust="spacing" textLength="166.7461" x="335.78" y="241.2402">which implements ListKind&lt;A&gt;.</text><text fill="#24273A" font-family="Helvetica" font-size="12" lengthAdjust="spacing" textLength="332.1504" x="335.78" y="253.2402">`record ListHolder&lt;A&gt;(List&lt;A&gt; list) implements ListKind&lt;A&gt; {}`</text></g><!--class ListFunctorImpl--><g id="elem_ListFunctorImpl"><rect codeLine="26" fill="#24273A" height="30" id="ListFunctorImpl" rx="1.5" ry="1.5" style="stroke:#C6A0F6;stroke-width:2.0;" width="109.1406" x="356.78" y="111"/><rect fill="#363A4F" height="30" rx="1.5" ry="1.5" style="stroke:#363A4F;stroke-width:2.0;" width="109.1406" x="356.78" y="111"/><rect fill="#363A4F" height="1.5" style="stroke:#363A4F;stroke-width:2.0;" width="109.1406" x="356.78" y="139.5"/><rect codeLine="26" fill="none" height="30" id="ListFunctorImpl" rx="1.5" ry="1.5" style="stroke:#C6A0F6;stroke-width:2.0;" width="109.1406" x="356.78" y="111"/><ellipse cx="370.78" cy="126" fill="#ADD1B2" rx="10" ry="10" style="stroke:#181818;stroke-width:1.0;"/><path d="M372.614,130.248 Q372.2038,130.459 371.7527,130.5645 Q371.3015,130.6699 370.8034,130.6699 Q369.0339,130.6699 368.1023,129.5039 Q367.1706,128.3379 367.1706,126.1348 Q367.1706,123.9258 368.1023,122.7598 Q369.0339,121.5938 370.8034,121.5938 Q371.3015,121.5938 371.7585,121.6992 Q372.2155,121.8047 372.614,122.0156 L372.614,123.9375 Q372.1687,123.5273 371.7497,123.3369 Q371.3308,123.1465 370.8855,123.1465 Q369.9363,123.1465 369.4529,123.8994 Q368.9695,124.6523 368.9695,126.1348 Q368.9695,127.6113 369.4529,128.3643 Q369.9363,129.1172 370.8855,129.1172 Q371.3308,129.1172 371.7497,128.9268 Q372.1687,128.7363 372.614,128.3262 Z " fill="#CAD3F5"/><text fill="#A6DA95" font-family="Helvetica" font-size="16" lengthAdjust="spacing" textLength="79.1406" x="383.78" y="130.3203">ListFunctor</text></g><!--class ListMonadImpl--><g id="elem_ListMonadImpl"><rect codeLine="29" fill="#24273A" height="30" id="ListMonadImpl" rx="1.5" ry="1.5" style="stroke:#C6A0F6;stroke-width:2.0;" width="103.8203" x="153.44" y="7"/><rect fill="#363A4F" height="30" rx="1.5" ry="1.5" style="stroke:#363A4F;stroke-width:2.0;" width="103.8203" x="153.44" y="7"/><rect fill="#363A4F" height="1.5" style="stroke:#363A4F;stroke-width:2.0;" width="103.8203" x="153.44" y="35.5"/><rect codeLine="29" fill="none" height="30" id="ListMonadImpl" rx="1.5" ry="1.5" style="stroke:#C6A0F6;stroke-width:2.0;" width="103.8203" x="153.44" y="7"/><ellipse cx="167.44" cy="22" fill="#ADD1B2" rx="10" ry="10" style="stroke:#181818;stroke-width:1.0;"/><path d="M169.274,26.248 Q168.8638,26.459 168.4127,26.5645 Q167.9615,26.6699 167.4634,26.6699 Q165.6939,26.6699 164.7623,25.5039 Q163.8306,24.3379 163.8306,22.1348 Q163.8306,19.9258 164.7623,18.7598 Q165.6939,17.5938 167.4634,17.5938 Q167.9615,17.5938 168.4185,17.6992 Q168.8755,17.8047 169.274,18.0156 L169.274,19.9375 Q168.8287,19.5273 168.4097,19.3369 Q167.9908,19.1465 167.5455,19.1465 Q166.5963,19.1465 166.1129,19.8994 Q165.6295,20.6523 165.6295,22.1348 Q165.6295,23.6113 166.1129,24.3643 Q166.5963,25.1172 167.5455,25.1172 Q167.9908,25.1172 168.4097,24.9268 Q168.8287,24.7363 169.274,24.3262 Z " fill="#CAD3F5"/><text fill="#A6DA95" font-family="Helvetica" font-size="16" lengthAdjust="spacing" textLength="73.8203" x="180.44" y="26.3203">ListMonad</text></g><!--link MonadBase to Applicative--><g id="link_MonadBase_Applicative"><path codeLine="35" d="M81.13,141.38 C77.87,162.46 74.5715,183.74 71.3215,204.83 " fill="none" id="MonadBase-to-Applicative" style="stroke:#F5BDE6;stroke-width:1.0;"/><polygon fill="none" points="68.58,222.62,77.2515,205.7438,65.3915,203.9162,68.58,222.62" style="stroke:#F5BDE6;stroke-width:1.0;"/></g><!--link Applicative to Functor--><g id="link_Applicative_Functor"><path codeLine="36" d="M113.16,253.46 C122.76,256.17 132.84,258.83 142.35,261 C301.42,297.3 344.02,291.75 504.35,322 C510.42,323.15 499.1504,320.8161 505.4504,322.0961 " fill="none" id="Applicative-to-Functor" style="stroke:#F5BDE6;stroke-width:1.0;"/><polygon fill="none" points="523.09,325.68,506.645,316.2162,504.2558,327.9759,523.09,325.68" style="stroke:#F5BDE6;stroke-width:1.0;"/></g><!--link Functor to Kind--><g id="link_Functor_Kind"><path codeLine="37" d="M562.04,352.18 C549.31,371.56 536.491,391.0746 523.691,410.5646 " fill="none" id="Functor-to-Kind" style="stroke:#F5BDE6;stroke-width:1.0;"/><polygon fill="none" points="513.81,425.61,528.7062,413.8582,518.6759,407.2709,513.81,425.61" style="stroke:#F5BDE6;stroke-width:1.0;"/><text fill="#CAD3F5" font-family="Helvetica" font-size="12" lengthAdjust="spacing" textLength="193.4063" x="542.86" y="392.2402">(logically, Kind is the base for HKTs)</text></g><!--link ListKindBase to Kind--><g id="link_ListKindBase_Kind"><path codeLine="39" d="M431.44,352.31 C427.32,364.67 423.78,382.6 431.35,396 C438.78,409.14 435.932,410.4347 449.002,417.2947 " fill="none" id="ListKindBase-to-Kind" style="stroke:#F5BDE6;stroke-width:1.0;"/><polygon fill="none" points="464.94,425.66,451.7904,411.982,446.2135,422.6073,464.94,425.66" style="stroke:#F5BDE6;stroke-width:1.0;"/><text fill="#CAD3F5" font-family="Helvetica" font-size="12" lengthAdjust="spacing" textLength="92.0684" x="432.35" y="392.2402">&lt;ListKind&lt;?&gt;, A&gt;</text></g><!--link ListFunctorImpl to Functor--><g id="link_ListFunctorImpl_Functor"><path codeLine="41" d="M466.16,135.8 C541.89,149.21 672.37,177.23 700.35,215 C712.52,231.43 710.55,243.28 700.35,261 C683.04,291.09 665.2586,303.6357 636.2786,315.0457 " fill="none" id="ListFunctorImpl-to-Functor" style="stroke:#F5BDE6;stroke-width:1.0;stroke-dasharray:7.0,7.0;"/><polygon fill="none" points="619.53,321.64,638.4767,320.6286,634.0805,309.4629,619.53,321.64" style="stroke:#F5BDE6;stroke-width:1.0;"/><text fill="#CAD3F5" font-family="Helvetica" font-size="12" lengthAdjust="spacing" textLength="77.3965" x="709.76" y="241.2402">&lt;ListKind&lt;?&gt;&gt;</text></g><!--link ListMonadImpl to ListFunctorImpl--><g id="link_ListMonadImpl_ListFunctorImpl"><path codeLine="42" d="M234.43,37.4 C273.58,56.78 326.7192,83.0927 365.9592,102.5227 " fill="none" id="ListMonadImpl-to-ListFunctorImpl" style="stroke:#F5BDE6;stroke-width:1.0;"/><polygon fill="none" points="382.09,110.51,368.6216,97.1458,363.2968,107.8996,382.09,110.51" style="stroke:#F5BDE6;stroke-width:1.0;"/></g><!--link ListMonadImpl to MonadBase--><g id="link_ListMonadImpl_MonadBase"><path codeLine="43" d="M153.02,34.81 C134.14,41.44 114.12,51.6 100.35,67 C89.44,79.2 87.4788,80.1769 86.0688,93.0569 " fill="none" id="ListMonadImpl-to-MonadBase" style="stroke:#F5BDE6;stroke-width:1.0;stroke-dasharray:7.0,7.0;"/><polygon fill="none" points="84.11,110.95,92.0332,93.7098,80.1044,92.404,84.11,110.95" style="stroke:#F5BDE6;stroke-width:1.0;"/><text fill="#CAD3F5" font-family="Helvetica" font-size="12" lengthAdjust="spacing" textLength="77.3965" x="101.35" y="77.2402">&lt;ListKind&lt;?&gt;&gt;</text></g><!--link ListMonadImpl to ListKindHelper--><g id="link_ListMonadImpl_ListKindHelper"><path codeLine="45" d="M206.83,37.37 C210.84,76.36 221.2664,177.8115 225.2664,216.7215 " fill="none" id="ListMonadImpl-to-ListKindHelper" style="stroke:#F5BDE6;stroke-width:1.0;stroke-dasharray:7.0,7.0;"/><polygon fill="#F5BDE6" points="225.88,222.69,228.9387,213.3281,225.3687,217.7162,220.9806,214.1462,225.88,222.69" style="stroke:#F5BDE6;stroke-width:1.0;"/><text fill="#CAD3F5" font-family="Helvetica" font-size="12" lengthAdjust="spacing" textLength="114.7207" x="218.45" y="129.2402">uses for wrap/unwrap</text></g><!--link ListFunctorImpl to ListKindHelper--><g id="link_ListFunctorImpl_ListKindHelper"><path codeLine="46" d="M387.3,141.38 C352.03,162.46 291.8296,198.4508 256.5596,219.5408 " fill="none" id="ListFunctorImpl-to-ListKindHelper" style="stroke:#F5BDE6;stroke-width:1.0;stroke-dasharray:7.0,7.0;"/><polygon fill="#F5BDE6" points="251.41,222.62,261.1872,221.4342,255.7013,220.054,257.0816,214.5681,251.41,222.62" style="stroke:#F5BDE6;stroke-width:1.0;"/><text fill="#CAD3F5" font-family="Helvetica" font-size="12" lengthAdjust="spacing" textLength="114.7207" x="336.83" y="181.2402">uses for wrap/unwrap</text></g><!--SRC=[ZLN1Rjim3BthAxXUag19V2y23-s084FRMuTTgyYCJKoM34bf47Jzzr6oazfk0knaINnyVAH8-HiPfVS5GXL2u- -opCd3igHGxRTxZqvP4z24fR9rPfJrGIv8PKg6fjahHMPHIwKgai4k6YrDsDTw4IgiCQibcImjbmsV2b4HHy6w2KUeiTwYyq88OdgtamhXvf5CiLhFuJw_0UaXRllczTweODrgtPgxRHzntpIQM1gzuGdLE-eZdwsHnUgvnQJDW_GuKFD4FYH5dPpJFW9XjOBfqzmwphoOGPx3km2Om6yA1hs7S6mGTjOb9_4XXDAIZy-S6zGDkW5jUvI8D_FIuR57-okG9gxQYJ5L9XfkWUyZa08McIpnkpS79vjfqdvEudiUwpgxxDMb2SclevcnR6C3WgEo2c1t8wNCz8DRW-_OGwgQaHec4REnka0N-Hmgwue9GmyLgGgeRZItWmc-7tR9zjSM2WF_anJG_9rTyORtZrU1fe0eTb3eha7ELUxsFvccg-ijLs3-qAi1hsikGKAIDSawXo-LRAlJ2vKww1mexKPXXeMsk-dzxAg4dPRXUIZZguQ7_9goFkq5DxZK6uEChwSipgC2YyNVV31TlNLhF0rezsqF8n_SmLJRai5Q7zjOG3mq5S8sKiSstpo- -9aGWw7h4umxkuNshtYv_DGmSiZ5y9eIySX_14bidzcF-RwWy_5Wtm6_fZxb5iSiQwVqWkh_zPoCSQeRHtvuZIpHzuRf-lmnpKl5nLVIm1OJWh00ZkKhUp1mu1y1IEQk6-ifjaX6niHegVjf1mQnmCYpZaw9GCN7Il8zIKsbYG5R7ijNxA0WMJfP-pdyGMp8b401Advb5XhVK2_5Fm00]--></g></svg>