<svg xmlns="http://www.w3.org/2000/svg" xmlns:xlink="http://www.w3.org/1999/xlink" contentStyleType="text/css" height="1014px" preserveAspectRatio="none" style="width:2004px;height:1014px;background:#24273A;" version="1.1" viewBox="0 0 2004 1014" width="2004px" zoomAndPan="magnify"><defs/><g><rect fill="#24273A" height="1014" style="stroke:none;stroke-width:1.0;" width="2004" x="0" y="0"/><!--class Kind--><g id="elem_Kind"><rect codeLine="8" fill="#24273A" height="59.1992" id="Kind" rx="1.5" ry="1.5" style="stroke:#C6A0F6;stroke-width:2.0;" width="153.0879" x="1469.46" y="695.72"/><rect fill="#363A4F" height="30" rx="1.5" ry="1.5" style="stroke:#363A4F;stroke-width:2.0;" width="153.0879" x="1469.46" y="695.72"/><rect fill="#363A4F" height="1.5" style="stroke:#363A4F;stroke-width:2.0;" width="153.0879" x="1469.46" y="724.22"/><rect codeLine="8" fill="none" height="59.1992" id="Kind" rx="1.5" ry="1.5" style="stroke:#C6A0F6;stroke-width:2.0;" width="153.0879" x="1469.46" y="695.72"/><ellipse cx="1483.46" cy="710.72" fill="#B4A7E5" rx="10" ry="10" style="stroke:#181818;stroke-width:1.0;"/><path d="M1480.4678,707.9954 L1480.4678,706.472 L1485.6768,706.472 L1485.6768,707.9954 L1483.9366,707.9954 L1483.9366,713.6966 L1485.6768,713.6966 L1485.6768,715.22 L1480.4678,715.22 L1480.4678,713.6966 L1482.208,713.6966 L1482.208,707.9954 Z " fill="#CAD3F5"/><text fill="#A6DA95" font-family="sans-serif" font-size="16" font-style="italic" lengthAdjust="spacing" textLength="35.0703" x="1496.46" y="716.7669">Kind</text><rect fill="#24273A" height="14" style="stroke:#C6A0F6;stroke-width:1.0;stroke-dasharray:2.0,2.0;" width="86.0176" x="1539.5303" y="692.72"/><text fill="#CAD3F5" font-family="Roboto, Helvetica" font-size="12" font-style="italic" lengthAdjust="spacing" textLength="84.0176" x="1540.5303" y="702.9602">WITNESS, VAL</text><line style="stroke:#C6A0F6;stroke-width:2.0;" x1="1470.46" x2="1621.5479" y1="725.72" y2="725.72"/><line style="stroke:#C6A0F6;stroke-width:1.0;stroke-dasharray:1.0,2.0;" x1="1470.46" x2="1520.5713" y1="740.7864" y2="740.7864"/><text fill="#A6DA95" font-family="sans-serif" font-size="12" lengthAdjust="spacing" textLength="50.8652" x="1520.5713" y="744.8216">methods</text><line style="stroke:#C6A0F6;stroke-width:1.0;stroke-dasharray:1.0,2.0;" x1="1571.4366" x2="1621.5479" y1="740.7864" y2="740.7864"/></g><g id="elem_GMN3"><path d="M1657.82,714.75 L1657.82,721.32 L1622.71,725.32 L1657.82,729.32 L1657.82,735.8828 A1.5,1.5 0 0 0 1659.32,737.3828 L1894.6852,737.3828 A1.5,1.5 0 0 0 1896.1852,735.8828 L1896.1852,723.25 L1886.1852,713.25 L1659.32,713.25 A1.5,1.5 0 0 0 1657.82,714.75 " fill="#EED49F" style="stroke:#24273A;stroke-width:0.5;"/><path d="M1886.1852,713.25 L1886.1852,722.5 A0.75,0.75 0 0 0 1886.9352,723.25 L1896.1852,723.25 L1886.1852,713.25 " fill="#EED49F" style="stroke:#24273A;stroke-width:0.5;"/><text fill="#24273A" font-family="sans-serif" font-size="12" lengthAdjust="spacing" textLength="217.3652" x="1663.82" y="729.8516">Generic Kind interface from HKJ core.</text></g><!--class Monad--><g id="elem_Monad"><rect codeLine="13" fill="#24273A" height="52.1328" id="Monad" rx="1.5" ry="1.5" style="stroke:#C6A0F6;stroke-width:2.0;" width="364.0137" x="7" y="510.59"/><rect fill="#363A4F" height="30" rx="1.5" ry="1.5" style="stroke:#363A4F;stroke-width:2.0;" width="364.0137" x="7" y="510.59"/><rect fill="#363A4F" height="1.5" style="stroke:#363A4F;stroke-width:2.0;" width="364.0137" x="7" y="539.09"/><rect codeLine="13" fill="none" height="52.1328" id="Monad" rx="1.5" ry="1.5" style="stroke:#C6A0F6;stroke-width:2.0;" width="364.0137" x="7" y="510.59"/><ellipse cx="153.1191" cy="525.59" fill="#B4A7E5" rx="10" ry="10" style="stroke:#181818;stroke-width:1.0;"/><path d="M150.127,522.8654 L150.127,521.342 L155.3359,521.342 L155.3359,522.8654 L153.5957,522.8654 L153.5957,528.5666 L155.3359,528.5666 L155.3359,530.09 L150.127,530.09 L150.127,528.5666 L151.8672,528.5666 L151.8672,522.8654 Z " fill="#CAD3F5"/><text fill="#A6DA95" font-family="sans-serif" font-size="16" font-style="italic" lengthAdjust="spacing" textLength="52.4453" x="172.1191" y="531.6369">Monad</text><rect fill="#24273A" height="14" style="stroke:#C6A0F6;stroke-width:1.0;stroke-dasharray:2.0,2.0;" width="9.3301" x="364.6836" y="507.59"/><text fill="#CAD3F5" font-family="Roboto, Helvetica" font-size="12" font-style="italic" lengthAdjust="spacing" textLength="7.3301" x="365.6836" y="517.8302">F</text><line style="stroke:#C6A0F6;stroke-width:2.0;" x1="8" x2="370.0137" y1="540.59" y2="540.59"/><text fill="#A6DA95" font-family="sans-serif" font-size="12" lengthAdjust="spacing" textLength="352.0137" x="13" y="556.1916">flatMap(Function&lt;A, Kind&lt;F, B&gt;&gt;, Kind&lt;F, A&gt;): Kind&lt;F, B&gt;</text></g><!--class Applicative--><g id="elem_Applicative"><rect fill="#24273A" height="30" id="Applicative" rx="1.5" ry="1.5" style="stroke:#C6A0F6;stroke-width:2.0;" width="115.2656" x="131.37" y="286.59"/><rect fill="#363A4F" height="30" rx="1.5" ry="1.5" style="stroke:#363A4F;stroke-width:2.0;" width="115.2656" x="131.37" y="286.59"/><rect fill="#363A4F" height="1.5" style="stroke:#363A4F;stroke-width:2.0;" width="115.2656" x="131.37" y="315.09"/><rect fill="none" height="30" id="Applicative" rx="1.5" ry="1.5" style="stroke:#C6A0F6;stroke-width:2.0;" width="115.2656" x="131.37" y="286.59"/><ellipse cx="145.37" cy="301.59" fill="#B4A7E5" rx="10" ry="10" style="stroke:#181818;stroke-width:1.0;"/><path d="M142.3778,298.8654 L142.3778,297.342 L147.5868,297.342 L147.5868,298.8654 L145.8466,298.8654 L145.8466,304.5666 L147.5868,304.5666 L147.5868,306.09 L142.3778,306.09 L142.3778,304.5666 L144.118,304.5666 L144.118,298.8654 Z " fill="#CAD3F5"/><text fill="#A6DA95" font-family="sans-serif" font-size="16" font-style="italic" lengthAdjust="spacing" textLength="85.2656" x="158.37" y="307.6369">Applicative</text></g><g id="elem_GMN9"><path d="M406.31,526.09 L406.31,532.66 L371.23,536.66 L406.31,540.66 L406.31,547.2228 A1.5,1.5 0 0 0 407.81,548.7228 L656.2065,548.7228 A1.5,1.5 0 0 0 657.7065,547.2228 L657.7065,534.59 L647.7065,524.59 L407.81,524.59 A1.5,1.5 0 0 0 406.31,526.09 " fill="#EED49F" style="stroke:#24273A;stroke-width:0.5;"/><path d="M647.7065,524.59 L647.7065,533.84 A0.75,0.75 0 0 0 648.4565,534.59 L657.7065,534.59 L647.7065,524.59 " fill="#EED49F" style="stroke:#24273A;stroke-width:0.5;"/><text fill="#24273A" font-family="sans-serif" font-size="12" lengthAdjust="spacing" textLength="230.3965" x="412.31" y="541.1916">Generic Monad interface from HKJ core.</text></g><!--class MonadError--><g id="elem_MonadError"><rect codeLine="18" fill="#24273A" height="66.2656" id="MonadError" rx="1.5" ry="1.5" style="stroke:#C6A0F6;stroke-width:2.0;" width="414.9844" x="520.51" y="692.19"/><rect fill="#363A4F" height="30" rx="1.5" ry="1.5" style="stroke:#363A4F;stroke-width:2.0;" width="414.9844" x="520.51" y="692.19"/><rect fill="#363A4F" height="1.5" style="stroke:#363A4F;stroke-width:2.0;" width="414.9844" x="520.51" y="720.69"/><rect codeLine="18" fill="none" height="66.2656" id="MonadError" rx="1.5" ry="1.5" style="stroke:#C6A0F6;stroke-width:2.0;" width="414.9844" x="520.51" y="692.19"/><ellipse cx="665.7082" cy="707.19" fill="#B4A7E5" rx="10" ry="10" style="stroke:#181818;stroke-width:1.0;"/><path d="M662.7161,704.4654 L662.7161,702.942 L667.925,702.942 L667.925,704.4654 L666.1848,704.4654 L666.1848,710.1666 L667.925,710.1666 L667.925,711.69 L662.7161,711.69 L662.7161,710.1666 L664.4563,710.1666 L664.4563,704.4654 Z " fill="#CAD3F5"/><text fill="#A6DA95" font-family="sans-serif" font-size="16" font-style="italic" lengthAdjust="spacing" textLength="90.5859" x="684.7082" y="713.2369">MonadError</text><rect fill="#24273A" height="14" style="stroke:#C6A0F6;stroke-width:1.0;stroke-dasharray:2.0,2.0;" width="24.002" x="914.4924" y="689.19"/><text fill="#CAD3F5" font-family="Roboto, Helvetica" font-size="12" font-style="italic" lengthAdjust="spacing" textLength="22.002" x="915.4924" y="699.4302">F, E</text><line style="stroke:#C6A0F6;stroke-width:2.0;" x1="521.51" x2="934.4944" y1="722.19" y2="722.19"/><text fill="#A6DA95" font-family="sans-serif" font-size="12" lengthAdjust="spacing" textLength="146.0039" x="526.51" y="737.7916">raiseError(E): Kind&lt;F, A&gt;</text><text fill="#A6DA95" font-family="sans-serif" font-size="12" lengthAdjust="spacing" textLength="402.9844" x="526.51" y="751.9244">handleErrorWith(Kind&lt;F, A&gt;, Function&lt;E, Kind&lt;F, A&gt;&gt;): Kind&lt;F, A&gt;</text></g><g id="elem_GMN14"><path d="M970.01,714.75 L970.01,721.32 L935.79,725.32 L970.01,729.32 L970.01,735.8828 A1.5,1.5 0 0 0 971.51,737.3828 L1248.512,737.3828 A1.5,1.5 0 0 0 1250.012,735.8828 L1250.012,723.25 L1240.012,713.25 L971.51,713.25 A1.5,1.5 0 0 0 970.01,714.75 " fill="#EED49F" style="stroke:#24273A;stroke-width:0.5;"/><path d="M1240.012,713.25 L1240.012,722.5 A0.75,0.75 0 0 0 1240.762,723.25 L1250.012,723.25 L1240.012,713.25 " fill="#EED49F" style="stroke:#24273A;stroke-width:0.5;"/><text fill="#24273A" font-family="sans-serif" font-size="12" lengthAdjust="spacing" textLength="259.002" x="976.01" y="729.8516">Generic MonadError interface from HKJ core.</text></g><!--class EitherT--><g id="elem_EitherT"><rect codeLine="25" fill="#24273A" height="159.0625" id="EitherT" rx="1.5" ry="1.5" style="stroke:#C6A0F6;stroke-width:2.0;" width="340.7168" x="1560.65" y="457.12"/><rect fill="#363A4F" height="30" rx="1.5" ry="1.5" style="stroke:#363A4F;stroke-width:2.0;" width="340.7168" x="1560.65" y="457.12"/><rect fill="#363A4F" height="1.5" style="stroke:#363A4F;stroke-width:2.0;" width="340.7168" x="1560.65" y="485.62"/><rect codeLine="25" fill="none" height="159.0625" id="EitherT" rx="1.5" ry="1.5" style="stroke:#C6A0F6;stroke-width:2.0;" width="340.7168" x="1560.65" y="457.12"/><ellipse cx="1679.6109" cy="472.12" fill="#ADD1B2" rx="10" ry="10" style="stroke:#181818;stroke-width:1.0;"/><path d="M1681.4449,476.368 Q1681.0348,476.579 1680.5836,476.6845 Q1680.1324,476.7899 1679.6344,476.7899 Q1677.8648,476.7899 1676.9332,475.6239 Q1676.0016,474.4579 1676.0016,472.2548 Q1676.0016,470.0458 1676.9332,468.8798 Q1677.8648,467.7138 1679.6344,467.7138 Q1680.1324,467.7138 1680.5895,467.8192 Q1681.0465,467.9247 1681.4449,468.1356 L1681.4449,470.0575 Q1680.9996,469.6473 1680.5807,469.4569 Q1680.1617,469.2665 1679.7164,469.2665 Q1678.7672,469.2665 1678.2838,470.0194 Q1677.8004,470.7723 1677.8004,472.2548 Q1677.8004,473.7313 1678.2838,474.4843 Q1678.7672,475.2372 1679.7164,475.2372 Q1680.1617,475.2372 1680.5807,475.0468 Q1680.9996,474.8563 1681.4449,474.4462 Z " fill="#CAD3F5"/><text fill="#A6DA95" font-family="sans-serif" font-size="16" lengthAdjust="spacing" textLength="54.7891" x="1698.6109" y="478.1669">EitherT</text><rect fill="#24273A" height="14" style="stroke:#C6A0F6;stroke-width:1.0;stroke-dasharray:2.0,2.0;" width="38.0059" x="1866.3609" y="454.12"/><text fill="#CAD3F5" font-family="Roboto, Helvetica" font-size="12" font-style="italic" lengthAdjust="spacing" textLength="36.0059" x="1867.3609" y="464.3602">F, L, R</text><line style="stroke:#C6A0F6;stroke-width:2.0;" x1="1561.65" x2="1900.3668" y1="487.12" y2="487.12"/><text fill="#A6DA95" font-family="sans-serif" font-size="12" lengthAdjust="spacing" textLength="181.1426" x="1566.65" y="502.7216">+value: Kind&lt;F, Either&lt;L, R&gt;&gt;</text><line style="stroke:#C6A0F6;stroke-width:2.0;" x1="1561.65" x2="1900.3668" y1="509.2528" y2="509.2528"/><text fill="#A6DA95" font-family="sans-serif" font-size="12" lengthAdjust="spacing" textLength="192.0059" x="1566.65" y="524.8544">+EitherT(Kind&lt;F, Either&lt;L, R&gt;&gt;)</text><text fill="#A6DA95" font-family="sans-serif" font-size="12" lengthAdjust="spacing" text-decoration="underline" textLength="308.4844" x="1566.65" y="538.9872">+fromKind(Kind&lt;F, Either&lt;L, R&gt;&gt;): EitherT&lt;F, L, R&gt;</text><text fill="#A6DA95" font-family="sans-serif" font-size="12" lengthAdjust="spacing" text-decoration="underline" textLength="228.5391" x="1566.65" y="553.12">+right(Monad&lt;F&gt;, R): EitherT&lt;F, L, R&gt;</text><text fill="#A6DA95" font-family="sans-serif" font-size="12" lengthAdjust="spacing" text-decoration="underline" textLength="218.6074" x="1566.65" y="567.2528">+left(Monad&lt;F&gt;, L): EitherT&lt;F, L, R&gt;</text><text fill="#A6DA95" font-family="sans-serif" font-size="12" lengthAdjust="spacing" text-decoration="underline" textLength="328.7168" x="1566.65" y="581.3856">+fromEither(Monad&lt;F&gt;, Either&lt;L, R&gt;): EitherT&lt;F, L, R&gt;</text><text fill="#A6DA95" font-family="sans-serif" font-size="12" lengthAdjust="spacing" text-decoration="underline" textLength="282.4219" x="1566.65" y="595.5184">+liftF(Monad&lt;F&gt;, Kind&lt;F, R&gt;): EitherT&lt;F, L, R&gt;</text><text fill="#A6DA95" font-family="sans-serif" font-size="12" lengthAdjust="spacing" textLength="188.9473" x="1566.65" y="609.6513">+value(): Kind&lt;F, Either&lt;L, R&gt;&gt;</text></g><!--class EitherTKind--><g id="elem_EitherTKind"><rect codeLine="36" fill="#24273A" height="59.1992" id="EitherTKind" rx="1.5" ry="1.5" style="stroke:#C6A0F6;stroke-width:2.0;" width="159.8652" x="1524.07" y="834.45"/><rect fill="#363A4F" height="30" rx="1.5" ry="1.5" style="stroke:#363A4F;stroke-width:2.0;" width="159.8652" x="1524.07" y="834.45"/><rect fill="#363A4F" height="1.5" style="stroke:#363A4F;stroke-width:2.0;" width="159.8652" x="1524.07" y="862.95"/><rect codeLine="36" fill="none" height="59.1992" id="EitherTKind" rx="1.5" ry="1.5" style="stroke:#C6A0F6;stroke-width:2.0;" width="159.8652" x="1524.07" y="834.45"/><ellipse cx="1538.07" cy="849.45" fill="#B4A7E5" rx="10" ry="10" style="stroke:#181818;stroke-width:1.0;"/><path d="M1535.0778,846.7254 L1535.0778,845.202 L1540.2868,845.202 L1540.2868,846.7254 L1538.5466,846.7254 L1538.5466,852.4266 L1540.2868,852.4266 L1540.2868,853.95 L1535.0778,853.95 L1535.0778,852.4266 L1536.818,852.4266 L1536.818,846.7254 Z " fill="#CAD3F5"/><text fill="#A6DA95" font-family="sans-serif" font-size="16" font-style="italic" lengthAdjust="spacing" textLength="89.8594" x="1551.07" y="855.4969">EitherTKind</text><rect fill="#24273A" height="14" style="stroke:#C6A0F6;stroke-width:1.0;stroke-dasharray:2.0,2.0;" width="38.0059" x="1648.9294" y="831.45"/><text fill="#CAD3F5" font-family="Roboto, Helvetica" font-size="12" font-style="italic" lengthAdjust="spacing" textLength="36.0059" x="1649.9294" y="841.6902">F, L, R</text><line style="stroke:#C6A0F6;stroke-width:2.0;" x1="1525.07" x2="1682.9352" y1="864.45" y2="864.45"/><line style="stroke:#C6A0F6;stroke-width:1.0;stroke-dasharray:1.0,2.0;" x1="1525.07" x2="1567.821" y1="879.5164" y2="879.5164"/><text fill="#A6DA95" font-family="sans-serif" font-size="12" lengthAdjust="spacing" textLength="72.3633" x="1567.821" y="883.5516">witness type</text><line style="stroke:#C6A0F6;stroke-width:1.0;stroke-dasharray:1.0,2.0;" x1="1640.1843" x2="1682.9352" y1="879.5164" y2="879.5164"/></g><g id="elem_GMN20"><path d="M1417.98,956.15 L1417.98,1005.5484 A1.5,1.5 0 0 0 1419.48,1007.0484 L1788.5327,1007.0484 A1.5,1.5 0 0 0 1790.0327,1005.5484 L1790.0327,964.65 L1780.0327,954.65 L1608.01,954.65 L1604.01,894.02 L1600.01,954.65 L1419.48,954.65 A1.5,1.5 0 0 0 1417.98,956.15 " fill="#EED49F" style="stroke:#24273A;stroke-width:0.5;"/><path d="M1780.0327,954.65 L1780.0327,963.9 A0.75,0.75 0 0 0 1780.7827,964.65 L1790.0327,964.65 L1780.0327,954.65 " fill="#EED49F" style="stroke:#24273A;stroke-width:0.5;"/><text fill="#24273A" font-family="sans-serif" font-size="12" lengthAdjust="spacing" textLength="152.8945" x="1423.98" y="971.2516">F: Witness of outer monad</text><text fill="#24273A" font-family="sans-serif" font-size="12" lengthAdjust="spacing" textLength="151.4063" x="1423.98" y="985.3844">L: Left type of inner Either</text><text fill="#24273A" font-family="sans-serif" font-size="12" lengthAdjust="spacing" textLength="351.0527" x="1423.98" y="999.5172">R: Right type of inner Either (the value type A in Kind&lt;G,A&gt;)</text></g><!--class EitherTKindHelper--><g id="elem_EitherTKindHelper"><rect codeLine="47" fill="#24273A" height="130.7969" id="EitherTKindHelper" rx="1.5" ry="1.5" style="stroke:#C6A0F6;stroke-width:2.0;" width="429.3516" x="798.33" y="471.26"/><rect fill="#363A4F" height="30" rx="1.5" ry="1.5" style="stroke:#363A4F;stroke-width:2.0;" width="429.3516" x="798.33" y="471.26"/><rect fill="#363A4F" height="1.5" style="stroke:#363A4F;stroke-width:2.0;" width="429.3516" x="798.33" y="499.76"/><rect codeLine="47" fill="none" height="130.7969" id="EitherTKindHelper" rx="1.5" ry="1.5" style="stroke:#C6A0F6;stroke-width:2.0;" width="429.3516" x="798.33" y="471.26"/><ellipse cx="926.3261" cy="486.26" fill="#ADD1B2" rx="10" ry="10" style="stroke:#181818;stroke-width:1.0;"/><path d="M928.1601,490.508 Q927.7499,490.719 927.2988,490.8245 Q926.8476,490.9299 926.3495,490.9299 Q924.58,490.9299 923.6484,489.7639 Q922.7167,488.5979 922.7167,486.3948 Q922.7167,484.1858 923.6484,483.0198 Q924.58,481.8538 926.3495,481.8538 Q926.8476,481.8538 927.3046,481.9592 Q927.7616,482.0647 928.1601,482.2756 L928.1601,484.1975 Q927.7148,483.7873 927.2958,483.5969 Q926.8769,483.4065 926.4316,483.4065 Q925.4823,483.4065 924.9989,484.1594 Q924.5155,484.9123 924.5155,486.3948 Q924.5155,487.8713 924.9989,488.6243 Q925.4823,489.3772 926.4316,489.3772 Q926.8769,489.3772 927.2958,489.1868 Q927.7148,488.9963 928.1601,488.5862 Z " fill="#CAD3F5"/><text fill="#A6DA95" font-family="sans-serif" font-size="16" lengthAdjust="spacing" textLength="140.6875" x="945.3261" y="492.3069">EitherTKindHelper</text><rect fill="#24273A" height="14" style="stroke:#C6A0F6;stroke-width:1.0;stroke-dasharray:2.0,2.0;" width="22.6719" x="1208.0097" y="468.26"/><text fill="#CAD3F5" font-family="Roboto, Helvetica" font-size="12" font-style="italic" lengthAdjust="spacing" textLength="20.6719" x="1209.0097" y="478.5002">F, L</text><line style="stroke:#C6A0F6;stroke-width:2.0;" x1="799.33" x2="1226.6816" y1="501.26" y2="501.26"/><text fill="#A6DA95" font-family="sans-serif" font-size="12" lengthAdjust="spacing" text-decoration="underline" textLength="201.2754" x="804.33" y="516.8616">+INVALID_KIND_NULL_MSG: String</text><text fill="#A6DA95" font-family="sans-serif" font-size="12" lengthAdjust="spacing" text-decoration="underline" textLength="199.5" x="804.33" y="530.9944">+INVALID_KIND_TYPE_MSG: String</text><text fill="#A6DA95" font-family="sans-serif" font-size="12" lengthAdjust="spacing" text-decoration="underline" textLength="226.1953" x="804.33" y="545.1272">+INVALID_HOLDER_STATE_MSG: String</text><line style="stroke:#C6A0F6;stroke-width:2.0;" x1="799.33" x2="1226.6816" y1="551.6584" y2="551.6584"/><text fill="#A6DA95" font-family="sans-serif" font-size="12" lengthAdjust="spacing" textLength="120.2637" x="804.33" y="567.26">-EitherTKindHelper()</text><text fill="#A6DA95" font-family="sans-serif" font-size="12" lengthAdjust="spacing" text-decoration="underline" textLength="417.3516" x="804.33" y="581.3928">+unwrap(Kind&lt;EitherTKind&lt;F_IN, L_IN, ?&gt;, R&gt;): EitherT&lt;F_IN, L_IN, R&gt;</text><text fill="#A6DA95" font-family="sans-serif" font-size="12" lengthAdjust="spacing" text-decoration="underline" textLength="344.4199" x="804.33" y="595.5256">+wrap(EitherT&lt;F_IN, L_IN, R&gt;): EitherTKind&lt;F_IN, L_IN, R&gt;</text></g><g id="elem_GMN25"><path d="M1262.32,526.09 L1262.32,532.66 L1228.06,536.66 L1262.32,540.66 L1262.32,547.2228 A1.5,1.5 0 0 0 1263.82,548.7228 L1524.1989,548.7228 A1.5,1.5 0 0 0 1525.6989,547.2228 L1525.6989,534.59 L1515.6989,524.59 L1263.82,524.59 A1.5,1.5 0 0 0 1262.32,526.09 " fill="#EED49F" style="stroke:#24273A;stroke-width:0.5;"/><path d="M1515.6989,524.59 L1515.6989,533.84 A0.75,0.75 0 0 0 1516.4489,534.59 L1525.6989,534.59 L1515.6989,524.59 " fill="#EED49F" style="stroke:#24273A;stroke-width:0.5;"/><text fill="#24273A" font-family="sans-serif" font-size="12" lengthAdjust="spacing" textLength="242.3789" x="1268.32" y="541.1916">Utility for safe wrapping and unwrapping.</text></g><!--class EitherTMonad--><g id="elem_EitherTMonad"><rect codeLine="58" fill="#24273A" height="159.0625" id="EitherTMonad" rx="1.5" ry="1.5" style="stroke:#C6A0F6;stroke-width:2.0;" width="811.998" x="322.01" y="222.06"/><rect fill="#363A4F" height="30" rx="1.5" ry="1.5" style="stroke:#363A4F;stroke-width:2.0;" width="811.998" x="322.01" y="222.06"/><rect fill="#363A4F" height="1.5" style="stroke:#363A4F;stroke-width:2.0;" width="811.998" x="322.01" y="250.56"/><rect codeLine="58" fill="none" height="159.0625" id="EitherTMonad" rx="1.5" ry="1.5" style="stroke:#C6A0F6;stroke-width:2.0;" width="811.998" x="322.01" y="222.06"/><ellipse cx="658.0559" cy="237.06" fill="#ADD1B2" rx="10" ry="10" style="stroke:#181818;stroke-width:1.0;"/><path d="M659.8899,241.308 Q659.4797,241.519 659.0286,241.6245 Q658.5774,241.7299 658.0793,241.7299 Q656.3098,241.7299 655.3782,240.5639 Q654.4465,239.3979 654.4465,237.1948 Q654.4465,234.9858 655.3782,233.8198 Q656.3098,232.6537 658.0793,232.6537 Q658.5774,232.6537 659.0344,232.7592 Q659.4914,232.8647 659.8899,233.0756 L659.8899,234.9975 Q659.4446,234.5873 659.0256,234.3969 Q658.6067,234.2065 658.1614,234.2065 Q657.2121,234.2065 656.7288,234.9594 Q656.2454,235.7123 656.2454,237.1948 Q656.2454,238.6713 656.7288,239.4243 Q657.2121,240.1772 658.1614,240.1772 Q658.6067,240.1772 659.0256,239.9868 Q659.4446,239.7963 659.8899,239.3862 Z " fill="#CAD3F5"/><text fill="#A6DA95" font-family="sans-serif" font-size="16" lengthAdjust="spacing" textLength="107.2344" x="677.0559" y="243.1069">EitherTMonad</text><rect fill="#24273A" height="14" style="stroke:#C6A0F6;stroke-width:1.0;stroke-dasharray:2.0,2.0;" width="22.6719" x="1114.3362" y="219.06"/><text fill="#CAD3F5" font-family="Roboto, Helvetica" font-size="12" font-style="italic" lengthAdjust="spacing" textLength="20.6719" x="1115.3362" y="229.3002">F, L</text><line style="stroke:#C6A0F6;stroke-width:2.0;" x1="323.01" x2="1133.008" y1="252.06" y2="252.06"/><text fill="#A6DA95" font-family="sans-serif" font-size="12" lengthAdjust="spacing" textLength="149.6191" x="328.01" y="267.6616">-outerMonad: Monad&lt;F&gt;</text><line style="stroke:#C6A0F6;stroke-width:2.0;" x1="323.01" x2="1133.008" y1="274.1928" y2="274.1928"/><text fill="#A6DA95" font-family="sans-serif" font-size="12" lengthAdjust="spacing" textLength="162.6152" x="328.01" y="289.7944">+EitherTMonad(Monad&lt;F&gt;)</text><text fill="#A6DA95" font-family="sans-serif" font-size="12" lengthAdjust="spacing" textLength="224.4258" x="328.01" y="303.9272">+of(R): Kind&lt;EitherTKind&lt;F, L, ?&gt;, R&gt;</text><text fill="#A6DA95" font-family="sans-serif" font-size="12" lengthAdjust="spacing" textLength="609.3398" x="328.01" y="318.06">+map(Function&lt;R_IN, R_OUT&gt;, Kind&lt;EitherTKind&lt;F, L, ?&gt;, R_IN&gt;): Kind&lt;EitherTKind&lt;F, L, ?&gt;, R_OUT&gt;</text><text fill="#A6DA95" font-family="sans-serif" font-size="12" lengthAdjust="spacing" textLength="770.666" x="328.01" y="332.1928">+ap(Kind&lt;EitherTKind&lt;F, L, ?&gt;, Function&lt;R_IN, R_OUT&gt;&gt;, Kind&lt;EitherTKind&lt;F, L, ?&gt;, R_IN&gt;): Kind&lt;EitherTKind&lt;F, L, ?&gt;, R_OUT&gt;</text><text fill="#A6DA95" font-family="sans-serif" font-size="12" lengthAdjust="spacing" textLength="799.998" x="328.01" y="346.3256">+flatMap(Function&lt;R_IN, Kind&lt;EitherTKind&lt;F, L, ?&gt;, R_OUT&gt;&gt;, Kind&lt;EitherTKind&lt;F, L, ?&gt;, R_IN&gt;): Kind&lt;EitherTKind&lt;F, L, ?&gt;, R_OUT&gt;</text><text fill="#A6DA95" font-family="sans-serif" font-size="12" lengthAdjust="spacing" textLength="267.8672" x="328.01" y="360.4584">+raiseError(L): Kind&lt;EitherTKind&lt;F, L, ?&gt;, R&gt;</text><text fill="#A6DA95" font-family="sans-serif" font-size="12" lengthAdjust="spacing" textLength="749.707" x="328.01" y="374.5912">+handleErrorWith(Kind&lt;EitherTKind&lt;F, L, ?&gt;, R&gt;, Function&lt;L, Kind&lt;EitherTKind&lt;F, L, ?&gt;, R&gt;&gt;): Kind&lt;EitherTKind&lt;F, L, ?&gt;, R&gt;</text></g><g id="elem_GMN30"><path d="M599.36,67.9 L599.36,103.1656 A1.5,1.5 0 0 0 600.86,104.6656 L724.01,104.6656 L728.01,221.91 L732.01,104.6656 L855.1569,104.6656 A1.5,1.5 0 0 0 856.6569,103.1656 L856.6569,76.4 L846.6569,66.4 L600.86,66.4 A1.5,1.5 0 0 0 599.36,67.9 " fill="#EED49F" style="stroke:#24273A;stroke-width:0.5;"/><path d="M846.6569,66.4 L846.6569,75.65 A0.75,0.75 0 0 0 847.4069,76.4 L856.6569,76.4 L846.6569,66.4 " fill="#EED49F" style="stroke:#24273A;stroke-width:0.5;"/><text fill="#24273A" font-family="sans-serif" font-size="12" lengthAdjust="spacing" textLength="152.8945" x="605.36" y="83.0016">F: Witness of outer monad</text><text fill="#24273A" font-family="sans-serif" font-size="12" lengthAdjust="spacing" textLength="236.2969" x="605.36" y="97.1344">L: Left type (Error type E for MonadError)</text></g><!--class Either--><g id="elem_Either"><rect codeLine="79" fill="#24273A" height="151.0625" id="Either" rx="1.5" ry="1.5" style="stroke:#C6A0F6;stroke-width:2.0;" width="311.3262" x="891.34" y="10"/><rect fill="#363A4F" height="30" rx="1.5" ry="1.5" style="stroke:#363A4F;stroke-width:2.0;" width="311.3262" x="891.34" y="10"/><rect fill="#363A4F" height="1.5" style="stroke:#363A4F;stroke-width:2.0;" width="311.3262" x="891.34" y="38.5"/><rect codeLine="79" fill="none" height="151.0625" id="Either" rx="1.5" ry="1.5" style="stroke:#C6A0F6;stroke-width:2.0;" width="311.3262" x="891.34" y="10"/><ellipse cx="1009.3302" cy="25" fill="#B4A7E5" rx="10" ry="10" style="stroke:#181818;stroke-width:1.0;"/><path d="M1006.338,22.2754 L1006.338,20.752 L1011.547,20.752 L1011.547,22.2754 L1009.8068,22.2754 L1009.8068,27.9766 L1011.547,27.9766 L1011.547,29.5 L1006.338,29.5 L1006.338,27.9766 L1008.0783,27.9766 L1008.0783,22.2754 Z " fill="#CAD3F5"/><text fill="#A6DA95" font-family="sans-serif" font-size="16" font-style="italic" lengthAdjust="spacing" textLength="44.6719" x="1028.3302" y="31.0469">Either</text><rect fill="#24273A" height="14" style="stroke:#C6A0F6;stroke-width:1.0;stroke-dasharray:2.0,2.0;" width="20.6738" x="1184.9923" y="7"/><text fill="#CAD3F5" font-family="Roboto, Helvetica" font-size="12" font-style="italic" lengthAdjust="spacing" textLength="18.6738" x="1185.9923" y="17.2402">L,R</text><line style="stroke:#C6A0F6;stroke-width:2.0;" x1="892.34" x2="1201.6662" y1="40" y2="40"/><text fill="#A6DA95" font-family="sans-serif" font-size="12" lengthAdjust="spacing" textLength="93.4922" x="897.34" y="55.6016">isLeft(): boolean</text><text fill="#A6DA95" font-family="sans-serif" font-size="12" lengthAdjust="spacing" textLength="101.9824" x="897.34" y="69.7344">isRight(): boolean</text><text fill="#A6DA95" font-family="sans-serif" font-size="12" lengthAdjust="spacing" textLength="62.4375" x="897.34" y="83.8672">getLeft(): L</text><text fill="#A6DA95" font-family="sans-serif" font-size="12" lengthAdjust="spacing" textLength="72.1172" x="897.34" y="98">getRight(): R</text><text fill="#A6DA95" font-family="sans-serif" font-size="12" lengthAdjust="spacing" textLength="218.4199" x="897.34" y="112.1328">map(Function&lt;R, R2&gt;): Either&lt;L,R2&gt;</text><text fill="#A6DA95" font-family="sans-serif" font-size="12" lengthAdjust="spacing" textLength="299.3262" x="897.34" y="126.2656">flatMap(Function&lt;R, Either&lt;L,R2&gt;&gt;): Either&lt;L,R2&gt;</text><text fill="#A6DA95" font-family="sans-serif" font-size="12" lengthAdjust="spacing" text-decoration="underline" textLength="111.2168" x="897.34" y="140.3984">left(L): Either&lt;L,R&gt;</text><text fill="#A6DA95" font-family="sans-serif" font-size="12" lengthAdjust="spacing" text-decoration="underline" textLength="121.1484" x="897.34" y="154.5313">right(R): Either&lt;L,R&gt;</text></g><g id="elem_GMN38"><path d="M1237.93,74.96 L1237.93,81.53 L1202.77,85.53 L1237.93,89.53 L1237.93,96.0928 A1.5,1.5 0 0 0 1239.43,97.5928 L1354.5902,97.5928 A1.5,1.5 0 0 0 1356.0902,96.0928 L1356.0902,83.46 L1346.0902,73.46 L1239.43,73.46 A1.5,1.5 0 0 0 1237.93,74.96 " fill="#EED49F" style="stroke:#24273A;stroke-width:0.5;"/><path d="M1346.0902,73.46 L1346.0902,82.71 A0.75,0.75 0 0 0 1346.8402,83.46 L1356.0902,83.46 L1346.0902,73.46 " fill="#EED49F" style="stroke:#24273A;stroke-width:0.5;"/><text fill="#24273A" font-family="sans-serif" font-size="12" lengthAdjust="spacing" textLength="97.1602" x="1243.93" y="90.0616">Core Either type.</text></g><!--reverse link Applicative to Monad--><g id="link_Applicative_Monad"><path d="M189.01,334.82 C189.01,373.17 189.01,461.07 189.01,510.11 " fill="none" id="Applicative-backto-Monad" style="stroke:#F5BDE6;stroke-width:1.0;"/><polygon fill="none" points="189.01,316.82,183.01,334.82,195.01,334.82,189.01,316.82" style="stroke:#F5BDE6;stroke-width:1.0;"/></g><!--reverse link Monad to MonadError--><g id="link_Monad_MonadError"><path d="M267.4564,569.8701 C306.7864,585.7801 342.26,599.57 389.01,616.19 C465.55,643.39 552.91,671.18 619.77,691.77 " fill="none" id="Monad-backto-MonadError" style="stroke:#F5BDE6;stroke-width:1.0;"/><polygon fill="none" points="250.77,563.12,265.2064,575.4322,269.7064,564.3079,250.77,563.12" style="stroke:#F5BDE6;stroke-width:1.0;"/></g><!--reverse link Kind to EitherTKind--><g id="link_Kind_EitherTKind"><path d="M1556.3907,772.6736 C1560.0707,787.7036 1561.11,788.7 1568.01,804.45 C1572.41,814.51 1578.3,824.91 1584.04,834.11 " fill="none" id="Kind-backto-EitherTKind" style="stroke:#F5BDE6;stroke-width:1.0;"/><polygon fill="none" points="1552.11,755.19,1550.5629,774.1005,1562.2186,771.2467,1552.11,755.19" style="stroke:#F5BDE6;stroke-width:1.0;"/></g><!--reverse link Kind to EitherTKind--><g id="link_Kind_EitherTKind"><path codeLine="93" d="M1565.3384,771.8911 C1575.1784,795.0911 1581.89,810.9 1591.72,834.1 " fill="none" id="Kind-backto-EitherTKind-1" style="stroke:#F5BDE6;stroke-width:1.0;"/><polygon fill="none" points="1558.31,755.32,1559.8147,774.2339,1570.8621,769.5483,1558.31,755.32" style="stroke:#F5BDE6;stroke-width:1.0;"/><text fill="#CAD3F5" font-family="sans-serif" font-size="12" lengthAdjust="spacing" textLength="176.9004" x="1579.48" y="801.0516">(EitherTKind is a specific Kind)</text></g><!--link EitherT to EitherTKind--><g id="link_EitherT_EitherTKind"><path codeLine="45" d="M1859.63,616.53 C1910.34,657.73 1949.07,709.62 1914.01,758.45 C1862.08,830.78 1775.4398,852.0527 1702.1698,858.9927 " fill="none" id="EitherT-to-EitherTKind" style="stroke:#F5BDE6;stroke-width:1.0;stroke-dasharray:7.0,7.0;"/><polygon fill="none" points="1684.25,860.69,1702.7356,864.9659,1701.604,853.0194,1684.25,860.69" style="stroke:#F5BDE6;stroke-width:1.0;"/><text fill="#CAD3F5" font-family="sans-serif" font-size="12" lengthAdjust="spacing" textLength="68.3203" x="1928.47" y="729.9216">implements</text></g><!--reverse link MonadError to EitherTMonad--><g id="link_MonadError_EitherTMonad"><path d="M737.1632,673.8736 C743.5432,607.9236 742.84,474.76 738.51,381.42 " fill="none" id="MonadError-backto-EitherTMonad" style="stroke:#F5BDE6;stroke-width:1.0;stroke-dasharray:7.0,7.0;"/><polygon fill="none" points="735.43,691.79,743.1353,674.4514,731.1911,673.2959,735.43,691.79" style="stroke:#F5BDE6;stroke-width:1.0;"/></g><!--link EitherTMonad to MonadError--><g id="link_EitherTMonad_MonadError"><path codeLine="76" d="M717.51,381.42 C713.18,474.76 712.4641,607.9239 718.8541,673.8739 " fill="none" id="EitherTMonad-to-MonadError" style="stroke:#F5BDE6;stroke-width:1.0;"/><polygon fill="none" points="720.59,691.79,724.8261,673.2953,712.882,674.4525,720.59,691.79" style="stroke:#F5BDE6;stroke-width:1.0;"/></g><!--link EitherTMonad to EitherTKindHelper--><g id="link_EitherTMonad_EitherTKindHelper"><path codeLine="73" d="M824.49,381.5 C860.02,410.55 895.1745,439.3027 929.0245,466.9727 " fill="none" id="EitherTMonad-to-EitherTKindHelper" style="stroke:#F5BDE6;stroke-width:1.0;stroke-dasharray:7.0,7.0;"/><polygon fill="#F5BDE6" points="933.67,470.77,929.2334,461.977,929.7988,467.6056,924.1703,468.171,933.67,470.77" style="stroke:#F5BDE6;stroke-width:1.0;"/><text fill="#CAD3F5" font-family="sans-serif" font-size="12" lengthAdjust="spacing" textLength="128.5137" x="880.05" y="423.7216">uses for wrap/unwrap</text></g><!--link EitherTMonad to EitherT--><g id="link_EitherTMonad_EitherT"><path codeLine="74" d="M1134.38,362.46 C1266.14,386.42 1412.05,417.83 1543.01,457.12 C1548.68,458.83 1548.724,458.7545 1554.494,460.6645 " fill="none" id="EitherTMonad-to-EitherT" style="stroke:#F5BDE6;stroke-width:1.0;stroke-dasharray:7.0,7.0;"/><polygon fill="#F5BDE6" points="1560.19,462.55,1552.903,455.9244,1555.4433,460.9787,1550.3889,463.5191,1560.19,462.55" style="stroke:#F5BDE6;stroke-width:1.0;"/><text fill="#CAD3F5" font-family="sans-serif" font-size="12" lengthAdjust="spacing" textLength="119.0859" x="1435.38" y="423.7216">creates/manipulates</text></g><!--link EitherTMonad to Monad--><g id="link_EitherTMonad_Monad"><path codeLine="75" d="M507.72,381.48 C483.37,391.08 459.06,401.07 436.01,411.12 C364.7,442.24 290.0166,481.0024 240.9066,507.3624 " fill="none" id="EitherTMonad-to-Monad" style="stroke:#F5BDE6;stroke-width:1.0;stroke-dasharray:7.0,7.0;"/><polygon fill="#F5BDE6" points="235.62,510.2,245.4416,509.468,240.0255,507.8353,241.6582,502.4192,235.62,510.2" style="stroke:#F5BDE6;stroke-width:1.0;"/><text fill="#CAD3F5" font-family="sans-serif" font-size="12" lengthAdjust="spacing" textLength="247.1602" x="437.01" y="423.7216">(depends on instance of outer Monad&lt;F&gt;)</text></g><!--reverse link EitherT to Kind--><g id="link_EitherT_Kind"><path codeLine="92" d="M1644.3728,625.0732 C1616.5628,653.1332 1595.43,674.45 1574.47,695.6 " fill="none" id="EitherT-backto-Kind" style="stroke:#F5BDE6;stroke-width:1.0;"/><polygon fill="#F5BDE6" points="1652.82,616.55,1645.7553,617.9958,1644.3728,625.0732,1651.4374,623.6273,1652.82,616.55" style="stroke:#F5BDE6;stroke-width:1.0;"/><text fill="#CAD3F5" font-family="sans-serif" font-size="12" lengthAdjust="spacing" textLength="143.9063" x="1622.94" y="658.7916">(value field holds a Kind)</text><text fill="#CAD3F5" font-family="sans-serif" font-size="12" lengthAdjust="spacing" textLength="7.5879" x="1572.9956" y="685.1837">1</text></g><!--SRC=[hLVVS-8s47xdhr1vgTF3qDwZ9-CERI2XSSYD8StqYH5c3Pgp9Oyj9xrUyhzt9TbOOCDnC_S0OqlVxdwh_IN_n7YKb1iWEocpmXkDSlewt3AvAzTb0Naak0GkXv58HpmIXQGkYqOHbLbMHX7ZRagZQCUe56wMK2xBD77b3b8OfPJnaNuSPhZQwnMV6SzeJbCI9RGenbBcR5rAcA6D1ViFoAyMP0CnBHCvHVDpcWBfXs8jf1YGEqXUGBA8zdixXhGXpUGNaaAwXhpezNg4C6ISnpG2Si_uvlfvjfnF5ei1-NiS-EGh0WWP3b52xiIcm4TSUSSV5n98phOxIKIiHJro2nno5katIs-SYvJStVz58f73yD3cW-1qSptr2VoB1uS6nbcM85t9Na0j6m9nGkK3pPnfoIF91ByU3mpRwO3yuVlDozY_ygoTJgxQP4DMltuFsqcUYrpfdpIizsuOlZbb1MYSCx48ZNszkwDyavZjPymSfzaUaBs74zif_rZ92Q-qpYFNzDeP_r2JJZ0oGIwGBvMDO432sfSFv8Kc9JG43EvQO_mAKiawdPYh2lGLom5JyLrJKCWJSAz5vLY1zjgf3nqH5yWa4DiYmGKYYgV1M88srqlCibXEBV7QvNF2-i2TgzD7_dwObfMQ6csYLwUcNcqZVlUj66E1lpB90RD0VidWgCgnaqZC6KmoIusMcthakPB3NO7TAIUfSbNl1Xu9yD2DIjnd7DEoqg41eKT2dRzT2EBWlpaAip_6RUFDxM2iamhzqmpLQLJKaFgRR_Ca7c5fbc1VvR9e9Rj2O8lCG1TqqEJyFdwpEJR2sStgVZQ_MSsVWc3riBZro0AxCT-U1I__-JIv17pt6DnCmjLYELwsyMwRgTEgfvA_vjWTsv5UpURebVutyRPppjfifwrMs0rjTBICXDszgUM2HvuaInXEeXXxKq5Zq0Opz9fWSwmSKgyT3Qgg9Hsk9hHsR-xEzdrqNPEfrHoeI_Ema-dLVTdM9ovY9wpBybH9LT3K7bUXEPtLuzEoRW4dn17eVyE2rb9PwOpw7jff_ySIQ4rcO-gRuZ-MXJLlWmlZqpc4JybOHncS9-xx5zZVLuWKcLKV3_lE-HrzrJ7pNJzFT3arXN2YHveRpt3ejmiJkoLUOmkjHvNWo5JY6LcKY7AW4WgymdAMbObwxX8mJnvnDf3foIGuTdHiE3o2nasxv0vKkEwRR_cc-q9x269yzbDDRHVgfDGeNGkH0ENDXfuy7JjRaBLCOAtjuM6zU5ZX6DgFJMjKD3xwDR9T98C3t2cvmxjBS81gWyobAEn0lUl_hfxiaJ_n5bXFN9L4fk7MmVt5TKd_jpwf9gbZnd7C8DcGdKWmY5JlgMXfpFMRwnwDNyT-PKgYo21YSVMXSANi_Kn2m4F2iobsB2imh2yYUL7ZO6lkiYY6FF7J9u9CbZJHCbfZVzed-YC8LFhW5Q4oDx1f30vpIRDebE4bZN_M6gN0-MDd8d5Wk1tYAQb18-awWMafonoCqiTCKQQ9yUD_]--></g></svg>