<svg xmlns="http://www.w3.org/2000/svg" xmlns:xlink="http://www.w3.org/1999/xlink" contentStyleType="text/css" height="1129.2px" preserveAspectRatio="none" style="width:1492px;height:1129px;background:#24273A;" version="1.1" viewBox="0 0 1492 1129" width="1492.8px" zoomAndPan="magnify"><defs/><g><rect fill="#24273A" height="1129.2" style="stroke:none;stroke-width:1.2;" width="1492.8" x="0" y="0"/><!--class MaybeTKind--><g id="elem_MaybeTKind"><rect codeLine="7" fill="#24273A" height="60" id="MaybeTKind" rx="1.8" ry="1.8" style="stroke:#C6A0F6;stroke-width:2.4;" width="302.8828" x="485.148" y="822"/><rect fill="#363A4F" height="36" rx="1.8" ry="1.8" style="stroke:#363A4F;stroke-width:2.4;" width="302.8828" x="485.148" y="822"/><rect fill="#363A4F" height="1.8" style="stroke:#363A4F;stroke-width:2.4;" width="302.8828" x="485.148" y="856.2"/><rect codeLine="7" fill="none" height="60" id="MaybeTKind" rx="1.8" ry="1.8" style="stroke:#C6A0F6;stroke-width:2.4;" width="302.8828" x="485.148" y="822"/><ellipse cx="562.296" cy="840" fill="#B4A7E5" rx="12" ry="12" style="stroke:#181818;stroke-width:1.2;"/><path d="M558.7054,836.7305 L558.7054,834.9023 L564.9562,834.9023 L564.9562,836.7305 L562.8679,836.7305 L562.8679,843.5719 L564.9562,843.5719 L564.9562,845.4 L558.7054,845.4 L558.7054,843.5719 L560.7937,843.5719 L560.7937,836.7305 Z " fill="#CAD3F5"/><text fill="#A6DA95" font-family="Helvetica" font-size="19.2" font-style="italic" lengthAdjust="spacing" textLength="107.7844" x="585.096" y="845.1844">MaybeTKind</text><rect fill="#24273A" height="16.8" style="stroke:#C6A0F6;stroke-width:1.2;stroke-dasharray:2.0,2.0;" width="28.8023" x="762.8285" y="818.4"/><text fill="#CAD3F5" font-family="Helvetica" font-size="14.4" font-style="italic" lengthAdjust="spacing" textLength="26.4023" x="764.0285" y="830.6883">F, A</text><line style="stroke:#C6A0F6;stroke-width:2.4;" x1="486.348" x2="786.8308" y1="858" y2="858"/><ellipse cx="498.348" cy="871.8" fill="#84BE84" rx="3.6" ry="3.6" style="stroke:#038048;stroke-width:1.2;"/><text fill="#A6DA95" font-family="Helvetica" font-size="14.4" lengthAdjust="spacing" text-decoration="underline" textLength="272.8828" x="507.948" y="873.8883">class Witness&lt;OUTER_F&gt; &#171;(W,lightblue)&#187;</text></g><!--class Kind--><g id="elem_Kind"><rect fill="#24273A" height="36" id="Kind" rx="1.8" ry="1.8" style="stroke:#C6A0F6;stroke-width:2.4;" width="74.4281" x="599.376" y="712.8"/><rect fill="#363A4F" height="36" rx="1.8" ry="1.8" style="stroke:#363A4F;stroke-width:2.4;" width="74.4281" x="599.376" y="712.8"/><rect fill="#363A4F" height="1.8" style="stroke:#363A4F;stroke-width:2.4;" width="74.4281" x="599.376" y="747"/><rect fill="none" height="36" id="Kind" rx="1.8" ry="1.8" style="stroke:#C6A0F6;stroke-width:2.4;" width="74.4281" x="599.376" y="712.8"/><ellipse cx="616.176" cy="730.8" fill="#B4A7E5" rx="12" ry="12" style="stroke:#181818;stroke-width:1.2;"/><path d="M612.5854,727.5305 L612.5854,725.7023 L618.8362,725.7023 L618.8362,727.5305 L616.7479,727.5305 L616.7479,734.3719 L618.8362,734.3719 L618.8362,736.2 L612.5854,736.2 L612.5854,734.3719 L614.6737,734.3719 L614.6737,727.5305 Z " fill="#CAD3F5"/><text fill="#A6DA95" font-family="Helvetica" font-size="19.2" font-style="italic" lengthAdjust="spacing" textLength="38.4281" x="631.776" y="735.9844">Kind</text></g><!--class MaybeT<F, A>--><g id="elem_MaybeT&lt;F, A&gt;"><rect codeLine="12" fill="#24273A" height="165.6" id="MaybeT&lt;F, A&gt;" rx="1.8" ry="1.8" style="stroke:#C6A0F6;stroke-width:2.4;" width="490.2164" x="391.488" y="955.2"/><rect fill="#363A4F" height="36" rx="1.8" ry="1.8" style="stroke:#363A4F;stroke-width:2.4;" width="490.2164" x="391.488" y="955.2"/><rect fill="#363A4F" height="1.8" style="stroke:#363A4F;stroke-width:2.4;" width="490.2164" x="391.488" y="989.4"/><rect codeLine="12" fill="none" height="165.6" id="MaybeT&lt;F, A&gt;" rx="1.8" ry="1.8" style="stroke:#C6A0F6;stroke-width:2.4;" width="490.2164" x="391.488" y="955.2"/><ellipse cx="568.304" cy="973.2" fill="#ADD1B2" rx="12" ry="12" style="stroke:#181818;stroke-width:1.2;"/><path d="M570.5048,978.2977 Q570.0126,978.5508 569.4712,978.6773 Q568.9298,978.8039 568.3321,978.8039 Q566.2087,978.8039 565.0907,977.4047 Q563.9728,976.0055 563.9728,973.3617 Q563.9728,970.7109 565.0907,969.3117 Q566.2087,967.9125 568.3321,967.9125 Q568.9298,967.9125 569.4782,968.0391 Q570.0267,968.1656 570.5048,968.4187 L570.5048,970.725 Q569.9704,970.2328 569.4677,970.0043 Q568.965,969.7758 568.4306,969.7758 Q567.2915,969.7758 566.7114,970.6793 Q566.1314,971.5828 566.1314,973.3617 Q566.1314,975.1336 566.7114,976.0371 Q567.2915,976.9406 568.4306,976.9406 Q568.965,976.9406 569.4677,976.7121 Q569.9704,976.4836 570.5048,975.9914 Z " fill="#CAD3F5"/><text fill="#A6DA95" font-family="Helvetica" font-size="19.2" lengthAdjust="spacing" textLength="126.9844" x="591.104" y="978.3844">MaybeT&lt;F, A&gt;</text><line style="stroke:#C6A0F6;stroke-width:2.4;" x1="392.688" x2="880.5044" y1="991.2" y2="991.2"/><ellipse cx="404.688" cy="1005" fill="none" rx="3.6" ry="3.6" style="stroke:#038048;stroke-width:1.2;"/><text fill="#A6DA95" font-family="Helvetica" font-size="14.4" lengthAdjust="spacing" textLength="174.5086" x="414.288" y="1007.0883">value: Kind&lt;F, Maybe&lt;A&gt;&gt;</text><line style="stroke:#C6A0F6;stroke-width:1.2;" x1="392.688" x2="880.5044" y1="1015.2" y2="1015.2"/><ellipse cx="404.688" cy="1029" fill="#84BE84" rx="3.6" ry="3.6" style="stroke:#038048;stroke-width:1.2;"/><text fill="#A6DA95" font-family="Helvetica" font-size="14.4" lengthAdjust="spacing" text-decoration="underline" textLength="302.5336" x="414.288" y="1031.0883">fromKind(Kind&lt;F, Maybe&lt;A&gt;&gt;): MaybeT&lt;F, A&gt;</text><ellipse cx="404.688" cy="1043.4" fill="#84BE84" rx="3.6" ry="3.6" style="stroke:#038048;stroke-width:1.2;"/><text fill="#A6DA95" font-family="Helvetica" font-size="14.4" lengthAdjust="spacing" text-decoration="underline" textLength="315.3516" x="414.288" y="1045.4883">just(Monad&lt;F&gt; outerMonad, A a): MaybeT&lt;F, A&gt;</text><ellipse cx="404.688" cy="1057.8" fill="#84BE84" rx="3.6" ry="3.6" style="stroke:#038048;stroke-width:1.2;"/><text fill="#A6DA95" font-family="Helvetica" font-size="14.4" lengthAdjust="spacing" text-decoration="underline" textLength="310.5703" x="414.288" y="1059.8883">nothing(Monad&lt;F&gt; outerMonad): MaybeT&lt;F, A&gt;</text><ellipse cx="404.688" cy="1072.2" fill="#84BE84" rx="3.6" ry="3.6" style="stroke:#038048;stroke-width:1.2;"/><text fill="#A6DA95" font-family="Helvetica" font-size="14.4" lengthAdjust="spacing" text-decoration="underline" textLength="460.2164" x="414.288" y="1074.2883">fromMaybe(Monad&lt;F&gt; outerMonad, Maybe&lt;A&gt; maybe): MaybeT&lt;F, A&gt;</text><ellipse cx="404.688" cy="1086.6" fill="#84BE84" rx="3.6" ry="3.6" style="stroke:#038048;stroke-width:1.2;"/><text fill="#A6DA95" font-family="Helvetica" font-size="14.4" lengthAdjust="spacing" text-decoration="underline" textLength="382.5773" x="414.288" y="1088.6883">liftF(Monad&lt;F&gt; outerMonad, Kind&lt;F, A&gt; fa): MaybeT&lt;F, A&gt;</text><line style="stroke:#C6A0F6;stroke-width:1.2;" x1="392.688" x2="880.5044" y1="1096.8" y2="1096.8"/><ellipse cx="404.688" cy="1110.6" fill="#84BE84" rx="3.6" ry="3.6" style="stroke:#038048;stroke-width:1.2;"/><text fill="#A6DA95" font-family="Helvetica" font-size="14.4" lengthAdjust="spacing" textLength="184.0992" x="414.288" y="1112.6883">value(): Kind&lt;F, Maybe&lt;A&gt;&gt;</text></g><g id="elem_GMN7"><path d="M7.2,1026.6 L7.2,1049.4 A1.8,1.8 0 0 0 9,1051.2 L347.3859,1051.2 A1.8,1.8 0 0 0 349.1859,1049.4 L349.1859,1046.4 L391.116,1038 L349.1859,1036.8 L349.1859,1036.8 L337.1859,1024.8 L9,1024.8 A1.8,1.8 0 0 0 7.2,1026.6 " fill="#EED49F" style="stroke:#24273A;stroke-width:0.6;"/><path d="M337.1859,1024.8 L337.1859,1035.9 A0.9,0.9 0 0 0 338.0859,1036.8 L349.1859,1036.8 L337.1859,1024.8 " fill="#EED49F" style="stroke:#24273A;stroke-width:0.6;"/><text fill="#24273A" font-family="Helvetica" font-size="14.4" lengthAdjust="spacing" textLength="316.7859" x="14.4" y="1041.8883">"Wraps a monadic value of Kind&lt;F, Maybe&lt;A&gt;&gt;."</text></g><!--class MaybeTMonad--><g id="elem_MaybeTMonad"><rect codeLine="25" fill="#24273A" height="180" id="MaybeTMonad" rx="1.8" ry="1.8" style="stroke:#C6A0F6;stroke-width:2.4;" width="1019.2758" x="123.36" y="117.6"/><rect fill="#363A4F" height="36" rx="1.8" ry="1.8" style="stroke:#363A4F;stroke-width:2.4;" width="1019.2758" x="123.36" y="117.6"/><rect fill="#363A4F" height="1.8" style="stroke:#363A4F;stroke-width:2.4;" width="1019.2758" x="123.36" y="151.8"/><rect codeLine="25" fill="none" height="180" id="MaybeTMonad" rx="1.8" ry="1.8" style="stroke:#C6A0F6;stroke-width:2.4;" width="1019.2758" x="123.36" y="117.6"/><ellipse cx="557.3686" cy="135.6" fill="#ADD1B2" rx="12" ry="12" style="stroke:#181818;stroke-width:1.2;"/><path d="M559.5694,140.6977 Q559.0772,140.9508 558.5358,141.0773 Q557.9944,141.2039 557.3967,141.2039 Q555.2733,141.2039 554.1553,139.8047 Q553.0373,138.4055 553.0373,135.7617 Q553.0373,133.1109 554.1553,131.7117 Q555.2733,130.3125 557.3967,130.3125 Q557.9944,130.3125 558.5428,130.4391 Q559.0913,130.5656 559.5694,130.8188 L559.5694,133.125 Q559.035,132.6328 558.5323,132.4043 Q558.0295,132.1758 557.4952,132.1758 Q556.3561,132.1758 555.776,133.0793 Q555.1959,133.9828 555.1959,135.7617 Q555.1959,137.5336 555.776,138.4371 Q556.3561,139.3406 557.4952,139.3406 Q558.0295,139.3406 558.5323,139.1121 Q559.035,138.8836 559.5694,138.3914 Z " fill="#CAD3F5"/><text fill="#A6DA95" font-family="Helvetica" font-size="19.2" lengthAdjust="spacing" textLength="128.0625" x="580.1686" y="140.7844">MaybeTMonad</text><rect fill="#24273A" height="16.8" style="stroke:#C6A0F6;stroke-width:1.2;stroke-dasharray:2.0,2.0;" width="11.1961" x="1135.0397" y="114"/><text fill="#CAD3F5" font-family="Helvetica" font-size="14.4" font-style="italic" lengthAdjust="spacing" textLength="8.7961" x="1136.2397" y="126.2883">F</text><line style="stroke:#C6A0F6;stroke-width:2.4;" x1="124.56" x2="1141.4358" y1="153.6" y2="153.6"/><rect fill="none" height="7.2" style="stroke:#C82930;stroke-width:1.2;" width="7.2" x="132.96" y="163.8"/><text fill="#A6DA95" font-family="Helvetica" font-size="14.4" lengthAdjust="spacing" textLength="154.4977" x="146.16" y="169.4883">outerMonad: Monad&lt;F&gt;</text><line style="stroke:#C6A0F6;stroke-width:1.2;" x1="124.56" x2="1141.4358" y1="177.6" y2="177.6"/><ellipse cx="136.56" cy="191.4" fill="#84BE84" rx="3.6" ry="3.6" style="stroke:#038048;stroke-width:1.2;"/><text fill="#A6DA95" font-family="Helvetica" font-size="14.4" lengthAdjust="spacing" textLength="256.1344" x="146.16" y="193.4883">MaybeTMonad(Monad&lt;F&gt; outerMonad)</text><line style="stroke:#C6A0F6;stroke-width:1.2;" x1="124.56" x2="1141.4358" y1="201.6" y2="201.6"/><ellipse cx="136.56" cy="215.4" fill="#84BE84" rx="3.6" ry="3.6" style="stroke:#038048;stroke-width:1.2;"/><text fill="#A6DA95" font-family="Helvetica" font-size="14.4" lengthAdjust="spacing" textLength="302.5406" x="146.16" y="217.4883">of(A value): Kind&lt;MaybeTKind.Witness&lt;F&gt;, A&gt;</text><ellipse cx="136.56" cy="229.8" fill="#84BE84" rx="3.6" ry="3.6" style="stroke:#038048;stroke-width:1.2;"/><text fill="#A6DA95" font-family="Helvetica" font-size="14.4" lengthAdjust="spacing" textLength="626.6953" x="146.16" y="231.8883">map(Function&lt;A, B&gt; f, Kind&lt;MaybeTKind.Witness&lt;F&gt;, A&gt; fa): Kind&lt;MaybeTKind.Witness&lt;F&gt;, B&gt;</text><ellipse cx="136.56" cy="244.2" fill="#84BE84" rx="3.6" ry="3.6" style="stroke:#038048;stroke-width:1.2;"/><text fill="#A6DA95" font-family="Helvetica" font-size="14.4" lengthAdjust="spacing" textLength="834.0047" x="146.16" y="246.2883">ap(Kind&lt;MaybeTKind.Witness&lt;F&gt;, Function&lt;A, B&gt;&gt; ff, Kind&lt;MaybeTKind.Witness&lt;F&gt;, A&gt; fa): Kind&lt;MaybeTKind.Witness&lt;F&gt;, B&gt;</text><ellipse cx="136.56" cy="258.6" fill="#84BE84" rx="3.6" ry="3.6" style="stroke:#038048;stroke-width:1.2;"/><text fill="#A6DA95" font-family="Helvetica" font-size="14.4" lengthAdjust="spacing" textLength="869.2031" x="146.16" y="260.6883">flatMap(Function&lt;A, Kind&lt;MaybeTKind.Witness&lt;F&gt;, B&gt;&gt; f, Kind&lt;MaybeTKind.Witness&lt;F&gt;, A&gt; ma): Kind&lt;MaybeTKind.Witness&lt;F&gt;, B&gt;</text><ellipse cx="136.56" cy="273" fill="#84BE84" rx="3.6" ry="3.6" style="stroke:#038048;stroke-width:1.2;"/><text fill="#A6DA95" font-family="Helvetica" font-size="14.4" lengthAdjust="spacing" textLength="368.9367" x="146.16" y="275.0883">raiseError(Void error): Kind&lt;MaybeTKind.Witness&lt;F&gt;, A&gt;</text><ellipse cx="136.56" cy="287.4" fill="#84BE84" rx="3.6" ry="3.6" style="stroke:#038048;stroke-width:1.2;"/><text fill="#A6DA95" font-family="Helvetica" font-size="14.4" lengthAdjust="spacing" textLength="989.2758" x="146.16" y="289.4883">handleErrorWith(Kind&lt;MaybeTKind.Witness&lt;F&gt;, A&gt; ma, Function&lt;Void, Kind&lt;MaybeTKind.Witness&lt;F&gt;, A&gt;&gt; handler): Kind&lt;MaybeTKind.Witness&lt;F&gt;, A&gt;</text></g><!--class MonadError--><g id="elem_MonadError"><rect fill="#24273A" height="36" id="MonadError" rx="1.8" ry="1.8" style="stroke:#C6A0F6;stroke-width:2.4;" width="137.3719" x="564.312" y="8.4"/><rect fill="#363A4F" height="36" rx="1.8" ry="1.8" style="stroke:#363A4F;stroke-width:2.4;" width="137.3719" x="564.312" y="8.4"/><rect fill="#363A4F" height="1.8" style="stroke:#363A4F;stroke-width:2.4;" width="137.3719" x="564.312" y="42.6"/><rect fill="none" height="36" id="MonadError" rx="1.8" ry="1.8" style="stroke:#C6A0F6;stroke-width:2.4;" width="137.3719" x="564.312" y="8.4"/><ellipse cx="581.112" cy="26.4" fill="#B4A7E5" rx="12" ry="12" style="stroke:#181818;stroke-width:1.2;"/><path d="M577.5214,23.1305 L577.5214,21.3023 L583.7722,21.3023 L583.7722,23.1305 L581.6839,23.1305 L581.6839,29.9719 L583.7722,29.9719 L583.7722,31.8 L577.5214,31.8 L577.5214,29.9719 L579.6097,29.9719 L579.6097,23.1305 Z " fill="#CAD3F5"/><text fill="#A6DA95" font-family="Helvetica" font-size="19.2" font-style="italic" lengthAdjust="spacing" textLength="101.3719" x="596.712" y="31.5844">MonadError</text></g><g id="elem_GMN13"><path d="M1185.132,196.2 L1185.132,202.8 L1143.036,207.6 L1185.132,212.4 L1185.132,219 A1.8,1.8 0 0 0 1186.932,220.8 L1483.0461,220.8 A1.8,1.8 0 0 0 1484.8461,219 L1484.8461,206.4 L1472.8461,194.4 L1186.932,194.4 A1.8,1.8 0 0 0 1185.132,196.2 " fill="#EED49F" style="stroke:#24273A;stroke-width:0.6;"/><path d="M1472.8461,194.4 L1472.8461,205.5 A0.9,0.9 0 0 0 1473.7461,206.4 L1484.8461,206.4 L1472.8461,194.4 " fill="#EED49F" style="stroke:#24273A;stroke-width:0.6;"/><text fill="#24273A" font-family="Helvetica" font-size="14.4" lengthAdjust="spacing" textLength="274.5141" x="1192.332" y="211.4883">Provides MonadError instance for MaybeT.</text></g><!--class MaybeTKindHelper--><g id="elem_MaybeTKindHelper"><rect codeLine="39" fill="#24273A" height="112.8" id="MaybeTKindHelper" rx="1.8" ry="1.8" style="stroke:#C6A0F6;stroke-width:2.4;" width="454.9688" x="728.304" y="386.4"/><rect fill="#363A4F" height="36" rx="1.8" ry="1.8" style="stroke:#363A4F;stroke-width:2.4;" width="454.9688" x="728.304" y="386.4"/><rect fill="#363A4F" height="1.8" style="stroke:#363A4F;stroke-width:2.4;" width="454.9688" x="728.304" y="420.6"/><rect codeLine="39" fill="none" height="112.8" id="MaybeTKindHelper" rx="1.8" ry="1.8" style="stroke:#C6A0F6;stroke-width:2.4;" width="454.9688" x="728.304" y="386.4"/><ellipse cx="868.8165" cy="404.4" fill="#D3D3D3" rx="12" ry="12" style="stroke:#181818;stroke-width:1.2;"/><path d="M864.9798,399.3023 L867.054,399.3023 L867.054,403.3031 L869.6485,403.3031 L869.6485,399.3023 L871.7227,399.3023 L871.7227,409.8 L869.6485,409.8 L869.6485,405.1312 L867.054,405.1312 L867.054,409.8 L864.9798,409.8 Z " fill="#CAD3F5"/><text fill="#A6DA95" font-family="Helvetica" font-size="19.2" lengthAdjust="spacing" textLength="164.3438" x="891.6165" y="409.5844">MaybeTKindHelper</text><line style="stroke:#C6A0F6;stroke-width:2.4;" x1="729.504" x2="1182.0727" y1="422.4" y2="422.4"/><ellipse cx="741.504" cy="436.2" fill="none" rx="3.6" ry="3.6" style="stroke:#038048;stroke-width:1.2;"/><text fill="#A6DA95" font-family="Helvetica" font-size="14.4" lengthAdjust="spacing" text-decoration="underline" textLength="229.6828" x="751.104" y="438.2883">INVALID_KIND_NULL_MSG: String</text><ellipse cx="741.504" cy="450.6" fill="none" rx="3.6" ry="3.6" style="stroke:#038048;stroke-width:1.2;"/><text fill="#A6DA95" font-family="Helvetica" font-size="14.4" lengthAdjust="spacing" text-decoration="underline" textLength="230.4773" x="751.104" y="452.6883">INVALID_KIND_TYPE_MSG: String</text><line style="stroke:#C6A0F6;stroke-width:1.2;" x1="729.504" x2="1182.0727" y1="460.8" y2="460.8"/><ellipse cx="741.504" cy="474.6" fill="#84BE84" rx="3.6" ry="3.6" style="stroke:#038048;stroke-width:1.2;"/><text fill="#A6DA95" font-family="Helvetica" font-size="14.4" lengthAdjust="spacing" text-decoration="underline" textLength="415.3852" x="751.104" y="476.6883">unwrap(Kind&lt;MaybeTKind.Witness&lt;F&gt;, A&gt; kind): MaybeT&lt;F, A&gt;</text><ellipse cx="741.504" cy="489" fill="#84BE84" rx="3.6" ry="3.6" style="stroke:#038048;stroke-width:1.2;"/><text fill="#A6DA95" font-family="Helvetica" font-size="14.4" lengthAdjust="spacing" text-decoration="underline" textLength="424.9688" x="751.104" y="491.0883">wrap(MaybeT&lt;F, A&gt; maybeT): Kind&lt;MaybeTKind.Witness&lt;F&gt;, A&gt;</text></g><g id="elem_GMN17"><path d="M481.572,431.4 L481.572,454.2 A1.8,1.8 0 0 0 483.372,456 L684.2197,456 A1.8,1.8 0 0 0 686.0197,454.2 L686.0197,451.2 L728.136,442.8 L686.0197,441.6 L686.0197,441.6 L674.0197,429.6 L483.372,429.6 A1.8,1.8 0 0 0 481.572,431.4 " fill="#EED49F" style="stroke:#24273A;stroke-width:0.6;"/><path d="M674.0197,429.6 L674.0197,440.7 A0.9,0.9 0 0 0 674.9197,441.6 L686.0197,441.6 L674.0197,429.6 " fill="#EED49F" style="stroke:#24273A;stroke-width:0.6;"/><text fill="#24273A" font-family="Helvetica" font-size="14.4" lengthAdjust="spacing" textLength="179.2477" x="488.772" y="446.6883">Utility for HKT wrap/unwrap.</text></g><!--class MaybeT--><g id="elem_MaybeT"><rect fill="#24273A" height="36" id="MaybeT" rx="1.8" ry="1.8" style="stroke:#C6A0F6;stroke-width:2.4;" width="105.3563" x="583.92" y="588"/><rect fill="#363A4F" height="36" rx="1.8" ry="1.8" style="stroke:#363A4F;stroke-width:2.4;" width="105.3563" x="583.92" y="588"/><rect fill="#363A4F" height="1.8" style="stroke:#363A4F;stroke-width:2.4;" width="105.3563" x="583.92" y="622.2"/><rect fill="none" height="36" id="MaybeT" rx="1.8" ry="1.8" style="stroke:#C6A0F6;stroke-width:2.4;" width="105.3563" x="583.92" y="588"/><ellipse cx="600.72" cy="606" fill="#ADD1B2" rx="12" ry="12" style="stroke:#181818;stroke-width:1.2;"/><path d="M602.9208,611.0977 Q602.4286,611.3508 601.8872,611.4773 Q601.3458,611.6039 600.7481,611.6039 Q598.6247,611.6039 597.5067,610.2047 Q596.3888,608.8055 596.3888,606.1617 Q596.3888,603.5109 597.5067,602.1117 Q598.6247,600.7125 600.7481,600.7125 Q601.3458,600.7125 601.8942,600.8391 Q602.4427,600.9656 602.9208,601.2188 L602.9208,603.525 Q602.3864,603.0328 601.8837,602.8043 Q601.3809,602.5758 600.8466,602.5758 Q599.7075,602.5758 599.1274,603.4793 Q598.5473,604.3828 598.5473,606.1617 Q598.5473,607.9336 599.1274,608.8371 Q599.7075,609.7406 600.8466,609.7406 Q601.3809,609.7406 601.8837,609.5121 Q602.3864,609.2836 602.9208,608.7914 Z " fill="#CAD3F5"/><text fill="#A6DA95" font-family="Helvetica" font-size="19.2" lengthAdjust="spacing" textLength="69.3563" x="616.32" y="611.1844">MaybeT</text></g><!--class Maybe--><g id="elem_Maybe"><rect fill="#24273A" height="36" id="Maybe" rx="1.8" ry="1.8" style="stroke:#C6A0F6;stroke-width:2.4;" width="93.6281" x="1050.576" y="712.8"/><rect fill="#363A4F" height="36" rx="1.8" ry="1.8" style="stroke:#363A4F;stroke-width:2.4;" width="93.6281" x="1050.576" y="712.8"/><rect fill="#363A4F" height="1.8" style="stroke:#363A4F;stroke-width:2.4;" width="93.6281" x="1050.576" y="747"/><rect fill="none" height="36" id="Maybe" rx="1.8" ry="1.8" style="stroke:#C6A0F6;stroke-width:2.4;" width="93.6281" x="1050.576" y="712.8"/><ellipse cx="1067.376" cy="730.8" fill="#ADD1B2" rx="12" ry="12" style="stroke:#181818;stroke-width:1.2;"/><path d="M1069.5768,735.8977 Q1069.0846,736.1508 1068.5432,736.2773 Q1068.0018,736.4039 1067.4041,736.4039 Q1065.2807,736.4039 1064.1627,735.0047 Q1063.0448,733.6055 1063.0448,730.9617 Q1063.0448,728.3109 1064.1627,726.9117 Q1065.2807,725.5125 1067.4041,725.5125 Q1068.0018,725.5125 1068.5502,725.6391 Q1069.0987,725.7656 1069.5768,726.0188 L1069.5768,728.325 Q1069.0424,727.8328 1068.5397,727.6043 Q1068.0369,727.3758 1067.5026,727.3758 Q1066.3635,727.3758 1065.7834,728.2793 Q1065.2033,729.1828 1065.2033,730.9617 Q1065.2033,732.7336 1065.7834,733.6371 Q1066.3635,734.5406 1067.5026,734.5406 Q1068.0369,734.5406 1068.5397,734.3121 Q1069.0424,734.0836 1069.5768,733.5914 Z " fill="#CAD3F5"/><text fill="#A6DA95" font-family="Helvetica" font-size="19.2" lengthAdjust="spacing" textLength="57.6281" x="1082.976" y="735.9844">Maybe</text></g><!--class Monad--><g id="elem_Monad"><rect fill="#24273A" height="36" id="Monad" rx="1.8" ry="1.8" style="stroke:#C6A0F6;stroke-width:2.4;" width="94.7063" x="255.636" y="712.8"/><rect fill="#363A4F" height="36" rx="1.8" ry="1.8" style="stroke:#363A4F;stroke-width:2.4;" width="94.7063" x="255.636" y="712.8"/><rect fill="#363A4F" height="1.8" style="stroke:#363A4F;stroke-width:2.4;" width="94.7063" x="255.636" y="747"/><rect fill="none" height="36" id="Monad" rx="1.8" ry="1.8" style="stroke:#C6A0F6;stroke-width:2.4;" width="94.7063" x="255.636" y="712.8"/><ellipse cx="272.436" cy="730.8" fill="#ADD1B2" rx="12" ry="12" style="stroke:#181818;stroke-width:1.2;"/><path d="M274.6368,735.8977 Q274.1446,736.1508 273.6032,736.2773 Q273.0618,736.4039 272.4641,736.4039 Q270.3407,736.4039 269.2227,735.0047 Q268.1047,733.6055 268.1047,730.9617 Q268.1047,728.3109 269.2227,726.9117 Q270.3407,725.5125 272.4641,725.5125 Q273.0618,725.5125 273.6102,725.6391 Q274.1587,725.7656 274.6368,726.0188 L274.6368,728.325 Q274.1024,727.8328 273.5997,727.6043 Q273.0969,727.3758 272.5626,727.3758 Q271.4235,727.3758 270.8434,728.2793 Q270.2633,729.1828 270.2633,730.9617 Q270.2633,732.7336 270.8434,733.6371 Q271.4235,734.5406 272.5626,734.5406 Q273.0969,734.5406 273.5997,734.3121 Q274.1024,734.0836 274.6368,733.5914 Z " fill="#CAD3F5"/><text fill="#A6DA95" font-family="Helvetica" font-size="19.2" lengthAdjust="spacing" textLength="58.7063" x="288.036" y="735.9844">Monad</text></g><!--reverse link Kind to MaybeTKind--><g id="link_Kind_MaybeTKind"><path d="M636.588,770.616 C636.588,789.48 636.588,798.648 636.588,821.412 " fill="none" id="Kind-backto-MaybeTKind" style="stroke:#F5BDE6;stroke-width:1.2;"/><polygon fill="none" points="636.588,749.016,629.388,770.616,643.788,770.616,636.588,749.016" style="stroke:#F5BDE6;stroke-width:1.2;"/></g><!--reverse link MaybeTKind to MaybeT<F, A>--><g id="link_MaybeTKind_MaybeT&lt;F, A&gt;"><path d="M636.588,903.888 C636.588,923.508 636.588,928.836 636.588,954.732 " fill="none" id="MaybeTKind-backto-MaybeT&lt;F, A&gt;" style="stroke:#F5BDE6;stroke-width:1.2;stroke-dasharray:7.0,7.0;"/><polygon fill="none" points="636.588,882.288,629.388,903.888,643.788,903.888,636.588,882.288" style="stroke:#F5BDE6;stroke-width:1.2;"/></g><!--reverse link MonadError to MaybeTMonad--><g id="link_MonadError_MaybeTMonad"><path d="M632.988,66.348 C632.988,83.472 632.988,89.58 632.988,117.252 " fill="none" id="MonadError-backto-MaybeTMonad" style="stroke:#F5BDE6;stroke-width:1.2;stroke-dasharray:7.0,7.0;"/><polygon fill="none" points="632.988,44.748,625.788,66.348,640.188,66.348,632.988,44.748" style="stroke:#F5BDE6;stroke-width:1.2;"/></g><!--link MaybeT to Kind--><g id="link_MaybeT_Kind"><path codeLine="75" d="M636.588,624.216 C636.588,647.472 636.588,681.744 636.588,705.132 " fill="none" id="MaybeT-to-Kind" style="stroke:#F5BDE6;stroke-width:1.2;"/><polygon fill="#F5BDE6" points="636.588,712.332,641.388,701.532,636.588,706.332,631.788,701.532,636.588,712.332" style="stroke:#F5BDE6;stroke-width:1.2;"/><text fill="#CAD3F5" font-family="Helvetica" font-size="14.4" lengthAdjust="spacing" textLength="34.425" x="597.1492" y="699.8761">value</text></g><!--link MaybeT to Maybe--><g id="link_MaybeT_Maybe"><path codeLine="76" d="M689.448,621.24 C780,645.288 956.3893,692.1477 1043.0413,715.1637 " fill="none" id="MaybeT-to-Maybe" style="stroke:#F5BDE6;stroke-width:1.2;stroke-dasharray:7.0,7.0;"/><polygon fill="#F5BDE6" points="1050,717.012,1040.7942,709.6004,1044.2011,715.4717,1038.3297,718.8786,1050,717.012" style="stroke:#F5BDE6;stroke-width:1.2;"/><text fill="#CAD3F5" font-family="Helvetica" font-size="14.4" lengthAdjust="spacing" textLength="84.0516" x="895.788" y="672.2883">uses in value</text></g><!--link MaybeT to Monad--><g id="link_MaybeT_Monad"><path codeLine="77" d="M584.52,624.552 C554.7,634.632 516.636,647.724 482.988,660 C436.104,677.124 389.5073,695.2359 353.1593,709.6119 " fill="none" id="MaybeT-to-Monad" style="stroke:#F5BDE6;stroke-width:1.2;stroke-dasharray:7.0,7.0;"/><polygon fill="#F5BDE6" points="346.464,712.26,358.2724,712.7514,352.0435,710.0533,354.7416,703.8243,346.464,712.26" style="stroke:#F5BDE6;stroke-width:1.2;"/><text fill="#CAD3F5" font-family="Helvetica" font-size="14.4" lengthAdjust="spacing" textLength="142.4672" x="484.188" y="672.2883">uses in static methods</text></g><!--link MaybeTMonad to Monad--><g id="link_MaybeTMonad_Monad"><path codeLine="79" d="M359.0409,306.8611 C328.3929,329.9851 314.568,350.244 300.588,386.4 C255.252,503.664 284.613,653.7766 296.925,705.3766 " fill="none" id="MaybeTMonad-Monad" style="stroke:#F5BDE6;stroke-width:1.2;"/><polygon fill="none" points="370.536,298.188,361.8974,298.6928,359.0409,306.8611,367.6795,306.3562,370.536,298.188" style="stroke:#F5BDE6;stroke-width:1.2;"/><polygon fill="#F5BDE6" points="298.596,712.38,300.7584,700.7609,297.2035,706.5438,291.4205,702.9889,298.596,712.38" style="stroke:#F5BDE6;stroke-width:1.2;"/><text fill="#CAD3F5" font-family="Helvetica" font-size="14.4" lengthAdjust="spacing" textLength="76.8516" x="206.5601" y="699.9412">outerMonad</text></g><!--link MaybeTMonad to MaybeTKindHelper--><g id="link_MaybeTMonad_MaybeTKindHelper"><path codeLine="80" d="M756.876,298.14 C797.76,327.636 836.2246,355.368 872.6086,381.612 " fill="none" id="MaybeTMonad-to-MaybeTKindHelper" style="stroke:#F5BDE6;stroke-width:1.2;stroke-dasharray:7.0,7.0;"/><polygon fill="#F5BDE6" points="878.448,385.824,872.4969,375.613,873.5818,382.314,866.8808,383.3989,878.448,385.824" style="stroke:#F5BDE6;stroke-width:1.2;"/><text fill="#CAD3F5" font-family="Helvetica" font-size="14.4" lengthAdjust="spacing" textLength="30.4172" x="824.508" y="345.8883">uses</text></g><!--link MaybeTMonad to MaybeT--><g id="link_MaybeTMonad_MaybeT"><path codeLine="81" d="M415.404,298.116 C381.456,321.744 350.928,350.868 330.588,386.4 C305.688,429.912 301.5,458.376 330.588,499.2 C388.248,580.092 504.9734,599.1774 576.1574,603.5214 " fill="none" id="MaybeTMonad-to-MaybeT" style="stroke:#F5BDE6;stroke-width:1.2;stroke-dasharray:7.0,7.0;"/><polygon fill="#F5BDE6" points="583.344,603.96,572.8564,598.5111,577.3551,603.5945,572.2717,608.0932,583.344,603.96" style="stroke:#F5BDE6;stroke-width:1.2;"/><text fill="#CAD3F5" font-family="Helvetica" font-size="14.4" lengthAdjust="spacing" textLength="128.0672" x="331.788" y="446.6883">uses via KindHelper</text></g><!--link MaybeTMonad to Maybe--><g id="link_MaybeTMonad_Maybe"><path codeLine="83" d="M1037.88,298.128 C1115.16,323.34 1179.684,353.112 1204.188,386.4 C1282.812,493.176 1161.9663,653.6531 1117.0503,706.9811 " fill="none" id="MaybeTMonad-to-Maybe" style="stroke:#F5BDE6;stroke-width:1.2;stroke-dasharray:7.0,7.0;"/><polygon fill="#F5BDE6" points="1112.412,712.488,1123.0407,707.3198,1116.2772,707.8989,1115.6981,701.1354,1112.412,712.488" style="stroke:#F5BDE6;stroke-width:1.2;"/><text fill="#CAD3F5" font-family="Helvetica" font-size="14.4" lengthAdjust="spacing" textLength="77.6461" x="1217.916" y="547.4883">manipulates</text></g><!--link MaybeTKindHelper to MaybeT--><g id="link_MaybeTKindHelper_MaybeT"><path codeLine="85" d="M845.052,499.788 C784.008,530.544 718.8458,563.364 677.4338,584.232 " fill="none" id="MaybeTKindHelper-to-MaybeT" style="stroke:#F5BDE6;stroke-width:1.2;stroke-dasharray:7.0,7.0;"/><polygon fill="#F5BDE6" points="671.004,587.472,682.8087,586.8985,676.3622,584.772,678.4886,578.3254,671.004,587.472" style="stroke:#F5BDE6;stroke-width:1.2;"/><text fill="#CAD3F5" font-family="Helvetica" font-size="14.4" lengthAdjust="spacing" textLength="96.8414" x="768.804" y="547.4883">wraps/unwraps</text></g><!--SRC=[hLTBRziu4BxxLypg4WThotV34E2WSPDDx2rQfy6U0bgcBJOIIP2Kkq6H_zuXALgov4SMs9nayflvvZtC7uodURcca1aZzNWqKkHdl6KcArUbfYeLt51kubGK8vuARSYGfQEK62dBD6LyM90qpHWnOYXpmarPv4EJqOAE2iBuo7t64azxlOmX2osaUOE25YkgT0__01Wog0r9ASp9suek7nXVJsO3c2P0_qNojGPtLD_6pynmglLabZZOBzG2y2VyGlCCIzyXpOdM451_ForllxxC4fXCeFyyoDasCwkyfDUG92Zvthi2uC9GKFO6n0QwL326Bndw9memRvB2HYYuUrY2PaMP8wdWiVN54qTUtZiH0IjaZc7WHdSz3ARl21eqXd3ZS9EfimzWE6mxk56YiDX-H-1w34tsjk2FKfl-N722KWc84aFlVY4Mo0LPZ576-FQO-0L9QwwxFquTZ8V2VbpGbREDcHtNquZhvgWp-q2wSFUlZmVylLVLGquthXnQ-Hn3zAo8r42WiCGizVeijAClZkgwy6hsfZVhmfxTAYNKgJB_GNOanWxRnjy5MuV26JRy7qFGVEXhW_LewWxHOjEVUdT2T4xsNILH4DcVbJorJJ2P3k06ep-urB8kF-SmDq4zQZ-7EsH6nVydzmPRUzvoxxpWHtmlFiol2DFKbKNVPXse_VneNd1ShNClZVTP_w9LZM1Qjaj-91N3XmpQzrHhnheIjCDLYHtkXsOdu6B0dkUf7xOU7hURoRBTqLnIvQRxdP_kMqNVx7JlReRxnVVfu_sdbuVxnQUNnTFZuylys-SnV3CA9zjPyFAVBxSTS7Sob_odkb2o6EnNFBimvvoQ9i1Fn-L_YdQOO9rWZU79i9pXBWwRpFADlFMnNSnNagIlP4iXobvDX96yQgxgUjGUdaUkX72CpPAeTJELCcVuSc0xQYTGsEsd1VomcjVGfeRvSNWrGmTmMui5FIZmtlJBnRFZsNuPkVFkygodOq1sS65HdiFObRWeyvoiSdfIPnm7EQR_ikI8M0cHKyBhYqNDrhhRKYSn3RzRa_h6bfIKhe4zxytUpcEJBs1EYBbtLFK0iiRQ6BQVFdWMDM2LwQUHDb_mbVeNbiwOr3rVojXv2KGkQf4hnd0UnubNW2ME3rYDcVN1FG1KKoS0V5BmMMeoiSPdQNCs2STKxyl8InzWzgI7BMRLdy05yXqZKCkSKTfuYEwjPbjEJAdeSJ545eGpQT-dTEzKmy03QspVwwh_zJdiHMCmOv-LA2Kc5fHD7Lq3_liW1RVPxLqPWNMPeKxNO5vf_ULokV_bGtrmMKKAI-Ct]--></g></svg>