<svg xmlns="http://www.w3.org/2000/svg" xmlns:xlink="http://www.w3.org/1999/xlink" contentStyleType="text/css" height="746px" preserveAspectRatio="none" style="width:1643px;height:746px;background:#24273A;" version="1.1" viewBox="0 0 1643 746" width="1643px" zoomAndPan="magnify"><defs/><g><rect fill="#24273A" height="746" style="stroke:none;stroke-width:1.0;" width="1643" x="0" y="0"/><!--class Kind--><g id="elem_Kind"><rect codeLine="9" fill="#24273A" height="28.8438" id="Kind" rx="1.5" ry="1.5" style="stroke:#C6A0F6;stroke-width:2.0;" width="153.7891" x="149.0019" y="214.51"/><rect fill="#363A4F" height="28.8438" rx="1.5" ry="1.5" style="stroke:#363A4F;stroke-width:2.0;" width="153.7891" x="149.0019" y="214.51"/><rect fill="#363A4F" height="1.5" style="stroke:#363A4F;stroke-width:2.0;" width="153.7891" x="149.0019" y="241.8538"/><rect codeLine="9" fill="none" height="28.8438" id="Kind" rx="1.5" ry="1.5" style="stroke:#C6A0F6;stroke-width:2.0;" width="153.7891" x="149.0019" y="214.51"/><ellipse cx="162.0019" cy="228.9319" fill="#FFFFFF" rx="9" ry="9" style="stroke:#000000;stroke-width:1.0;"/><path d="M159.0097,226.2073 L159.0097,224.6838 L164.2187,224.6838 L164.2187,226.2073 L162.4784,226.2073 L162.4784,231.9084 L164.2187,231.9084 L164.2187,233.4319 L159.0097,233.4319 L159.0097,231.9084 L160.7499,231.9084 L160.7499,226.2073 Z " fill="#CAD3F5"/><text fill="#A6DA95" font-family="sans-serif" font-size="16" font-style="italic" lengthAdjust="spacing" textLength="35.0703" x="174.0019" y="234.9788">Kind</text><rect fill="#24273A" height="16.584" style="stroke:#C6A0F6;stroke-width:1.0;stroke-dasharray:2.0,2.0;" width="88.7188" x="217.0722" y="211.51"/><text fill="#000000" font-family="Verdana" font-size="12" font-style="italic" lengthAdjust="spacing" textLength="86.7188" x="218.0722" y="224.5745">F_HKT, A_VAL</text></g><!--class Monad--><g id="elem_Monad"><rect codeLine="10" fill="#24273A" height="28.8438" id="Monad" rx="1.5" ry="1.5" style="stroke:#C6A0F6;stroke-width:2.0;" width="123.6973" x="708.0519" y="711.22"/><rect fill="#363A4F" height="28.8438" rx="1.5" ry="1.5" style="stroke:#363A4F;stroke-width:2.0;" width="123.6973" x="708.0519" y="711.22"/><rect fill="#363A4F" height="1.5" style="stroke:#363A4F;stroke-width:2.0;" width="123.6973" x="708.0519" y="738.5637"/><rect codeLine="10" fill="none" height="28.8438" id="Monad" rx="1.5" ry="1.5" style="stroke:#C6A0F6;stroke-width:2.0;" width="123.6973" x="708.0519" y="711.22"/><ellipse cx="721.0519" cy="725.6419" fill="#FFFFFF" rx="9" ry="9" style="stroke:#000000;stroke-width:1.0;"/><path d="M718.0597,722.9173 L718.0597,721.3938 L723.2687,721.3938 L723.2687,722.9173 L721.5284,722.9173 L721.5284,728.6184 L723.2687,728.6184 L723.2687,730.1419 L718.0597,730.1419 L718.0597,728.6184 L719.7999,728.6184 L719.7999,722.9173 Z " fill="#CAD3F5"/><text fill="#A6DA95" font-family="sans-serif" font-size="16" font-style="italic" lengthAdjust="spacing" textLength="52.4453" x="733.0519" y="731.6887">Monad</text><rect fill="#24273A" height="16.584" style="stroke:#C6A0F6;stroke-width:1.0;stroke-dasharray:2.0,2.0;" width="41.252" x="793.4972" y="708.22"/><text fill="#000000" font-family="Verdana" font-size="12" font-style="italic" lengthAdjust="spacing" textLength="39.252" x="794.4972" y="721.2845">F_HKT</text></g><!--class MonadError<F_HKT, E_ERR> extends Monad<F_HKT>--><g id="elem_MonadError&lt;F_HKT, E_ERR&gt; extends Monad&lt;F_HKT&gt;"><rect codeLine="11" fill="#24273A" height="28.8438" id="MonadError&lt;F_HKT, E_ERR&gt; extends Monad&lt;F_HKT&gt;" rx="1.5" ry="1.5" style="stroke:#C6A0F6;stroke-width:2.0;" width="447.3125" x="1189.2419" y="37.13"/><rect fill="#363A4F" height="28.8438" rx="1.5" ry="1.5" style="stroke:#363A4F;stroke-width:2.0;" width="447.3125" x="1189.2419" y="37.13"/><rect fill="#363A4F" height="1.5" style="stroke:#363A4F;stroke-width:2.0;" width="447.3125" x="1189.2419" y="64.4738"/><rect codeLine="11" fill="none" height="28.8438" id="MonadError&lt;F_HKT, E_ERR&gt; extends Monad&lt;F_HKT&gt;" rx="1.5" ry="1.5" style="stroke:#C6A0F6;stroke-width:2.0;" width="447.3125" x="1189.2419" y="37.13"/><ellipse cx="1202.2419" cy="51.5519" fill="#FFFFFF" rx="9" ry="9" style="stroke:#000000;stroke-width:1.0;"/><path d="M1199.2497,48.8273 L1199.2497,47.3038 L1204.4587,47.3038 L1204.4587,48.8273 L1202.7184,48.8273 L1202.7184,54.5284 L1204.4587,54.5284 L1204.4587,56.0519 L1199.2497,56.0519 L1199.2497,54.5284 L1200.9899,54.5284 L1200.9899,48.8273 Z " fill="#CAD3F5"/><text fill="#A6DA95" font-family="sans-serif" font-size="16" font-style="italic" lengthAdjust="spacing" textLength="419.3125" x="1214.2419" y="57.5987">MonadError&lt;F_HKT, E_ERR&gt; extends Monad&lt;F_HKT&gt;</text></g><!--class OptionalT--><g id="elem_OptionalT"><rect codeLine="13" fill="#24273A" height="154.3574" id="OptionalT" rx="1.5" ry="1.5" style="stroke:#C6A0F6;stroke-width:2.0;" width="534.9492" x="219.4219" y="495.86"/><rect fill="#363A4F" height="43.4277" rx="1.5" ry="1.5" style="stroke:#363A4F;stroke-width:2.0;" width="534.9492" x="219.4219" y="495.86"/><rect fill="#363A4F" height="1.5" style="stroke:#363A4F;stroke-width:2.0;" width="534.9492" x="219.4219" y="537.7877"/><rect codeLine="13" fill="none" height="154.3574" id="OptionalT" rx="1.5" ry="1.5" style="stroke:#C6A0F6;stroke-width:2.0;" width="534.9492" x="219.4219" y="495.86"/><ellipse cx="431.0879" cy="517.5739" fill="#FFFFFF" rx="9" ry="9" style="stroke:#000000;stroke-width:1.0;"/><path d="M432.9219,521.8219 Q432.5117,522.0329 432.0606,522.1383 Q431.6094,522.2438 431.1113,522.2438 Q429.3418,522.2438 428.4102,521.0778 Q427.4785,519.9118 427.4785,517.7086 Q427.4785,515.4996 428.4102,514.3336 Q429.3418,513.1676 431.1113,513.1676 Q431.6094,513.1676 432.0664,513.2731 Q432.5234,513.3786 432.9219,513.5895 L432.9219,515.5114 Q432.4766,515.1012 432.0576,514.9108 Q431.6387,514.7204 431.1934,514.7204 Q430.2441,514.7204 429.7607,515.4733 Q429.2773,516.2262 429.2773,517.7086 Q429.2773,519.1852 429.7607,519.9381 Q430.2441,520.6911 431.1934,520.6911 Q431.6387,520.6911 432.0576,520.5006 Q432.4766,520.3102 432.9219,519.9 Z " fill="#CAD3F5"/><text fill="#000000" font-family="Verdana" font-size="12" font-style="italic" lengthAdjust="spacing" textLength="53.8711" x="459.875" y="512.9245">&#171;record&#187;</text><text fill="#A6DA95" font-family="sans-serif" font-size="16" lengthAdjust="spacing" textLength="76.4453" x="448.5879" y="530.9127">OptionalT</text><rect fill="#24273A" height="16.584" style="stroke:#C6A0F6;stroke-width:1.0;stroke-dasharray:2.0,2.0;" width="25.6719" x="731.6992" y="492.86"/><text fill="#000000" font-family="Verdana" font-size="12" font-style="italic" lengthAdjust="spacing" textLength="23.6719" x="732.6992" y="505.9245">F, A</text><line style="stroke:#C6A0F6;stroke-width:2.0;" x1="220.4219" x2="753.3711" y1="539.2877" y2="539.2877"/><text fill="#A6DA95" font-family="sans-serif" font-size="12" lengthAdjust="spacing" textLength="241.3184" x="225.4219" y="554.8893">+@NonNull Kind&lt;F, Optional&lt;A&gt;&gt; value</text><text fill="#A6DA95" font-family="sans-serif" font-size="12" lengthAdjust="spacing" textLength="425.1211" x="225.4219" y="587.1549">+static &lt;F, A&gt; OptionalT&lt;F, A&gt; fromKind(Kind&lt;F, Optional&lt;A&gt;&gt; value)</text><text fill="#A6DA95" font-family="sans-serif" font-size="12" lengthAdjust="spacing" textLength="366.6914" x="225.4219" y="601.2877">+static &lt;F, A&gt; OptionalT&lt;F, A&gt; some(Monad&lt;F&gt; monad, A a)</text><text fill="#A6DA95" font-family="sans-serif" font-size="12" lengthAdjust="spacing" textLength="337.9688" x="225.4219" y="615.4205">+static &lt;F, A&gt; OptionalT&lt;F, A&gt; none(Monad&lt;F&gt; monad)</text><text fill="#A6DA95" font-family="sans-serif" font-size="12" lengthAdjust="spacing" textLength="522.9492" x="225.4219" y="629.5534">+static &lt;F, A&gt; OptionalT&lt;F, A&gt; fromOptional(Monad&lt;F&gt; monad, Optional&lt;A&gt; optional)</text><text fill="#A6DA95" font-family="sans-serif" font-size="12" lengthAdjust="spacing" textLength="421.4063" x="225.4219" y="643.6862">+static &lt;F, A&gt; OptionalT&lt;F, A&gt; liftF(Monad&lt;F&gt; monad, Kind&lt;F, A&gt; fa)</text><line style="stroke:#C6A0F6;stroke-width:1.0;" x1="220.4219" x2="460.7725" y1="568.487" y2="568.487"/><text fill="#A6DA95" font-family="sans-serif" font-size="12" lengthAdjust="spacing" textLength="52.248" x="460.7725" y="572.5221">Factories</text><line style="stroke:#C6A0F6;stroke-width:1.0;" x1="513.0205" x2="753.3711" y1="568.487" y2="568.487"/></g><!--class OptionalTKind--><g id="elem_OptionalTKind"><rect codeLine="23" fill="#24273A" height="65.1094" id="OptionalTKind" rx="1.5" ry="1.5" style="stroke:#C6A0F6;stroke-width:2.0;" width="202.3711" x="299.7119" y="369.75"/><rect fill="#363A4F" height="28.8438" rx="1.5" ry="1.5" style="stroke:#363A4F;stroke-width:2.0;" width="202.3711" x="299.7119" y="369.75"/><rect fill="#363A4F" height="1.5" style="stroke:#363A4F;stroke-width:2.0;" width="202.3711" x="299.7119" y="397.0937"/><rect codeLine="23" fill="none" height="65.1094" id="OptionalTKind" rx="1.5" ry="1.5" style="stroke:#C6A0F6;stroke-width:2.0;" width="202.3711" x="299.7119" y="369.75"/><ellipse cx="328.5445" cy="384.1719" fill="#FFFFFF" rx="9" ry="9" style="stroke:#000000;stroke-width:1.0;"/><path d="M325.5523,381.4473 L325.5523,379.9238 L330.7613,379.9238 L330.7613,381.4473 L329.0211,381.4473 L329.0211,387.1484 L330.7613,387.1484 L330.7613,388.6719 L325.5523,388.6719 L325.5523,387.1484 L327.2925,387.1484 L327.2925,381.4473 Z " fill="#CAD3F5"/><text fill="#A6DA95" font-family="sans-serif" font-size="16" font-style="italic" lengthAdjust="spacing" textLength="111.5156" x="344.0629" y="390.2187">OptionalTKind</text><rect fill="#24273A" height="16.584" style="stroke:#C6A0F6;stroke-width:1.0;stroke-dasharray:2.0,2.0;" width="25.6719" x="479.4111" y="366.75"/><text fill="#000000" font-family="Verdana" font-size="12" font-style="italic" lengthAdjust="spacing" textLength="23.6719" x="480.4111" y="379.8145">F, A</text><line style="stroke:#C6A0F6;stroke-width:2.0;" x1="300.7119" x2="501.083" y1="398.5937" y2="398.5937"/><text fill="#A6DA95" font-family="sans-serif" font-size="12" lengthAdjust="spacing" textLength="190.3711" x="305.7119" y="414.1953">// Witness: OptionalTKind&lt;F, ?&gt;</text><text fill="#A6DA95" font-family="sans-serif" font-size="12" lengthAdjust="spacing" textLength="64.3301" x="305.7119" y="428.3281">// Value: A</text></g><!--class OptionalTMonad--><g id="elem_OptionalTMonad"><rect codeLine="28" fill="#24273A" height="73.1094" id="OptionalTMonad" rx="1.5" ry="1.5" style="stroke:#C6A0F6;stroke-width:2.0;" width="371.2383" x="783.2819" y="15"/><rect fill="#363A4F" height="28.8438" rx="1.5" ry="1.5" style="stroke:#363A4F;stroke-width:2.0;" width="371.2383" x="783.2819" y="15"/><rect fill="#363A4F" height="1.5" style="stroke:#363A4F;stroke-width:2.0;" width="371.2383" x="783.2819" y="42.3438"/><rect codeLine="28" fill="none" height="73.1094" id="OptionalTMonad" rx="1.5" ry="1.5" style="stroke:#C6A0F6;stroke-width:2.0;" width="371.2383" x="783.2819" y="15"/><ellipse cx="870.6657" cy="29.4219" fill="#FFFFFF" rx="9" ry="9" style="stroke:#000000;stroke-width:1.0;"/><path d="M872.4997,33.6699 Q872.0895,33.8809 871.6383,33.9863 Q871.1872,34.0918 870.6891,34.0918 Q868.9196,34.0918 867.9879,32.9258 Q867.0563,31.7598 867.0563,29.5566 Q867.0563,27.3477 867.9879,26.1816 Q868.9196,25.0156 870.6891,25.0156 Q871.1872,25.0156 871.6442,25.1211 Q872.1012,25.2266 872.4997,25.4375 L872.4997,27.3594 Q872.0543,26.9492 871.6354,26.7588 Q871.2164,26.5684 870.7711,26.5684 Q869.8219,26.5684 869.3385,27.3213 Q868.8551,28.0742 868.8551,29.5566 Q868.8551,31.0332 869.3385,31.7861 Q869.8219,32.5391 870.7711,32.5391 Q871.2164,32.5391 871.6354,32.3486 Q872.0543,32.1582 872.4997,31.748 Z " fill="#CAD3F5"/><text fill="#A6DA95" font-family="sans-serif" font-size="16" lengthAdjust="spacing" textLength="128.8906" x="888.1657" y="35.4688">OptionalTMonad</text><rect fill="#24273A" height="16.584" style="stroke:#C6A0F6;stroke-width:1.0;stroke-dasharray:2.0,2.0;" width="58.0801" x="1099.4401" y="12"/><text fill="#000000" font-family="Verdana" font-size="12" font-style="italic" lengthAdjust="spacing" textLength="56.0801" x="1100.4401" y="25.0645">F_OUTER</text><line style="stroke:#C6A0F6;stroke-width:2.0;" x1="784.2819" x2="1153.5202" y1="43.8438" y2="43.8438"/><text fill="#A6DA95" font-family="sans-serif" font-size="12" lengthAdjust="spacing" textLength="281.3906" x="789.2819" y="59.4453">-final @NonNull Monad&lt;F_OUTER&gt; outerMonad</text><line style="stroke:#C6A0F6;stroke-width:2.0;" x1="784.2819" x2="1153.5202" y1="65.9766" y2="65.9766"/><text fill="#A6DA95" font-family="sans-serif" font-size="12" lengthAdjust="spacing" textLength="359.2383" x="789.2819" y="81.5781">+OptionalTMonad(@NonNull Monad&lt;F_OUTER&gt; outerMonad)</text></g><!--class MonadError--><g id="elem_MonadError"><rect fill="#24273A" height="28.8438" id="MonadError" rx="1.5" ry="1.5" style="stroke:#C6A0F6;stroke-width:2.0;" width="118.5859" x="1021.6019" y="214.51"/><rect fill="#363A4F" height="28.8438" rx="1.5" ry="1.5" style="stroke:#363A4F;stroke-width:2.0;" width="118.5859" x="1021.6019" y="214.51"/><rect fill="#363A4F" height="1.5" style="stroke:#363A4F;stroke-width:2.0;" width="118.5859" x="1021.6019" y="241.8538"/><rect fill="none" height="28.8438" id="MonadError" rx="1.5" ry="1.5" style="stroke:#C6A0F6;stroke-width:2.0;" width="118.5859" x="1021.6019" y="214.51"/><ellipse cx="1034.6019" cy="228.9319" fill="#FFFFFF" rx="9" ry="9" style="stroke:#000000;stroke-width:1.0;"/><path d="M1031.6097,226.2073 L1031.6097,224.6838 L1036.8187,224.6838 L1036.8187,226.2073 L1035.0784,226.2073 L1035.0784,231.9084 L1036.8187,231.9084 L1036.8187,233.4319 L1031.6097,233.4319 L1031.6097,231.9084 L1033.3499,231.9084 L1033.3499,226.2073 Z " fill="#CAD3F5"/><text fill="#A6DA95" font-family="sans-serif" font-size="16" font-style="italic" lengthAdjust="spacing" textLength="90.5859" x="1046.6019" y="234.9788">MonadError</text></g><!--class OptionalTKindHelper--><g id="elem_OptionalTKindHelper"><rect codeLine="34" fill="#24273A" height="129.6406" id="OptionalTKindHelper" rx="1.5" ry="1.5" style="stroke:#C6A0F6;stroke-width:2.0;" width="467.7422" x="338.0319" y="164.11"/><rect fill="#363A4F" height="28.8438" rx="1.5" ry="1.5" style="stroke:#363A4F;stroke-width:2.0;" width="467.7422" x="338.0319" y="164.11"/><rect fill="#363A4F" height="1.5" style="stroke:#363A4F;stroke-width:2.0;" width="467.7422" x="338.0319" y="191.4537"/><rect codeLine="34" fill="none" height="129.6406" id="OptionalTKindHelper" rx="1.5" ry="1.5" style="stroke:#C6A0F6;stroke-width:2.0;" width="467.7422" x="338.0319" y="164.11"/><ellipse cx="486.9811" cy="178.5319" fill="#FFFFFF" rx="9" ry="9" style="stroke:#000000;stroke-width:1.0;"/><path d="M488.8151,182.7799 Q488.4049,182.9909 487.9538,183.0963 Q487.5026,183.2018 487.0045,183.2018 Q485.235,183.2018 484.3034,182.0358 Q483.3717,180.8698 483.3717,178.6666 Q483.3717,176.4577 484.3034,175.2916 Q485.235,174.1256 487.0045,174.1256 Q487.5026,174.1256 487.9596,174.2311 Q488.4166,174.3366 488.8151,174.5475 L488.8151,176.4694 Q488.3698,176.0592 487.9508,175.8688 Q487.5319,175.6784 487.0866,175.6784 Q486.1373,175.6784 485.6539,176.4313 Q485.1706,177.1842 485.1706,178.6666 Q485.1706,180.1432 485.6539,180.8961 Q486.1373,181.6491 487.0866,181.6491 Q487.5319,181.6491 487.9508,181.4586 Q488.3698,181.2682 488.8151,180.858 Z " fill="#CAD3F5"/><text fill="#A6DA95" font-family="sans-serif" font-size="16" lengthAdjust="spacing" textLength="162.3438" x="504.4811" y="184.5787">OptionalTKindHelper</text><line style="stroke:#C6A0F6;stroke-width:2.0;" x1="339.0319" x2="804.7741" y1="192.9537" y2="192.9537"/><text fill="#A6DA95" font-family="sans-serif" font-size="12" lengthAdjust="spacing" textLength="234.6504" x="344.0319" y="208.5553">note right of OptionalTKindHelper::wrap</text><text fill="#A6DA95" font-family="sans-serif" font-size="12" lengthAdjust="spacing" textLength="175.5117" x="344.0319" y="222.6881">Uses internal OptionalTHolder</text><text fill="#A6DA95" font-family="sans-serif" font-size="12" lengthAdjust="spacing" textLength="51.4746" x="344.0319" y="236.8209">end note</text><line style="stroke:#C6A0F6;stroke-width:2.0;" x1="339.0319" x2="804.7741" y1="243.3522" y2="243.3522"/><text fill="#A6DA95" font-family="sans-serif" font-size="12" lengthAdjust="spacing" textLength="455.7422" x="344.0319" y="258.9537">+static &lt;F, A&gt; OptionalT&lt;F, A&gt; unwrap(Kind&lt;OptionalTKind&lt;F, ?&gt;, A&gt; kind)</text><text fill="#A6DA95" font-family="sans-serif" font-size="12" lengthAdjust="spacing" textLength="412.7109" x="344.0319" y="273.0866">+static &lt;F, A&gt; OptionalTKind&lt;F, A&gt; wrap(OptionalT&lt;F, A&gt; optionalT)</text><text fill="#A6DA95" font-family="sans-serif" font-size="12" lengthAdjust="spacing" textLength="132.4102" x="344.0319" y="287.2194">(not shown for brevity)</text></g><!--reverse link OptionalTKind to OptionalT--><g id="link_OptionalTKind_OptionalT"><path d="M413.1562,451.7846 C419.9362,468.9746 423.7119,474.26 434.8719,495.61 " fill="none" id="OptionalTKind-backto-OptionalT" style="stroke:#F5BDE6;stroke-width:1.0;stroke-dasharray:7.0,7.0;"/><polygon fill="none" points="406.5519,435.04,407.5747,453.9861,418.7378,449.5832,406.5519,435.04" style="stroke:#F5BDE6;stroke-width:1.0;"/></g><!--link OptionalT to OptionalTKind--><g id="link_OptionalT_OptionalTKind"><path codeLine="53" d="M461.0219,495.61 C450.4119,474.26 447.8631,467.4995 437.1331,450.3095 " fill="none" id="OptionalT-to-OptionalTKind" style="stroke:#F5BDE6;stroke-width:1.0;"/><polygon fill="none" points="427.6019,435.04,432.0433,453.4865,442.2229,447.1324,427.6019,435.04" style="stroke:#F5BDE6;stroke-width:1.0;"/></g><!--reverse link Kind to OptionalTKind--><g id="link_Kind_OptionalTKind"><path d="M243.5333,257.7896 C264.9133,284.8796 315.0019,331.68 357.7919,369.36 " fill="none" id="Kind-backto-OptionalTKind" style="stroke:#F5BDE6;stroke-width:1.0;"/><polygon fill="none" points="232.3819,243.66,238.8234,261.5068,248.2432,254.0725,232.3819,243.66" style="stroke:#F5BDE6;stroke-width:1.0;"/></g><!--link OptionalTKind to Kind--><g id="link_OptionalTKind_Kind"><path codeLine="57" d="M378.7719,369.36 C344.6119,331.68 295.47,281.9788 261.53,254.8888 " fill="none" id="OptionalTKind-to-Kind" style="stroke:#F5BDE6;stroke-width:1.0;"/><polygon fill="none" points="247.4619,243.66,257.7871,259.5782,265.273,250.1994,247.4619,243.66" style="stroke:#F5BDE6;stroke-width:1.0;"/></g><!--reverse link MonadError to OptionalTMonad--><g id="link_MonadError_OptionalTMonad"><path d="M1072.7891,197.525 C1061.8491,170.725 1031.4319,127.35 1002.6619,88.47 " fill="none" id="MonadError-backto-OptionalTMonad" style="stroke:#F5BDE6;stroke-width:1.0;stroke-dasharray:7.0,7.0;"/><polygon fill="none" points="1079.5919,214.19,1078.3441,195.2574,1067.2341,199.7926,1079.5919,214.19" style="stroke:#F5BDE6;stroke-width:1.0;"/></g><!--link OptionalTMonad to MonadError--><g id="link_OptionalTMonad_MonadError"><path codeLine="45" d="M981.0019,88.47 C1001.9019,127.35 1029.5648,173.8035 1052.8548,200.6035 " fill="none" id="OptionalTMonad-to-MonadError" style="stroke:#F5BDE6;stroke-width:1.0;"/><polygon fill="none" points="1064.6619,214.19,1057.3836,196.6678,1048.326,204.5392,1064.6619,214.19" style="stroke:#F5BDE6;stroke-width:1.0;"/></g><!--reverse link OptionalTMonad to Monad--><g id="link_OptionalTMonad_Monad"><path codeLine="46" d="M968.9019,100.49 C968.9019,135.94 968.9019,179.67 968.9019,227.93 C968.9019,227.93 968.9019,227.93 968.9019,574.04 C968.9019,648.67 878.8019,691.05 819.8619,710.79 " fill="none" id="OptionalTMonad-backto-Monad" style="stroke:#F5BDE6;stroke-width:1.0;"/><polygon fill="#F5BDE6" points="968.9019,88.49,964.9019,94.49,968.9019,100.49,972.9019,94.49,968.9019,88.49" style="stroke:#F5BDE6;stroke-width:1.0;"/><text fill="#CAD3F5" font-family="sans-serif" font-size="12" lengthAdjust="spacing" textLength="192" x="839.4754" y="705.4641">outerMonad (Monad&lt;F_OUTER&gt;)</text></g><!--link OptionalTMonad to OptionalTKindHelper--><g id="link_OptionalTMonad_OptionalTKindHelper"><path codeLine="47" d="M876.1219,88.51 C852.7619,97.87 827.8119,108.14 804.9019,118.11 C772.1919,132.34 742.6931,145.8101 710.0831,161.1201 " fill="none" id="OptionalTMonad-to-OptionalTKindHelper" style="stroke:#F5BDE6;stroke-width:1.0;stroke-dasharray:7.0,7.0;"/><polygon fill="#F5BDE6" points="704.6519,163.67,714.4986,163.466,709.1779,161.5451,711.0988,156.2244,704.6519,163.67" style="stroke:#F5BDE6;stroke-width:1.0;"/><text fill="#CAD3F5" font-family="sans-serif" font-size="12" lengthAdjust="spacing" textLength="26.3672" x="805.9019" y="130.7116">uses</text></g><!--link OptionalTMonad to OptionalT--><g id="link_OptionalTMonad_OptionalT"><path codeLine="48" d="M951.9319,88.54 C927.6219,137.96 879.4819,228.14 822.9019,293.75 C756.3619,370.89 671.8104,440.2148 601.9704,492.0348 " fill="none" id="OptionalTMonad-to-OptionalT" style="stroke:#F5BDE6;stroke-width:1.0;stroke-dasharray:7.0,7.0;"/><polygon fill="#F5BDE6" points="597.1519,495.61,606.7631,493.4595,601.1673,492.6306,601.9961,487.0348,597.1519,495.61" style="stroke:#F5BDE6;stroke-width:1.0;"/><text fill="#CAD3F5" font-family="sans-serif" font-size="12" lengthAdjust="spacing" textLength="124.5996" x="796.5019" y="336.3516">creates / operates on</text></g><!--link OptionalTKindHelper to OptionalT--><g id="link_OptionalTKindHelper_OptionalT"><path codeLine="50" d="M559.8219,293.96 C556.7719,309.02 553.3719,324.99 549.9019,339.75 C537.5919,392.01 523.3884,444.5647 510.6784,489.6947 " fill="none" id="OptionalTKindHelper-to-OptionalT" style="stroke:#F5BDE6;stroke-width:1.0;stroke-dasharray:7.0,7.0;"/><polygon fill="#F5BDE6" points="509.0519,495.47,515.3419,487.8913,510.4073,490.6572,507.6414,485.7227,509.0519,495.47" style="stroke:#F5BDE6;stroke-width:1.0;"/><text fill="#CAD3F5" font-family="sans-serif" font-size="12" lengthAdjust="spacing" textLength="96.8379" x="543.6219" y="406.9016">unwrap() returns</text></g><!--link OptionalTKindHelper to OptionalTKind--><g id="link_OptionalTKindHelper_OptionalTKind"><path codeLine="51" d="M493.7519,294.08 C483.0919,303.72 472.5219,313.77 462.9019,323.75 C449.1419,338.02 438.8878,350.3624 427.7378,364.8724 " fill="none" id="OptionalTKindHelper-to-OptionalTKind" style="stroke:#F5BDE6;stroke-width:1.0;stroke-dasharray:7.0,7.0;"/><polygon fill="#F5BDE6" points="424.0819,369.63,432.7374,364.9309,427.1285,365.6654,426.394,360.0564,424.0819,369.63" style="stroke:#F5BDE6;stroke-width:1.0;"/><text fill="#CAD3F5" font-family="sans-serif" font-size="12" lengthAdjust="spacing" textLength="81.9434" x="463.9019" y="336.3516">wrap() returns</text></g><!--link OptionalT to Kind--><g id="link_OptionalT_Kind"><path codeLine="54" d="M343.0419,495.42 C320.0319,478.03 298.4119,457.8 281.9019,434.86 C237.7319,373.49 228.727,284.9906 226.757,249.7706 " fill="none" id="OptionalT-to-Kind" style="stroke:#F5BDE6;stroke-width:1.0;stroke-dasharray:7.0,7.0;"/><polygon fill="#F5BDE6" points="226.4219,243.78,222.9307,252.9893,226.7011,248.7722,230.9183,252.5426,226.4219,243.78" style="stroke:#F5BDE6;stroke-width:1.0;"/><text fill="#CAD3F5" font-family="sans-serif" font-size="12" lengthAdjust="spacing" textLength="184.1309" x="11" y="262.9147">value is Kind&lt;F, Optional&lt;A&gt;&gt;</text></g><!--link OptionalT to Monad--><g id="link_OptionalT_Monad"><path codeLine="55" d="M630.8819,650.66 C674.3119,673.77 712.1152,693.8914 738.5552,707.9614 " fill="none" id="OptionalT-to-Monad" style="stroke:#F5BDE6;stroke-width:1.0;stroke-dasharray:7.0,7.0;"/><polygon fill="#F5BDE6" points="743.8519,710.78,737.7859,703.0209,739.4379,708.4311,734.0277,710.0832,743.8519,710.78" style="stroke:#F5BDE6;stroke-width:1.0;"/><text fill="#CAD3F5" font-family="sans-serif" font-size="12" lengthAdjust="spacing" textLength="164.3262" x="541.4177" y="700.6169">factories require Monad&lt;F&gt;</text></g><!--SRC=[ZLLDSvim4BtpApPSQhUswTdZeVN1ddJI93EkunupiX11Ko5HQKcQfltlNGGaW9t61sR4wktRZxSiPvY9N42XcDJ1cTHSbOc03B5myoYox65s9p4hzwKJbXkDGkECcppIt3XaKyaZph0eIiwbdkQCyqmoD5FYqrZcQkhfevpO8t-S5MGD0lT3we9PbWDNpBabefNx4iKNYl5D_XRmiGD9HCfAXMiAVyKesN1ZzWRD1Cw5kXSeEGk3J5BQ8Y_m4NAHxuLrGH18ojUcZ0kua3fPh6_FBxOJMDxkbb_ZpkMbqQovxPf3RrzPQsphkhfTRJOnY5_KXyJr7CCWWBeOk2vGqetQBjOKBOR5mWfkR1B78FD2KHSqTb1rRXxvH1m07-3pbT5NfLBGthNWnP98xfagXKTEfx1c78sLmj5Buqt2K5EWuHncargJLxIZrxd79n4vaujHqu8Oykf0Tc2dUMkZXzxZa_DlRGVXExM0QSwdqIgPulg0hwDDwWlxMydyCYF7H6odmviE09_YZj9H1DybQk7S78uWMyok4cKEopR-OCpQCRo-sQuslHdhJF20lWRNwUoCJDgCff1AGhrCu83Sq4TglQtfQZ-BqTj-jHplu9hsWUraIDyjPeRwDZBf179MJ21L32-hG_LO9ftmo0baJ2UgVg7-PUDN6bELIZkYe3XFJTJcjObrqcIK-i6oOlHVEMbNlJM-dGdnVCCmxRXknu4dqWO5M7cN8PZqM4tpUSNZiG0tZZQ0dyjAlMVqkL69i0rcH9JWClEW8QL-xwsub_XOfqqJwoEsdUpBIhlbJzpHwX3mdbPH-28oZFhwZqDeXsRWE9l5HmMR0_rot1juGd4h65Bj4JLGM7yqkbT1XtJet4Wx1YkmjDgTubRPoNNWsFMikzLpw5rNTA5Vj23TqHKVmd6dz7dPM_6pbFRvtnMt_HrMKEVYsO9_]--></g></svg>