<svg xmlns="http://www.w3.org/2000/svg" xmlns:xlink="http://www.w3.org/1999/xlink" contentStyleType="text/css" height="1425.6px" preserveAspectRatio="none" style="width:1902px;height:1425px;background:#24273A;" version="1.1" viewBox="0 0 1902 1425" width="1902.6px" zoomAndPan="magnify"><defs/><g><rect fill="#24273A" height="1425.6" style="stroke:none;stroke-width:1.8;" width="1902.6" x="0" y="0"/><!--class Kind--><g id="elem_Kind"><rect codeLine="5" fill="#24273A" height="54" id="Kind" rx="2.7" ry="2.7" style="stroke:#C6A0F6;stroke-width:3.6;" width="266.4984" x="213.9808" y="520.2"/><rect fill="#363A4F" height="54" rx="2.7" ry="2.7" style="stroke:#363A4F;stroke-width:3.6;" width="266.4984" x="213.9808" y="520.2"/><rect fill="#363A4F" height="2.7" style="stroke:#363A4F;stroke-width:3.6;" width="266.4984" x="213.9808" y="571.5"/><rect codeLine="5" fill="none" height="54" id="Kind" rx="2.7" ry="2.7" style="stroke:#C6A0F6;stroke-width:3.6;" width="266.4984" x="213.9808" y="520.2"/><ellipse cx="239.1808" cy="547.2" fill="#B4A7E5" rx="18" ry="18" style="stroke:#181818;stroke-width:1.8;"/><path d="M233.7949,542.2957 L233.7949,539.5535 L243.1711,539.5535 L243.1711,542.2957 L240.0387,542.2957 L240.0387,552.5578 L243.1711,552.5578 L243.1711,555.3 L233.7949,555.3 L233.7949,552.5578 L236.9273,552.5578 L236.9273,542.2957 Z " fill="#CAD3F5"/><text fill="#A6DA95" font-family="Helvetica" font-size="28.8" font-style="italic" lengthAdjust="spacing" textLength="57.6422" x="262.5808" y="554.9766">Kind</text><rect fill="#24273A" height="25.2" style="stroke:#C6A0F6;stroke-width:1.8;stroke-dasharray:2.0,2.0;" width="151.2563" x="334.623" y="514.8"/><text fill="#CAD3F5" font-family="Helvetica" font-size="21.6" font-style="italic" lengthAdjust="spacing" textLength="147.6563" x="336.423" y="533.2324">F_HKT, A_VAL</text></g><!--class Monad--><g id="elem_Monad"><rect codeLine="6" fill="#24273A" height="54" id="Monad" rx="2.7" ry="2.7" style="stroke:#C6A0F6;stroke-width:3.6;" width="217.6664" x="1332.8068" y="1359"/><rect fill="#363A4F" height="54" rx="2.7" ry="2.7" style="stroke:#363A4F;stroke-width:3.6;" width="217.6664" x="1332.8068" y="1359"/><rect fill="#363A4F" height="2.7" style="stroke:#363A4F;stroke-width:3.6;" width="217.6664" x="1332.8068" y="1410.3"/><rect codeLine="6" fill="none" height="54" id="Monad" rx="2.7" ry="2.7" style="stroke:#C6A0F6;stroke-width:3.6;" width="217.6664" x="1332.8068" y="1359"/><ellipse cx="1358.0068" cy="1386" fill="#B4A7E5" rx="18" ry="18" style="stroke:#181818;stroke-width:1.8;"/><path d="M1352.6209,1381.0957 L1352.6209,1378.3535 L1361.9971,1378.3535 L1361.9971,1381.0957 L1358.8647,1381.0957 L1358.8647,1391.3578 L1361.9971,1391.3578 L1361.9971,1394.1 L1352.6209,1394.1 L1352.6209,1391.3578 L1355.7533,1391.3578 L1355.7533,1381.0957 Z " fill="#CAD3F5"/><text fill="#A6DA95" font-family="Helvetica" font-size="28.8" font-style="italic" lengthAdjust="spacing" textLength="88.0594" x="1381.4068" y="1393.7766">Monad</text><rect fill="#24273A" height="25.2" style="stroke:#C6A0F6;stroke-width:1.8;stroke-dasharray:2.0,2.0;" width="72.007" x="1483.8662" y="1353.6"/><text fill="#CAD3F5" font-family="Helvetica" font-size="21.6" font-style="italic" lengthAdjust="spacing" textLength="68.407" x="1485.6662" y="1372.0324">F_HKT</text></g><!--class MonadError--><g id="elem_MonadError"><rect codeLine="7" fill="#24273A" height="54" id="MonadError" rx="2.7" ry="2.7" style="stroke:#C6A0F6;stroke-width:3.6;" width="365.6918" x="1276.7908" y="18"/><rect fill="#363A4F" height="54" rx="2.7" ry="2.7" style="stroke:#363A4F;stroke-width:3.6;" width="365.6918" x="1276.7908" y="18"/><rect fill="#363A4F" height="2.7" style="stroke:#363A4F;stroke-width:3.6;" width="365.6918" x="1276.7908" y="69.3"/><rect codeLine="7" fill="none" height="54" id="MonadError" rx="2.7" ry="2.7" style="stroke:#C6A0F6;stroke-width:3.6;" width="365.6918" x="1276.7908" y="18"/><ellipse cx="1301.9908" cy="45" fill="#B4A7E5" rx="18" ry="18" style="stroke:#181818;stroke-width:1.8;"/><path d="M1296.6049,40.0957 L1296.6049,37.3535 L1305.9811,37.3535 L1305.9811,40.0957 L1302.8487,40.0957 L1302.8487,50.3578 L1305.9811,50.3578 L1305.9811,53.1 L1296.6049,53.1 L1296.6049,50.3578 L1299.7373,50.3578 L1299.7373,40.0957 Z " fill="#CAD3F5"/><text fill="#A6DA95" font-family="Helvetica" font-size="28.8" font-style="italic" lengthAdjust="spacing" textLength="152.0578" x="1325.3908" y="52.7766">MonadError</text><rect fill="#24273A" height="25.2" style="stroke:#C6A0F6;stroke-width:1.8;stroke-dasharray:2.0,2.0;" width="156.034" x="1491.8487" y="12.6"/><text fill="#CAD3F5" font-family="Helvetica" font-size="21.6" font-style="italic" lengthAdjust="spacing" textLength="152.434" x="1493.6487" y="31.0324">F_HKT, E_ERR</text></g><!--class OptionalT--><g id="elem_OptionalT"><rect codeLine="9" fill="#24273A" height="241.2" id="OptionalT" rx="2.7" ry="2.7" style="stroke:#C6A0F6;stroke-width:3.6;" width="865.0301" x="634.7128" y="1008"/><rect fill="#363A4F" height="68.4" rx="2.7" ry="2.7" style="stroke:#363A4F;stroke-width:3.6;" width="865.0301" x="634.7128" y="1008"/><rect fill="#363A4F" height="2.7" style="stroke:#363A4F;stroke-width:3.6;" width="865.0301" x="634.7128" y="1073.7"/><rect codeLine="9" fill="none" height="241.2" id="OptionalT" rx="2.7" ry="2.7" style="stroke:#C6A0F6;stroke-width:3.6;" width="865.0301" x="634.7128" y="1008"/><ellipse cx="974.1957" cy="1042.2" fill="#ADD1B2" rx="18" ry="18" style="stroke:#181818;stroke-width:1.8;"/><path d="M977.4968,1049.8465 Q976.7586,1050.2262 975.9464,1050.416 Q975.1343,1050.6059 974.2378,1050.6059 Q971.0527,1050.6059 969.3757,1048.507 Q967.6988,1046.4082 967.6988,1042.4426 Q967.6988,1038.4664 969.3757,1036.3676 Q971.0527,1034.2688 974.2378,1034.2688 Q975.1343,1034.2688 975.957,1034.4586 Q976.7796,1034.6484 977.4968,1035.0281 L977.4968,1038.4875 Q976.6953,1037.7492 975.9412,1037.4064 Q975.1871,1037.0637 974.3855,1037.0637 Q972.6769,1037.0637 971.8068,1038.4189 Q970.9367,1039.7742 970.9367,1042.4426 Q970.9367,1045.1004 971.8068,1046.4557 Q972.6769,1047.8109 974.3855,1047.8109 Q975.1871,1047.8109 975.9412,1047.4682 Q976.6953,1047.1254 977.4968,1046.3871 Z " fill="#CAD3F5"/><text fill="#CAD3F5" font-family="Helvetica" font-size="21.6" font-style="italic" lengthAdjust="spacing" textLength="85.2504" x="1028.2009" y="1033.6324">&#171;record&#187;</text><text fill="#A6DA95" font-family="Helvetica" font-size="28.8" lengthAdjust="spacing" textLength="124.8609" x="1008.3957" y="1060.7766">OptionalT</text><rect fill="#24273A" height="25.2" style="stroke:#C6A0F6;stroke-width:1.8;stroke-dasharray:2.0,2.0;" width="43.2035" x="1461.9394" y="1002.6"/><text fill="#CAD3F5" font-family="Helvetica" font-size="21.6" font-style="italic" lengthAdjust="spacing" textLength="39.6035" x="1463.7394" y="1021.0324">F, A</text><line style="stroke:#C6A0F6;stroke-width:3.6;" x1="636.5128" x2="1497.9429" y1="1076.4" y2="1076.4"/><ellipse cx="654.5128" cy="1097.1" fill="none" rx="5.4" ry="5.4" style="stroke:#038048;stroke-width:1.8;"/><text fill="#A6DA95" font-family="Helvetica" font-size="21.6" lengthAdjust="spacing" textLength="376.1438" x="668.9128" y="1100.2324">@NonNull Kind&lt;F, Optional&lt;A&gt;&gt; value</text><ellipse cx="654.5128" cy="1147.5" fill="#84BE84" rx="5.4" ry="5.4" style="stroke:#038048;stroke-width:1.8;"/><text fill="#A6DA95" font-family="Helvetica" font-size="21.6" lengthAdjust="spacing" textLength="663.9258" x="668.9128" y="1150.6324">static &lt;F, A&gt; OptionalT&lt;F, A&gt; fromKind(Kind&lt;F, Optional&lt;A&gt;&gt; value)</text><ellipse cx="654.5128" cy="1169.1" fill="#84BE84" rx="5.4" ry="5.4" style="stroke:#038048;stroke-width:1.8;"/><text fill="#A6DA95" font-family="Helvetica" font-size="21.6" lengthAdjust="spacing" textLength="579.8672" x="668.9128" y="1172.2324">static &lt;F, A&gt; OptionalT&lt;F, A&gt; some(Monad&lt;F&gt; monad, A a)</text><ellipse cx="654.5128" cy="1190.7" fill="#84BE84" rx="5.4" ry="5.4" style="stroke:#038048;stroke-width:1.8;"/><text fill="#A6DA95" font-family="Helvetica" font-size="21.6" lengthAdjust="spacing" textLength="530.6766" x="668.9128" y="1193.8324">static &lt;F, A&gt; OptionalT&lt;F, A&gt; none(Monad&lt;F&gt; monad)</text><ellipse cx="654.5128" cy="1212.3" fill="#84BE84" rx="5.4" ry="5.4" style="stroke:#038048;stroke-width:1.8;"/><text fill="#A6DA95" font-family="Helvetica" font-size="21.6" lengthAdjust="spacing" textLength="820.0301" x="668.9128" y="1215.4324">static &lt;F, A&gt; OptionalT&lt;F, A&gt; fromOptional(Monad&lt;F&gt; monad, Optional&lt;A&gt; optional)</text><ellipse cx="654.5128" cy="1233.9" fill="#84BE84" rx="5.4" ry="5.4" style="stroke:#038048;stroke-width:1.8;"/><text fill="#A6DA95" font-family="Helvetica" font-size="21.6" lengthAdjust="spacing" textLength="661.5" x="668.9128" y="1237.0324">static &lt;F, A&gt; OptionalT&lt;F, A&gt; liftF(Monad&lt;F&gt; monad, Kind&lt;F, A&gt; fa)</text><line style="stroke:#C6A0F6;stroke-width:1.8;" x1="636.5128" x2="1022.815" y1="1123.2" y2="1123.2"/><text fill="#A6DA95" font-family="Helvetica" font-size="21.6" lengthAdjust="spacing" textLength="88.8258" x="1022.815" y="1128.1324">Factories</text><line style="stroke:#C6A0F6;stroke-width:1.8;" x1="1111.6408" x2="1497.9429" y1="1123.2" y2="1123.2"/></g><!--class OptionalTKind--><g id="elem_OptionalTKind"><rect codeLine="19" fill="#24273A" height="111.6" id="OptionalTKind" rx="2.7" ry="2.7" style="stroke:#C6A0F6;stroke-width:3.6;" width="386.5324" x="555.3688" y="786.6"/><rect fill="#363A4F" height="54" rx="2.7" ry="2.7" style="stroke:#363A4F;stroke-width:3.6;" width="386.5324" x="555.3688" y="786.6"/><rect fill="#363A4F" height="2.7" style="stroke:#363A4F;stroke-width:3.6;" width="386.5324" x="555.3688" y="837.9"/><rect codeLine="19" fill="none" height="111.6" id="OptionalTKind" rx="2.7" ry="2.7" style="stroke:#C6A0F6;stroke-width:3.6;" width="386.5324" x="555.3688" y="786.6"/><ellipse cx="627.0204" cy="813.6" fill="#B4A7E5" rx="18" ry="18" style="stroke:#181818;stroke-width:1.8;"/><path d="M621.6345,808.6957 L621.6345,805.9535 L631.0107,805.9535 L631.0107,808.6957 L627.8783,808.6957 L627.8783,818.9578 L631.0107,818.9578 L631.0107,821.7 L621.6345,821.7 L621.6345,818.9578 L624.7669,818.9578 L624.7669,808.6957 Z " fill="#CAD3F5"/><text fill="#A6DA95" font-family="Helvetica" font-size="28.8" font-style="italic" lengthAdjust="spacing" textLength="182.5031" x="660.743" y="821.3766">OptionalTKind</text><rect fill="#24273A" height="25.2" style="stroke:#C6A0F6;stroke-width:1.8;stroke-dasharray:2.0,2.0;" width="43.2035" x="904.0978" y="781.2"/><text fill="#CAD3F5" font-family="Helvetica" font-size="21.6" font-style="italic" lengthAdjust="spacing" textLength="39.6035" x="905.8978" y="799.6324">F, A</text><line style="stroke:#C6A0F6;stroke-width:3.6;" x1="557.1688" x2="940.1013" y1="840.6" y2="840.6"/><text fill="#A6DA95" font-family="Helvetica" font-size="21.6" lengthAdjust="spacing" textLength="364.9324" x="566.1688" y="864.4324">// Witness: OptionalTKind.Witness&lt;F&gt;</text><text fill="#A6DA95" font-family="Helvetica" font-size="21.6" lengthAdjust="spacing" textLength="99.6574" x="566.1688" y="886.0324">// Value: A</text></g><!--class OptionalTMonad--><g id="elem_OptionalTMonad"><rect codeLine="24" fill="#24273A" height="126" id="OptionalTMonad" rx="2.7" ry="2.7" style="stroke:#C6A0F6;stroke-width:3.6;" width="637.1965" x="1141.0348" y="181.8"/><rect fill="#363A4F" height="54" rx="2.7" ry="2.7" style="stroke:#363A4F;stroke-width:3.6;" width="637.1965" x="1141.0348" y="181.8"/><rect fill="#363A4F" height="2.7" style="stroke:#363A4F;stroke-width:3.6;" width="637.1965" x="1141.0348" y="233.1"/><rect codeLine="24" fill="none" height="126" id="OptionalTMonad" rx="2.7" ry="2.7" style="stroke:#C6A0F6;stroke-width:3.6;" width="637.1965" x="1141.0348" y="181.8"/><ellipse cx="1291.9694" cy="208.8" fill="#ADD1B2" rx="18" ry="18" style="stroke:#181818;stroke-width:1.8;"/><path d="M1295.2706,216.4465 Q1294.5323,216.8262 1293.7202,217.016 Q1292.9081,217.2059 1292.0116,217.2059 Q1288.8264,217.2059 1287.1495,215.107 Q1285.4725,213.0082 1285.4725,209.0426 Q1285.4725,205.0664 1287.1495,202.9676 Q1288.8264,200.8688 1292.0116,200.8688 Q1292.9081,200.8688 1293.7307,201.0586 Q1294.5534,201.2484 1295.2706,201.6281 L1295.2706,205.0875 Q1294.469,204.3492 1293.7149,204.0064 Q1292.9608,203.6637 1292.1593,203.6637 Q1290.4507,203.6637 1289.5806,205.0189 Q1288.7104,206.3742 1288.7104,209.0426 Q1288.7104,211.7004 1289.5806,213.0557 Q1290.4507,214.4109 1292.1593,214.4109 Q1292.9608,214.4109 1293.7149,214.0682 Q1294.469,213.7254 1295.2706,212.9871 Z " fill="#CAD3F5"/><text fill="#A6DA95" font-family="Helvetica" font-size="28.8" lengthAdjust="spacing" textLength="212.9203" x="1326.1694" y="216.5766">OptionalTMonad</text><rect fill="#24273A" height="25.2" style="stroke:#C6A0F6;stroke-width:1.8;stroke-dasharray:2.0,2.0;" width="104.407" x="1679.2243" y="176.4"/><text fill="#CAD3F5" font-family="Helvetica" font-size="21.6" font-style="italic" lengthAdjust="spacing" textLength="100.807" x="1681.0243" y="194.8324">F_OUTER</text><line style="stroke:#C6A0F6;stroke-width:3.6;" x1="1142.8348" x2="1776.4313" y1="235.8" y2="235.8"/><rect fill="none" height="10.8" style="stroke:#C82930;stroke-width:1.8;" width="10.8" x="1155.4348" y="251.1"/><text fill="#A6DA95" font-family="Helvetica" font-size="21.6" lengthAdjust="spacing" textLength="463.7461" x="1175.2348" y="259.6324">final @NonNull Monad&lt;F_OUTER&gt; outerMonad</text><line style="stroke:#C6A0F6;stroke-width:3.6;" x1="1142.8348" x2="1776.4313" y1="271.8" y2="271.8"/><ellipse cx="1160.8348" cy="292.5" fill="#84BE84" rx="5.4" ry="5.4" style="stroke:#038048;stroke-width:1.8;"/><text fill="#A6DA95" font-family="Helvetica" font-size="21.6" lengthAdjust="spacing" textLength="592.1965" x="1175.2348" y="295.6324">OptionalTMonad(@NonNull Monad&lt;F_OUTER&gt; outerMonad)</text></g><!--class OptionalTKindHelper--><g id="elem_OptionalTKindHelper"><rect codeLine="30" fill="#24273A" height="212.4" id="OptionalTKindHelper" rx="2.7" ry="2.7" style="stroke:#C6A0F6;stroke-width:3.6;" width="820.5645" x="543.5608" y="441"/><rect fill="#363A4F" height="54" rx="2.7" ry="2.7" style="stroke:#363A4F;stroke-width:3.6;" width="820.5645" x="543.5608" y="441"/><rect fill="#363A4F" height="2.7" style="stroke:#363A4F;stroke-width:3.6;" width="820.5645" x="543.5608" y="492.3"/><rect codeLine="30" fill="none" height="212.4" id="OptionalTKindHelper" rx="2.7" ry="2.7" style="stroke:#C6A0F6;stroke-width:3.6;" width="820.5645" x="543.5608" y="441"/><ellipse cx="812.972" cy="468" fill="#ADD1B2" rx="18" ry="18" style="stroke:#181818;stroke-width:1.8;"/><path d="M816.2732,475.6465 Q815.5349,476.0262 814.7228,476.216 Q813.9107,476.4059 813.0142,476.4059 Q809.829,476.4059 808.1521,474.307 Q806.4751,472.2082 806.4751,468.2426 Q806.4751,464.2664 808.1521,462.1676 Q809.829,460.0688 813.0142,460.0688 Q813.9107,460.0688 814.7333,460.2586 Q815.556,460.4484 816.2732,460.8281 L816.2732,464.2875 Q815.4716,463.5492 814.7175,463.2064 Q813.9634,462.8637 813.1618,462.8637 Q811.4532,462.8637 810.5831,464.2189 Q809.713,465.5742 809.713,468.2426 Q809.713,470.9004 810.5831,472.2557 Q811.4532,473.6109 813.1618,473.6109 Q813.9634,473.6109 814.7175,473.2682 Q815.4716,472.9254 816.2732,472.1871 Z " fill="#CAD3F5"/><text fill="#A6DA95" font-family="Helvetica" font-size="28.8" lengthAdjust="spacing" textLength="267.3422" x="847.172" y="475.7766">OptionalTKindHelper</text><line style="stroke:#C6A0F6;stroke-width:3.6;" x1="545.3608" x2="1362.3253" y1="495" y2="495"/><text fill="#A6DA95" font-family="Helvetica" font-size="21.6" lengthAdjust="spacing" textLength="379.4027" x="554.3608" y="518.8324">note right of OptionalTKindHelper::wrap</text><text fill="#A6DA95" font-family="Helvetica" font-size="21.6" lengthAdjust="spacing" textLength="289.3324" x="554.3608" y="540.4324">Uses internal OptionalTHolder</text><text fill="#A6DA95" font-family="Helvetica" font-size="21.6" lengthAdjust="spacing" textLength="84.0797" x="554.3608" y="562.0324">end note</text><line style="stroke:#C6A0F6;stroke-width:3.6;" x1="545.3608" x2="1362.3253" y1="574.2" y2="574.2"/><ellipse cx="563.3608" cy="594.9" fill="#84BE84" rx="5.4" ry="5.4" style="stroke:#038048;stroke-width:1.8;"/><text fill="#A6DA95" font-family="Helvetica" font-size="21.6" lengthAdjust="spacing" textLength="775.5645" x="577.7608" y="598.0324">static &lt;F, A&gt; OptionalT&lt;F, A&gt; unwrap(Kind&lt;OptionalTKind.Witness&lt;F&gt;, A&gt; kind)</text><ellipse cx="563.3608" cy="616.5" fill="#84BE84" rx="5.4" ry="5.4" style="stroke:#038048;stroke-width:1.8;"/><text fill="#A6DA95" font-family="Helvetica" font-size="21.6" lengthAdjust="spacing" textLength="649.4977" x="577.7608" y="619.6324">static &lt;F, A&gt; OptionalTKind&lt;F, A&gt; wrap(OptionalT&lt;F, A&gt; optionalT)</text><text fill="#A6DA95" font-family="Helvetica" font-size="21.6" lengthAdjust="spacing" textLength="213.6797" x="577.7608" y="641.2324">(not shown for brevity)</text></g><!--reverse link OptionalTKind to OptionalT--><g id="link_OptionalTKind_OptionalT"><path d="M834.307,920.1865 C869.209,951.1465 890.0968,969.678 932.7928,1007.532 " fill="none" id="OptionalTKind-backto-OptionalT" style="stroke:#F5BDE6;stroke-width:1.8;stroke-dasharray:7.0,7.0;"/><polygon fill="none" points="810.0688,898.686,827.1401,928.2659,841.4738,912.1072,810.0688,898.686" style="stroke:#F5BDE6;stroke-width:1.8;"/></g><!--reverse link Kind to OptionalTKind--><g id="link_Kind_OptionalTKind"><path d="M409.0715,593.9248 C473.9255,641.0308 586.3468,722.7 673.0888,785.718 " fill="none" id="Kind-backto-OptionalTKind" style="stroke:#F5BDE6;stroke-width:1.8;"/><polygon fill="none" points="382.8568,574.884,402.7246,602.663,415.4185,585.1865,382.8568,574.884" style="stroke:#F5BDE6;stroke-width:1.8;"/></g><!--reverse link MonadError to OptionalTMonad--><g id="link_MonadError_OptionalTMonad"><path d="M1459.6348,104.85 C1459.6348,132.264 1459.6348,144.36 1459.6348,181.026 " fill="none" id="MonadError-backto-OptionalTMonad" style="stroke:#F5BDE6;stroke-width:1.8;stroke-dasharray:7.0,7.0;"/><polygon fill="none" points="1459.6348,72.45,1448.8348,104.85,1470.4348,104.85,1459.6348,72.45" style="stroke:#F5BDE6;stroke-width:1.8;"/></g><!--reverse link OptionalTMonad to Monad--><g id="link_OptionalTMonad_Monad"><path codeLine="42" d="M1572.0938,321.8438 C1641.4838,375.2858 1706.2348,446.184 1706.2348,545.4 C1706.2348,545.4 1706.2348,545.4 1706.2348,1130.4 C1706.2348,1242.432 1581.1708,1320.372 1502.9968,1358.154 " fill="none" id="OptionalTMonad-backto-Monad" style="stroke:#F5BDE6;stroke-width:1.8;"/><polygon fill="#F5BDE6" points="1554.9808,308.664,1559.144,320.9582,1572.0938,321.8438,1567.9306,309.5496,1554.9808,308.664" style="stroke:#F5BDE6;stroke-width:1.8;"/><text fill="#CAD3F5" font-family="Helvetica" font-size="21.6" lengthAdjust="spacing" textLength="327.7441" x="1563.5271" y="1342.8003">outerMonad (Monad&lt;F_OUTER&gt;)</text></g><!--link OptionalTMonad to OptionalTKindHelper--><g id="link_OptionalTMonad_OptionalTKindHelper"><path codeLine="43" d="M1354.8388,308.52 C1290.4528,346.554 1215.6016,390.7589 1141.0096,434.8229 " fill="none" id="OptionalTMonad-to-OptionalTKindHelper" style="stroke:#F5BDE6;stroke-width:1.8;stroke-dasharray:7.0,7.0;"/><polygon fill="#F5BDE6" points="1131.7108,440.316,1149.321,438.2755,1139.4598,435.7384,1141.9969,425.8773,1131.7108,440.316" style="stroke:#F5BDE6;stroke-width:1.8;"/><text fill="#CAD3F5" font-family="Helvetica" font-size="21.6" lengthAdjust="spacing" textLength="45.6258" x="1253.8408" y="380.2324">uses</text></g><!--link OptionalTMonad to OptionalT--><g id="link_OptionalTMonad_OptionalT"><path codeLine="44" d="M1458.2848,308.124 C1454.6128,389.808 1441.4548,537.246 1394.8348,653.4 C1341.9688,785.106 1253.7968,907.9975 1179.6548,998.7715 " fill="none" id="OptionalTMonad-to-OptionalT" style="stroke:#F5BDE6;stroke-width:1.8;stroke-dasharray:7.0,7.0;"/><polygon fill="#F5BDE6" points="1172.8228,1007.136,1188.6471,999.1439,1178.5161,1000.1656,1177.4944,990.0346,1172.8228,1007.136" style="stroke:#F5BDE6;stroke-width:1.8;"/><text fill="#CAD3F5" font-family="Helvetica" font-size="21.6" lengthAdjust="spacing" textLength="202.9219" x="1372.3708" y="725.8324">creates / operates on</text></g><!--link OptionalTKindHelper to OptionalT--><g id="link_OptionalTKindHelper_OptionalT"><path codeLine="46" d="M978.2608,653.67 C982.2568,671.562 986.2528,689.994 989.8348,707.4 C1010.5888,808.2 1029.727,912.5499 1044.631,996.5919 " fill="none" id="OptionalTKindHelper-to-OptionalT" style="stroke:#F5BDE6;stroke-width:1.8;stroke-dasharray:7.0,7.0;"/><polygon fill="#F5BDE6" points="1046.5168,1007.226,1050.7775,990.0177,1044.9453,998.3643,1036.5987,992.5321,1046.5168,1007.226" style="stroke:#F5BDE6;stroke-width:1.8;"/><text fill="#CAD3F5" font-family="Helvetica" font-size="21.6" lengthAdjust="spacing" textLength="158.4563" x="1027.5268" y="848.2324">unwrap() returns</text></g><!--link OptionalTKindHelper to OptionalTKind--><g id="link_OptionalTKindHelper_OptionalTKind"><path codeLine="47" d="M879.7468,654.282 C848.3008,698.976 819.1836,740.3647 793.1196,777.3907 " fill="none" id="OptionalTKindHelper-to-OptionalTKind" style="stroke:#F5BDE6;stroke-width:1.8;stroke-dasharray:7.0,7.0;"/><polygon fill="#F5BDE6" points="786.9028,786.222,802.1155,777.1195,792.0834,778.8626,790.3404,768.8305,786.9028,786.222" style="stroke:#F5BDE6;stroke-width:1.8;"/><text fill="#CAD3F5" font-family="Helvetica" font-size="21.6" lengthAdjust="spacing" textLength="134.4305" x="840.7408" y="725.8324">wrap() returns</text></g><!--link OptionalT to Kind--><g id="link_OptionalT_Kind"><path codeLine="50" d="M685.2208,1007.226 C626.7748,977.796 570.4348,941.85 523.6348,898.2 C422.3128,803.7 373.2343,648.5002 356.3503,585.1042 " fill="none" id="OptionalT-to-Kind" style="stroke:#F5BDE6;stroke-width:1.8;stroke-dasharray:7.0,7.0;"/><polygon fill="#F5BDE6" points="353.5708,574.668,350.7825,592.1753,355.887,583.3649,364.6975,588.4694,353.5708,574.668" style="stroke:#F5BDE6;stroke-width:1.8;"/><text fill="#CAD3F5" font-family="Helvetica" font-size="21.6" lengthAdjust="spacing" textLength="292.9816" x="10.8" y="605.4117">value is Kind&lt;F, Optional&lt;A&gt;&gt;</text></g><!--link OptionalT to Monad--><g id="link_OptionalT_Monad"><path codeLine="51" d="M1243.4728,1249.866 C1303.7908,1290.762 1356.6823,1326.6045 1394.8783,1352.5065 " fill="none" id="OptionalT-to-Monad" style="stroke:#F5BDE6;stroke-width:1.8;stroke-dasharray:7.0,7.0;"/><polygon fill="#F5BDE6" points="1403.8168,1358.568,1394.45,1343.5167,1396.3681,1353.5167,1386.368,1355.4347,1403.8168,1358.568" style="stroke:#F5BDE6;stroke-width:1.8;"/><text fill="#CAD3F5" font-family="Helvetica" font-size="21.6" lengthAdjust="spacing" textLength="265.3383" x="1076.62" y="1339.5024">factories require Monad&lt;F&gt;</text></g><!--SRC=[ZLLDZzem4BtdLqovDBI4t16AoW6qqdPt9SJI8pAEix7gZzHsThjQzRztOXn8iY100ZdZzzwCPrxC5wweg7C6fNELdQMf8M_J5-xAUbzRPgXMZYatfLgcYchhIC9fIechgffIhX99A2qvSJgf156kbY9n9PCibOIhr2-d5KQZgEIOXSdAlODaSi-CZIAEwgOWbC4zL_byjRkxtqnWiTikVcQTpGUjIDZjXaS-lZH6cvQwt2tNwsm4nC9fCue0g23MmbFbE8R5Phx2D1dCvuPHRV8i0ouhWSKgrq4TYlB83zG0-0u_7hLwh8M0Tgy5pnSeyaf4pJmoIM15gDE6CuiFWOtzSvn2q1nMKnWj6zduilRu9Y6h9Oj3qpAGpGBZG6vZAws6xF7DzRUnJ-axPm4TrhV92bwurIUzpcmAVx1_pPXFvZWtHFONpPpR0xS7cFxYJZ5hCK5dt6aA8Jw3I_0Mk6t6CuD5Myd0SAs5dvutotNFRHqJNyWHI1FOQfwtjILGS8IU33d8e6liX8-59lTBYQ_p3jFv2a_u5fjEcVZwkb9Z6sDTJ42IQWA58EwXMJHVGxXb7Zc1agXS71xmEENuGdUQyzunKM6UZv0rF8PSDncbLc-6LF7rwVx6s1NlTLpZHOUvMWjlnf4NKjenCFobTA2BSmURpHeTZmLujdWhUAys8poYxxJ8cGcO62N1blfDGO5DtnlsojtxeMnqiSzuQ2V-zeSBt_3w6Pqc2N5_oECHjCuO4AVJxEnKPe3_1lOA7b7KCEBmR2asY1c_rAfNO4TqI0xp6uDXhZRAta9huaWT47iPFM7ahq_Wzkp5FVBHpwJYU8KRzgVcvlXNbBKTnCz_]--></g></svg>