<svg xmlns="http://www.w3.org/2000/svg" xmlns:xlink="http://www.w3.org/1999/xlink" contentStyleType="text/css" height="647px" preserveAspectRatio="none" style="width:1006px;height:647px;background:#24273A;" version="1.1" viewBox="0 0 1006 647" width="1006px" zoomAndPan="magnify"><defs/><g><rect fill="#24273A" height="647" style="stroke:none;stroke-width:1.0;" width="1006" x="0" y="0"/><!--class Kind--><g id="elem_Kind"><rect codeLine="3" fill="#24273A" height="46" id="Kind" rx="1.5" ry="1.5" style="stroke:#C6A0F6;stroke-width:2.0;" width="88.0254" x="710.56" y="594"/><rect fill="#363A4F" height="30" rx="1.5" ry="1.5" style="stroke:#363A4F;stroke-width:2.0;" width="88.0254" x="710.56" y="594"/><rect fill="#363A4F" height="1.5" style="stroke:#363A4F;stroke-width:2.0;" width="88.0254" x="710.56" y="622.5"/><rect codeLine="3" fill="none" height="46" id="Kind" rx="1.5" ry="1.5" style="stroke:#C6A0F6;stroke-width:2.0;" width="88.0254" x="710.56" y="594"/><ellipse cx="724.56" cy="609" fill="#B4A7E5" rx="10" ry="10" style="stroke:#181818;stroke-width:1.0;"/><path d="M721.5678,606.2754 L721.5678,604.752 L726.7768,604.752 L726.7768,606.2754 L725.0366,606.2754 L725.0366,611.9766 L726.7768,611.9766 L726.7768,613.5 L721.5678,613.5 L721.5678,611.9766 L723.308,611.9766 L723.308,606.2754 Z " fill="#CAD3F5"/><text fill="#A6DA95" font-family="Helvetica" font-size="16" font-style="italic" lengthAdjust="spacing" textLength="32.0234" x="737.56" y="613.3203">Kind</text><rect fill="#24273A" height="14" style="stroke:#C6A0F6;stroke-width:1.0;stroke-dasharray:2.0,2.0;" width="24.002" x="777.5834" y="591"/><text fill="#CAD3F5" font-family="Helvetica" font-size="12" font-style="italic" lengthAdjust="spacing" textLength="22.002" x="778.5834" y="601.2402">F, A</text><line style="stroke:#C6A0F6;stroke-width:2.0;" x1="711.56" x2="797.5854" y1="624" y2="624"/><line style="stroke:#C6A0F6;stroke-width:2.0;" x1="711.56" x2="797.5854" y1="632" y2="632"/></g><!--class Functor--><g id="elem_Functor"><rect codeLine="4" fill="#24273A" height="46" id="Functor" rx="1.5" ry="1.5" style="stroke:#C6A0F6;stroke-width:2.0;" width="95.5723" x="786.79" y="474"/><rect fill="#363A4F" height="30" rx="1.5" ry="1.5" style="stroke:#363A4F;stroke-width:2.0;" width="95.5723" x="786.79" y="474"/><rect fill="#363A4F" height="1.5" style="stroke:#363A4F;stroke-width:2.0;" width="95.5723" x="786.79" y="502.5"/><rect codeLine="4" fill="none" height="46" id="Functor" rx="1.5" ry="1.5" style="stroke:#C6A0F6;stroke-width:2.0;" width="95.5723" x="786.79" y="474"/><ellipse cx="800.79" cy="489" fill="#B4A7E5" rx="10" ry="10" style="stroke:#181818;stroke-width:1.0;"/><path d="M797.7978,486.2754 L797.7978,484.752 L803.0068,484.752 L803.0068,486.2754 L801.2666,486.2754 L801.2666,491.9766 L803.0068,491.9766 L803.0068,493.5 L797.7978,493.5 L797.7978,491.9766 L799.538,491.9766 L799.538,486.2754 Z " fill="#CAD3F5"/><text fill="#A6DA95" font-family="Helvetica" font-size="16" font-style="italic" lengthAdjust="spacing" textLength="54.2422" x="813.79" y="493.3203">Functor</text><rect fill="#24273A" height="14" style="stroke:#C6A0F6;stroke-width:1.0;stroke-dasharray:2.0,2.0;" width="9.3301" x="876.0322" y="471"/><text fill="#CAD3F5" font-family="Helvetica" font-size="12" font-style="italic" lengthAdjust="spacing" textLength="7.3301" x="877.0322" y="481.2402">F</text><line style="stroke:#C6A0F6;stroke-width:2.0;" x1="787.79" x2="881.3623" y1="504" y2="504"/><line style="stroke:#C6A0F6;stroke-width:2.0;" x1="787.79" x2="881.3623" y1="512" y2="512"/></g><!--class Applicative--><g id="elem_Applicative"><rect codeLine="5" fill="#24273A" height="46" id="Applicative" rx="1.5" ry="1.5" style="stroke:#C6A0F6;stroke-width:2.0;" width="118.7051" x="530.22" y="367"/><rect fill="#363A4F" height="30" rx="1.5" ry="1.5" style="stroke:#363A4F;stroke-width:2.0;" width="118.7051" x="530.22" y="367"/><rect fill="#363A4F" height="1.5" style="stroke:#363A4F;stroke-width:2.0;" width="118.7051" x="530.22" y="395.5"/><rect codeLine="5" fill="none" height="46" id="Applicative" rx="1.5" ry="1.5" style="stroke:#C6A0F6;stroke-width:2.0;" width="118.7051" x="530.22" y="367"/><ellipse cx="544.22" cy="382" fill="#B4A7E5" rx="10" ry="10" style="stroke:#181818;stroke-width:1.0;"/><path d="M541.2278,379.2754 L541.2278,377.752 L546.4368,377.752 L546.4368,379.2754 L544.6966,379.2754 L544.6966,384.9766 L546.4368,384.9766 L546.4368,386.5 L541.2278,386.5 L541.2278,384.9766 L542.968,384.9766 L542.968,379.2754 Z " fill="#CAD3F5"/><text fill="#A6DA95" font-family="Helvetica" font-size="16" font-style="italic" lengthAdjust="spacing" textLength="77.375" x="557.22" y="386.3203">Applicative</text><rect fill="#24273A" height="14" style="stroke:#C6A0F6;stroke-width:1.0;stroke-dasharray:2.0,2.0;" width="9.3301" x="642.595" y="364"/><text fill="#CAD3F5" font-family="Helvetica" font-size="12" font-style="italic" lengthAdjust="spacing" textLength="7.3301" x="643.595" y="374.2402">F</text><line style="stroke:#C6A0F6;stroke-width:2.0;" x1="531.22" x2="647.9251" y1="397" y2="397"/><line style="stroke:#C6A0F6;stroke-width:2.0;" x1="531.22" x2="647.9251" y1="405" y2="405"/></g><!--class MonadBase--><g id="elem_MonadBase"><rect codeLine="6" fill="#24273A" height="46" id="MonadBase" rx="1.5" ry="1.5" style="stroke:#C6A0F6;stroke-width:2.0;" width="92.918" x="29.11" y="247"/><rect fill="#363A4F" height="30" rx="1.5" ry="1.5" style="stroke:#363A4F;stroke-width:2.0;" width="92.918" x="29.11" y="247"/><rect fill="#363A4F" height="1.5" style="stroke:#363A4F;stroke-width:2.0;" width="92.918" x="29.11" y="275.5"/><rect codeLine="6" fill="none" height="46" id="MonadBase" rx="1.5" ry="1.5" style="stroke:#C6A0F6;stroke-width:2.0;" width="92.918" x="29.11" y="247"/><ellipse cx="43.11" cy="262" fill="#B4A7E5" rx="10" ry="10" style="stroke:#181818;stroke-width:1.0;"/><path d="M40.1178,259.2754 L40.1178,257.752 L45.3268,257.752 L45.3268,259.2754 L43.5866,259.2754 L43.5866,264.9766 L45.3268,264.9766 L45.3268,266.5 L40.1178,266.5 L40.1178,264.9766 L41.858,264.9766 L41.858,259.2754 Z " fill="#CAD3F5"/><text fill="#A6DA95" font-family="Helvetica" font-size="16" font-style="italic" lengthAdjust="spacing" textLength="48.9219" x="56.11" y="266.3203">Monad</text><rect fill="#24273A" height="14" style="stroke:#C6A0F6;stroke-width:1.0;stroke-dasharray:2.0,2.0;" width="11.9961" x="113.0319" y="244"/><text fill="#CAD3F5" font-family="Helvetica" font-size="12" font-style="italic" lengthAdjust="spacing" textLength="9.9961" x="114.0319" y="254.2402">M</text><line style="stroke:#C6A0F6;stroke-width:2.0;" x1="30.11" x2="121.028" y1="277" y2="277"/><line style="stroke:#C6A0F6;stroke-width:2.0;" x1="30.11" x2="121.028" y1="285" y2="285"/></g><!--class MonadErrorBase--><g id="elem_MonadErrorBase"><rect codeLine="7" fill="#24273A" height="46" id="MonadErrorBase" rx="1.5" ry="1.5" style="stroke:#C6A0F6;stroke-width:2.0;" width="143.1445" x="7" y="127"/><rect fill="#363A4F" height="30" rx="1.5" ry="1.5" style="stroke:#363A4F;stroke-width:2.0;" width="143.1445" x="7" y="127"/><rect fill="#363A4F" height="1.5" style="stroke:#363A4F;stroke-width:2.0;" width="143.1445" x="7" y="155.5"/><rect codeLine="7" fill="none" height="46" id="MonadErrorBase" rx="1.5" ry="1.5" style="stroke:#C6A0F6;stroke-width:2.0;" width="143.1445" x="7" y="127"/><ellipse cx="21" cy="142" fill="#B4A7E5" rx="10" ry="10" style="stroke:#181818;stroke-width:1.0;"/><path d="M18.0078,139.2754 L18.0078,137.752 L23.2168,137.752 L23.2168,139.2754 L21.4766,139.2754 L21.4766,144.9766 L23.2168,144.9766 L23.2168,146.5 L18.0078,146.5 L18.0078,144.9766 L19.748,144.9766 L19.748,139.2754 Z " fill="#CAD3F5"/><text fill="#A6DA95" font-family="Helvetica" font-size="16" font-style="italic" lengthAdjust="spacing" textLength="84.4766" x="34" y="146.3203">MonadError</text><rect fill="#24273A" height="14" style="stroke:#C6A0F6;stroke-width:1.0;stroke-dasharray:2.0,2.0;" width="26.668" x="126.4766" y="124"/><text fill="#CAD3F5" font-family="Helvetica" font-size="12" font-style="italic" lengthAdjust="spacing" textLength="24.668" x="127.4766" y="134.2402">M, E</text><line style="stroke:#C6A0F6;stroke-width:2.0;" x1="8" x2="149.1445" y1="157" y2="157"/><line style="stroke:#C6A0F6;stroke-width:2.0;" x1="8" x2="149.1445" y1="165" y2="165"/></g><!--class OptionalKindBase--><g id="elem_OptionalKindBase"><rect codeLine="9" fill="#24273A" height="46" id="OptionalKindBase" rx="1.5" ry="1.5" style="stroke:#C6A0F6;stroke-width:2.0;" width="133.6211" x="607.76" y="474"/><rect fill="#363A4F" height="30" rx="1.5" ry="1.5" style="stroke:#363A4F;stroke-width:2.0;" width="133.6211" x="607.76" y="474"/><rect fill="#363A4F" height="1.5" style="stroke:#363A4F;stroke-width:2.0;" width="133.6211" x="607.76" y="502.5"/><rect codeLine="9" fill="none" height="46" id="OptionalKindBase" rx="1.5" ry="1.5" style="stroke:#C6A0F6;stroke-width:2.0;" width="133.6211" x="607.76" y="474"/><ellipse cx="621.76" cy="489" fill="#ADD8E6" rx="10" ry="10" style="stroke:#181818;stroke-width:1.0;"/><path d="M621.3694,486.1465 Q620.7073,486.1465 620.4026,486.8525 Q620.0979,487.5586 620.0979,489.1348 Q620.0979,490.7051 620.4026,491.4111 Q620.7073,492.1172 621.3694,492.1172 Q622.0373,492.1172 622.342,491.4111 Q622.6467,490.7051 622.6467,489.1348 Q622.6467,487.5586 622.342,486.8525 Q622.0373,486.1465 621.3694,486.1465 Z M618.2991,489.1348 Q618.2991,486.8906 619.0754,485.7422 Q619.8518,484.5938 621.3694,484.5938 Q622.8928,484.5938 623.6692,485.7422 Q624.4455,486.8906 624.4455,489.1348 Q624.4455,491.373 623.6692,492.5215 Q622.8928,493.6699 621.3694,493.6699 Q619.8518,493.6699 619.0754,492.5215 Q618.2991,491.373 618.2991,489.1348 Z " fill="#CAD3F5"/><text fill="#A6DA95" font-family="Helvetica" font-size="16" font-style="italic" lengthAdjust="spacing" textLength="91.6172" x="634.76" y="493.3203">OptionalKind</text><rect fill="#24273A" height="14" style="stroke:#C6A0F6;stroke-width:1.0;stroke-dasharray:2.0,2.0;" width="10.0039" x="734.3772" y="471"/><text fill="#CAD3F5" font-family="Helvetica" font-size="12" font-style="italic" lengthAdjust="spacing" textLength="8.0039" x="735.3772" y="481.2402">A</text><line style="stroke:#C6A0F6;stroke-width:2.0;" x1="608.76" x2="740.3811" y1="504" y2="504"/><line style="stroke:#C6A0F6;stroke-width:2.0;" x1="608.76" x2="740.3811" y1="512" y2="512"/></g><!--class OptionalKindHelper--><g id="elem_OptionalKindHelper"><rect codeLine="13" fill="#24273A" height="46" id="OptionalKindHelper" rx="1.5" ry="1.5" style="stroke:#C6A0F6;stroke-width:2.0;" width="168.75" x="157.2" y="247"/><rect fill="#363A4F" height="30" rx="1.5" ry="1.5" style="stroke:#363A4F;stroke-width:2.0;" width="168.75" x="157.2" y="247"/><rect fill="#363A4F" height="1.5" style="stroke:#363A4F;stroke-width:2.0;" width="168.75" x="157.2" y="275.5"/><rect codeLine="13" fill="none" height="46" id="OptionalKindHelper" rx="1.5" ry="1.5" style="stroke:#C6A0F6;stroke-width:2.0;" width="168.75" x="157.2" y="247"/><ellipse cx="171.2" cy="262" fill="#808080" rx="10" ry="10" style="stroke:#181818;stroke-width:1.0;"/><path d="M168.0027,257.752 L169.7313,257.752 L169.7313,261.0859 L171.8934,261.0859 L171.8934,257.752 L173.6219,257.752 L173.6219,266.5 L171.8934,266.5 L171.8934,262.6094 L169.7313,262.6094 L169.7313,266.5 L168.0027,266.5 Z " fill="#CAD3F5"/><text fill="#A6DA95" font-family="Helvetica" font-size="16" lengthAdjust="spacing" textLength="138.75" x="184.2" y="266.3203">OptionalKindHelper</text><line style="stroke:#C6A0F6;stroke-width:2.0;" x1="158.2" x2="324.95" y1="277" y2="277"/><line style="stroke:#C6A0F6;stroke-width:2.0;" x1="158.2" x2="324.95" y1="285" y2="285"/></g><g id="elem_GMN9"><path d="M361.28,248.5 L361.28,266 L326.44,270 L361.28,274 L361.28,291.5 A1.5,1.5 0 0 0 362.78,293 L818.364,293 A1.5,1.5 0 0 0 819.864,291.5 L819.864,257 L809.864,247 L362.78,247 A1.5,1.5 0 0 0 361.28,248.5 " fill="#EED49F" style="stroke:#24273A;stroke-width:0.5;"/><path d="M809.864,247 L809.864,256.25 A0.75,0.75 0 0 0 810.614,257 L819.864,257 L809.864,247 " fill="#EED49F" style="stroke:#24273A;stroke-width:0.5;"/><text fill="#24273A" font-family="Helvetica" font-size="12" lengthAdjust="spacing" textLength="237.3809" x="367.28" y="261.2402">Contains internal 'OptionalHolder&lt;A&gt; record'</text><text fill="#24273A" font-family="Helvetica" font-size="12" lengthAdjust="spacing" textLength="192.7676" x="367.28" y="273.2402">which implements OptionalKind&lt;A&gt;.</text><text fill="#24273A" font-family="Helvetica" font-size="12" lengthAdjust="spacing" textLength="437.584" x="367.28" y="285.2402">`record OptionalHolder&lt;A&gt;(Optional&lt;A&gt; optional) implements OptionalKind&lt;A&gt; {}`</text></g><!--class OptionalFunctorImpl--><g id="elem_OptionalFunctorImpl"><rect codeLine="24" fill="#24273A" height="46" id="OptionalFunctorImpl" rx="1.5" ry="1.5" style="stroke:#C6A0F6;stroke-width:2.0;" width="143.8359" x="389.65" y="127"/><rect fill="#363A4F" height="30" rx="1.5" ry="1.5" style="stroke:#363A4F;stroke-width:2.0;" width="143.8359" x="389.65" y="127"/><rect fill="#363A4F" height="1.5" style="stroke:#363A4F;stroke-width:2.0;" width="143.8359" x="389.65" y="155.5"/><rect codeLine="24" fill="none" height="46" id="OptionalFunctorImpl" rx="1.5" ry="1.5" style="stroke:#C6A0F6;stroke-width:2.0;" width="143.8359" x="389.65" y="127"/><ellipse cx="403.65" cy="142" fill="#ADD1B2" rx="10" ry="10" style="stroke:#181818;stroke-width:1.0;"/><path d="M405.484,146.248 Q405.0738,146.459 404.6227,146.5645 Q404.1715,146.6699 403.6734,146.6699 Q401.9039,146.6699 400.9723,145.5039 Q400.0406,144.3379 400.0406,142.1348 Q400.0406,139.9258 400.9723,138.7598 Q401.9039,137.5938 403.6734,137.5938 Q404.1715,137.5938 404.6285,137.6992 Q405.0855,137.8047 405.484,138.0156 L405.484,139.9375 Q405.0387,139.5273 404.6197,139.3369 Q404.2008,139.1465 403.7555,139.1465 Q402.8063,139.1465 402.3229,139.8994 Q401.8395,140.6523 401.8395,142.1348 Q401.8395,143.6113 402.3229,144.3643 Q402.8063,145.1172 403.7555,145.1172 Q404.2008,145.1172 404.6197,144.9268 Q405.0387,144.7363 405.484,144.3262 Z " fill="#CAD3F5"/><text fill="#A6DA95" font-family="Helvetica" font-size="16" lengthAdjust="spacing" textLength="113.8359" x="416.65" y="146.3203">OptionalFunctor</text><line style="stroke:#C6A0F6;stroke-width:2.0;" x1="390.65" x2="532.4859" y1="157" y2="157"/><line style="stroke:#C6A0F6;stroke-width:2.0;" x1="390.65" x2="532.4859" y1="165" y2="165"/></g><!--class OptionalMonadImpl--><g id="elem_OptionalMonadImpl"><rect codeLine="27" fill="#24273A" height="46" id="OptionalMonadImpl" rx="1.5" ry="1.5" style="stroke:#C6A0F6;stroke-width:2.0;" width="138.5156" x="169.31" y="7"/><rect fill="#363A4F" height="30" rx="1.5" ry="1.5" style="stroke:#363A4F;stroke-width:2.0;" width="138.5156" x="169.31" y="7"/><rect fill="#363A4F" height="1.5" style="stroke:#363A4F;stroke-width:2.0;" width="138.5156" x="169.31" y="35.5"/><rect codeLine="27" fill="none" height="46" id="OptionalMonadImpl" rx="1.5" ry="1.5" style="stroke:#C6A0F6;stroke-width:2.0;" width="138.5156" x="169.31" y="7"/><ellipse cx="183.31" cy="22" fill="#ADD1B2" rx="10" ry="10" style="stroke:#181818;stroke-width:1.0;"/><path d="M185.144,26.248 Q184.7338,26.459 184.2827,26.5645 Q183.8315,26.6699 183.3334,26.6699 Q181.5639,26.6699 180.6323,25.5039 Q179.7006,24.3379 179.7006,22.1348 Q179.7006,19.9258 180.6323,18.7598 Q181.5639,17.5938 183.3334,17.5938 Q183.8315,17.5938 184.2885,17.6992 Q184.7455,17.8047 185.144,18.0156 L185.144,19.9375 Q184.6987,19.5273 184.2797,19.3369 Q183.8608,19.1465 183.4155,19.1465 Q182.4663,19.1465 181.9829,19.8994 Q181.4995,20.6523 181.4995,22.1348 Q181.4995,23.6113 181.9829,24.3643 Q182.4663,25.1172 183.4155,25.1172 Q183.8608,25.1172 184.2797,24.9268 Q184.6987,24.7363 185.144,24.3262 Z " fill="#CAD3F5"/><text fill="#A6DA95" font-family="Helvetica" font-size="16" lengthAdjust="spacing" textLength="108.5156" x="196.31" y="26.3203">OptionalMonad</text><line style="stroke:#C6A0F6;stroke-width:2.0;" x1="170.31" x2="306.8256" y1="37" y2="37"/><line style="stroke:#C6A0F6;stroke-width:2.0;" x1="170.31" x2="306.8256" y1="45" y2="45"/></g><!--link MonadErrorBase to MonadBase--><g id="link_MonadErrorBase_MonadBase"><path codeLine="36" d="M78,173.47 C77.47,194.47 77.1248,207.6457 76.5948,228.6157 " fill="none" id="MonadErrorBase-to-MonadBase" style="stroke:#F5BDE6;stroke-width:1.0;"/><polygon fill="none" points="76.14,246.61,82.5929,228.7673,70.5967,228.4641,76.14,246.61" style="stroke:#F5BDE6;stroke-width:1.0;"/></g><!--link MonadBase to Applicative--><g id="link_MonadBase_Applicative"><path codeLine="37" d="M122.21,287.76 C128.02,289.63 133.91,291.43 139.57,293 C277.74,331.33 425.6737,359.9269 512.3337,375.4969 " fill="none" id="MonadBase-to-Applicative" style="stroke:#F5BDE6;stroke-width:1.0;"/><polygon fill="none" points="530.05,378.68,513.3947,369.5915,511.2727,381.4024,530.05,378.68" style="stroke:#F5BDE6;stroke-width:1.0;"/></g><!--link Applicative to Functor--><g id="link_Applicative_Functor"><path codeLine="38" d="M641.83,413.4 C684.69,431.77 728.3462,450.4675 770.0062,468.3275 " fill="none" id="Applicative-to-Functor" style="stroke:#F5BDE6;stroke-width:1.0;"/><polygon fill="none" points="786.55,475.42,772.3704,462.8129,767.6421,473.8421,786.55,475.42" style="stroke:#F5BDE6;stroke-width:1.0;"/></g><!--link Functor to Kind--><g id="link_Functor_Kind"><path codeLine="39" d="M822.29,520.46 C814.95,533.45 805.2,549.95 795.57,564 C788.68,574.05 791.7562,570.6778 784.4962,579.6978 " fill="none" id="Functor-to-Kind" style="stroke:#F5BDE6;stroke-width:1.0;"/><polygon fill="none" points="773.21,593.72,789.1702,583.4598,779.8221,575.9357,773.21,593.72" style="stroke:#F5BDE6;stroke-width:1.0;"/><text fill="#CAD3F5" font-family="Helvetica" font-size="12" lengthAdjust="spacing" textLength="193.4063" x="804.63" y="560.2402">(logically, Kind is the base for HKTs)</text></g><!--link OptionalKindBase to Kind--><g id="link_OptionalKindBase_Kind"><path codeLine="41" d="M665.87,520.45 C662.13,533.9 660.12,550.87 667.57,564 C676.95,580.53 677.773,584.3751 694.233,592.5351 " fill="none" id="OptionalKindBase-to-Kind" style="stroke:#F5BDE6;stroke-width:1.0;"/><polygon fill="none" points="710.36,600.53,696.8979,587.1594,691.568,597.9107,710.36,600.53" style="stroke:#F5BDE6;stroke-width:1.0;"/><text fill="#CAD3F5" font-family="Helvetica" font-size="12" lengthAdjust="spacing" textLength="118.0898" x="668.57" y="560.2402">&lt;OptionalKind&lt;?&gt;, A&gt;</text></g><!--link OptionalFunctorImpl to Functor--><g id="link_OptionalFunctorImpl_Functor"><path codeLine="43" d="M533.95,159.01 C632.44,171.58 800.69,199.51 837.57,247 C890.08,314.6 865.5085,409.5978 848.9885,456.8678 " fill="none" id="OptionalFunctorImpl-to-Functor" style="stroke:#F5BDE6;stroke-width:1.0;stroke-dasharray:7.0,7.0;"/><polygon fill="none" points="843.05,473.86,854.6525,458.8473,843.3244,454.8883,843.05,473.86" style="stroke:#F5BDE6;stroke-width:1.0;"/><text fill="#CAD3F5" font-family="Helvetica" font-size="12" lengthAdjust="spacing" textLength="103.418" x="867.77" y="333.2402">&lt;OptionalKind&lt;?&gt;&gt;</text></g><!--link OptionalMonadImpl to OptionalFunctorImpl--><g id="link_OptionalMonadImpl_OptionalFunctorImpl"><path codeLine="44" d="M281.04,53.47 C320.72,74.47 363.7201,97.2213 403.3501,118.1913 " fill="none" id="OptionalMonadImpl-to-OptionalFunctorImpl" style="stroke:#F5BDE6;stroke-width:1.0;"/><polygon fill="none" points="419.26,126.61,406.1563,112.888,400.5438,123.4947,419.26,126.61" style="stroke:#F5BDE6;stroke-width:1.0;"/></g><!--link OptionalMonadImpl to MonadErrorBase--><g id="link_OptionalMonadImpl_MonadErrorBase"><path codeLine="45" d="M168.92,34.97 C135.28,40.82 97.72,54 76.57,83 C67.52,95.41 64.6942,95.3148 67.6842,109.1748 " fill="none" id="OptionalMonadImpl-to-MonadErrorBase" style="stroke:#F5BDE6;stroke-width:1.0;stroke-dasharray:7.0,7.0;"/><polygon fill="none" points="71.48,126.77,73.5493,107.9095,61.8191,110.44,71.48,126.77" style="stroke:#F5BDE6;stroke-width:1.0;"/><text fill="#CAD3F5" font-family="Helvetica" font-size="12" lengthAdjust="spacing" textLength="134.1035" x="77.57" y="93.2402">&lt;OptionalKind&lt;?&gt;, Void&gt;</text></g><!--link OptionalMonadImpl to OptionalKindHelper--><g id="link_OptionalMonadImpl_OptionalKindHelper"><path codeLine="47" d="M238.85,53.39 C239.43,98.87 240.6445,195.5605 241.2145,240.8405 " fill="none" id="OptionalMonadImpl-to-OptionalKindHelper" style="stroke:#F5BDE6;stroke-width:1.0;stroke-dasharray:7.0,7.0;"/><polygon fill="#F5BDE6" points="241.29,246.84,245.1764,237.7904,241.2271,241.8404,237.177,237.8911,241.29,246.84" style="stroke:#F5BDE6;stroke-width:1.0;"/><text fill="#CAD3F5" font-family="Helvetica" font-size="12" lengthAdjust="spacing" textLength="114.7207" x="241.32" y="153.2402">uses for wrap/unwrap</text></g><!--link OptionalFunctorImpl to OptionalKindHelper--><g id="link_OptionalFunctorImpl_OptionalKindHelper"><path codeLine="48" d="M419.67,173.47 C380.53,194.47 327.6976,222.8042 288.5976,243.7742 " fill="none" id="OptionalFunctorImpl-to-OptionalKindHelper" style="stroke:#F5BDE6;stroke-width:1.0;stroke-dasharray:7.0,7.0;"/><polygon fill="#F5BDE6" points="283.31,246.61,293.1319,245.8813,287.7163,244.2468,289.3508,238.8313,283.31,246.61" style="stroke:#F5BDE6;stroke-width:1.0;"/><text fill="#CAD3F5" font-family="Helvetica" font-size="12" lengthAdjust="spacing" textLength="114.7207" x="359.17" y="213.2402">uses for wrap/unwrap</text></g><!--SRC=[bLLDRzim3BthLt2zn4RzSIy23ydG84CHzBAFQnLPYGN8aY3B2uAk_tsIxAHoR0VOAHBv-FX8qSmN9WXlImgLCQfvodEDJzcHcQhTjmtLH0f3XSc8h7D1P6DmoaXEi56g9OI9jCQ4L0mRcIgEXMbhdfgArZIlCHEvFsRAMX5YbaaVCA7myC94kTmai2eU03VWhg5xqmfYf5vkEdT_3H4hfJYpAjWVUa45fX2vamANors7yPSrRiQ8Pwrjmbq2pm7I6pqynBygmwoN-oBw2aAR2u3b4gBNXBDZPVQyfJ4K1RoZ1VncHj2c0NDM50vINoFH1qA4O-iQ9DXIhgWUvUZCFiisEMfwlYRuQHXdvZpWzlrTm2FOvpECW5LzzRbpAquQgyWNDAZkQ-7UA9wBxJi0FZeWZ6qnGXeAsjKFyZ2X7NspasL7f07VMkk3nGMrbRoasZ5hIgGk5-XKCL81gnMtyoHCSoiXGsyT54OSeJ2G_Jc-mmNl7s-8YX9S2QD7wOTny2AzxRkbz6_mQBkKh6_wPE-rRPF7Mgj7933Pyww3DudzH0xIUakV5A1BEtuSUOXMyTK_9Ul0iTaDfKthMXVt58SfPi9XRie6NRcNP05fcWPVfxkYI-apKQ0nQwY7HxyaA-EWMtCX5HObxsBi9rj5CxW4hieTywnm_w1ek5IizBz5i9AkfyuHxhFWt3alAx7_xOmk7Jn1nENHWZa_TtA0sNLJKTWxQhSMjYy_cXYXqSuAIQRsm6T8EF1Pzgbd8h10ut7rYIQu9g2U_QPlK-fSzmE18K4njJcVmFwxDRuTRdlbtGgSAV1_6Fu1]--></g></svg>