<svg xmlns="http://www.w3.org/2000/svg" xmlns:xlink="http://www.w3.org/1999/xlink" contentStyleType="text/css" height="820px" preserveAspectRatio="none" style="width:734px;height:820px;background:#24273A;" version="1.1" viewBox="0 0 734 820" width="734px" zoomAndPan="magnify"><title>ReaderT Class Diagram</title><defs/><g><rect fill="#24273A" height="820" style="stroke:none;stroke-width:1.0;" width="734" x="0" y="0"/><text fill="#CAD3F5" font-family="Helvetica" font-size="22" font-weight="bold" lengthAdjust="spacing" textLength="246.9951" x="239.4625" y="31.9404">ReaderT Class Diagram</text><!--class Kind--><g id="elem_Kind"><rect codeLine="8" fill="#24273A" height="28" id="Kind" rx="1.5" ry="1.5" style="stroke:#C6A0F6;stroke-width:2.0;" width="150.7422" x="173.72" y="58"/><rect fill="#363A4F" height="28" rx="1.5" ry="1.5" style="stroke:#363A4F;stroke-width:2.0;" width="150.7422" x="173.72" y="58"/><rect fill="#363A4F" height="1.5" style="stroke:#363A4F;stroke-width:2.0;" width="150.7422" x="173.72" y="84.5"/><rect codeLine="8" fill="none" height="28" id="Kind" rx="1.5" ry="1.5" style="stroke:#C6A0F6;stroke-width:2.0;" width="150.7422" x="173.72" y="58"/><ellipse cx="186.72" cy="72" fill="#FFFFFF" rx="9" ry="9" style="stroke:#000000;stroke-width:1.0;"/><path d="M183.7278,69.2754 L183.7278,67.752 L188.9368,67.752 L188.9368,69.2754 L187.1966,69.2754 L187.1966,74.9766 L188.9368,74.9766 L188.9368,76.5 L183.7278,76.5 L183.7278,74.9766 L185.468,74.9766 L185.468,69.2754 Z " fill="#CAD3F5"/><text fill="#A6DA95" font-family="Helvetica" font-size="16" font-style="italic" lengthAdjust="spacing" textLength="32.0234" x="198.72" y="76.3203">Kind</text><rect fill="#24273A" height="16.584" style="stroke:#C6A0F6;stroke-width:1.0;stroke-dasharray:2.0,2.0;" width="88.7188" x="238.7434" y="55"/><text fill="#000000" font-family="Verdana" font-size="12" font-style="italic" lengthAdjust="spacing" textLength="86.7188" x="239.7434" y="68.0645">F_HKT, A_VAL</text></g><!--class Monad--><g id="elem_Monad"><rect codeLine="9" fill="#24273A" height="28" id="Monad" rx="1.5" ry="1.5" style="stroke:#C6A0F6;stroke-width:2.0;" width="120.1738" x="490" y="453.58"/><rect fill="#363A4F" height="28" rx="1.5" ry="1.5" style="stroke:#363A4F;stroke-width:2.0;" width="120.1738" x="490" y="453.58"/><rect fill="#363A4F" height="1.5" style="stroke:#363A4F;stroke-width:2.0;" width="120.1738" x="490" y="480.08"/><rect codeLine="9" fill="none" height="28" id="Monad" rx="1.5" ry="1.5" style="stroke:#C6A0F6;stroke-width:2.0;" width="120.1738" x="490" y="453.58"/><ellipse cx="503" cy="467.58" fill="#FFFFFF" rx="9" ry="9" style="stroke:#000000;stroke-width:1.0;"/><path d="M500.0078,464.8554 L500.0078,463.332 L505.2168,463.332 L505.2168,464.8554 L503.4766,464.8554 L503.4766,470.5566 L505.2168,470.5566 L505.2168,472.08 L500.0078,472.08 L500.0078,470.5566 L501.748,470.5566 L501.748,464.8554 Z " fill="#CAD3F5"/><text fill="#A6DA95" font-family="Helvetica" font-size="16" font-style="italic" lengthAdjust="spacing" textLength="48.9219" x="515" y="471.9003">Monad</text><rect fill="#24273A" height="16.584" style="stroke:#C6A0F6;stroke-width:1.0;stroke-dasharray:2.0,2.0;" width="41.252" x="571.9219" y="450.58"/><text fill="#000000" font-family="Verdana" font-size="12" font-style="italic" lengthAdjust="spacing" textLength="39.252" x="572.9219" y="463.6445">F_HKT</text></g><!--class ReaderT--><g id="elem_ReaderT"><rect codeLine="13" fill="#24273A" height="124.584" id="ReaderT" rx="1.5" ry="1.5" style="stroke:#C6A0F6;stroke-width:2.0;" width="402.1641" x="146.01" y="268"/><rect fill="#363A4F" height="40.584" rx="1.5" ry="1.5" style="stroke:#363A4F;stroke-width:2.0;" width="402.1641" x="146.01" y="268"/><rect fill="#363A4F" height="1.5" style="stroke:#363A4F;stroke-width:2.0;" width="402.1641" x="146.01" y="307.084"/><rect codeLine="13" fill="none" height="124.584" id="ReaderT" rx="1.5" ry="1.5" style="stroke:#C6A0F6;stroke-width:2.0;" width="402.1641" x="146.01" y="268"/><ellipse cx="289.9172" cy="288.292" fill="#FFFFFF" rx="9" ry="9" style="stroke:#000000;stroke-width:1.0;"/><path d="M291.7512,292.54 Q291.3411,292.751 290.8899,292.8564 Q290.4387,292.9619 289.9407,292.9619 Q288.1711,292.9619 287.2395,291.7959 Q286.3079,290.6299 286.3079,288.4268 Q286.3079,286.2178 287.2395,285.0518 Q288.1711,283.8857 289.9407,283.8857 Q290.4387,283.8857 290.8957,283.9912 Q291.3528,284.0967 291.7512,284.3076 L291.7512,286.2295 Q291.3059,285.8193 290.887,285.6289 Q290.468,285.4385 290.0227,285.4385 Q289.0735,285.4385 288.5901,286.1914 Q288.1067,286.9443 288.1067,288.4268 Q288.1067,289.9033 288.5901,290.6563 Q289.0735,291.4092 290.0227,291.4092 Q290.468,291.4092 290.887,291.2188 Q291.3059,291.0283 291.7512,290.6182 Z " fill="#CAD3F5"/><text fill="#000000" font-family="Verdana" font-size="12" font-style="italic" lengthAdjust="spacing" textLength="53.8711" x="311.6067" y="285.0645">&#171;record&#187;</text><text fill="#A6DA95" font-family="Helvetica" font-size="16" lengthAdjust="spacing" textLength="62.25" x="307.4172" y="299.9043">ReaderT</text><rect fill="#24273A" height="16.584" style="stroke:#C6A0F6;stroke-width:1.0;stroke-dasharray:2.0,2.0;" width="42.5996" x="508.5745" y="265"/><text fill="#000000" font-family="Verdana" font-size="12" font-style="italic" lengthAdjust="spacing" textLength="40.5996" x="509.5745" y="278.0645">F, R, A</text><line style="stroke:#C6A0F6;stroke-width:2.0;" x1="147.01" x2="547.1741" y1="308.584" y2="308.584"/><ellipse cx="157.01" cy="320.084" fill="none" rx="3" ry="3" style="stroke:#000000;stroke-width:1.0;"/><text fill="#A6DA95" font-family="Helvetica" font-size="12" lengthAdjust="spacing" textLength="214.2891" x="164.01" y="321.8242">@NonNull Function&lt;R, Kind&lt;F, A&gt;&gt; run</text><ellipse cx="157.01" cy="348.084" fill="#FFFFFF" rx="3" ry="3" style="stroke:#000000;stroke-width:1.0;"/><text fill="#A6DA95" font-family="Helvetica" font-size="12" lengthAdjust="spacing" textLength="340.8105" x="164.01" y="349.8242">static &lt;F, R, A&gt; ReaderT&lt;F, R, A&gt; of(Function&lt;R, Kind&lt;F, A&gt;&gt;)</text><ellipse cx="157.01" cy="360.084" fill="#FFFFFF" rx="3" ry="3" style="stroke:#000000;stroke-width:1.0;"/><text fill="#A6DA95" font-family="Helvetica" font-size="12" lengthAdjust="spacing" textLength="332.1328" x="164.01" y="361.8242">static &lt;F, R, A&gt; ReaderT&lt;F, R, A&gt; lift(Monad&lt;F&gt;, Kind&lt;F, A&gt;)</text><ellipse cx="157.01" cy="372.084" fill="#FFFFFF" rx="3" ry="3" style="stroke:#000000;stroke-width:1.0;"/><text fill="#A6DA95" font-family="Helvetica" font-size="12" lengthAdjust="spacing" textLength="378.1641" x="164.01" y="373.8242">static &lt;F, R, A&gt; ReaderT&lt;F, R, A&gt; reader(Monad&lt;F&gt;, Function&lt;R, A&gt;)</text><ellipse cx="157.01" cy="384.084" fill="#FFFFFF" rx="3" ry="3" style="stroke:#000000;stroke-width:1.0;"/><text fill="#A6DA95" font-family="Helvetica" font-size="12" lengthAdjust="spacing" textLength="258.0938" x="164.01" y="385.8242">static &lt;F, R&gt; ReaderT&lt;F, R, R&gt; ask(Monad&lt;F&gt;)</text><line style="stroke:#C6A0F6;stroke-width:1.0;" x1="147.01" x2="322.4182" y1="334.584" y2="334.584"/><text fill="#A6DA95" font-family="Helvetica" font-size="12" lengthAdjust="spacing" textLength="49.3477" x="322.4182" y="337.3242">Factories</text><line style="stroke:#C6A0F6;stroke-width:1.0;" x1="371.7659" x2="547.1741" y1="334.584" y2="334.584"/></g><!--class ReaderTKind--><g id="elem_ReaderTKind"><rect codeLine="22" fill="#24273A" height="60" id="ReaderTKind" rx="1.5" ry="1.5" style="stroke:#C6A0F6;stroke-width:2.0;" width="192.0703" x="153.06" y="147"/><rect fill="#363A4F" height="28" rx="1.5" ry="1.5" style="stroke:#363A4F;stroke-width:2.0;" width="192.0703" x="153.06" y="147"/><rect fill="#363A4F" height="1.5" style="stroke:#363A4F;stroke-width:2.0;" width="192.0703" x="153.06" y="173.5"/><rect codeLine="22" fill="none" height="60" id="ReaderTKind" rx="1.5" ry="1.5" style="stroke:#C6A0F6;stroke-width:2.0;" width="192.0703" x="153.06" y="147"/><ellipse cx="177.3988" cy="161" fill="#FFFFFF" rx="9" ry="9" style="stroke:#000000;stroke-width:1.0;"/><path d="M174.4066,158.2754 L174.4066,156.752 L179.6156,156.752 L179.6156,158.2754 L177.8753,158.2754 L177.8753,163.9766 L179.6156,163.9766 L179.6156,165.5 L174.4066,165.5 L174.4066,163.9766 L176.1468,163.9766 L176.1468,158.2754 Z " fill="#CAD3F5"/><text fill="#A6DA95" font-family="Helvetica" font-size="16" font-style="italic" lengthAdjust="spacing" textLength="94.2734" x="191.9185" y="165.3203">ReaderTKind</text><rect fill="#24273A" height="16.584" style="stroke:#C6A0F6;stroke-width:1.0;stroke-dasharray:2.0,2.0;" width="42.5996" x="305.5307" y="144"/><text fill="#000000" font-family="Verdana" font-size="12" font-style="italic" lengthAdjust="spacing" textLength="40.5996" x="306.5307" y="157.0645">F, R, A</text><line style="stroke:#C6A0F6;stroke-width:2.0;" x1="154.06" x2="344.1303" y1="175" y2="175"/><text fill="#A6DA95" font-family="Helvetica" font-size="12" lengthAdjust="spacing" textLength="180.0703" x="159.06" y="188.2402">// Witness: ReaderTKind&lt;F, R, ?&gt;</text><text fill="#A6DA95" font-family="Helvetica" font-size="12" lengthAdjust="spacing" textLength="55.3652" x="159.06" y="200.2402">// Value: A</text></g><!--class ReaderTMonad--><g id="elem_ReaderTMonad"><rect codeLine="27" fill="#24273A" height="68" id="ReaderTMonad" rx="1.5" ry="1.5" style="stroke:#C6A0F6;stroke-width:2.0;" width="347.6602" x="376.26" y="555.58"/><rect fill="#363A4F" height="28" rx="1.5" ry="1.5" style="stroke:#363A4F;stroke-width:2.0;" width="347.6602" x="376.26" y="555.58"/><rect fill="#363A4F" height="1.5" style="stroke:#363A4F;stroke-width:2.0;" width="347.6602" x="376.26" y="582.08"/><rect codeLine="27" fill="none" height="68" id="ReaderTMonad" rx="1.5" ry="1.5" style="stroke:#C6A0F6;stroke-width:2.0;" width="347.6602" x="376.26" y="555.58"/><ellipse cx="436.0579" cy="569.58" fill="#FFFFFF" rx="9" ry="9" style="stroke:#000000;stroke-width:1.0;"/><path d="M437.8918,573.828 Q437.4817,574.039 437.0305,574.1445 Q436.5793,574.2499 436.0813,574.2499 Q434.3118,574.2499 433.3801,573.0839 Q432.4485,571.9179 432.4485,569.7148 Q432.4485,567.5058 433.3801,566.3398 Q434.3118,565.1738 436.0813,565.1738 Q436.5793,565.1738 437.0364,565.2792 Q437.4934,565.3847 437.8918,565.5956 L437.8918,567.5175 Q437.4465,567.1073 437.0276,566.9169 Q436.6086,566.7265 436.1633,566.7265 Q435.2141,566.7265 434.7307,567.4794 Q434.2473,568.2323 434.2473,569.7148 Q434.2473,571.1913 434.7307,571.9443 Q435.2141,572.6972 436.1633,572.6972 Q436.6086,572.6972 437.0276,572.5068 Q437.4465,572.3163 437.8918,571.9062 Z " fill="#CAD3F5"/><text fill="#A6DA95" font-family="Helvetica" font-size="16" lengthAdjust="spacing" textLength="111.1719" x="453.5579" y="573.9003">ReaderTMonad</text><rect fill="#24273A" height="16.584" style="stroke:#C6A0F6;stroke-width:1.0;stroke-dasharray:2.0,2.0;" width="107.3926" x="619.5276" y="552.58"/><text fill="#000000" font-family="Verdana" font-size="12" font-style="italic" lengthAdjust="spacing" textLength="105.3926" x="620.5276" y="565.6445">F_OUTER, R_ENV</text><line style="stroke:#C6A0F6;stroke-width:2.0;" x1="377.26" x2="722.9202" y1="583.58" y2="583.58"/><rect fill="none" height="6" style="stroke:#000000;stroke-width:1.0;" width="6" x="384.26" y="592.08"/><text fill="#A6DA95" font-family="Helvetica" font-size="12" lengthAdjust="spacing" textLength="257.6367" x="394.26" y="596.8202">final @NonNull Monad&lt;F_OUTER&gt; outerMonad</text><line style="stroke:#C6A0F6;stroke-width:2.0;" x1="377.26" x2="722.9202" y1="603.58" y2="603.58"/><ellipse cx="387.26" cy="615.08" fill="#FFFFFF" rx="3" ry="3" style="stroke:#000000;stroke-width:1.0;"/><text fill="#A6DA95" font-family="Helvetica" font-size="12" lengthAdjust="spacing" textLength="323.6602" x="394.26" y="616.8202">ReaderTMonad(@NonNull Monad&lt;F_OUTER&gt; outerMonad)</text></g><!--class ReaderTKindHelper--><g id="elem_ReaderTKindHelper"><rect codeLine="33" fill="#24273A" height="116" id="ReaderTKindHelper" rx="1.5" ry="1.5" style="stroke:#C6A0F6;stroke-width:2.0;" width="432.1816" x="12" y="697.58"/><rect fill="#363A4F" height="28" rx="1.5" ry="1.5" style="stroke:#363A4F;stroke-width:2.0;" width="432.1816" x="12" y="697.58"/><rect fill="#363A4F" height="1.5" style="stroke:#363A4F;stroke-width:2.0;" width="432.1816" x="12" y="724.08"/><rect codeLine="33" fill="none" height="116" id="ReaderTKindHelper" rx="1.5" ry="1.5" style="stroke:#C6A0F6;stroke-width:2.0;" width="432.1816" x="12" y="697.58"/><ellipse cx="153.6377" cy="711.58" fill="#FFFFFF" rx="9" ry="9" style="stroke:#000000;stroke-width:1.0;"/><path d="M155.4717,715.828 Q155.0615,716.039 154.6104,716.1445 Q154.1592,716.2499 153.6611,716.2499 Q151.8916,716.2499 150.96,715.0839 Q150.0283,713.9179 150.0283,711.7148 Q150.0283,709.5058 150.96,708.3398 Q151.8916,707.1738 153.6611,707.1738 Q154.1592,707.1738 154.6162,707.2792 Q155.0732,707.3847 155.4717,707.5956 L155.4717,709.5175 Q155.0264,709.1073 154.6074,708.9169 Q154.1885,708.7265 153.7432,708.7265 Q152.7939,708.7265 152.3105,709.4794 Q151.8271,710.2323 151.8271,711.7148 Q151.8271,713.1913 152.3105,713.9443 Q152.7939,714.6972 153.7432,714.6972 Q154.1885,714.6972 154.6074,714.5068 Q155.0264,714.3163 155.4717,713.9062 Z " fill="#CAD3F5"/><text fill="#A6DA95" font-family="Helvetica" font-size="16" lengthAdjust="spacing" textLength="141.4063" x="171.1377" y="715.9003">ReaderTKindHelper</text><line style="stroke:#C6A0F6;stroke-width:2.0;" x1="13" x2="443.1816" y1="725.58" y2="725.58"/><text fill="#A6DA95" font-family="Helvetica" font-size="12" lengthAdjust="spacing" textLength="205.4414" x="18" y="738.8202">note right of ReaderTKindHelper::wrap</text><text fill="#A6DA95" font-family="Helvetica" font-size="12" lengthAdjust="spacing" textLength="155.4023" x="18" y="750.8202">Uses internal ReaderTHolder</text><text fill="#A6DA95" font-family="Helvetica" font-size="12" lengthAdjust="spacing" textLength="46.7109" x="18" y="762.8202">end note</text><line style="stroke:#C6A0F6;stroke-width:2.0;" x1="13" x2="443.1816" y1="769.58" y2="769.58"/><ellipse cx="23" cy="781.08" fill="#FFFFFF" rx="3" ry="3" style="stroke:#000000;stroke-width:1.0;"/><text fill="#A6DA95" font-family="Helvetica" font-size="12" lengthAdjust="spacing" textLength="408.1816" x="30" y="782.8202">static &lt;F, R, A&gt; ReaderT&lt;F, R, A&gt; unwrap(Kind&lt;ReaderTKind&lt;F, R, ?&gt;, A&gt;)</text><ellipse cx="23" cy="793.08" fill="#FFFFFF" rx="3" ry="3" style="stroke:#000000;stroke-width:1.0;"/><text fill="#A6DA95" font-family="Helvetica" font-size="12" lengthAdjust="spacing" textLength="343.459" x="30" y="794.8202">static &lt;F, R, A&gt; ReaderTKind&lt;F, R, A&gt; wrap(ReaderT&lt;F, R, A&gt;)</text><text fill="#A6DA95" font-family="Helvetica" font-size="12" lengthAdjust="spacing" textLength="118.7109" x="30" y="806.8202">(not shown for brevity)</text></g><!--reverse link ReaderTKind to ReaderT--><g id="link_ReaderTKind_ReaderT"><path d="M265.7121,223.1202 C274.6921,240.2902 280.08,246.73 294.24,267.64 " fill="none" id="ReaderTKind-backto-ReaderT" style="stroke:#F5BDE6;stroke-width:1.0;stroke-dasharray:7.0,7.0;"/><polygon fill="none" points="257.37,207.17,260.3953,225.9009,271.0288,220.3396,257.37,207.17" style="stroke:#F5BDE6;stroke-width:1.0;"/></g><!--link ReaderT to ReaderTKind--><g id="link_ReaderT_ReaderTKind"><path codeLine="52" d="M320.08,267.64 C307.15,246.73 302.8772,238.5822 289.6072,221.4122 " fill="none" id="ReaderT-to-ReaderTKind" style="stroke:#F5BDE6;stroke-width:1.0;"/><polygon fill="none" points="278.6,207.17,284.8598,225.0813,294.3546,217.7431,278.6,207.17" style="stroke:#F5BDE6;stroke-width:1.0;"/></g><!--reverse link Kind to ReaderTKind--><g id="link_Kind_ReaderTKind"><path d="M235.2755,103.8585 C231.2255,119.1285 234.93,127.08 237.14,146.91 " fill="none" id="Kind-backto-ReaderTKind" style="stroke:#F5BDE6;stroke-width:1.0;"/><polygon fill="none" points="239.89,86.46,229.476,102.3203,241.075,105.3966,239.89,86.46" style="stroke:#F5BDE6;stroke-width:1.0;"/></g><!--link ReaderTKind to Kind--><g id="link_ReaderTKind_Kind"><path codeLine="56" d="M261.04,146.91 C263.26,127.08 266.9545,119.1285 262.9045,103.8585 " fill="none" id="ReaderTKind-to-Kind" style="stroke:#F5BDE6;stroke-width:1.0;"/><polygon fill="none" points="258.29,86.46,257.105,105.3966,268.704,102.3203,258.29,86.46" style="stroke:#F5BDE6;stroke-width:1.0;"/></g><!--reverse link Monad to ReaderTMonad--><g id="link_Monad_ReaderTMonad"><path d="M524.5468,497.8505 C515.4068,515.4305 521.52,531.02 526.3,555.27 " fill="none" id="Monad-backto-ReaderTMonad" style="stroke:#F5BDE6;stroke-width:1.0;stroke-dasharray:7.0,7.0;"/><polygon fill="none" points="532.85,481.88,519.2233,495.0828,529.8703,500.6182,532.85,481.88" style="stroke:#F5BDE6;stroke-width:1.0;"/></g><!--link ReaderTMonad to Monad--><g id="link_ReaderTMonad_Monad"><path codeLine="44" d="M550.09,555.27 C550.09,531.02 550.09,517.46 550.09,499.88 " fill="none" id="ReaderTMonad-to-Monad" style="stroke:#F5BDE6;stroke-width:1.0;"/><polygon fill="none" points="550.09,481.88,544.09,499.88,556.09,499.88,550.09,481.88" style="stroke:#F5BDE6;stroke-width:1.0;"/></g><!--reverse link ReaderTMonad to Monad--><g id="link_ReaderTMonad_Monad"><path codeLine="45" d="M576.2007,543.4965 C580.9807,519.2465 576.48,499.46 567.33,481.88 " fill="none" id="ReaderTMonad-backto-Monad" style="stroke:#F5BDE6;stroke-width:1.0;"/><polygon fill="#F5BDE6" points="573.88,555.27,578.9648,550.1568,576.2007,543.4965,571.1159,548.6097,573.88,555.27" style="stroke:#F5BDE6;stroke-width:1.0;"/><text fill="#CAD3F5" font-family="Helvetica" font-size="12" lengthAdjust="spacing" textLength="182.0801" x="357.2254" y="498.8596">outerMonad (Monad&lt;F_OUTER&gt;)</text></g><!--link ReaderTMonad to ReaderTKindHelper--><g id="link_ReaderTMonad_ReaderTKindHelper"><path codeLine="46" d="M484.54,623.97 C443.26,644.99 394.2164,669.9667 346.1564,694.4467 " fill="none" id="ReaderTMonad-to-ReaderTKindHelper" style="stroke:#F5BDE6;stroke-width:1.0;stroke-dasharray:7.0,7.0;"/><polygon fill="#F5BDE6" points="340.81,697.17,350.6451,696.6494,345.2653,694.9006,347.0141,689.5209,340.81,697.17" style="stroke:#F5BDE6;stroke-width:1.0;"/><text fill="#CAD3F5" font-family="Helvetica" font-size="12" lengthAdjust="spacing" textLength="25.3477" x="418.93" y="663.8202">uses</text></g><!--link ReaderTMonad to ReaderT--><g id="link_ReaderTMonad_ReaderT"><path codeLine="47" d="M448.97,555.12 C414.43,538.51 379.23,514.72 358.09,481.58 C341.56,455.66 337.712,427.8674 338.572,398.8974 " fill="none" id="ReaderTMonad-to-ReaderT" style="stroke:#F5BDE6;stroke-width:1.0;stroke-dasharray:7.0,7.0;"/><polygon fill="#F5BDE6" points="338.75,392.9,334.4847,401.7773,338.6016,397.8978,342.4812,402.0147,338.75,392.9" style="stroke:#F5BDE6;stroke-width:1.0;"/><text fill="#CAD3F5" font-family="Helvetica" font-size="12" lengthAdjust="spacing" textLength="112.7344" x="359.09" y="470.8202">creates / operates on</text></g><!--link ReaderTKindHelper to ReaderT--><g id="link_ReaderTKindHelper_ReaderT"><path codeLine="49" d="M240.22,697.24 C251.05,647.75 267.97,574.52 286.09,511.58 C297.56,471.73 310.4568,433.2792 322.6468,398.6692 " fill="none" id="ReaderTKindHelper-to-ReaderT" style="stroke:#F5BDE6;stroke-width:1.0;stroke-dasharray:7.0,7.0;"/><polygon fill="#F5BDE6" points="324.64,393.01,317.8773,400.17,322.979,397.726,325.423,402.8277,324.64,393.01" style="stroke:#F5BDE6;stroke-width:1.0;"/><text fill="#CAD3F5" font-family="Helvetica" font-size="12" lengthAdjust="spacing" textLength="88.0313" x="287.09" y="521.8202">unwrap() returns</text></g><!--link ReaderTKindHelper to ReaderTKind--><g id="link_ReaderTKindHelper_ReaderTKind"><path codeLine="50" d="M148.78,697.24 C119.39,669.09 93.09,632.25 93.09,590.58 C93.09,329.29 93.09,329.29 93.09,329.29 C93.09,274.21 138.6484,235.7651 182.2584,210.3051 " fill="none" id="ReaderTKindHelper-to-ReaderTKind" style="stroke:#F5BDE6;stroke-width:1.0;stroke-dasharray:7.0,7.0;"/><polygon fill="#F5BDE6" points="187.44,207.28,177.6509,208.3632,183.122,209.8009,181.6843,215.272,187.44,207.28" style="stroke:#F5BDE6;stroke-width:1.0;"/><text fill="#CAD3F5" font-family="Helvetica" font-size="12" lengthAdjust="spacing" textLength="74.6836" x="94.09" y="470.8202">wrap() returns</text></g><!--link ReaderT to Kind--><g id="link_ReaderT_Kind"><path codeLine="53" d="M369.02,267.5 C378.3,230.45 382.95,183.57 363.09,147 C347.1,117.55 319.2691,100.4 292.7591,88.83 " fill="none" id="ReaderT-to-Kind" style="stroke:#F5BDE6;stroke-width:1.0;stroke-dasharray:7.0,7.0;"/><polygon fill="#F5BDE6" points="287.26,86.43,293.9086,93.6961,291.8426,88.43,297.1086,86.364,287.26,86.43" style="stroke:#F5BDE6;stroke-width:1.0;"/><text fill="#CAD3F5" font-family="Helvetica" font-size="12" lengthAdjust="spacing" textLength="126.0527" x="152.1133" y="103.2038">run() returns Kind&lt;F,A&gt;</text></g><!--link ReaderT to Monad--><g id="link_ReaderT_Monad"><path codeLine="54" d="M439.68,393 C473.56,415.58 503.7884,435.7107 525.0784,449.9107 " fill="none" id="ReaderT-to-Monad" style="stroke:#F5BDE6;stroke-width:1.0;stroke-dasharray:7.0,7.0;"/><polygon fill="#F5BDE6" points="530.07,453.24,524.8022,444.9184,525.9103,450.4656,520.3631,451.5738,530.07,453.24" style="stroke:#F5BDE6;stroke-width:1.0;"/><text fill="#CAD3F5" font-family="Helvetica" font-size="12" lengthAdjust="spacing" textLength="147.4102" x="347.4949" y="442.7256">factories require Monad&lt;F&gt;</text></g><!--SRC=[ZPJVJzim4CVVyrSSVLcwDSrxLMMhDYea1aW8oYDoNOTOS-pCFeyXjlzz5oTf4yWeVQbZV-zpv_lX4on4AQ1IJEheH6gk_4v0WLYvHPfQzZX_a5ZuhNV2SgDHQ9npKwQQ6uSiaJpb3AlASovrKZBE2ydG9CJJw4kL17nQ4ZqDotb5kr5KIF8YoWgVe1JbLbWNHIXH2RWMR2Vi3NnLp3du9jc3PMKKIN9jSyO5d4kzMwxlpyvlPh2wtwo-Pxt32wDPUvf5z0FWWTDIb-iPN9DP1ikb5TpONPQ1B2j5aMdSoneNdVIPA02VuCkbqPTUALXxpL4QlQJpJheYaFKwI9C4reoZiL8u-cZDALqeEHouhs8oUVmVzFJT32LpZDiiP7t6-n4sRFGW_Q36GIyfjC7SZpsYDlbR5-DGgD5CYz_KNplNHFrQyJdhrIDDuKwY5iujO4pQYJPCUR60LHV2e1-wThcwlJcjmxu_lTmC6g8H3FW3SUsfYoY1N6gc3dqoe5DvFLq-xBKPx0SH7xTg4ly1hcYGR2EZuS72KCPYay-WPDKCSiNmebwmQZfwv_eMPq9Ln7XkYUrd2tjtetZzQ5aLlrcjOsqtR830U-bd6WM6DYZ0oeS2QL1UNsQng8s34k3MqUI5PgiBqchFZAA_LX4J3bnX7ZNaniBMYbyIdvfegGU3jovz_JhHFF_9eAlYuEGZpVtaK2w8XvMSJiRDvlDif3GBe1VNlQ4b1QT9HRfe2ePCmjBeNi0ztD2mBToKHXszrUwOIRrBPY-C3bPDKdhYtb6DcT3BU33i7gLLDe4nSRv_EwtuwQNTl-fPby5Xl8ttG8h-0G00]--></g></svg>