<svg xmlns="http://www.w3.org/2000/svg" xmlns:xlink="http://www.w3.org/1999/xlink" contentStyleType="text/css" height="1032px" preserveAspectRatio="none" style="width:1855px;height:1032px;background:#24273A;" version="1.1" viewBox="0 0 1855 1032" width="1855.2px" zoomAndPan="magnify"><defs/><g><rect fill="#24273A" height="1032" style="stroke:none;stroke-width:1.2;" width="1855.2" x="0" y="0"/><!--class Kind--><g id="elem_Kind"><rect codeLine="7" fill="#24273A" height="36" id="Kind" rx="1.8" ry="1.8" style="stroke:#C6A0F6;stroke-width:2.4;" width="105.6305" x="393.516" y="970.8"/><rect fill="#363A4F" height="36" rx="1.8" ry="1.8" style="stroke:#363A4F;stroke-width:2.4;" width="105.6305" x="393.516" y="970.8"/><rect fill="#363A4F" height="1.8" style="stroke:#363A4F;stroke-width:2.4;" width="105.6305" x="393.516" y="1005"/><rect codeLine="7" fill="none" height="36" id="Kind" rx="1.8" ry="1.8" style="stroke:#C6A0F6;stroke-width:2.4;" width="105.6305" x="393.516" y="970.8"/><ellipse cx="410.316" cy="988.8" fill="#B4A7E5" rx="12" ry="12" style="stroke:#181818;stroke-width:1.2;"/><path d="M406.7254,985.5305 L406.7254,983.7023 L412.9762,983.7023 L412.9762,985.5305 L410.8879,985.5305 L410.8879,992.3719 L412.9762,992.3719 L412.9762,994.2 L406.7254,994.2 L406.7254,992.3719 L408.8137,992.3719 L408.8137,985.5305 Z " fill="#CAD3F5"/><text fill="#A6DA95" font-family="Helvetica" font-size="19.2" font-style="italic" lengthAdjust="spacing" textLength="38.4281" x="425.916" y="993.9844">Kind</text><rect fill="#24273A" height="16.8" style="stroke:#C6A0F6;stroke-width:1.2;stroke-dasharray:2.0,2.0;" width="28.8023" x="473.9441" y="967.2"/><text fill="#CAD3F5" font-family="Helvetica" font-size="14.4" font-style="italic" lengthAdjust="spacing" textLength="26.4023" x="475.1441" y="979.4883">F, A</text></g><!--class Functor--><g id="elem_Functor"><rect codeLine="8" fill="#24273A" height="36" id="Functor" rx="1.8" ry="1.8" style="stroke:#C6A0F6;stroke-width:2.4;" width="114.6867" x="1502.592" y="12"/><rect fill="#363A4F" height="36" rx="1.8" ry="1.8" style="stroke:#363A4F;stroke-width:2.4;" width="114.6867" x="1502.592" y="12"/><rect fill="#363A4F" height="1.8" style="stroke:#363A4F;stroke-width:2.4;" width="114.6867" x="1502.592" y="46.2"/><rect codeLine="8" fill="none" height="36" id="Functor" rx="1.8" ry="1.8" style="stroke:#C6A0F6;stroke-width:2.4;" width="114.6867" x="1502.592" y="12"/><ellipse cx="1519.392" cy="30" fill="#B4A7E5" rx="12" ry="12" style="stroke:#181818;stroke-width:1.2;"/><path d="M1515.8014,26.7305 L1515.8014,24.9023 L1522.0522,24.9023 L1522.0522,26.7305 L1519.9639,26.7305 L1519.9639,33.5719 L1522.0522,33.5719 L1522.0522,35.4 L1515.8014,35.4 L1515.8014,33.5719 L1517.8897,33.5719 L1517.8897,26.7305 Z " fill="#CAD3F5"/><text fill="#A6DA95" font-family="Helvetica" font-size="19.2" font-style="italic" lengthAdjust="spacing" textLength="65.0906" x="1534.992" y="35.1844">Functor</text><rect fill="#24273A" height="16.8" style="stroke:#C6A0F6;stroke-width:1.2;stroke-dasharray:2.0,2.0;" width="11.1961" x="1609.6826" y="8.4"/><text fill="#CAD3F5" font-family="Helvetica" font-size="14.4" font-style="italic" lengthAdjust="spacing" textLength="8.7961" x="1610.8826" y="20.6883">F</text></g><!--class Applicative--><g id="elem_Applicative"><rect codeLine="9" fill="#24273A" height="36" id="Applicative" rx="1.8" ry="1.8" style="stroke:#C6A0F6;stroke-width:2.4;" width="142.4461" x="1092.708" y="133.2"/><rect fill="#363A4F" height="36" rx="1.8" ry="1.8" style="stroke:#363A4F;stroke-width:2.4;" width="142.4461" x="1092.708" y="133.2"/><rect fill="#363A4F" height="1.8" style="stroke:#363A4F;stroke-width:2.4;" width="142.4461" x="1092.708" y="167.4"/><rect codeLine="9" fill="none" height="36" id="Applicative" rx="1.8" ry="1.8" style="stroke:#C6A0F6;stroke-width:2.4;" width="142.4461" x="1092.708" y="133.2"/><ellipse cx="1109.508" cy="151.2" fill="#B4A7E5" rx="12" ry="12" style="stroke:#181818;stroke-width:1.2;"/><path d="M1105.9174,147.9305 L1105.9174,146.1023 L1112.1682,146.1023 L1112.1682,147.9305 L1110.0799,147.9305 L1110.0799,154.7719 L1112.1682,154.7719 L1112.1682,156.6 L1105.9174,156.6 L1105.9174,154.7719 L1108.0057,154.7719 L1108.0057,147.9305 Z " fill="#CAD3F5"/><text fill="#A6DA95" font-family="Helvetica" font-size="19.2" font-style="italic" lengthAdjust="spacing" textLength="92.85" x="1125.108" y="156.3844">Applicative</text><rect fill="#24273A" height="16.8" style="stroke:#C6A0F6;stroke-width:1.2;stroke-dasharray:2.0,2.0;" width="11.1961" x="1227.558" y="129.6"/><text fill="#CAD3F5" font-family="Helvetica" font-size="14.4" font-style="italic" lengthAdjust="spacing" textLength="8.7961" x="1228.758" y="141.8883">F</text></g><!--class Monad--><g id="elem_Monad"><rect codeLine="10" fill="#24273A" height="36" id="Monad" rx="1.8" ry="1.8" style="stroke:#C6A0F6;stroke-width:2.4;" width="108.3023" x="761.784" y="273.6"/><rect fill="#363A4F" height="36" rx="1.8" ry="1.8" style="stroke:#363A4F;stroke-width:2.4;" width="108.3023" x="761.784" y="273.6"/><rect fill="#363A4F" height="1.8" style="stroke:#363A4F;stroke-width:2.4;" width="108.3023" x="761.784" y="307.8"/><rect codeLine="10" fill="none" height="36" id="Monad" rx="1.8" ry="1.8" style="stroke:#C6A0F6;stroke-width:2.4;" width="108.3023" x="761.784" y="273.6"/><ellipse cx="778.584" cy="291.6" fill="#B4A7E5" rx="12" ry="12" style="stroke:#181818;stroke-width:1.2;"/><path d="M774.9934,288.3305 L774.9934,286.5023 L781.2442,286.5023 L781.2442,288.3305 L779.1559,288.3305 L779.1559,295.1719 L781.2442,295.1719 L781.2442,297 L774.9934,297 L774.9934,295.1719 L777.0817,295.1719 L777.0817,288.3305 Z " fill="#CAD3F5"/><text fill="#A6DA95" font-family="Helvetica" font-size="19.2" font-style="italic" lengthAdjust="spacing" textLength="58.7063" x="794.184" y="296.7844">Monad</text><rect fill="#24273A" height="16.8" style="stroke:#C6A0F6;stroke-width:1.2;stroke-dasharray:2.0,2.0;" width="11.1961" x="862.4903" y="270"/><text fill="#CAD3F5" font-family="Helvetica" font-size="14.4" font-style="italic" lengthAdjust="spacing" textLength="8.7961" x="863.6903" y="282.2883">F</text></g><!--class State--><g id="elem_State"><rect codeLine="14" fill="#24273A" height="184.8" id="State" rx="1.8" ry="1.8" style="stroke:#C6A0F6;stroke-width:2.4;" width="367.8023" x="663.228" y="680.4"/><rect fill="#363A4F" height="45.6" rx="1.8" ry="1.8" style="stroke:#363A4F;stroke-width:2.4;" width="367.8023" x="663.228" y="680.4"/><rect fill="#363A4F" height="1.8" style="stroke:#363A4F;stroke-width:2.4;" width="367.8023" x="663.228" y="724.2"/><rect codeLine="14" fill="none" height="184.8" id="State" rx="1.8" ry="1.8" style="stroke:#C6A0F6;stroke-width:2.4;" width="367.8023" x="663.228" y="680.4"/><ellipse cx="757.4796" cy="703.2" fill="#B4A7E5" rx="12" ry="12" style="stroke:#181818;stroke-width:1.2;"/><path d="M753.8889,699.9305 L753.8889,698.1023 L760.1397,698.1023 L760.1397,699.9305 L758.0514,699.9305 L758.0514,706.7719 L760.1397,706.7719 L760.1397,708.6 L753.8889,708.6 L753.8889,706.7719 L755.9772,706.7719 L755.9772,699.9305 Z " fill="#CAD3F5"/><text fill="#CAD3F5" font-family="Helvetica" font-size="14.4" font-style="italic" lengthAdjust="spacing" textLength="142.4883" x="777.8796" y="697.4883">&#171;Functional Interface&#187;</text><text fill="#A6DA95" font-family="Helvetica" font-size="19.2" font-style="italic" lengthAdjust="spacing" textLength="44.8313" x="826.7081" y="715.5844">State</text><rect fill="#24273A" height="16.8" style="stroke:#C6A0F6;stroke-width:1.2;stroke-dasharray:2.0,2.0;" width="29.6109" x="1005.0194" y="676.8"/><text fill="#CAD3F5" font-family="Helvetica" font-size="14.4" font-style="italic" lengthAdjust="spacing" textLength="27.2109" x="1006.2194" y="689.0883">S, A</text><line style="stroke:#C6A0F6;stroke-width:2.4;" x1="664.428" x2="1029.8303" y1="726" y2="726"/><ellipse cx="676.428" cy="739.8" fill="#84BE84" rx="3.6" ry="3.6" style="stroke:#038048;stroke-width:1.2;"/><text fill="#A6DA95" font-family="Helvetica" font-size="14.4" lengthAdjust="spacing" textLength="228.1219" x="686.028" y="741.8883">StateTuple&lt;S, A&gt; run(S initialState)</text><ellipse cx="676.428" cy="754.2" fill="#84BE84" rx="3.6" ry="3.6" style="stroke:#038048;stroke-width:1.2;"/><text fill="#A6DA95" font-family="Helvetica" font-size="14.4" lengthAdjust="spacing" text-decoration="underline" textLength="337.8023" x="686.028" y="756.2883">State&lt;S, A&gt; of(Function&lt;S, StateTuple&lt;S, A&gt;&gt; func)</text><ellipse cx="676.428" cy="768.6" fill="#84BE84" rx="3.6" ry="3.6" style="stroke:#038048;stroke-width:1.2;"/><text fill="#A6DA95" font-family="Helvetica" font-size="14.4" lengthAdjust="spacing" text-decoration="underline" textLength="168.0961" x="686.028" y="770.6883">State&lt;S, A&gt; pure(A value)</text><ellipse cx="676.428" cy="783" fill="#84BE84" rx="3.6" ry="3.6" style="stroke:#038048;stroke-width:1.2;"/><text fill="#A6DA95" font-family="Helvetica" font-size="14.4" lengthAdjust="spacing" text-decoration="underline" textLength="111.2625" x="686.028" y="785.0883">State&lt;S, S&gt; get()</text><ellipse cx="676.428" cy="797.4" fill="#84BE84" rx="3.6" ry="3.6" style="stroke:#038048;stroke-width:1.2;"/><text fill="#A6DA95" font-family="Helvetica" font-size="14.4" lengthAdjust="spacing" text-decoration="underline" textLength="203.3156" x="686.028" y="799.4883">State&lt;S, Void&gt; set(S newState)</text><ellipse cx="676.428" cy="811.8" fill="#84BE84" rx="3.6" ry="3.6" style="stroke:#038048;stroke-width:1.2;"/><text fill="#A6DA95" font-family="Helvetica" font-size="14.4" lengthAdjust="spacing" text-decoration="underline" textLength="260.1352" x="686.028" y="813.8883">State&lt;S, Void&gt; modify(Function&lt;S, S&gt; f)</text><ellipse cx="676.428" cy="826.2" fill="#84BE84" rx="3.6" ry="3.6" style="stroke:#038048;stroke-width:1.2;"/><text fill="#A6DA95" font-family="Helvetica" font-size="14.4" lengthAdjust="spacing" text-decoration="underline" textLength="244.132" x="686.028" y="828.2883">State&lt;S, A&gt; inspect(Function&lt;S, A&gt; f)</text><ellipse cx="676.428" cy="840.6" fill="#84BE84" rx="3.6" ry="3.6" style="stroke:#038048;stroke-width:1.2;"/><text fill="#A6DA95" font-family="Helvetica" font-size="14.4" lengthAdjust="spacing" textLength="226.5187" x="686.028" y="842.6883">State&lt;S, B&gt; map(Function&lt;A, B&gt; f)</text><ellipse cx="676.428" cy="855" fill="#84BE84" rx="3.6" ry="3.6" style="stroke:#038048;stroke-width:1.2;"/><text fill="#A6DA95" font-family="Helvetica" font-size="14.4" lengthAdjust="spacing" textLength="313.7766" x="686.028" y="857.0883">State&lt;S, B&gt; flatMap(Function&lt;A, State&lt;S, B&gt;&gt; f)</text></g><!--class StateTuple--><g id="elem_StateTuple"><rect codeLine="27" fill="#24273A" height="69.6" id="StateTuple" rx="1.8" ry="1.8" style="stroke:#C6A0F6;stroke-width:2.4;" width="210.0914" x="742.092" y="954"/><rect fill="#363A4F" height="45.6" rx="1.8" ry="1.8" style="stroke:#363A4F;stroke-width:2.4;" width="210.0914" x="742.092" y="954"/><rect fill="#363A4F" height="1.8" style="stroke:#363A4F;stroke-width:2.4;" width="210.0914" x="742.092" y="997.8"/><rect codeLine="27" fill="none" height="69.6" id="StateTuple" rx="1.8" ry="1.8" style="stroke:#C6A0F6;stroke-width:2.4;" width="210.0914" x="742.092" y="954"/><ellipse cx="781.0415" cy="976.8" fill="#ADD1B2" rx="12" ry="12" style="stroke:#181818;stroke-width:1.2;"/><path d="M783.2423,981.8977 Q782.7501,982.1508 782.2087,982.2773 Q781.6673,982.4039 781.0696,982.4039 Q778.9462,982.4039 777.8282,981.0047 Q776.7102,979.6055 776.7102,976.9617 Q776.7102,974.3109 777.8282,972.9117 Q778.9462,971.5125 781.0696,971.5125 Q781.6673,971.5125 782.2157,971.6391 Q782.7641,971.7656 783.2423,972.0188 L783.2423,974.325 Q782.7079,973.8328 782.2052,973.6043 Q781.7024,973.3758 781.1681,973.3758 Q780.029,973.3758 779.4489,974.2793 Q778.8688,975.1828 778.8688,976.9617 Q778.8688,978.7336 779.4489,979.6371 Q780.029,980.5406 781.1681,980.5406 Q781.7024,980.5406 782.2052,980.3121 Q782.7079,980.0836 783.2423,979.5914 Z " fill="#CAD3F5"/><text fill="#CAD3F5" font-family="Helvetica" font-size="14.4" font-style="italic" lengthAdjust="spacing" textLength="56.8336" x="819.5765" y="971.0883">&#171;record&#187;</text><text fill="#A6DA95" font-family="Helvetica" font-size="19.2" lengthAdjust="spacing" textLength="92.8594" x="801.5636" y="989.1844">StateTuple</text><rect fill="#24273A" height="16.8" style="stroke:#C6A0F6;stroke-width:1.2;stroke-dasharray:2.0,2.0;" width="29.6109" x="926.1725" y="950.4"/><text fill="#CAD3F5" font-family="Helvetica" font-size="14.4" font-style="italic" lengthAdjust="spacing" textLength="27.2109" x="927.3725" y="962.6883">S, A</text><line style="stroke:#C6A0F6;stroke-width:2.4;" x1="743.292" x2="950.9834" y1="999.6" y2="999.6"/><ellipse cx="755.292" cy="1013.4" fill="#84BE84" rx="3.6" ry="3.6" style="stroke:#038048;stroke-width:1.2;"/><text fill="#A6DA95" font-family="Helvetica" font-size="14.4" lengthAdjust="spacing" textLength="180.0914" x="764.892" y="1015.4883">StateTuple(A value, S state)</text></g><!--class StateKindHelper--><g id="elem_StateKindHelper"><rect codeLine="32" fill="#24273A" height="189.6" id="StateKindHelper" rx="1.8" ry="1.8" style="stroke:#C6A0F6;stroke-width:2.4;" width="511.0641" x="8.4" y="402"/><rect fill="#363A4F" height="36" rx="1.8" ry="1.8" style="stroke:#363A4F;stroke-width:2.4;" width="511.0641" x="8.4" y="402"/><rect fill="#363A4F" height="1.8" style="stroke:#363A4F;stroke-width:2.4;" width="511.0641" x="8.4" y="436.2"/><rect codeLine="32" fill="none" height="189.6" id="StateKindHelper" rx="1.8" ry="1.8" style="stroke:#C6A0F6;stroke-width:2.4;" width="511.0641" x="8.4" y="402"/><ellipse cx="189.2227" cy="420" fill="#ADD1B2" rx="12" ry="12" style="stroke:#181818;stroke-width:1.2;"/><path d="M191.4234,425.0977 Q190.9313,425.3508 190.3898,425.4773 Q189.8484,425.6039 189.2508,425.6039 Q187.1273,425.6039 186.0094,424.2047 Q184.8914,422.8055 184.8914,420.1617 Q184.8914,417.5109 186.0094,416.1117 Q187.1273,414.7125 189.2508,414.7125 Q189.8484,414.7125 190.3969,414.8391 Q190.9453,414.9656 191.4234,415.2188 L191.4234,417.525 Q190.8891,417.0328 190.3863,416.8043 Q189.8836,416.5758 189.3492,416.5758 Q188.2102,416.5758 187.6301,417.4793 Q187.05,418.3828 187.05,420.1617 Q187.05,421.9336 187.6301,422.8371 Q188.2102,423.7406 189.3492,423.7406 Q189.8836,423.7406 190.3863,423.5121 Q190.8891,423.2836 191.4234,422.7914 Z " fill="#CAD3F5"/><text fill="#A6DA95" font-family="Helvetica" font-size="19.2" lengthAdjust="spacing" textLength="139.8188" x="212.0227" y="425.1844">StateKindHelper</text><line style="stroke:#C6A0F6;stroke-width:2.4;" x1="9.6" x2="518.2641" y1="438" y2="438"/><ellipse cx="21.6" cy="451.8" fill="#84BE84" rx="3.6" ry="3.6" style="stroke:#038048;stroke-width:1.2;"/><text fill="#A6DA95" font-family="Helvetica" font-size="14.4" lengthAdjust="spacing" text-decoration="underline" textLength="288.5625" x="31.2" y="453.8883">State&lt;S, A&gt; unwrap(Kind&lt;StateKind.Witness</text><text fill="#A6DA95" font-family="Helvetica" font-size="14.4" lengthAdjust="spacing" text-decoration="underline" textLength="61.2281" x="319.7625" y="453.8883">, A&gt; kind)</text><ellipse cx="21.6" cy="466.2" fill="#84BE84" rx="3.6" ry="3.6" style="stroke:#038048;stroke-width:1.2;"/><text fill="#A6DA95" font-family="Helvetica" font-size="14.4" lengthAdjust="spacing" text-decoration="underline" textLength="264.15" x="31.2" y="468.2883">StateKind&lt;S, A&gt; wrap(State&lt;S, A&gt; state)</text><ellipse cx="21.6" cy="480.6" fill="#84BE84" rx="3.6" ry="3.6" style="stroke:#038048;stroke-width:1.2;"/><text fill="#A6DA95" font-family="Helvetica" font-size="14.4" lengthAdjust="spacing" text-decoration="underline" textLength="196.9172" x="31.2" y="482.6883">StateKind&lt;S, A&gt; pure(A value)</text><ellipse cx="21.6" cy="495" fill="#84BE84" rx="3.6" ry="3.6" style="stroke:#038048;stroke-width:1.2;"/><text fill="#A6DA95" font-family="Helvetica" font-size="14.4" lengthAdjust="spacing" text-decoration="underline" textLength="140.0836" x="31.2" y="497.0883">StateKind&lt;S, S&gt; get()</text><ellipse cx="21.6" cy="509.4" fill="#84BE84" rx="3.6" ry="3.6" style="stroke:#038048;stroke-width:1.2;"/><text fill="#A6DA95" font-family="Helvetica" font-size="14.4" lengthAdjust="spacing" text-decoration="underline" textLength="232.1367" x="31.2" y="511.4883">StateKind&lt;S, Void&gt; set(S newState)</text><ellipse cx="21.6" cy="523.8" fill="#84BE84" rx="3.6" ry="3.6" style="stroke:#038048;stroke-width:1.2;"/><text fill="#A6DA95" font-family="Helvetica" font-size="14.4" lengthAdjust="spacing" text-decoration="underline" textLength="288.9563" x="31.2" y="525.8883">StateKind&lt;S, Void&gt; modify(Function&lt;S, S&gt; f)</text><ellipse cx="21.6" cy="538.2" fill="#84BE84" rx="3.6" ry="3.6" style="stroke:#038048;stroke-width:1.2;"/><text fill="#A6DA95" font-family="Helvetica" font-size="14.4" lengthAdjust="spacing" text-decoration="underline" textLength="272.9531" x="31.2" y="540.2883">StateKind&lt;S, A&gt; inspect(Function&lt;S, A&gt; f)</text><ellipse cx="21.6" cy="552.6" fill="#84BE84" rx="3.6" ry="3.6" style="stroke:#038048;stroke-width:1.2;"/><text fill="#A6DA95" font-family="Helvetica" font-size="14.4" lengthAdjust="spacing" text-decoration="underline" textLength="331.7906" x="31.2" y="554.6883">StateTuple&lt;S, A&gt; runState(Kind&lt;StateKind.Witness</text><text fill="#A6DA95" font-family="Helvetica" font-size="14.4" lengthAdjust="spacing" text-decoration="underline" textLength="149.2734" x="362.9906" y="554.6883">, A&gt; kind, S initialState)</text><ellipse cx="21.6" cy="567" fill="#84BE84" rx="3.6" ry="3.6" style="stroke:#038048;stroke-width:1.2;"/><text fill="#A6DA95" font-family="Helvetica" font-size="14.4" lengthAdjust="spacing" text-decoration="underline" textLength="233.325" x="31.2" y="569.0883">A evalState(Kind&lt;StateKind.Witness</text><text fill="#A6DA95" font-family="Helvetica" font-size="14.4" lengthAdjust="spacing" text-decoration="underline" textLength="149.2734" x="264.525" y="569.0883">, A&gt; kind, S initialState)</text><ellipse cx="21.6" cy="581.4" fill="#84BE84" rx="3.6" ry="3.6" style="stroke:#038048;stroke-width:1.2;"/><text fill="#A6DA95" font-family="Helvetica" font-size="14.4" lengthAdjust="spacing" text-decoration="underline" textLength="237.3258" x="31.2" y="583.4883">S execState(Kind&lt;StateKind.Witness</text><text fill="#A6DA95" font-family="Helvetica" font-size="14.4" lengthAdjust="spacing" text-decoration="underline" textLength="149.2734" x="268.5258" y="583.4883">, A&gt; kind, S initialState)</text></g><!--class StateFunctor--><g id="elem_StateFunctor"><rect codeLine="45" fill="#24273A" height="60" id="StateFunctor" rx="1.8" ry="1.8" style="stroke:#C6A0F6;stroke-width:2.4;" width="564.6773" x="1277.592" y="121.2"/><rect fill="#363A4F" height="36" rx="1.8" ry="1.8" style="stroke:#363A4F;stroke-width:2.4;" width="564.6773" x="1277.592" y="121.2"/><rect fill="#363A4F" height="1.8" style="stroke:#363A4F;stroke-width:2.4;" width="564.6773" x="1277.592" y="155.4"/><rect codeLine="45" fill="none" height="60" id="StateFunctor" rx="1.8" ry="1.8" style="stroke:#C6A0F6;stroke-width:2.4;" width="564.6773" x="1277.592" y="121.2"/><ellipse cx="1492.9674" cy="139.2" fill="#ADD1B2" rx="12" ry="12" style="stroke:#181818;stroke-width:1.2;"/><path d="M1495.1682,144.2977 Q1494.676,144.5508 1494.1346,144.6773 Q1493.5932,144.8039 1492.9955,144.8039 Q1490.8721,144.8039 1489.7541,143.4047 Q1488.6361,142.0055 1488.6361,139.3617 Q1488.6361,136.7109 1489.7541,135.3117 Q1490.8721,133.9125 1492.9955,133.9125 Q1493.5932,133.9125 1494.1416,134.0391 Q1494.69,134.1656 1495.1682,134.4188 L1495.1682,136.725 Q1494.6338,136.2328 1494.1311,136.0043 Q1493.6283,135.7758 1493.094,135.7758 Q1491.9549,135.7758 1491.3748,136.6793 Q1490.7947,137.5828 1490.7947,139.3617 Q1490.7947,141.1336 1491.3748,142.0371 Q1491.9549,142.9406 1493.094,142.9406 Q1493.6283,142.9406 1494.1311,142.7121 Q1494.6338,142.4836 1495.1682,141.9914 Z " fill="#CAD3F5"/><text fill="#A6DA95" font-family="Helvetica" font-size="19.2" lengthAdjust="spacing" textLength="109.9219" x="1515.7674" y="144.3844">StateFunctor</text><rect fill="#24273A" height="16.8" style="stroke:#C6A0F6;stroke-width:1.2;stroke-dasharray:2.0,2.0;" width="12.0047" x="1833.8647" y="117.6"/><text fill="#CAD3F5" font-family="Helvetica" font-size="14.4" font-style="italic" lengthAdjust="spacing" textLength="9.6047" x="1835.0647" y="129.8883">S</text><line style="stroke:#C6A0F6;stroke-width:2.4;" x1="1278.792" x2="1841.0693" y1="157.2" y2="157.2"/><ellipse cx="1290.792" cy="171" fill="#84BE84" rx="3.6" ry="3.6" style="stroke:#038048;stroke-width:1.2;"/><text fill="#A6DA95" font-family="Helvetica" font-size="14.4" lengthAdjust="spacing" textLength="154.8844" x="1300.392" y="173.0883">Kind&lt;StateKind.Witness</text><text fill="#A6DA95" font-family="Helvetica" font-size="14.4" lengthAdjust="spacing" text-decoration="line-through" textLength="332.9719" x="1455.2764" y="173.0883">, B&gt; map(Function&lt;A, B&gt; f, Kind&lt;StateKind.Witness</text><text fill="#A6DA95" font-family="Helvetica" font-size="14.4" lengthAdjust="spacing" text-decoration="line-through" textLength="46.8211" x="1788.2483" y="173.0883">, A&gt; fa)</text></g><!--class StateApplicative--><g id="elem_StateApplicative"><rect codeLine="48" fill="#24273A" height="74.4" id="StateApplicative" rx="1.8" ry="1.8" style="stroke:#C6A0F6;stroke-width:2.4;" width="727.9781" x="911.544" y="254.4"/><rect fill="#363A4F" height="36" rx="1.8" ry="1.8" style="stroke:#363A4F;stroke-width:2.4;" width="727.9781" x="911.544" y="254.4"/><rect fill="#363A4F" height="1.8" style="stroke:#363A4F;stroke-width:2.4;" width="727.9781" x="911.544" y="288.6"/><rect codeLine="48" fill="none" height="74.4" id="StateApplicative" rx="1.8" ry="1.8" style="stroke:#C6A0F6;stroke-width:2.4;" width="727.9781" x="911.544" y="254.4"/><ellipse cx="1194.6901" cy="272.4" fill="#ADD1B2" rx="12" ry="12" style="stroke:#181818;stroke-width:1.2;"/><path d="M1196.8909,277.4977 Q1196.3987,277.7508 1195.8573,277.8773 Q1195.3159,278.0039 1194.7182,278.0039 Q1192.5948,278.0039 1191.4768,276.6047 Q1190.3588,275.2055 1190.3588,272.5617 Q1190.3588,269.9109 1191.4768,268.5117 Q1192.5948,267.1125 1194.7182,267.1125 Q1195.3159,267.1125 1195.8643,267.2391 Q1196.4128,267.3656 1196.8909,267.6188 L1196.8909,269.925 Q1196.3565,269.4328 1195.8538,269.2043 Q1195.351,268.9758 1194.8167,268.9758 Q1193.6776,268.9758 1193.0975,269.8793 Q1192.5174,270.7828 1192.5174,272.5617 Q1192.5174,274.3336 1193.0975,275.2371 Q1193.6776,276.1406 1194.8167,276.1406 Q1195.351,276.1406 1195.8538,275.9121 Q1196.3565,275.6836 1196.8909,275.1914 Z " fill="#CAD3F5"/><text fill="#A6DA95" font-family="Helvetica" font-size="19.2" lengthAdjust="spacing" textLength="137.6813" x="1217.4901" y="277.5844">StateApplicative</text><rect fill="#24273A" height="16.8" style="stroke:#C6A0F6;stroke-width:1.2;stroke-dasharray:2.0,2.0;" width="12.0047" x="1631.1174" y="250.8"/><text fill="#CAD3F5" font-family="Helvetica" font-size="14.4" font-style="italic" lengthAdjust="spacing" textLength="9.6047" x="1632.3174" y="263.0883">S</text><line style="stroke:#C6A0F6;stroke-width:2.4;" x1="912.744" x2="1638.3221" y1="290.4" y2="290.4"/><ellipse cx="924.744" cy="304.2" fill="#84BE84" rx="3.6" ry="3.6" style="stroke:#038048;stroke-width:1.2;"/><text fill="#A6DA95" font-family="Helvetica" font-size="14.4" lengthAdjust="spacing" textLength="154.8844" x="934.344" y="306.2883">Kind&lt;StateKind.Witness</text><text fill="#A6DA95" font-family="Helvetica" font-size="14.4" lengthAdjust="spacing" text-decoration="line-through" textLength="99.6469" x="1089.2284" y="306.2883">, A&gt; of(A value)</text><ellipse cx="924.744" cy="318.6" fill="#84BE84" rx="3.6" ry="3.6" style="stroke:#038048;stroke-width:1.2;"/><text fill="#A6DA95" font-family="Helvetica" font-size="14.4" lengthAdjust="spacing" textLength="154.8844" x="934.344" y="320.6883">Kind&lt;StateKind.Witness</text><text fill="#A6DA95" font-family="Helvetica" font-size="14.4" lengthAdjust="spacing" text-decoration="line-through" textLength="205.7133" x="1089.2284" y="320.6883">, B&gt; ap(Kind&lt;StateKind.Witness</text><text fill="#A6DA95" font-family="Helvetica" font-size="14.4" lengthAdjust="spacing" text-decoration="line-through" textLength="290.5594" x="1294.9417" y="320.6883">, Function&lt;A, B&gt;&gt; ff, Kind&lt;StateKind.Witness</text><text fill="#A6DA95" font-family="Helvetica" font-size="14.4" lengthAdjust="spacing" text-decoration="line-through" textLength="46.8211" x="1585.501" y="320.6883">, A&gt; fa)</text></g><!--class StateMonad--><g id="elem_StateMonad"><rect codeLine="52" fill="#24273A" height="60" id="StateMonad" rx="1.8" ry="1.8" style="stroke:#C6A0F6;stroke-width:2.4;" width="763.1766" x="561.54" y="466.8"/><rect fill="#363A4F" height="36" rx="1.8" ry="1.8" style="stroke:#363A4F;stroke-width:2.4;" width="763.1766" x="561.54" y="466.8"/><rect fill="#363A4F" height="1.8" style="stroke:#363A4F;stroke-width:2.4;" width="763.1766" x="561.54" y="501"/><rect codeLine="52" fill="none" height="60" id="StateMonad" rx="1.8" ry="1.8" style="stroke:#C6A0F6;stroke-width:2.4;" width="763.1766" x="561.54" y="466.8"/><ellipse cx="879.3572" cy="484.8" fill="#ADD1B2" rx="12" ry="12" style="stroke:#181818;stroke-width:1.2;"/><path d="M881.558,489.8977 Q881.0658,490.1508 880.5244,490.2773 Q879.983,490.4039 879.3853,490.4039 Q877.2619,490.4039 876.1439,489.0047 Q875.0259,487.6055 875.0259,484.9617 Q875.0259,482.3109 876.1439,480.9117 Q877.2619,479.5125 879.3853,479.5125 Q879.983,479.5125 880.5314,479.6391 Q881.0798,479.7656 881.558,480.0187 L881.558,482.325 Q881.0236,481.8328 880.5209,481.6043 Q880.0181,481.3758 879.4838,481.3758 Q878.3447,481.3758 877.7646,482.2793 Q877.1845,483.1828 877.1845,484.9617 Q877.1845,486.7336 877.7646,487.6371 Q878.3447,488.5406 879.4838,488.5406 Q880.0181,488.5406 880.5209,488.3121 Q881.0236,488.0836 881.558,487.5914 Z " fill="#CAD3F5"/><text fill="#A6DA95" font-family="Helvetica" font-size="19.2" lengthAdjust="spacing" textLength="103.5375" x="902.1572" y="489.9844">StateMonad</text><rect fill="#24273A" height="16.8" style="stroke:#C6A0F6;stroke-width:1.2;stroke-dasharray:2.0,2.0;" width="12.0047" x="1316.3119" y="463.2"/><text fill="#CAD3F5" font-family="Helvetica" font-size="14.4" font-style="italic" lengthAdjust="spacing" textLength="9.6047" x="1317.5119" y="475.4883">S</text><line style="stroke:#C6A0F6;stroke-width:2.4;" x1="562.74" x2="1323.5166" y1="502.8" y2="502.8"/><ellipse cx="574.74" cy="516.6" fill="#84BE84" rx="3.6" ry="3.6" style="stroke:#038048;stroke-width:1.2;"/><text fill="#A6DA95" font-family="Helvetica" font-size="14.4" lengthAdjust="spacing" textLength="154.8844" x="584.34" y="518.6883">Kind&lt;StateKind.Witness</text><text fill="#A6DA95" font-family="Helvetica" font-size="14.4" lengthAdjust="spacing" text-decoration="line-through" textLength="318.1641" x="739.2244" y="518.6883">, B&gt; flatMap(Function&lt;A, Kind&lt;StateKind.Witness</text><text fill="#A6DA95" font-family="Helvetica" font-size="14.4" lengthAdjust="spacing" text-decoration="line-through" textLength="205.3125" x="1057.3884" y="518.6883">, B&gt;&gt; f, Kind&lt;StateKind.Witness</text><text fill="#A6DA95" font-family="Helvetica" font-size="14.4" lengthAdjust="spacing" text-decoration="line-through" textLength="54.8156" x="1262.7009" y="518.6883">, A&gt; ma)</text></g><!--class StateKind<S, A>--><g id="elem_StateKind&lt;S, A&gt;"><rect fill="#24273A" height="36" id="StateKind&lt;S, A&gt;" rx="1.8" ry="1.8" style="stroke:#C6A0F6;stroke-width:2.4;" width="177.9656" x="357.348" y="754.8"/><rect fill="#363A4F" height="36" rx="1.8" ry="1.8" style="stroke:#363A4F;stroke-width:2.4;" width="177.9656" x="357.348" y="754.8"/><rect fill="#363A4F" height="1.8" style="stroke:#363A4F;stroke-width:2.4;" width="177.9656" x="357.348" y="789"/><rect fill="none" height="36" id="StateKind&lt;S, A&gt;" rx="1.8" ry="1.8" style="stroke:#C6A0F6;stroke-width:2.4;" width="177.9656" x="357.348" y="754.8"/><ellipse cx="374.148" cy="772.8" fill="#ADD1B2" rx="12" ry="12" style="stroke:#181818;stroke-width:1.2;"/><path d="M376.3488,777.8977 Q375.8566,778.1508 375.3152,778.2773 Q374.7738,778.4039 374.1761,778.4039 Q372.0527,778.4039 370.9347,777.0047 Q369.8168,775.6055 369.8168,772.9617 Q369.8168,770.3109 370.9347,768.9117 Q372.0527,767.5125 374.1761,767.5125 Q374.7738,767.5125 375.3222,767.6391 Q375.8707,767.7656 376.3488,768.0188 L376.3488,770.325 Q375.8144,769.8328 375.3117,769.6043 Q374.8089,769.3758 374.2746,769.3758 Q373.1355,769.3758 372.5554,770.2793 Q371.9753,771.1828 371.9753,772.9617 Q371.9753,774.7336 372.5554,775.6371 Q373.1355,776.5406 374.2746,776.5406 Q374.8089,776.5406 375.3117,776.3121 Q375.8144,776.0836 376.3488,775.5914 Z " fill="#CAD3F5"/><text fill="#A6DA95" font-family="Helvetica" font-size="19.2" lengthAdjust="spacing" textLength="141.9656" x="389.748" y="777.9844">StateKind&lt;S, A&gt;</text></g><!--reverse link State to StateTuple--><g id="link_State_StateTuple"><path codeLine="25" d="M847.128,884.712 C847.128,915.972 847.128,929.796 847.128,953.616 " fill="none" id="State-backto-StateTuple" style="stroke:#F5BDE6;stroke-width:1.2;"/><ellipse cx="847.128" cy="875.112" fill="#24273A" rx="9.6" ry="9.6" style="stroke:#F5BDE6;stroke-width:1.2;"/><line style="stroke:#F5BDE6;stroke-width:1.2;" x1="847.128" x2="847.128" y1="884.712" y2="865.512"/><line style="stroke:#F5BDE6;stroke-width:1.2;" x1="837.528" x2="856.728" y1="875.112" y2="875.112"/><polygon fill="#CAD3F5" points="851.928,914.4,854.7494,905.7167,849.1066,905.7167,851.928,914.4" style="stroke:#CAD3F5;stroke-width:1.2;"/><text fill="#CAD3F5" font-family="Helvetica" font-size="14.4" lengthAdjust="spacing" textLength="30.4172" x="862.728" y="913.4883">uses</text></g><!--reverse link Functor to StateFunctor--><g id="link_Functor_StateFunctor"><path d="M1559.928,69.816 C1559.928,88.68 1559.928,97.848 1559.928,120.612 " fill="none" id="Functor-backto-StateFunctor" style="stroke:#F5BDE6;stroke-width:1.2;stroke-dasharray:7.0,7.0;"/><polygon fill="none" points="1559.928,48.216,1552.728,69.816,1567.128,69.816,1559.928,48.216" style="stroke:#F5BDE6;stroke-width:1.2;"/></g><!--reverse link StateFunctor to StateApplicative--><g id="link_StateFunctor_StateApplicative"><path d="M1480.1821,191.0957 C1436.6461,212.2157 1397.016,231.456 1350.456,254.052 " fill="none" id="StateFunctor-backto-StateApplicative" style="stroke:#F5BDE6;stroke-width:1.2;"/><polygon fill="none" points="1499.616,181.668,1477.0395,184.6177,1483.3246,197.5737,1499.616,181.668" style="stroke:#F5BDE6;stroke-width:1.2;"/></g><!--reverse link Applicative to StateApplicative--><g id="link_Applicative_StateApplicative"><path d="M1191.2021,186.1154 C1208.1941,207.1274 1224.072,226.764 1246.248,254.184 " fill="none" id="Applicative-backto-StateApplicative" style="stroke:#F5BDE6;stroke-width:1.2;stroke-dasharray:7.0,7.0;"/><polygon fill="none" points="1177.62,169.32,1185.6037,190.6428,1196.8006,181.588,1177.62,169.32" style="stroke:#F5BDE6;stroke-width:1.2;"/></g><!--reverse link StateApplicative to StateMonad--><g id="link_StateApplicative_StateMonad"><path d="M1197.281,340.542 C1132.985,379.77 1050.48,430.104 991.152,466.308 " fill="none" id="StateApplicative-backto-StateMonad" style="stroke:#F5BDE6;stroke-width:1.2;"/><polygon fill="none" points="1215.72,329.292,1193.531,334.3956,1201.0309,346.6883,1215.72,329.292" style="stroke:#F5BDE6;stroke-width:1.2;"/></g><!--reverse link Monad to StateMonad--><g id="link_Monad_StateMonad"><path d="M838.2529,328.3906 C860.0569,363.1546 897.96,423.576 924.852,466.44 " fill="none" id="Monad-backto-StateMonad" style="stroke:#F5BDE6;stroke-width:1.2;stroke-dasharray:7.0,7.0;"/><polygon fill="none" points="826.776,310.092,832.1534,332.2163,844.3525,324.565,826.776,310.092" style="stroke:#F5BDE6;stroke-width:1.2;"/></g><!--link StateKind<S, A> to Kind--><g id="link_StateKind&lt;S, A&gt;_Kind"><path codeLine="58" d="M446.328,791.124 C446.328,831.108 446.328,908.724 446.328,948.804 " fill="none" id="StateKind&lt;S, A&gt;-to-Kind" style="stroke:#F5BDE6;stroke-width:1.2;"/><polygon fill="none" points="446.328,970.404,453.528,948.804,439.128,948.804,446.328,970.404" style="stroke:#F5BDE6;stroke-width:1.2;"/><text fill="#CAD3F5" font-family="Helvetica" font-size="14.4" lengthAdjust="spacing" textLength="126.0633" x="447.528" y="913.4883">&lt;StateKind.Witness</text><text fill="#CAD3F5" font-family="Helvetica" font-size="14.4" lengthAdjust="spacing" text-decoration="line-through" textLength="26.0156" x="573.5913" y="913.4883">, A&gt;</text></g><!--link StateKindHelper to State--><g id="link_StateKindHelper_State"><path codeLine="61" d="M435.276,592.128 C469.644,610.08 505.704,628.284 539.928,644.4 C579.228,662.904 615.3307,678.7471 656.0827,695.8111 " fill="none" id="StateKindHelper-to-State" style="stroke:#F5BDE6;stroke-width:1.2;stroke-dasharray:7.0,7.0;"/><polygon fill="#F5BDE6" points="662.724,698.592,654.616,689.9931,657.1896,696.2746,650.9081,698.8482,662.724,698.592" style="stroke:#F5BDE6;stroke-width:1.2;"/><text fill="#CAD3F5" font-family="Helvetica" font-size="14.4" lengthAdjust="spacing" textLength="105.6516" x="541.128" y="639.8883">creates/unwraps</text></g><!--link StateKindHelper to StateKind<S, A>--><g id="link_StateKindHelper_StateKind&lt;S, A&gt;"><path codeLine="62" d="M317.22,591.912 C327.84,609.576 339.168,627.72 350.328,644.4 C377.568,685.092 408.5357,724.7029 427.8197,748.7509 " fill="none" id="StateKindHelper-to-StateKind&lt;S, A&gt;" style="stroke:#F5BDE6;stroke-width:1.2;stroke-dasharray:7.0,7.0;"/><polygon fill="#F5BDE6" points="432.324,754.368,429.3123,742.9396,428.5704,749.6871,421.8229,748.9453,432.324,754.368" style="stroke:#F5BDE6;stroke-width:1.2;"/><text fill="#CAD3F5" font-family="Helvetica" font-size="14.4" lengthAdjust="spacing" textLength="105.6516" x="351.528" y="639.8883">creates/unwraps</text></g><!--link StateMonad to StateKind<S, A>--><g id="link_StateMonad_StateKind&lt;S, A&gt;"><path codeLine="64" d="M881.124,527.256 C828.156,552.66 750.228,591.012 683.928,627.6 C606.012,670.596 523.0669,722.5371 479.4229,750.3651 " fill="none" id="StateMonad-to-StateKind&lt;S, A&gt;" style="stroke:#F5BDE6;stroke-width:1.2;stroke-dasharray:7.0,7.0;"/><polygon fill="#F5BDE6" points="473.352,754.236,485.039,752.4769,478.4111,751.0102,479.8778,744.3824,473.352,754.236" style="stroke:#F5BDE6;stroke-width:1.2;"/><text fill="#CAD3F5" font-family="Helvetica" font-size="14.4" lengthAdjust="spacing" textLength="197.7539" x="685.128" y="639.8883">operates on &lt;StateKind&lt;S,?&gt;&gt;</text></g><!--link StateMonad to State--><g id="link_StateMonad_State"><path codeLine="65" d="M932.856,527.28 C920.16,563.472 900.3323,619.9783 881.6963,673.0783 " fill="none" id="StateMonad-to-State" style="stroke:#F5BDE6;stroke-width:1.2;stroke-dasharray:7.0,7.0;"/><polygon fill="#F5BDE6" points="879.312,679.872,887.4177,671.2709,881.2989,674.2105,878.3593,668.0918,879.312,679.872" style="stroke:#F5BDE6;stroke-width:1.2;"/><text fill="#CAD3F5" font-family="Helvetica" font-size="14.4" lengthAdjust="spacing" textLength="105.6586" x="896.328" y="639.8883">uses methods of</text></g><!--SRC=[fLLDZvim4BtpAzozDAjTmds5gD93rAhQIwdQizSCYrNy8MoINMtptpkOa803rZRbX3pllNdCZ8SFNBAwBO1Krchpa2GDtQ-VkQtQfzP0mvIq8EsQAP58feobCMS9erRhbZ4kOq4PgpYrAjOrbROLTMmh4908ocNYNjSQJwEeufW5XBQlH81uWiP4KKJmuPYYAIa3yetB8jtUaqtc1RQjP5OrwTOFRBIkEThXExWCFYf9Y-uOd_DfRgc5DE-oa3HroXo1DVawGBACl7LITptsHwlhWT2qSfLZ2cuvhLtqjaU-OMaiPuU9l2fNWtvtugjbfCHeI42t3QmsP4VhTZbHdf5diAl5-4_5YumOXEH4mZxikWSBLV3oTMeUtOQiScaqC3lXRCwS4_GpgbDzXctSqHoihAbzzA2Zk2CT8dT2xk9uL5xoG71u3S7EiveQSzd7D6s0gQP05TVhSQk7WcCsOlfY7QA9KZUdNw3Mq1p9inLfvRv1-sweJxJrBsub69FccGFznhFR6OsUvI1EPIniXWu6IFxaB457mxC4MPgVC3umGW7ReIdoQTwzT6Vlg7RNLly2ZwGt17R7oF-BvGHUW5qlTfYCtR05iOvSuBSBtCpcj1ldf4-BB91yuKBUax3XadRsHkx6gnWTmWl-E8gWymdZIlVzbfskoF37Xg_aj0pucVzUYFwtuvV0Ay-e34VyzUsRMvH1nZlQAsY_zJwIxu3og6egharquztO6nB7Vp8dXbjtKG-L_CsvNcTzPP376i0Na_GhqynYBpDVyg9p0nOv2WKx4b5ov1VZdxBCvm_-tDz4WAqKjbELqLy0]--></g></svg>