<svg xmlns="http://www.w3.org/2000/svg" xmlns:xlink="http://www.w3.org/1999/xlink" contentStyleType="text/css" height="716px" preserveAspectRatio="none" style="width:1817px;height:716px;background:#24273A;" version="1.1" viewBox="0 0 1817 716" width="1817px" zoomAndPan="magnify"><defs/><g><rect fill="#24273A" height="716" style="stroke:none;stroke-width:1.0;" width="1817" x="0" y="0"/><!--cluster Core HKT Interfaces--><g id="cluster_Core HKT Interfaces"><path d="M1297.5,395.86 L1424.7129,395.86 A2.25,2.25 0 0 1 1426.2129,397.36 L1433.2129,415.9928 L1708.5,415.9928 A1.5,1.5 0 0 1 1710,417.4928 L1710,606.25 A1.5,1.5 0 0 1 1708.5,607.75 L1297.5,607.75 A1.5,1.5 0 0 1 1296,606.25 L1296,397.36 A1.5,1.5 0 0 1 1297.5,395.86 " fill="#24273A" style="stroke:#CAD3F5;stroke-width:1.0;"/><line style="stroke:#CAD3F5;stroke-width:1.0;" x1="1296" x2="1433.2129" y1="415.9928" y2="415.9928"/><text fill="#CAD3F5" font-family="sans-serif" font-size="12" font-weight="bold" lengthAdjust="spacing" textLength="124.2129" x="1300" y="409.4616">Core HKT Interfaces</text></g><!--cluster Try Type--><g id="cluster_Try Type"><path d="M1308.5,260.95 L1366.4434,260.95 A2.25,2.25 0 0 1 1367.9434,262.45 L1374.9434,281.0828 L1401.5,281.0828 A1.5,1.5 0 0 1 1403,282.5828 L1403,337.3 A1.5,1.5 0 0 1 1401.5,338.8 L1308.5,338.8 A1.5,1.5 0 0 1 1307,337.3 L1307,262.45 A1.5,1.5 0 0 1 1308.5,260.95 " fill="#24273A" style="stroke:#CAD3F5;stroke-width:1.0;"/><line style="stroke:#CAD3F5;stroke-width:1.0;" x1="1307" x2="1374.9434" y1="281.0828" y2="281.0828"/><text fill="#CAD3F5" font-family="sans-serif" font-size="12" font-weight="bold" lengthAdjust="spacing" textLength="54.9434" x="1311" y="274.5516">Try Type</text></g><!--cluster Try HKT Simulation--><g id="cluster_Try HKT Simulation"><path d="M12.5,11 L135.8457,11 A2.25,2.25 0 0 1 137.3457,12.5 L144.3457,31.1328 L1148.5,31.1328 A1.5,1.5 0 0 1 1150,32.6328 L1150,617.32 A1.5,1.5 0 0 1 1148.5,618.82 L12.5,618.82 A1.5,1.5 0 0 1 11,617.32 L11,12.5 A1.5,1.5 0 0 1 12.5,11 " fill="#24273A" style="stroke:#CAD3F5;stroke-width:1.0;"/><line style="stroke:#CAD3F5;stroke-width:1.0;" x1="11" x2="144.3457" y1="31.1328" y2="31.1328"/><text fill="#CAD3F5" font-family="sans-serif" font-size="12" font-weight="bold" lengthAdjust="spacing" textLength="120.3457" x="15" y="24.6016">Try HKT Simulation</text></g><!--class Kind--><g id="elem_Kind"><rect codeLine="9" fill="#24273A" height="28.8438" id="Kind" rx="1.5" ry="1.5" style="stroke:#C6A0F6;stroke-width:2.0;" width="90.7422" x="1603.63" y="428.86"/><rect fill="#363A4F" height="28.8438" rx="1.5" ry="1.5" style="stroke:#363A4F;stroke-width:2.0;" width="90.7422" x="1603.63" y="428.86"/><rect fill="#363A4F" height="1.5" style="stroke:#363A4F;stroke-width:2.0;" width="90.7422" x="1603.63" y="456.2037"/><rect codeLine="9" fill="none" height="28.8438" id="Kind" rx="1.5" ry="1.5" style="stroke:#C6A0F6;stroke-width:2.0;" width="90.7422" x="1603.63" y="428.86"/><ellipse cx="1616.63" cy="443.2819" fill="#FFFFFF" rx="9" ry="9" style="stroke:#000000;stroke-width:1.0;"/><path d="M1613.6378,440.5573 L1613.6378,439.0338 L1618.8468,439.0338 L1618.8468,440.5573 L1617.1066,440.5573 L1617.1066,446.2584 L1618.8468,446.2584 L1618.8468,447.7819 L1613.6378,447.7819 L1613.6378,446.2584 L1615.378,446.2584 L1615.378,440.5573 Z " fill="#CAD3F5"/><text fill="#A6DA95" font-family="sans-serif" font-size="16" font-style="italic" lengthAdjust="spacing" textLength="35.0703" x="1628.63" y="449.3287">Kind</text><rect fill="#24273A" height="16.584" style="stroke:#C6A0F6;stroke-width:1.0;stroke-dasharray:2.0,2.0;" width="25.6719" x="1671.7003" y="425.86"/><text fill="#000000" font-family="Verdana" font-size="12" font-style="italic" lengthAdjust="spacing" textLength="23.6719" x="1672.7003" y="438.9245">F, A</text></g><!--class Functor--><g id="elem_Functor"><rect codeLine="10" fill="#24273A" height="28.8438" id="Functor" rx="1.5" ry="1.5" style="stroke:#C6A0F6;stroke-width:2.0;" width="97.8887" x="1312.06" y="428.86"/><rect fill="#363A4F" height="28.8438" rx="1.5" ry="1.5" style="stroke:#363A4F;stroke-width:2.0;" width="97.8887" x="1312.06" y="428.86"/><rect fill="#363A4F" height="1.5" style="stroke:#363A4F;stroke-width:2.0;" width="97.8887" x="1312.06" y="456.2037"/><rect codeLine="10" fill="none" height="28.8438" id="Functor" rx="1.5" ry="1.5" style="stroke:#C6A0F6;stroke-width:2.0;" width="97.8887" x="1312.06" y="428.86"/><ellipse cx="1325.06" cy="443.2819" fill="#FFFFFF" rx="9" ry="9" style="stroke:#000000;stroke-width:1.0;"/><path d="M1322.0678,440.5573 L1322.0678,439.0338 L1327.2768,439.0338 L1327.2768,440.5573 L1325.5366,440.5573 L1325.5366,446.2584 L1327.2768,446.2584 L1327.2768,447.7819 L1322.0678,447.7819 L1322.0678,446.2584 L1323.808,446.2584 L1323.808,440.5573 Z " fill="#CAD3F5"/><text fill="#A6DA95" font-family="sans-serif" font-size="16" font-style="italic" lengthAdjust="spacing" textLength="58.9922" x="1337.06" y="449.3287">Functor</text><rect fill="#24273A" height="16.584" style="stroke:#C6A0F6;stroke-width:1.0;stroke-dasharray:2.0,2.0;" width="8.8965" x="1404.0522" y="425.86"/><text fill="#000000" font-family="Verdana" font-size="12" font-style="italic" lengthAdjust="spacing" textLength="6.8965" x="1405.0522" y="438.9245">F</text></g><!--class Applicative--><g id="elem_Applicative"><rect codeLine="11" fill="#24273A" height="28.8438" id="Applicative" rx="1.5" ry="1.5" style="stroke:#C6A0F6;stroke-width:2.0;" width="124.1621" x="1444.92" y="428.86"/><rect fill="#363A4F" height="28.8438" rx="1.5" ry="1.5" style="stroke:#363A4F;stroke-width:2.0;" width="124.1621" x="1444.92" y="428.86"/><rect fill="#363A4F" height="1.5" style="stroke:#363A4F;stroke-width:2.0;" width="124.1621" x="1444.92" y="456.2037"/><rect codeLine="11" fill="none" height="28.8438" id="Applicative" rx="1.5" ry="1.5" style="stroke:#C6A0F6;stroke-width:2.0;" width="124.1621" x="1444.92" y="428.86"/><ellipse cx="1457.92" cy="443.2819" fill="#FFFFFF" rx="9" ry="9" style="stroke:#000000;stroke-width:1.0;"/><path d="M1454.9278,440.5573 L1454.9278,439.0338 L1460.1368,439.0338 L1460.1368,440.5573 L1458.3966,440.5573 L1458.3966,446.2584 L1460.1368,446.2584 L1460.1368,447.7819 L1454.9278,447.7819 L1454.9278,446.2584 L1456.668,446.2584 L1456.668,440.5573 Z " fill="#CAD3F5"/><text fill="#A6DA95" font-family="sans-serif" font-size="16" font-style="italic" lengthAdjust="spacing" textLength="85.2656" x="1469.92" y="449.3287">Applicative</text><rect fill="#24273A" height="16.584" style="stroke:#C6A0F6;stroke-width:1.0;stroke-dasharray:2.0,2.0;" width="8.8965" x="1563.1856" y="425.86"/><text fill="#000000" font-family="Verdana" font-size="12" font-style="italic" lengthAdjust="spacing" textLength="6.8965" x="1564.1856" y="438.9245">F</text></g><!--class Monad--><g id="elem_Monad"><rect codeLine="12" fill="#24273A" height="28.8438" id="Monad" rx="1.5" ry="1.5" style="stroke:#C6A0F6;stroke-width:2.0;" width="91.3418" x="1315.33" y="562.91"/><rect fill="#363A4F" height="28.8438" rx="1.5" ry="1.5" style="stroke:#363A4F;stroke-width:2.0;" width="91.3418" x="1315.33" y="562.91"/><rect fill="#363A4F" height="1.5" style="stroke:#363A4F;stroke-width:2.0;" width="91.3418" x="1315.33" y="590.2538"/><rect codeLine="12" fill="none" height="28.8438" id="Monad" rx="1.5" ry="1.5" style="stroke:#C6A0F6;stroke-width:2.0;" width="91.3418" x="1315.33" y="562.91"/><ellipse cx="1328.33" cy="577.3319" fill="#FFFFFF" rx="9" ry="9" style="stroke:#000000;stroke-width:1.0;"/><path d="M1325.3378,574.6073 L1325.3378,573.0838 L1330.5468,573.0838 L1330.5468,574.6073 L1328.8066,574.6073 L1328.8066,580.3084 L1330.5468,580.3084 L1330.5468,581.8319 L1325.3378,581.8319 L1325.3378,580.3084 L1327.078,580.3084 L1327.078,574.6073 Z " fill="#CAD3F5"/><text fill="#A6DA95" font-family="sans-serif" font-size="16" font-style="italic" lengthAdjust="spacing" textLength="52.4453" x="1340.33" y="583.3788">Monad</text><rect fill="#24273A" height="16.584" style="stroke:#C6A0F6;stroke-width:1.0;stroke-dasharray:2.0,2.0;" width="8.8965" x="1400.7753" y="559.91"/><text fill="#000000" font-family="Verdana" font-size="12" font-style="italic" lengthAdjust="spacing" textLength="6.8965" x="1401.7753" y="572.9745">F</text></g><!--class MonadError--><g id="elem_MonadError"><rect codeLine="13" fill="#24273A" height="28.8438" id="MonadError" rx="1.5" ry="1.5" style="stroke:#C6A0F6;stroke-width:2.0;" width="145.6543" x="1441.17" y="562.91"/><rect fill="#363A4F" height="28.8438" rx="1.5" ry="1.5" style="stroke:#363A4F;stroke-width:2.0;" width="145.6543" x="1441.17" y="562.91"/><rect fill="#363A4F" height="1.5" style="stroke:#363A4F;stroke-width:2.0;" width="145.6543" x="1441.17" y="590.2538"/><rect codeLine="13" fill="none" height="28.8438" id="MonadError" rx="1.5" ry="1.5" style="stroke:#C6A0F6;stroke-width:2.0;" width="145.6543" x="1441.17" y="562.91"/><ellipse cx="1454.17" cy="577.3319" fill="#FFFFFF" rx="9" ry="9" style="stroke:#000000;stroke-width:1.0;"/><path d="M1451.1778,574.6073 L1451.1778,573.0838 L1456.3868,573.0838 L1456.3868,574.6073 L1454.6466,574.6073 L1454.6466,580.3084 L1456.3868,580.3084 L1456.3868,581.8319 L1451.1778,581.8319 L1451.1778,580.3084 L1452.918,580.3084 L1452.918,574.6073 Z " fill="#CAD3F5"/><text fill="#A6DA95" font-family="sans-serif" font-size="16" font-style="italic" lengthAdjust="spacing" textLength="90.5859" x="1466.17" y="583.3788">MonadError</text><rect fill="#24273A" height="16.584" style="stroke:#C6A0F6;stroke-width:1.0;stroke-dasharray:2.0,2.0;" width="25.0684" x="1564.7559" y="559.91"/><text fill="#000000" font-family="Verdana" font-size="12" font-style="italic" lengthAdjust="spacing" textLength="23.0684" x="1565.7559" y="572.9745">F, E</text></g><!--class Try--><g id="elem_Try"><rect codeLine="17" fill="#24273A" height="28.8438" id="Try" rx="1.5" ry="1.5" style="stroke:#C6A0F6;stroke-width:2.0;" width="64.418" x="1322.79" y="293.95"/><rect fill="#363A4F" height="28.8438" rx="1.5" ry="1.5" style="stroke:#363A4F;stroke-width:2.0;" width="64.418" x="1322.79" y="293.95"/><rect fill="#363A4F" height="1.5" style="stroke:#363A4F;stroke-width:2.0;" width="64.418" x="1322.79" y="321.2938"/><rect codeLine="17" fill="none" height="28.8438" id="Try" rx="1.5" ry="1.5" style="stroke:#C6A0F6;stroke-width:2.0;" width="64.418" x="1322.79" y="293.95"/><ellipse cx="1335.79" cy="308.3719" fill="#FFFFFF" rx="9" ry="9" style="stroke:#000000;stroke-width:1.0;"/><path d="M1332.7978,305.6473 L1332.7978,304.1238 L1338.0068,304.1238 L1338.0068,305.6473 L1336.2666,305.6473 L1336.2666,311.3484 L1338.0068,311.3484 L1338.0068,312.8719 L1332.7978,312.8719 L1332.7978,311.3484 L1334.538,311.3484 L1334.538,305.6473 Z " fill="#CAD3F5"/><text fill="#A6DA95" font-family="sans-serif" font-size="16" font-style="italic" lengthAdjust="spacing" textLength="25.0234" x="1347.79" y="314.4188">Try</text><rect fill="#24273A" height="16.584" style="stroke:#C6A0F6;stroke-width:1.0;stroke-dasharray:2.0,2.0;" width="9.3945" x="1380.8134" y="290.95"/><text fill="#000000" font-family="Verdana" font-size="12" font-style="italic" lengthAdjust="spacing" textLength="7.3945" x="1381.8134" y="304.0145">T</text></g><!--class TryKind--><g id="elem_TryKind"><rect codeLine="24" fill="#24273A" height="28.8438" id="TryKind" rx="1.5" ry="1.5" style="stroke:#C6A0F6;stroke-width:2.0;" width="335.0254" x="798.49" y="293.95"/><rect fill="#363A4F" height="28.8438" rx="1.5" ry="1.5" style="stroke:#363A4F;stroke-width:2.0;" width="335.0254" x="798.49" y="293.95"/><rect fill="#363A4F" height="1.5" style="stroke:#363A4F;stroke-width:2.0;" width="335.0254" x="798.49" y="321.2938"/><rect codeLine="24" fill="none" height="28.8438" id="TryKind" rx="1.5" ry="1.5" style="stroke:#C6A0F6;stroke-width:2.0;" width="335.0254" x="798.49" y="293.95"/><ellipse cx="811.49" cy="308.3719" fill="#FFFFFF" rx="9" ry="9" style="stroke:#000000;stroke-width:1.0;"/><path d="M808.4978,305.6473 L808.4978,304.1238 L813.7068,304.1238 L813.7068,305.6473 L811.9666,305.6473 L811.9666,311.3484 L813.7068,311.3484 L813.7068,312.8719 L808.4978,312.8719 L808.4978,311.3484 L810.238,311.3484 L810.238,305.6473 Z " fill="#CAD3F5"/><text fill="#A6DA95" font-family="sans-serif" font-size="16" font-style="italic" lengthAdjust="spacing" textLength="214.5781" x="823.49" y="314.4188">TryKind&lt;T&gt;" extends "Kind</text><rect fill="#24273A" height="16.584" style="stroke:#C6A0F6;stroke-width:1.0;stroke-dasharray:2.0,2.0;" width="90.4473" x="1046.0681" y="290.95"/><text fill="#000000" font-family="Verdana" font-size="12" font-style="italic" lengthAdjust="spacing" textLength="88.4473" x="1047.0681" y="304.0145">TryKind&lt;?&gt;, T</text></g><!--class TryFunctor--><g id="elem_TryFunctor"><rect codeLine="26" fill="#24273A" height="50.9766" id="TryFunctor" rx="1.5" ry="1.5" style="stroke:#C6A0F6;stroke-width:2.0;" width="440.8184" x="195.59" y="551.84"/><rect fill="#363A4F" height="28.8438" rx="1.5" ry="1.5" style="stroke:#363A4F;stroke-width:2.0;" width="440.8184" x="195.59" y="551.84"/><rect fill="#363A4F" height="1.5" style="stroke:#363A4F;stroke-width:2.0;" width="440.8184" x="195.59" y="579.1838"/><rect codeLine="26" fill="none" height="50.9766" id="TryFunctor" rx="1.5" ry="1.5" style="stroke:#C6A0F6;stroke-width:2.0;" width="440.8184" x="195.59" y="551.84"/><ellipse cx="370.2414" cy="566.2619" fill="#FFFFFF" rx="9" ry="9" style="stroke:#000000;stroke-width:1.0;"/><path d="M372.0754,570.5099 Q371.6652,570.7209 371.214,570.8263 Q370.7629,570.9318 370.2648,570.9318 Q368.4953,570.9318 367.5636,569.7658 Q366.632,568.5998 366.632,566.3966 Q366.632,564.1877 367.5636,563.0216 Q368.4953,561.8556 370.2648,561.8556 Q370.7629,561.8556 371.2199,561.9611 Q371.6769,562.0666 372.0754,562.2775 L372.0754,564.1994 Q371.63,563.7892 371.2111,563.5988 Q370.7921,563.4084 370.3468,563.4084 Q369.3976,563.4084 368.9142,564.1613 Q368.4308,564.9142 368.4308,566.3966 Q368.4308,567.8732 368.9142,568.6261 Q369.3976,569.3791 370.3468,569.3791 Q370.7921,569.3791 371.2111,569.1886 Q371.63,568.9982 372.0754,568.588 Z " fill="#CAD3F5"/><text fill="#A6DA95" font-family="sans-serif" font-size="16" lengthAdjust="spacing" textLength="84.0156" x="387.7414" y="572.3088">TryFunctor</text><line style="stroke:#C6A0F6;stroke-width:2.0;" x1="196.59" x2="635.4084" y1="580.6838" y2="580.6838"/><text fill="#A6DA95" font-family="sans-serif" font-size="12" lengthAdjust="spacing" textLength="428.8184" x="201.59" y="596.2853">+Kind&lt;TryKind&lt;?&gt;, B&gt; map(Function&lt;A, B&gt; f, Kind&lt;TryKind&lt;?&gt;, A&gt; fa)</text></g><!--class Functor--><g id="elem_Functor"><rect fill="#24273A" height="28.8438" id="Functor" rx="1.5" ry="1.5" style="stroke:#C6A0F6;stroke-width:2.0;" width="86.9922" x="69.5" y="428.86"/><rect fill="#363A4F" height="28.8438" rx="1.5" ry="1.5" style="stroke:#363A4F;stroke-width:2.0;" width="86.9922" x="69.5" y="428.86"/><rect fill="#363A4F" height="1.5" style="stroke:#363A4F;stroke-width:2.0;" width="86.9922" x="69.5" y="456.2037"/><rect fill="none" height="28.8438" id="Functor" rx="1.5" ry="1.5" style="stroke:#C6A0F6;stroke-width:2.0;" width="86.9922" x="69.5" y="428.86"/><ellipse cx="82.5" cy="443.2819" fill="#FFFFFF" rx="9" ry="9" style="stroke:#000000;stroke-width:1.0;"/><path d="M79.5078,440.5573 L79.5078,439.0338 L84.7168,439.0338 L84.7168,440.5573 L82.9766,440.5573 L82.9766,446.2584 L84.7168,446.2584 L84.7168,447.7819 L79.5078,447.7819 L79.5078,446.2584 L81.248,446.2584 L81.248,440.5573 Z " fill="#CAD3F5"/><text fill="#A6DA95" font-family="sans-serif" font-size="16" font-style="italic" lengthAdjust="spacing" textLength="58.9922" x="94.5" y="449.3287">Functor</text></g><!--class TryApplicative--><g id="elem_TryApplicative"><rect codeLine="29" fill="#24273A" height="65.1094" id="TryApplicative" rx="1.5" ry="1.5" style="stroke:#C6A0F6;stroke-width:2.0;" width="556.2129" x="191.89" y="410.73"/><rect fill="#363A4F" height="28.8438" rx="1.5" ry="1.5" style="stroke:#363A4F;stroke-width:2.0;" width="556.2129" x="191.89" y="410.73"/><rect fill="#363A4F" height="1.5" style="stroke:#363A4F;stroke-width:2.0;" width="556.2129" x="191.89" y="438.0737"/><rect codeLine="29" fill="none" height="65.1094" id="TryApplicative" rx="1.5" ry="1.5" style="stroke:#C6A0F6;stroke-width:2.0;" width="556.2129" x="191.89" y="410.73"/><ellipse cx="411.1019" cy="425.1519" fill="#FFFFFF" rx="9" ry="9" style="stroke:#000000;stroke-width:1.0;"/><path d="M412.9359,429.3999 Q412.5257,429.6109 412.0746,429.7163 Q411.6234,429.8218 411.1254,429.8218 Q409.3558,429.8218 408.4242,428.6558 Q407.4925,427.4898 407.4925,425.2866 Q407.4925,423.0777 408.4242,421.9116 Q409.3558,420.7456 411.1254,420.7456 Q411.6234,420.7456 412.0804,420.8511 Q412.5375,420.9566 412.9359,421.1675 L412.9359,423.0894 Q412.4906,422.6792 412.0716,422.4888 Q411.6527,422.2984 411.2074,422.2984 Q410.2582,422.2984 409.7748,423.0513 Q409.2914,423.8042 409.2914,425.2866 Q409.2914,426.7632 409.7748,427.5161 Q410.2582,428.2691 411.2074,428.2691 Q411.6527,428.2691 412.0716,428.0786 Q412.4906,427.8882 412.9359,427.478 Z " fill="#CAD3F5"/><text fill="#A6DA95" font-family="sans-serif" font-size="16" lengthAdjust="spacing" textLength="110.2891" x="428.6019" y="431.1987">TryApplicative</text><line style="stroke:#C6A0F6;stroke-width:2.0;" x1="192.89" x2="747.1029" y1="439.5737" y2="439.5737"/><text fill="#A6DA95" font-family="sans-serif" font-size="12" lengthAdjust="spacing" textLength="205.9043" x="197.89" y="455.1753">+Kind&lt;TryKind&lt;?&gt;, A&gt; of(A value)</text><text fill="#A6DA95" font-family="sans-serif" font-size="12" lengthAdjust="spacing" textLength="544.2129" x="197.89" y="469.3081">+Kind&lt;TryKind&lt;?&gt;, B&gt; ap(Kind&lt;TryKind&lt;?&gt;, Function&lt;A, B&gt;&gt; ff, Kind&lt;TryKind&lt;?&gt;, A&gt; fa)</text></g><!--class Applicative--><g id="elem_Applicative"><rect fill="#24273A" height="28.8438" id="Applicative" rx="1.5" ry="1.5" style="stroke:#C6A0F6;stroke-width:2.0;" width="113.2656" x="27.37" y="293.95"/><rect fill="#363A4F" height="28.8438" rx="1.5" ry="1.5" style="stroke:#363A4F;stroke-width:2.0;" width="113.2656" x="27.37" y="293.95"/><rect fill="#363A4F" height="1.5" style="stroke:#363A4F;stroke-width:2.0;" width="113.2656" x="27.37" y="321.2938"/><rect fill="none" height="28.8438" id="Applicative" rx="1.5" ry="1.5" style="stroke:#C6A0F6;stroke-width:2.0;" width="113.2656" x="27.37" y="293.95"/><ellipse cx="40.37" cy="308.3719" fill="#FFFFFF" rx="9" ry="9" style="stroke:#000000;stroke-width:1.0;"/><path d="M37.3778,305.6473 L37.3778,304.1238 L42.5868,304.1238 L42.5868,305.6473 L40.8466,305.6473 L40.8466,311.3484 L42.5868,311.3484 L42.5868,312.8719 L37.3778,312.8719 L37.3778,311.3484 L39.118,311.3484 L39.118,305.6473 Z " fill="#CAD3F5"/><text fill="#A6DA95" font-family="sans-serif" font-size="16" font-style="italic" lengthAdjust="spacing" textLength="85.2656" x="52.37" y="314.4188">Applicative</text></g><!--class TryMonad--><g id="elem_TryMonad"><rect codeLine="33" fill="#24273A" height="50.9766" id="TryMonad" rx="1.5" ry="1.5" style="stroke:#C6A0F6;stroke-width:2.0;" width="587.9238" x="176.04" y="282.89"/><rect fill="#363A4F" height="28.8438" rx="1.5" ry="1.5" style="stroke:#363A4F;stroke-width:2.0;" width="587.9238" x="176.04" y="282.89"/><rect fill="#363A4F" height="1.5" style="stroke:#363A4F;stroke-width:2.0;" width="587.9238" x="176.04" y="310.2338"/><rect codeLine="33" fill="none" height="50.9766" id="TryMonad" rx="1.5" ry="1.5" style="stroke:#C6A0F6;stroke-width:2.0;" width="587.9238" x="176.04" y="282.89"/><ellipse cx="427.5175" cy="297.3119" fill="#FFFFFF" rx="9" ry="9" style="stroke:#000000;stroke-width:1.0;"/><path d="M429.3515,301.5599 Q428.9414,301.7709 428.4902,301.8763 Q428.039,301.9818 427.541,301.9818 Q425.7714,301.9818 424.8398,300.8158 Q423.9082,299.6498 423.9082,297.4466 Q423.9082,295.2377 424.8398,294.0716 Q425.7714,292.9056 427.541,292.9056 Q428.039,292.9056 428.4961,293.0111 Q428.9531,293.1166 429.3515,293.3275 L429.3515,295.2494 Q428.9062,294.8392 428.4873,294.6488 Q428.0683,294.4584 427.623,294.4584 Q426.6738,294.4584 426.1904,295.2113 Q425.707,295.9642 425.707,297.4466 Q425.707,298.9232 426.1904,299.6761 Q426.6738,300.4291 427.623,300.4291 Q428.0683,300.4291 428.4873,300.2386 Q428.9062,300.0482 429.3515,299.638 Z " fill="#CAD3F5"/><text fill="#A6DA95" font-family="sans-serif" font-size="16" lengthAdjust="spacing" textLength="77.4688" x="445.0175" y="303.3588">TryMonad</text><line style="stroke:#C6A0F6;stroke-width:2.0;" x1="177.04" x2="762.9638" y1="311.7338" y2="311.7338"/><text fill="#A6DA95" font-family="sans-serif" font-size="12" lengthAdjust="spacing" textLength="575.9238" x="182.04" y="327.3353">+Kind&lt;TryKind&lt;?&gt;, B&gt; flatMap(Function&lt;A, Kind&lt;TryKind&lt;?&gt;, B&gt;&gt; f, Kind&lt;TryKind&lt;?&gt;, A&gt; ma)</text></g><!--class Monad--><g id="elem_Monad"><rect fill="#24273A" height="28.8438" id="Monad" rx="1.5" ry="1.5" style="stroke:#C6A0F6;stroke-width:2.0;" width="80.4453" x="284.78" y="151.98"/><rect fill="#363A4F" height="28.8438" rx="1.5" ry="1.5" style="stroke:#363A4F;stroke-width:2.0;" width="80.4453" x="284.78" y="151.98"/><rect fill="#363A4F" height="1.5" style="stroke:#363A4F;stroke-width:2.0;" width="80.4453" x="284.78" y="179.3238"/><rect fill="none" height="28.8438" id="Monad" rx="1.5" ry="1.5" style="stroke:#C6A0F6;stroke-width:2.0;" width="80.4453" x="284.78" y="151.98"/><ellipse cx="297.78" cy="166.4019" fill="#FFFFFF" rx="9" ry="9" style="stroke:#000000;stroke-width:1.0;"/><path d="M294.7878,163.6773 L294.7878,162.1538 L299.9968,162.1538 L299.9968,163.6773 L298.2566,163.6773 L298.2566,169.3784 L299.9968,169.3784 L299.9968,170.9019 L294.7878,170.9019 L294.7878,169.3784 L296.528,169.3784 L296.528,163.6773 Z " fill="#CAD3F5"/><text fill="#A6DA95" font-family="sans-serif" font-size="16" font-style="italic" lengthAdjust="spacing" textLength="52.4453" x="309.78" y="172.4488">Monad</text></g><!--class TryMonadError--><g id="elem_TryMonadError"><rect codeLine="36" fill="#24273A" height="65.1094" id="TryMonadError" rx="1.5" ry="1.5" style="stroke:#C6A0F6;stroke-width:2.0;" width="733.0137" x="400.49" y="133.84"/><rect fill="#363A4F" height="28.8438" rx="1.5" ry="1.5" style="stroke:#363A4F;stroke-width:2.0;" width="733.0137" x="400.49" y="133.84"/><rect fill="#363A4F" height="1.5" style="stroke:#363A4F;stroke-width:2.0;" width="733.0137" x="400.49" y="161.1837"/><rect codeLine="36" fill="none" height="65.1094" id="TryMonadError" rx="1.5" ry="1.5" style="stroke:#C6A0F6;stroke-width:2.0;" width="733.0137" x="400.49" y="133.84"/><ellipse cx="705.4421" cy="148.2619" fill="#FFFFFF" rx="9" ry="9" style="stroke:#000000;stroke-width:1.0;"/><path d="M707.2761,152.5099 Q706.866,152.7209 706.4148,152.8263 Q705.9636,152.9318 705.4656,152.9318 Q703.6961,152.9318 702.7644,151.7658 Q701.8328,150.5998 701.8328,148.3966 Q701.8328,146.1877 702.7644,145.0216 Q703.6961,143.8556 705.4656,143.8556 Q705.9636,143.8556 706.4207,143.9611 Q706.8777,144.0666 707.2761,144.2775 L707.2761,146.1994 Q706.8308,145.7892 706.4119,145.5988 Q705.9929,145.4084 705.5476,145.4084 Q704.5984,145.4084 704.115,146.1613 Q703.6316,146.9142 703.6316,148.3966 Q703.6316,149.8732 704.115,150.6261 Q704.5984,151.3791 705.5476,151.3791 Q705.9929,151.3791 706.4119,151.1886 Q706.8308,150.9982 707.2761,150.588 Z " fill="#CAD3F5"/><text fill="#A6DA95" font-family="sans-serif" font-size="16" lengthAdjust="spacing" textLength="115.6094" x="722.9421" y="154.3087">TryMonadError</text><line style="stroke:#C6A0F6;stroke-width:2.0;" x1="401.49" x2="1132.5037" y1="162.6837" y2="162.6837"/><text fill="#A6DA95" font-family="sans-serif" font-size="12" lengthAdjust="spacing" textLength="301.5" x="406.49" y="178.2853">+Kind&lt;TryKind&lt;?&gt;, A&gt; raiseError(Throwable error)</text><text fill="#A6DA95" font-family="sans-serif" font-size="12" lengthAdjust="spacing" textLength="721.0137" x="406.49" y="192.4181">+Kind&lt;TryKind&lt;?&gt;, A&gt; handleErrorWith(Kind&lt;TryKind&lt;?&gt;, A&gt; ma, Function&lt;Throwable, Kind&lt;TryKind&lt;?&gt;, A&gt;&gt; handler)</text></g><!--class MonadError--><g id="elem_MonadError"><rect fill="#24273A" height="28.8438" id="MonadError" rx="1.5" ry="1.5" style="stroke:#C6A0F6;stroke-width:2.0;" width="118.5859" x="707.71" y="44"/><rect fill="#363A4F" height="28.8438" rx="1.5" ry="1.5" style="stroke:#363A4F;stroke-width:2.0;" width="118.5859" x="707.71" y="44"/><rect fill="#363A4F" height="1.5" style="stroke:#363A4F;stroke-width:2.0;" width="118.5859" x="707.71" y="71.3438"/><rect fill="none" height="28.8438" id="MonadError" rx="1.5" ry="1.5" style="stroke:#C6A0F6;stroke-width:2.0;" width="118.5859" x="707.71" y="44"/><ellipse cx="720.71" cy="58.4219" fill="#FFFFFF" rx="9" ry="9" style="stroke:#000000;stroke-width:1.0;"/><path d="M717.7178,55.6973 L717.7178,54.1738 L722.9268,54.1738 L722.9268,55.6973 L721.1866,55.6973 L721.1866,61.3984 L722.9268,61.3984 L722.9268,62.9219 L717.7178,62.9219 L717.7178,61.3984 L719.458,61.3984 L719.458,55.6973 Z " fill="#CAD3F5"/><text fill="#A6DA95" font-family="sans-serif" font-size="16" font-style="italic" lengthAdjust="spacing" textLength="90.5859" x="732.71" y="64.4688">MonadError</text></g><!--class Functor--><g id="elem_Functor"><rect fill="#24273A" height="28.8438" id="Functor" rx="1.5" ry="1.5" style="stroke:#C6A0F6;stroke-width:2.0;" width="86.9922" x="372.5" y="680.82"/><rect fill="#363A4F" height="28.8438" rx="1.5" ry="1.5" style="stroke:#363A4F;stroke-width:2.0;" width="86.9922" x="372.5" y="680.82"/><rect fill="#363A4F" height="1.5" style="stroke:#363A4F;stroke-width:2.0;" width="86.9922" x="372.5" y="708.1637"/><rect fill="none" height="28.8438" id="Functor" rx="1.5" ry="1.5" style="stroke:#C6A0F6;stroke-width:2.0;" width="86.9922" x="372.5" y="680.82"/><ellipse cx="385.5" cy="695.2419" fill="#FFFFFF" rx="9" ry="9" style="stroke:#000000;stroke-width:1.0;"/><path d="M387.334,699.4899 Q386.9238,699.7009 386.4727,699.8063 Q386.0215,699.9118 385.5234,699.9118 Q383.7539,699.9118 382.8223,698.7458 Q381.8906,697.5798 381.8906,695.3766 Q381.8906,693.1677 382.8223,692.0016 Q383.7539,690.8356 385.5234,690.8356 Q386.0215,690.8356 386.4785,690.9411 Q386.9355,691.0466 387.334,691.2575 L387.334,693.1794 Q386.8887,692.7692 386.4697,692.5788 Q386.0508,692.3884 385.6055,692.3884 Q384.6563,692.3884 384.1729,693.1413 Q383.6895,693.8942 383.6895,695.3766 Q383.6895,696.8532 384.1729,697.6061 Q384.6563,698.3591 385.6055,698.3591 Q386.0508,698.3591 386.4697,698.1686 Q386.8887,697.9782 387.334,697.568 Z " fill="#CAD3F5"/><text fill="#A6DA95" font-family="sans-serif" font-size="16" lengthAdjust="spacing" textLength="58.9922" x="397.5" y="701.2887">Functor</text></g><!--class Applicative--><g id="elem_Applicative"><rect fill="#24273A" height="28.8438" id="Applicative" rx="1.5" ry="1.5" style="stroke:#C6A0F6;stroke-width:2.0;" width="113.2656" x="1166.37" y="562.91"/><rect fill="#363A4F" height="28.8438" rx="1.5" ry="1.5" style="stroke:#363A4F;stroke-width:2.0;" width="113.2656" x="1166.37" y="562.91"/><rect fill="#363A4F" height="1.5" style="stroke:#363A4F;stroke-width:2.0;" width="113.2656" x="1166.37" y="590.2538"/><rect fill="none" height="28.8438" id="Applicative" rx="1.5" ry="1.5" style="stroke:#C6A0F6;stroke-width:2.0;" width="113.2656" x="1166.37" y="562.91"/><ellipse cx="1179.37" cy="577.3319" fill="#FFFFFF" rx="9" ry="9" style="stroke:#000000;stroke-width:1.0;"/><path d="M1181.204,581.5799 Q1180.7938,581.7909 1180.3427,581.8963 Q1179.8915,582.0018 1179.3934,582.0018 Q1177.6239,582.0018 1176.6923,580.8358 Q1175.7606,579.6698 1175.7606,577.4666 Q1175.7606,575.2577 1176.6923,574.0916 Q1177.6239,572.9256 1179.3934,572.9256 Q1179.8915,572.9256 1180.3485,573.0311 Q1180.8055,573.1366 1181.204,573.3475 L1181.204,575.2694 Q1180.7587,574.8592 1180.3397,574.6688 Q1179.9208,574.4784 1179.4755,574.4784 Q1178.5263,574.4784 1178.0429,575.2313 Q1177.5595,575.9842 1177.5595,577.4666 Q1177.5595,578.9432 1178.0429,579.6961 Q1178.5263,580.4491 1179.4755,580.4491 Q1179.9208,580.4491 1180.3397,580.2586 Q1180.7587,580.0682 1181.204,579.658 Z " fill="#CAD3F5"/><text fill="#A6DA95" font-family="sans-serif" font-size="16" lengthAdjust="spacing" textLength="85.2656" x="1191.37" y="583.3788">Applicative</text></g><!--class Monad--><g id="elem_Monad"><rect fill="#24273A" height="28.8438" id="Monad" rx="1.5" ry="1.5" style="stroke:#C6A0F6;stroke-width:2.0;" width="80.4453" x="1729.78" y="428.86"/><rect fill="#363A4F" height="28.8438" rx="1.5" ry="1.5" style="stroke:#363A4F;stroke-width:2.0;" width="80.4453" x="1729.78" y="428.86"/><rect fill="#363A4F" height="1.5" style="stroke:#363A4F;stroke-width:2.0;" width="80.4453" x="1729.78" y="456.2037"/><rect fill="none" height="28.8438" id="Monad" rx="1.5" ry="1.5" style="stroke:#C6A0F6;stroke-width:2.0;" width="80.4453" x="1729.78" y="428.86"/><ellipse cx="1742.78" cy="443.2819" fill="#FFFFFF" rx="9" ry="9" style="stroke:#000000;stroke-width:1.0;"/><path d="M1744.614,447.5299 Q1744.2038,447.7409 1743.7527,447.8463 Q1743.3015,447.9518 1742.8034,447.9518 Q1741.0339,447.9518 1740.1023,446.7858 Q1739.1706,445.6198 1739.1706,443.4166 Q1739.1706,441.2077 1740.1023,440.0416 Q1741.0339,438.8756 1742.8034,438.8756 Q1743.3015,438.8756 1743.7585,438.9811 Q1744.2155,439.0866 1744.614,439.2975 L1744.614,441.2194 Q1744.1687,440.8092 1743.7497,440.6188 Q1743.3308,440.4284 1742.8855,440.4284 Q1741.9363,440.4284 1741.4529,441.1813 Q1740.9695,441.9342 1740.9695,443.4166 Q1740.9695,444.8932 1741.4529,445.6461 Q1741.9363,446.3991 1742.8855,446.3991 Q1743.3308,446.3991 1743.7497,446.2086 Q1744.1687,446.0182 1744.614,445.608 Z " fill="#CAD3F5"/><text fill="#A6DA95" font-family="sans-serif" font-size="16" lengthAdjust="spacing" textLength="52.4453" x="1754.78" y="449.3287">Monad</text></g><!--class MonadError--><g id="elem_MonadError"><rect fill="#24273A" height="28.8438" id="MonadError" rx="1.5" ry="1.5" style="stroke:#C6A0F6;stroke-width:2.0;" width="118.5859" x="1168.71" y="293.95"/><rect fill="#363A4F" height="28.8438" rx="1.5" ry="1.5" style="stroke:#363A4F;stroke-width:2.0;" width="118.5859" x="1168.71" y="293.95"/><rect fill="#363A4F" height="1.5" style="stroke:#363A4F;stroke-width:2.0;" width="118.5859" x="1168.71" y="321.2938"/><rect fill="none" height="28.8438" id="MonadError" rx="1.5" ry="1.5" style="stroke:#C6A0F6;stroke-width:2.0;" width="118.5859" x="1168.71" y="293.95"/><ellipse cx="1181.71" cy="308.3719" fill="#FFFFFF" rx="9" ry="9" style="stroke:#000000;stroke-width:1.0;"/><path d="M1183.544,312.6199 Q1183.1338,312.8309 1182.6827,312.9363 Q1182.2315,313.0418 1181.7334,313.0418 Q1179.9639,313.0418 1179.0323,311.8758 Q1178.1006,310.7098 1178.1006,308.5066 Q1178.1006,306.2977 1179.0323,305.1316 Q1179.9639,303.9656 1181.7334,303.9656 Q1182.2315,303.9656 1182.6885,304.0711 Q1183.1455,304.1766 1183.544,304.3875 L1183.544,306.3094 Q1183.0987,305.8992 1182.6797,305.7088 Q1182.2608,305.5184 1181.8155,305.5184 Q1180.8663,305.5184 1180.3829,306.2713 Q1179.8995,307.0242 1179.8995,308.5066 Q1179.8995,309.9832 1180.3829,310.7361 Q1180.8663,311.4891 1181.8155,311.4891 Q1182.2608,311.4891 1182.6797,311.2986 Q1183.0987,311.1082 1183.544,310.698 Z " fill="#CAD3F5"/><text fill="#A6DA95" font-family="sans-serif" font-size="16" lengthAdjust="spacing" textLength="90.5859" x="1193.71" y="314.4188">MonadError</text></g><!--reverse link Functor to TryFunctor--><g id="link_Functor_TryFunctor"><path d="M154.5214,466.508 C165.3414,472.198 162.22,470.36 174,475.84 C233.5,503.52 302.78,531.91 351.93,551.43 " fill="none" id="Functor-backto-TryFunctor" style="stroke:#F5BDE6;stroke-width:1.0;stroke-dasharray:7.0,7.0;"/><polygon fill="none" points="138.59,458.13,151.7287,471.8184,157.3141,461.1975,138.59,458.13" style="stroke:#F5BDE6;stroke-width:1.0;"/></g><!--reverse link TryFunctor to TryApplicative--><g id="link_TryFunctor_TryApplicative"><path d="M457.0089,538.2977 C464.9789,529.7677 460.41,532.74 465,521.84 C470.97,507.66 472.61,490.73 472.6,476.31 " fill="none" id="TryFunctor-backto-TryApplicative" style="stroke:#F5BDE6;stroke-width:1.0;"/><polygon fill="none" points="444.72,551.45,461.393,542.394,452.6248,534.2014,444.72,551.45" style="stroke:#F5BDE6;stroke-width:1.0;"/></g><!--link TryApplicative to TryFunctor--><g id="link_TryApplicative_TryFunctor"><path codeLine="51" d="M429.33,476.11 C421.06,484.78 413.52,494.85 409,505.84 C403.1,520.17 403.3812,531.619 406.5312,545.489 " fill="none" id="TryApplicative-to-TryFunctor" style="stroke:#F5BDE6;stroke-width:1.0;"/><polygon fill="#F5BDE6" points="407.86,551.34,409.7674,541.6776,406.7527,546.4642,401.9661,543.4494,407.86,551.34" style="stroke:#F5BDE6;stroke-width:1.0;"/><text fill="#CAD3F5" font-family="sans-serif" font-size="12" lengthAdjust="spacing" textLength="46.3359" x="410" y="518.4416">extends</text></g><!--reverse link Applicative to TryApplicative--><g id="link_Applicative_TryApplicative"><path d="M125.1303,331.659 C139.4603,339.219 141.98,339.99 159,346.8 C220.62,371.43 291.19,393.57 349.52,410.31 " fill="none" id="Applicative-backto-TryApplicative" style="stroke:#F5BDE6;stroke-width:1.0;stroke-dasharray:7.0,7.0;"/><polygon fill="none" points="109.21,323.26,122.3307,336.9658,127.93,326.3522,109.21,323.26" style="stroke:#F5BDE6;stroke-width:1.0;"/></g><!--reverse link TryApplicative to TryMonad--><g id="link_TryApplicative_TryMonad"><path d="M492.1984,393.6505 C497.4684,379.4905 495.02,379.41 492,363.86 C490.05,353.85 486.27,343.34 482.38,334.26 " fill="none" id="TryApplicative-backto-TryMonad" style="stroke:#F5BDE6;stroke-width:1.0;"/><polygon fill="none" points="485.92,410.52,497.8216,395.7433,486.5752,391.5577,485.92,410.52" style="stroke:#F5BDE6;stroke-width:1.0;"/></g><!--link TryMonad to TryApplicative--><g id="link_TryMonad_TryApplicative"><path codeLine="50" d="M450.39,334.29 C444.58,343.12 438.98,353.47 436,363.86 C431.46,379.7 434.2692,391.3328 442.2892,405.3428 " fill="none" id="TryMonad-to-TryApplicative" style="stroke:#F5BDE6;stroke-width:1.0;"/><polygon fill="#F5BDE6" points="445.27,410.55,444.2702,400.752,442.786,406.2107,437.3273,404.7265,445.27,410.55" style="stroke:#F5BDE6;stroke-width:1.0;"/><text fill="#CAD3F5" font-family="sans-serif" font-size="12" lengthAdjust="spacing" textLength="46.3359" x="437" y="376.4616">extends</text></g><!--reverse link Monad to TryMonad--><g id="link_Monad_TryMonad"><path d="M352.1191,193.5728 C376.4891,217.1028 413.73,253.05 444.37,282.63 " fill="none" id="Monad-backto-TryMonad" style="stroke:#F5BDE6;stroke-width:1.0;stroke-dasharray:7.0,7.0;"/><polygon fill="none" points="339.17,181.07,347.9515,197.8892,356.2867,189.2564,339.17,181.07" style="stroke:#F5BDE6;stroke-width:1.0;"/></g><!--reverse link TryMonad to TryMonadError--><g id="link_TryMonad_TryMonadError"><path d="M538.9625,274.8667 C588.1925,251.6667 645.65,224.59 699.23,199.34 " fill="none" id="TryMonad-backto-TryMonadError" style="stroke:#F5BDE6;stroke-width:1.0;"/><polygon fill="none" points="522.68,282.54,541.5203,280.2942,536.4048,269.4392,522.68,282.54" style="stroke:#F5BDE6;stroke-width:1.0;"/></g><!--link TryMonadError to TryMonad--><g id="link_TryMonadError_TryMonad"><path codeLine="49" d="M621.75,199.39 C598.33,207.33 574.92,217.08 554,228.95 C529.53,242.84 510.5764,260.7807 494.8464,278.0807 " fill="none" id="TryMonadError-to-TryMonad" style="stroke:#F5BDE6;stroke-width:1.0;"/><polygon fill="#F5BDE6" points="490.81,282.52,499.8242,278.552,494.1737,278.8206,493.9051,273.1701,490.81,282.52" style="stroke:#F5BDE6;stroke-width:1.0;"/><text fill="#CAD3F5" font-family="sans-serif" font-size="12" lengthAdjust="spacing" textLength="46.3359" x="555" y="241.5516">extends</text></g><!--reverse link MonadError to TryMonadError--><g id="link_MonadError_TryMonadError"><path d="M767,91.28 C767,106.54 767,113.58 767,133.71 " fill="none" id="MonadError-backto-TryMonadError" style="stroke:#F5BDE6;stroke-width:1.0;stroke-dasharray:7.0,7.0;"/><polygon fill="none" points="767,73.28,761,91.28,773,91.28,767,73.28" style="stroke:#F5BDE6;stroke-width:1.0;"/></g><!--link TryFunctor to Functor--><g id="link_TryFunctor_Functor"><path codeLine="44" d="M416,603.19 C416,626.87 416,655.64 416,674.63 " fill="none" id="TryFunctor-to-Functor" style="stroke:#F5BDE6;stroke-width:1.0;"/><polygon fill="#F5BDE6" points="416,680.63,420,671.63,416,675.63,412,671.63,416,680.63" style="stroke:#F5BDE6;stroke-width:1.0;"/><text fill="#CAD3F5" font-family="sans-serif" font-size="12" lengthAdjust="spacing" textLength="68.3203" x="417" y="647.4216">implements</text></g><!--link TryApplicative to Applicative--><g id="link_TryApplicative_Applicative"><path codeLine="45" d="M738.89,476.29 C864.73,493.94 1016.06,519.03 1150,551.84 C1161.82,554.73 1168.7675,556.7442 1180.1575,560.6042 " fill="none" id="TryApplicative-to-Applicative" style="stroke:#F5BDE6;stroke-width:1.0;"/><polygon fill="#F5BDE6" points="1185.84,562.53,1178.6,555.853,1181.1045,560.9252,1176.0323,563.4297,1185.84,562.53" style="stroke:#F5BDE6;stroke-width:1.0;"/><text fill="#CAD3F5" font-family="sans-serif" font-size="12" lengthAdjust="spacing" textLength="68.3203" x="1003.69" y="518.4416">implements</text></g><!--link TryMonad to Monad--><g id="link_TryMonad_Monad"><path codeLine="46" d="M658.07,334.32 C698.56,339.05 741.16,343.52 781,346.8 C781.8,346.86 1709.25,387.56 1710,387.86 C1730.68,396.37 1745.0131,410.6724 1755.7831,423.7924 " fill="none" id="TryMonad-to-Monad" style="stroke:#F5BDE6;stroke-width:1.0;"/><polygon fill="#F5BDE6" points="1759.59,428.43,1756.9713,418.9357,1756.4176,424.5653,1750.7879,424.0116,1759.59,428.43" style="stroke:#F5BDE6;stroke-width:1.0;"/><text fill="#CAD3F5" font-family="sans-serif" font-size="12" lengthAdjust="spacing" textLength="68.3203" x="1510.16" y="376.4616">implements</text></g><!--link TryMonadError to MonadError--><g id="link_TryMonadError_MonadError"><path codeLine="47" d="M979.43,199.45 C1036.27,212.13 1096.69,229.47 1150,252.95 C1173.42,263.27 1192.4573,277.215 1207.4673,289.635 " fill="none" id="TryMonadError-to-MonadError" style="stroke:#F5BDE6;stroke-width:1.0;"/><polygon fill="#F5BDE6" points="1212.09,293.46,1207.706,284.6407,1208.2378,290.2725,1202.606,290.8042,1212.09,293.46" style="stroke:#F5BDE6;stroke-width:1.0;"/><text fill="#CAD3F5" font-family="sans-serif" font-size="12" lengthAdjust="spacing" textLength="68.3203" x="1131.56" y="241.5516">implements</text></g><!--link TryKind to Kind--><g id="link_TryKind_Kind"><path codeLine="53" d="M1022.29,323.24 C1058.75,331.6 1107.4,341.61 1151,346.8 C1201.68,352.82 1567.12,336.18 1610,363.86 C1632.61,378.46 1642.6,410.36 1646.61,428.66 " fill="none" id="TryKind-Kind" style="stroke:#F5BDE6;stroke-width:1.0;"/><text fill="#CAD3F5" font-family="sans-serif" font-size="12" lengthAdjust="spacing" textLength="46.3359" x="1626.21" y="376.4616">extends</text></g><!--link TryMonadError to TryKind--><g id="link_TryMonadError_TryKind"><path codeLine="55" d="M812.16,199.16 C854.36,228.84 910.4624,268.3082 941.4424,290.0982 " fill="none" id="TryMonadError-to-TryKind" style="stroke:#F5BDE6;stroke-width:1.0;stroke-dasharray:7.0,7.0;"/><polygon fill="#F5BDE6" points="946.35,293.55,941.2898,285.1005,942.2603,290.6735,936.6873,291.644,946.35,293.55" style="stroke:#F5BDE6;stroke-width:1.0;"/><text fill="#CAD3F5" font-family="sans-serif" font-size="12" lengthAdjust="spacing" textLength="161.1387" x="873.47" y="241.5516">operates on &lt;TryKind&lt;?&gt;&gt;</text></g><!--link TryMonadError to Try--><g id="link_TryMonadError_Try"><path codeLine="56" d="M1030.7,199.43 C1089.58,207.88 1151.58,217.81 1209,228.95 C1252.17,237.33 1267.2,230.48 1305,252.95 C1322.2,263.18 1333.5159,276.2724 1342.4559,288.7524 " fill="none" id="TryMonadError-to-Try" style="stroke:#F5BDE6;stroke-width:1.0;stroke-dasharray:7.0,7.0;"/><polygon fill="#F5BDE6" points="1345.95,293.63,1343.9606,283.9841,1343.0383,289.5653,1337.4571,288.6429,1345.95,293.63" style="stroke:#F5BDE6;stroke-width:1.0;"/><text fill="#CAD3F5" font-family="sans-serif" font-size="12" lengthAdjust="spacing" textLength="96.6094" x="1289.4" y="241.5516">uses methods of</text></g><!--SRC=[bLHDRzim3BtxLx2vDCMIUESYy90D3LeKtQ7DiBCYqx5GwmEItAuR-jz7otQYE6xN-IIJZn_laTAPBr4Yc8e9bPm9nQiwHoYzD-uoJIrxNko4B-jjxT1ohJmgl-1QfefhvzbSy9GpRqpDkL1poJWl1VDwJlcKhsKr3-bJITdJS5mOiYQ9UnJACCiay8evj_BUYctjyOPgF8ZV29yZI8u5gok_flBV6JKxkTTRxVKChh5wGYyucoIbeBPH6ly24kKMhKiIm_WZsn7-cxO8rxSRk242jc0StGJ-942Vw2rmArI-NCzWbGqSwrfnh-roFNIiZAcek1TFUEgyquhbRvYlh6topU0gIrwZFZVs1JOl1a-RQrpBJJO1ve2EmPkUmm-7eBH71ze2IP2ZQWKbIq6c1veBEfUkcQXgqa0Ka0ksQqJTeNVWjGOQRPlF8jSsxsEe6WXfAfgPyeUY7QXBU0g2y_I4KgFyWv1rHL9fDKukgDyGn5-qOxc3IMlfF5-o6HpeDwOa90ba6rCtfBYRVcw775bN6k0JdAJ_ce5aPXgYgCtbAfYAsIboHMPs4JAz7dSHRSIUo7XpyUvyi44ggulf2fvOLUF5kqI8nudvc1XH-3zgON5ZKZ7NY5Yxzn_NlA2jk1leFe9xSnBodNR3FOjxRaaCkssluz6gbLO_iss5_ng8PS9XY9_kOm2R_ujtuqgcygeD_4dlwtISMJIqVVPH5Vg4jjUYkOFdS8_jbNEbC0wsw9-H7eZkRhhmAlVFHHAjwNoUzPS7BYErai7K6rpyFyIsQZUezZJgRsUq1xM_HyWHw3xvPJ_Tutg3HezGGmOHyGCkwVGbHD1xu8hQMIoo_aaYa3PeMNYF5SINO3o80khcgPReIqqRgelaBm00]--></g></svg>