<svg xmlns="http://www.w3.org/2000/svg" xmlns:xlink="http://www.w3.org/1999/xlink" contentStyleType="text/css" height="733px" preserveAspectRatio="none" style="width:1632px;height:733px;background:#24273A;" version="1.1" viewBox="0 0 1632 733" width="1632px" zoomAndPan="magnify"><defs/><g><rect fill="#24273A" height="733" style="stroke:none;stroke-width:1.0;" width="1632" x="0" y="0"/><!--cluster helper--><g id="cluster_helper"><rect fill="#363A4F" height="269" rx="1.5" ry="1.5" style="stroke:#CAD3F5;stroke-width:1.0;" width="665" x="835.27" y="243"/><text fill="#CAD3F5" font-family="Helvetica" font-size="12" font-weight="bold" lengthAdjust="spacing" textLength="36.0117" x="1149.7641" y="254.2402">helper</text></g><!--class CompletableFutureKindHelper--><g id="elem_CompletableFutureKindHelper"><rect codeLine="24" fill="#24273A" height="90" id="CompletableFutureKindHelper" rx="1.5" ry="1.5" style="stroke:#C6A0F6;stroke-width:2.0;" width="399.2207" x="1084.66" y="274"/><rect fill="#363A4F" height="30" rx="1.5" ry="1.5" style="stroke:#363A4F;stroke-width:2.0;" width="399.2207" x="1084.66" y="274"/><rect fill="#363A4F" height="1.5" style="stroke:#363A4F;stroke-width:2.0;" width="399.2207" x="1084.66" y="302.5"/><rect codeLine="24" fill="none" height="90" id="CompletableFutureKindHelper" rx="1.5" ry="1.5" style="stroke:#C6A0F6;stroke-width:2.0;" width="399.2207" x="1084.66" y="274"/><ellipse cx="1172.6571" cy="289" fill="#ADD1B2" rx="10" ry="10" style="stroke:#181818;stroke-width:1.0;"/><path d="M1174.4911,293.248 Q1174.0809,293.459 1173.6297,293.5645 Q1173.1786,293.6699 1172.6805,293.6699 Q1170.911,293.6699 1169.9793,292.5039 Q1169.0477,291.3379 1169.0477,289.1348 Q1169.0477,286.9258 1169.9793,285.7598 Q1170.911,284.5938 1172.6805,284.5938 Q1173.1786,284.5938 1173.6356,284.6992 Q1174.0926,284.8047 1174.4911,285.0156 L1174.4911,286.9375 Q1174.0457,286.5273 1173.6268,286.3369 Q1173.2079,286.1465 1172.7625,286.1465 Q1171.8133,286.1465 1171.3299,286.8994 Q1170.8465,287.6523 1170.8465,289.1348 Q1170.8465,290.6113 1171.3299,291.3643 Q1171.8133,292.1172 1172.7625,292.1172 Q1173.2079,292.1172 1173.6268,291.9268 Q1174.0457,291.7363 1174.4911,291.3262 Z " fill="#CAD3F5"/><text fill="#A6DA95" font-family="Helvetica" font-size="16" lengthAdjust="spacing" textLength="215.2266" x="1191.6571" y="293.3203">CompletableFutureKindHelper</text><line style="stroke:#C6A0F6;stroke-width:2.0;" x1="1085.66" x2="1482.8807" y1="304" y2="304"/><ellipse cx="1095.66" cy="331.5" fill="#84BE84" rx="3" ry="3" style="stroke:#038048;stroke-width:1.0;"/><text fill="#A6DA95" font-family="Helvetica" font-size="12" lengthAdjust="spacing" text-decoration="underline" textLength="309.498" x="1103.66" y="333.2402">CompletableFutureKind&lt;A&gt; wrap(CompletableFuture&lt;A&gt;)</text><ellipse cx="1095.66" cy="343.5" fill="#84BE84" rx="3" ry="3" style="stroke:#038048;stroke-width:1.0;"/><text fill="#A6DA95" font-family="Helvetica" font-size="12" lengthAdjust="spacing" text-decoration="underline" textLength="374.2207" x="1103.66" y="345.2402">CompletableFuture&lt;A&gt; unwrap(Kind&lt;CompletableFutureKind&lt;?&gt;, A&gt;)</text><ellipse cx="1095.66" cy="355.5" fill="#84BE84" rx="3" ry="3" style="stroke:#038048;stroke-width:1.0;"/><text fill="#A6DA95" font-family="Helvetica" font-size="12" lengthAdjust="spacing" text-decoration="underline" textLength="237.4746" x="1103.66" y="357.2402">A join(Kind&lt;CompletableFutureKind&lt;?&gt;, A&gt;)</text><line style="stroke:#C6A0F6;stroke-width:1.0;stroke-dasharray:1.0,2.0;" x1="1085.66" x2="1225.243" y1="318" y2="318"/><text fill="#A6DA95" font-family="Helvetica" font-size="12" lengthAdjust="spacing" textLength="118.0547" x="1225.243" y="320.7402">Static Helper Methods</text><line style="stroke:#C6A0F6;stroke-width:1.0;stroke-dasharray:1.0,2.0;" x1="1343.2977" x2="1482.8807" y1="318" y2="318"/></g><!--class CompletableFutureHolder--><g id="elem_CompletableFutureHolder"><rect codeLine="32" fill="#24273A" height="58" id="CompletableFutureHolder" rx="1.5" ry="1.5" style="stroke:#C6A0F6;stroke-width:2.0;" width="225.207" x="988.67" y="438"/><rect fill="#363A4F" height="30" rx="1.5" ry="1.5" style="stroke:#363A4F;stroke-width:2.0;" width="225.207" x="988.67" y="438"/><rect fill="#363A4F" height="1.5" style="stroke:#363A4F;stroke-width:2.0;" width="225.207" x="988.67" y="466.5"/><rect codeLine="32" fill="none" height="58" id="CompletableFutureHolder" rx="1.5" ry="1.5" style="stroke:#C6A0F6;stroke-width:2.0;" width="225.207" x="988.67" y="438"/><ellipse cx="1002.67" cy="453" fill="#ADD1B2" rx="10" ry="10" style="stroke:#181818;stroke-width:1.0;"/><path d="M1004.504,457.248 Q1004.0938,457.459 1003.6427,457.5645 Q1003.1915,457.6699 1002.6934,457.6699 Q1000.9239,457.6699 999.9923,456.5039 Q999.0606,455.3379 999.0606,453.1348 Q999.0606,450.9258 999.9923,449.7598 Q1000.9239,448.5938 1002.6934,448.5938 Q1003.1915,448.5938 1003.6485,448.6992 Q1004.1055,448.8047 1004.504,449.0156 L1004.504,450.9375 Q1004.0587,450.5273 1003.6397,450.3369 Q1003.2208,450.1465 1002.7755,450.1465 Q1001.8263,450.1465 1001.3429,450.8994 Q1000.8595,451.6523 1000.8595,453.1348 Q1000.8595,454.6113 1001.3429,455.3643 Q1001.8263,456.1172 1002.7755,456.1172 Q1003.2208,456.1172 1003.6397,455.9268 Q1004.0587,455.7363 1004.504,455.3262 Z " fill="#CAD3F5"/><text fill="#A6DA95" font-family="Helvetica" font-size="16" lengthAdjust="spacing" textLength="183.2031" x="1015.67" y="457.3203">CompletableFutureHolder</text><rect fill="#24273A" height="14" style="stroke:#C6A0F6;stroke-width:1.0;stroke-dasharray:2.0,2.0;" width="10.0039" x="1206.8731" y="435"/><text fill="#CAD3F5" font-family="Helvetica" font-size="12" font-style="italic" lengthAdjust="spacing" textLength="8.0039" x="1207.8731" y="445.2402">A</text><line style="stroke:#C6A0F6;stroke-width:2.0;" x1="989.67" x2="1212.877" y1="468" y2="468"/><rect fill="none" height="6" style="stroke:#C82930;stroke-width:1.0;" width="6" x="996.67" y="476.5"/><text fill="#A6DA95" font-family="Helvetica" font-size="12" lengthAdjust="spacing" textLength="158.0918" x="1007.67" y="481.2402">CompletableFuture&lt;A&gt; future</text><line style="stroke:#C6A0F6;stroke-width:2.0;" x1="989.67" x2="1212.877" y1="488" y2="488"/></g><!--class CompletableFutureKind--><g id="elem_CompletableFutureKind"><rect fill="#24273A" height="46" id="CompletableFutureKind" rx="1.5" ry="1.5" style="stroke:#C6A0F6;stroke-width:2.0;" width="198.0938" x="851.23" y="296"/><rect fill="#363A4F" height="30" rx="1.5" ry="1.5" style="stroke:#363A4F;stroke-width:2.0;" width="198.0938" x="851.23" y="296"/><rect fill="#363A4F" height="1.5" style="stroke:#363A4F;stroke-width:2.0;" width="198.0938" x="851.23" y="324.5"/><rect fill="none" height="46" id="CompletableFutureKind" rx="1.5" ry="1.5" style="stroke:#C6A0F6;stroke-width:2.0;" width="198.0938" x="851.23" y="296"/><ellipse cx="865.23" cy="311" fill="#B4A7E5" rx="10" ry="10" style="stroke:#181818;stroke-width:1.0;"/><path d="M862.2378,308.2754 L862.2378,306.752 L867.4468,306.752 L867.4468,308.2754 L865.7066,308.2754 L865.7066,313.9766 L867.4468,313.9766 L867.4468,315.5 L862.2378,315.5 L862.2378,313.9766 L863.978,313.9766 L863.978,308.2754 Z " fill="#CAD3F5"/><text fill="#A6DA95" font-family="Helvetica" font-size="16" font-style="italic" lengthAdjust="spacing" textLength="168.0938" x="878.23" y="315.3203">CompletableFutureKind</text><line style="stroke:#C6A0F6;stroke-width:2.0;" x1="852.23" x2="1048.3238" y1="326" y2="326"/><line style="stroke:#C6A0F6;stroke-width:2.0;" x1="852.23" x2="1048.3238" y1="334" y2="334"/></g><!--class CompletableFuture--><g id="elem_CompletableFuture"><rect codeLine="3" fill="#24273A" height="154" id="CompletableFuture" rx="1.5" ry="1.5" style="stroke:#C6A0F6;stroke-width:2.0;" width="527.9395" x="961.3" y="572"/><rect fill="#363A4F" height="30" rx="1.5" ry="1.5" style="stroke:#363A4F;stroke-width:2.0;" width="527.9395" x="961.3" y="572"/><rect fill="#363A4F" height="1.5" style="stroke:#363A4F;stroke-width:2.0;" width="527.9395" x="961.3" y="600.5"/><rect codeLine="3" fill="none" height="154" id="CompletableFuture" rx="1.5" ry="1.5" style="stroke:#C6A0F6;stroke-width:2.0;" width="527.9395" x="961.3" y="572"/><ellipse cx="1147.2326" cy="587" fill="#ADD1B2" rx="10" ry="10" style="stroke:#181818;stroke-width:1.0;"/><path d="M1149.0666,591.248 Q1148.6564,591.459 1148.2053,591.5645 Q1147.7541,591.6699 1147.2561,591.6699 Q1145.4865,591.6699 1144.5549,590.5039 Q1143.6232,589.3379 1143.6232,587.1348 Q1143.6232,584.9258 1144.5549,583.7598 Q1145.4865,582.5938 1147.2561,582.5938 Q1147.7541,582.5938 1148.2111,582.6992 Q1148.6682,582.8047 1149.0666,583.0156 L1149.0666,584.9375 Q1148.6213,584.5273 1148.2023,584.3369 Q1147.7834,584.1465 1147.3381,584.1465 Q1146.3889,584.1465 1145.9055,584.8994 Q1145.4221,585.6523 1145.4221,587.1348 Q1145.4221,588.6113 1145.9055,589.3643 Q1146.3889,590.1172 1147.3381,590.1172 Q1147.7834,590.1172 1148.2023,589.9268 Q1148.6213,589.7363 1149.0666,589.3262 Z " fill="#CAD3F5"/><text fill="#A6DA95" font-family="Helvetica" font-size="16" lengthAdjust="spacing" textLength="136.0703" x="1166.2326" y="591.3203">CompletableFuture</text><rect fill="#24273A" height="14" style="stroke:#C6A0F6;stroke-width:1.0;stroke-dasharray:2.0,2.0;" width="10.0039" x="1482.2355" y="569"/><text fill="#CAD3F5" font-family="Helvetica" font-size="12" font-style="italic" lengthAdjust="spacing" textLength="8.0039" x="1483.2355" y="579.2402">A</text><line style="stroke:#C6A0F6;stroke-width:2.0;" x1="962.3" x2="1488.2395" y1="602" y2="602"/><line style="stroke:#C6A0F6;stroke-width:2.0;" x1="962.3" x2="1488.2395" y1="610" y2="610"/><ellipse cx="972.3" cy="621.5" fill="#84BE84" rx="3" ry="3" style="stroke:#038048;stroke-width:1.0;"/><text fill="#A6DA95" font-family="Helvetica" font-size="12" lengthAdjust="spacing" text-decoration="underline" textLength="233.4492" x="980.3" y="623.2402">CompletableFuture&lt;A&gt; completedFuture(A)</text><ellipse cx="972.3" cy="633.5" fill="#84BE84" rx="3" ry="3" style="stroke:#038048;stroke-width:1.0;"/><text fill="#A6DA95" font-family="Helvetica" font-size="12" lengthAdjust="spacing" text-decoration="underline" textLength="254.7949" x="980.3" y="635.2402">CompletableFuture&lt;A&gt; failedFuture(Throwable)</text><ellipse cx="972.3" cy="645.5" fill="#84BE84" rx="3" ry="3" style="stroke:#038048;stroke-width:1.0;"/><text fill="#A6DA95" font-family="Helvetica" font-size="12" lengthAdjust="spacing" textLength="102.0527" x="980.3" y="647.2402">CompletableFuture</text><text fill="#A6DA95" font-family="Helvetica" font-size="12" font-weight="bold" lengthAdjust="spacing" textLength="155.3262" x="1085.6867" y="647.2402">thenApply(Function&lt;A, B&gt;)</text><ellipse cx="972.3" cy="657.5" fill="#84BE84" rx="3" ry="3" style="stroke:#038048;stroke-width:1.0;"/><text fill="#A6DA95" font-family="Helvetica" font-size="12" lengthAdjust="spacing" textLength="102.0527" x="980.3" y="659.2402">CompletableFuture</text><text fill="#A6DA95" font-family="Helvetica" font-size="12" font-weight="bold" lengthAdjust="spacing" textLength="266.3379" x="1085.6867" y="659.2402">thenCompose(Function&lt;A, CompletableFuture</text><text fill="#A6DA95" font-family="Helvetica" font-size="12" font-weight="bold" lengthAdjust="spacing" textLength="11.0039" x="1352.0246" y="659.2402">&gt;)</text><ellipse cx="972.3" cy="669.5" fill="#84BE84" rx="3" ry="3" style="stroke:#038048;stroke-width:1.0;"/><text fill="#A6DA95" font-family="Helvetica" font-size="12" lengthAdjust="spacing" textLength="305.4961" x="980.3" y="671.2402">CompletableFuture&lt;C&gt; thenCombine(CompletableFuture</text><text fill="#A6DA95" font-family="Helvetica" font-size="12" font-weight="bold" lengthAdjust="spacing" textLength="126.668" x="1285.7961" y="671.2402">, BiFunction&lt;A, B, C&gt;)</text><ellipse cx="972.3" cy="681.5" fill="#84BE84" rx="3" ry="3" style="stroke:#038048;stroke-width:1.0;"/><text fill="#A6DA95" font-family="Helvetica" font-size="12" lengthAdjust="spacing" textLength="502.9395" x="980.3" y="683.2402">CompletableFuture&lt;A&gt; exceptionallyCompose(Function&lt;Throwable, CompletableFuture&lt;A&gt;&gt;)</text><ellipse cx="972.3" cy="693.5" fill="#84BE84" rx="3" ry="3" style="stroke:#038048;stroke-width:1.0;"/><text fill="#A6DA95" font-family="Helvetica" font-size="12" lengthAdjust="spacing" textLength="38.0098" x="980.3" y="695.2402">A join()</text><ellipse cx="972.3" cy="705.5" fill="#84BE84" rx="3" ry="3" style="stroke:#038048;stroke-width:1.0;"/><text fill="#A6DA95" font-family="Helvetica" font-size="12" lengthAdjust="spacing" textLength="91.3887" x="980.3" y="707.2402">boolean isDone()</text><ellipse cx="972.3" cy="717.5" fill="#84BE84" rx="3" ry="3" style="stroke:#038048;stroke-width:1.0;"/><text fill="#A6DA95" font-family="Helvetica" font-size="12" lengthAdjust="spacing" textLength="191.4375" x="980.3" y="719.2402">boolean isCompletedExceptionally()</text></g><!--class Kind--><g id="elem_Kind"><rect codeLine="15" fill="#24273A" height="54" id="Kind" rx="1.5" ry="1.5" style="stroke:#C6A0F6;stroke-width:2.0;" width="127.3711" x="1452.59" y="10"/><rect fill="#363A4F" height="38" rx="1.5" ry="1.5" style="stroke:#363A4F;stroke-width:2.0;" width="127.3711" x="1452.59" y="10"/><rect fill="#363A4F" height="1.5" style="stroke:#363A4F;stroke-width:2.0;" width="127.3711" x="1452.59" y="46.5"/><rect codeLine="15" fill="none" height="54" id="Kind" rx="1.5" ry="1.5" style="stroke:#C6A0F6;stroke-width:2.0;" width="127.3711" x="1452.59" y="10"/><ellipse cx="1466.59" cy="29" fill="#B4A7E5" rx="10" ry="10" style="stroke:#181818;stroke-width:1.0;"/><path d="M1463.5978,26.2754 L1463.5978,24.752 L1468.8068,24.752 L1468.8068,26.2754 L1467.0666,26.2754 L1467.0666,31.9766 L1468.8068,31.9766 L1468.8068,33.5 L1463.5978,33.5 L1463.5978,31.9766 L1465.338,31.9766 L1465.338,26.2754 Z " fill="#CAD3F5"/><text fill="#CAD3F5" font-family="Helvetica" font-size="12" font-style="italic" lengthAdjust="spacing" textLength="75.3691" x="1477.59" y="24.2402">&#171;HKT Bridge&#187;</text><text fill="#A6DA95" font-family="Helvetica" font-size="16" font-style="italic" lengthAdjust="spacing" textLength="32.0234" x="1499.2629" y="39.3203">Kind</text><rect fill="#24273A" height="14" style="stroke:#C6A0F6;stroke-width:1.0;stroke-dasharray:2.0,2.0;" width="24.002" x="1558.9591" y="7"/><text fill="#CAD3F5" font-family="Helvetica" font-size="12" font-style="italic" lengthAdjust="spacing" textLength="22.002" x="1559.9591" y="17.2402">F, A</text><line style="stroke:#C6A0F6;stroke-width:2.0;" x1="1453.59" x2="1578.9611" y1="48" y2="48"/><line style="stroke:#C6A0F6;stroke-width:2.0;" x1="1453.59" x2="1578.9611" y1="56" y2="56"/></g><!--class CompletableFutureKind--><g id="elem_CompletableFutureKind"><rect codeLine="17" fill="#24273A" height="46" id="CompletableFutureKind" rx="1.5" ry="1.5" style="stroke:#C6A0F6;stroke-width:2.0;" width="210.0977" x="1411.22" y="131"/><rect fill="#363A4F" height="30" rx="1.5" ry="1.5" style="stroke:#363A4F;stroke-width:2.0;" width="210.0977" x="1411.22" y="131"/><rect fill="#363A4F" height="1.5" style="stroke:#363A4F;stroke-width:2.0;" width="210.0977" x="1411.22" y="159.5"/><rect codeLine="17" fill="none" height="46" id="CompletableFutureKind" rx="1.5" ry="1.5" style="stroke:#C6A0F6;stroke-width:2.0;" width="210.0977" x="1411.22" y="131"/><ellipse cx="1425.22" cy="146" fill="#B4A7E5" rx="10" ry="10" style="stroke:#181818;stroke-width:1.0;"/><path d="M1422.2278,143.2754 L1422.2278,141.752 L1427.4368,141.752 L1427.4368,143.2754 L1425.6966,143.2754 L1425.6966,148.9766 L1427.4368,148.9766 L1427.4368,150.5 L1422.2278,150.5 L1422.2278,148.9766 L1423.968,148.9766 L1423.968,143.2754 Z " fill="#CAD3F5"/><text fill="#A6DA95" font-family="Helvetica" font-size="16" font-style="italic" lengthAdjust="spacing" textLength="168.0938" x="1438.22" y="150.3203">CompletableFutureKind</text><rect fill="#24273A" height="14" style="stroke:#C6A0F6;stroke-width:1.0;stroke-dasharray:2.0,2.0;" width="10.0039" x="1614.3138" y="128"/><text fill="#CAD3F5" font-family="Helvetica" font-size="12" font-style="italic" lengthAdjust="spacing" textLength="8.0039" x="1615.3138" y="138.2402">A</text><line style="stroke:#C6A0F6;stroke-width:2.0;" x1="1412.22" x2="1620.3177" y1="161" y2="161"/><line style="stroke:#C6A0F6;stroke-width:2.0;" x1="1412.22" x2="1620.3177" y1="169" y2="169"/></g><!--class Functor--><g id="elem_Functor"><rect codeLine="40" fill="#24273A" height="46" id="Functor" rx="1.5" ry="1.5" style="stroke:#C6A0F6;stroke-width:2.0;" width="95.5723" x="1080.49" y="14"/><rect fill="#363A4F" height="30" rx="1.5" ry="1.5" style="stroke:#363A4F;stroke-width:2.0;" width="95.5723" x="1080.49" y="14"/><rect fill="#363A4F" height="1.5" style="stroke:#363A4F;stroke-width:2.0;" width="95.5723" x="1080.49" y="42.5"/><rect codeLine="40" fill="none" height="46" id="Functor" rx="1.5" ry="1.5" style="stroke:#C6A0F6;stroke-width:2.0;" width="95.5723" x="1080.49" y="14"/><ellipse cx="1094.49" cy="29" fill="#B4A7E5" rx="10" ry="10" style="stroke:#181818;stroke-width:1.0;"/><path d="M1091.4978,26.2754 L1091.4978,24.752 L1096.7068,24.752 L1096.7068,26.2754 L1094.9666,26.2754 L1094.9666,31.9766 L1096.7068,31.9766 L1096.7068,33.5 L1091.4978,33.5 L1091.4978,31.9766 L1093.238,31.9766 L1093.238,26.2754 Z " fill="#CAD3F5"/><text fill="#A6DA95" font-family="Helvetica" font-size="16" font-style="italic" lengthAdjust="spacing" textLength="54.2422" x="1107.49" y="33.3203">Functor</text><rect fill="#24273A" height="14" style="stroke:#C6A0F6;stroke-width:1.0;stroke-dasharray:2.0,2.0;" width="9.3301" x="1169.7322" y="11"/><text fill="#CAD3F5" font-family="Helvetica" font-size="12" font-style="italic" lengthAdjust="spacing" textLength="7.3301" x="1170.7322" y="21.2402">F</text><line style="stroke:#C6A0F6;stroke-width:2.0;" x1="1081.49" x2="1175.0623" y1="44" y2="44"/><line style="stroke:#C6A0F6;stroke-width:2.0;" x1="1081.49" x2="1175.0623" y1="52" y2="52"/></g><!--class Applicative<F> extends Functor<F>--><g id="elem_Applicative&lt;F&gt; extends Functor&lt;F&gt;"><rect codeLine="41" fill="#24273A" height="46" id="Applicative&lt;F&gt; extends Functor&lt;F&gt;" rx="1.5" ry="1.5" style="stroke:#C6A0F6;stroke-width:2.0;" width="283.4688" x="252.54" y="14"/><rect fill="#363A4F" height="30" rx="1.5" ry="1.5" style="stroke:#363A4F;stroke-width:2.0;" width="283.4688" x="252.54" y="14"/><rect fill="#363A4F" height="1.5" style="stroke:#363A4F;stroke-width:2.0;" width="283.4688" x="252.54" y="42.5"/><rect codeLine="41" fill="none" height="46" id="Applicative&lt;F&gt; extends Functor&lt;F&gt;" rx="1.5" ry="1.5" style="stroke:#C6A0F6;stroke-width:2.0;" width="283.4688" x="252.54" y="14"/><ellipse cx="266.54" cy="29" fill="#B4A7E5" rx="10" ry="10" style="stroke:#181818;stroke-width:1.0;"/><path d="M263.5478,26.2754 L263.5478,24.752 L268.7568,24.752 L268.7568,26.2754 L267.0166,26.2754 L267.0166,31.9766 L268.7568,31.9766 L268.7568,33.5 L263.5478,33.5 L263.5478,31.9766 L265.288,31.9766 L265.288,26.2754 Z " fill="#CAD3F5"/><text fill="#A6DA95" font-family="Helvetica" font-size="16" font-style="italic" lengthAdjust="spacing" textLength="253.4688" x="279.54" y="33.3203">Applicative&lt;F&gt; extends Functor&lt;F&gt;</text><line style="stroke:#C6A0F6;stroke-width:2.0;" x1="253.54" x2="535.0088" y1="44" y2="44"/><line style="stroke:#C6A0F6;stroke-width:2.0;" x1="253.54" x2="535.0088" y1="52" y2="52"/></g><!--class Monad<F> extends Applicative<F>--><g id="elem_Monad&lt;F&gt; extends Applicative&lt;F&gt;"><rect codeLine="42" fill="#24273A" height="46" id="Monad&lt;F&gt; extends Applicative&lt;F&gt;" rx="1.5" ry="1.5" style="stroke:#C6A0F6;stroke-width:2.0;" width="278.1484" x="571.2" y="14"/><rect fill="#363A4F" height="30" rx="1.5" ry="1.5" style="stroke:#363A4F;stroke-width:2.0;" width="278.1484" x="571.2" y="14"/><rect fill="#363A4F" height="1.5" style="stroke:#363A4F;stroke-width:2.0;" width="278.1484" x="571.2" y="42.5"/><rect codeLine="42" fill="none" height="46" id="Monad&lt;F&gt; extends Applicative&lt;F&gt;" rx="1.5" ry="1.5" style="stroke:#C6A0F6;stroke-width:2.0;" width="278.1484" x="571.2" y="14"/><ellipse cx="585.2" cy="29" fill="#B4A7E5" rx="10" ry="10" style="stroke:#181818;stroke-width:1.0;"/><path d="M582.2078,26.2754 L582.2078,24.752 L587.4168,24.752 L587.4168,26.2754 L585.6766,26.2754 L585.6766,31.9766 L587.4168,31.9766 L587.4168,33.5 L582.2078,33.5 L582.2078,31.9766 L583.948,31.9766 L583.948,26.2754 Z " fill="#CAD3F5"/><text fill="#A6DA95" font-family="Helvetica" font-size="16" font-style="italic" lengthAdjust="spacing" textLength="248.1484" x="598.2" y="33.3203">Monad&lt;F&gt; extends Applicative&lt;F&gt;</text><line style="stroke:#C6A0F6;stroke-width:2.0;" x1="572.2" x2="848.3484" y1="44" y2="44"/><line style="stroke:#C6A0F6;stroke-width:2.0;" x1="572.2" x2="848.3484" y1="52" y2="52"/></g><!--class MonadError<F, E> extends Monad<F>--><g id="elem_MonadError&lt;F, E&gt; extends Monad&lt;F&gt;"><rect codeLine="43" fill="#24273A" height="46" id="MonadError&lt;F, E&gt; extends Monad&lt;F&gt;" rx="1.5" ry="1.5" style="stroke:#C6A0F6;stroke-width:2.0;" width="304.8125" x="241.87" y="131"/><rect fill="#363A4F" height="30" rx="1.5" ry="1.5" style="stroke:#363A4F;stroke-width:2.0;" width="304.8125" x="241.87" y="131"/><rect fill="#363A4F" height="1.5" style="stroke:#363A4F;stroke-width:2.0;" width="304.8125" x="241.87" y="159.5"/><rect codeLine="43" fill="none" height="46" id="MonadError&lt;F, E&gt; extends Monad&lt;F&gt;" rx="1.5" ry="1.5" style="stroke:#C6A0F6;stroke-width:2.0;" width="304.8125" x="241.87" y="131"/><ellipse cx="255.87" cy="146" fill="#B4A7E5" rx="10" ry="10" style="stroke:#181818;stroke-width:1.0;"/><path d="M252.8778,143.2754 L252.8778,141.752 L258.0868,141.752 L258.0868,143.2754 L256.3466,143.2754 L256.3466,148.9766 L258.0868,148.9766 L258.0868,150.5 L252.8778,150.5 L252.8778,148.9766 L254.618,148.9766 L254.618,143.2754 Z " fill="#CAD3F5"/><text fill="#A6DA95" font-family="Helvetica" font-size="16" font-style="italic" lengthAdjust="spacing" textLength="274.8125" x="268.87" y="150.3203">MonadError&lt;F, E&gt; extends Monad&lt;F&gt;</text><line style="stroke:#C6A0F6;stroke-width:2.0;" x1="242.87" x2="545.6825" y1="161" y2="161"/><line style="stroke:#C6A0F6;stroke-width:2.0;" x1="242.87" x2="545.6825" y1="169" y2="169"/></g><!--class CompletableFutureFunctor--><g id="elem_CompletableFutureFunctor"><rect codeLine="45" fill="#24273A" height="58" id="CompletableFutureFunctor" rx="1.5" ry="1.5" style="stroke:#C6A0F6;stroke-width:2.0;" width="495.8594" x="880.34" y="125"/><rect fill="#363A4F" height="30" rx="1.5" ry="1.5" style="stroke:#363A4F;stroke-width:2.0;" width="495.8594" x="880.34" y="125"/><rect fill="#363A4F" height="1.5" style="stroke:#363A4F;stroke-width:2.0;" width="495.8594" x="880.34" y="153.5"/><rect codeLine="45" fill="none" height="58" id="CompletableFutureFunctor" rx="1.5" ry="1.5" style="stroke:#C6A0F6;stroke-width:2.0;" width="495.8594" x="880.34" y="125"/><ellipse cx="1029.1134" cy="140" fill="#ADD1B2" rx="10" ry="10" style="stroke:#181818;stroke-width:1.0;"/><path d="M1030.9474,144.248 Q1030.5373,144.459 1030.0861,144.5645 Q1029.6349,144.6699 1029.1369,144.6699 Q1027.3673,144.6699 1026.4357,143.5039 Q1025.5041,142.3379 1025.5041,140.1348 Q1025.5041,137.9258 1026.4357,136.7598 Q1027.3673,135.5938 1029.1369,135.5938 Q1029.6349,135.5938 1030.092,135.6992 Q1030.549,135.8047 1030.9474,136.0156 L1030.9474,137.9375 Q1030.5021,137.5273 1030.0832,137.3369 Q1029.6642,137.1465 1029.2189,137.1465 Q1028.2697,137.1465 1027.7863,137.8994 Q1027.3029,138.6523 1027.3029,140.1348 Q1027.3029,141.6113 1027.7863,142.3643 Q1028.2697,143.1172 1029.2189,143.1172 Q1029.6642,143.1172 1030.0832,142.9268 Q1030.5021,142.7363 1030.9474,142.3262 Z " fill="#CAD3F5"/><text fill="#A6DA95" font-family="Helvetica" font-size="16" lengthAdjust="spacing" textLength="190.3125" x="1048.1134" y="144.3203">CompletableFutureFunctor</text><line style="stroke:#C6A0F6;stroke-width:2.0;" x1="881.34" x2="1375.1994" y1="155" y2="155"/><line style="stroke:#C6A0F6;stroke-width:2.0;" x1="881.34" x2="1375.1994" y1="163" y2="163"/><ellipse cx="891.34" cy="174.5" fill="#84BE84" rx="3" ry="3" style="stroke:#038048;stroke-width:1.0;"/><text fill="#A6DA95" font-family="Helvetica" font-size="12" lengthAdjust="spacing" textLength="470.8594" x="899.34" y="176.2402">Kind&lt;CFK, B&gt; map(Function&lt;A, B&gt;, Kind&lt;CFK, A&gt;) ' CFK = CompletableFutureKind&lt;?&gt;</text></g><!--class CompletableFutureApplicative--><g id="elem_CompletableFutureApplicative"><rect codeLine="50" fill="#24273A" height="70" id="CompletableFutureApplicative" rx="1.5" ry="1.5" style="stroke:#C6A0F6;stroke-width:2.0;" width="361.1699" x="454.69" y="284"/><rect fill="#363A4F" height="30" rx="1.5" ry="1.5" style="stroke:#363A4F;stroke-width:2.0;" width="361.1699" x="454.69" y="284"/><rect fill="#363A4F" height="1.5" style="stroke:#363A4F;stroke-width:2.0;" width="361.1699" x="454.69" y="312.5"/><rect codeLine="50" fill="none" height="70" id="CompletableFutureApplicative" rx="1.5" ry="1.5" style="stroke:#C6A0F6;stroke-width:2.0;" width="361.1699" x="454.69" y="284"/><ellipse cx="524.5523" cy="299" fill="#ADD1B2" rx="10" ry="10" style="stroke:#181818;stroke-width:1.0;"/><path d="M526.3863,303.248 Q525.9761,303.459 525.525,303.5645 Q525.0738,303.6699 524.5757,303.6699 Q522.8062,303.6699 521.8746,302.5039 Q520.9429,301.3379 520.9429,299.1348 Q520.9429,296.9258 521.8746,295.7598 Q522.8062,294.5938 524.5757,294.5938 Q525.0738,294.5938 525.5308,294.6992 Q525.9879,294.8047 526.3863,295.0156 L526.3863,296.9375 Q525.941,296.5273 525.522,296.3369 Q525.1031,296.1465 524.6578,296.1465 Q523.7086,296.1465 523.2252,296.8994 Q522.7418,297.6523 522.7418,299.1348 Q522.7418,300.6113 523.2252,301.3643 Q523.7086,302.1172 524.6578,302.1172 Q525.1031,302.1172 525.522,301.9268 Q525.941,301.7363 526.3863,301.3262 Z " fill="#CAD3F5"/><text fill="#A6DA95" font-family="Helvetica" font-size="16" lengthAdjust="spacing" textLength="213.4453" x="543.5523" y="303.3203">CompletableFutureApplicative</text><line style="stroke:#C6A0F6;stroke-width:2.0;" x1="455.69" x2="814.8599" y1="314" y2="314"/><line style="stroke:#C6A0F6;stroke-width:2.0;" x1="455.69" x2="814.8599" y1="322" y2="322"/><ellipse cx="465.69" cy="333.5" fill="#84BE84" rx="3" ry="3" style="stroke:#038048;stroke-width:1.0;"/><text fill="#A6DA95" font-family="Helvetica" font-size="12" lengthAdjust="spacing" textLength="106.043" x="473.69" y="335.2402">Kind&lt;CFK, A&gt; of(A)</text><ellipse cx="465.69" cy="345.5" fill="#84BE84" rx="3" ry="3" style="stroke:#038048;stroke-width:1.0;"/><text fill="#A6DA95" font-family="Helvetica" font-size="12" lengthAdjust="spacing" textLength="336.1699" x="473.69" y="347.2402">Kind&lt;CFK, B&gt; ap(Kind&lt;CFK, Function&lt;A, B&gt;&gt;, Kind&lt;CFK, A&gt;)</text></g><!--class Applicative--><g id="elem_Applicative"><rect fill="#24273A" height="46" id="Applicative" rx="1.5" ry="1.5" style="stroke:#C6A0F6;stroke-width:2.0;" width="107.375" x="581.59" y="131"/><rect fill="#363A4F" height="30" rx="1.5" ry="1.5" style="stroke:#363A4F;stroke-width:2.0;" width="107.375" x="581.59" y="131"/><rect fill="#363A4F" height="1.5" style="stroke:#363A4F;stroke-width:2.0;" width="107.375" x="581.59" y="159.5"/><rect fill="none" height="46" id="Applicative" rx="1.5" ry="1.5" style="stroke:#C6A0F6;stroke-width:2.0;" width="107.375" x="581.59" y="131"/><ellipse cx="595.59" cy="146" fill="#B4A7E5" rx="10" ry="10" style="stroke:#181818;stroke-width:1.0;"/><path d="M592.5978,143.2754 L592.5978,141.752 L597.8068,141.752 L597.8068,143.2754 L596.0666,143.2754 L596.0666,148.9766 L597.8068,148.9766 L597.8068,150.5 L592.5978,150.5 L592.5978,148.9766 L594.338,148.9766 L594.338,143.2754 Z " fill="#CAD3F5"/><text fill="#A6DA95" font-family="Helvetica" font-size="16" font-style="italic" lengthAdjust="spacing" textLength="77.375" x="608.59" y="150.3203">Applicative</text><line style="stroke:#C6A0F6;stroke-width:2.0;" x1="582.59" x2="687.965" y1="161" y2="161"/><line style="stroke:#C6A0F6;stroke-width:2.0;" x1="582.59" x2="687.965" y1="169" y2="169"/></g><!--class CompletableFutureMonad--><g id="elem_CompletableFutureMonad"><rect codeLine="55" fill="#24273A" height="58" id="CompletableFutureMonad" rx="1.5" ry="1.5" style="stroke:#C6A0F6;stroke-width:2.0;" width="387.1738" x="258.69" y="438"/><rect fill="#363A4F" height="30" rx="1.5" ry="1.5" style="stroke:#363A4F;stroke-width:2.0;" width="387.1738" x="258.69" y="438"/><rect fill="#363A4F" height="1.5" style="stroke:#363A4F;stroke-width:2.0;" width="387.1738" x="258.69" y="466.5"/><rect codeLine="55" fill="none" height="58" id="CompletableFutureMonad" rx="1.5" ry="1.5" style="stroke:#C6A0F6;stroke-width:2.0;" width="387.1738" x="258.69" y="438"/><ellipse cx="355.7808" cy="453" fill="#ADD1B2" rx="10" ry="10" style="stroke:#181818;stroke-width:1.0;"/><path d="M357.6148,457.248 Q357.2046,457.459 356.7535,457.5645 Q356.3023,457.6699 355.8043,457.6699 Q354.0347,457.6699 353.1031,456.5039 Q352.1714,455.3379 352.1714,453.1348 Q352.1714,450.9258 353.1031,449.7598 Q354.0347,448.5938 355.8043,448.5938 Q356.3023,448.5938 356.7593,448.6992 Q357.2164,448.8047 357.6148,449.0156 L357.6148,450.9375 Q357.1695,450.5273 356.7505,450.3369 Q356.3316,450.1465 355.8863,450.1465 Q354.9371,450.1465 354.4537,450.8994 Q353.9703,451.6523 353.9703,453.1348 Q353.9703,454.6113 354.4537,455.3643 Q354.9371,456.1172 355.8863,456.1172 Q356.3316,456.1172 356.7505,455.9268 Q357.1695,455.7363 357.6148,455.3262 Z " fill="#CAD3F5"/><text fill="#A6DA95" font-family="Helvetica" font-size="16" lengthAdjust="spacing" textLength="184.9922" x="374.7808" y="457.3203">CompletableFutureMonad</text><line style="stroke:#C6A0F6;stroke-width:2.0;" x1="259.69" x2="644.8638" y1="468" y2="468"/><line style="stroke:#C6A0F6;stroke-width:2.0;" x1="259.69" x2="644.8638" y1="476" y2="476"/><ellipse cx="269.69" cy="487.5" fill="#84BE84" rx="3" ry="3" style="stroke:#038048;stroke-width:1.0;"/><text fill="#A6DA95" font-family="Helvetica" font-size="12" lengthAdjust="spacing" textLength="362.1738" x="277.69" y="489.2402">Kind&lt;CFK, B&gt; flatMap(Function&lt;A, Kind&lt;CFK, B&gt;&gt;, Kind&lt;CFK, A&gt;)</text></g><!--class Monad--><g id="elem_Monad"><rect fill="#24273A" height="46" id="Monad" rx="1.5" ry="1.5" style="stroke:#C6A0F6;stroke-width:2.0;" width="78.9219" x="340.81" y="296"/><rect fill="#363A4F" height="30" rx="1.5" ry="1.5" style="stroke:#363A4F;stroke-width:2.0;" width="78.9219" x="340.81" y="296"/><rect fill="#363A4F" height="1.5" style="stroke:#363A4F;stroke-width:2.0;" width="78.9219" x="340.81" y="324.5"/><rect fill="none" height="46" id="Monad" rx="1.5" ry="1.5" style="stroke:#C6A0F6;stroke-width:2.0;" width="78.9219" x="340.81" y="296"/><ellipse cx="354.81" cy="311" fill="#B4A7E5" rx="10" ry="10" style="stroke:#181818;stroke-width:1.0;"/><path d="M351.8178,308.2754 L351.8178,306.752 L357.0268,306.752 L357.0268,308.2754 L355.2866,308.2754 L355.2866,313.9766 L357.0268,313.9766 L357.0268,315.5 L351.8178,315.5 L351.8178,313.9766 L353.558,313.9766 L353.558,308.2754 Z " fill="#CAD3F5"/><text fill="#A6DA95" font-family="Helvetica" font-size="16" font-style="italic" lengthAdjust="spacing" textLength="48.9219" x="367.81" y="315.3203">Monad</text><line style="stroke:#C6A0F6;stroke-width:2.0;" x1="341.81" x2="418.7319" y1="326" y2="326"/><line style="stroke:#C6A0F6;stroke-width:2.0;" x1="341.81" x2="418.7319" y1="334" y2="334"/></g><!--class CompletableFutureMonadError--><g id="elem_CompletableFutureMonadError"><rect codeLine="59" fill="#24273A" height="70" id="CompletableFutureMonadError" rx="1.5" ry="1.5" style="stroke:#C6A0F6;stroke-width:2.0;" width="482.5469" x="7" y="614"/><rect fill="#363A4F" height="30" rx="1.5" ry="1.5" style="stroke:#363A4F;stroke-width:2.0;" width="482.5469" x="7" y="614"/><rect fill="#363A4F" height="1.5" style="stroke:#363A4F;stroke-width:2.0;" width="482.5469" x="7" y="642.5"/><rect codeLine="59" fill="none" height="70" id="CompletableFutureMonadError" rx="1.5" ry="1.5" style="stroke:#C6A0F6;stroke-width:2.0;" width="482.5469" x="7" y="614"/><ellipse cx="134" cy="629" fill="#ADD1B2" rx="10" ry="10" style="stroke:#181818;stroke-width:1.0;"/><path d="M135.834,633.248 Q135.4238,633.459 134.9727,633.5645 Q134.5215,633.6699 134.0234,633.6699 Q132.2539,633.6699 131.3223,632.5039 Q130.3906,631.3379 130.3906,629.1348 Q130.3906,626.9258 131.3223,625.7598 Q132.2539,624.5938 134.0234,624.5938 Q134.5215,624.5938 134.9785,624.6992 Q135.4355,624.8047 135.834,625.0156 L135.834,626.9375 Q135.3887,626.5273 134.9697,626.3369 Q134.5508,626.1465 134.1055,626.1465 Q133.1563,626.1465 132.6729,626.8994 Q132.1895,627.6523 132.1895,629.1348 Q132.1895,630.6113 132.6729,631.3643 Q133.1563,632.1172 134.1055,632.1172 Q134.5508,632.1172 134.9697,631.9268 Q135.3887,631.7363 135.834,631.3262 Z " fill="#CAD3F5"/><text fill="#A6DA95" font-family="Helvetica" font-size="16" lengthAdjust="spacing" textLength="220.5469" x="153" y="633.3203">CompletableFutureMonadError</text><line style="stroke:#C6A0F6;stroke-width:2.0;" x1="8" x2="488.5469" y1="644" y2="644"/><line style="stroke:#C6A0F6;stroke-width:2.0;" x1="8" x2="488.5469" y1="652" y2="652"/><ellipse cx="18" cy="663.5" fill="#84BE84" rx="3" ry="3" style="stroke:#038048;stroke-width:1.0;"/><text fill="#A6DA95" font-family="Helvetica" font-size="12" lengthAdjust="spacing" textLength="196.7344" x="26" y="665.2402">Kind&lt;CFK, A&gt; raiseError(Throwable)</text><ellipse cx="18" cy="675.5" fill="#84BE84" rx="3" ry="3" style="stroke:#038048;stroke-width:1.0;"/><text fill="#A6DA95" font-family="Helvetica" font-size="12" lengthAdjust="spacing" textLength="457.5469" x="26" y="677.2402">Kind&lt;CFK, A&gt; handleErrorWith(Kind&lt;CFK, A&gt;, Function&lt;Throwable, Kind&lt;CFK, A&gt;&gt;)</text></g><!--class MonadError--><g id="elem_MonadError"><rect fill="#24273A" height="46" id="MonadError" rx="1.5" ry="1.5" style="stroke:#C6A0F6;stroke-width:2.0;" width="114.4766" x="109.04" y="444"/><rect fill="#363A4F" height="30" rx="1.5" ry="1.5" style="stroke:#363A4F;stroke-width:2.0;" width="114.4766" x="109.04" y="444"/><rect fill="#363A4F" height="1.5" style="stroke:#363A4F;stroke-width:2.0;" width="114.4766" x="109.04" y="472.5"/><rect fill="none" height="46" id="MonadError" rx="1.5" ry="1.5" style="stroke:#C6A0F6;stroke-width:2.0;" width="114.4766" x="109.04" y="444"/><ellipse cx="123.04" cy="459" fill="#B4A7E5" rx="10" ry="10" style="stroke:#181818;stroke-width:1.0;"/><path d="M120.0478,456.2754 L120.0478,454.752 L125.2568,454.752 L125.2568,456.2754 L123.5166,456.2754 L123.5166,461.9766 L125.2568,461.9766 L125.2568,463.5 L120.0478,463.5 L120.0478,461.9766 L121.788,461.9766 L121.788,456.2754 Z " fill="#CAD3F5"/><text fill="#A6DA95" font-family="Helvetica" font-size="16" font-style="italic" lengthAdjust="spacing" textLength="84.4766" x="136.04" y="463.3203">MonadError</text><line style="stroke:#C6A0F6;stroke-width:2.0;" x1="110.04" x2="222.5166" y1="474" y2="474"/><line style="stroke:#C6A0F6;stroke-width:2.0;" x1="110.04" x2="222.5166" y1="482" y2="482"/></g><!--reverse link Kind to CompletableFutureKind--><g id="link_Kind_CompletableFutureKind"><path d="M1516.27,82.38 C1516.27,102.41 1516.27,111.64 1516.27,130.61 " fill="none" id="Kind-backto-CompletableFutureKind" style="stroke:#F5BDE6;stroke-width:1.0;"/><polygon fill="none" points="1516.27,64.38,1510.27,82.38,1522.27,82.38,1516.27,64.38" style="stroke:#F5BDE6;stroke-width:1.0;"/></g><!--reverse link CompletableFutureKind to CompletableFutureHolder--><g id="link_CompletableFutureKind_CompletableFutureHolder"><path d="M986.4788,355.0035 C1012.9488,380.6035 1043.29,409.93 1072.02,437.72 " fill="none" id="CompletableFutureKind-backto-CompletableFutureHolder" style="stroke:#F5BDE6;stroke-width:1.0;stroke-dasharray:7.0,7.0;"/><polygon fill="none" points="973.54,342.49,982.3076,359.3164,990.6499,350.6906,973.54,342.49" style="stroke:#F5BDE6;stroke-width:1.0;"/></g><!--link CompletableFutureKindHelper to CompletableFutureHolder--><g id="link_CompletableFutureKindHelper_CompletableFutureHolder"><path codeLine="35" d="M1228.87,364.2 C1198.99,388.04 1167.6899,413.0077 1141.5599,433.8577 " fill="none" id="CompletableFutureKindHelper-to-CompletableFutureHolder" style="stroke:#F5BDE6;stroke-width:1.0;stroke-dasharray:7.0,7.0;"/><polygon fill="#F5BDE6" points="1136.87,437.6,1146.3997,435.1132,1140.7783,434.4815,1141.4101,428.86,1136.87,437.6" style="stroke:#F5BDE6;stroke-width:1.0;"/><polygon fill="#CAD3F5" points="1188.1632,403.4946,1195.2859,400.8197,1192.3533,397.1439,1188.1632,403.4946" style="stroke:#CAD3F5;stroke-width:1.0;"/><text fill="#CAD3F5" font-family="Helvetica" font-size="12" lengthAdjust="spacing" textLength="39.3516" x="1200.29" y="404.2402">creates</text></g><!--link CompletableFutureKindHelper to CompletableFuture--><g id="link_CompletableFutureKindHelper_CompletableFuture"><path codeLine="36" d="M1276.32,364.24 C1266.77,417.31 1251.6729,501.2649 1240.0829,565.6549 " fill="none" id="CompletableFutureKindHelper-to-CompletableFuture" style="stroke:#F5BDE6;stroke-width:1.0;"/><polygon fill="#F5BDE6" points="1239.02,571.56,1244.5511,563.4109,1239.9058,566.6391,1236.6776,561.9937,1239.02,571.56" style="stroke:#F5BDE6;stroke-width:1.0;"/><polygon fill="#CAD3F5" points="1265.8517,470.9368,1269.447,464.2314,1264.819,463.3988,1265.8517,470.9368" style="stroke:#CAD3F5;stroke-width:1.0;"/><text fill="#CAD3F5" font-family="Helvetica" font-size="12" lengthAdjust="spacing" textLength="25.3477" x="1275.56" y="470.2402">uses</text></g><!--link CompletableFutureHolder to CompletableFuture--><g id="link_CompletableFutureHolder_CompletableFuture"><path codeLine="37" d="M1127.4564,506.003 C1141.4164,526.273 1150.7659,539.8391 1169.1959,566.5891 " fill="none" id="CompletableFutureHolder-CompletableFuture" style="stroke:#F5BDE6;stroke-width:1.0;"/><polygon fill="none" points="1120.65,496.12,1120.7589,503.3303,1127.4564,506.003,1127.3475,498.7927,1120.65,496.12" style="stroke:#F5BDE6;stroke-width:1.0;"/><polygon fill="#F5BDE6" points="1172.6,571.53,1170.7877,561.8493,1169.7632,567.4126,1164.1999,566.3881,1172.6,571.53" style="stroke:#F5BDE6;stroke-width:1.0;"/><text fill="#CAD3F5" font-family="Helvetica" font-size="12" lengthAdjust="spacing" textLength="28.6875" x="1153.17" y="538.2402">holds</text></g><!--reverse link Functor to CompletableFutureFunctor--><g id="link_Functor_CompletableFutureFunctor"><path d="M1128.27,78.45 C1128.27,96.88 1128.27,105.08 1128.27,124.91 " fill="none" id="Functor-backto-CompletableFutureFunctor" style="stroke:#F5BDE6;stroke-width:1.0;stroke-dasharray:7.0,7.0;"/><polygon fill="none" points="1128.27,60.45,1122.27,78.45,1134.27,78.45,1128.27,60.45" style="stroke:#F5BDE6;stroke-width:1.0;"/></g><!--link CompletableFutureFunctor to CompletableFutureKindHelper--><g id="link_CompletableFutureFunctor_CompletableFutureKindHelper"><path codeLine="48" d="M1155.45,183.39 C1179.28,208.29 1210.1711,240.5757 1237.7011,269.3357 " fill="none" id="CompletableFutureFunctor-to-CompletableFutureKindHelper" style="stroke:#F5BDE6;stroke-width:1.0;stroke-dasharray:7.0,7.0;"/><polygon fill="#F5BDE6" points="1241.85,273.67,1238.5161,264.4026,1238.3925,270.0581,1232.737,269.9345,1241.85,273.67" style="stroke:#F5BDE6;stroke-width:1.0;"/><text fill="#CAD3F5" font-family="Helvetica" font-size="12" lengthAdjust="spacing" textLength="25.3477" x="1197.93" y="223.2402">uses</text></g><!--reverse link CompletableFutureFunctor to CompletableFutureApplicative--><g id="link_CompletableFutureFunctor_CompletableFutureApplicative"><path d="M993.2559,187.9868 C939.3259,201.9668 892.27,215.48 835.27,235 C793.84,249.19 748.7,267.65 711.8,283.56 " fill="none" id="CompletableFutureFunctor-backto-CompletableFutureApplicative" style="stroke:#F5BDE6;stroke-width:1.0;"/><polygon fill="none" points="1010.68,183.47,991.7503,182.1787,994.7615,193.7948,1010.68,183.47" style="stroke:#F5BDE6;stroke-width:1.0;"/></g><!--reverse link Applicative to CompletableFutureApplicative--><g id="link_Applicative_CompletableFutureApplicative"><path d="M635.27,195.32 C635.27,222.79 635.27,251.71 635.27,283.75 " fill="none" id="Applicative-backto-CompletableFutureApplicative" style="stroke:#F5BDE6;stroke-width:1.0;stroke-dasharray:7.0,7.0;"/><polygon fill="none" points="635.27,177.32,629.27,195.32,641.27,195.32,635.27,177.32" style="stroke:#F5BDE6;stroke-width:1.0;"/></g><!--reverse link CompletableFutureApplicative to CompletableFutureMonad--><g id="link_CompletableFutureApplicative_CompletableFutureMonad"><path d="M578.2993,365.4556 C546.4993,390.8256 517.74,413.77 487.84,437.62 " fill="none" id="CompletableFutureApplicative-backto-CompletableFutureMonad" style="stroke:#F5BDE6;stroke-width:1.0;"/><polygon fill="none" points="592.37,354.23,574.5574,360.7654,582.0411,370.1459,592.37,354.23" style="stroke:#F5BDE6;stroke-width:1.0;"/></g><!--reverse link Monad to CompletableFutureMonad--><g id="link_Monad_CompletableFutureMonad"><path d="M399.3289,358.6348 C411.9489,384.2348 424.62,409.93 438.33,437.72 " fill="none" id="Monad-backto-CompletableFutureMonad" style="stroke:#F5BDE6;stroke-width:1.0;stroke-dasharray:7.0,7.0;"/><polygon fill="none" points="391.37,342.49,393.9473,361.2878,404.7105,355.9819,391.37,342.49" style="stroke:#F5BDE6;stroke-width:1.0;"/></g><!--reverse link CompletableFutureMonad to CompletableFutureMonadError--><g id="link_CompletableFutureMonad_CompletableFutureMonadError"><path d="M406.9032,508.0296 C370.9332,539.7696 325.9,579.5 287.24,613.61 " fill="none" id="CompletableFutureMonad-backto-CompletableFutureMonadError" style="stroke:#F5BDE6;stroke-width:1.0;"/><polygon fill="none" points="420.4,496.12,402.9334,503.5306,410.8731,512.5285,420.4,496.12" style="stroke:#F5BDE6;stroke-width:1.0;"/></g><!--reverse link MonadError to CompletableFutureMonadError--><g id="link_MonadError_CompletableFutureMonadError"><path d="M183.9516,506.8106 C198.0316,537.7206 216.07,577.32 232.58,613.55 " fill="none" id="MonadError-backto-CompletableFutureMonadError" style="stroke:#F5BDE6;stroke-width:1.0;stroke-dasharray:7.0,7.0;"/><polygon fill="none" points="176.49,490.43,178.4914,509.2978,189.4118,504.3234,176.49,490.43" style="stroke:#F5BDE6;stroke-width:1.0;"/></g><!--SRC=[bLR1Rjim3BtdAxXUbcA9SozS3sdNe4EHorPiPqLcOgsoPCZokgB8lu-I4rTEhAGz572bnoVoyOdA9w6uR7A4mjgglfhD37jEDi8MpQgfqN2jB2gRS5tE5DUrPLF1PvpPgceu5sfQCiuBmQoULf8fsvHoQWiiSLOoeMR-CwbeTJJYajKrtEgoacZPIkAYiOt1T9x1wmY-m2kHMy6tmn3UBcBUBetdb-TZrap8Bk2nCFhPxVl0O_nD1fIjcbULV1al6iMjq2gTJ-0cEntXDdIDlPWXS8pcjgDP2ONZeL1AGlHIeXDYT5Gt_kDOEIoJykKelKw8oM1qopk7FrgeiVzUQIsHAH3rDqq97gpTxXjp5vvAgEre9CWyPiqumeDGURgO06MNflSFZt1ZHBx1B0j1H-duA5yGcJ2lMvPXrDVCavEJu3Eu0vRCFA61jJR7l1xqMrY5vCW5N4ECqmD_CTaWFBvKIB9SmznLLZ7-n3PqQr1MT4gQ_a1kcTf8Aiad4N6xuxrlOnmA84dWf_Smx9QNQ0jDjIQ9tp_byRqypuPLuw5UNfwbSE6DyWHdnJrYsvdaNO6acTFoksisEGJkjSofMf9DcpokLmjpMGgtKz8igkD2j99E8zDWt_ej_PrgJ99aiKJW2hX1Ph66x0pBT3h0Gl4qLIF1koDqBBAW_Rf_hVobrYPTPC7YXPjXWcQq-8kqqzsUD_15Y5xIZSr3N3_y67jdZ6EPmDrRp9xa8ZhdTwU7VTmd5FFExc5e_RLuSACOId9gVpfF0W1vZKn6dwVkz7OKJMwmzK5Js_P5QmoKwvHvZn2XuYV5wAb1djPh_n0UYjJTPlT_Nwr3kPoV8jNudiRh28iDQccTy96MhYMpouEsXe2Ffkpz6S-xBUimuzRKyIdMlPg3VJ1CrEWfUhyp3c45KxbiSVJw5EDmCsXKy4A725_vVm00]--></g></svg>