<svg xmlns="http://www.w3.org/2000/svg" xmlns:xlink="http://www.w3.org/1999/xlink" contentStyleType="text/css" height="666px" preserveAspectRatio="none" style="width:1518px;height:666px;background:#24273A;" version="1.1" viewBox="0 0 1518 666" width="1518px" zoomAndPan="magnify"><defs/><g><rect fill="#24273A" height="666" style="stroke:none;stroke-width:1.0;" width="1518" x="0" y="0"/><!--cluster Core HKT Interfaces--><g id="cluster_Core HKT Interfaces"><path d="M889.5,395.51 L1016.7129,395.51 A2.25,2.25 0 0 1 1018.2129,397.01 L1025.2129,415.6428 L1330.5,415.6428 A1.5,1.5 0 0 1 1332,417.1428 L1332,471.85 A1.5,1.5 0 0 1 1330.5,473.35 L889.5,473.35 A1.5,1.5 0 0 1 888,471.85 L888,397.01 A1.5,1.5 0 0 1 889.5,395.51 " fill="#24273A" style="stroke:#CAD3F5;stroke-width:1.0;"/><line style="stroke:#CAD3F5;stroke-width:1.0;" x1="888" x2="1025.2129" y1="415.6428" y2="415.6428"/><text fill="#CAD3F5" font-family="sans-serif" font-size="12" font-weight="bold" lengthAdjust="spacing" textLength="124.2129" x="892" y="409.1116">Core HKT Interfaces</text></g><!--cluster Either Type--><g id="cluster_Either Type"><path d="M829.5,582.11 L903.0527,582.11 A2.25,2.25 0 0 1 904.5527,583.61 L911.5527,602.2428 L958.5,602.2428 A1.5,1.5 0 0 1 960,603.7428 L960,658.45 A1.5,1.5 0 0 1 958.5,659.95 L829.5,659.95 A1.5,1.5 0 0 1 828,658.45 L828,583.61 A1.5,1.5 0 0 1 829.5,582.11 " fill="#24273A" style="stroke:#CAD3F5;stroke-width:1.0;"/><line style="stroke:#CAD3F5;stroke-width:1.0;" x1="828" x2="911.5527" y1="602.2428" y2="602.2428"/><text fill="#CAD3F5" font-family="sans-serif" font-size="12" font-weight="bold" lengthAdjust="spacing" textLength="70.5527" x="832" y="595.7116">Either Type</text></g><!--cluster EitherT Transformer--><g id="cluster_EitherT Transformer"><path d="M12.5,11 L141.7461,11 A2.25,2.25 0 0 1 143.2461,12.5 L150.2461,31.1328 L733.5,31.1328 A1.5,1.5 0 0 1 735,32.6328 L735,532.61 A1.5,1.5 0 0 1 733.5,534.11 L12.5,534.11 A1.5,1.5 0 0 1 11,532.61 L11,12.5 A1.5,1.5 0 0 1 12.5,11 " fill="#24273A" style="stroke:#CAD3F5;stroke-width:1.0;"/><line style="stroke:#CAD3F5;stroke-width:1.0;" x1="11" x2="150.2461" y1="31.1328" y2="31.1328"/><text fill="#CAD3F5" font-family="sans-serif" font-size="12" font-weight="bold" lengthAdjust="spacing" textLength="126.2461" x="15" y="24.6016">EitherT Transformer</text></g><!--class Kind--><g id="elem_Kind"><rect codeLine="8" fill="#24273A" height="28.8438" id="Kind" rx="1.5" ry="1.5" style="stroke:#C6A0F6;stroke-width:2.0;" width="95.7285" x="904.14" y="428.51"/><rect fill="#363A4F" height="28.8438" rx="1.5" ry="1.5" style="stroke:#363A4F;stroke-width:2.0;" width="95.7285" x="904.14" y="428.51"/><rect fill="#363A4F" height="1.5" style="stroke:#363A4F;stroke-width:2.0;" width="95.7285" x="904.14" y="455.8538"/><rect codeLine="8" fill="none" height="28.8438" id="Kind" rx="1.5" ry="1.5" style="stroke:#C6A0F6;stroke-width:2.0;" width="95.7285" x="904.14" y="428.51"/><ellipse cx="917.14" cy="442.9319" fill="#FFFFFF" rx="9" ry="9" style="stroke:#000000;stroke-width:1.0;"/><path d="M914.1478,440.2073 L914.1478,438.6838 L919.3568,438.6838 L919.3568,440.2073 L917.6166,440.2073 L917.6166,445.9084 L919.3568,445.9084 L919.3568,447.4319 L914.1478,447.4319 L914.1478,445.9084 L915.888,445.9084 L915.888,440.2073 Z " fill="#CAD3F5"/><text fill="#A6DA95" font-family="sans-serif" font-size="16" font-style="italic" lengthAdjust="spacing" textLength="35.0703" x="929.14" y="448.9788">Kind</text><rect fill="#24273A" height="16.584" style="stroke:#C6A0F6;stroke-width:1.0;stroke-dasharray:2.0,2.0;" width="30.6582" x="972.2103" y="425.51"/><text fill="#000000" font-family="Verdana" font-size="12" font-style="italic" lengthAdjust="spacing" textLength="28.6582" x="973.2103" y="438.5745">W, A</text></g><!--class Monad--><g id="elem_Monad"><rect codeLine="9" fill="#24273A" height="28.8438" id="Monad" rx="1.5" ry="1.5" style="stroke:#C6A0F6;stroke-width:2.0;" width="96.3281" x="1034.84" y="428.51"/><rect fill="#363A4F" height="28.8438" rx="1.5" ry="1.5" style="stroke:#363A4F;stroke-width:2.0;" width="96.3281" x="1034.84" y="428.51"/><rect fill="#363A4F" height="1.5" style="stroke:#363A4F;stroke-width:2.0;" width="96.3281" x="1034.84" y="455.8538"/><rect codeLine="9" fill="none" height="28.8438" id="Monad" rx="1.5" ry="1.5" style="stroke:#C6A0F6;stroke-width:2.0;" width="96.3281" x="1034.84" y="428.51"/><ellipse cx="1047.84" cy="442.9319" fill="#FFFFFF" rx="9" ry="9" style="stroke:#000000;stroke-width:1.0;"/><path d="M1044.8478,440.2073 L1044.8478,438.6838 L1050.0568,438.6838 L1050.0568,440.2073 L1048.3166,440.2073 L1048.3166,445.9084 L1050.0568,445.9084 L1050.0568,447.4319 L1044.8478,447.4319 L1044.8478,445.9084 L1046.588,445.9084 L1046.588,440.2073 Z " fill="#CAD3F5"/><text fill="#A6DA95" font-family="sans-serif" font-size="16" font-style="italic" lengthAdjust="spacing" textLength="52.4453" x="1059.84" y="448.9788">Monad</text><rect fill="#24273A" height="16.584" style="stroke:#C6A0F6;stroke-width:1.0;stroke-dasharray:2.0,2.0;" width="13.8828" x="1120.2853" y="425.51"/><text fill="#000000" font-family="Verdana" font-size="12" font-style="italic" lengthAdjust="spacing" textLength="11.8828" x="1121.2853" y="438.5745">W</text></g><!--class MonadError--><g id="elem_MonadError"><rect codeLine="10" fill="#24273A" height="28.8438" id="MonadError" rx="1.5" ry="1.5" style="stroke:#C6A0F6;stroke-width:2.0;" width="150.6406" x="1165.68" y="428.51"/><rect fill="#363A4F" height="28.8438" rx="1.5" ry="1.5" style="stroke:#363A4F;stroke-width:2.0;" width="150.6406" x="1165.68" y="428.51"/><rect fill="#363A4F" height="1.5" style="stroke:#363A4F;stroke-width:2.0;" width="150.6406" x="1165.68" y="455.8538"/><rect codeLine="10" fill="none" height="28.8438" id="MonadError" rx="1.5" ry="1.5" style="stroke:#C6A0F6;stroke-width:2.0;" width="150.6406" x="1165.68" y="428.51"/><ellipse cx="1178.68" cy="442.9319" fill="#FFFFFF" rx="9" ry="9" style="stroke:#000000;stroke-width:1.0;"/><path d="M1175.6878,440.2073 L1175.6878,438.6838 L1180.8968,438.6838 L1180.8968,440.2073 L1179.1566,440.2073 L1179.1566,445.9084 L1180.8968,445.9084 L1180.8968,447.4319 L1175.6878,447.4319 L1175.6878,445.9084 L1177.428,445.9084 L1177.428,440.2073 Z " fill="#CAD3F5"/><text fill="#A6DA95" font-family="sans-serif" font-size="16" font-style="italic" lengthAdjust="spacing" textLength="90.5859" x="1190.68" y="448.9788">MonadError</text><rect fill="#24273A" height="16.584" style="stroke:#C6A0F6;stroke-width:1.0;stroke-dasharray:2.0,2.0;" width="30.0547" x="1289.2659" y="425.51"/><text fill="#000000" font-family="Verdana" font-size="12" font-style="italic" lengthAdjust="spacing" textLength="28.0547" x="1290.2659" y="438.5745">W, E</text></g><!--class Either--><g id="elem_Either"><rect codeLine="14" fill="#24273A" height="28.8438" id="Either" rx="1.5" ry="1.5" style="stroke:#C6A0F6;stroke-width:2.0;" width="100.2793" x="843.86" y="615.11"/><rect fill="#363A4F" height="28.8438" rx="1.5" ry="1.5" style="stroke:#363A4F;stroke-width:2.0;" width="100.2793" x="843.86" y="615.11"/><rect fill="#363A4F" height="1.5" style="stroke:#363A4F;stroke-width:2.0;" width="100.2793" x="843.86" y="642.4538"/><rect codeLine="14" fill="none" height="28.8438" id="Either" rx="1.5" ry="1.5" style="stroke:#C6A0F6;stroke-width:2.0;" width="100.2793" x="843.86" y="615.11"/><ellipse cx="856.86" cy="629.5319" fill="#FFFFFF" rx="9" ry="9" style="stroke:#000000;stroke-width:1.0;"/><path d="M853.8678,626.8073 L853.8678,625.2838 L859.0768,625.2838 L859.0768,626.8073 L857.3366,626.8073 L857.3366,632.5084 L859.0768,632.5084 L859.0768,634.0319 L853.8678,634.0319 L853.8678,632.5084 L855.608,632.5084 L855.608,626.8073 Z " fill="#CAD3F5"/><text fill="#A6DA95" font-family="sans-serif" font-size="16" font-style="italic" lengthAdjust="spacing" textLength="44.6719" x="868.86" y="635.5788">Either</text><rect fill="#24273A" height="16.584" style="stroke:#C6A0F6;stroke-width:1.0;stroke-dasharray:2.0,2.0;" width="25.6074" x="921.5319" y="612.11"/><text fill="#000000" font-family="Verdana" font-size="12" font-style="italic" lengthAdjust="spacing" textLength="23.6074" x="922.5319" y="625.1745">L, R</text></g><!--class EitherTKind--><g id="elem_EitherTKind"><rect codeLine="18" fill="#24273A" height="28.8438" id="EitherTKind" rx="1.5" ry="1.5" style="stroke:#C6A0F6;stroke-width:2.0;" width="160.9473" x="26.53" y="198.37"/><rect fill="#363A4F" height="28.8438" rx="1.5" ry="1.5" style="stroke:#363A4F;stroke-width:2.0;" width="160.9473" x="26.53" y="198.37"/><rect fill="#363A4F" height="1.5" style="stroke:#363A4F;stroke-width:2.0;" width="160.9473" x="26.53" y="225.7138"/><rect codeLine="18" fill="none" height="28.8438" id="EitherTKind" rx="1.5" ry="1.5" style="stroke:#C6A0F6;stroke-width:2.0;" width="160.9473" x="26.53" y="198.37"/><ellipse cx="39.53" cy="212.7919" fill="#FFFFFF" rx="9" ry="9" style="stroke:#000000;stroke-width:1.0;"/><path d="M36.5378,210.0673 L36.5378,208.5438 L41.7468,208.5438 L41.7468,210.0673 L40.0066,210.0673 L40.0066,215.7684 L41.7468,215.7684 L41.7468,217.2919 L36.5378,217.2919 L36.5378,215.7684 L38.278,215.7684 L38.278,210.0673 Z " fill="#CAD3F5"/><text fill="#A6DA95" font-family="sans-serif" font-size="16" font-style="italic" lengthAdjust="spacing" textLength="89.8594" x="51.53" y="218.8388">EitherTKind</text><rect fill="#24273A" height="16.584" style="stroke:#C6A0F6;stroke-width:1.0;stroke-dasharray:2.0,2.0;" width="41.0879" x="149.3894" y="195.37"/><text fill="#000000" font-family="Verdana" font-size="12" font-style="italic" lengthAdjust="spacing" textLength="39.0879" x="150.3894" y="208.4345">F, L, R</text></g><!--class Kind--><g id="elem_Kind"><rect fill="#24273A" height="28.8438" id="Kind" rx="1.5" ry="1.5" style="stroke:#C6A0F6;stroke-width:2.0;" width="63.0703" x="75.46" y="44"/><rect fill="#363A4F" height="28.8438" rx="1.5" ry="1.5" style="stroke:#363A4F;stroke-width:2.0;" width="63.0703" x="75.46" y="44"/><rect fill="#363A4F" height="1.5" style="stroke:#363A4F;stroke-width:2.0;" width="63.0703" x="75.46" y="71.3438"/><rect fill="none" height="28.8438" id="Kind" rx="1.5" ry="1.5" style="stroke:#C6A0F6;stroke-width:2.0;" width="63.0703" x="75.46" y="44"/><ellipse cx="88.46" cy="58.4219" fill="#FFFFFF" rx="9" ry="9" style="stroke:#000000;stroke-width:1.0;"/><path d="M85.4678,55.6973 L85.4678,54.1738 L90.6768,54.1738 L90.6768,55.6973 L88.9366,55.6973 L88.9366,61.3984 L90.6768,61.3984 L90.6768,62.9219 L85.4678,62.9219 L85.4678,61.3984 L87.208,61.3984 L87.208,55.6973 Z " fill="#CAD3F5"/><text fill="#A6DA95" font-family="sans-serif" font-size="16" font-style="italic" lengthAdjust="spacing" textLength="35.0703" x="100.46" y="64.4688">Kind</text></g><!--class EitherT--><g id="elem_EitherT"><rect codeLine="23" fill="#24273A" height="150.3574" id="EitherT" rx="1.5" ry="1.5" style="stroke:#C6A0F6;stroke-width:2.0;" width="448.4355" x="189.78" y="367.75"/><rect fill="#363A4F" height="43.4277" rx="1.5" ry="1.5" style="stroke:#363A4F;stroke-width:2.0;" width="448.4355" x="189.78" y="367.75"/><rect fill="#363A4F" height="1.5" style="stroke:#363A4F;stroke-width:2.0;" width="448.4355" x="189.78" y="409.6777"/><rect codeLine="23" fill="none" height="150.3574" id="EitherT" rx="1.5" ry="1.5" style="stroke:#C6A0F6;stroke-width:2.0;" width="448.4355" x="189.78" y="367.75"/><ellipse cx="361.3093" cy="389.4639" fill="#FFFFFF" rx="9" ry="9" style="stroke:#000000;stroke-width:1.0;"/><path d="M363.1433,393.7119 Q362.7331,393.9229 362.282,394.0283 Q361.8308,394.1338 361.3327,394.1338 Q359.5632,394.1338 358.6316,392.9678 Q357.6999,391.8018 357.6999,389.5986 Q357.6999,387.3896 358.6316,386.2236 Q359.5632,385.0576 361.3327,385.0576 Q361.8308,385.0576 362.2878,385.1631 Q362.7448,385.2686 363.1433,385.4795 L363.1433,387.4014 Q362.698,386.9912 362.279,386.8008 Q361.8601,386.6104 361.4148,386.6104 Q360.4655,386.6104 359.9821,387.3633 Q359.4988,388.1162 359.4988,389.5986 Q359.4988,391.0752 359.9821,391.8281 Q360.4655,392.5811 361.4148,392.5811 Q361.8601,392.5811 362.279,392.3906 Q362.698,392.2002 363.1433,391.79 Z " fill="#CAD3F5"/><text fill="#000000" font-family="Verdana" font-size="12" font-style="italic" lengthAdjust="spacing" textLength="53.8711" x="379.2683" y="384.8145">&#171;record&#187;</text><text fill="#A6DA95" font-family="sans-serif" font-size="16" lengthAdjust="spacing" textLength="54.7891" x="378.8093" y="402.8027">EitherT</text><rect fill="#24273A" height="16.584" style="stroke:#C6A0F6;stroke-width:1.0;stroke-dasharray:2.0,2.0;" width="41.0879" x="600.1277" y="364.75"/><text fill="#000000" font-family="Verdana" font-size="12" font-style="italic" lengthAdjust="spacing" textLength="39.0879" x="601.1277" y="377.8145">F, L, R</text><line style="stroke:#C6A0F6;stroke-width:2.0;" x1="190.78" x2="637.2155" y1="411.1777" y2="411.1777"/><text fill="#A6DA95" font-family="sans-serif" font-size="12" lengthAdjust="spacing" textLength="232.6406" x="195.78" y="426.7793">+EitherT(LKind&lt;F, Either&lt;L, R&gt;&gt; value)</text><text fill="#A6DA95" font-family="sans-serif" font-size="12" lengthAdjust="spacing" text-decoration="underline" textLength="338.9238" x="195.78" y="440.9121">+EitherT&lt;F, L, R&gt; fromKind(Kind&lt;F, Either&lt;L, R&gt;&gt; value)</text><text fill="#A6DA95" font-family="sans-serif" font-size="12" lengthAdjust="spacing" text-decoration="underline" textLength="307.4824" x="195.78" y="455.0449">+EitherT&lt;F, L, R&gt; right(Monad&lt;F&gt; outerMonad, R r)</text><text fill="#A6DA95" font-family="sans-serif" font-size="12" lengthAdjust="spacing" text-decoration="underline" textLength="296.1094" x="195.78" y="469.1777">+EitherT&lt;F, L, R&gt; left(Monad&lt;F&gt; outerMonad, L l)</text><text fill="#A6DA95" font-family="sans-serif" font-size="12" lengthAdjust="spacing" text-decoration="underline" textLength="436.4355" x="195.78" y="483.3105">+EitherT&lt;F, L, R&gt; fromEither(Monad&lt;F&gt; outerMonad, Either&lt;L, R&gt; either)</text><text fill="#A6DA95" font-family="sans-serif" font-size="12" lengthAdjust="spacing" text-decoration="underline" textLength="365.7773" x="195.78" y="497.4434">+EitherT&lt;F, L, R&gt; liftF(Monad&lt;F&gt; outerMonad, Kind&lt;F, R&gt; fr)</text><text fill="#A6DA95" font-family="sans-serif" font-size="12" lengthAdjust="spacing" textLength="185.1504" x="195.78" y="511.5762">+Kind&lt;F, Either&lt;L, R&gt;&gt; value()</text></g><!--class EitherTMonad--><g id="elem_EitherTMonad"><rect codeLine="33" fill="#24273A" height="157.9063" id="EitherTMonad" rx="1.5" ry="1.5" style="stroke:#C6A0F6;stroke-width:2.0;" width="496.8984" x="222.55" y="133.84"/><rect fill="#363A4F" height="28.8438" rx="1.5" ry="1.5" style="stroke:#363A4F;stroke-width:2.0;" width="496.8984" x="222.55" y="133.84"/><rect fill="#363A4F" height="1.5" style="stroke:#363A4F;stroke-width:2.0;" width="496.8984" x="222.55" y="161.1838"/><rect codeLine="33" fill="none" height="157.9063" id="EitherTMonad" rx="1.5" ry="1.5" style="stroke:#C6A0F6;stroke-width:2.0;" width="496.8984" x="222.55" y="133.84"/><ellipse cx="400.552" cy="148.2619" fill="#FFFFFF" rx="9" ry="9" style="stroke:#000000;stroke-width:1.0;"/><path d="M402.3859,152.5099 Q401.9758,152.7209 401.5246,152.8263 Q401.0734,152.9318 400.5754,152.9318 Q398.8059,152.9318 397.8742,151.7658 Q396.9426,150.5998 396.9426,148.3966 Q396.9426,146.1877 397.8742,145.0216 Q398.8059,143.8556 400.5754,143.8556 Q401.0734,143.8556 401.5305,143.9611 Q401.9875,144.0666 402.3859,144.2775 L402.3859,146.1994 Q401.9406,145.7892 401.5217,145.5988 Q401.1027,145.4084 400.6574,145.4084 Q399.7082,145.4084 399.2248,146.1613 Q398.7414,146.9142 398.7414,148.3966 Q398.7414,149.8732 399.2248,150.6261 Q399.7082,151.3791 400.6574,151.3791 Q401.1027,151.3791 401.5217,151.1886 Q401.9406,150.9982 402.3859,150.588 Z " fill="#CAD3F5"/><text fill="#A6DA95" font-family="sans-serif" font-size="16" lengthAdjust="spacing" textLength="107.2344" x="418.052" y="154.3088">EitherTMonad</text><rect fill="#24273A" height="16.584" style="stroke:#C6A0F6;stroke-width:1.0;stroke-dasharray:2.0,2.0;" width="24.1602" x="698.2883" y="130.84"/><text fill="#000000" font-family="Verdana" font-size="12" font-style="italic" lengthAdjust="spacing" textLength="22.1602" x="699.2883" y="143.9045">F, L</text><line style="stroke:#C6A0F6;stroke-width:2.0;" x1="223.55" x2="718.4484" y1="162.6838" y2="162.6838"/><text fill="#A6DA95" font-family="sans-serif" font-size="12" lengthAdjust="spacing" textLength="149.6191" x="228.55" y="178.2853">-outerMonad: Monad&lt;F&gt;</text><line style="stroke:#C6A0F6;stroke-width:2.0;" x1="223.55" x2="718.4484" y1="184.8166" y2="184.8166"/><text fill="#A6DA95" font-family="sans-serif" font-size="12" lengthAdjust="spacing" textLength="236.6484" x="228.55" y="200.4181">+EitherTMonad(Monad&lt;F&gt; outerMonad)</text><text fill="#A6DA95" font-family="sans-serif" font-size="12" lengthAdjust="spacing" textLength="145.3652" x="228.55" y="214.5509">+Kind&lt;G, A&gt; of(A value)</text><text fill="#A6DA95" font-family="sans-serif" font-size="12" lengthAdjust="spacing" textLength="307.7402" x="228.55" y="228.6838">+Kind&lt;G, B&gt; map(Function&lt;A, B&gt; f, Kind&lt;G, A&gt; fa)</text><text fill="#A6DA95" font-family="sans-serif" font-size="12" lengthAdjust="spacing" textLength="362.5957" x="228.55" y="242.8166">+Kind&lt;G, B&gt; ap(Kind&lt;G, Function&lt;A, B&gt;&gt; ff, Kind&lt;G, A&gt; fa)</text><text fill="#A6DA95" font-family="sans-serif" font-size="12" lengthAdjust="spacing" textLength="394.3066" x="228.55" y="256.9494">+Kind&lt;G, B&gt; flatMap(Function&lt;A, Kind&lt;G, B&gt;&gt; f, Kind&lt;G, A&gt; ma)</text><text fill="#A6DA95" font-family="sans-serif" font-size="12" lengthAdjust="spacing" textLength="186.4629" x="228.55" y="271.0822">+Kind&lt;G, A&gt; raiseError(L error)</text><text fill="#A6DA95" font-family="sans-serif" font-size="12" lengthAdjust="spacing" textLength="484.8984" x="228.55" y="285.215">+Kind&lt;G, A&gt; handleErrorWith(Kind&lt;G, A&gt; ma, Function&lt;L, Kind&lt;G, A&gt;&gt; handler)</text></g><!--class MonadError--><g id="elem_MonadError"><rect fill="#24273A" height="28.8438" id="MonadError" rx="1.5" ry="1.5" style="stroke:#C6A0F6;stroke-width:2.0;" width="118.5859" x="411.71" y="44"/><rect fill="#363A4F" height="28.8438" rx="1.5" ry="1.5" style="stroke:#363A4F;stroke-width:2.0;" width="118.5859" x="411.71" y="44"/><rect fill="#363A4F" height="1.5" style="stroke:#363A4F;stroke-width:2.0;" width="118.5859" x="411.71" y="71.3438"/><rect fill="none" height="28.8438" id="MonadError" rx="1.5" ry="1.5" style="stroke:#C6A0F6;stroke-width:2.0;" width="118.5859" x="411.71" y="44"/><ellipse cx="424.71" cy="58.4219" fill="#FFFFFF" rx="9" ry="9" style="stroke:#000000;stroke-width:1.0;"/><path d="M421.7178,55.6973 L421.7178,54.1738 L426.9268,54.1738 L426.9268,55.6973 L425.1866,55.6973 L425.1866,61.3984 L426.9268,61.3984 L426.9268,62.9219 L421.7178,62.9219 L421.7178,61.3984 L423.458,61.3984 L423.458,55.6973 Z " fill="#CAD3F5"/><text fill="#A6DA95" font-family="sans-serif" font-size="16" font-style="italic" lengthAdjust="spacing" textLength="90.5859" x="436.71" y="64.4688">MonadError</text></g><!--class Kind--><g id="elem_Kind"><rect fill="#24273A" height="28.8438" id="Kind" rx="1.5" ry="1.5" style="stroke:#C6A0F6;stroke-width:2.0;" width="63.0703" x="135.46" y="615.11"/><rect fill="#363A4F" height="28.8438" rx="1.5" ry="1.5" style="stroke:#363A4F;stroke-width:2.0;" width="63.0703" x="135.46" y="615.11"/><rect fill="#363A4F" height="1.5" style="stroke:#363A4F;stroke-width:2.0;" width="63.0703" x="135.46" y="642.4538"/><rect fill="none" height="28.8438" id="Kind" rx="1.5" ry="1.5" style="stroke:#C6A0F6;stroke-width:2.0;" width="63.0703" x="135.46" y="615.11"/><ellipse cx="148.46" cy="629.5319" fill="#FFFFFF" rx="9" ry="9" style="stroke:#000000;stroke-width:1.0;"/><path d="M150.294,633.7799 Q149.8838,633.9909 149.4327,634.0963 Q148.9815,634.2018 148.4834,634.2018 Q146.7139,634.2018 145.7823,633.0358 Q144.8506,631.8698 144.8506,629.6666 Q144.8506,627.4577 145.7823,626.2916 Q146.7139,625.1256 148.4834,625.1256 Q148.9815,625.1256 149.4385,625.2311 Q149.8955,625.3366 150.294,625.5475 L150.294,627.4694 Q149.8487,627.0592 149.4297,626.8688 Q149.0108,626.6784 148.5655,626.6784 Q147.6163,626.6784 147.1329,627.4313 Q146.6495,628.1842 146.6495,629.6666 Q146.6495,631.1432 147.1329,631.8961 Q147.6163,632.6491 148.5655,632.6491 Q149.0108,632.6491 149.4297,632.4586 Q149.8487,632.2682 150.294,631.858 Z " fill="#CAD3F5"/><text fill="#A6DA95" font-family="sans-serif" font-size="16" lengthAdjust="spacing" textLength="35.0703" x="160.46" y="635.5788">Kind</text></g><!--class MonadError--><g id="elem_MonadError"><rect fill="#24273A" height="28.8438" id="MonadError" rx="1.5" ry="1.5" style="stroke:#C6A0F6;stroke-width:2.0;" width="118.5859" x="750.71" y="428.51"/><rect fill="#363A4F" height="28.8438" rx="1.5" ry="1.5" style="stroke:#363A4F;stroke-width:2.0;" width="118.5859" x="750.71" y="428.51"/><rect fill="#363A4F" height="1.5" style="stroke:#363A4F;stroke-width:2.0;" width="118.5859" x="750.71" y="455.8538"/><rect fill="none" height="28.8438" id="MonadError" rx="1.5" ry="1.5" style="stroke:#C6A0F6;stroke-width:2.0;" width="118.5859" x="750.71" y="428.51"/><ellipse cx="763.71" cy="442.9319" fill="#FFFFFF" rx="9" ry="9" style="stroke:#000000;stroke-width:1.0;"/><path d="M765.544,447.1799 Q765.1338,447.3909 764.6827,447.4963 Q764.2315,447.6018 763.7334,447.6018 Q761.9639,447.6018 761.0323,446.4358 Q760.1006,445.2698 760.1006,443.0666 Q760.1006,440.8577 761.0323,439.6916 Q761.9639,438.5256 763.7334,438.5256 Q764.2315,438.5256 764.6885,438.6311 Q765.1455,438.7366 765.544,438.9475 L765.544,440.8694 Q765.0987,440.4592 764.6797,440.2688 Q764.2608,440.0784 763.8155,440.0784 Q762.8663,440.0784 762.3829,440.8313 Q761.8995,441.5842 761.8995,443.0666 Q761.8995,444.5432 762.3829,445.2961 Q762.8663,446.0491 763.8155,446.0491 Q764.2608,446.0491 764.6797,445.8586 Q765.0987,445.6682 765.544,445.258 Z " fill="#CAD3F5"/><text fill="#A6DA95" font-family="sans-serif" font-size="16" lengthAdjust="spacing" textLength="90.5859" x="775.71" y="448.9788">MonadError</text></g><!--reverse link Kind to EitherTKind--><g id="link_Kind_EitherTKind"><path d="M107,91.21 C107,120.22 107,169.26 107,198.15 " fill="none" id="Kind-backto-EitherTKind" style="stroke:#F5BDE6;stroke-width:1.0;"/><polygon fill="none" points="107,73.21,101,91.21,113,91.21,107,73.21" style="stroke:#F5BDE6;stroke-width:1.0;"/></g><!--reverse link EitherTKind to EitherT--><g id="link_EitherTKind_EitherT"><path d="M128.3785,241.6402 C147.3185,266.0002 178.72,303.46 223,337.75 C236.44,348.16 251.05,358.12 266.02,367.48 " fill="none" id="EitherTKind-backto-EitherT" style="stroke:#F5BDE6;stroke-width:1.0;stroke-dasharray:7.0,7.0;"/><polygon fill="none" points="117.33,227.43,123.6418,245.3231,133.1152,237.9574,117.33,227.43" style="stroke:#F5BDE6;stroke-width:1.0;"/></g><!--link EitherT to EitherTKind--><g id="link_EitherT_EitherTKind"><path codeLine="48" d="M308.02,367.29 C274.79,343.49 238.14,316.81 205,291.75 C176.04,269.85 143.16,243.35 123.8,227.57 " fill="none" id="EitherT-EitherTKind" style="stroke:#F5BDE6;stroke-width:1.0;"/><text fill="#CAD3F5" font-family="sans-serif" font-size="12" lengthAdjust="spacing" textLength="68.3203" x="262.77" y="334.3516">implements</text></g><!--reverse link MonadError to EitherTMonad--><g id="link_MonadError_EitherTMonad"><path d="M471,91.21 C471,105.28 471,110.28 471,133.54 " fill="none" id="MonadError-backto-EitherTMonad" style="stroke:#F5BDE6;stroke-width:1.0;stroke-dasharray:7.0,7.0;"/><polygon fill="none" points="471,73.21,465,91.21,477,91.21,471,73.21" style="stroke:#F5BDE6;stroke-width:1.0;"/></g><!--link EitherTKind to Kind--><g id="link_EitherTKind_Kind"><path codeLine="47" d="M105.74,227.55 C101.99,273.22 92.92,423.69 124,542.11 C131.19,569.5 147.63,598.39 157.97,614.86 " fill="none" id="EitherTKind-Kind" style="stroke:#F5BDE6;stroke-width:1.0;"/><text fill="#CAD3F5" font-family="sans-serif" font-size="12" lengthAdjust="spacing" textLength="46.3359" x="125" y="447.5316">extends</text></g><!--link EitherTMonad to MonadError--><g id="link_EitherTMonad_MonadError"><path codeLine="49" d="M620.48,292.19 C659.04,314.74 699.63,340.64 735,367.75 C759.27,386.35 783.79,412.25 797.91,428.01 " fill="none" id="EitherTMonad-MonadError" style="stroke:#F5BDE6;stroke-width:1.0;"/><text fill="#CAD3F5" font-family="sans-serif" font-size="12" lengthAdjust="spacing" textLength="68.3203" x="688.44" y="334.3516">implements</text></g><!--reverse link EitherTMonad to Monad--><g id="link_EitherTMonad_Monad"><path codeLine="51" d="M731.4802,255.472 C829.3102,278.522 927.67,311.84 1017,367.75 C1042.13,383.48 1063.29,411.56 1074.46,428.29 " fill="none" id="EitherTMonad-backto-Monad" style="stroke:#F5BDE6;stroke-width:1.0;"/><polygon fill="#F5BDE6" points="719.8,252.72,724.7228,257.9894,731.4802,255.472,726.5574,250.2026,719.8,252.72" style="stroke:#F5BDE6;stroke-width:1.0;"/><polygon fill="#CAD3F5" points="957.3522,331.6163,951.948,326.2606,949.8321,330.4599,957.3522,331.6163" style="stroke:#CAD3F5;stroke-width:1.0;"/><text fill="#CAD3F5" font-family="sans-serif" font-size="12" lengthAdjust="spacing" textLength="100.4004" x="962.78" y="334.3516">uses outerMonad</text></g><!--link EitherT to Kind--><g id="link_EitherT_Kind"><path codeLine="52" d="M314.25,518.48 C266.05,554.5 217.6361,590.6782 190.2861,611.1182 " fill="none" id="EitherT-to-Kind" style="stroke:#F5BDE6;stroke-width:1.0;stroke-dasharray:7.0,7.0;"/><polygon fill="#F5BDE6" points="185.48,614.71,195.0837,612.5263,189.4851,611.7168,190.2946,606.1182,185.48,614.71" style="stroke:#F5BDE6;stroke-width:1.0;"/><text fill="#CAD3F5" font-family="sans-serif" font-size="12" lengthAdjust="spacing" textLength="145.8223" x="269.38" y="562.7116">contains Kind&lt;F, Either&gt;</text></g><!--link EitherT to Either--><g id="link_EitherT_Either"><path codeLine="53" d="M607.85,518.48 C701.52,554.5 799.3298,592.1163 852.4798,612.5563 " fill="none" id="EitherT-to-Either" style="stroke:#F5BDE6;stroke-width:1.0;stroke-dasharray:7.0,7.0;"/><polygon fill="#F5BDE6" points="858.08,614.71,851.1155,607.7461,853.4132,612.9153,848.244,615.2129,858.08,614.71" style="stroke:#F5BDE6;stroke-width:1.0;"/><text fill="#CAD3F5" font-family="sans-serif" font-size="12" lengthAdjust="spacing" textLength="145.8223" x="726.04" y="562.7116">contains Kind&lt;F, Either&gt;</text></g><!--link EitherTMonad to EitherT--><g id="link_EitherTMonad_EitherT"><path codeLine="54" d="M451.46,291.99 C445.37,316.36 440.1229,337.3586 434.1029,361.4786 " fill="none" id="EitherTMonad-to-EitherT" style="stroke:#F5BDE6;stroke-width:1.0;stroke-dasharray:7.0,7.0;"/><polygon fill="#F5BDE6" points="432.65,367.3,438.7104,359.5365,433.8608,362.4488,430.9485,357.5992,432.65,367.3" style="stroke:#F5BDE6;stroke-width:1.0;"/><text fill="#CAD3F5" font-family="sans-serif" font-size="12" lengthAdjust="spacing" textLength="69.0527" x="443.5" y="334.3516">operates on</text></g><!--link EitherTMonad to Either--><g id="link_EitherTMonad_Either"><path codeLine="55" d="M719.88,223.82 C945.81,238.76 1255.09,275.87 1332,367.75 C1381.74,427.17 1381.21,482.24 1332,542.11 C1283.4,601.23 1055.091,620.2411 950.541,625.9811 " fill="none" id="EitherTMonad-to-Either" style="stroke:#F5BDE6;stroke-width:1.0;stroke-dasharray:7.0,7.0;"/><polygon fill="#F5BDE6" points="944.55,626.31,953.7557,629.8106,949.5425,626.0359,953.3172,621.8226,944.55,626.31" style="stroke:#F5BDE6;stroke-width:1.0;"/><text fill="#CAD3F5" font-family="sans-serif" font-size="12" lengthAdjust="spacing" textLength="140.1094" x="1370.1" y="447.5316">operates on inner Either</text></g><!--SRC=[fLN1Sjem4BtxApQvn6anzCnGTsW7aan83vHfpaAiiIQMv97aj6ac_zwrZOeCfcMcN8nstxvzAprR5ov7YL0MJAZeGYXUL1k4tBdIZaSZmtuCjyBbrRgoQBXM3fKRSYr7YclhM2BuY3DNbXNdGYMISPuBvdH2VCfLiaWQ-f4azb7pTrXIDB9FGfNCC0cyODPEdJDYNJcyenRVn2-43m5aWnch2ZUdxbyPQRrSwhLsUW2tM3oZ4vnTHhaWrIXBzm8IvHgDZQAIyIUs9VmNRH1kxrTmH_fDnZZQItYDW7x2H-1UgCtaSG3Jz23ne1MZJ6zuPemsTTKiZTw2ZZFQCpImUYdHTmfAs-naCO1bNzaALeOfcsaZqHmBtO4QlVC1D2o0F-baDhQTuXZnAMrGEoK0L_0ed49hmP54k86Fq5UqXtzdHOKj661Ay6MJ8_7repb4px0NDPaOvDfiqXI4B0iwVULil_wTilS-6ozyFjoi59vh7TTU5-5VoOLaWRVZxfdHiYQ9_vl9Y6tkujO7ynGq6TKqAyg2EO-ZmEm4nGAAymTgW_r4uNo0pU9CRI9pytvEltTD-v3jBviQNv_qngu7DUvO8dYN-hsx2BmBIQ1m35vse2rirZVMqHmtzMiFEekdnxRmWCyfI5R6yqfn9xIQJ9jGDWWPCdQYaWhzgaj0DMTIP0Lp3mS2zkb39PAT6D8mOR7PwdW1M3zF07EcDaMBf6z57dV8Wp4MOLzVPhm5o0JH5IoHn1FOvgAqKN34a2HDDOpz5yndwqm870T-YS83he5x_tHnNU0xZoGGNMSsS0IaV_eEXwcNLDztT77P0xDtiRjF_R_HRQDzoOfgT8c6kLgAEWNhekWUK1HhKz5l]--></g></svg>