<svg xmlns="http://www.w3.org/2000/svg" xmlns:xlink="http://www.w3.org/1999/xlink" contentStyleType="text/css" height="685px" preserveAspectRatio="none" style="width:1521px;height:685px;background:#24273A;" version="1.1" viewBox="0 0 1521 685" width="1521px" zoomAndPan="magnify"><defs/><g><rect fill="#24273A" height="685" style="stroke:none;stroke-width:1.0;" width="1521" x="0" y="0"/><!--cluster Core HKT Interfaces--><g id="cluster_Core HKT Interfaces"><path d="M889.5,404.57 L1016.7129,404.57 A2.25,2.25 0 0 1 1018.2129,406.07 L1025.2129,424.7028 L1330.5,424.7028 A1.5,1.5 0 0 1 1332,426.2028 L1332,480.91 A1.5,1.5 0 0 1 1330.5,482.41 L889.5,482.41 A1.5,1.5 0 0 1 888,480.91 L888,406.07 A1.5,1.5 0 0 1 889.5,404.57 " fill="#24273A" style="stroke:#CAD3F5;stroke-width:1.0;"/><line style="stroke:#CAD3F5;stroke-width:1.0;" x1="888" x2="1025.2129" y1="424.7028" y2="424.7028"/><text fill="#CAD3F5" font-family="sans-serif" font-size="12" font-weight="bold" lengthAdjust="spacing" textLength="124.2129" x="892" y="418.1716">Core HKT Interfaces</text></g><!--cluster Either Type--><g id="cluster_Either Type"><path d="M829.5,600.24 L903.0527,600.24 A2.25,2.25 0 0 1 904.5527,601.74 L911.5527,620.3728 L958.5,620.3728 A1.5,1.5 0 0 1 960,621.8728 L960,676.58 A1.5,1.5 0 0 1 958.5,678.08 L829.5,678.08 A1.5,1.5 0 0 1 828,676.58 L828,601.74 A1.5,1.5 0 0 1 829.5,600.24 " fill="#24273A" style="stroke:#CAD3F5;stroke-width:1.0;"/><line style="stroke:#CAD3F5;stroke-width:1.0;" x1="828" x2="911.5527" y1="620.3728" y2="620.3728"/><text fill="#CAD3F5" font-family="sans-serif" font-size="12" font-weight="bold" lengthAdjust="spacing" textLength="70.5527" x="832" y="613.8416">Either Type</text></g><!--cluster EitherT Transformer--><g id="cluster_EitherT Transformer"><path d="M12.5,11 L141.7461,11 A2.25,2.25 0 0 1 143.2461,12.5 L150.2461,31.1328 L733.5,31.1328 A1.5,1.5 0 0 1 735,32.6328 L735,550.74 A1.5,1.5 0 0 1 733.5,552.24 L12.5,552.24 A1.5,1.5 0 0 1 11,550.74 L11,12.5 A1.5,1.5 0 0 1 12.5,11 " fill="#24273A" style="stroke:#CAD3F5;stroke-width:1.0;"/><line style="stroke:#CAD3F5;stroke-width:1.0;" x1="11" x2="150.2461" y1="31.1328" y2="31.1328"/><text fill="#CAD3F5" font-family="sans-serif" font-size="12" font-weight="bold" lengthAdjust="spacing" textLength="126.2461" x="15" y="24.6016">EitherT Transformer</text></g><!--class Kind--><g id="elem_Kind"><rect codeLine="8" fill="#24273A" height="28.8438" id="Kind" rx="1.5" ry="1.5" style="stroke:#C6A0F6;stroke-width:2.0;" width="95.7285" x="904.14" y="437.57"/><rect fill="#363A4F" height="28.8438" rx="1.5" ry="1.5" style="stroke:#363A4F;stroke-width:2.0;" width="95.7285" x="904.14" y="437.57"/><rect fill="#363A4F" height="1.5" style="stroke:#363A4F;stroke-width:2.0;" width="95.7285" x="904.14" y="464.9138"/><rect codeLine="8" fill="none" height="28.8438" id="Kind" rx="1.5" ry="1.5" style="stroke:#C6A0F6;stroke-width:2.0;" width="95.7285" x="904.14" y="437.57"/><ellipse cx="917.14" cy="451.9919" fill="#FFFFFF" rx="9" ry="9" style="stroke:#000000;stroke-width:1.0;"/><path d="M914.1478,449.2673 L914.1478,447.7438 L919.3568,447.7438 L919.3568,449.2673 L917.6166,449.2673 L917.6166,454.9684 L919.3568,454.9684 L919.3568,456.4919 L914.1478,456.4919 L914.1478,454.9684 L915.888,454.9684 L915.888,449.2673 Z " fill="#CAD3F5"/><text fill="#A6DA95" font-family="sans-serif" font-size="16" font-style="italic" lengthAdjust="spacing" textLength="35.0703" x="929.14" y="458.0388">Kind</text><rect fill="#24273A" height="16.584" style="stroke:#C6A0F6;stroke-width:1.0;stroke-dasharray:2.0,2.0;" width="30.6582" x="972.2103" y="434.57"/><text fill="#000000" font-family="Verdana" font-size="12" font-style="italic" lengthAdjust="spacing" textLength="28.6582" x="973.2103" y="447.6345">W, A</text></g><!--class Monad--><g id="elem_Monad"><rect codeLine="9" fill="#24273A" height="28.8438" id="Monad" rx="1.5" ry="1.5" style="stroke:#C6A0F6;stroke-width:2.0;" width="96.3281" x="1034.84" y="437.57"/><rect fill="#363A4F" height="28.8438" rx="1.5" ry="1.5" style="stroke:#363A4F;stroke-width:2.0;" width="96.3281" x="1034.84" y="437.57"/><rect fill="#363A4F" height="1.5" style="stroke:#363A4F;stroke-width:2.0;" width="96.3281" x="1034.84" y="464.9138"/><rect codeLine="9" fill="none" height="28.8438" id="Monad" rx="1.5" ry="1.5" style="stroke:#C6A0F6;stroke-width:2.0;" width="96.3281" x="1034.84" y="437.57"/><ellipse cx="1047.84" cy="451.9919" fill="#FFFFFF" rx="9" ry="9" style="stroke:#000000;stroke-width:1.0;"/><path d="M1044.8478,449.2673 L1044.8478,447.7438 L1050.0568,447.7438 L1050.0568,449.2673 L1048.3166,449.2673 L1048.3166,454.9684 L1050.0568,454.9684 L1050.0568,456.4919 L1044.8478,456.4919 L1044.8478,454.9684 L1046.588,454.9684 L1046.588,449.2673 Z " fill="#CAD3F5"/><text fill="#A6DA95" font-family="sans-serif" font-size="16" font-style="italic" lengthAdjust="spacing" textLength="52.4453" x="1059.84" y="458.0388">Monad</text><rect fill="#24273A" height="16.584" style="stroke:#C6A0F6;stroke-width:1.0;stroke-dasharray:2.0,2.0;" width="13.8828" x="1120.2853" y="434.57"/><text fill="#000000" font-family="Verdana" font-size="12" font-style="italic" lengthAdjust="spacing" textLength="11.8828" x="1121.2853" y="447.6345">W</text></g><!--class MonadError--><g id="elem_MonadError"><rect codeLine="10" fill="#24273A" height="28.8438" id="MonadError" rx="1.5" ry="1.5" style="stroke:#C6A0F6;stroke-width:2.0;" width="150.6406" x="1165.68" y="437.57"/><rect fill="#363A4F" height="28.8438" rx="1.5" ry="1.5" style="stroke:#363A4F;stroke-width:2.0;" width="150.6406" x="1165.68" y="437.57"/><rect fill="#363A4F" height="1.5" style="stroke:#363A4F;stroke-width:2.0;" width="150.6406" x="1165.68" y="464.9138"/><rect codeLine="10" fill="none" height="28.8438" id="MonadError" rx="1.5" ry="1.5" style="stroke:#C6A0F6;stroke-width:2.0;" width="150.6406" x="1165.68" y="437.57"/><ellipse cx="1178.68" cy="451.9919" fill="#FFFFFF" rx="9" ry="9" style="stroke:#000000;stroke-width:1.0;"/><path d="M1175.6878,449.2673 L1175.6878,447.7438 L1180.8968,447.7438 L1180.8968,449.2673 L1179.1566,449.2673 L1179.1566,454.9684 L1180.8968,454.9684 L1180.8968,456.4919 L1175.6878,456.4919 L1175.6878,454.9684 L1177.428,454.9684 L1177.428,449.2673 Z " fill="#CAD3F5"/><text fill="#A6DA95" font-family="sans-serif" font-size="16" font-style="italic" lengthAdjust="spacing" textLength="90.5859" x="1190.68" y="458.0388">MonadError</text><rect fill="#24273A" height="16.584" style="stroke:#C6A0F6;stroke-width:1.0;stroke-dasharray:2.0,2.0;" width="30.0547" x="1289.2659" y="434.57"/><text fill="#000000" font-family="Verdana" font-size="12" font-style="italic" lengthAdjust="spacing" textLength="28.0547" x="1290.2659" y="447.6345">W, E</text></g><!--class Either--><g id="elem_Either"><rect codeLine="14" fill="#24273A" height="28.8438" id="Either" rx="1.5" ry="1.5" style="stroke:#C6A0F6;stroke-width:2.0;" width="100.2793" x="843.86" y="633.24"/><rect fill="#363A4F" height="28.8438" rx="1.5" ry="1.5" style="stroke:#363A4F;stroke-width:2.0;" width="100.2793" x="843.86" y="633.24"/><rect fill="#363A4F" height="1.5" style="stroke:#363A4F;stroke-width:2.0;" width="100.2793" x="843.86" y="660.5838"/><rect codeLine="14" fill="none" height="28.8438" id="Either" rx="1.5" ry="1.5" style="stroke:#C6A0F6;stroke-width:2.0;" width="100.2793" x="843.86" y="633.24"/><ellipse cx="856.86" cy="647.6619" fill="#FFFFFF" rx="9" ry="9" style="stroke:#000000;stroke-width:1.0;"/><path d="M853.8678,644.9373 L853.8678,643.4138 L859.0768,643.4138 L859.0768,644.9373 L857.3366,644.9373 L857.3366,650.6384 L859.0768,650.6384 L859.0768,652.1619 L853.8678,652.1619 L853.8678,650.6384 L855.608,650.6384 L855.608,644.9373 Z " fill="#CAD3F5"/><text fill="#A6DA95" font-family="sans-serif" font-size="16" font-style="italic" lengthAdjust="spacing" textLength="44.6719" x="868.86" y="653.7088">Either</text><rect fill="#24273A" height="16.584" style="stroke:#C6A0F6;stroke-width:1.0;stroke-dasharray:2.0,2.0;" width="25.6074" x="921.5319" y="630.24"/><text fill="#000000" font-family="Verdana" font-size="12" font-style="italic" lengthAdjust="spacing" textLength="23.6074" x="922.5319" y="643.3045">L, R</text></g><!--class EitherTKind--><g id="elem_EitherTKind"><rect codeLine="18" fill="#24273A" height="28.8438" id="EitherTKind" rx="1.5" ry="1.5" style="stroke:#C6A0F6;stroke-width:2.0;" width="160.9473" x="26.53" y="198.37"/><rect fill="#363A4F" height="28.8438" rx="1.5" ry="1.5" style="stroke:#363A4F;stroke-width:2.0;" width="160.9473" x="26.53" y="198.37"/><rect fill="#363A4F" height="1.5" style="stroke:#363A4F;stroke-width:2.0;" width="160.9473" x="26.53" y="225.7138"/><rect codeLine="18" fill="none" height="28.8438" id="EitherTKind" rx="1.5" ry="1.5" style="stroke:#C6A0F6;stroke-width:2.0;" width="160.9473" x="26.53" y="198.37"/><ellipse cx="39.53" cy="212.7919" fill="#FFFFFF" rx="9" ry="9" style="stroke:#000000;stroke-width:1.0;"/><path d="M36.5378,210.0673 L36.5378,208.5438 L41.7468,208.5438 L41.7468,210.0673 L40.0066,210.0673 L40.0066,215.7684 L41.7468,215.7684 L41.7468,217.2919 L36.5378,217.2919 L36.5378,215.7684 L38.278,215.7684 L38.278,210.0673 Z " fill="#CAD3F5"/><text fill="#A6DA95" font-family="sans-serif" font-size="16" font-style="italic" lengthAdjust="spacing" textLength="89.8594" x="51.53" y="218.8388">EitherTKind</text><rect fill="#24273A" height="16.584" style="stroke:#C6A0F6;stroke-width:1.0;stroke-dasharray:2.0,2.0;" width="41.0879" x="149.3894" y="195.37"/><text fill="#000000" font-family="Verdana" font-size="12" font-style="italic" lengthAdjust="spacing" textLength="39.0879" x="150.3894" y="208.4345">F, L, R</text></g><!--class Kind--><g id="elem_Kind"><rect fill="#24273A" height="28.8438" id="Kind" rx="1.5" ry="1.5" style="stroke:#C6A0F6;stroke-width:2.0;" width="63.0703" x="75.46" y="44"/><rect fill="#363A4F" height="28.8438" rx="1.5" ry="1.5" style="stroke:#363A4F;stroke-width:2.0;" width="63.0703" x="75.46" y="44"/><rect fill="#363A4F" height="1.5" style="stroke:#363A4F;stroke-width:2.0;" width="63.0703" x="75.46" y="71.3438"/><rect fill="none" height="28.8438" id="Kind" rx="1.5" ry="1.5" style="stroke:#C6A0F6;stroke-width:2.0;" width="63.0703" x="75.46" y="44"/><ellipse cx="88.46" cy="58.4219" fill="#FFFFFF" rx="9" ry="9" style="stroke:#000000;stroke-width:1.0;"/><path d="M85.4678,55.6973 L85.4678,54.1738 L90.6768,54.1738 L90.6768,55.6973 L88.9366,55.6973 L88.9366,61.3984 L90.6768,61.3984 L90.6768,62.9219 L85.4678,62.9219 L85.4678,61.3984 L87.208,61.3984 L87.208,55.6973 Z " fill="#CAD3F5"/><text fill="#A6DA95" font-family="sans-serif" font-size="16" font-style="italic" lengthAdjust="spacing" textLength="35.0703" x="100.46" y="64.4688">Kind</text></g><!--class EitherT--><g id="elem_EitherT"><rect codeLine="23" fill="#24273A" height="168.4902" id="EitherT" rx="1.5" ry="1.5" style="stroke:#C6A0F6;stroke-width:2.0;" width="448.4355" x="189.78" y="367.75"/><rect fill="#363A4F" height="43.4277" rx="1.5" ry="1.5" style="stroke:#363A4F;stroke-width:2.0;" width="448.4355" x="189.78" y="367.75"/><rect fill="#363A4F" height="1.5" style="stroke:#363A4F;stroke-width:2.0;" width="448.4355" x="189.78" y="409.6777"/><rect codeLine="23" fill="none" height="168.4902" id="EitherT" rx="1.5" ry="1.5" style="stroke:#C6A0F6;stroke-width:2.0;" width="448.4355" x="189.78" y="367.75"/><ellipse cx="361.3093" cy="389.4639" fill="#FFFFFF" rx="9" ry="9" style="stroke:#000000;stroke-width:1.0;"/><path d="M363.1433,393.7119 Q362.7331,393.9229 362.282,394.0283 Q361.8308,394.1338 361.3327,394.1338 Q359.5632,394.1338 358.6316,392.9678 Q357.6999,391.8018 357.6999,389.5986 Q357.6999,387.3896 358.6316,386.2236 Q359.5632,385.0576 361.3327,385.0576 Q361.8308,385.0576 362.2878,385.1631 Q362.7448,385.2686 363.1433,385.4795 L363.1433,387.4014 Q362.698,386.9912 362.279,386.8008 Q361.8601,386.6104 361.4148,386.6104 Q360.4655,386.6104 359.9821,387.3633 Q359.4988,388.1162 359.4988,389.5986 Q359.4988,391.0752 359.9821,391.8281 Q360.4655,392.5811 361.4148,392.5811 Q361.8601,392.5811 362.279,392.3906 Q362.698,392.2002 363.1433,391.79 Z " fill="#CAD3F5"/><text fill="#000000" font-family="Verdana" font-size="12" font-style="italic" lengthAdjust="spacing" textLength="53.8711" x="379.2683" y="384.8145">&#171;record&#187;</text><text fill="#A6DA95" font-family="sans-serif" font-size="16" lengthAdjust="spacing" textLength="54.7891" x="378.8093" y="402.8027">EitherT</text><rect fill="#24273A" height="16.584" style="stroke:#C6A0F6;stroke-width:1.0;stroke-dasharray:2.0,2.0;" width="41.0879" x="600.1277" y="364.75"/><text fill="#000000" font-family="Verdana" font-size="12" font-style="italic" lengthAdjust="spacing" textLength="39.0879" x="601.1277" y="377.8145">F, L, R</text><line style="stroke:#C6A0F6;stroke-width:2.0;" x1="190.78" x2="637.2155" y1="411.1777" y2="411.1777"/><text fill="#A6DA95" font-family="sans-serif" font-size="12" lengthAdjust="spacing" textLength="226.2422" x="195.78" y="426.7793">+EitherT(Kind&lt;F, Either&lt;L, R&gt;&gt; value)</text><text fill="#A6DA95" font-family="sans-serif" font-size="12" lengthAdjust="spacing" text-decoration="underline" textLength="338.9238" x="195.78" y="459.0449">+EitherT&lt;F, L, R&gt; fromKind(Kind&lt;F, Either&lt;L, R&gt;&gt; value)</text><text fill="#A6DA95" font-family="sans-serif" font-size="12" lengthAdjust="spacing" text-decoration="underline" textLength="307.4824" x="195.78" y="473.1777">+EitherT&lt;F, L, R&gt; right(Monad&lt;F&gt; outerMonad, R r)</text><text fill="#A6DA95" font-family="sans-serif" font-size="12" lengthAdjust="spacing" text-decoration="underline" textLength="296.1094" x="195.78" y="487.3105">+EitherT&lt;F, L, R&gt; left(Monad&lt;F&gt; outerMonad, L l)</text><text fill="#A6DA95" font-family="sans-serif" font-size="12" lengthAdjust="spacing" text-decoration="underline" textLength="436.4355" x="195.78" y="501.4434">+EitherT&lt;F, L, R&gt; fromEither(Monad&lt;F&gt; outerMonad, Either&lt;L, R&gt; either)</text><text fill="#A6DA95" font-family="sans-serif" font-size="12" lengthAdjust="spacing" text-decoration="underline" textLength="365.7773" x="195.78" y="515.5762">+EitherT&lt;F, L, R&gt; liftF(Monad&lt;F&gt; outerMonad, Kind&lt;F, R&gt; fr)</text><text fill="#A6DA95" font-family="sans-serif" font-size="12" lengthAdjust="spacing" textLength="185.1504" x="195.78" y="529.709">+Kind&lt;F, Either&lt;L, R&gt;&gt; value()</text><line style="stroke:#C6A0F6;stroke-width:2.0;" x1="190.78" x2="388.9988" y1="440.377" y2="440.377"/><text fill="#A6DA95" font-family="sans-serif" font-size="12" lengthAdjust="spacing" textLength="49.998" x="388.9988" y="444.4121">Methods</text><line style="stroke:#C6A0F6;stroke-width:2.0;" x1="438.9968" x2="637.2155" y1="440.377" y2="440.377"/></g><!--class EitherTMonad--><g id="elem_EitherTMonad"><rect codeLine="34" fill="#24273A" height="157.9063" id="EitherTMonad" rx="1.5" ry="1.5" style="stroke:#C6A0F6;stroke-width:2.0;" width="496.8984" x="222.55" y="133.84"/><rect fill="#363A4F" height="28.8438" rx="1.5" ry="1.5" style="stroke:#363A4F;stroke-width:2.0;" width="496.8984" x="222.55" y="133.84"/><rect fill="#363A4F" height="1.5" style="stroke:#363A4F;stroke-width:2.0;" width="496.8984" x="222.55" y="161.1838"/><rect codeLine="34" fill="none" height="157.9063" id="EitherTMonad" rx="1.5" ry="1.5" style="stroke:#C6A0F6;stroke-width:2.0;" width="496.8984" x="222.55" y="133.84"/><ellipse cx="400.552" cy="148.2619" fill="#FFFFFF" rx="9" ry="9" style="stroke:#000000;stroke-width:1.0;"/><path d="M402.3859,152.5099 Q401.9758,152.7209 401.5246,152.8263 Q401.0734,152.9318 400.5754,152.9318 Q398.8059,152.9318 397.8742,151.7658 Q396.9426,150.5998 396.9426,148.3966 Q396.9426,146.1877 397.8742,145.0216 Q398.8059,143.8556 400.5754,143.8556 Q401.0734,143.8556 401.5305,143.9611 Q401.9875,144.0666 402.3859,144.2775 L402.3859,146.1994 Q401.9406,145.7892 401.5217,145.5988 Q401.1027,145.4084 400.6574,145.4084 Q399.7082,145.4084 399.2248,146.1613 Q398.7414,146.9142 398.7414,148.3966 Q398.7414,149.8732 399.2248,150.6261 Q399.7082,151.3791 400.6574,151.3791 Q401.1027,151.3791 401.5217,151.1886 Q401.9406,150.9982 402.3859,150.588 Z " fill="#CAD3F5"/><text fill="#A6DA95" font-family="sans-serif" font-size="16" lengthAdjust="spacing" textLength="107.2344" x="418.052" y="154.3088">EitherTMonad</text><rect fill="#24273A" height="16.584" style="stroke:#C6A0F6;stroke-width:1.0;stroke-dasharray:2.0,2.0;" width="24.1602" x="698.2883" y="130.84"/><text fill="#000000" font-family="Verdana" font-size="12" font-style="italic" lengthAdjust="spacing" textLength="22.1602" x="699.2883" y="143.9045">F, L</text><line style="stroke:#C6A0F6;stroke-width:2.0;" x1="223.55" x2="718.4484" y1="162.6838" y2="162.6838"/><text fill="#A6DA95" font-family="sans-serif" font-size="12" lengthAdjust="spacing" textLength="149.6191" x="228.55" y="178.2853">-outerMonad: Monad&lt;F&gt;</text><line style="stroke:#C6A0F6;stroke-width:2.0;" x1="223.55" x2="718.4484" y1="184.8166" y2="184.8166"/><text fill="#A6DA95" font-family="sans-serif" font-size="12" lengthAdjust="spacing" textLength="236.6484" x="228.55" y="200.4181">+EitherTMonad(Monad&lt;F&gt; outerMonad)</text><text fill="#A6DA95" font-family="sans-serif" font-size="12" lengthAdjust="spacing" textLength="145.3652" x="228.55" y="214.5509">+Kind&lt;G, A&gt; of(A value)</text><text fill="#A6DA95" font-family="sans-serif" font-size="12" lengthAdjust="spacing" textLength="307.7402" x="228.55" y="228.6838">+Kind&lt;G, B&gt; map(Function&lt;A, B&gt; f, Kind&lt;G, A&gt; fa)</text><text fill="#A6DA95" font-family="sans-serif" font-size="12" lengthAdjust="spacing" textLength="362.5957" x="228.55" y="242.8166">+Kind&lt;G, B&gt; ap(Kind&lt;G, Function&lt;A, B&gt;&gt; ff, Kind&lt;G, A&gt; fa)</text><text fill="#A6DA95" font-family="sans-serif" font-size="12" lengthAdjust="spacing" textLength="394.3066" x="228.55" y="256.9494">+Kind&lt;G, B&gt; flatMap(Function&lt;A, Kind&lt;G, B&gt;&gt; f, Kind&lt;G, A&gt; ma)</text><text fill="#A6DA95" font-family="sans-serif" font-size="12" lengthAdjust="spacing" textLength="186.4629" x="228.55" y="271.0822">+Kind&lt;G, A&gt; raiseError(L error)</text><text fill="#A6DA95" font-family="sans-serif" font-size="12" lengthAdjust="spacing" textLength="484.8984" x="228.55" y="285.215">+Kind&lt;G, A&gt; handleErrorWith(Kind&lt;G, A&gt; ma, Function&lt;L, Kind&lt;G, A&gt;&gt; handler)</text></g><!--class MonadError--><g id="elem_MonadError"><rect fill="#24273A" height="28.8438" id="MonadError" rx="1.5" ry="1.5" style="stroke:#C6A0F6;stroke-width:2.0;" width="118.5859" x="411.71" y="44"/><rect fill="#363A4F" height="28.8438" rx="1.5" ry="1.5" style="stroke:#363A4F;stroke-width:2.0;" width="118.5859" x="411.71" y="44"/><rect fill="#363A4F" height="1.5" style="stroke:#363A4F;stroke-width:2.0;" width="118.5859" x="411.71" y="71.3438"/><rect fill="none" height="28.8438" id="MonadError" rx="1.5" ry="1.5" style="stroke:#C6A0F6;stroke-width:2.0;" width="118.5859" x="411.71" y="44"/><ellipse cx="424.71" cy="58.4219" fill="#FFFFFF" rx="9" ry="9" style="stroke:#000000;stroke-width:1.0;"/><path d="M421.7178,55.6973 L421.7178,54.1738 L426.9268,54.1738 L426.9268,55.6973 L425.1866,55.6973 L425.1866,61.3984 L426.9268,61.3984 L426.9268,62.9219 L421.7178,62.9219 L421.7178,61.3984 L423.458,61.3984 L423.458,55.6973 Z " fill="#CAD3F5"/><text fill="#A6DA95" font-family="sans-serif" font-size="16" font-style="italic" lengthAdjust="spacing" textLength="90.5859" x="436.71" y="64.4688">MonadError</text></g><!--class Kind--><g id="elem_Kind"><rect fill="#24273A" height="28.8438" id="Kind" rx="1.5" ry="1.5" style="stroke:#C6A0F6;stroke-width:2.0;" width="63.0703" x="135.46" y="633.24"/><rect fill="#363A4F" height="28.8438" rx="1.5" ry="1.5" style="stroke:#363A4F;stroke-width:2.0;" width="63.0703" x="135.46" y="633.24"/><rect fill="#363A4F" height="1.5" style="stroke:#363A4F;stroke-width:2.0;" width="63.0703" x="135.46" y="660.5838"/><rect fill="none" height="28.8438" id="Kind" rx="1.5" ry="1.5" style="stroke:#C6A0F6;stroke-width:2.0;" width="63.0703" x="135.46" y="633.24"/><ellipse cx="148.46" cy="647.6619" fill="#FFFFFF" rx="9" ry="9" style="stroke:#000000;stroke-width:1.0;"/><path d="M150.294,651.9099 Q149.8838,652.1209 149.4327,652.2263 Q148.9815,652.3318 148.4834,652.3318 Q146.7139,652.3318 145.7823,651.1658 Q144.8506,649.9998 144.8506,647.7966 Q144.8506,645.5877 145.7823,644.4216 Q146.7139,643.2556 148.4834,643.2556 Q148.9815,643.2556 149.4385,643.3611 Q149.8955,643.4666 150.294,643.6775 L150.294,645.5994 Q149.8487,645.1892 149.4297,644.9988 Q149.0108,644.8084 148.5655,644.8084 Q147.6163,644.8084 147.1329,645.5613 Q146.6495,646.3142 146.6495,647.7966 Q146.6495,649.2732 147.1329,650.0261 Q147.6163,650.7791 148.5655,650.7791 Q149.0108,650.7791 149.4297,650.5886 Q149.8487,650.3982 150.294,649.988 Z " fill="#CAD3F5"/><text fill="#A6DA95" font-family="sans-serif" font-size="16" lengthAdjust="spacing" textLength="35.0703" x="160.46" y="653.7088">Kind</text></g><!--class MonadError--><g id="elem_MonadError"><rect fill="#24273A" height="28.8438" id="MonadError" rx="1.5" ry="1.5" style="stroke:#C6A0F6;stroke-width:2.0;" width="118.5859" x="750.71" y="437.57"/><rect fill="#363A4F" height="28.8438" rx="1.5" ry="1.5" style="stroke:#363A4F;stroke-width:2.0;" width="118.5859" x="750.71" y="437.57"/><rect fill="#363A4F" height="1.5" style="stroke:#363A4F;stroke-width:2.0;" width="118.5859" x="750.71" y="464.9138"/><rect fill="none" height="28.8438" id="MonadError" rx="1.5" ry="1.5" style="stroke:#C6A0F6;stroke-width:2.0;" width="118.5859" x="750.71" y="437.57"/><ellipse cx="763.71" cy="451.9919" fill="#FFFFFF" rx="9" ry="9" style="stroke:#000000;stroke-width:1.0;"/><path d="M765.544,456.2399 Q765.1338,456.4509 764.6827,456.5563 Q764.2315,456.6618 763.7334,456.6618 Q761.9639,456.6618 761.0323,455.4958 Q760.1006,454.3298 760.1006,452.1266 Q760.1006,449.9177 761.0323,448.7516 Q761.9639,447.5856 763.7334,447.5856 Q764.2315,447.5856 764.6885,447.6911 Q765.1455,447.7966 765.544,448.0075 L765.544,449.9294 Q765.0987,449.5192 764.6797,449.3288 Q764.2608,449.1384 763.8155,449.1384 Q762.8663,449.1384 762.3829,449.8913 Q761.8995,450.6442 761.8995,452.1266 Q761.8995,453.6032 762.3829,454.3561 Q762.8663,455.1091 763.8155,455.1091 Q764.2608,455.1091 764.6797,454.9186 Q765.0987,454.7282 765.544,454.318 Z " fill="#CAD3F5"/><text fill="#A6DA95" font-family="sans-serif" font-size="16" lengthAdjust="spacing" textLength="90.5859" x="775.71" y="458.0388">MonadError</text></g><!--reverse link Kind to EitherTKind--><g id="link_Kind_EitherTKind"><path d="M107,91.21 C107,120.22 107,169.26 107,198.14 " fill="none" id="Kind-backto-EitherTKind" style="stroke:#F5BDE6;stroke-width:1.0;"/><polygon fill="none" points="107,73.21,101,91.21,113,91.21,107,73.21" style="stroke:#F5BDE6;stroke-width:1.0;"/></g><!--reverse link EitherTKind to EitherT--><g id="link_EitherTKind_EitherT"><path d="M128.9498,241.7413 C148.2398,266.0113 179.58,302.86 223,337.75 C235.77,348.01 249.57,357.98 263.69,367.49 " fill="none" id="EitherTKind-backto-EitherT" style="stroke:#F5BDE6;stroke-width:1.0;stroke-dasharray:7.0,7.0;"/><polygon fill="none" points="117.75,227.65,124.2528,245.4745,133.6469,238.008,117.75,227.65" style="stroke:#F5BDE6;stroke-width:1.0;"/></g><!--link EitherT to EitherTKind--><g id="link_EitherT_EitherTKind"><path codeLine="49" d="M303.3,367.33 C271.47,343.08 236.77,316.48 205,291.75 C176.52,269.58 143.77,243.38 124.26,227.7 " fill="none" id="EitherT-EitherTKind" style="stroke:#F5BDE6;stroke-width:1.0;"/><text fill="#CAD3F5" font-family="sans-serif" font-size="12" lengthAdjust="spacing" textLength="68.3203" x="263.12" y="334.3516">implements</text></g><!--reverse link MonadError to EitherTMonad--><g id="link_MonadError_EitherTMonad"><path d="M471,91.21 C471,105.27 471,110.28 471,133.54 " fill="none" id="MonadError-backto-EitherTMonad" style="stroke:#F5BDE6;stroke-width:1.0;stroke-dasharray:7.0,7.0;"/><polygon fill="none" points="471,73.21,465,91.21,477,91.21,471,73.21" style="stroke:#F5BDE6;stroke-width:1.0;"/></g><!--link EitherTKind to Kind--><g id="link_EitherTKind_Kind"><path codeLine="48" d="M105.68,227.63 C101.58,275.01 91.22,434.67 124,560.24 C131.15,587.64 147.6,616.53 157.96,632.99 " fill="none" id="EitherTKind-Kind" style="stroke:#F5BDE6;stroke-width:1.0;"/><text fill="#CAD3F5" font-family="sans-serif" font-size="12" lengthAdjust="spacing" textLength="46.3359" x="125" y="456.5916">extends</text></g><!--link EitherTMonad to MonadError--><g id="link_EitherTMonad_MonadError"><path codeLine="50" d="M623.96,292.23 C661.79,314.48 701.14,340.21 735,367.75 C761.11,388.98 786.18,419.53 799.69,437.11 " fill="none" id="EitherTMonad-MonadError" style="stroke:#F5BDE6;stroke-width:1.0;"/><text fill="#CAD3F5" font-family="sans-serif" font-size="12" lengthAdjust="spacing" textLength="68.3203" x="696.13" y="334.3516">implements</text></g><!--reverse link EitherTMonad to Monad--><g id="link_EitherTMonad_Monad"><path codeLine="52" d="M731.4249,252.4589 C829.9349,275.1089 928.78,308.98 1017,367.75 C1044.17,385.84 1065.32,418.71 1075.79,437.27 " fill="none" id="EitherTMonad-backto-Monad" style="stroke:#F5BDE6;stroke-width:1.0;"/><polygon fill="#F5BDE6" points="719.73,249.77,724.6811,255.0128,731.4249,252.4589,726.4737,247.2162,719.73,249.77" style="stroke:#F5BDE6;stroke-width:1.0;"/><polygon fill="#CAD3F5" points="971.9745,331.7079,966.7104,326.2145,964.4868,330.3578,971.9745,331.7079" style="stroke:#CAD3F5;stroke-width:1.0;"/><text fill="#CAD3F5" font-family="sans-serif" font-size="12" lengthAdjust="spacing" textLength="100.4004" x="977.45" y="334.3516">uses outerMonad</text></g><!--link EitherT to Kind--><g id="link_EitherT_Kind"><path codeLine="53" d="M307.46,536.53 C260.45,573.38 214.8317,609.1579 189.0817,629.3479 " fill="none" id="EitherT-to-Kind" style="stroke:#F5BDE6;stroke-width:1.0;stroke-dasharray:7.0,7.0;"/><polygon fill="#F5BDE6" points="184.36,633.05,193.9106,630.6446,188.2947,629.9649,188.9744,624.349,184.36,633.05" style="stroke:#F5BDE6;stroke-width:1.0;"/><text fill="#CAD3F5" font-family="sans-serif" font-size="12" lengthAdjust="spacing" textLength="145.8223" x="262.11" y="580.8416">contains Kind&lt;F, Either&gt;</text></g><!--link EitherT to Either--><g id="link_EitherT_Either"><path codeLine="54" d="M621.39,536.67 C712.42,573.4 804.256,610.4446 854.336,630.6546 " fill="none" id="EitherT-to-Either" style="stroke:#F5BDE6;stroke-width:1.0;stroke-dasharray:7.0,7.0;"/><polygon fill="#F5BDE6" points="859.9,632.9,853.0509,625.8226,855.2633,631.0288,850.0571,633.2413,859.9,632.9" style="stroke:#F5BDE6;stroke-width:1.0;"/><text fill="#CAD3F5" font-family="sans-serif" font-size="12" lengthAdjust="spacing" textLength="145.8223" x="739.74" y="580.8416">contains Kind&lt;F, Either&gt;</text></g><!--link EitherTMonad to EitherT--><g id="link_EitherTMonad_EitherT"><path codeLine="55" d="M452.18,292.12 C446.37,316.27 441.3608,337.1258 435.4808,361.6158 " fill="none" id="EitherTMonad-to-EitherT" style="stroke:#F5BDE6;stroke-width:1.0;stroke-dasharray:7.0,7.0;"/><polygon fill="#F5BDE6" points="434.08,367.45,440.0706,359.6326,435.2473,362.5882,432.2917,357.7649,434.08,367.45" style="stroke:#F5BDE6;stroke-width:1.0;"/><text fill="#CAD3F5" font-family="sans-serif" font-size="12" lengthAdjust="spacing" textLength="69.0527" x="445.21" y="334.3516">operates on</text></g><!--link EitherTMonad to Either--><g id="link_EitherTMonad_Either"><path codeLine="56" d="M719.77,223.66 C945.84,238.5 1255.43,275.53 1332,367.75 C1386.65,433.57 1386.32,494.15 1332,560.24 C1283.4,619.36 1055.091,638.3711 950.541,644.1111 " fill="none" id="EitherTMonad-to-Either" style="stroke:#F5BDE6;stroke-width:1.0;stroke-dasharray:7.0,7.0;"/><polygon fill="#F5BDE6" points="944.55,644.44,953.7557,647.9406,949.5425,644.1659,953.3172,639.9526,944.55,644.44" style="stroke:#F5BDE6;stroke-width:1.0;"/><text fill="#CAD3F5" font-family="sans-serif" font-size="12" lengthAdjust="spacing" textLength="140.1094" x="1373.87" y="456.5916">operates on inner Either</text></g><!--SRC=[ZLN1Sjem4BtxAxQvn6anzCnGTsWd99cG7YZJ71aXrh4cbkIHvBHf9l_UjOs232Q5Yz7ksxTlfMVhWyjH8fG54ohw81GlgWr2xbnfnwEHOR-73yBbrRgoQBXM3fKRSYr7YclhM2BuY3DNbXNdGYMISPuBvdH2VCfLiaWQ-f4azb7pTrXIDBAFGfNCC0cyODPEdJDYNJcyeHO_nL-4pm5aWnch2ZUZxZyOQJrRwBLsUW3NM3oX4voTHRaWrIXBzmmIvHgDZQAIyKVsGFZlsY1StoxXXlIRZ76qP_0I0Vs4Zy2jK9l9_G2cwLxYJYj6cTxmfJ7Qr5MNQVGQTBoaFKC3o-SIVQUWjCrEvWDOz9KjOMcOifas4isXq2seqJiRGCC2-8TEPcFRAGuHNzC6jLK2S0xtmYcq5Xn9X2lu0dr5E_WlLbJOWW6c15yqEH9VFvf3z0mxKPE9GQxD9ar1oBAWqrVEzkj_KmQVF23sY72xKdYgbLoymLShk4ENQvfzjGf8NiYTP8tNGrMPqRAcFet_FIOZ7d8Nj_wOfQ39mAPPKHRCQHm5PaSevb1Sd3nG6-md2kS3R1OdQXEPc_Lp-hrhseTixsngV77KCziUrBXZbU0Tw_VqF7HE4YWSWvTzQAmcqpVMmHnNzUS0T1PF3stX0TzIaAoCPvNYJcWrcJQXR10oPEn89HNwLPU0Qawao0hcxlO4xDBxIYGxCgHXmcAprV4Si7uU0UPCROeMIT-GFEwG1sFCmxw-p7WBa0cYSrWWYIUmpKLfe-288KcQQXZxBvlFrfaGE0xy4eK7N0Dt_kdYki2F7aaWkkPiu0X8t_eEXwcNLD-3TA7PFRDtiTihuF_ejj6kP4arkaJ3N2r57ODrKNG_A8grgUWV]--></g></svg>