<svg xmlns="http://www.w3.org/2000/svg" xmlns:xlink="http://www.w3.org/1999/xlink" contentStyleType="text/css" height="393px" preserveAspectRatio="none" style="width:642px;height:393px;background:#24273A;" version="1.1" viewBox="0 0 642 393" width="642px" zoomAndPan="magnify"><defs/><g><rect fill="#24273A" height="393" style="stroke:none;stroke-width:1.0;" width="642" x="0" y="0"/><!--cluster helper--><g id="cluster_helper"><rect fill="#363A4F" height="273" rx="1.5" ry="1.5" style="stroke:#CAD3F5;stroke-width:1.0;" width="483" x="153.69" y="7"/><text fill="#CAD3F5" font-family="Helvetica" font-size="12" font-weight="bold" lengthAdjust="spacing" textLength="36.0117" x="377.1841" y="18.2402">helper</text></g><!--class IOKindHelper--><g id="elem_IOKindHelper"><rect codeLine="15" fill="#24273A" height="94" id="IOKindHelper" rx="1.5" ry="1.5" style="stroke:#C6A0F6;stroke-width:2.0;" width="337.5273" x="282.92" y="38"/><rect fill="#363A4F" height="30" rx="1.5" ry="1.5" style="stroke:#363A4F;stroke-width:2.0;" width="337.5273" x="282.92" y="38"/><rect fill="#363A4F" height="1.5" style="stroke:#363A4F;stroke-width:2.0;" width="337.5273" x="282.92" y="66.5"/><rect codeLine="15" fill="none" height="94" id="IOKindHelper" rx="1.5" ry="1.5" style="stroke:#C6A0F6;stroke-width:2.0;" width="337.5273" x="282.92" y="38"/><ellipse cx="399.6602" cy="53" fill="#ADD1B2" rx="10" ry="10" style="stroke:#181818;stroke-width:1.0;"/><path d="M401.4942,57.248 Q401.0841,57.459 400.6329,57.5645 Q400.1817,57.6699 399.6837,57.6699 Q397.9141,57.6699 396.9825,56.5039 Q396.0509,55.3379 396.0509,53.1348 Q396.0509,50.9258 396.9825,49.7598 Q397.9141,48.5938 399.6837,48.5938 Q400.1817,48.5938 400.6388,48.6992 Q401.0958,48.8047 401.4942,49.0156 L401.4942,50.9375 Q401.0489,50.5273 400.63,50.3369 Q400.211,50.1465 399.7657,50.1465 Q398.8165,50.1465 398.3331,50.8994 Q397.8497,51.6523 397.8497,53.1348 Q397.8497,54.6113 398.3331,55.3643 Q398.8165,56.1172 399.7657,56.1172 Q400.211,56.1172 400.63,55.9268 Q401.0489,55.7363 401.4942,55.3262 Z " fill="#CAD3F5"/><text fill="#A6DA95" font-family="Helvetica" font-size="16" lengthAdjust="spacing" textLength="96.0469" x="418.6602" y="57.3203">IOKindHelper</text><line style="stroke:#C6A0F6;stroke-width:2.0;" x1="283.92" x2="619.4473" y1="68" y2="68"/><line style="stroke:#C6A0F6;stroke-width:2.0;" x1="283.92" x2="619.4473" y1="76" y2="76"/><ellipse cx="293.92" cy="87.5" fill="#84BE84" rx="3" ry="3" style="stroke:#038048;stroke-width:1.0;"/><text fill="#A6DA95" font-family="Helvetica" font-size="12" lengthAdjust="spacing" text-decoration="underline" textLength="188.9297" x="301.92" y="89.2402">IOKind&lt;A&gt; wrap(@NonNull IO&lt;A&gt;)</text><ellipse cx="293.92" cy="99.5" fill="#84BE84" rx="3" ry="3" style="stroke:#038048;stroke-width:1.0;"/><text fill="#A6DA95" font-family="Helvetica" font-size="12" lengthAdjust="spacing" text-decoration="underline" textLength="312.5273" x="301.92" y="101.2402">@NonNull IO&lt;A&gt; unwrap(@Nullable Kind&lt;IOKind&lt;?&gt;, A&gt;)</text><ellipse cx="293.92" cy="111.5" fill="#84BE84" rx="3" ry="3" style="stroke:#038048;stroke-width:1.0;"/><text fill="#A6DA95" font-family="Helvetica" font-size="12" lengthAdjust="spacing" text-decoration="underline" textLength="216.1406" x="301.92" y="113.2402">Kind&lt;IOKind&lt;?&gt;, A&gt; delay(Supplier&lt;A&gt;)</text><ellipse cx="293.92" cy="123.5" fill="#84BE84" rx="3" ry="3" style="stroke:#038048;stroke-width:1.0;"/><text fill="#A6DA95" font-family="Helvetica" font-size="12" lengthAdjust="spacing" text-decoration="underline" textLength="214.1309" x="301.92" y="125.2402">A unsafeRunSync(Kind&lt;IOKind&lt;?&gt;, A&gt;)</text></g><!--class IOHolder--><g id="elem_IOHolder"><rect codeLine="23" fill="#24273A" height="58" id="IOHolder" rx="1.5" ry="1.5" style="stroke:#C6A0F6;stroke-width:2.0;" width="175.9258" x="205.72" y="206"/><rect fill="#363A4F" height="30" rx="1.5" ry="1.5" style="stroke:#363A4F;stroke-width:2.0;" width="175.9258" x="205.72" y="206"/><rect fill="#363A4F" height="1.5" style="stroke:#363A4F;stroke-width:2.0;" width="175.9258" x="205.72" y="234.5"/><rect codeLine="23" fill="none" height="58" id="IOHolder" rx="1.5" ry="1.5" style="stroke:#C6A0F6;stroke-width:2.0;" width="175.9258" x="205.72" y="206"/><ellipse cx="251.6692" cy="221" fill="#ADD1B2" rx="10" ry="10" style="stroke:#181818;stroke-width:1.0;"/><path d="M253.5032,225.248 Q253.093,225.459 252.6419,225.5645 Q252.1907,225.6699 251.6927,225.6699 Q249.9231,225.6699 248.9915,224.5039 Q248.0598,223.3379 248.0598,221.1348 Q248.0598,218.9258 248.9915,217.7598 Q249.9231,216.5938 251.6927,216.5938 Q252.1907,216.5938 252.6477,216.6992 Q253.1048,216.8047 253.5032,217.0156 L253.5032,218.9375 Q253.0579,218.5273 252.6389,218.3369 Q252.22,218.1465 251.7747,218.1465 Q250.8255,218.1465 250.3421,218.8994 Q249.8587,219.6523 249.8587,221.1348 Q249.8587,222.6113 250.3421,223.3643 Q250.8255,224.1172 251.7747,224.1172 Q252.22,224.1172 252.6389,223.9268 Q253.0579,223.7363 253.5032,223.3262 Z " fill="#CAD3F5"/><text fill="#A6DA95" font-family="Helvetica" font-size="16" lengthAdjust="spacing" textLength="64.0234" x="270.6692" y="225.3203">IOHolder</text><rect fill="#24273A" height="14" style="stroke:#C6A0F6;stroke-width:1.0;stroke-dasharray:2.0,2.0;" width="10.0039" x="374.6419" y="203"/><text fill="#CAD3F5" font-family="Helvetica" font-size="12" font-style="italic" lengthAdjust="spacing" textLength="8.0039" x="375.6419" y="213.2402">A</text><line style="stroke:#C6A0F6;stroke-width:2.0;" x1="206.72" x2="380.6458" y1="236" y2="236"/><rect fill="none" height="6" style="stroke:#C82930;stroke-width:1.0;" width="6" x="213.72" y="244.5"/><text fill="#A6DA95" font-family="Helvetica" font-size="12" lengthAdjust="spacing" textLength="150.9258" x="224.72" y="249.2402">@NonNull IO&lt;A&gt; ioInstance</text><line style="stroke:#C6A0F6;stroke-width:2.0;" x1="206.72" x2="380.6458" y1="256" y2="256"/></g><!--class IOKind--><g id="elem_IOKind"><rect fill="#24273A" height="46" id="IOKind" rx="1.5" ry="1.5" style="stroke:#C6A0F6;stroke-width:2.0;" width="78.9141" x="169.23" y="62"/><rect fill="#363A4F" height="30" rx="1.5" ry="1.5" style="stroke:#363A4F;stroke-width:2.0;" width="78.9141" x="169.23" y="62"/><rect fill="#363A4F" height="1.5" style="stroke:#363A4F;stroke-width:2.0;" width="78.9141" x="169.23" y="90.5"/><rect fill="none" height="46" id="IOKind" rx="1.5" ry="1.5" style="stroke:#C6A0F6;stroke-width:2.0;" width="78.9141" x="169.23" y="62"/><ellipse cx="183.23" cy="77" fill="#B4A7E5" rx="10" ry="10" style="stroke:#181818;stroke-width:1.0;"/><path d="M180.2378,74.2754 L180.2378,72.752 L185.4468,72.752 L185.4468,74.2754 L183.7066,74.2754 L183.7066,79.9766 L185.4468,79.9766 L185.4468,81.5 L180.2378,81.5 L180.2378,79.9766 L181.978,79.9766 L181.978,74.2754 Z " fill="#CAD3F5"/><text fill="#A6DA95" font-family="Helvetica" font-size="16" font-style="italic" lengthAdjust="spacing" textLength="48.9141" x="196.23" y="81.3203">IOKind</text><line style="stroke:#C6A0F6;stroke-width:2.0;" x1="170.23" x2="247.1441" y1="92" y2="92"/><line style="stroke:#C6A0F6;stroke-width:2.0;" x1="170.23" x2="247.1441" y1="100" y2="100"/></g><!--class Kind--><g id="elem_Kind"><rect codeLine="4" fill="#24273A" height="54" id="Kind" rx="1.5" ry="1.5" style="stroke:#C6A0F6;stroke-width:2.0;" width="127.3711" x="7" y="58"/><rect fill="#363A4F" height="38" rx="1.5" ry="1.5" style="stroke:#363A4F;stroke-width:2.0;" width="127.3711" x="7" y="58"/><rect fill="#363A4F" height="1.5" style="stroke:#363A4F;stroke-width:2.0;" width="127.3711" x="7" y="94.5"/><rect codeLine="4" fill="none" height="54" id="Kind" rx="1.5" ry="1.5" style="stroke:#C6A0F6;stroke-width:2.0;" width="127.3711" x="7" y="58"/><ellipse cx="21" cy="77" fill="#B4A7E5" rx="10" ry="10" style="stroke:#181818;stroke-width:1.0;"/><path d="M18.0078,74.2754 L18.0078,72.752 L23.2168,72.752 L23.2168,74.2754 L21.4766,74.2754 L21.4766,79.9766 L23.2168,79.9766 L23.2168,81.5 L18.0078,81.5 L18.0078,79.9766 L19.748,79.9766 L19.748,74.2754 Z " fill="#CAD3F5"/><text fill="#CAD3F5" font-family="Helvetica" font-size="12" font-style="italic" lengthAdjust="spacing" textLength="75.3691" x="32" y="72.2402">&#171;HKT Bridge&#187;</text><text fill="#A6DA95" font-family="Helvetica" font-size="16" font-style="italic" lengthAdjust="spacing" textLength="32.0234" x="53.6729" y="87.3203">Kind</text><rect fill="#24273A" height="14" style="stroke:#C6A0F6;stroke-width:1.0;stroke-dasharray:2.0,2.0;" width="24.002" x="113.3691" y="55"/><text fill="#CAD3F5" font-family="Helvetica" font-size="12" font-style="italic" lengthAdjust="spacing" textLength="22.002" x="114.3691" y="65.2402">F, A</text><line style="stroke:#C6A0F6;stroke-width:2.0;" x1="8" x2="133.3711" y1="96" y2="96"/><line style="stroke:#C6A0F6;stroke-width:2.0;" x1="8" x2="133.3711" y1="104" y2="104"/></g><!--class IOKind--><g id="elem_IOKind"><rect codeLine="6" fill="#24273A" height="46" id="IOKind" rx="1.5" ry="1.5" style="stroke:#C6A0F6;stroke-width:2.0;" width="90.918" x="25.23" y="212"/><rect fill="#363A4F" height="30" rx="1.5" ry="1.5" style="stroke:#363A4F;stroke-width:2.0;" width="90.918" x="25.23" y="212"/><rect fill="#363A4F" height="1.5" style="stroke:#363A4F;stroke-width:2.0;" width="90.918" x="25.23" y="240.5"/><rect codeLine="6" fill="none" height="46" id="IOKind" rx="1.5" ry="1.5" style="stroke:#C6A0F6;stroke-width:2.0;" width="90.918" x="25.23" y="212"/><ellipse cx="39.23" cy="227" fill="#B4A7E5" rx="10" ry="10" style="stroke:#181818;stroke-width:1.0;"/><path d="M36.2378,224.2754 L36.2378,222.752 L41.4468,222.752 L41.4468,224.2754 L39.7066,224.2754 L39.7066,229.9766 L41.4468,229.9766 L41.4468,231.5 L36.2378,231.5 L36.2378,229.9766 L37.978,229.9766 L37.978,224.2754 Z " fill="#CAD3F5"/><text fill="#A6DA95" font-family="Helvetica" font-size="16" font-style="italic" lengthAdjust="spacing" textLength="48.9141" x="52.23" y="231.3203">IOKind</text><rect fill="#24273A" height="14" style="stroke:#C6A0F6;stroke-width:1.0;stroke-dasharray:2.0,2.0;" width="10.0039" x="109.1441" y="209"/><text fill="#CAD3F5" font-family="Helvetica" font-size="12" font-style="italic" lengthAdjust="spacing" textLength="8.0039" x="110.1441" y="219.2402">A</text><line style="stroke:#C6A0F6;stroke-width:2.0;" x1="26.23" x2="115.148" y1="242" y2="242"/><line style="stroke:#C6A0F6;stroke-width:2.0;" x1="26.23" x2="115.148" y1="250" y2="250"/></g><!--class IO--><g id="elem_IO"><rect codeLine="10" fill="#24273A" height="46" id="IO" rx="1.5" ry="1.5" style="stroke:#C6A0F6;stroke-width:2.0;" width="58.8945" x="369.24" y="340"/><rect fill="#363A4F" height="30" rx="1.5" ry="1.5" style="stroke:#363A4F;stroke-width:2.0;" width="58.8945" x="369.24" y="340"/><rect fill="#363A4F" height="1.5" style="stroke:#363A4F;stroke-width:2.0;" width="58.8945" x="369.24" y="368.5"/><rect codeLine="10" fill="none" height="46" id="IO" rx="1.5" ry="1.5" style="stroke:#C6A0F6;stroke-width:2.0;" width="58.8945" x="369.24" y="340"/><ellipse cx="383.24" cy="355" fill="#B4A7E5" rx="10" ry="10" style="stroke:#181818;stroke-width:1.0;"/><path d="M380.2478,352.2754 L380.2478,350.752 L385.4568,350.752 L385.4568,352.2754 L383.7166,352.2754 L383.7166,357.9766 L385.4568,357.9766 L385.4568,359.5 L380.2478,359.5 L380.2478,357.9766 L381.988,357.9766 L381.988,352.2754 Z " fill="#CAD3F5"/><text fill="#A6DA95" font-family="Helvetica" font-size="16" font-style="italic" lengthAdjust="spacing" textLength="16.8906" x="396.24" y="359.3203">IO</text><rect fill="#24273A" height="14" style="stroke:#C6A0F6;stroke-width:1.0;stroke-dasharray:2.0,2.0;" width="10.0039" x="421.1306" y="337"/><text fill="#CAD3F5" font-family="Helvetica" font-size="12" font-style="italic" lengthAdjust="spacing" textLength="8.0039" x="422.1306" y="347.2402">A</text><line style="stroke:#C6A0F6;stroke-width:2.0;" x1="370.24" x2="427.1345" y1="370" y2="370"/><line style="stroke:#C6A0F6;stroke-width:2.0;" x1="370.24" x2="427.1345" y1="378" y2="378"/></g><!--reverse link Kind to IOKind--><g id="link_Kind_IOKind"><path d="M70.69,130.46 C70.69,158.73 70.69,185.05 70.69,211.64 " fill="none" id="Kind-backto-IOKind" style="stroke:#F5BDE6;stroke-width:1.0;"/><polygon fill="none" points="70.69,112.46,64.69,130.46,76.69,130.46,70.69,112.46" style="stroke:#F5BDE6;stroke-width:1.0;"/></g><!--reverse link IOKind to IOHolder--><g id="link_IOKind_IOHolder"><path d="M230.5621,124.0903 C245.5121,150.1303 261.21,177.45 277.45,205.73 " fill="none" id="IOKind-backto-IOHolder" style="stroke:#F5BDE6;stroke-width:1.0;stroke-dasharray:7.0,7.0;"/><polygon fill="none" points="221.6,108.48,225.3587,127.0776,235.7655,121.1029,221.6,108.48" style="stroke:#F5BDE6;stroke-width:1.0;"/></g><!--link IOKindHelper to IOHolder--><g id="link_IOKindHelper_IOHolder"><path codeLine="27" d="M402.13,132.42 C376.42,156.5 350.249,181.0183 328.139,201.7283 " fill="none" id="IOKindHelper-to-IOHolder" style="stroke:#F5BDE6;stroke-width:1.0;stroke-dasharray:7.0,7.0;"/><polygon fill="#F5BDE6" points="323.76,205.83,333.063,202.5967,327.4092,202.4119,327.594,196.7581,323.76,205.83" style="stroke:#F5BDE6;stroke-width:1.0;"/><text fill="#CAD3F5" font-family="Helvetica" font-size="12" lengthAdjust="spacing" textLength="39.3516" x="368.95" y="172.2402">creates</text></g><!--link IOKindHelper to IO--><g id="link_IOKindHelper_IO"><path codeLine="28" d="M442.81,132.2 C431.29,192.2 412.7616,288.6877 404.1116,333.7277 " fill="none" id="IOKindHelper-to-IO" style="stroke:#F5BDE6;stroke-width:1.0;stroke-dasharray:7.0,7.0;"/><polygon fill="#F5BDE6" points="402.98,339.62,408.6057,331.5359,403.923,334.7097,400.7492,330.0271,402.98,339.62" style="stroke:#F5BDE6;stroke-width:1.0;"/><text fill="#CAD3F5" font-family="Helvetica" font-size="12" lengthAdjust="spacing" textLength="128.0449" x="428.83" y="238.2402">unwraps to / wraps from</text></g><!--link IOHolder to IO--><g id="link_IOHolder_IO"><path codeLine="29" d="M324.9338,273.4973 C343.9238,296.2773 358.7182,314.0412 376.2482,335.0712 " fill="none" id="IOHolder-IO" style="stroke:#F5BDE6;stroke-width:1.0;"/><polygon fill="none" points="317.25,264.28,318.0195,271.4499,324.9338,273.4973,324.1643,266.3274,317.25,264.28" style="stroke:#F5BDE6;stroke-width:1.0;"/><polygon fill="#F5BDE6" points="380.09,339.68,377.3999,330.2056,376.8885,335.8393,371.2548,335.328,380.09,339.68" style="stroke:#F5BDE6;stroke-width:1.0;"/><text fill="#CAD3F5" font-family="Helvetica" font-size="12" lengthAdjust="spacing" textLength="28.6875" x="353.47" y="306.2402">holds</text></g><!--SRC=[TL5DJ-j03BpdL_YTwDCZoHsLG3cWLaWW0H9duxZDYertjHy2XFZlpqrAQKkvMRFZcV7i7oDaSylGfUJZMLq7VArM9dNvEKSEv2Inf8fSNmkvcB0qL1CcxpEHaR97eivWSgMtA2dtjamTzrptQAGUniehMXI5KQcmH6AuCT9EhqzXri1qEhzvXAjWsXKtpIvfSJVGbCDlcg6Duze6lcY6zOy2u0IUJ1AE4QxX7BRlnUU-sdHBdr7AQ1M2HU-j9fI4oJXPRtYa5rnf7Mmz1urtpvHGLbRJ3UjaKPr6b_b8MiC0_-0ZhdNeSoVwQq0_kRnrSfkj7KFyFMJlFqEMpP92-6pvoDa_98uqqxB5zyb3zjuQ3iTyPseLSSdtMHxUXIQ_-Pn0LLKwQJlVvy-TRGTPC5yTnfsxnqhAmzkCMuZQ2_6NtbwHLTLifU4CA30cZiTP-Zus5I4vg64Sby7r0tyZuifoG-uKYFh3_m40]--></g></svg>