<svg xmlns="http://www.w3.org/2000/svg" xmlns:xlink="http://www.w3.org/1999/xlink" contentStyleType="text/css" height="938px" preserveAspectRatio="none" style="width:971px;height:938px;background:#24273A;" version="1.1" viewBox="0 0 971 938" width="971px" zoomAndPan="magnify"><defs/><g><rect fill="#24273A" height="938" style="stroke:none;stroke-width:1.0;" width="971" x="0" y="0"/><!--cluster helper--><g id="cluster_helper"><rect fill="#363A4F" height="293" rx="1.5" ry="1.5" style="stroke:#CAD3F5;stroke-width:1.0;" width="471" x="231.69" y="268"/><text fill="#CAD3F5" font-family="Helvetica" font-size="12" font-weight="bold" lengthAdjust="spacing" textLength="36.0117" x="449.1841" y="279.2402">helper</text></g><!--class LazyKindHelper--><g id="elem_LazyKindHelper"><rect codeLine="34" fill="#24273A" height="114" id="LazyKindHelper" rx="1.5" ry="1.5" style="stroke:#C6A0F6;stroke-width:2.0;" width="308.5117" x="247.43" y="299"/><rect fill="#363A4F" height="30" rx="1.5" ry="1.5" style="stroke:#363A4F;stroke-width:2.0;" width="308.5117" x="247.43" y="299"/><rect fill="#363A4F" height="1.5" style="stroke:#363A4F;stroke-width:2.0;" width="308.5117" x="247.43" y="327.5"/><rect codeLine="34" fill="none" height="114" id="LazyKindHelper" rx="1.5" ry="1.5" style="stroke:#C6A0F6;stroke-width:2.0;" width="308.5117" x="247.43" y="299"/><ellipse cx="341.2093" cy="314" fill="#ADD1B2" rx="10" ry="10" style="stroke:#181818;stroke-width:1.0;"/><path d="M343.0433,318.248 Q342.6331,318.459 342.182,318.5645 Q341.7308,318.6699 341.2327,318.6699 Q339.4632,318.6699 338.5316,317.5039 Q337.5999,316.3379 337.5999,314.1348 Q337.5999,311.9258 338.5316,310.7598 Q339.4632,309.5938 341.2327,309.5938 Q341.7308,309.5938 342.1878,309.6992 Q342.6448,309.8047 343.0433,310.0156 L343.0433,311.9375 Q342.598,311.5273 342.179,311.3369 Q341.7601,311.1465 341.3148,311.1465 Q340.3655,311.1465 339.8821,311.8994 Q339.3988,312.6523 339.3988,314.1348 Q339.3988,315.6113 339.8821,316.3643 Q340.3655,317.1172 341.3148,317.1172 Q341.7601,317.1172 342.179,316.9268 Q342.598,316.7363 343.0433,316.3262 Z " fill="#CAD3F5"/><text fill="#A6DA95" font-family="Helvetica" font-size="16" lengthAdjust="spacing" textLength="112.9531" x="360.2093" y="318.3203">LazyKindHelper</text><line style="stroke:#C6A0F6;stroke-width:2.0;" x1="248.43" x2="554.9417" y1="329" y2="329"/><ellipse cx="258.43" cy="356.5" fill="#84BE84" rx="3" ry="3" style="stroke:#038048;stroke-width:1.0;"/><text fill="#A6DA95" font-family="Helvetica" font-size="12" lengthAdjust="spacing" text-decoration="underline" textLength="156.0879" x="266.43" y="358.2402">LazyKind&lt;A&gt; wrap(Lazy&lt;A&gt;)</text><ellipse cx="258.43" cy="368.5" fill="#84BE84" rx="3" ry="3" style="stroke:#038048;stroke-width:1.0;"/><text fill="#A6DA95" font-family="Helvetica" font-size="12" lengthAdjust="spacing" text-decoration="underline" textLength="220.8105" x="266.43" y="370.2402">Lazy&lt;A&gt; unwrap(Kind&lt;LazyKind&lt;?&gt;, A&gt;)</text><ellipse cx="258.43" cy="380.5" fill="#84BE84" rx="3" ry="3" style="stroke:#038048;stroke-width:1.0;"/><text fill="#A6DA95" font-family="Helvetica" font-size="12" lengthAdjust="spacing" text-decoration="underline" textLength="283.5117" x="266.43" y="382.2402">Kind&lt;LazyKind&lt;?&gt;, A&gt; defer(ThrowableSupplier&lt;A&gt;)</text><ellipse cx="258.43" cy="392.5" fill="#84BE84" rx="3" ry="3" style="stroke:#038048;stroke-width:1.0;"/><text fill="#A6DA95" font-family="Helvetica" font-size="12" lengthAdjust="spacing" text-decoration="underline" textLength="164.1035" x="266.43" y="394.2402">Kind&lt;LazyKind&lt;?&gt;, A&gt; now(A)</text><ellipse cx="258.43" cy="404.5" fill="#84BE84" rx="3" ry="3" style="stroke:#038048;stroke-width:1.0;"/><text fill="#A6DA95" font-family="Helvetica" font-size="12" lengthAdjust="spacing" text-decoration="underline" textLength="266.8066" x="266.43" y="406.2402">A force(Kind&lt;LazyKind&lt;?&gt;, A&gt;) throws Throwable</text><line style="stroke:#C6A0F6;stroke-width:1.0;stroke-dasharray:1.0,2.0;" x1="248.43" x2="342.6585" y1="343" y2="343"/><text fill="#A6DA95" font-family="Helvetica" font-size="12" lengthAdjust="spacing" textLength="118.0547" x="342.6585" y="345.7402">Static Helper Methods</text><line style="stroke:#C6A0F6;stroke-width:1.0;stroke-dasharray:1.0,2.0;" x1="460.7132" x2="554.9417" y1="343" y2="343"/></g><!--class LazyHolder--><g id="elem_LazyHolder"><rect codeLine="44" fill="#24273A" height="58" id="LazyHolder" rx="1.5" ry="1.5" style="stroke:#C6A0F6;stroke-width:2.0;" width="142.4043" x="510.48" y="487"/><rect fill="#363A4F" height="30" rx="1.5" ry="1.5" style="stroke:#363A4F;stroke-width:2.0;" width="142.4043" x="510.48" y="487"/><rect fill="#363A4F" height="1.5" style="stroke:#363A4F;stroke-width:2.0;" width="142.4043" x="510.48" y="515.5"/><rect codeLine="44" fill="none" height="58" id="LazyHolder" rx="1.5" ry="1.5" style="stroke:#C6A0F6;stroke-width:2.0;" width="142.4043" x="510.48" y="487"/><ellipse cx="533.2418" cy="502" fill="#ADD1B2" rx="10" ry="10" style="stroke:#181818;stroke-width:1.0;"/><path d="M535.0758,506.248 Q534.6656,506.459 534.2145,506.5645 Q533.7633,506.6699 533.2653,506.6699 Q531.4957,506.6699 530.5641,505.5039 Q529.6324,504.3379 529.6324,502.1348 Q529.6324,499.9258 530.5641,498.7598 Q531.4957,497.5938 533.2653,497.5938 Q533.7633,497.5938 534.2203,497.6992 Q534.6774,497.8047 535.0758,498.0156 L535.0758,499.9375 Q534.6305,499.5273 534.2115,499.3369 Q533.7926,499.1465 533.3473,499.1465 Q532.3981,499.1465 531.9147,499.8994 Q531.4313,500.6523 531.4313,502.1348 Q531.4313,503.6113 531.9147,504.3643 Q532.3981,505.1172 533.3473,505.1172 Q533.7926,505.1172 534.2115,504.9268 Q534.6305,504.7363 535.0758,504.3262 Z " fill="#CAD3F5"/><text fill="#A6DA95" font-family="Helvetica" font-size="16" lengthAdjust="spacing" textLength="80.9297" x="548.1889" y="506.3203">LazyHolder</text><rect fill="#24273A" height="14" style="stroke:#C6A0F6;stroke-width:1.0;stroke-dasharray:2.0,2.0;" width="10.0039" x="645.8804" y="484"/><text fill="#CAD3F5" font-family="Helvetica" font-size="12" font-style="italic" lengthAdjust="spacing" textLength="8.0039" x="646.8804" y="494.2402">A</text><line style="stroke:#C6A0F6;stroke-width:2.0;" x1="511.48" x2="651.8843" y1="517" y2="517"/><rect fill="none" height="6" style="stroke:#C82930;stroke-width:1.0;" width="6" x="518.48" y="525.5"/><text fill="#A6DA95" font-family="Helvetica" font-size="12" lengthAdjust="spacing" textLength="117.4043" x="529.48" y="530.2402">Lazy&lt;A&gt; lazyInstance</text><line style="stroke:#C6A0F6;stroke-width:2.0;" x1="511.48" x2="651.8843" y1="537" y2="537"/></g><!--class LazyKind--><g id="elem_LazyKind"><rect fill="#24273A" height="46" id="LazyKind" rx="1.5" ry="1.5" style="stroke:#C6A0F6;stroke-width:2.0;" width="95.8203" x="590.78" y="333"/><rect fill="#363A4F" height="30" rx="1.5" ry="1.5" style="stroke:#363A4F;stroke-width:2.0;" width="95.8203" x="590.78" y="333"/><rect fill="#363A4F" height="1.5" style="stroke:#363A4F;stroke-width:2.0;" width="95.8203" x="590.78" y="361.5"/><rect fill="none" height="46" id="LazyKind" rx="1.5" ry="1.5" style="stroke:#C6A0F6;stroke-width:2.0;" width="95.8203" x="590.78" y="333"/><ellipse cx="604.78" cy="348" fill="#B4A7E5" rx="10" ry="10" style="stroke:#181818;stroke-width:1.0;"/><path d="M601.7878,345.2754 L601.7878,343.752 L606.9968,343.752 L606.9968,345.2754 L605.2566,345.2754 L605.2566,350.9766 L606.9968,350.9766 L606.9968,352.5 L601.7878,352.5 L601.7878,350.9766 L603.528,350.9766 L603.528,345.2754 Z " fill="#CAD3F5"/><text fill="#A6DA95" font-family="Helvetica" font-size="16" font-style="italic" lengthAdjust="spacing" textLength="65.8203" x="617.78" y="352.3203">LazyKind</text><line style="stroke:#C6A0F6;stroke-width:2.0;" x1="591.78" x2="685.6003" y1="363" y2="363"/><line style="stroke:#C6A0F6;stroke-width:2.0;" x1="591.78" x2="685.6003" y1="371" y2="371"/></g><!--class ThrowableSupplier--><g id="elem_ThrowableSupplier"><rect codeLine="4" fill="#24273A" height="58" id="ThrowableSupplier" rx="1.5" ry="1.5" style="stroke:#C6A0F6;stroke-width:2.0;" width="174.7363" x="494.32" y="873"/><rect fill="#363A4F" height="30" rx="1.5" ry="1.5" style="stroke:#363A4F;stroke-width:2.0;" width="174.7363" x="494.32" y="873"/><rect fill="#363A4F" height="1.5" style="stroke:#363A4F;stroke-width:2.0;" width="174.7363" x="494.32" y="901.5"/><rect codeLine="4" fill="none" height="58" id="ThrowableSupplier" rx="1.5" ry="1.5" style="stroke:#C6A0F6;stroke-width:2.0;" width="174.7363" x="494.32" y="873"/><ellipse cx="508.32" cy="888" fill="#B4A7E5" rx="10" ry="10" style="stroke:#181818;stroke-width:1.0;"/><path d="M505.3278,885.2754 L505.3278,883.752 L510.5368,883.752 L510.5368,885.2754 L508.7966,885.2754 L508.7966,890.9766 L510.5368,890.9766 L510.5368,892.5 L505.3278,892.5 L505.3278,890.9766 L507.068,890.9766 L507.068,885.2754 Z " fill="#CAD3F5"/><text fill="#A6DA95" font-family="Helvetica" font-size="16" font-style="italic" lengthAdjust="spacing" textLength="133.4063" x="521.32" y="892.3203">ThrowableSupplier</text><rect fill="#24273A" height="14" style="stroke:#C6A0F6;stroke-width:1.0;stroke-dasharray:2.0,2.0;" width="9.3301" x="662.7262" y="870"/><text fill="#CAD3F5" font-family="Helvetica" font-size="12" font-style="italic" lengthAdjust="spacing" textLength="7.3301" x="663.7262" y="880.2402">T</text><line style="stroke:#C6A0F6;stroke-width:2.0;" x1="495.32" x2="668.0563" y1="903" y2="903"/><line style="stroke:#C6A0F6;stroke-width:2.0;" x1="495.32" x2="668.0563" y1="911" y2="911"/><ellipse cx="505.32" cy="922.5" fill="#84BE84" rx="3" ry="3" style="stroke:#038048;stroke-width:1.0;"/><text fill="#A6DA95" font-family="Helvetica" font-size="12" font-style="italic" lengthAdjust="spacing" textLength="133.377" x="513.32" y="924.2402">T get() throws Throwable</text></g><!--class Lazy--><g id="elem_Lazy"><rect codeLine="8" fill="#24273A" height="178" id="Lazy" rx="1.5" ry="1.5" style="stroke:#C6A0F6;stroke-width:2.0;" width="398.4121" x="382.48" y="621"/><rect fill="#363A4F" height="30" rx="1.5" ry="1.5" style="stroke:#363A4F;stroke-width:2.0;" width="398.4121" x="382.48" y="621"/><rect fill="#363A4F" height="1.5" style="stroke:#363A4F;stroke-width:2.0;" width="398.4121" x="382.48" y="649.5"/><rect codeLine="8" fill="none" height="178" id="Lazy" rx="1.5" ry="1.5" style="stroke:#C6A0F6;stroke-width:2.0;" width="398.4121" x="382.48" y="621"/><ellipse cx="554.7857" cy="636" fill="#ADD1B2" rx="10" ry="10" style="stroke:#181818;stroke-width:1.0;"/><path d="M556.6196,640.248 Q556.2095,640.459 555.7583,640.5645 Q555.3071,640.6699 554.8091,640.6699 Q553.0396,640.6699 552.1079,639.5039 Q551.1763,638.3379 551.1763,636.1348 Q551.1763,633.9258 552.1079,632.7598 Q553.0396,631.5938 554.8091,631.5938 Q555.3071,631.5938 555.7642,631.6992 Q556.2212,631.8047 556.6196,632.0156 L556.6196,633.9375 Q556.1743,633.5273 555.7554,633.3369 Q555.3364,633.1465 554.8911,633.1465 Q553.9419,633.1465 553.4585,633.8994 Q552.9751,634.6523 552.9751,636.1348 Q552.9751,637.6113 553.4585,638.3643 Q553.9419,639.1172 554.8911,639.1172 Q555.3364,639.1172 555.7554,638.9268 Q556.1743,638.7363 556.6196,638.3262 Z " fill="#CAD3F5"/><text fill="#A6DA95" font-family="Helvetica" font-size="16" lengthAdjust="spacing" textLength="33.7969" x="573.7857" y="640.3203">Lazy</text><rect fill="#24273A" height="14" style="stroke:#C6A0F6;stroke-width:1.0;stroke-dasharray:2.0,2.0;" width="10.0039" x="773.8882" y="618"/><text fill="#CAD3F5" font-family="Helvetica" font-size="12" font-style="italic" lengthAdjust="spacing" textLength="8.0039" x="774.8882" y="628.2402">A</text><line style="stroke:#C6A0F6;stroke-width:2.0;" x1="383.48" x2="779.8921" y1="651" y2="651"/><rect fill="none" height="6" style="stroke:#C82930;stroke-width:1.0;" width="6" x="390.48" y="659.5"/><text fill="#A6DA95" font-family="Helvetica" font-size="12" lengthAdjust="spacing" textLength="138.7734" x="401.48" y="664.2402">volatile boolean evaluated</text><rect fill="none" height="6" style="stroke:#C82930;stroke-width:1.0;" width="6" x="390.48" y="671.5"/><text fill="#A6DA95" font-family="Helvetica" font-size="12" lengthAdjust="spacing" textLength="40.0254" x="401.48" y="676.2402">A value</text><rect fill="none" height="6" style="stroke:#C82930;stroke-width:1.0;" width="6" x="390.48" y="683.5"/><text fill="#A6DA95" font-family="Helvetica" font-size="12" lengthAdjust="spacing" textLength="110.7305" x="401.48" y="688.2402">Throwable exception</text><rect fill="none" height="6" style="stroke:#C82930;stroke-width:1.0;" width="6" x="390.48" y="695.5"/><text fill="#A6DA95" font-family="Helvetica" font-size="12" lengthAdjust="spacing" textLength="246.1523" x="401.48" y="700.2402">ThrowableSupplier&lt;? extends A&gt; computation</text><ellipse cx="393.48" cy="726.5" fill="#84BE84" rx="3" ry="3" style="stroke:#038048;stroke-width:1.0;"/><text fill="#A6DA95" font-family="Helvetica" font-size="12" lengthAdjust="spacing" text-decoration="underline" textLength="263.4902" x="401.48" y="728.2402">Lazy&lt;A&gt; defer(ThrowableSupplier&lt;? extends A&gt;)</text><ellipse cx="393.48" cy="738.5" fill="#84BE84" rx="3" ry="3" style="stroke:#038048;stroke-width:1.0;"/><text fill="#A6DA95" font-family="Helvetica" font-size="12" lengthAdjust="spacing" text-decoration="underline" textLength="88.7109" x="401.48" y="740.2402">Lazy&lt;A&gt; now(A)</text><line style="stroke:#C6A0F6;stroke-width:1.0;" x1="383.48" x2="557.0122" y1="713" y2="713"/><text fill="#A6DA95" font-family="Helvetica" font-size="12" lengthAdjust="spacing" textLength="49.3477" x="557.0122" y="715.7402">Factories</text><line style="stroke:#C6A0F6;stroke-width:1.0;" x1="606.3599" x2="779.8921" y1="713" y2="713"/><ellipse cx="393.48" cy="766.5" fill="#84BE84" rx="3" ry="3" style="stroke:#038048;stroke-width:1.0;"/><text fill="#A6DA95" font-family="Helvetica" font-size="12" lengthAdjust="spacing" textLength="144.0469" x="401.48" y="768.2402">A force() throws Throwable</text><ellipse cx="393.48" cy="778.5" fill="#84BE84" rx="3" ry="3" style="stroke:#038048;stroke-width:1.0;"/><text fill="#A6DA95" font-family="Helvetica" font-size="12" lengthAdjust="spacing" textLength="25.3477" x="401.48" y="780.2402">Lazy</text><text fill="#A6DA95" font-family="Helvetica" font-size="12" font-weight="bold" lengthAdjust="spacing" textLength="227.3613" x="430.1616" y="780.2402">map(Function&lt;? super A, ? extends B&gt;)</text><ellipse cx="393.48" cy="790.5" fill="#84BE84" rx="3" ry="3" style="stroke:#038048;stroke-width:1.0;"/><text fill="#A6DA95" font-family="Helvetica" font-size="12" lengthAdjust="spacing" textLength="25.3477" x="401.48" y="792.2402">Lazy</text><text fill="#A6DA95" font-family="Helvetica" font-size="12" font-weight="bold" lengthAdjust="spacing" textLength="344.7305" x="430.1616" y="792.2402">flatMap(Function&lt;? super A, ? extends Lazy&lt;? extends B&gt;&gt;)</text><line style="stroke:#C6A0F6;stroke-width:1.0;" x1="383.48" x2="558.6734" y1="753" y2="753"/><text fill="#A6DA95" font-family="Helvetica" font-size="12" lengthAdjust="spacing" textLength="46.0254" x="558.6734" y="755.7402">Methods</text><line style="stroke:#C6A0F6;stroke-width:1.0;" x1="604.6988" x2="779.8921" y1="753" y2="753"/></g><!--class Kind--><g id="elem_Kind"><rect codeLine="23" fill="#24273A" height="54" id="Kind" rx="1.5" ry="1.5" style="stroke:#C6A0F6;stroke-width:2.0;" width="127.3711" x="7" y="134"/><rect fill="#363A4F" height="38" rx="1.5" ry="1.5" style="stroke:#363A4F;stroke-width:2.0;" width="127.3711" x="7" y="134"/><rect fill="#363A4F" height="1.5" style="stroke:#363A4F;stroke-width:2.0;" width="127.3711" x="7" y="170.5"/><rect codeLine="23" fill="none" height="54" id="Kind" rx="1.5" ry="1.5" style="stroke:#C6A0F6;stroke-width:2.0;" width="127.3711" x="7" y="134"/><ellipse cx="21" cy="153" fill="#B4A7E5" rx="10" ry="10" style="stroke:#181818;stroke-width:1.0;"/><path d="M18.0078,150.2754 L18.0078,148.752 L23.2168,148.752 L23.2168,150.2754 L21.4766,150.2754 L21.4766,155.9766 L23.2168,155.9766 L23.2168,157.5 L18.0078,157.5 L18.0078,155.9766 L19.748,155.9766 L19.748,150.2754 Z " fill="#CAD3F5"/><text fill="#CAD3F5" font-family="Helvetica" font-size="12" font-style="italic" lengthAdjust="spacing" textLength="75.3691" x="32" y="148.2402">&#171;HKT Bridge&#187;</text><text fill="#A6DA95" font-family="Helvetica" font-size="16" font-style="italic" lengthAdjust="spacing" textLength="32.0234" x="53.6729" y="163.3203">Kind</text><rect fill="#24273A" height="14" style="stroke:#C6A0F6;stroke-width:1.0;stroke-dasharray:2.0,2.0;" width="24.002" x="113.3691" y="131"/><text fill="#CAD3F5" font-family="Helvetica" font-size="12" font-style="italic" lengthAdjust="spacing" textLength="22.002" x="114.3691" y="141.2402">F, A</text><line style="stroke:#C6A0F6;stroke-width:2.0;" x1="8" x2="133.3711" y1="172" y2="172"/><line style="stroke:#C6A0F6;stroke-width:2.0;" x1="8" x2="133.3711" y1="180" y2="180"/></g><!--class LazyKind--><g id="elem_LazyKind"><rect codeLine="27" fill="#24273A" height="46" id="LazyKind" rx="1.5" ry="1.5" style="stroke:#C6A0F6;stroke-width:2.0;" width="107.8242" x="45.77" y="333"/><rect fill="#363A4F" height="30" rx="1.5" ry="1.5" style="stroke:#363A4F;stroke-width:2.0;" width="107.8242" x="45.77" y="333"/><rect fill="#363A4F" height="1.5" style="stroke:#363A4F;stroke-width:2.0;" width="107.8242" x="45.77" y="361.5"/><rect codeLine="27" fill="none" height="46" id="LazyKind" rx="1.5" ry="1.5" style="stroke:#C6A0F6;stroke-width:2.0;" width="107.8242" x="45.77" y="333"/><ellipse cx="59.77" cy="348" fill="#B4A7E5" rx="10" ry="10" style="stroke:#181818;stroke-width:1.0;"/><path d="M56.7778,345.2754 L56.7778,343.752 L61.9868,343.752 L61.9868,345.2754 L60.2466,345.2754 L60.2466,350.9766 L61.9868,350.9766 L61.9868,352.5 L56.7778,352.5 L56.7778,350.9766 L58.518,350.9766 L58.518,345.2754 Z " fill="#CAD3F5"/><text fill="#A6DA95" font-family="Helvetica" font-size="16" font-style="italic" lengthAdjust="spacing" textLength="65.8203" x="72.77" y="352.3203">LazyKind</text><rect fill="#24273A" height="14" style="stroke:#C6A0F6;stroke-width:1.0;stroke-dasharray:2.0,2.0;" width="10.0039" x="146.5903" y="330"/><text fill="#CAD3F5" font-family="Helvetica" font-size="12" font-style="italic" lengthAdjust="spacing" textLength="8.0039" x="147.5903" y="340.2402">A</text><line style="stroke:#C6A0F6;stroke-width:2.0;" x1="46.77" x2="152.5942" y1="363" y2="363"/><line style="stroke:#C6A0F6;stroke-width:2.0;" x1="46.77" x2="152.5942" y1="371" y2="371"/></g><!--class LazyMonad--><g id="elem_LazyMonad"><rect codeLine="52" fill="#24273A" height="94" id="LazyMonad" rx="1.5" ry="1.5" style="stroke:#C6A0F6;stroke-width:2.0;" width="525.3379" x="169.02" y="114"/><rect fill="#363A4F" height="30" rx="1.5" ry="1.5" style="stroke:#363A4F;stroke-width:2.0;" width="525.3379" x="169.02" y="114"/><rect fill="#363A4F" height="1.5" style="stroke:#363A4F;stroke-width:2.0;" width="525.3379" x="169.02" y="142.5"/><rect codeLine="52" fill="none" height="94" id="LazyMonad" rx="1.5" ry="1.5" style="stroke:#C6A0F6;stroke-width:2.0;" width="525.3379" x="169.02" y="114"/><ellipse cx="386.3296" cy="129" fill="#ADD1B2" rx="10" ry="10" style="stroke:#181818;stroke-width:1.0;"/><path d="M388.1636,133.248 Q387.7534,133.459 387.3022,133.5645 Q386.8511,133.6699 386.353,133.6699 Q384.5835,133.6699 383.6518,132.5039 Q382.7202,131.3379 382.7202,129.1348 Q382.7202,126.9258 383.6518,125.7598 Q384.5835,124.5938 386.353,124.5938 Q386.8511,124.5938 387.3081,124.6992 Q387.7651,124.8047 388.1636,125.0156 L388.1636,126.9375 Q387.7182,126.5273 387.2993,126.3369 Q386.8804,126.1465 386.435,126.1465 Q385.4858,126.1465 385.0024,126.8994 Q384.519,127.6523 384.519,129.1348 Q384.519,130.6113 385.0024,131.3643 Q385.4858,132.1172 386.435,132.1172 Q386.8804,132.1172 387.2993,131.9268 Q387.7182,131.7363 388.1636,131.3262 Z " fill="#CAD3F5"/><text fill="#A6DA95" font-family="Helvetica" font-size="16" lengthAdjust="spacing" textLength="82.7188" x="405.3296" y="133.3203">LazyMonad</text><line style="stroke:#C6A0F6;stroke-width:2.0;" x1="170.02" x2="693.3579" y1="144" y2="144"/><line style="stroke:#C6A0F6;stroke-width:2.0;" x1="170.02" x2="693.3579" y1="152" y2="152"/><ellipse cx="180.02" cy="163.5" fill="#84BE84" rx="3" ry="3" style="stroke:#038048;stroke-width:1.0;"/><text fill="#A6DA95" font-family="Helvetica" font-size="12" lengthAdjust="spacing" textLength="369.5742" x="188.02" y="165.2402">Kind&lt;LazyKind&lt;?&gt;, B&gt; map(Function&lt;A, B&gt;, Kind&lt;LazyKind&lt;?&gt;, A&gt;)</text><ellipse cx="180.02" cy="175.5" fill="#84BE84" rx="3" ry="3" style="stroke:#038048;stroke-width:1.0;"/><text fill="#A6DA95" font-family="Helvetica" font-size="12" lengthAdjust="spacing" textLength="152.0977" x="188.02" y="177.2402">Kind&lt;LazyKind&lt;?&gt;, A&gt; of(A)</text><ellipse cx="180.02" cy="187.5" fill="#84BE84" rx="3" ry="3" style="stroke:#038048;stroke-width:1.0;"/><text fill="#A6DA95" font-family="Helvetica" font-size="12" lengthAdjust="spacing" textLength="474.334" x="188.02" y="189.2402">Kind&lt;LazyKind&lt;?&gt;, B&gt; ap(Kind&lt;LazyKind&lt;?&gt;, Function&lt;A, B&gt;&gt;, Kind&lt;LazyKind&lt;?&gt;, A&gt;)</text><ellipse cx="180.02" cy="199.5" fill="#84BE84" rx="3" ry="3" style="stroke:#038048;stroke-width:1.0;"/><text fill="#A6DA95" font-family="Helvetica" font-size="12" lengthAdjust="spacing" textLength="500.3379" x="188.02" y="201.2402">Kind&lt;LazyKind&lt;?&gt;, B&gt; flatMap(Function&lt;A, Kind&lt;LazyKind&lt;?&gt;, B&gt;&gt;, Kind&lt;LazyKind&lt;?&gt;, A&gt;)</text></g><!--class Monad--><g id="elem_Monad"><rect fill="#24273A" height="46" id="Monad" rx="1.5" ry="1.5" style="stroke:#C6A0F6;stroke-width:2.0;" width="78.9219" x="392.22" y="7"/><rect fill="#363A4F" height="30" rx="1.5" ry="1.5" style="stroke:#363A4F;stroke-width:2.0;" width="78.9219" x="392.22" y="7"/><rect fill="#363A4F" height="1.5" style="stroke:#363A4F;stroke-width:2.0;" width="78.9219" x="392.22" y="35.5"/><rect fill="none" height="46" id="Monad" rx="1.5" ry="1.5" style="stroke:#C6A0F6;stroke-width:2.0;" width="78.9219" x="392.22" y="7"/><ellipse cx="406.22" cy="22" fill="#B4A7E5" rx="10" ry="10" style="stroke:#181818;stroke-width:1.0;"/><path d="M403.2278,19.2754 L403.2278,17.752 L408.4368,17.752 L408.4368,19.2754 L406.6966,19.2754 L406.6966,24.9766 L408.4368,24.9766 L408.4368,26.5 L403.2278,26.5 L403.2278,24.9766 L404.968,24.9766 L404.968,19.2754 Z " fill="#CAD3F5"/><text fill="#A6DA95" font-family="Helvetica" font-size="16" font-style="italic" lengthAdjust="spacing" textLength="48.9219" x="419.22" y="26.3203">Monad</text><line style="stroke:#C6A0F6;stroke-width:2.0;" x1="393.22" x2="470.1419" y1="37" y2="37"/><line style="stroke:#C6A0F6;stroke-width:2.0;" x1="393.22" x2="470.1419" y1="45" y2="45"/></g><g id="elem_GMN22"><path d="M729.14,145.5 L729.14,157 L694.71,161 L729.14,165 L729.14,176.5 A1.5,1.5 0 0 0 730.64,178 L962.7357,178 A1.5,1.5 0 0 0 964.2357,176.5 L964.2357,154 L954.2357,144 L730.64,144 A1.5,1.5 0 0 0 729.14,145.5 " fill="#EED49F" style="stroke:#24273A;stroke-width:0.5;"/><path d="M954.2357,144 L954.2357,153.25 A0.75,0.75 0 0 0 954.9857,154 L964.2357,154 L954.2357,144 " fill="#EED49F" style="stroke:#24273A;stroke-width:0.5;"/><text fill="#24273A" font-family="Helvetica" font-size="12" lengthAdjust="spacing" textLength="214.0957" x="735.14" y="158.2402">Implements Functor, Applicative, Monad</text><text fill="#24273A" font-family="Helvetica" font-size="12" lengthAdjust="spacing" textLength="180.1055" x="735.14" y="170.2402">for the LazyKind&lt;?&gt; witness type.</text></g><!--link Lazy to ThrowableSupplier--><g id="link_Lazy_ThrowableSupplier"><path codeLine="21" d="M581.69,799.33 C581.69,825.88 581.69,847.13 581.69,866.73 " fill="none" id="Lazy-to-ThrowableSupplier" style="stroke:#F5BDE6;stroke-width:1.0;"/><polygon fill="#F5BDE6" points="581.69,872.73,585.69,863.73,581.69,867.73,577.69,863.73,581.69,872.73" style="stroke:#F5BDE6;stroke-width:1.0;"/><polygon fill="#CAD3F5" points="585.69,840,588.0411,832.7639,583.3389,832.7639,585.69,840" style="stroke:#CAD3F5;stroke-width:1.0;"/><text fill="#CAD3F5" font-family="Helvetica" font-size="12" lengthAdjust="spacing" textLength="25.3477" x="594.69" y="839.2402">uses</text></g><!--reverse link Kind to LazyKind--><g id="link_Kind_LazyKind"><path d="M77.3324,206.2305 C83.0824,244.5305 90.97,296.99 96.35,332.77 " fill="none" id="Kind-backto-LazyKind" style="stroke:#F5BDE6;stroke-width:1.0;"/><polygon fill="none" points="74.66,188.43,71.3989,207.1213,83.2659,205.3397,74.66,188.43" style="stroke:#F5BDE6;stroke-width:1.0;"/></g><!--reverse link LazyKind to LazyHolder--><g id="link_LazyKind_LazyHolder"><path d="M624.5311,396.2317 C614.3711,424.3917 603,455.92 591.91,486.67 " fill="none" id="LazyKind-backto-LazyHolder" style="stroke:#F5BDE6;stroke-width:1.0;stroke-dasharray:7.0,7.0;"/><polygon fill="none" points="630.64,379.3,618.8872,394.1954,630.175,398.268,630.64,379.3" style="stroke:#F5BDE6;stroke-width:1.0;"/></g><!--link LazyKindHelper to LazyHolder--><g id="link_LazyKindHelper_LazyHolder"><path codeLine="47" d="M465.91,413.37 C494.18,438.19 521.6411,462.2915 544.8211,482.6415 " fill="none" id="LazyKindHelper-to-LazyHolder" style="stroke:#F5BDE6;stroke-width:1.0;stroke-dasharray:7.0,7.0;"/><polygon fill="#F5BDE6" points="549.33,486.6,545.2056,477.6563,545.5725,483.3013,539.9276,483.6683,549.33,486.6" style="stroke:#F5BDE6;stroke-width:1.0;"/><polygon fill="#CAD3F5" points="520.1061,452.6389,516.2191,446.0982,513.117,449.632,520.1061,452.6389" style="stroke:#CAD3F5;stroke-width:1.0;"/><text fill="#CAD3F5" font-family="Helvetica" font-size="12" lengthAdjust="spacing" textLength="39.3516" x="526.1" y="453.2402">creates</text></g><!--link LazyKindHelper to Lazy--><g id="link_LazyKindHelper_Lazy"><path codeLine="48" d="M407.73,413.3 C414.28,457.68 427.53,520.03 453.69,569 C463.31,587.01 471.9463,599.8862 485.3263,616.0662 " fill="none" id="LazyKindHelper-to-Lazy" style="stroke:#F5BDE6;stroke-width:1.0;"/><polygon fill="#F5BDE6" points="489.15,620.69,486.4971,611.2052,485.9636,616.8368,480.332,616.3034,489.15,620.69" style="stroke:#F5BDE6;stroke-width:1.0;"/><polygon fill="#CAD3F5" points="459.1196,519.7358,458.7292,512.1374,454.3376,513.818,459.1196,519.7358" style="stroke:#CAD3F5;stroke-width:1.0;"/><text fill="#CAD3F5" font-family="Helvetica" font-size="12" lengthAdjust="spacing" textLength="25.3477" x="466.69" y="519.2402">uses</text></g><!--link LazyHolder to Lazy--><g id="link_LazyHolder_Lazy"><path codeLine="49" d="M581.69,557.33 C581.69,577.36 581.69,587.38 581.69,614.59 " fill="none" id="LazyHolder-Lazy" style="stroke:#F5BDE6;stroke-width:1.0;"/><polygon fill="none" points="581.69,545.33,577.69,551.33,581.69,557.33,585.69,551.33,581.69,545.33" style="stroke:#F5BDE6;stroke-width:1.0;"/><polygon fill="#F5BDE6" points="581.69,620.59,585.69,611.59,581.69,615.59,577.69,611.59,581.69,620.59" style="stroke:#F5BDE6;stroke-width:1.0;"/><text fill="#CAD3F5" font-family="Helvetica" font-size="12" lengthAdjust="spacing" textLength="28.6875" x="582.69" y="587.2402">holds</text></g><!--reverse link Monad to LazyMonad--><g id="link_Monad_LazyMonad"><path d="M431.69,71.47 C431.69,88.07 431.69,93.26 431.69,113.76 " fill="none" id="Monad-backto-LazyMonad" style="stroke:#F5BDE6;stroke-width:1.0;stroke-dasharray:7.0,7.0;"/><polygon fill="none" points="431.69,53.47,425.69,71.47,437.69,71.47,431.69,53.47" style="stroke:#F5BDE6;stroke-width:1.0;"/></g><!--link LazyMonad to LazyKindHelper--><g id="link_LazyMonad_LazyKindHelper"><path codeLine="58" d="M424.5,208.23 C420.27,235.44 415.8112,264.1211 411.3412,292.8911 " fill="none" id="LazyMonad-to-LazyKindHelper" style="stroke:#F5BDE6;stroke-width:1.0;stroke-dasharray:7.0,7.0;"/><polygon fill="#F5BDE6" points="410.42,298.82,415.7543,290.5408,411.1876,293.8793,407.8492,289.3126,410.42,298.82" style="stroke:#F5BDE6;stroke-width:1.0;"/><polygon fill="#CAD3F5" points="422.7557,248.9525,426.1903,242.1634,421.5438,241.4412,422.7557,248.9525" style="stroke:#CAD3F5;stroke-width:1.0;"/><text fill="#CAD3F5" font-family="Helvetica" font-size="12" lengthAdjust="spacing" textLength="25.3477" x="432.37" y="248.2402">uses</text></g><!--link LazyMonad to LazyKind--><g id="link_LazyMonad_LazyKind"><path codeLine="59" d="M328.44,208.49 C296.8,223.82 262.29,241.67 231.69,260 C194.26,282.42 158.6723,308.7043 132.5723,328.9343 " fill="none" id="LazyMonad-to-LazyKind" style="stroke:#F5BDE6;stroke-width:1.0;stroke-dasharray:7.0,7.0;"/><polygon fill="#F5BDE6" points="127.83,332.61,137.3939,330.2579,131.7819,329.5469,132.4929,323.9349,127.83,332.61" style="stroke:#F5BDE6;stroke-width:1.0;"/><polygon fill="#CAD3F5" points="269.3227,247.0953,276.7181,245.3077,274.255,241.3021,269.3227,247.0953" style="stroke:#CAD3F5;stroke-width:1.0;"/><text fill="#CAD3F5" font-family="Helvetica" font-size="12" lengthAdjust="spacing" textLength="63.3809" x="281.73" y="248.2402">operates on</text></g><!--link LazyMonad to Lazy--><g id="link_LazyMonad_Lazy"><path codeLine="60" d="M644.24,208.38 C667.11,221.54 687.53,238.4 702.69,260 C781.57,372.42 750.6,440.3 702.69,569 C695.9,587.21 689.1386,599.8166 677.3086,615.8066 " fill="none" id="LazyMonad-to-Lazy" style="stroke:#F5BDE6;stroke-width:1.0;stroke-dasharray:7.0,7.0;"/><polygon fill="#F5BDE6" points="673.74,620.63,682.3084,615.7739,676.7138,616.6105,675.8772,611.0158,673.74,620.63" style="stroke:#F5BDE6;stroke-width:1.0;"/><polygon fill="#CAD3F5" points="748.9936,453.9869,750.7516,446.5843,746.0648,446.9647,748.9936,453.9869" style="stroke:#CAD3F5;stroke-width:1.0;"/><text fill="#CAD3F5" font-family="Helvetica" font-size="12" lengthAdjust="spacing" textLength="122.0859" x="757.67" y="453.2402">operates on underlying</text></g><!--SRC=[bLLDR-8m4BtdLyoU5bGIxbLAbKgBYhfSjcZtR9o1M7Liot7AiXN_VSSE2G72VfmWyptllKm-2SLbdICKpfdgVZgrR9TiXIlgTLsXvLevL2xXkfmghYl7Oi6dd3bZQiw5Yal6UI6Oqx6HJBcwbB4hiCHfoOIQXh-98MiK2QfaDumZh0ghTsmjyRKsHWgqwMe67n707NomTUKiu-u0AzYY6ut1-UZgb1GTeeXBLbNmbVtQfrcJ6iExbim9YR3MMY9JWEzCrinX7jmV6u4oFq06tendjgusu4-EnWcjXltTm8yKIS3a5L1_0iVKZhLfCSnf0Mq5LlJGh5LvDpzq8-UuGJlwSztnSAhIkr4sRXejqHKwxzfaiD6Mun1etXqgFCsWP6OqhnNt0rF7gZPe8Pl0gVdJiNcRiI5ebt_D2j7z8bJb47ah3JYxHX7kWJHMmQmlZXUXydG-yRYcwVFB2fwioBSuQsZ-38iWI9g1IRc7BwLnL1sMpBvHmKLRnelaLDEF4EfIqNQwyDmv7cUXOzF2TpqM93n3Th3_44uXwMuE3z3B3BxlNbImsXia5XuWymCOnj_Obbujb1whDFs6t36rbUqs9ndxKizDc7S090cy1kBXQ6wfJfBWln16kztE4aj7fOo70drGhKBO409NEOCmtLBll-Pt4ZuBRTKxEDUGeWdYLX6Mv03FMkQ45A6iRNu6R-FnkulIIBf9obLdk3MWnnr4aduNYYPJlEa4bpGboQnNcgJCBTAnyMg-YlNg3wz19tZev-gUlo1JTNxYbgJrl3zuCFGHQg_dDNANRtlcJHEuHVtTC5zwqz1reyEWbivR_cVFePEJJGO3RrPkBay3NajMZvEEYk4eyciA2ungDHXs4L8hubBkXThwWwQqGx1YMpX2xqGZxRiu4HbsqvRczIyGVLN5EqwW3VItXpwW_LC3k-C9SdHeaeWE6VX6qMy0]--></g></svg>