<svg xmlns="http://www.w3.org/2000/svg" xmlns:xlink="http://www.w3.org/1999/xlink" contentStyleType="text/css" height="1017px" preserveAspectRatio="none" style="width:1541px;height:1017px;background:#24273A;" version="1.1" viewBox="0 0 1541 1017" width="1541px" zoomAndPan="magnify"><defs/><g><rect fill="#24273A" height="1017" style="stroke:none;stroke-width:1.0;" width="1541" x="0" y="0"/><!--cluster Core HKT Interfaces--><g id="cluster_Core HKT Interfaces"><path d="M12.5,842.93 L139.7129,842.93 A2.25,2.25 0 0 1 141.2129,844.43 L148.2129,863.0628 L423.5,863.0628 A1.5,1.5 0 0 1 425,864.5628 L425,1009.12 A1.5,1.5 0 0 1 423.5,1010.62 L12.5,1010.62 A1.5,1.5 0 0 1 11,1009.12 L11,844.43 A1.5,1.5 0 0 1 12.5,842.93 " fill="#24273A" style="stroke:#CAD3F5;stroke-width:1.0;"/><line style="stroke:#CAD3F5;stroke-width:1.0;" x1="11" x2="148.2129" y1="863.0628" y2="863.0628"/><text fill="#CAD3F5" font-family="sans-serif" font-size="12" font-weight="bold" lengthAdjust="spacing" textLength="124.2129" x="15" y="856.5316">Core HKT Interfaces</text></g><!--cluster Reader Type--><g id="cluster_Reader Type"><path d="M1084.5,609.71 L1164.5156,609.71 A2.25,2.25 0 0 1 1166.0156,611.21 L1173.0156,629.8428 L1445.5,629.8428 A1.5,1.5 0 0 1 1447,631.3428 L1447,793.43 A1.5,1.5 0 0 1 1445.5,794.93 L1084.5,794.93 A1.5,1.5 0 0 1 1083,793.43 L1083,611.21 A1.5,1.5 0 0 1 1084.5,609.71 " fill="#24273A" style="stroke:#CAD3F5;stroke-width:1.0;"/><line style="stroke:#CAD3F5;stroke-width:1.0;" x1="1083" x2="1173.0156" y1="629.8428" y2="629.8428"/><text fill="#CAD3F5" font-family="sans-serif" font-size="12" font-weight="bold" lengthAdjust="spacing" textLength="77.0156" x="1087" y="623.3116">Reader Type</text></g><!--cluster Reader HKT Simulation--><g id="cluster_Reader HKT Simulation"><path d="M489.5,11 L634.918,11 A2.25,2.25 0 0 1 636.418,12.5 L643.418,31.1328 L1532.5,31.1328 A1.5,1.5 0 0 1 1534,32.6328 L1534,560.21 A1.5,1.5 0 0 1 1532.5,561.71 L489.5,561.71 A1.5,1.5 0 0 1 488,560.21 L488,12.5 A1.5,1.5 0 0 1 489.5,11 " fill="#24273A" style="stroke:#CAD3F5;stroke-width:1.0;"/><line style="stroke:#CAD3F5;stroke-width:1.0;" x1="488" x2="643.418" y1="31.1328" y2="31.1328"/><text fill="#CAD3F5" font-family="sans-serif" font-size="12" font-weight="bold" lengthAdjust="spacing" textLength="142.418" x="492" y="24.6016">Reader HKT Simulation</text></g><!--class Kind--><g id="elem_Kind"><rect codeLine="9" fill="#24273A" height="28.8438" id="Kind" rx="1.5" ry="1.5" style="stroke:#C6A0F6;stroke-width:2.0;" width="90.7422" x="318.63" y="875.93"/><rect fill="#363A4F" height="28.8438" rx="1.5" ry="1.5" style="stroke:#363A4F;stroke-width:2.0;" width="90.7422" x="318.63" y="875.93"/><rect fill="#363A4F" height="1.5" style="stroke:#363A4F;stroke-width:2.0;" width="90.7422" x="318.63" y="903.2738"/><rect codeLine="9" fill="none" height="28.8438" id="Kind" rx="1.5" ry="1.5" style="stroke:#C6A0F6;stroke-width:2.0;" width="90.7422" x="318.63" y="875.93"/><ellipse cx="331.63" cy="890.3519" fill="#FFFFFF" rx="9" ry="9" style="stroke:#000000;stroke-width:1.0;"/><path d="M328.6378,887.6273 L328.6378,886.1038 L333.8468,886.1038 L333.8468,887.6273 L332.1066,887.6273 L332.1066,893.3284 L333.8468,893.3284 L333.8468,894.8519 L328.6378,894.8519 L328.6378,893.3284 L330.378,893.3284 L330.378,887.6273 Z " fill="#CAD3F5"/><text fill="#A6DA95" font-family="sans-serif" font-size="16" font-style="italic" lengthAdjust="spacing" textLength="35.0703" x="343.63" y="896.3988">Kind</text><rect fill="#24273A" height="16.584" style="stroke:#C6A0F6;stroke-width:1.0;stroke-dasharray:2.0,2.0;" width="25.6719" x="386.7003" y="872.93"/><text fill="#000000" font-family="Verdana" font-size="12" font-style="italic" lengthAdjust="spacing" textLength="23.6719" x="387.7003" y="885.9945">F, A</text></g><!--class Functor--><g id="elem_Functor"><rect codeLine="10" fill="#24273A" height="28.8438" id="Functor" rx="1.5" ry="1.5" style="stroke:#C6A0F6;stroke-width:2.0;" width="97.8887" x="27.06" y="875.93"/><rect fill="#363A4F" height="28.8438" rx="1.5" ry="1.5" style="stroke:#363A4F;stroke-width:2.0;" width="97.8887" x="27.06" y="875.93"/><rect fill="#363A4F" height="1.5" style="stroke:#363A4F;stroke-width:2.0;" width="97.8887" x="27.06" y="903.2738"/><rect codeLine="10" fill="none" height="28.8438" id="Functor" rx="1.5" ry="1.5" style="stroke:#C6A0F6;stroke-width:2.0;" width="97.8887" x="27.06" y="875.93"/><ellipse cx="40.06" cy="890.3519" fill="#FFFFFF" rx="9" ry="9" style="stroke:#000000;stroke-width:1.0;"/><path d="M37.0678,887.6273 L37.0678,886.1038 L42.2768,886.1038 L42.2768,887.6273 L40.5366,887.6273 L40.5366,893.3284 L42.2768,893.3284 L42.2768,894.8519 L37.0678,894.8519 L37.0678,893.3284 L38.808,893.3284 L38.808,887.6273 Z " fill="#CAD3F5"/><text fill="#A6DA95" font-family="sans-serif" font-size="16" font-style="italic" lengthAdjust="spacing" textLength="58.9922" x="52.06" y="896.3988">Functor</text><rect fill="#24273A" height="16.584" style="stroke:#C6A0F6;stroke-width:1.0;stroke-dasharray:2.0,2.0;" width="8.8965" x="119.0522" y="872.93"/><text fill="#000000" font-family="Verdana" font-size="12" font-style="italic" lengthAdjust="spacing" textLength="6.8965" x="120.0522" y="885.9945">F</text></g><!--class Applicative--><g id="elem_Applicative"><rect codeLine="11" fill="#24273A" height="28.8438" id="Applicative" rx="1.5" ry="1.5" style="stroke:#C6A0F6;stroke-width:2.0;" width="124.1621" x="159.92" y="875.93"/><rect fill="#363A4F" height="28.8438" rx="1.5" ry="1.5" style="stroke:#363A4F;stroke-width:2.0;" width="124.1621" x="159.92" y="875.93"/><rect fill="#363A4F" height="1.5" style="stroke:#363A4F;stroke-width:2.0;" width="124.1621" x="159.92" y="903.2738"/><rect codeLine="11" fill="none" height="28.8438" id="Applicative" rx="1.5" ry="1.5" style="stroke:#C6A0F6;stroke-width:2.0;" width="124.1621" x="159.92" y="875.93"/><ellipse cx="172.92" cy="890.3519" fill="#FFFFFF" rx="9" ry="9" style="stroke:#000000;stroke-width:1.0;"/><path d="M169.9278,887.6273 L169.9278,886.1038 L175.1368,886.1038 L175.1368,887.6273 L173.3966,887.6273 L173.3966,893.3284 L175.1368,893.3284 L175.1368,894.8519 L169.9278,894.8519 L169.9278,893.3284 L171.668,893.3284 L171.668,887.6273 Z " fill="#CAD3F5"/><text fill="#A6DA95" font-family="sans-serif" font-size="16" font-style="italic" lengthAdjust="spacing" textLength="85.2656" x="184.92" y="896.3988">Applicative</text><rect fill="#24273A" height="16.584" style="stroke:#C6A0F6;stroke-width:1.0;stroke-dasharray:2.0,2.0;" width="8.8965" x="278.1856" y="872.93"/><text fill="#000000" font-family="Verdana" font-size="12" font-style="italic" lengthAdjust="spacing" textLength="6.8965" x="279.1856" y="885.9945">F</text></g><!--class Monad--><g id="elem_Monad"><rect codeLine="12" fill="#24273A" height="28.8438" id="Monad" rx="1.5" ry="1.5" style="stroke:#C6A0F6;stroke-width:2.0;" width="91.3418" x="30.33" y="965.78"/><rect fill="#363A4F" height="28.8438" rx="1.5" ry="1.5" style="stroke:#363A4F;stroke-width:2.0;" width="91.3418" x="30.33" y="965.78"/><rect fill="#363A4F" height="1.5" style="stroke:#363A4F;stroke-width:2.0;" width="91.3418" x="30.33" y="993.1238"/><rect codeLine="12" fill="none" height="28.8438" id="Monad" rx="1.5" ry="1.5" style="stroke:#C6A0F6;stroke-width:2.0;" width="91.3418" x="30.33" y="965.78"/><ellipse cx="43.33" cy="980.2019" fill="#FFFFFF" rx="9" ry="9" style="stroke:#000000;stroke-width:1.0;"/><path d="M40.3378,977.4773 L40.3378,975.9538 L45.5468,975.9538 L45.5468,977.4773 L43.8066,977.4773 L43.8066,983.1784 L45.5468,983.1784 L45.5468,984.7019 L40.3378,984.7019 L40.3378,983.1784 L42.078,983.1784 L42.078,977.4773 Z " fill="#CAD3F5"/><text fill="#A6DA95" font-family="sans-serif" font-size="16" font-style="italic" lengthAdjust="spacing" textLength="52.4453" x="55.33" y="986.2488">Monad</text><rect fill="#24273A" height="16.584" style="stroke:#C6A0F6;stroke-width:1.0;stroke-dasharray:2.0,2.0;" width="8.8965" x="115.7753" y="962.78"/><text fill="#000000" font-family="Verdana" font-size="12" font-style="italic" lengthAdjust="spacing" textLength="6.8965" x="116.7753" y="975.8445">F</text></g><!--class Reader--><g id="elem_Reader"><rect codeLine="16" fill="#24273A" height="136.2246" id="Reader" rx="1.5" ry="1.5" style="stroke:#C6A0F6;stroke-width:2.0;" width="332.4844" x="1098.76" y="642.71"/><rect fill="#363A4F" height="43.4277" rx="1.5" ry="1.5" style="stroke:#363A4F;stroke-width:2.0;" width="332.4844" x="1098.76" y="642.71"/><rect fill="#363A4F" height="1.5" style="stroke:#363A4F;stroke-width:2.0;" width="332.4844" x="1098.76" y="684.6377"/><rect codeLine="16" fill="none" height="136.2246" id="Reader" rx="1.5" ry="1.5" style="stroke:#C6A0F6;stroke-width:2.0;" width="332.4844" x="1098.76" y="642.71"/><ellipse cx="1180.7473" cy="664.4239" fill="#FFFFFF" rx="9" ry="9" style="stroke:#000000;stroke-width:1.0;"/><path d="M1177.7551,661.6993 L1177.7551,660.1758 L1182.9641,660.1758 L1182.9641,661.6993 L1181.2239,661.6993 L1181.2239,667.4004 L1182.9641,667.4004 L1182.9641,668.9239 L1177.7551,668.9239 L1177.7551,667.4004 L1179.4954,667.4004 L1179.4954,661.6993 Z " fill="#CAD3F5"/><text fill="#000000" font-family="Verdana" font-size="12" font-style="italic" lengthAdjust="spacing" textLength="135.8906" x="1196.2473" y="659.7745">&#171;Functional Interface&#187;</text><text fill="#A6DA95" font-family="sans-serif" font-size="16" font-style="italic" lengthAdjust="spacing" textLength="53.3984" x="1237.4934" y="677.7627">Reader</text><rect fill="#24273A" height="16.584" style="stroke:#C6A0F6;stroke-width:1.0;stroke-dasharray:2.0,2.0;" width="27.1191" x="1407.1252" y="639.71"/><text fill="#000000" font-family="Verdana" font-size="12" font-style="italic" lengthAdjust="spacing" textLength="25.1191" x="1408.1252" y="652.7745">R, A</text><line style="stroke:#C6A0F6;stroke-width:2.0;" x1="1099.76" x2="1430.2444" y1="686.1377" y2="686.1377"/><text fill="#A6DA95" font-family="sans-serif" font-size="12" lengthAdjust="spacing" textLength="65.5195" x="1104.76" y="701.7393">+A run(R r)</text><text fill="#A6DA95" font-family="sans-serif" font-size="12" lengthAdjust="spacing" text-decoration="underline" textLength="237.5508" x="1104.76" y="715.8721">+Reader&lt;R, A&gt; of(Function&lt;R, A&gt; func)</text><text fill="#A6DA95" font-family="sans-serif" font-size="12" lengthAdjust="spacing" text-decoration="underline" textLength="196.377" x="1104.76" y="730.0049">+Reader&lt;R, A&gt; constant(A value)</text><text fill="#A6DA95" font-family="sans-serif" font-size="12" lengthAdjust="spacing" text-decoration="underline" textLength="122.7949" x="1104.76" y="744.1377">+Reader&lt;R, R&gt; ask()</text><text fill="#A6DA95" font-family="sans-serif" font-size="12" lengthAdjust="spacing" textLength="228.0469" x="1104.76" y="758.2705">+Reader&lt;R, B&gt; map(Function&lt;A, B&gt; f)</text><text fill="#A6DA95" font-family="sans-serif" font-size="12" lengthAdjust="spacing" textLength="320.4844" x="1104.76" y="772.4034">+Reader&lt;R, B&gt; flatMap(Function&lt;A, Reader&lt;R, B&gt;&gt; f)</text></g><!--class ReaderKind<R, A> extends Kind<ReaderKind<R, ?>, A>--><g id="elem_ReaderKind&lt;R, A&gt; extends Kind&lt;ReaderKind&lt;R, ?&gt;, A&gt;"><rect codeLine="27" fill="#24273A" height="28.8438" id="ReaderKind&lt;R, A&gt; extends Kind&lt;ReaderKind&lt;R, ?&gt;, A&gt;" rx="1.5" ry="1.5" style="stroke:#C6A0F6;stroke-width:2.0;" width="467.6641" x="504.17" y="90.4"/><rect fill="#363A4F" height="28.8438" rx="1.5" ry="1.5" style="stroke:#363A4F;stroke-width:2.0;" width="467.6641" x="504.17" y="90.4"/><rect fill="#363A4F" height="1.5" style="stroke:#363A4F;stroke-width:2.0;" width="467.6641" x="504.17" y="117.7437"/><rect codeLine="27" fill="none" height="28.8438" id="ReaderKind&lt;R, A&gt; extends Kind&lt;ReaderKind&lt;R, ?&gt;, A&gt;" rx="1.5" ry="1.5" style="stroke:#C6A0F6;stroke-width:2.0;" width="467.6641" x="504.17" y="90.4"/><ellipse cx="517.17" cy="104.8219" fill="#FFFFFF" rx="9" ry="9" style="stroke:#000000;stroke-width:1.0;"/><path d="M514.1778,102.0973 L514.1778,100.5738 L519.3868,100.5738 L519.3868,102.0973 L517.6466,102.0973 L517.6466,107.7984 L519.3868,107.7984 L519.3868,109.3219 L514.1778,109.3219 L514.1778,107.7984 L515.918,107.7984 L515.918,102.0973 Z " fill="#CAD3F5"/><text fill="#A6DA95" font-family="sans-serif" font-size="16" font-style="italic" lengthAdjust="spacing" textLength="439.6641" x="529.17" y="110.8687">ReaderKind&lt;R, A&gt; extends Kind&lt;ReaderKind&lt;R, ?&gt;, A&gt;</text></g><!--class ReaderKindHelper--><g id="elem_ReaderKindHelper"><rect codeLine="29" fill="#24273A" height="121.6406" id="ReaderKindHelper" rx="1.5" ry="1.5" style="stroke:#C6A0F6;stroke-width:2.0;" width="389.8242" x="1007.09" y="44"/><rect fill="#363A4F" height="28.8438" rx="1.5" ry="1.5" style="stroke:#363A4F;stroke-width:2.0;" width="389.8242" x="1007.09" y="44"/><rect fill="#363A4F" height="1.5" style="stroke:#363A4F;stroke-width:2.0;" width="389.8242" x="1007.09" y="71.3438"/><rect codeLine="29" fill="none" height="121.6406" id="ReaderKindHelper" rx="1.5" ry="1.5" style="stroke:#C6A0F6;stroke-width:2.0;" width="389.8242" x="1007.09" y="44"/><ellipse cx="1128.6037" cy="58.4219" fill="#FFFFFF" rx="9" ry="9" style="stroke:#000000;stroke-width:1.0;"/><path d="M1130.4377,62.6699 Q1130.0275,62.8809 1129.5763,62.9863 Q1129.1252,63.0918 1128.6271,63.0918 Q1126.8576,63.0918 1125.9259,61.9258 Q1124.9943,60.7598 1124.9943,58.5566 Q1124.9943,56.3477 1125.9259,55.1816 Q1126.8576,54.0156 1128.6271,54.0156 Q1129.1252,54.0156 1129.5822,54.1211 Q1130.0392,54.2266 1130.4377,54.4375 L1130.4377,56.3594 Q1129.9923,55.9492 1129.5734,55.7588 Q1129.1545,55.5684 1128.7091,55.5684 Q1127.7599,55.5684 1127.2765,56.3213 Q1126.7931,57.0742 1126.7931,58.5566 Q1126.7931,60.0332 1127.2765,60.7861 Q1127.7599,61.5391 1128.7091,61.5391 Q1129.1545,61.5391 1129.5734,61.3486 Q1129.9923,61.1582 1130.4377,60.748 Z " fill="#CAD3F5"/><text fill="#A6DA95" font-family="sans-serif" font-size="16" lengthAdjust="spacing" textLength="139.2969" x="1146.1037" y="64.4688">ReaderKindHelper</text><line style="stroke:#C6A0F6;stroke-width:2.0;" x1="1008.09" x2="1395.9142" y1="72.8438" y2="72.8438"/><text fill="#A6DA95" font-family="sans-serif" font-size="12" lengthAdjust="spacing" text-decoration="underline" textLength="343.166" x="1013.09" y="88.4453">+Reader&lt;R, A&gt; unwrap(Kind&lt;ReaderKind&lt;R, ?&gt;, A&gt; kind)</text><text fill="#A6DA95" font-family="sans-serif" font-size="12" lengthAdjust="spacing" text-decoration="underline" textLength="282.123" x="1013.09" y="102.5781">+ReaderKind&lt;R, A&gt; wrap(Reader&lt;R, A&gt; reader)</text><text fill="#A6DA95" font-family="sans-serif" font-size="12" lengthAdjust="spacing" text-decoration="underline" textLength="334.043" x="1013.09" y="116.7109">+ReaderKind&lt;R, A&gt; reader(Function&lt;R, A&gt; runFunction)</text><text fill="#A6DA95" font-family="sans-serif" font-size="12" lengthAdjust="spacing" text-decoration="underline" textLength="222.6797" x="1013.09" y="130.8438">+ReaderKind&lt;R, A&gt; constant(A value)</text><text fill="#A6DA95" font-family="sans-serif" font-size="12" lengthAdjust="spacing" text-decoration="underline" textLength="149.0977" x="1013.09" y="144.9766">+ReaderKind&lt;R, R&gt; ask()</text><text fill="#A6DA95" font-family="sans-serif" font-size="12" lengthAdjust="spacing" text-decoration="underline" textLength="377.8242" x="1013.09" y="159.1094">+A runReader(Kind&lt;ReaderKind&lt;R, ?&gt;, A&gt; kind, R environment)</text></g><!--class ReaderFunctor--><g id="elem_ReaderFunctor"><rect codeLine="38" fill="#24273A" height="50.9766" id="ReaderFunctor" rx="1.5" ry="1.5" style="stroke:#C6A0F6;stroke-width:2.0;" width="513.7441" x="541.13" y="226.65"/><rect fill="#363A4F" height="28.8438" rx="1.5" ry="1.5" style="stroke:#363A4F;stroke-width:2.0;" width="513.7441" x="541.13" y="226.65"/><rect fill="#363A4F" height="1.5" style="stroke:#363A4F;stroke-width:2.0;" width="513.7441" x="541.13" y="253.9937"/><rect codeLine="38" fill="none" height="50.9766" id="ReaderFunctor" rx="1.5" ry="1.5" style="stroke:#C6A0F6;stroke-width:2.0;" width="513.7441" x="541.13" y="226.65"/><ellipse cx="731.8849" cy="241.0719" fill="#FFFFFF" rx="9" ry="9" style="stroke:#000000;stroke-width:1.0;"/><path d="M733.7189,245.3199 Q733.3087,245.5309 732.8575,245.6363 Q732.4064,245.7418 731.9083,245.7418 Q730.1388,245.7418 729.2071,244.5758 Q728.2755,243.4098 728.2755,241.2066 Q728.2755,238.9977 729.2071,237.8316 Q730.1388,236.6656 731.9083,236.6656 Q732.4064,236.6656 732.8634,236.7711 Q733.3204,236.8766 733.7189,237.0875 L733.7189,239.0094 Q733.2736,238.5992 732.8546,238.4088 Q732.4357,238.2184 731.9904,238.2184 Q731.0411,238.2184 730.5577,238.9713 Q730.0743,239.7242 730.0743,241.2066 Q730.0743,242.6832 730.5577,243.4361 Q731.0411,244.1891 731.9904,244.1891 Q732.4357,244.1891 732.8546,243.9986 Q733.2736,243.8082 733.7189,243.398 Z " fill="#CAD3F5"/><text fill="#A6DA95" font-family="sans-serif" font-size="16" lengthAdjust="spacing" textLength="112.3906" x="749.3849" y="247.1187">ReaderFunctor</text><rect fill="#24273A" height="16.584" style="stroke:#C6A0F6;stroke-width:1.0;stroke-dasharray:2.0,2.0;" width="10.3438" x="1047.5304" y="223.65"/><text fill="#000000" font-family="Verdana" font-size="12" font-style="italic" lengthAdjust="spacing" textLength="8.3438" x="1048.5304" y="236.7145">R</text><line style="stroke:#C6A0F6;stroke-width:2.0;" x1="542.13" x2="1053.8741" y1="255.4937" y2="255.4937"/><text fill="#A6DA95" font-family="sans-serif" font-size="12" lengthAdjust="spacing" textLength="501.7441" x="547.13" y="271.0953">+Kind&lt;ReaderKind&lt;R, ?&gt;, B&gt; map(Function&lt;A, B&gt; f, Kind&lt;ReaderKind&lt;R, ?&gt;, A&gt; fa)</text></g><!--class Functor--><g id="elem_Functor"><rect fill="#24273A" height="28.8438" id="Functor" rx="1.5" ry="1.5" style="stroke:#C6A0F6;stroke-width:2.0;" width="86.9922" x="1431.5" y="90.4"/><rect fill="#363A4F" height="28.8438" rx="1.5" ry="1.5" style="stroke:#363A4F;stroke-width:2.0;" width="86.9922" x="1431.5" y="90.4"/><rect fill="#363A4F" height="1.5" style="stroke:#363A4F;stroke-width:2.0;" width="86.9922" x="1431.5" y="117.7437"/><rect fill="none" height="28.8438" id="Functor" rx="1.5" ry="1.5" style="stroke:#C6A0F6;stroke-width:2.0;" width="86.9922" x="1431.5" y="90.4"/><ellipse cx="1444.5" cy="104.8219" fill="#FFFFFF" rx="9" ry="9" style="stroke:#000000;stroke-width:1.0;"/><path d="M1441.5078,102.0973 L1441.5078,100.5738 L1446.7168,100.5738 L1446.7168,102.0973 L1444.9766,102.0973 L1444.9766,107.7984 L1446.7168,107.7984 L1446.7168,109.3219 L1441.5078,109.3219 L1441.5078,107.7984 L1443.248,107.7984 L1443.248,102.0973 Z " fill="#CAD3F5"/><text fill="#A6DA95" font-family="sans-serif" font-size="16" font-style="italic" lengthAdjust="spacing" textLength="58.9922" x="1456.5" y="110.8687">Functor</text></g><!--class ReaderApplicative--><g id="elem_ReaderApplicative"><rect codeLine="41" fill="#24273A" height="65.1094" id="ReaderApplicative" rx="1.5" ry="1.5" style="stroke:#C6A0F6;stroke-width:2.0;" width="665.6016" x="506.2" y="353.62"/><rect fill="#363A4F" height="28.8438" rx="1.5" ry="1.5" style="stroke:#363A4F;stroke-width:2.0;" width="665.6016" x="506.2" y="353.62"/><rect fill="#363A4F" height="1.5" style="stroke:#363A4F;stroke-width:2.0;" width="665.6016" x="506.2" y="380.9638"/><rect codeLine="41" fill="none" height="65.1094" id="ReaderApplicative" rx="1.5" ry="1.5" style="stroke:#C6A0F6;stroke-width:2.0;" width="665.6016" x="506.2" y="353.62"/><ellipse cx="759.7469" cy="368.0419" fill="#FFFFFF" rx="9" ry="9" style="stroke:#000000;stroke-width:1.0;"/><path d="M761.5809,372.2899 Q761.1707,372.5009 760.7195,372.6063 Q760.2684,372.7118 759.7703,372.7118 Q758.0008,372.7118 757.0691,371.5458 Q756.1375,370.3798 756.1375,368.1766 Q756.1375,365.9677 757.0691,364.8016 Q758.0008,363.6356 759.7703,363.6356 Q760.2684,363.6356 760.7254,363.7411 Q761.1824,363.8466 761.5809,364.0575 L761.5809,365.9794 Q761.1355,365.5692 760.7166,365.3788 Q760.2977,365.1884 759.8523,365.1884 Q758.9031,365.1884 758.4197,365.9413 Q757.9363,366.6942 757.9363,368.1766 Q757.9363,369.6532 758.4197,370.4061 Q758.9031,371.1591 759.8523,371.1591 Q760.2977,371.1591 760.7166,370.9686 Q761.1355,370.7782 761.5809,370.368 Z " fill="#CAD3F5"/><text fill="#A6DA95" font-family="sans-serif" font-size="16" lengthAdjust="spacing" textLength="138.6641" x="777.2469" y="374.0888">ReaderApplicative</text><rect fill="#24273A" height="16.584" style="stroke:#C6A0F6;stroke-width:1.0;stroke-dasharray:2.0,2.0;" width="10.3438" x="1164.4578" y="350.62"/><text fill="#000000" font-family="Verdana" font-size="12" font-style="italic" lengthAdjust="spacing" textLength="8.3438" x="1165.4578" y="363.6845">R</text><line style="stroke:#C6A0F6;stroke-width:2.0;" x1="507.2" x2="1170.8016" y1="382.4638" y2="382.4638"/><text fill="#A6DA95" font-family="sans-serif" font-size="12" lengthAdjust="spacing" textLength="242.3672" x="512.2" y="398.0653">+Kind&lt;ReaderKind&lt;R, ?&gt;, A&gt; of(A value)</text><text fill="#A6DA95" font-family="sans-serif" font-size="12" lengthAdjust="spacing" textLength="653.6016" x="512.2" y="412.1981">+Kind&lt;ReaderKind&lt;R, ?&gt;, B&gt; ap(Kind&lt;ReaderKind&lt;R, ?&gt;, Function&lt;A, B&gt;&gt; ff, Kind&lt;ReaderKind&lt;R, ?&gt;, A&gt; fa)</text></g><!--class Applicative--><g id="elem_Applicative"><rect fill="#24273A" height="28.8438" id="Applicative" rx="1.5" ry="1.5" style="stroke:#C6A0F6;stroke-width:2.0;" width="113.2656" x="1090.37" y="237.71"/><rect fill="#363A4F" height="28.8438" rx="1.5" ry="1.5" style="stroke:#363A4F;stroke-width:2.0;" width="113.2656" x="1090.37" y="237.71"/><rect fill="#363A4F" height="1.5" style="stroke:#363A4F;stroke-width:2.0;" width="113.2656" x="1090.37" y="265.0538"/><rect fill="none" height="28.8438" id="Applicative" rx="1.5" ry="1.5" style="stroke:#C6A0F6;stroke-width:2.0;" width="113.2656" x="1090.37" y="237.71"/><ellipse cx="1103.37" cy="252.1319" fill="#FFFFFF" rx="9" ry="9" style="stroke:#000000;stroke-width:1.0;"/><path d="M1100.3778,249.4073 L1100.3778,247.8838 L1105.5868,247.8838 L1105.5868,249.4073 L1103.8466,249.4073 L1103.8466,255.1084 L1105.5868,255.1084 L1105.5868,256.6319 L1100.3778,256.6319 L1100.3778,255.1084 L1102.118,255.1084 L1102.118,249.4073 Z " fill="#CAD3F5"/><text fill="#A6DA95" font-family="sans-serif" font-size="16" font-style="italic" lengthAdjust="spacing" textLength="85.2656" x="1115.37" y="258.1788">Applicative</text></g><!--class ReaderMonad--><g id="elem_ReaderMonad"><rect codeLine="45" fill="#24273A" height="50.9766" id="ReaderMonad" rx="1.5" ry="1.5" style="stroke:#C6A0F6;stroke-width:2.0;" width="697.3125" x="531.34" y="494.73"/><rect fill="#363A4F" height="28.8438" rx="1.5" ry="1.5" style="stroke:#363A4F;stroke-width:2.0;" width="697.3125" x="531.34" y="494.73"/><rect fill="#363A4F" height="1.5" style="stroke:#363A4F;stroke-width:2.0;" width="697.3125" x="531.34" y="522.0738"/><rect codeLine="45" fill="none" height="50.9766" id="ReaderMonad" rx="1.5" ry="1.5" style="stroke:#C6A0F6;stroke-width:2.0;" width="697.3125" x="531.34" y="494.73"/><ellipse cx="817.1525" cy="509.1519" fill="#FFFFFF" rx="9" ry="9" style="stroke:#000000;stroke-width:1.0;"/><path d="M818.9865,513.3999 Q818.5763,513.6109 818.1252,513.7163 Q817.674,513.8218 817.1759,513.8218 Q815.4064,513.8218 814.4748,512.6558 Q813.5431,511.4898 813.5431,509.2866 Q813.5431,507.0777 814.4748,505.9116 Q815.4064,504.7456 817.1759,504.7456 Q817.674,504.7456 818.131,504.8511 Q818.588,504.9566 818.9865,505.1675 L818.9865,507.0894 Q818.5412,506.6792 818.1222,506.4888 Q817.7033,506.2984 817.258,506.2984 Q816.3088,506.2984 815.8254,507.0513 Q815.342,507.8042 815.342,509.2866 Q815.342,510.7632 815.8254,511.5161 Q816.3088,512.2691 817.258,512.2691 Q817.7033,512.2691 818.1222,512.0786 Q818.5412,511.8882 818.9865,511.478 Z " fill="#CAD3F5"/><text fill="#A6DA95" font-family="sans-serif" font-size="16" lengthAdjust="spacing" textLength="105.8438" x="834.6525" y="515.1988">ReaderMonad</text><rect fill="#24273A" height="16.584" style="stroke:#C6A0F6;stroke-width:1.0;stroke-dasharray:2.0,2.0;" width="10.3438" x="1221.3088" y="491.73"/><text fill="#000000" font-family="Verdana" font-size="12" font-style="italic" lengthAdjust="spacing" textLength="8.3438" x="1222.3088" y="504.7945">R</text><line style="stroke:#C6A0F6;stroke-width:2.0;" x1="532.34" x2="1227.6525" y1="523.5738" y2="523.5738"/><text fill="#A6DA95" font-family="sans-serif" font-size="12" lengthAdjust="spacing" textLength="685.3125" x="537.34" y="539.1753">+Kind&lt;ReaderKind&lt;R, ?&gt;, B&gt; flatMap(Function&lt;A, Kind&lt;ReaderKind&lt;R, ?&gt;, B&gt;&gt; f, Kind&lt;ReaderKind&lt;R, ?&gt;, A&gt; ma)</text></g><!--class Monad--><g id="elem_Monad"><rect fill="#24273A" height="28.8438" id="Monad" rx="1.5" ry="1.5" style="stroke:#C6A0F6;stroke-width:2.0;" width="80.4453" x="1206.78" y="371.75"/><rect fill="#363A4F" height="28.8438" rx="1.5" ry="1.5" style="stroke:#363A4F;stroke-width:2.0;" width="80.4453" x="1206.78" y="371.75"/><rect fill="#363A4F" height="1.5" style="stroke:#363A4F;stroke-width:2.0;" width="80.4453" x="1206.78" y="399.0938"/><rect fill="none" height="28.8438" id="Monad" rx="1.5" ry="1.5" style="stroke:#C6A0F6;stroke-width:2.0;" width="80.4453" x="1206.78" y="371.75"/><ellipse cx="1219.78" cy="386.1719" fill="#FFFFFF" rx="9" ry="9" style="stroke:#000000;stroke-width:1.0;"/><path d="M1216.7878,383.4473 L1216.7878,381.9238 L1221.9968,381.9238 L1221.9968,383.4473 L1220.2566,383.4473 L1220.2566,389.1484 L1221.9968,389.1484 L1221.9968,390.6719 L1216.7878,390.6719 L1216.7878,389.1484 L1218.528,389.1484 L1218.528,383.4473 Z " fill="#CAD3F5"/><text fill="#A6DA95" font-family="sans-serif" font-size="16" font-style="italic" lengthAdjust="spacing" textLength="52.4453" x="1231.78" y="392.2188">Monad</text></g><!--class ReaderKind--><g id="elem_ReaderKind"><rect fill="#24273A" height="28.8438" id="ReaderKind" rx="1.5" ry="1.5" style="stroke:#C6A0F6;stroke-width:2.0;" width="116.4688" x="305.77" y="696.4"/><rect fill="#363A4F" height="28.8438" rx="1.5" ry="1.5" style="stroke:#363A4F;stroke-width:2.0;" width="116.4688" x="305.77" y="696.4"/><rect fill="#363A4F" height="1.5" style="stroke:#363A4F;stroke-width:2.0;" width="116.4688" x="305.77" y="723.7438"/><rect fill="none" height="28.8438" id="ReaderKind" rx="1.5" ry="1.5" style="stroke:#C6A0F6;stroke-width:2.0;" width="116.4688" x="305.77" y="696.4"/><ellipse cx="318.77" cy="710.8219" fill="#FFFFFF" rx="9" ry="9" style="stroke:#000000;stroke-width:1.0;"/><path d="M320.604,715.0699 Q320.1938,715.2809 319.7427,715.3863 Q319.2915,715.4918 318.7934,715.4918 Q317.0239,715.4918 316.0923,714.3258 Q315.1606,713.1598 315.1606,710.9566 Q315.1606,708.7477 316.0923,707.5816 Q317.0239,706.4156 318.7934,706.4156 Q319.2915,706.4156 319.7485,706.5211 Q320.2055,706.6266 320.604,706.8375 L320.604,708.7594 Q320.1587,708.3492 319.7397,708.1588 Q319.3208,707.9684 318.8755,707.9684 Q317.9263,707.9684 317.4429,708.7213 Q316.9595,709.4742 316.9595,710.9566 Q316.9595,712.4332 317.4429,713.1861 Q317.9263,713.9391 318.8755,713.9391 Q319.3208,713.9391 319.7397,713.7486 Q320.1587,713.5582 320.604,713.148 Z " fill="#CAD3F5"/><text fill="#A6DA95" font-family="sans-serif" font-size="16" lengthAdjust="spacing" textLength="88.4688" x="330.77" y="716.8688">ReaderKind</text></g><!--class Functor--><g id="elem_Functor"><rect fill="#24273A" height="28.8438" id="Functor" rx="1.5" ry="1.5" style="stroke:#C6A0F6;stroke-width:2.0;" width="86.9922" x="384.5" y="371.75"/><rect fill="#363A4F" height="28.8438" rx="1.5" ry="1.5" style="stroke:#363A4F;stroke-width:2.0;" width="86.9922" x="384.5" y="371.75"/><rect fill="#363A4F" height="1.5" style="stroke:#363A4F;stroke-width:2.0;" width="86.9922" x="384.5" y="399.0938"/><rect fill="none" height="28.8438" id="Functor" rx="1.5" ry="1.5" style="stroke:#C6A0F6;stroke-width:2.0;" width="86.9922" x="384.5" y="371.75"/><ellipse cx="397.5" cy="386.1719" fill="#FFFFFF" rx="9" ry="9" style="stroke:#000000;stroke-width:1.0;"/><path d="M399.334,390.4199 Q398.9238,390.6309 398.4727,390.7363 Q398.0215,390.8418 397.5234,390.8418 Q395.7539,390.8418 394.8223,389.6758 Q393.8906,388.5098 393.8906,386.3066 Q393.8906,384.0977 394.8223,382.9316 Q395.7539,381.7656 397.5234,381.7656 Q398.0215,381.7656 398.4785,381.8711 Q398.9355,381.9766 399.334,382.1875 L399.334,384.1094 Q398.8887,383.6992 398.4697,383.5088 Q398.0508,383.3184 397.6055,383.3184 Q396.6563,383.3184 396.1729,384.0713 Q395.6895,384.8242 395.6895,386.3066 Q395.6895,387.7832 396.1729,388.5361 Q396.6563,389.2891 397.6055,389.2891 Q398.0508,389.2891 398.4697,389.0986 Q398.8887,388.9082 399.334,388.498 Z " fill="#CAD3F5"/><text fill="#A6DA95" font-family="sans-serif" font-size="16" lengthAdjust="spacing" textLength="58.9922" x="409.5" y="392.2188">Functor</text></g><!--class Applicative--><g id="elem_Applicative"><rect fill="#24273A" height="28.8438" id="Applicative" rx="1.5" ry="1.5" style="stroke:#C6A0F6;stroke-width:2.0;" width="113.2656" x="358.37" y="505.8"/><rect fill="#363A4F" height="28.8438" rx="1.5" ry="1.5" style="stroke:#363A4F;stroke-width:2.0;" width="113.2656" x="358.37" y="505.8"/><rect fill="#363A4F" height="1.5" style="stroke:#363A4F;stroke-width:2.0;" width="113.2656" x="358.37" y="533.1438"/><rect fill="none" height="28.8438" id="Applicative" rx="1.5" ry="1.5" style="stroke:#C6A0F6;stroke-width:2.0;" width="113.2656" x="358.37" y="505.8"/><ellipse cx="371.37" cy="520.2219" fill="#FFFFFF" rx="9" ry="9" style="stroke:#000000;stroke-width:1.0;"/><path d="M373.204,524.4699 Q372.7938,524.6809 372.3427,524.7863 Q371.8915,524.8918 371.3934,524.8918 Q369.6239,524.8918 368.6923,523.7258 Q367.7606,522.5598 367.7606,520.3566 Q367.7606,518.1477 368.6923,516.9816 Q369.6239,515.8156 371.3934,515.8156 Q371.8915,515.8156 372.3485,515.9211 Q372.8055,516.0266 373.204,516.2375 L373.204,518.1594 Q372.7587,517.7492 372.3397,517.5588 Q371.9208,517.3684 371.4755,517.3684 Q370.5263,517.3684 370.0429,518.1213 Q369.5595,518.8742 369.5595,520.3566 Q369.5595,521.8332 370.0429,522.5861 Q370.5263,523.3391 371.4755,523.3391 Q371.9208,523.3391 372.3397,523.1486 Q372.7587,522.9582 373.204,522.548 Z " fill="#CAD3F5"/><text fill="#A6DA95" font-family="sans-serif" font-size="16" lengthAdjust="spacing" textLength="85.2656" x="383.37" y="526.2688">Applicative</text></g><!--class Monad--><g id="elem_Monad"><rect fill="#24273A" height="28.8438" id="Monad" rx="1.5" ry="1.5" style="stroke:#C6A0F6;stroke-width:2.0;" width="80.4453" x="839.78" y="696.4"/><rect fill="#363A4F" height="28.8438" rx="1.5" ry="1.5" style="stroke:#363A4F;stroke-width:2.0;" width="80.4453" x="839.78" y="696.4"/><rect fill="#363A4F" height="1.5" style="stroke:#363A4F;stroke-width:2.0;" width="80.4453" x="839.78" y="723.7438"/><rect fill="none" height="28.8438" id="Monad" rx="1.5" ry="1.5" style="stroke:#C6A0F6;stroke-width:2.0;" width="80.4453" x="839.78" y="696.4"/><ellipse cx="852.78" cy="710.8219" fill="#FFFFFF" rx="9" ry="9" style="stroke:#000000;stroke-width:1.0;"/><path d="M854.614,715.0699 Q854.2038,715.2809 853.7527,715.3863 Q853.3015,715.4918 852.8034,715.4918 Q851.0339,715.4918 850.1023,714.3258 Q849.1706,713.1598 849.1706,710.9566 Q849.1706,708.7477 850.1023,707.5816 Q851.0339,706.4156 852.8034,706.4156 Q853.3015,706.4156 853.7585,706.5211 Q854.2155,706.6266 854.614,706.8375 L854.614,708.7594 Q854.1687,708.3492 853.7497,708.1588 Q853.3308,707.9684 852.8855,707.9684 Q851.9363,707.9684 851.4529,708.7213 Q850.9695,709.4742 850.9695,710.9566 Q850.9695,712.4332 851.4529,713.1861 Q851.9363,713.9391 852.8855,713.9391 Q853.3308,713.9391 853.7497,713.7486 Q854.1687,713.5582 854.614,713.148 Z " fill="#CAD3F5"/><text fill="#A6DA95" font-family="sans-serif" font-size="16" lengthAdjust="spacing" textLength="52.4453" x="864.78" y="716.8688">Monad</text></g><!--reverse link Functor to ReaderFunctor--><g id="link_Functor_ReaderFunctor"><path d="M1454.351,133.8447 C1443.561,147.9447 1435.7,154.98 1414,165.65 C1379.15,182.77 1188.9,207.65 1028.94,226.16 " fill="none" id="Functor-backto-ReaderFunctor" style="stroke:#F5BDE6;stroke-width:1.0;stroke-dasharray:7.0,7.0;"/><polygon fill="none" points="1465.29,119.55,1449.5861,130.1984,1459.1159,137.491,1465.29,119.55" style="stroke:#F5BDE6;stroke-width:1.0;"/></g><!--reverse link ReaderFunctor to ReaderApplicative--><g id="link_ReaderFunctor_ReaderApplicative"><path d="M797.2138,296.1091 C797.3538,309.8191 798.47,308.97 803,323.62 C806.15,333.79 811.24,344.08 816.62,353.25 " fill="none" id="ReaderFunctor-backto-ReaderApplicative" style="stroke:#F5BDE6;stroke-width:1.0;"/><polygon fill="none" points="797.03,278.11,791.2141,296.1703,803.2135,296.0478,797.03,278.11" style="stroke:#F5BDE6;stroke-width:1.0;"/></g><!--reverse link ReaderFunctor to ReaderApplicative--><g id="link_ReaderFunctor_ReaderApplicative"><path codeLine="56" d="M807.4903,283.6998 C814.1303,305.0698 821.96,330.28 829.15,353.44 " fill="none" id="ReaderFunctor-backto-ReaderApplicative-1" style="stroke:#F5BDE6;stroke-width:1.0;stroke-dasharray:7.0,7.0;"/><polygon fill="#F5BDE6" points="805.71,277.97,804.5606,287.7516,807.1936,282.7448,812.2004,285.3778,805.71,277.97" style="stroke:#F5BDE6;stroke-width:1.0;"/><text fill="#CAD3F5" font-family="sans-serif" font-size="12" lengthAdjust="spacing" textLength="46.3359" x="820.73" y="320.2216">extends</text></g><!--reverse link Applicative to ReaderApplicative--><g id="link_Applicative_ReaderApplicative"><path d="M1098.0768,274.1039 C1050.7368,294.4039 977.85,325.65 913.68,353.16 " fill="none" id="Applicative-backto-ReaderApplicative" style="stroke:#F5BDE6;stroke-width:1.0;stroke-dasharray:7.0,7.0;"/><polygon fill="none" points="1114.62,267.01,1095.7122,268.5895,1100.4415,279.6183,1114.62,267.01" style="stroke:#F5BDE6;stroke-width:1.0;"/></g><!--reverse link ReaderApplicative to ReaderMonad--><g id="link_ReaderApplicative_ReaderMonad"><path d="M837.655,437.208 C837.865,451.468 839.14,450.28 844,464.73 C847.5,475.16 853.52,485.5 859.64,494.34 " fill="none" id="ReaderApplicative-backto-ReaderMonad" style="stroke:#F5BDE6;stroke-width:1.0;"/><polygon fill="none" points="837.39,419.21,831.6557,437.2964,843.6544,437.1197,837.39,419.21" style="stroke:#F5BDE6;stroke-width:1.0;"/></g><!--reverse link ReaderApplicative to ReaderMonad--><g id="link_ReaderApplicative_ReaderMonad"><path codeLine="57" d="M850.7006,424.8697 C857.9106,448.0697 865.73,473.27 872.35,494.58 " fill="none" id="ReaderApplicative-backto-ReaderMonad-1" style="stroke:#F5BDE6;stroke-width:1.0;stroke-dasharray:7.0,7.0;"/><polygon fill="#F5BDE6" points="848.92,419.14,847.7712,428.9216,850.4039,423.9147,855.4108,426.5474,848.92,419.14" style="stroke:#F5BDE6;stroke-width:1.0;"/><text fill="#CAD3F5" font-family="sans-serif" font-size="12" lengthAdjust="spacing" textLength="46.3359" x="862.95" y="461.3316">extends</text></g><!--reverse link Monad to ReaderMonad--><g id="link_Monad_ReaderMonad"><path d="M1208.1266,409.9489 C1197.7066,415.8489 1200.79,413.66 1189,418.73 C1117.75,449.39 1033.9,476.1 971.53,494.27 " fill="none" id="Monad-backto-ReaderMonad" style="stroke:#F5BDE6;stroke-width:1.0;stroke-dasharray:7.0,7.0;"/><polygon fill="none" points="1223.79,401.08,1205.1703,404.7278,1211.0829,415.1701,1223.79,401.08" style="stroke:#F5BDE6;stroke-width:1.0;"/></g><!--link ReaderKind to Kind--><g id="link_ReaderKind_Kind"><path codeLine="51" d="M364,725.46 C364,758.58 364,842.99 364,875.91 " fill="none" id="ReaderKind-Kind" style="stroke:#F5BDE6;stroke-width:1.0;"/><text fill="#CAD3F5" font-family="sans-serif" font-size="12" lengthAdjust="spacing" textLength="46.3359" x="365" y="823.5316">extends</text></g><!--link ReaderFunctor to Functor--><g id="link_ReaderFunctor_Functor"><path codeLine="52" d="M707.33,278.08 C644.72,296.37 560.08,323.25 488,353.62 C475.85,358.74 462.85,365.42 452.07,371.32 " fill="none" id="ReaderFunctor-Functor" style="stroke:#F5BDE6;stroke-width:1.0;"/><text fill="#CAD3F5" font-family="sans-serif" font-size="12" lengthAdjust="spacing" textLength="68.3203" x="606.42" y="320.2216">implements</text></g><!--link ReaderApplicative to Applicative--><g id="link_ReaderApplicative_Applicative"><path codeLine="53" d="M732.01,419.16 C662.37,440.18 569.62,468.54 488,494.73 C477.56,498.08 466.32,501.8 455.86,505.3 " fill="none" id="ReaderApplicative-Applicative" style="stroke:#F5BDE6;stroke-width:1.0;"/><text fill="#CAD3F5" font-family="sans-serif" font-size="12" lengthAdjust="spacing" textLength="68.3203" x="633.33" y="461.3316">implements</text></g><!--link ReaderMonad to Monad--><g id="link_ReaderMonad_Monad"><path codeLine="54" d="M880,545.88 C880,586.01 880,664.19 880,695.93 " fill="none" id="ReaderMonad-Monad" style="stroke:#F5BDE6;stroke-width:1.0;"/><text fill="#CAD3F5" font-family="sans-serif" font-size="12" lengthAdjust="spacing" textLength="68.3203" x="881" y="590.3116">implements</text></g><!--link ReaderKindHelper to Reader--><g id="link_ReaderKindHelper_Reader"><path codeLine="59" d="M1310.49,165.82 C1336.54,188.27 1357,216.83 1357,251.13 C1357,251.13 1357,251.13 1357,521.22 C1357,564.39 1340.4364,602.9012 1319.2564,637.2912 " fill="none" id="ReaderKindHelper-to-Reader" style="stroke:#F5BDE6;stroke-width:1.0;stroke-dasharray:7.0,7.0;"/><polygon fill="#F5BDE6" points="1316.11,642.4,1324.2355,636.8344,1318.732,638.1426,1317.4237,632.6392,1316.11,642.4" style="stroke:#F5BDE6;stroke-width:1.0;"/><text fill="#CAD3F5" font-family="sans-serif" font-size="12" lengthAdjust="spacing" textLength="97.3008" x="1358" y="390.7816">creates/unwraps</text></g><!--link ReaderKindHelper to ReaderKind--><g id="link_ReaderKindHelper_ReaderKind"><path codeLine="60" d="M1006.71,161.97 C1000.76,163.26 994.84,164.49 989,165.65 C908.01,181.6 251,168.59 251,251.13 C251,251.13 251,251.13 251,521.22 C251,596.03 312.8614,662.7378 343.9114,691.8278 " fill="none" id="ReaderKindHelper-to-ReaderKind" style="stroke:#F5BDE6;stroke-width:1.0;stroke-dasharray:7.0,7.0;"/><polygon fill="#F5BDE6" points="348.29,695.93,344.4569,686.8577,344.6412,692.5115,338.9873,692.6958,348.29,695.93" style="stroke:#F5BDE6;stroke-width:1.0;"/><text fill="#CAD3F5" font-family="sans-serif" font-size="12" lengthAdjust="spacing" textLength="97.3008" x="252" y="390.7816">creates/unwraps</text></g><!--link ReaderMonad to ReaderKind--><g id="link_ReaderMonad_ReaderKind"><path codeLine="62" d="M780.61,546.15 C747.38,555.2 710.33,566.09 677,577.71 C570.34,614.89 453.5466,667.8317 398.7166,693.4317 " fill="none" id="ReaderMonad-to-ReaderKind" style="stroke:#F5BDE6;stroke-width:1.0;stroke-dasharray:7.0,7.0;"/><polygon fill="#F5BDE6" points="393.28,695.97,403.1272,695.7869,397.8105,693.8547,399.7427,688.5381,393.28,695.97" style="stroke:#F5BDE6;stroke-width:1.0;"/><text fill="#CAD3F5" font-family="sans-serif" font-size="12" lengthAdjust="spacing" textLength="193.8047" x="678" y="590.3116">operates on &lt;ReaderKind&lt;R,?&gt;&gt;</text></g><!--link ReaderMonad to Reader--><g id="link_ReaderMonad_Reader"><path codeLine="63" d="M930.73,546.07 C980.55,570.48 1053.4117,606.1707 1121.6817,639.6107 " fill="none" id="ReaderMonad-to-Reader" style="stroke:#F5BDE6;stroke-width:1.0;stroke-dasharray:7.0,7.0;"/><polygon fill="#F5BDE6" points="1127.07,642.25,1120.7471,634.6988,1122.5797,640.0506,1117.228,641.8833,1127.07,642.25" style="stroke:#F5BDE6;stroke-width:1.0;"/><text fill="#CAD3F5" font-family="sans-serif" font-size="12" lengthAdjust="spacing" textLength="96.6094" x="1027.69" y="590.3116">uses methods of</text></g><!--SRC=[dLRBRjim4BppApQ-r45Zg-V0KE4MC184wS793z0K5H4M7-33QHhatxkIhEXb9e5rafQpm-7kSA4BNt39mPHKA78X52j3ng7mthZh9B7qUVaaV15smN7BjF9S-INJCb5CEqyNWYMCUcC2Oq8j96Mi4DJh1V8f7sIvgEaJYUn9_Req62N4xOKor589hAJEhRstOXSylyKz7iG_3Zzwa8pdD9H-Wzl_eIXsjjKxxVKLtF3omBrWT4OAWRAvDFu599SxRXqXXh8zVKByRsqvtDmzmYqUmEQKSJU3LmBuY3O2Tq9bgyqLhDFHmYOevhLTRSOBQsDAtDoB0vyktcj5iohyrXEovJJZ5XvV39yAQ1PNsqe2h5RrjW9PoavscXwpyFaEQx11pRTWBxlOAtO5A_8sPDFvlAKxHdBy_3GDcu5nvUThED0oy8yJjYbGjv_tGDtQhnGaDPs8THtAOzYyfFv-XEy3tbFVJfMtwlI3a059C7TQw2EkRdXpKFuNZPsvnWF3rPzfXPYHcgCsAtG0DA313TkUnEeOrBF5qqJP0QsUNSP8UZfhcW6rhJ- -ajiWnpv01xMHhv34717D6PcYXwlTsu0_gGoo05S7ORMIE7_QpaywqbvKt5D8K_8AxDwlxvX-S9KY0YAslOeR1NBQwXlBwu-BRUUvZxGFKixGtrpzwUsD7pTkqs4HyA1dbg4PZ9C2ZAhJAy8nuRpsdPeaKVGdhPMqDtI-eUvcmBX264Uw35WiQXAuRez81ZskrjlNwzv1oQGG5RB_UG9T5wV2DIy3n0d2PLYcGyTDL3P4FU1GGGicaocuVCz06CDnuxbBcj7dFa8VQpNE6CePepLoL73G2eRTGcj4KZ4DVsCS_Y3uGgFnT4x-0m00]--></g></svg>