<svg xmlns="http://www.w3.org/2000/svg" xmlns:xlink="http://www.w3.org/1999/xlink" contentStyleType="text/css" height="1134px" preserveAspectRatio="none" style="width:1582px;height:1134px;background:#24273A;" version="1.1" viewBox="0 0 1582 1134" width="1582px" zoomAndPan="magnify"><defs/><g><rect fill="#24273A" height="1134" style="stroke:none;stroke-width:1.0;" width="1582" x="0" y="0"/><!--cluster Core HKT Interfaces--><g id="cluster_Core HKT Interfaces"><path d="M12.5,939.85 L139.7129,939.85 A2.25,2.25 0 0 1 141.2129,941.35 L148.2129,959.9828 L423.5,959.9828 A1.5,1.5 0 0 1 425,961.4828 L425,1126.4 A1.5,1.5 0 0 1 423.5,1127.9 L12.5,1127.9 A1.5,1.5 0 0 1 11,1126.4 L11,941.35 A1.5,1.5 0 0 1 12.5,939.85 " fill="#24273A" style="stroke:#CAD3F5;stroke-width:1.0;"/><line style="stroke:#CAD3F5;stroke-width:1.0;" x1="11" x2="148.2129" y1="959.9828" y2="959.9828"/><text fill="#CAD3F5" font-family="sans-serif" font-size="12" font-weight="bold" lengthAdjust="spacing" textLength="124.2129" x="15" y="953.4516">Core HKT Interfaces</text></g><!--cluster State Type--><g id="cluster_State Type"><path d="M1047.5,666.23 L1115.3809,666.23 A2.25,2.25 0 0 1 1116.8809,667.73 L1123.8809,686.3628 L1406.5,686.3628 A1.5,1.5 0 0 1 1408,687.8628 L1408,1034.56 A1.5,1.5 0 0 1 1406.5,1036.06 L1047.5,1036.06 A1.5,1.5 0 0 1 1046,1034.56 L1046,667.73 A1.5,1.5 0 0 1 1047.5,666.23 " fill="#24273A" style="stroke:#CAD3F5;stroke-width:1.0;"/><line style="stroke:#CAD3F5;stroke-width:1.0;" x1="1046" x2="1123.8809" y1="686.3628" y2="686.3628"/><text fill="#CAD3F5" font-family="sans-serif" font-size="12" font-weight="bold" lengthAdjust="spacing" textLength="64.8809" x="1050" y="679.8316">State Type</text></g><!--cluster State HKT Simulation--><g id="cluster_State HKT Simulation"><path d="M506.5,11 L639.7832,11 A2.25,2.25 0 0 1 641.2832,12.5 L648.2832,31.1328 L1573.5,31.1328 A1.5,1.5 0 0 1 1575,32.6328 L1575,616.73 A1.5,1.5 0 0 1 1573.5,618.23 L506.5,618.23 A1.5,1.5 0 0 1 505,616.73 L505,12.5 A1.5,1.5 0 0 1 506.5,11 " fill="#24273A" style="stroke:#CAD3F5;stroke-width:1.0;"/><line style="stroke:#CAD3F5;stroke-width:1.0;" x1="505" x2="648.2832" y1="31.1328" y2="31.1328"/><text fill="#CAD3F5" font-family="sans-serif" font-size="12" font-weight="bold" lengthAdjust="spacing" textLength="130.2832" x="509" y="24.6016">State HKT Simulation</text></g><!--class Kind--><g id="elem_Kind"><rect codeLine="9" fill="#24273A" height="28.8438" id="Kind" rx="1.5" ry="1.5" style="stroke:#C6A0F6;stroke-width:2.0;" width="90.7422" x="318.63" y="972.85"/><rect fill="#363A4F" height="28.8438" rx="1.5" ry="1.5" style="stroke:#363A4F;stroke-width:2.0;" width="90.7422" x="318.63" y="972.85"/><rect fill="#363A4F" height="1.5" style="stroke:#363A4F;stroke-width:2.0;" width="90.7422" x="318.63" y="1000.1938"/><rect codeLine="9" fill="none" height="28.8438" id="Kind" rx="1.5" ry="1.5" style="stroke:#C6A0F6;stroke-width:2.0;" width="90.7422" x="318.63" y="972.85"/><ellipse cx="331.63" cy="987.2719" fill="#FFFFFF" rx="9" ry="9" style="stroke:#000000;stroke-width:1.0;"/><path d="M328.6378,984.5473 L328.6378,983.0238 L333.8468,983.0238 L333.8468,984.5473 L332.1066,984.5473 L332.1066,990.2484 L333.8468,990.2484 L333.8468,991.7719 L328.6378,991.7719 L328.6378,990.2484 L330.378,990.2484 L330.378,984.5473 Z " fill="#CAD3F5"/><text fill="#A6DA95" font-family="sans-serif" font-size="16" font-style="italic" lengthAdjust="spacing" textLength="35.0703" x="343.63" y="993.3188">Kind</text><rect fill="#24273A" height="16.584" style="stroke:#C6A0F6;stroke-width:1.0;stroke-dasharray:2.0,2.0;" width="25.6719" x="386.7003" y="969.85"/><text fill="#000000" font-family="Verdana" font-size="12" font-style="italic" lengthAdjust="spacing" textLength="23.6719" x="387.7003" y="982.9145">F, A</text></g><!--class Functor--><g id="elem_Functor"><rect codeLine="10" fill="#24273A" height="28.8438" id="Functor" rx="1.5" ry="1.5" style="stroke:#C6A0F6;stroke-width:2.0;" width="97.8887" x="27.06" y="972.85"/><rect fill="#363A4F" height="28.8438" rx="1.5" ry="1.5" style="stroke:#363A4F;stroke-width:2.0;" width="97.8887" x="27.06" y="972.85"/><rect fill="#363A4F" height="1.5" style="stroke:#363A4F;stroke-width:2.0;" width="97.8887" x="27.06" y="1000.1938"/><rect codeLine="10" fill="none" height="28.8438" id="Functor" rx="1.5" ry="1.5" style="stroke:#C6A0F6;stroke-width:2.0;" width="97.8887" x="27.06" y="972.85"/><ellipse cx="40.06" cy="987.2719" fill="#FFFFFF" rx="9" ry="9" style="stroke:#000000;stroke-width:1.0;"/><path d="M37.0678,984.5473 L37.0678,983.0238 L42.2768,983.0238 L42.2768,984.5473 L40.5366,984.5473 L40.5366,990.2484 L42.2768,990.2484 L42.2768,991.7719 L37.0678,991.7719 L37.0678,990.2484 L38.808,990.2484 L38.808,984.5473 Z " fill="#CAD3F5"/><text fill="#A6DA95" font-family="sans-serif" font-size="16" font-style="italic" lengthAdjust="spacing" textLength="58.9922" x="52.06" y="993.3188">Functor</text><rect fill="#24273A" height="16.584" style="stroke:#C6A0F6;stroke-width:1.0;stroke-dasharray:2.0,2.0;" width="8.8965" x="119.0522" y="969.85"/><text fill="#000000" font-family="Verdana" font-size="12" font-style="italic" lengthAdjust="spacing" textLength="6.8965" x="120.0522" y="982.9145">F</text></g><!--class Applicative--><g id="elem_Applicative"><rect codeLine="11" fill="#24273A" height="28.8438" id="Applicative" rx="1.5" ry="1.5" style="stroke:#C6A0F6;stroke-width:2.0;" width="124.1621" x="159.92" y="972.85"/><rect fill="#363A4F" height="28.8438" rx="1.5" ry="1.5" style="stroke:#363A4F;stroke-width:2.0;" width="124.1621" x="159.92" y="972.85"/><rect fill="#363A4F" height="1.5" style="stroke:#363A4F;stroke-width:2.0;" width="124.1621" x="159.92" y="1000.1938"/><rect codeLine="11" fill="none" height="28.8438" id="Applicative" rx="1.5" ry="1.5" style="stroke:#C6A0F6;stroke-width:2.0;" width="124.1621" x="159.92" y="972.85"/><ellipse cx="172.92" cy="987.2719" fill="#FFFFFF" rx="9" ry="9" style="stroke:#000000;stroke-width:1.0;"/><path d="M169.9278,984.5473 L169.9278,983.0238 L175.1368,983.0238 L175.1368,984.5473 L173.3966,984.5473 L173.3966,990.2484 L175.1368,990.2484 L175.1368,991.7719 L169.9278,991.7719 L169.9278,990.2484 L171.668,990.2484 L171.668,984.5473 Z " fill="#CAD3F5"/><text fill="#A6DA95" font-family="sans-serif" font-size="16" font-style="italic" lengthAdjust="spacing" textLength="85.2656" x="184.92" y="993.3188">Applicative</text><rect fill="#24273A" height="16.584" style="stroke:#C6A0F6;stroke-width:1.0;stroke-dasharray:2.0,2.0;" width="8.8965" x="278.1856" y="969.85"/><text fill="#000000" font-family="Verdana" font-size="12" font-style="italic" lengthAdjust="spacing" textLength="6.8965" x="279.1856" y="982.9145">F</text></g><!--class Monad--><g id="elem_Monad"><rect codeLine="12" fill="#24273A" height="28.8438" id="Monad" rx="1.5" ry="1.5" style="stroke:#C6A0F6;stroke-width:2.0;" width="91.3418" x="30.33" y="1083.06"/><rect fill="#363A4F" height="28.8438" rx="1.5" ry="1.5" style="stroke:#363A4F;stroke-width:2.0;" width="91.3418" x="30.33" y="1083.06"/><rect fill="#363A4F" height="1.5" style="stroke:#363A4F;stroke-width:2.0;" width="91.3418" x="30.33" y="1110.4038"/><rect codeLine="12" fill="none" height="28.8438" id="Monad" rx="1.5" ry="1.5" style="stroke:#C6A0F6;stroke-width:2.0;" width="91.3418" x="30.33" y="1083.06"/><ellipse cx="43.33" cy="1097.4819" fill="#FFFFFF" rx="9" ry="9" style="stroke:#000000;stroke-width:1.0;"/><path d="M40.3378,1094.7573 L40.3378,1093.2338 L45.5468,1093.2338 L45.5468,1094.7573 L43.8066,1094.7573 L43.8066,1100.4584 L45.5468,1100.4584 L45.5468,1101.9819 L40.3378,1101.9819 L40.3378,1100.4584 L42.078,1100.4584 L42.078,1094.7573 Z " fill="#CAD3F5"/><text fill="#A6DA95" font-family="sans-serif" font-size="16" font-style="italic" lengthAdjust="spacing" textLength="52.4453" x="55.33" y="1103.5288">Monad</text><rect fill="#24273A" height="16.584" style="stroke:#C6A0F6;stroke-width:1.0;stroke-dasharray:2.0,2.0;" width="8.8965" x="115.7753" y="1080.06"/><text fill="#000000" font-family="Verdana" font-size="12" font-style="italic" lengthAdjust="spacing" textLength="6.8965" x="116.7753" y="1093.1245">F</text></g><!--class State--><g id="elem_State"><rect codeLine="16" fill="#24273A" height="178.623" id="State" rx="1.5" ry="1.5" style="stroke:#C6A0F6;stroke-width:2.0;" width="330.6328" x="1061.68" y="699.23"/><rect fill="#363A4F" height="43.4277" rx="1.5" ry="1.5" style="stroke:#363A4F;stroke-width:2.0;" width="330.6328" x="1061.68" y="699.23"/><rect fill="#363A4F" height="1.5" style="stroke:#363A4F;stroke-width:2.0;" width="330.6328" x="1061.68" y="741.1577"/><rect codeLine="16" fill="none" height="178.623" id="State" rx="1.5" ry="1.5" style="stroke:#C6A0F6;stroke-width:2.0;" width="330.6328" x="1061.68" y="699.23"/><ellipse cx="1142.8118" cy="720.9439" fill="#FFFFFF" rx="9" ry="9" style="stroke:#000000;stroke-width:1.0;"/><path d="M1139.8196,718.2193 L1139.8196,716.6958 L1145.0286,716.6958 L1145.0286,718.2193 L1143.2884,718.2193 L1143.2884,723.9204 L1145.0286,723.9204 L1145.0286,725.4439 L1139.8196,725.4439 L1139.8196,723.9204 L1141.5599,723.9204 L1141.5599,718.2193 Z " fill="#CAD3F5"/><text fill="#000000" font-family="Verdana" font-size="12" font-style="italic" lengthAdjust="spacing" textLength="135.8906" x="1158.3118" y="716.2945">&#171;Functional Interface&#187;</text><text fill="#A6DA95" font-family="sans-serif" font-size="16" font-style="italic" lengthAdjust="spacing" textLength="38.3359" x="1207.0892" y="734.2827">State</text><rect fill="#24273A" height="16.584" style="stroke:#C6A0F6;stroke-width:1.0;stroke-dasharray:2.0,2.0;" width="26.9785" x="1368.3343" y="696.23"/><text fill="#000000" font-family="Verdana" font-size="12" font-style="italic" lengthAdjust="spacing" textLength="24.9785" x="1369.3343" y="709.2945">S, A</text><line style="stroke:#C6A0F6;stroke-width:2.0;" x1="1062.68" x2="1391.3128" y1="742.6577" y2="742.6577"/><text fill="#A6DA95" font-family="sans-serif" font-size="12" lengthAdjust="spacing" textLength="215.3027" x="1067.68" y="758.2593">+StateTuple&lt;S, A&gt; run(S initialState)</text><text fill="#A6DA95" font-family="sans-serif" font-size="12" lengthAdjust="spacing" text-decoration="underline" textLength="318.6328" x="1067.68" y="772.3921">+State&lt;S, A&gt; of(Function&lt;S, StateTuple&lt;S, A&gt;&gt; func)</text><text fill="#A6DA95" font-family="sans-serif" font-size="12" lengthAdjust="spacing" text-decoration="underline" textLength="160.418" x="1067.68" y="786.5249">+State&lt;S, A&gt; pure(A value)</text><text fill="#A6DA95" font-family="sans-serif" font-size="12" lengthAdjust="spacing" text-decoration="underline" textLength="108.1465" x="1067.68" y="800.6577">+State&lt;S, S&gt; get()</text><text fill="#A6DA95" font-family="sans-serif" font-size="12" lengthAdjust="spacing" text-decoration="underline" textLength="188.9473" x="1067.68" y="814.7905">+State&lt;S, Void&gt; set(S newState)</text><text fill="#A6DA95" font-family="sans-serif" font-size="12" lengthAdjust="spacing" text-decoration="underline" textLength="247.5996" x="1067.68" y="828.9234">+State&lt;S, Void&gt; modify(Function&lt;S, S&gt; f)</text><text fill="#A6DA95" font-family="sans-serif" font-size="12" lengthAdjust="spacing" text-decoration="underline" textLength="233.0859" x="1067.68" y="843.0562">+State&lt;S, A&gt; inspect(Function&lt;S, A&gt; f)</text><text fill="#A6DA95" font-family="sans-serif" font-size="12" lengthAdjust="spacing" textLength="215.625" x="1067.68" y="857.189">+State&lt;S, B&gt; map(Function&lt;A, B&gt; f)</text><text fill="#A6DA95" font-family="sans-serif" font-size="12" lengthAdjust="spacing" textLength="295.6406" x="1067.68" y="871.3218">+State&lt;S, B&gt; flatMap(Function&lt;A, State&lt;S, B&gt;&gt; f)</text></g><!--class StateTuple--><g id="elem_StateTuple"><rect codeLine="29" fill="#24273A" height="65.5605" id="StateTuple" rx="1.5" ry="1.5" style="stroke:#C6A0F6;stroke-width:2.0;" width="179.6133" x="1137.19" y="954.5"/><rect fill="#363A4F" height="43.4277" rx="1.5" ry="1.5" style="stroke:#363A4F;stroke-width:2.0;" width="179.6133" x="1137.19" y="954.5"/><rect fill="#363A4F" height="1.5" style="stroke:#363A4F;stroke-width:2.0;" width="179.6133" x="1137.19" y="996.4277"/><rect codeLine="29" fill="none" height="65.5605" id="StateTuple" rx="1.5" ry="1.5" style="stroke:#C6A0F6;stroke-width:2.0;" width="179.6133" x="1137.19" y="954.5"/><ellipse cx="1168.4792" cy="976.2139" fill="#FFFFFF" rx="9" ry="9" style="stroke:#000000;stroke-width:1.0;"/><path d="M1170.3131,980.4619 Q1169.903,980.6729 1169.4518,980.7783 Q1169.0006,980.8838 1168.5026,980.8838 Q1166.7331,980.8838 1165.8014,979.7178 Q1164.8698,978.5518 1164.8698,976.3486 Q1164.8698,974.1396 1165.8014,972.9736 Q1166.7331,971.8076 1168.5026,971.8076 Q1169.0006,971.8076 1169.4577,971.9131 Q1169.9147,972.0186 1170.3131,972.2295 L1170.3131,974.1514 Q1169.8678,973.7412 1169.4489,973.5508 Q1169.0299,973.3604 1168.5846,973.3604 Q1167.6354,973.3604 1167.152,974.1133 Q1166.6686,974.8662 1166.6686,976.3486 Q1166.6686,977.8252 1167.152,978.5781 Q1167.6354,979.3311 1168.5846,979.3311 Q1169.0299,979.3311 1169.4489,979.1406 Q1169.8678,978.9502 1170.3131,978.54 Z " fill="#CAD3F5"/><text fill="#000000" font-family="Verdana" font-size="12" font-style="italic" lengthAdjust="spacing" textLength="53.8711" x="1198.604" y="971.5645">&#171;record&#187;</text><text fill="#A6DA95" font-family="sans-serif" font-size="16" lengthAdjust="spacing" textLength="81.9922" x="1184.5434" y="989.5527">StateTuple</text><rect fill="#24273A" height="16.584" style="stroke:#C6A0F6;stroke-width:1.0;stroke-dasharray:2.0,2.0;" width="26.9785" x="1292.8248" y="951.5"/><text fill="#000000" font-family="Verdana" font-size="12" font-style="italic" lengthAdjust="spacing" textLength="24.9785" x="1293.8248" y="964.5645">S, A</text><line style="stroke:#C6A0F6;stroke-width:2.0;" x1="1138.19" x2="1315.8033" y1="997.9277" y2="997.9277"/><text fill="#A6DA95" font-family="sans-serif" font-size="12" lengthAdjust="spacing" textLength="167.6133" x="1143.19" y="1013.5293">+StateTuple(A value, S state)</text></g><!--class StateKind<S, A> extends Kind<StateKind<S, ?>, A>--><g id="elem_StateKind&lt;S, A&gt; extends Kind&lt;StateKind&lt;S, ?&gt;, A&gt;"><rect codeLine="35" fill="#24273A" height="28.8438" id="StateKind&lt;S, A&gt; extends Kind&lt;StateKind&lt;S, ?&gt;, A&gt;" rx="1.5" ry="1.5" style="stroke:#C6A0F6;stroke-width:2.0;" width="434.5391" x="520.73" y="118.66"/><rect fill="#363A4F" height="28.8438" rx="1.5" ry="1.5" style="stroke:#363A4F;stroke-width:2.0;" width="434.5391" x="520.73" y="118.66"/><rect fill="#363A4F" height="1.5" style="stroke:#363A4F;stroke-width:2.0;" width="434.5391" x="520.73" y="146.0038"/><rect codeLine="35" fill="none" height="28.8438" id="StateKind&lt;S, A&gt; extends Kind&lt;StateKind&lt;S, ?&gt;, A&gt;" rx="1.5" ry="1.5" style="stroke:#C6A0F6;stroke-width:2.0;" width="434.5391" x="520.73" y="118.66"/><ellipse cx="533.73" cy="133.0819" fill="#FFFFFF" rx="9" ry="9" style="stroke:#000000;stroke-width:1.0;"/><path d="M530.7378,130.3573 L530.7378,128.8338 L535.9468,128.8338 L535.9468,130.3573 L534.2066,130.3573 L534.2066,136.0584 L535.9468,136.0584 L535.9468,137.5819 L530.7378,137.5819 L530.7378,136.0584 L532.478,136.0584 L532.478,130.3573 Z " fill="#CAD3F5"/><text fill="#A6DA95" font-family="sans-serif" font-size="16" font-style="italic" lengthAdjust="spacing" textLength="406.5391" x="545.73" y="139.1288">StateKind&lt;S, A&gt; extends Kind&lt;StateKind&lt;S, ?&gt;, A&gt;</text></g><!--class StateKindHelper--><g id="elem_StateKindHelper"><rect codeLine="37" fill="#24273A" height="178.1719" id="StateKindHelper" rx="1.5" ry="1.5" style="stroke:#C6A0F6;stroke-width:2.0;" width="447.4336" x="990.28" y="44"/><rect fill="#363A4F" height="28.8438" rx="1.5" ry="1.5" style="stroke:#363A4F;stroke-width:2.0;" width="447.4336" x="990.28" y="44"/><rect fill="#363A4F" height="1.5" style="stroke:#363A4F;stroke-width:2.0;" width="447.4336" x="990.28" y="71.3438"/><rect codeLine="37" fill="none" height="178.1719" id="StateKindHelper" rx="1.5" ry="1.5" style="stroke:#C6A0F6;stroke-width:2.0;" width="447.4336" x="990.28" y="44"/><ellipse cx="1148.1296" cy="58.4219" fill="#FFFFFF" rx="9" ry="9" style="stroke:#000000;stroke-width:1.0;"/><path d="M1149.9636,62.6699 Q1149.5534,62.8809 1149.1023,62.9863 Q1148.6511,63.0918 1148.153,63.0918 Q1146.3835,63.0918 1145.4519,61.9258 Q1144.5202,60.7598 1144.5202,58.5566 Q1144.5202,56.3477 1145.4519,55.1816 Q1146.3835,54.0156 1148.153,54.0156 Q1148.6511,54.0156 1149.1081,54.1211 Q1149.5652,54.2266 1149.9636,54.4375 L1149.9636,56.3594 Q1149.5183,55.9492 1149.0993,55.7588 Q1148.6804,55.5684 1148.2351,55.5684 Q1147.2859,55.5684 1146.8025,56.3213 Q1146.3191,57.0742 1146.3191,58.5566 Q1146.3191,60.0332 1146.8025,60.7861 Q1147.2859,61.5391 1148.2351,61.5391 Q1148.6804,61.5391 1149.0993,61.3486 Q1149.5183,61.1582 1149.9636,60.748 Z " fill="#CAD3F5"/><text fill="#A6DA95" font-family="sans-serif" font-size="16" lengthAdjust="spacing" textLength="124.2344" x="1165.6296" y="64.4688">StateKindHelper</text><line style="stroke:#C6A0F6;stroke-width:2.0;" x1="991.28" x2="1436.7136" y1="72.8438" y2="72.8438"/><text fill="#A6DA95" font-family="sans-serif" font-size="12" lengthAdjust="spacing" text-decoration="underline" textLength="318.3223" x="996.28" y="88.4453">+State&lt;S, A&gt; unwrap(Kind&lt;StateKind&lt;S, ?&gt;, A&gt; kind)</text><text fill="#A6DA95" font-family="sans-serif" font-size="12" lengthAdjust="spacing" text-decoration="underline" textLength="248.3145" x="996.28" y="102.5781">+StateKind&lt;S, A&gt; wrap(State&lt;S, A&gt; state)</text><text fill="#A6DA95" font-family="sans-serif" font-size="12" lengthAdjust="spacing" text-decoration="underline" textLength="186.7207" x="996.28" y="116.7109">+StateKind&lt;S, A&gt; pure(A value)</text><text fill="#A6DA95" font-family="sans-serif" font-size="12" lengthAdjust="spacing" text-decoration="underline" textLength="134.4492" x="996.28" y="130.8438">+StateKind&lt;S, S&gt; get()</text><text fill="#A6DA95" font-family="sans-serif" font-size="12" lengthAdjust="spacing" text-decoration="underline" textLength="215.25" x="996.28" y="144.9766">+StateKind&lt;S, Void&gt; set(S newState)</text><text fill="#A6DA95" font-family="sans-serif" font-size="12" lengthAdjust="spacing" text-decoration="underline" textLength="273.9023" x="996.28" y="159.1094">+StateKind&lt;S, Void&gt; modify(Function&lt;S, S&gt; f)</text><text fill="#A6DA95" font-family="sans-serif" font-size="12" lengthAdjust="spacing" text-decoration="underline" textLength="259.3887" x="996.28" y="173.2422">+StateKind&lt;S, A&gt; inspect(Function&lt;S, A&gt; f)</text><text fill="#A6DA95" font-family="sans-serif" font-size="12" lengthAdjust="spacing" text-decoration="underline" textLength="435.4336" x="996.28" y="187.375">+StateTuple&lt;S, A&gt; runState(Kind&lt;StateKind&lt;S, ?&gt;, A&gt; kind, S initialState)</text><text fill="#A6DA95" font-family="sans-serif" font-size="12" lengthAdjust="spacing" text-decoration="underline" textLength="343.9922" x="996.28" y="201.5078">+A evalState(Kind&lt;StateKind&lt;S, ?&gt;, A&gt; kind, S initialState)</text><text fill="#A6DA95" font-family="sans-serif" font-size="12" lengthAdjust="spacing" text-decoration="underline" textLength="346.0605" x="996.28" y="215.6406">+S execState(Kind&lt;StateKind&lt;S, ?&gt;, A&gt; kind, S initialState)</text></g><!--class StateFunctor--><g id="elem_StateFunctor"><rect codeLine="50" fill="#24273A" height="50.9766" id="StateFunctor" rx="1.5" ry="1.5" style="stroke:#C6A0F6;stroke-width:2.0;" width="488.9004" x="551.55" y="283.17"/><rect fill="#363A4F" height="28.8438" rx="1.5" ry="1.5" style="stroke:#363A4F;stroke-width:2.0;" width="488.9004" x="551.55" y="283.17"/><rect fill="#363A4F" height="1.5" style="stroke:#363A4F;stroke-width:2.0;" width="488.9004" x="551.55" y="310.5138"/><rect codeLine="50" fill="none" height="50.9766" id="StateFunctor" rx="1.5" ry="1.5" style="stroke:#C6A0F6;stroke-width:2.0;" width="488.9004" x="551.55" y="283.17"/><ellipse cx="737.4846" cy="297.5919" fill="#FFFFFF" rx="9" ry="9" style="stroke:#000000;stroke-width:1.0;"/><path d="M739.3186,301.8399 Q738.9084,302.0509 738.4572,302.1563 Q738.0061,302.2618 737.508,302.2618 Q735.7385,302.2618 734.8068,301.0958 Q733.8752,299.9298 733.8752,297.7266 Q733.8752,295.5177 734.8068,294.3516 Q735.7385,293.1856 737.508,293.1856 Q738.0061,293.1856 738.4631,293.2911 Q738.9201,293.3966 739.3186,293.6075 L739.3186,295.5294 Q738.8732,295.1192 738.4543,294.9288 Q738.0354,294.7384 737.59,294.7384 Q736.6408,294.7384 736.1574,295.4913 Q735.674,296.2442 735.674,297.7266 Q735.674,299.2032 736.1574,299.9561 Q736.6408,300.7091 737.59,300.7091 Q738.0354,300.7091 738.4543,300.5186 Q738.8732,300.3282 739.3186,299.918 Z " fill="#CAD3F5"/><text fill="#A6DA95" font-family="sans-serif" font-size="16" lengthAdjust="spacing" textLength="97.3281" x="754.9846" y="303.6388">StateFunctor</text><rect fill="#24273A" height="16.584" style="stroke:#C6A0F6;stroke-width:1.0;stroke-dasharray:2.0,2.0;" width="10.2031" x="1033.2473" y="280.17"/><text fill="#000000" font-family="Verdana" font-size="12" font-style="italic" lengthAdjust="spacing" textLength="8.2031" x="1034.2473" y="293.2345">S</text><line style="stroke:#C6A0F6;stroke-width:2.0;" x1="552.55" x2="1039.4504" y1="312.0138" y2="312.0138"/><text fill="#A6DA95" font-family="sans-serif" font-size="12" lengthAdjust="spacing" textLength="476.9004" x="557.55" y="327.6153">+Kind&lt;StateKind&lt;S, ?&gt;, B&gt; map(Function&lt;A, B&gt; f, Kind&lt;StateKind&lt;S, ?&gt;, A&gt; fa)</text></g><!--class Functor--><g id="elem_Functor"><rect fill="#24273A" height="28.8438" id="Functor" rx="1.5" ry="1.5" style="stroke:#C6A0F6;stroke-width:2.0;" width="86.9922" x="1472.5" y="118.66"/><rect fill="#363A4F" height="28.8438" rx="1.5" ry="1.5" style="stroke:#363A4F;stroke-width:2.0;" width="86.9922" x="1472.5" y="118.66"/><rect fill="#363A4F" height="1.5" style="stroke:#363A4F;stroke-width:2.0;" width="86.9922" x="1472.5" y="146.0038"/><rect fill="none" height="28.8438" id="Functor" rx="1.5" ry="1.5" style="stroke:#C6A0F6;stroke-width:2.0;" width="86.9922" x="1472.5" y="118.66"/><ellipse cx="1485.5" cy="133.0819" fill="#FFFFFF" rx="9" ry="9" style="stroke:#000000;stroke-width:1.0;"/><path d="M1482.5078,130.3573 L1482.5078,128.8338 L1487.7168,128.8338 L1487.7168,130.3573 L1485.9766,130.3573 L1485.9766,136.0584 L1487.7168,136.0584 L1487.7168,137.5819 L1482.5078,137.5819 L1482.5078,136.0584 L1484.248,136.0584 L1484.248,130.3573 Z " fill="#CAD3F5"/><text fill="#A6DA95" font-family="sans-serif" font-size="16" font-style="italic" lengthAdjust="spacing" textLength="58.9922" x="1497.5" y="139.1288">Functor</text></g><!--class StateApplicative--><g id="elem_StateApplicative"><rect codeLine="53" fill="#24273A" height="65.1094" id="StateApplicative" rx="1.5" ry="1.5" style="stroke:#C6A0F6;stroke-width:2.0;" width="628.3359" x="522.83" y="410.15"/><rect fill="#363A4F" height="28.8438" rx="1.5" ry="1.5" style="stroke:#363A4F;stroke-width:2.0;" width="628.3359" x="522.83" y="410.15"/><rect fill="#363A4F" height="1.5" style="stroke:#363A4F;stroke-width:2.0;" width="628.3359" x="522.83" y="437.4938"/><rect codeLine="53" fill="none" height="65.1094" id="StateApplicative" rx="1.5" ry="1.5" style="stroke:#C6A0F6;stroke-width:2.0;" width="628.3359" x="522.83" y="410.15"/><ellipse cx="765.3456" cy="424.5719" fill="#FFFFFF" rx="9" ry="9" style="stroke:#000000;stroke-width:1.0;"/><path d="M767.1796,428.8199 Q766.7695,429.0309 766.3183,429.1363 Q765.8671,429.2418 765.3691,429.2418 Q763.5995,429.2418 762.6679,428.0758 Q761.7363,426.9098 761.7363,424.7066 Q761.7363,422.4977 762.6679,421.3316 Q763.5995,420.1656 765.3691,420.1656 Q765.8671,420.1656 766.3241,420.2711 Q766.7812,420.3766 767.1796,420.5875 L767.1796,422.5094 Q766.7343,422.0992 766.3154,421.9088 Q765.8964,421.7184 765.4511,421.7184 Q764.5019,421.7184 764.0185,422.4713 Q763.5351,423.2242 763.5351,424.7066 Q763.5351,426.1832 764.0185,426.9361 Q764.5019,427.6891 765.4511,427.6891 Q765.8964,427.6891 766.3154,427.4986 Q766.7343,427.3082 767.1796,426.898 Z " fill="#CAD3F5"/><text fill="#A6DA95" font-family="sans-serif" font-size="16" lengthAdjust="spacing" textLength="123.6016" x="782.8456" y="430.6188">StateApplicative</text><rect fill="#24273A" height="16.584" style="stroke:#C6A0F6;stroke-width:1.0;stroke-dasharray:2.0,2.0;" width="10.2031" x="1143.9628" y="407.15"/><text fill="#000000" font-family="Verdana" font-size="12" font-style="italic" lengthAdjust="spacing" textLength="8.2031" x="1144.9628" y="420.2145">S</text><line style="stroke:#C6A0F6;stroke-width:2.0;" x1="523.83" x2="1150.1659" y1="438.9938" y2="438.9938"/><text fill="#A6DA95" font-family="sans-serif" font-size="12" lengthAdjust="spacing" textLength="229.9453" x="528.83" y="454.5953">+Kind&lt;StateKind&lt;S, ?&gt;, A&gt; of(A value)</text><text fill="#A6DA95" font-family="sans-serif" font-size="12" lengthAdjust="spacing" textLength="616.3359" x="528.83" y="468.7281">+Kind&lt;StateKind&lt;S, ?&gt;, B&gt; ap(Kind&lt;StateKind&lt;S, ?&gt;, Function&lt;A, B&gt;&gt; ff, Kind&lt;StateKind&lt;S, ?&gt;, A&gt; fa)</text></g><!--class Applicative--><g id="elem_Applicative"><rect fill="#24273A" height="28.8438" id="Applicative" rx="1.5" ry="1.5" style="stroke:#C6A0F6;stroke-width:2.0;" width="113.2656" x="1075.37" y="294.23"/><rect fill="#363A4F" height="28.8438" rx="1.5" ry="1.5" style="stroke:#363A4F;stroke-width:2.0;" width="113.2656" x="1075.37" y="294.23"/><rect fill="#363A4F" height="1.5" style="stroke:#363A4F;stroke-width:2.0;" width="113.2656" x="1075.37" y="321.5738"/><rect fill="none" height="28.8438" id="Applicative" rx="1.5" ry="1.5" style="stroke:#C6A0F6;stroke-width:2.0;" width="113.2656" x="1075.37" y="294.23"/><ellipse cx="1088.37" cy="308.6519" fill="#FFFFFF" rx="9" ry="9" style="stroke:#000000;stroke-width:1.0;"/><path d="M1085.3778,305.9273 L1085.3778,304.4038 L1090.5868,304.4038 L1090.5868,305.9273 L1088.8466,305.9273 L1088.8466,311.6284 L1090.5868,311.6284 L1090.5868,313.1519 L1085.3778,313.1519 L1085.3778,311.6284 L1087.118,311.6284 L1087.118,305.9273 Z " fill="#CAD3F5"/><text fill="#A6DA95" font-family="sans-serif" font-size="16" font-style="italic" lengthAdjust="spacing" textLength="85.2656" x="1100.37" y="314.6988">Applicative</text></g><!--class StateMonad--><g id="elem_StateMonad"><rect codeLine="57" fill="#24273A" height="50.9766" id="StateMonad" rx="1.5" ry="1.5" style="stroke:#C6A0F6;stroke-width:2.0;" width="660.0469" x="547.98" y="551.25"/><rect fill="#363A4F" height="28.8438" rx="1.5" ry="1.5" style="stroke:#363A4F;stroke-width:2.0;" width="660.0469" x="547.98" y="551.25"/><rect fill="#363A4F" height="1.5" style="stroke:#363A4F;stroke-width:2.0;" width="660.0469" x="547.98" y="578.5938"/><rect codeLine="57" fill="none" height="50.9766" id="StateMonad" rx="1.5" ry="1.5" style="stroke:#C6A0F6;stroke-width:2.0;" width="660.0469" x="547.98" y="551.25"/><ellipse cx="822.7613" cy="565.6719" fill="#FFFFFF" rx="9" ry="9" style="stroke:#000000;stroke-width:1.0;"/><path d="M824.5952,569.9199 Q824.1851,570.1309 823.7339,570.2363 Q823.2827,570.3418 822.7847,570.3418 Q821.0152,570.3418 820.0835,569.1758 Q819.1519,568.0098 819.1519,565.8066 Q819.1519,563.5977 820.0835,562.4316 Q821.0152,561.2656 822.7847,561.2656 Q823.2827,561.2656 823.7398,561.3711 Q824.1968,561.4766 824.5952,561.6875 L824.5952,563.6094 Q824.1499,563.1992 823.731,563.0088 Q823.312,562.8184 822.8667,562.8184 Q821.9175,562.8184 821.4341,563.5713 Q820.9507,564.3242 820.9507,565.8066 Q820.9507,567.2832 821.4341,568.0361 Q821.9175,568.7891 822.8667,568.7891 Q823.312,568.7891 823.731,568.5986 Q824.1499,568.4082 824.5952,567.998 Z " fill="#CAD3F5"/><text fill="#A6DA95" font-family="sans-serif" font-size="16" lengthAdjust="spacing" textLength="90.7813" x="840.2613" y="571.7188">StateMonad</text><rect fill="#24273A" height="16.584" style="stroke:#C6A0F6;stroke-width:1.0;stroke-dasharray:2.0,2.0;" width="10.2031" x="1200.8238" y="548.25"/><text fill="#000000" font-family="Verdana" font-size="12" font-style="italic" lengthAdjust="spacing" textLength="8.2031" x="1201.8238" y="561.3145">S</text><line style="stroke:#C6A0F6;stroke-width:2.0;" x1="548.98" x2="1207.0269" y1="580.0938" y2="580.0938"/><text fill="#A6DA95" font-family="sans-serif" font-size="12" lengthAdjust="spacing" textLength="648.0469" x="553.98" y="595.6953">+Kind&lt;StateKind&lt;S, ?&gt;, B&gt; flatMap(Function&lt;A, Kind&lt;StateKind&lt;S, ?&gt;, B&gt;&gt; f, Kind&lt;StateKind&lt;S, ?&gt;, A&gt; ma)</text></g><!--class Monad--><g id="elem_Monad"><rect fill="#24273A" height="28.8438" id="Monad" rx="1.5" ry="1.5" style="stroke:#C6A0F6;stroke-width:2.0;" width="80.4453" x="1185.78" y="428.28"/><rect fill="#363A4F" height="28.8438" rx="1.5" ry="1.5" style="stroke:#363A4F;stroke-width:2.0;" width="80.4453" x="1185.78" y="428.28"/><rect fill="#363A4F" height="1.5" style="stroke:#363A4F;stroke-width:2.0;" width="80.4453" x="1185.78" y="455.6238"/><rect fill="none" height="28.8438" id="Monad" rx="1.5" ry="1.5" style="stroke:#C6A0F6;stroke-width:2.0;" width="80.4453" x="1185.78" y="428.28"/><ellipse cx="1198.78" cy="442.7019" fill="#FFFFFF" rx="9" ry="9" style="stroke:#000000;stroke-width:1.0;"/><path d="M1195.7878,439.9773 L1195.7878,438.4538 L1200.9968,438.4538 L1200.9968,439.9773 L1199.2566,439.9773 L1199.2566,445.6784 L1200.9968,445.6784 L1200.9968,447.2019 L1195.7878,447.2019 L1195.7878,445.6784 L1197.528,445.6784 L1197.528,439.9773 Z " fill="#CAD3F5"/><text fill="#A6DA95" font-family="sans-serif" font-size="16" font-style="italic" lengthAdjust="spacing" textLength="52.4453" x="1210.78" y="448.7488">Monad</text></g><!--class StateKind--><g id="elem_StateKind"><rect fill="#24273A" height="28.8438" id="StateKind" rx="1.5" ry="1.5" style="stroke:#C6A0F6;stroke-width:2.0;" width="101.4063" x="313.3" y="774.12"/><rect fill="#363A4F" height="28.8438" rx="1.5" ry="1.5" style="stroke:#363A4F;stroke-width:2.0;" width="101.4063" x="313.3" y="774.12"/><rect fill="#363A4F" height="1.5" style="stroke:#363A4F;stroke-width:2.0;" width="101.4063" x="313.3" y="801.4638"/><rect fill="none" height="28.8438" id="StateKind" rx="1.5" ry="1.5" style="stroke:#C6A0F6;stroke-width:2.0;" width="101.4063" x="313.3" y="774.12"/><ellipse cx="326.3" cy="788.5419" fill="#FFFFFF" rx="9" ry="9" style="stroke:#000000;stroke-width:1.0;"/><path d="M328.134,792.7899 Q327.7238,793.0009 327.2727,793.1063 Q326.8215,793.2118 326.3234,793.2118 Q324.5539,793.2118 323.6223,792.0458 Q322.6906,790.8798 322.6906,788.6766 Q322.6906,786.4677 323.6223,785.3016 Q324.5539,784.1356 326.3234,784.1356 Q326.8215,784.1356 327.2785,784.2411 Q327.7355,784.3466 328.134,784.5575 L328.134,786.4794 Q327.6887,786.0692 327.2697,785.8788 Q326.8508,785.6884 326.4055,785.6884 Q325.4563,785.6884 324.9729,786.4413 Q324.4895,787.1942 324.4895,788.6766 Q324.4895,790.1532 324.9729,790.9061 Q325.4563,791.6591 326.4055,791.6591 Q326.8508,791.6591 327.2697,791.4686 Q327.6887,791.2782 328.134,790.868 Z " fill="#CAD3F5"/><text fill="#A6DA95" font-family="sans-serif" font-size="16" lengthAdjust="spacing" textLength="73.4063" x="338.3" y="794.5888">StateKind</text></g><!--class Functor--><g id="elem_Functor"><rect fill="#24273A" height="28.8438" id="Functor" rx="1.5" ry="1.5" style="stroke:#C6A0F6;stroke-width:2.0;" width="86.9922" x="400.5" y="428.28"/><rect fill="#363A4F" height="28.8438" rx="1.5" ry="1.5" style="stroke:#363A4F;stroke-width:2.0;" width="86.9922" x="400.5" y="428.28"/><rect fill="#363A4F" height="1.5" style="stroke:#363A4F;stroke-width:2.0;" width="86.9922" x="400.5" y="455.6238"/><rect fill="none" height="28.8438" id="Functor" rx="1.5" ry="1.5" style="stroke:#C6A0F6;stroke-width:2.0;" width="86.9922" x="400.5" y="428.28"/><ellipse cx="413.5" cy="442.7019" fill="#FFFFFF" rx="9" ry="9" style="stroke:#000000;stroke-width:1.0;"/><path d="M415.334,446.9499 Q414.9238,447.1609 414.4727,447.2663 Q414.0215,447.3718 413.5234,447.3718 Q411.7539,447.3718 410.8223,446.2058 Q409.8906,445.0398 409.8906,442.8366 Q409.8906,440.6277 410.8223,439.4616 Q411.7539,438.2956 413.5234,438.2956 Q414.0215,438.2956 414.4785,438.4011 Q414.9355,438.5066 415.334,438.7175 L415.334,440.6394 Q414.8887,440.2292 414.4697,440.0388 Q414.0508,439.8484 413.6055,439.8484 Q412.6563,439.8484 412.1729,440.6013 Q411.6895,441.3542 411.6895,442.8366 Q411.6895,444.3132 412.1729,445.0661 Q412.6563,445.8191 413.6055,445.8191 Q414.0508,445.8191 414.4697,445.6286 Q414.8887,445.4382 415.334,445.028 Z " fill="#CAD3F5"/><text fill="#A6DA95" font-family="sans-serif" font-size="16" lengthAdjust="spacing" textLength="58.9922" x="425.5" y="448.7488">Functor</text></g><!--class Applicative--><g id="elem_Applicative"><rect fill="#24273A" height="28.8438" id="Applicative" rx="1.5" ry="1.5" style="stroke:#C6A0F6;stroke-width:2.0;" width="113.2656" x="375.37" y="562.32"/><rect fill="#363A4F" height="28.8438" rx="1.5" ry="1.5" style="stroke:#363A4F;stroke-width:2.0;" width="113.2656" x="375.37" y="562.32"/><rect fill="#363A4F" height="1.5" style="stroke:#363A4F;stroke-width:2.0;" width="113.2656" x="375.37" y="589.6638"/><rect fill="none" height="28.8438" id="Applicative" rx="1.5" ry="1.5" style="stroke:#C6A0F6;stroke-width:2.0;" width="113.2656" x="375.37" y="562.32"/><ellipse cx="388.37" cy="576.7419" fill="#FFFFFF" rx="9" ry="9" style="stroke:#000000;stroke-width:1.0;"/><path d="M390.204,580.9899 Q389.7938,581.2009 389.3427,581.3063 Q388.8915,581.4118 388.3934,581.4118 Q386.6239,581.4118 385.6923,580.2458 Q384.7606,579.0798 384.7606,576.8766 Q384.7606,574.6677 385.6923,573.5016 Q386.6239,572.3356 388.3934,572.3356 Q388.8915,572.3356 389.3485,572.4411 Q389.8055,572.5466 390.204,572.7575 L390.204,574.6794 Q389.7587,574.2692 389.3397,574.0788 Q388.9208,573.8884 388.4755,573.8884 Q387.5263,573.8884 387.0429,574.6413 Q386.5595,575.3942 386.5595,576.8766 Q386.5595,578.3532 387.0429,579.1061 Q387.5263,579.8591 388.4755,579.8591 Q388.9208,579.8591 389.3397,579.6686 Q389.7587,579.4782 390.204,579.068 Z " fill="#CAD3F5"/><text fill="#A6DA95" font-family="sans-serif" font-size="16" lengthAdjust="spacing" textLength="85.2656" x="400.37" y="582.7888">Applicative</text></g><!--class Monad--><g id="elem_Monad"><rect fill="#24273A" height="28.8438" id="Monad" rx="1.5" ry="1.5" style="stroke:#C6A0F6;stroke-width:2.0;" width="80.4453" x="837.78" y="774.12"/><rect fill="#363A4F" height="28.8438" rx="1.5" ry="1.5" style="stroke:#363A4F;stroke-width:2.0;" width="80.4453" x="837.78" y="774.12"/><rect fill="#363A4F" height="1.5" style="stroke:#363A4F;stroke-width:2.0;" width="80.4453" x="837.78" y="801.4638"/><rect fill="none" height="28.8438" id="Monad" rx="1.5" ry="1.5" style="stroke:#C6A0F6;stroke-width:2.0;" width="80.4453" x="837.78" y="774.12"/><ellipse cx="850.78" cy="788.5419" fill="#FFFFFF" rx="9" ry="9" style="stroke:#000000;stroke-width:1.0;"/><path d="M852.614,792.7899 Q852.2038,793.0009 851.7527,793.1063 Q851.3015,793.2118 850.8034,793.2118 Q849.0339,793.2118 848.1023,792.0458 Q847.1706,790.8798 847.1706,788.6766 Q847.1706,786.4677 848.1023,785.3016 Q849.0339,784.1356 850.8034,784.1356 Q851.3015,784.1356 851.7585,784.2411 Q852.2155,784.3466 852.614,784.5575 L852.614,786.4794 Q852.1687,786.0692 851.7497,785.8788 Q851.3308,785.6884 850.8855,785.6884 Q849.9363,785.6884 849.4529,786.4413 Q848.9695,787.1942 848.9695,788.6766 Q848.9695,790.1532 849.4529,790.9061 Q849.9363,791.6591 850.8855,791.6591 Q851.3308,791.6591 851.7497,791.4686 Q852.1687,791.2782 852.614,790.868 Z " fill="#CAD3F5"/><text fill="#A6DA95" font-family="sans-serif" font-size="16" lengthAdjust="spacing" textLength="52.4453" x="862.78" y="794.5888">Monad</text></g><!--reverse link State to StateTuple--><g id="link_State_StateTuple"><path codeLine="27" d="M1227,894.13 C1227,921.25 1227,933.39 1227,954.16 " fill="none" id="State-backto-StateTuple" style="stroke:#F5BDE6;stroke-width:1.0;"/><ellipse cx="1227" cy="886.13" fill="#24273A" rx="8" ry="8" style="stroke:#F5BDE6;stroke-width:1.0;"/><line style="stroke:#F5BDE6;stroke-width:1.0;" x1="1227" x2="1227" y1="894.13" y2="878.13"/><line style="stroke:#F5BDE6;stroke-width:1.0;" x1="1219" x2="1235" y1="886.13" y2="886.13"/><polygon fill="#CAD3F5" points="1231,919.9164,1233.3511,912.6803,1228.6489,912.6803,1231,919.9164" style="stroke:#CAD3F5;stroke-width:1.0;"/><text fill="#CAD3F5" font-family="sans-serif" font-size="12" lengthAdjust="spacing" textLength="26.3672" x="1240" y="920.4516">uses</text></g><!--reverse link Functor to StateFunctor--><g id="link_Functor_StateFunctor"><path d="M1503.7905,164.416 C1495.3705,184.466 1483.76,204.65 1455,222.17 C1436.2,233.62 1205.58,261.8 1022.39,282.7 " fill="none" id="Functor-backto-StateFunctor" style="stroke:#F5BDE6;stroke-width:1.0;stroke-dasharray:7.0,7.0;"/><polygon fill="none" points="1510.76,147.82,1498.2585,162.0928,1509.3225,166.7391,1510.76,147.82" style="stroke:#F5BDE6;stroke-width:1.0;"/></g><!--reverse link StateFunctor to StateApplicative--><g id="link_StateFunctor_StateApplicative"><path d="M795.2137,352.6291 C795.3537,366.3491 796.47,365.49 801,380.15 C804.15,390.32 809.24,400.6 814.62,409.77 " fill="none" id="StateFunctor-backto-StateApplicative" style="stroke:#F5BDE6;stroke-width:1.0;"/><polygon fill="none" points="795.03,334.63,789.214,352.6903,801.2134,352.5678,795.03,334.63" style="stroke:#F5BDE6;stroke-width:1.0;"/></g><!--reverse link StateFunctor to StateApplicative--><g id="link_StateFunctor_StateApplicative"><path codeLine="68" d="M805.4903,340.2198 C812.1303,361.5898 819.96,386.81 827.15,409.96 " fill="none" id="StateFunctor-backto-StateApplicative-1" style="stroke:#F5BDE6;stroke-width:1.0;stroke-dasharray:7.0,7.0;"/><polygon fill="#F5BDE6" points="803.71,334.49,802.5606,344.2716,805.1936,339.2648,810.2004,341.8978,803.71,334.49" style="stroke:#F5BDE6;stroke-width:1.0;"/><text fill="#CAD3F5" font-family="sans-serif" font-size="12" lengthAdjust="spacing" textLength="46.3359" x="818.73" y="376.7516">extends</text></g><!--reverse link Applicative to StateApplicative--><g id="link_Applicative_StateApplicative"><path d="M1084.5601,330.8925 C1039.2201,351.1825 969.99,382.17 908.53,409.68 " fill="none" id="Applicative-backto-StateApplicative" style="stroke:#F5BDE6;stroke-width:1.0;stroke-dasharray:7.0,7.0;"/><polygon fill="none" points="1100.99,323.54,1082.1093,325.4159,1087.011,336.3691,1100.99,323.54" style="stroke:#F5BDE6;stroke-width:1.0;"/></g><!--reverse link StateApplicative to StateMonad--><g id="link_StateApplicative_StateMonad"><path d="M835.6549,493.7281 C835.8649,507.9981 837.14,506.8 842,521.25 C845.5,531.68 851.52,542.03 857.64,550.86 " fill="none" id="StateApplicative-backto-StateMonad" style="stroke:#F5BDE6;stroke-width:1.0;"/><polygon fill="none" points="835.39,475.73,829.6555,493.8163,841.6542,493.6398,835.39,475.73" style="stroke:#F5BDE6;stroke-width:1.0;"/></g><!--reverse link StateApplicative to StateMonad--><g id="link_StateApplicative_StateMonad"><path codeLine="69" d="M848.6999,481.3899 C855.9099,504.5999 863.73,529.8 870.35,551.1 " fill="none" id="StateApplicative-backto-StateMonad-1" style="stroke:#F5BDE6;stroke-width:1.0;stroke-dasharray:7.0,7.0;"/><polygon fill="#F5BDE6" points="846.92,475.66,845.77,485.4415,848.4033,480.4349,853.4099,483.0682,846.92,475.66" style="stroke:#F5BDE6;stroke-width:1.0;"/><text fill="#CAD3F5" font-family="sans-serif" font-size="12" lengthAdjust="spacing" textLength="46.3359" x="860.95" y="517.8516">extends</text></g><!--reverse link Monad to StateMonad--><g id="link_Monad_StateMonad"><path d="M1187.567,466.5048 C1177.327,472.3948 1180.57,470.1 1169,475.25 C1101.26,505.43 1021.46,532.41 962.58,550.8 " fill="none" id="Monad-backto-StateMonad" style="stroke:#F5BDE6;stroke-width:1.0;stroke-dasharray:7.0,7.0;"/><polygon fill="none" points="1203.17,457.53,1184.5754,461.3038,1190.5586,471.7058,1203.17,457.53" style="stroke:#F5BDE6;stroke-width:1.0;"/></g><!--link StateKind to Kind--><g id="link_StateKind_Kind"><path codeLine="63" d="M364,803.38 C364,839.5 364,936.35 364,972.46 " fill="none" id="StateKind-Kind" style="stroke:#F5BDE6;stroke-width:1.0;"/><text fill="#CAD3F5" font-family="sans-serif" font-size="12" lengthAdjust="spacing" textLength="46.3359" x="365" y="920.4516">extends</text></g><!--link StateFunctor to Functor--><g id="link_StateFunctor_Functor"><path codeLine="64" d="M713.58,334.6 C654.65,353.28 573.9,380.61 505,410.15 C492.84,415.36 479.75,421.98 468.83,427.82 " fill="none" id="StateFunctor-Functor" style="stroke:#F5BDE6;stroke-width:1.0;"/><text fill="#CAD3F5" font-family="sans-serif" font-size="12" lengthAdjust="spacing" textLength="68.3203" x="624.32" y="376.7516">implements</text></g><!--link StateApplicative to Applicative--><g id="link_StateApplicative_Applicative"><path codeLine="65" d="M737.4,475.67 C671.41,496.92 582.97,525.55 505,551.25 C494.59,554.69 483.36,558.43 472.9,561.94 " fill="none" id="StateApplicative-Applicative" style="stroke:#F5BDE6;stroke-width:1.0;"/><text fill="#CAD3F5" font-family="sans-serif" font-size="12" lengthAdjust="spacing" textLength="68.3203" x="642.67" y="517.8516">implements</text></g><!--link StateMonad to Monad--><g id="link_StateMonad_Monad"><path codeLine="66" d="M878,602.63 C878,647.14 878,738.94 878,773.75 " fill="none" id="StateMonad-Monad" style="stroke:#F5BDE6;stroke-width:1.0;"/><text fill="#CAD3F5" font-family="sans-serif" font-size="12" lengthAdjust="spacing" textLength="68.3203" x="879" y="646.8316">implements</text></g><!--link StateKindHelper to State--><g id="link_StateKindHelper_State"><path codeLine="71" d="M1305.53,222.41 C1323.02,247.74 1336,276.9 1336,307.66 C1336,307.66 1336,307.66 1336,577.74 C1336,620.53 1321.0125,658.1184 1299.5825,693.7484 " fill="none" id="StateKindHelper-to-State" style="stroke:#F5BDE6;stroke-width:1.0;stroke-dasharray:7.0,7.0;"/><polygon fill="#F5BDE6" points="1296.49,698.89,1304.5565,693.2392,1299.0671,694.6053,1297.701,689.1159,1296.49,698.89" style="stroke:#F5BDE6;stroke-width:1.0;"/><text fill="#CAD3F5" font-family="sans-serif" font-size="12" lengthAdjust="spacing" textLength="97.3008" x="1337" y="447.3016">creates/unwraps</text></g><!--link StateKindHelper to StateKind--><g id="link_StateKindHelper_StateKind"><path codeLine="72" d="M990.02,217.86 C984.31,219.38 978.63,220.82 973,222.17 C896.16,240.6 267,228.64 267,307.66 C267,307.66 267,307.66 267,577.74 C267,658.4 323.0495,737.0566 348.7395,769.1366 " fill="none" id="StateKindHelper-to-StateKind" style="stroke:#F5BDE6;stroke-width:1.0;stroke-dasharray:7.0,7.0;"/><polygon fill="#F5BDE6" points="352.49,773.82,349.9865,764.2946,349.3646,769.9172,343.742,769.2953,352.49,773.82" style="stroke:#F5BDE6;stroke-width:1.0;"/><text fill="#CAD3F5" font-family="sans-serif" font-size="12" lengthAdjust="spacing" textLength="97.3008" x="268" y="447.3016">creates/unwraps</text></g><!--link StateMonad to StateKind--><g id="link_StateMonad_StateKind"><path codeLine="74" d="M783.28,602.6 C752.26,611.58 717.84,622.43 687,634.23 C572.79,677.92 448.3733,742.335 394.6533,771.005 " fill="none" id="StateMonad-to-StateKind" style="stroke:#F5BDE6;stroke-width:1.0;stroke-dasharray:7.0,7.0;"/><polygon fill="#F5BDE6" points="389.36,773.83,399.1833,773.1214,393.7711,771.4758,395.4166,766.0636,389.36,773.83" style="stroke:#F5BDE6;stroke-width:1.0;"/><text fill="#CAD3F5" font-family="sans-serif" font-size="12" lengthAdjust="spacing" textLength="181.3828" x="688" y="646.8316">operates on &lt;StateKind&lt;S,?&gt;&gt;</text></g><!--link StateMonad to State--><g id="link_StateMonad_State"><path codeLine="75" d="M919.41,602.63 C959.04,626.46 1016.0777,660.7486 1074.1977,695.6886 " fill="none" id="StateMonad-to-State" style="stroke:#F5BDE6;stroke-width:1.0;stroke-dasharray:7.0,7.0;"/><polygon fill="#F5BDE6" points="1079.34,698.78,1073.6875,690.7147,1075.0547,696.2038,1069.5656,697.5711,1079.34,698.78" style="stroke:#F5BDE6;stroke-width:1.0;"/><text fill="#CAD3F5" font-family="sans-serif" font-size="12" lengthAdjust="spacing" textLength="96.6094" x="991.89" y="646.8316">uses methods of</text></g><!--SRC=[fLLBR-8m4BxdLqovB5KBx1cXhDYLKAkgUsYglHl7ALRZXso7RhVYl-ya8U0u3xHT3c0yttpp7b-v7HCCT4wuZAwuf7cHCjWvf-roiJ3aRVx2tQxO5fOPggHZqisf4Wj9bNLankc24gTrGIcNCq4etN7Yr0pvf2j4Fgle5mBP5zLnhl4sYkmhbveO8e3cnDgrSuPl2yVkqKR2_p3uwa5Ibf4YTniq_vEWivCdjLLEtS8To_VCSKecqOwZsqnezmw2YIqpDeeqeQ_a1V4_b65mz_0CznY0oGXbTW8V4U27DpVmm6Mwsjp2EWu4cq9Ifyng4mhMMkTetF4zwmeVbIHfUNtm74aSSGoUtpNhsgzagwHq05QhoYX7ZlpiT1mVbV1pK-EV2vqtIgQGqmG9kUCahwJNP_G7LWipTMYPKTcqiLFUX8mnP2YzHA8BmwPhs9Ey63UOnF32t7GKyqlnD0QBi0GaUxiSHQqWLCgpztOmwFqbrxcqcb7NqbktzKxmxsY5w3DqNLqDGRESkCS0xibFYeVgkswBczdCAm4i0MVEGXnLa6fCkZLVhGoZogJ8UEeDlpMQmg1riETa7dgwifoFX8i2FKU7k_rPmwefgMsptxWDKbiFJaluBIu1auxdfHndLZFZETjRcKA-6KpV43NWRaYl1oWy5oiIdzVw3JMYsDVKG_2WhuTWOwqzhdEXkqV2kDJWeMgmJggxyIAKZTMtSZpcDR3zKVhVN0bs7QEVvZfqMh9PxfXGBZ1uWG-SFQtyWBsrV_lD3wo9sy4fWOpugy1ppNzUalEuZRZTqlXdr-i7eRl91mCT7D1sz1ZYf-AlNz0myY0hNlH7_6TArhUkXy3ZrHJ4sx1Vu8dLwzJkkBRHIG5mrLU_ooQuo2zhAMwEIo_4ACn02VJ_Ti5LKafOVMW1kdJpOXwt6Ynqi6Ovmzh66sWKRljvWqSGDGmFTb6lU3kCFIOenBSS2R0A2KemA0cjyc0ZzEerhwnWRgUmnLGM_GK0]--></g></svg>