<svg xmlns="http://www.w3.org/2000/svg" xmlns:xlink="http://www.w3.org/1999/xlink" contentStyleType="text/css" data-diagram-type="CLASS" height="910px" preserveAspectRatio="none" style="width:663px;height:910px;background:#24273A;" version="1.1" viewBox="0 0 663 910" width="663px" zoomAndPan="magnify"><defs/><g><rect fill="#24273A" height="910" style="stroke:none;stroke-width:1;" width="663" x="0" y="0"/><!--cluster Supported Types (Monad Implementations)--><g class="cluster" data-entity="Supported Types (Monad Implementations)" data-source-line="6" data-uid="ent0002" id="cluster_Supported Types (Monad Implementations)"><path d="M12.5,11 L309.8984,11 A2.25,2.25 0 0 1 311.3984,12.5 L318.3984,30.9688 L655.41,30.9688 A1.5,1.5 0 0 1 656.91,32.4688 L656.91,901.5 A1.5,1.5 0 0 1 655.41,903 L12.5,903 A1.5,1.5 0 0 1 11,901.5 L11,12.5 A1.5,1.5 0 0 1 12.5,11" fill="#24273A" style="stroke:#CAD3F5;stroke-width:1;"/><line style="stroke:#CAD3F5;stroke-width:1;" x1="11" x2="318.3984" y1="30.9688" y2="30.9688"/><text fill="#CAD3F5" font-family="Helvetica" font-size="12" font-weight="bold" lengthAdjust="spacing" textLength="294.3984" x="15" y="24.1387">Supported Types (Monad Implementations)</text></g><!--cluster CoreInterfaces--><g class="cluster" data-entity="CoreInterfaces" data-source-line="19" data-uid="ent0015" id="cluster_CoreInterfaces"><path d="M476.3,411 L578.9211,411 A2.25,2.25 0 0 1 580.4211,412.5 L587.4211,430.9688 L626.63,430.9688 A1.5,1.5 0 0 1 628.13,432.4688 L628.13,581.5 A1.5,1.5 0 0 1 626.63,583 L476.3,583 A1.5,1.5 0 0 1 474.8,581.5 L474.8,412.5 A1.5,1.5 0 0 1 476.3,411" fill="#24273A" style="stroke:#CAD3F5;stroke-width:1;"/><line style="stroke:#CAD3F5;stroke-width:1;" x1="474.8" x2="587.4211" y1="430.9688" y2="430.9688"/><text fill="#CAD3F5" font-family="Helvetica" font-size="12" font-weight="bold" lengthAdjust="spacing" textLength="99.6211" x="478.8" y="424.1387">CoreInterfaces</text></g><!--cluster SimulationPlumbing--><g class="cluster" data-entity="SimulationPlumbing" data-source-line="32" data-uid="ent0029" id="cluster_SimulationPlumbing"><path d="M471.52,787 L610.9614,787 A2.25,2.25 0 0 1 612.4614,788.5 L619.4614,806.9688 L631.41,806.9688 A1.5,1.5 0 0 1 632.91,808.4688 L632.91,877.5 A1.5,1.5 0 0 1 631.41,879 L471.52,879 A1.5,1.5 0 0 1 470.02,877.5 L470.02,788.5 A1.5,1.5 0 0 1 471.52,787" fill="#24273A" style="stroke:#CAD3F5;stroke-width:1;"/><line style="stroke:#CAD3F5;stroke-width:1;" x1="470.02" x2="619.4614" y1="806.9688" y2="806.9688"/><text fill="#CAD3F5" font-family="Helvetica" font-size="12" font-weight="bold" lengthAdjust="spacing" textLength="136.4414" x="474.02" y="800.1387">SimulationPlumbing</text></g><!--class ListMonad--><g class="entity" data-entity="ListMonad" data-source-line="7" data-uid="ent0003" id="entity_ListMonad"><rect fill="#24273A" height="44.625" rx="1.5" ry="1.5" style="stroke:#C6A0F6;stroke-width:2;" width="109.6641" x="109.68" y="42.69"/><rect fill="#363A4F" height="28.625" rx="1.5" ry="1.5" style="stroke:#363A4F;stroke-width:2;" width="109.6641" x="109.68" y="42.69"/><rect fill="#363A4F" height="1.5" style="stroke:#363A4F;stroke-width:2;" width="109.6641" x="109.68" y="69.815"/><rect fill="none" height="44.625" rx="1.5" ry="1.5" style="stroke:#C6A0F6;stroke-width:2;" width="109.6641" x="109.68" y="42.69"/><ellipse cx="122.68" cy="57.0025" fill="#FFFFFF" rx="9" ry="9" style="stroke:#000000;stroke-width:1;"/><path d="M124.5081,61.2525 Q124.1019,61.4556 123.6488,61.565 Q123.1956,61.6744 122.7113,61.6744 Q120.93,61.6744 119.9925,60.5181 Q119.0706,59.3463 119.0706,57.1431 Q119.0706,54.9244 119.9925,53.7681 Q120.93,52.5963 122.7113,52.5963 Q123.1956,52.5963 123.6488,52.7056 Q124.1175,52.7994 124.5081,53.0181 L124.5081,54.94 Q124.0706,54.5338 123.6488,54.3463 Q123.2269,54.1431 122.7894,54.1431 Q121.8363,54.1431 121.3519,54.9088 Q120.8675,55.6588 120.8675,57.1431 Q120.8675,58.6119 121.3519,59.3619 Q121.8363,60.1119 122.7894,60.1119 Q123.2269,60.1119 123.6488,59.9244 Q124.0706,59.7369 124.5081,59.3306 L124.5081,61.2525 Z " fill="#CAD3F5"/><text fill="#A6DA95" font-family="Helvetica" font-size="16" lengthAdjust="spacing" textLength="81.6641" x="134.68" y="62.5416">ListMonad</text><line style="stroke:#C6A0F6;stroke-width:2;" x1="110.68" x2="218.3441" y1="71.315" y2="71.315"/><line style="stroke:#C6A0F6;stroke-width:2;" x1="110.68" x2="218.3441" y1="79.315" y2="79.315"/></g><!--class OptionalMonad--><g class="entity" data-entity="OptionalMonad" data-source-line="8" data-uid="ent0004" id="entity_OptionalMonad"><rect fill="#24273A" height="44.625" rx="1.5" ry="1.5" style="stroke:#C6A0F6;stroke-width:2;" width="149.3438" x="89.84" y="842.69"/><rect fill="#363A4F" height="28.625" rx="1.5" ry="1.5" style="stroke:#363A4F;stroke-width:2;" width="149.3438" x="89.84" y="842.69"/><rect fill="#363A4F" height="1.5" style="stroke:#363A4F;stroke-width:2;" width="149.3438" x="89.84" y="869.815"/><rect fill="none" height="44.625" rx="1.5" ry="1.5" style="stroke:#C6A0F6;stroke-width:2;" width="149.3438" x="89.84" y="842.69"/><ellipse cx="102.84" cy="857.0025" fill="#FFFFFF" rx="9" ry="9" style="stroke:#000000;stroke-width:1;"/><path d="M104.6681,861.2525 Q104.2619,861.4556 103.8088,861.565 Q103.3556,861.6744 102.8713,861.6744 Q101.09,861.6744 100.1525,860.5181 Q99.2306,859.3463 99.2306,857.1431 Q99.2306,854.9244 100.1525,853.7681 Q101.09,852.5963 102.8713,852.5963 Q103.3556,852.5963 103.8088,852.7056 Q104.2775,852.7994 104.6681,853.0181 L104.6681,854.94 Q104.2306,854.5338 103.8088,854.3463 Q103.3869,854.1431 102.9494,854.1431 Q101.9963,854.1431 101.5119,854.9088 Q101.0275,855.6588 101.0275,857.1431 Q101.0275,858.6119 101.5119,859.3619 Q101.9963,860.1119 102.9494,860.1119 Q103.3869,860.1119 103.8088,859.9244 Q104.2306,859.7369 104.6681,859.3306 L104.6681,861.2525 Z " fill="#CAD3F5"/><text fill="#A6DA95" font-family="Helvetica" font-size="16" lengthAdjust="spacing" textLength="121.3438" x="114.84" y="862.5416">OptionalMonad</text><line style="stroke:#C6A0F6;stroke-width:2;" x1="90.84" x2="238.1838" y1="871.315" y2="871.315"/><line style="stroke:#C6A0F6;stroke-width:2;" x1="90.84" x2="238.1838" y1="879.315" y2="879.315"/></g><!--class MaybeMonad--><g class="entity" data-entity="MaybeMonad" data-source-line="9" data-uid="ent0005" id="entity_MaybeMonad"><rect fill="#24273A" height="44.625" rx="1.5" ry="1.5" style="stroke:#C6A0F6;stroke-width:2;" width="134.7734" x="97.13" y="762.69"/><rect fill="#363A4F" height="28.625" rx="1.5" ry="1.5" style="stroke:#363A4F;stroke-width:2;" width="134.7734" x="97.13" y="762.69"/><rect fill="#363A4F" height="1.5" style="stroke:#363A4F;stroke-width:2;" width="134.7734" x="97.13" y="789.815"/><rect fill="none" height="44.625" rx="1.5" ry="1.5" style="stroke:#C6A0F6;stroke-width:2;" width="134.7734" x="97.13" y="762.69"/><ellipse cx="110.13" cy="777.0025" fill="#FFFFFF" rx="9" ry="9" style="stroke:#000000;stroke-width:1;"/><path d="M111.9581,781.2525 Q111.5519,781.4556 111.0988,781.565 Q110.6456,781.6744 110.1613,781.6744 Q108.38,781.6744 107.4425,780.5181 Q106.5206,779.3463 106.5206,777.1431 Q106.5206,774.9244 107.4425,773.7681 Q108.38,772.5963 110.1613,772.5963 Q110.6456,772.5963 111.0988,772.7056 Q111.5675,772.7994 111.9581,773.0181 L111.9581,774.94 Q111.5206,774.5338 111.0988,774.3463 Q110.6769,774.1431 110.2394,774.1431 Q109.2863,774.1431 108.8019,774.9088 Q108.3175,775.6588 108.3175,777.1431 Q108.3175,778.6119 108.8019,779.3619 Q109.2863,780.1119 110.2394,780.1119 Q110.6769,780.1119 111.0988,779.9244 Q111.5206,779.7369 111.9581,779.3306 L111.9581,781.2525 Z " fill="#CAD3F5"/><text fill="#A6DA95" font-family="Helvetica" font-size="16" lengthAdjust="spacing" textLength="106.7734" x="122.13" y="782.5416">MaybeMonad</text><line style="stroke:#C6A0F6;stroke-width:2;" x1="98.13" x2="230.9034" y1="791.315" y2="791.315"/><line style="stroke:#C6A0F6;stroke-width:2;" x1="98.13" x2="230.9034" y1="799.315" y2="799.315"/></g><!--class EitherMonad--><g class="entity" data-entity="EitherMonad" data-source-line="10" data-uid="ent0006" id="entity_EitherMonad"><rect fill="#24273A" height="44.625" rx="1.5" ry="1.5" style="stroke:#C6A0F6;stroke-width:2;" width="139.7715" x="94.63" y="682.69"/><rect fill="#363A4F" height="28.625" rx="1.5" ry="1.5" style="stroke:#363A4F;stroke-width:2;" width="139.7715" x="94.63" y="682.69"/><rect fill="#363A4F" height="1.5" style="stroke:#363A4F;stroke-width:2;" width="139.7715" x="94.63" y="709.815"/><rect fill="none" height="44.625" rx="1.5" ry="1.5" style="stroke:#C6A0F6;stroke-width:2;" width="139.7715" x="94.63" y="682.69"/><ellipse cx="107.63" cy="697.0025" fill="#FFFFFF" rx="9" ry="9" style="stroke:#000000;stroke-width:1;"/><path d="M109.4581,701.2525 Q109.0519,701.4556 108.5988,701.565 Q108.1456,701.6744 107.6613,701.6744 Q105.88,701.6744 104.9425,700.5181 Q104.0206,699.3463 104.0206,697.1431 Q104.0206,694.9244 104.9425,693.7681 Q105.88,692.5963 107.6613,692.5963 Q108.1456,692.5963 108.5988,692.7056 Q109.0675,692.7994 109.4581,693.0181 L109.4581,694.94 Q109.0206,694.5338 108.5988,694.3463 Q108.1769,694.1431 107.7394,694.1431 Q106.7863,694.1431 106.3019,694.9088 Q105.8175,695.6588 105.8175,697.1431 Q105.8175,698.6119 106.3019,699.3619 Q106.7863,700.1119 107.7394,700.1119 Q108.1769,700.1119 108.5988,699.9244 Q109.0206,699.7369 109.4581,699.3306 L109.4581,701.2525 Z " fill="#CAD3F5"/><text fill="#A6DA95" font-family="Helvetica" font-size="16" lengthAdjust="spacing" textLength="101.0859" x="119.63" y="702.5416">EitherMonad</text><rect fill="#24273A" height="15.9688" style="stroke:#C6A0F6;stroke-width:1;stroke-dasharray:2.0,2.0;" width="8.6855" x="228.7159" y="679.69"/><text fill="#000000" font-family="Verdana" font-size="12" font-style="italic" lengthAdjust="spacing" textLength="6.6855" x="229.7159" y="691.8287">L</text><line style="stroke:#C6A0F6;stroke-width:2;" x1="95.63" x2="233.4015" y1="711.315" y2="711.315"/><line style="stroke:#C6A0F6;stroke-width:2;" x1="95.63" x2="233.4015" y1="719.315" y2="719.315"/></g><!--class CompletableFutureMonadError--><g class="entity" data-entity="CompletableFutureMonadError" data-source-line="11" data-uid="ent0007" id="entity_CompletableFutureMonadError"><rect fill="#24273A" height="44.625" rx="1.5" ry="1.5" style="stroke:#C6A0F6;stroke-width:2;" width="275.0234" x="27" y="602.69"/><rect fill="#363A4F" height="28.625" rx="1.5" ry="1.5" style="stroke:#363A4F;stroke-width:2;" width="275.0234" x="27" y="602.69"/><rect fill="#363A4F" height="1.5" style="stroke:#363A4F;stroke-width:2;" width="275.0234" x="27" y="629.815"/><rect fill="none" height="44.625" rx="1.5" ry="1.5" style="stroke:#C6A0F6;stroke-width:2;" width="275.0234" x="27" y="602.69"/><ellipse cx="40" cy="617.0025" fill="#FFFFFF" rx="9" ry="9" style="stroke:#000000;stroke-width:1;"/><path d="M41.8281,621.2525 Q41.4219,621.4556 40.9688,621.565 Q40.5156,621.6744 40.0313,621.6744 Q38.25,621.6744 37.3125,620.5181 Q36.3906,619.3463 36.3906,617.1431 Q36.3906,614.9244 37.3125,613.7681 Q38.25,612.5963 40.0313,612.5963 Q40.5156,612.5963 40.9688,612.7056 Q41.4375,612.7994 41.8281,613.0181 L41.8281,614.94 Q41.3906,614.5338 40.9688,614.3463 Q40.5469,614.1431 40.1094,614.1431 Q39.1563,614.1431 38.6719,614.9088 Q38.1875,615.6588 38.1875,617.1431 Q38.1875,618.6119 38.6719,619.3619 Q39.1563,620.1119 40.1094,620.1119 Q40.5469,620.1119 40.9688,619.9244 Q41.3906,619.7369 41.8281,619.3306 L41.8281,621.2525 Z " fill="#CAD3F5"/><text fill="#A6DA95" font-family="Helvetica" font-size="16" lengthAdjust="spacing" textLength="247.0234" x="52" y="622.5416">CompletableFutureMonadError</text><line style="stroke:#C6A0F6;stroke-width:2;" x1="28" x2="301.0234" y1="631.315" y2="631.315"/><line style="stroke:#C6A0F6;stroke-width:2;" x1="28" x2="301.0234" y1="639.315" y2="639.315"/></g><!--class TryMonadError--><g class="entity" data-entity="TryMonadError" data-source-line="12" data-uid="ent0008" id="entity_TryMonadError"><rect fill="#24273A" height="44.625" rx="1.5" ry="1.5" style="stroke:#C6A0F6;stroke-width:2;" width="147.1484" x="90.94" y="522.69"/><rect fill="#363A4F" height="28.625" rx="1.5" ry="1.5" style="stroke:#363A4F;stroke-width:2;" width="147.1484" x="90.94" y="522.69"/><rect fill="#363A4F" height="1.5" style="stroke:#363A4F;stroke-width:2;" width="147.1484" x="90.94" y="549.815"/><rect fill="none" height="44.625" rx="1.5" ry="1.5" style="stroke:#C6A0F6;stroke-width:2;" width="147.1484" x="90.94" y="522.69"/><ellipse cx="103.94" cy="537.0025" fill="#FFFFFF" rx="9" ry="9" style="stroke:#000000;stroke-width:1;"/><path d="M105.7681,541.2525 Q105.3619,541.4556 104.9088,541.565 Q104.4556,541.6744 103.9713,541.6744 Q102.19,541.6744 101.2525,540.5181 Q100.3306,539.3463 100.3306,537.1431 Q100.3306,534.9244 101.2525,533.7681 Q102.19,532.5963 103.9713,532.5963 Q104.4556,532.5963 104.9088,532.7056 Q105.3775,532.7994 105.7681,533.0181 L105.7681,534.94 Q105.3306,534.5338 104.9088,534.3463 Q104.4869,534.1431 104.0494,534.1431 Q103.0963,534.1431 102.6119,534.9088 Q102.1275,535.6588 102.1275,537.1431 Q102.1275,538.6119 102.6119,539.3619 Q103.0963,540.1119 104.0494,540.1119 Q104.4869,540.1119 104.9088,539.9244 Q105.3306,539.7369 105.7681,539.3306 L105.7681,541.2525 Z " fill="#CAD3F5"/><text fill="#A6DA95" font-family="Helvetica" font-size="16" lengthAdjust="spacing" textLength="119.1484" x="115.94" y="542.5416">TryMonadError</text><line style="stroke:#C6A0F6;stroke-width:2;" x1="91.94" x2="237.0884" y1="551.315" y2="551.315"/><line style="stroke:#C6A0F6;stroke-width:2;" x1="91.94" x2="237.0884" y1="559.315" y2="559.315"/></g><!--class IOMonad--><g class="entity" data-entity="IOMonad" data-source-line="13" data-uid="ent0009" id="entity_IOMonad"><rect fill="#24273A" height="44.625" rx="1.5" ry="1.5" style="stroke:#C6A0F6;stroke-width:2;" width="99.0078" x="115.01" y="442.69"/><rect fill="#363A4F" height="28.625" rx="1.5" ry="1.5" style="stroke:#363A4F;stroke-width:2;" width="99.0078" x="115.01" y="442.69"/><rect fill="#363A4F" height="1.5" style="stroke:#363A4F;stroke-width:2;" width="99.0078" x="115.01" y="469.815"/><rect fill="none" height="44.625" rx="1.5" ry="1.5" style="stroke:#C6A0F6;stroke-width:2;" width="99.0078" x="115.01" y="442.69"/><ellipse cx="128.01" cy="457.0025" fill="#FFFFFF" rx="9" ry="9" style="stroke:#000000;stroke-width:1;"/><path d="M129.8381,461.2525 Q129.4319,461.4556 128.9788,461.565 Q128.5256,461.6744 128.0413,461.6744 Q126.26,461.6744 125.3225,460.5181 Q124.4006,459.3463 124.4006,457.1431 Q124.4006,454.9244 125.3225,453.7681 Q126.26,452.5963 128.0413,452.5963 Q128.5256,452.5963 128.9788,452.7056 Q129.4475,452.7994 129.8381,453.0181 L129.8381,454.94 Q129.4006,454.5338 128.9788,454.3463 Q128.5569,454.1431 128.1194,454.1431 Q127.1662,454.1431 126.6819,454.9088 Q126.1975,455.6588 126.1975,457.1431 Q126.1975,458.6119 126.6819,459.3619 Q127.1662,460.1119 128.1194,460.1119 Q128.5569,460.1119 128.9788,459.9244 Q129.4006,459.7369 129.8381,459.3306 L129.8381,461.2525 Z " fill="#CAD3F5"/><text fill="#A6DA95" font-family="Helvetica" font-size="16" lengthAdjust="spacing" textLength="71.0078" x="140.01" y="462.5416">IOMonad</text><line style="stroke:#C6A0F6;stroke-width:2;" x1="116.01" x2="213.0178" y1="471.315" y2="471.315"/><line style="stroke:#C6A0F6;stroke-width:2;" x1="116.01" x2="213.0178" y1="479.315" y2="479.315"/></g><!--class LazyMonad--><g class="entity" data-entity="LazyMonad" data-source-line="14" data-uid="ent0010" id="entity_LazyMonad"><rect fill="#24273A" height="44.625" rx="1.5" ry="1.5" style="stroke:#C6A0F6;stroke-width:2;" width="118.2813" x="105.37" y="362.69"/><rect fill="#363A4F" height="28.625" rx="1.5" ry="1.5" style="stroke:#363A4F;stroke-width:2;" width="118.2813" x="105.37" y="362.69"/><rect fill="#363A4F" height="1.5" style="stroke:#363A4F;stroke-width:2;" width="118.2813" x="105.37" y="389.815"/><rect fill="none" height="44.625" rx="1.5" ry="1.5" style="stroke:#C6A0F6;stroke-width:2;" width="118.2813" x="105.37" y="362.69"/><ellipse cx="118.37" cy="377.0025" fill="#FFFFFF" rx="9" ry="9" style="stroke:#000000;stroke-width:1;"/><path d="M120.1981,381.2525 Q119.7919,381.4556 119.3388,381.565 Q118.8856,381.6744 118.4013,381.6744 Q116.62,381.6744 115.6825,380.5181 Q114.7606,379.3463 114.7606,377.1431 Q114.7606,374.9244 115.6825,373.7681 Q116.62,372.5963 118.4013,372.5963 Q118.8856,372.5963 119.3388,372.7056 Q119.8075,372.7994 120.1981,373.0181 L120.1981,374.94 Q119.7606,374.5338 119.3388,374.3463 Q118.9169,374.1431 118.4794,374.1431 Q117.5263,374.1431 117.0419,374.9088 Q116.5575,375.6588 116.5575,377.1431 Q116.5575,378.6119 117.0419,379.3619 Q117.5263,380.1119 118.4794,380.1119 Q118.9169,380.1119 119.3388,379.9244 Q119.7606,379.7369 120.1981,379.3306 L120.1981,381.2525 Z " fill="#CAD3F5"/><text fill="#A6DA95" font-family="Helvetica" font-size="16" lengthAdjust="spacing" textLength="90.2813" x="130.37" y="382.5416">LazyMonad</text><line style="stroke:#C6A0F6;stroke-width:2;" x1="106.37" x2="222.6513" y1="391.315" y2="391.315"/><line style="stroke:#C6A0F6;stroke-width:2;" x1="106.37" x2="222.6513" y1="399.315" y2="399.315"/></g><!--class ReaderMonad--><g class="entity" data-entity="ReaderMonad" data-source-line="15" data-uid="ent0011" id="entity_ReaderMonad"><rect fill="#24273A" height="44.625" rx="1.5" ry="1.5" style="stroke:#C6A0F6;stroke-width:2;" width="151.377" x="88.82" y="282.69"/><rect fill="#363A4F" height="28.625" rx="1.5" ry="1.5" style="stroke:#363A4F;stroke-width:2;" width="151.377" x="88.82" y="282.69"/><rect fill="#363A4F" height="1.5" style="stroke:#363A4F;stroke-width:2;" width="151.377" x="88.82" y="309.815"/><rect fill="none" height="44.625" rx="1.5" ry="1.5" style="stroke:#C6A0F6;stroke-width:2;" width="151.377" x="88.82" y="282.69"/><ellipse cx="101.82" cy="297.0025" fill="#FFFFFF" rx="9" ry="9" style="stroke:#000000;stroke-width:1;"/><path d="M103.6481,301.2525 Q103.2419,301.4556 102.7888,301.565 Q102.3356,301.6744 101.8513,301.6744 Q100.07,301.6744 99.1325,300.5181 Q98.2106,299.3463 98.2106,297.1431 Q98.2106,294.9244 99.1325,293.7681 Q100.07,292.5963 101.8513,292.5963 Q102.3356,292.5963 102.7888,292.7056 Q103.2575,292.7994 103.6481,293.0181 L103.6481,294.94 Q103.2106,294.5338 102.7888,294.3463 Q102.3669,294.1431 101.9294,294.1431 Q100.9763,294.1431 100.4919,294.9088 Q100.0075,295.6588 100.0075,297.1431 Q100.0075,298.6119 100.4919,299.3619 Q100.9763,300.1119 101.9294,300.1119 Q102.3669,300.1119 102.7888,299.9244 Q103.2106,299.7369 103.6481,299.3306 L103.6481,301.2525 Z " fill="#CAD3F5"/><text fill="#A6DA95" font-family="Helvetica" font-size="16" lengthAdjust="spacing" textLength="111.0391" x="113.82" y="302.5416">ReaderMonad</text><rect fill="#24273A" height="15.9688" style="stroke:#C6A0F6;stroke-width:1;stroke-dasharray:2.0,2.0;" width="10.3379" x="232.8591" y="279.69"/><text fill="#000000" font-family="Verdana" font-size="12" font-style="italic" lengthAdjust="spacing" textLength="8.3379" x="233.8591" y="291.8287">R</text><line style="stroke:#C6A0F6;stroke-width:2;" x1="89.82" x2="239.197" y1="311.315" y2="311.315"/><line style="stroke:#C6A0F6;stroke-width:2;" x1="89.82" x2="239.197" y1="319.315" y2="319.315"/></g><!--class StateMonad--><g class="entity" data-entity="StateMonad" data-source-line="16" data-uid="ent0012" id="entity_StateMonad"><rect fill="#24273A" height="44.625" rx="1.5" ry="1.5" style="stroke:#C6A0F6;stroke-width:2;" width="135.6641" x="96.68" y="202.69"/><rect fill="#363A4F" height="28.625" rx="1.5" ry="1.5" style="stroke:#363A4F;stroke-width:2;" width="135.6641" x="96.68" y="202.69"/><rect fill="#363A4F" height="1.5" style="stroke:#363A4F;stroke-width:2;" width="135.6641" x="96.68" y="229.815"/><rect fill="none" height="44.625" rx="1.5" ry="1.5" style="stroke:#C6A0F6;stroke-width:2;" width="135.6641" x="96.68" y="202.69"/><ellipse cx="109.68" cy="217.0025" fill="#FFFFFF" rx="9" ry="9" style="stroke:#000000;stroke-width:1;"/><path d="M111.5081,221.2525 Q111.1019,221.4556 110.6488,221.565 Q110.1956,221.6744 109.7113,221.6744 Q107.93,221.6744 106.9925,220.5181 Q106.0706,219.3463 106.0706,217.1431 Q106.0706,214.9244 106.9925,213.7681 Q107.93,212.5963 109.7113,212.5963 Q110.1956,212.5963 110.6488,212.7056 Q111.1175,212.7994 111.5081,213.0181 L111.5081,214.94 Q111.0706,214.5338 110.6488,214.3463 Q110.2269,214.1431 109.7894,214.1431 Q108.8363,214.1431 108.3519,214.9088 Q107.8675,215.6588 107.8675,217.1431 Q107.8675,218.6119 108.3519,219.3619 Q108.8363,220.1119 109.7894,220.1119 Q110.2269,220.1119 110.6488,219.9244 Q111.0706,219.7369 111.5081,219.3306 L111.5081,221.2525 Z " fill="#CAD3F5"/><text fill="#A6DA95" font-family="Helvetica" font-size="16" lengthAdjust="spacing" textLength="96.0469" x="121.68" y="222.5416">StateMonad</text><rect fill="#24273A" height="15.9688" style="stroke:#C6A0F6;stroke-width:1;stroke-dasharray:2.0,2.0;" width="9.6172" x="225.7269" y="199.69"/><text fill="#000000" font-family="Verdana" font-size="12" font-style="italic" lengthAdjust="spacing" textLength="7.6172" x="226.7269" y="211.8287">S</text><line style="stroke:#C6A0F6;stroke-width:2;" x1="97.68" x2="231.3441" y1="231.315" y2="231.315"/><line style="stroke:#C6A0F6;stroke-width:2;" x1="97.68" x2="231.3441" y1="239.315" y2="239.315"/></g><!--class WriterMonad--><g class="entity" data-entity="WriterMonad" data-source-line="17" data-uid="ent0013" id="entity_WriterMonad"><rect fill="#24273A" height="44.625" rx="1.5" ry="1.5" style="stroke:#C6A0F6;stroke-width:2;" width="147.0996" x="90.96" y="122.69"/><rect fill="#363A4F" height="28.625" rx="1.5" ry="1.5" style="stroke:#363A4F;stroke-width:2;" width="147.0996" x="90.96" y="122.69"/><rect fill="#363A4F" height="1.5" style="stroke:#363A4F;stroke-width:2;" width="147.0996" x="90.96" y="149.815"/><rect fill="none" height="44.625" rx="1.5" ry="1.5" style="stroke:#C6A0F6;stroke-width:2;" width="147.0996" x="90.96" y="122.69"/><ellipse cx="103.96" cy="137.0025" fill="#FFFFFF" rx="9" ry="9" style="stroke:#000000;stroke-width:1;"/><path d="M105.7881,141.2525 Q105.3819,141.4556 104.9288,141.565 Q104.4756,141.6744 103.9913,141.6744 Q102.21,141.6744 101.2725,140.5181 Q100.3506,139.3463 100.3506,137.1431 Q100.3506,134.9244 101.2725,133.7681 Q102.21,132.5963 103.9913,132.5963 Q104.4756,132.5963 104.9288,132.7056 Q105.3975,132.7994 105.7881,133.0181 L105.7881,134.94 Q105.3506,134.5338 104.9288,134.3463 Q104.5069,134.1431 104.0694,134.1431 Q103.1163,134.1431 102.6319,134.9088 Q102.1475,135.6588 102.1475,137.1431 Q102.1475,138.6119 102.6319,139.3619 Q103.1163,140.1119 104.0694,140.1119 Q104.5069,140.1119 104.9288,139.9244 Q105.3506,139.7369 105.7881,139.3306 L105.7881,141.2525 Z " fill="#CAD3F5"/><text fill="#A6DA95" font-family="Helvetica" font-size="16" lengthAdjust="spacing" textLength="103.2344" x="115.96" y="142.5416">WriterMonad</text><rect fill="#24273A" height="15.9688" style="stroke:#C6A0F6;stroke-width:1;stroke-dasharray:2.0,2.0;" width="13.8652" x="227.1944" y="119.69"/><text fill="#000000" font-family="Verdana" font-size="12" font-style="italic" lengthAdjust="spacing" textLength="11.8652" x="228.1944" y="131.8287">W</text><line style="stroke:#C6A0F6;stroke-width:2;" x1="91.96" x2="237.0596" y1="151.315" y2="151.315"/><line style="stroke:#C6A0F6;stroke-width:2;" x1="91.96" x2="237.0596" y1="159.315" y2="159.315"/></g><!--class Monad--><g class="entity" data-entity="Monad" data-source-line="19" data-uid="ent0014" id="entity_Monad"><rect fill="#24273A" height="44.625" rx="1.5" ry="1.5" style="stroke:#C6A0F6;stroke-width:2;" width="81.6953" x="510.62" y="442.69"/><rect fill="#363A4F" height="28.625" rx="1.5" ry="1.5" style="stroke:#363A4F;stroke-width:2;" width="81.6953" x="510.62" y="442.69"/><rect fill="#363A4F" height="1.5" style="stroke:#363A4F;stroke-width:2;" width="81.6953" x="510.62" y="469.815"/><rect fill="none" height="44.625" rx="1.5" ry="1.5" style="stroke:#C6A0F6;stroke-width:2;" width="81.6953" x="510.62" y="442.69"/><ellipse cx="523.62" cy="457.0025" fill="#FFFFFF" rx="9" ry="9" style="stroke:#000000;stroke-width:1;"/><path d="M525.4481,461.2525 Q525.0419,461.4556 524.5888,461.565 Q524.1356,461.6744 523.6513,461.6744 Q521.87,461.6744 520.9325,460.5181 Q520.0106,459.3463 520.0106,457.1431 Q520.0106,454.9244 520.9325,453.7681 Q521.87,452.5963 523.6513,452.5963 Q524.1356,452.5963 524.5888,452.7056 Q525.0575,452.7994 525.4481,453.0181 L525.4481,454.94 Q525.0106,454.5338 524.5888,454.3463 Q524.1669,454.1431 523.7294,454.1431 Q522.7763,454.1431 522.2919,454.9088 Q521.8075,455.6588 521.8075,457.1431 Q521.8075,458.6119 522.2919,459.3619 Q522.7763,460.1119 523.7294,460.1119 Q524.1669,460.1119 524.5888,459.9244 Q525.0106,459.7369 525.4481,459.3306 L525.4481,461.2525 Z " fill="#CAD3F5"/><text fill="#A6DA95" font-family="Helvetica" font-size="16" lengthAdjust="spacing" textLength="53.6953" x="535.62" y="462.5416">Monad</text><line style="stroke:#C6A0F6;stroke-width:2;" x1="511.62" x2="591.3153" y1="471.315" y2="471.315"/><line style="stroke:#C6A0F6;stroke-width:2;" x1="511.62" x2="591.3153" y1="479.315" y2="479.315"/></g><!--class MonadError--><g class="entity" data-entity="MonadError" data-source-line="20" data-uid="ent0017" id="entity_MonadError"><rect fill="#24273A" height="44.625" rx="1.5" ry="1.5" style="stroke:#C6A0F6;stroke-width:2;" width="121.3281" x="490.8" y="522.69"/><rect fill="#363A4F" height="28.625" rx="1.5" ry="1.5" style="stroke:#363A4F;stroke-width:2;" width="121.3281" x="490.8" y="522.69"/><rect fill="#363A4F" height="1.5" style="stroke:#363A4F;stroke-width:2;" width="121.3281" x="490.8" y="549.815"/><rect fill="none" height="44.625" rx="1.5" ry="1.5" style="stroke:#C6A0F6;stroke-width:2;" width="121.3281" x="490.8" y="522.69"/><ellipse cx="503.8" cy="537.0025" fill="#FFFFFF" rx="9" ry="9" style="stroke:#000000;stroke-width:1;"/><path d="M505.6281,541.2525 Q505.2219,541.4556 504.7688,541.565 Q504.3156,541.6744 503.8313,541.6744 Q502.05,541.6744 501.1125,540.5181 Q500.1906,539.3463 500.1906,537.1431 Q500.1906,534.9244 501.1125,533.7681 Q502.05,532.5963 503.8313,532.5963 Q504.3156,532.5963 504.7688,532.7056 Q505.2375,532.7994 505.6281,533.0181 L505.6281,534.94 Q505.1906,534.5338 504.7688,534.3463 Q504.3469,534.1431 503.9094,534.1431 Q502.9563,534.1431 502.4719,534.9088 Q501.9875,535.6588 501.9875,537.1431 Q501.9875,538.6119 502.4719,539.3619 Q502.9563,540.1119 503.9094,540.1119 Q504.3469,540.1119 504.7688,539.9244 Q505.1906,539.7369 505.6281,539.3306 L505.6281,541.2525 Z " fill="#CAD3F5"/><text fill="#A6DA95" font-family="Helvetica" font-size="16" lengthAdjust="spacing" textLength="93.3281" x="515.8" y="542.5416">MonadError</text><line style="stroke:#C6A0F6;stroke-width:2;" x1="491.8" x2="611.1281" y1="551.315" y2="551.315"/><line style="stroke:#C6A0F6;stroke-width:2;" x1="491.8" x2="611.1281" y1="559.315" y2="559.315"/></g><!--class OptionalKind--><g class="entity" data-entity="OptionalKind" data-source-line="32" data-uid="ent0028" id="entity_OptionalKind"><rect fill="#24273A" height="44.625" rx="1.5" ry="1.5" style="stroke:#C6A0F6;stroke-width:2;" width="130.8828" x="486.02" y="818.69"/><rect fill="#363A4F" height="28.625" rx="1.5" ry="1.5" style="stroke:#363A4F;stroke-width:2;" width="130.8828" x="486.02" y="818.69"/><rect fill="#363A4F" height="1.5" style="stroke:#363A4F;stroke-width:2;" width="130.8828" x="486.02" y="845.815"/><rect fill="none" height="44.625" rx="1.5" ry="1.5" style="stroke:#C6A0F6;stroke-width:2;" width="130.8828" x="486.02" y="818.69"/><ellipse cx="499.02" cy="833.0025" fill="#FFFFFF" rx="9" ry="9" style="stroke:#000000;stroke-width:1;"/><path d="M500.8481,837.2525 Q500.4419,837.4556 499.9888,837.565 Q499.5356,837.6744 499.0513,837.6744 Q497.27,837.6744 496.3325,836.5181 Q495.4106,835.3463 495.4106,833.1431 Q495.4106,830.9244 496.3325,829.7681 Q497.27,828.5963 499.0513,828.5963 Q499.5356,828.5963 499.9888,828.7056 Q500.4575,828.7994 500.8481,829.0181 L500.8481,830.94 Q500.4106,830.5338 499.9888,830.3463 Q499.5669,830.1431 499.1294,830.1431 Q498.1763,830.1431 497.6919,830.9088 Q497.2075,831.6588 497.2075,833.1431 Q497.2075,834.6119 497.6919,835.3619 Q498.1763,836.1119 499.1294,836.1119 Q499.5669,836.1119 499.9888,835.9244 Q500.4106,835.7369 500.8481,835.3306 L500.8481,837.2525 Z " fill="#CAD3F5"/><text fill="#A6DA95" font-family="Helvetica" font-size="16" lengthAdjust="spacing" textLength="102.8828" x="511.02" y="838.5416">OptionalKind</text><line style="stroke:#C6A0F6;stroke-width:2;" x1="487.02" x2="615.9028" y1="847.315" y2="847.315"/><line style="stroke:#C6A0F6;stroke-width:2;" x1="487.02" x2="615.9028" y1="855.315" y2="855.315"/></g><!--reverse link ListMonad to Monad--><g class="link" data-entity-1="ListMonad" data-entity-2="Monad" data-source-line="19" data-uid="lnk16" id="link_ListMonad_Monad"><path codeLine="19" d="M237.3106,78.6865 C263.3806,84.8265 276.83,90.35 302.02,105 C383.26,152.25 399.91,175.17 454.02,252 C498.44,315.06 530.05,401.84 543.4,442.4" fill="none" id="ListMonad-backto-Monad" style="stroke:#F5BDE6;stroke-width:1;stroke-dasharray:7.0,7.0;"/><polygon fill="none" points="219.79,74.56,235.9351,84.5267,238.6861,72.8462,219.79,74.56" style="stroke:#F5BDE6;stroke-width:1;"/></g><!--reverse link OptionalMonad to MonadError--><g class="link" data-entity-1="OptionalMonad" data-entity-2="MonadError" data-source-line="20" data-uid="lnk18" id="link_OptionalMonad_MonadError"><path codeLine="20" d="M256.8956,845.6678 C321.4956,829.0978 396.29,800.73 454.02,740 C503.08,688.4 532.18,607.06 544.12,567.76" fill="none" id="OptionalMonad-backto-MonadError" style="stroke:#F5BDE6;stroke-width:1;stroke-dasharray:7.0,7.0;"/><polygon fill="none" points="239.46,850.14,258.3863,851.4796,255.4048,839.8559,239.46,850.14" style="stroke:#F5BDE6;stroke-width:1;"/></g><!--reverse link MaybeMonad to MonadError--><g class="link" data-entity-1="MaybeMonad" data-entity-2="MonadError" data-source-line="21" data-uid="lnk19" id="link_MaybeMonad_MonadError"><path codeLine="21" d="M249.4627,763.7488 C272.0227,757.3788 279.8,754.26 302.02,745 C373.27,715.3 394.55,710.19 454.02,661 C487.52,633.29 518.13,592.74 535.51,567.66" fill="none" id="MaybeMonad-backto-MonadError" style="stroke:#F5BDE6;stroke-width:1;stroke-dasharray:7.0,7.0;"/><polygon fill="none" points="232.14,768.64,251.0931,769.523,247.8323,757.9746,232.14,768.64" style="stroke:#F5BDE6;stroke-width:1;"/></g><!--reverse link EitherMonad to MonadError--><g class="link" data-entity-1="EitherMonad" data-entity-2="MonadError" data-source-line="22" data-uid="lnk20" id="link_EitherMonad_MonadError"><path codeLine="22" d="M252.1226,681.5835 C273.8226,675.3135 280.45,672.88 302.02,665 C371.37,639.68 387.83,630.7 454.02,598 C473.04,588.61 493.69,577.4 510.99,567.71" fill="none" id="EitherMonad-backto-MonadError" style="stroke:#F5BDE6;stroke-width:1;stroke-dasharray:7.0,7.0;"/><polygon fill="none" points="234.83,686.58,253.7881,687.3477,250.4571,675.8193,234.83,686.58" style="stroke:#F5BDE6;stroke-width:1;"/></g><!--reverse link CompletableFutureMonadError to MonadError--><g class="link" data-entity-1="CompletableFutureMonadError" data-entity-2="MonadError" data-source-line="23" data-uid="lnk21" id="link_CompletableFutureMonadError_MonadError"><path codeLine="23" d="M292.6733,598.5767 C362.5733,584.0467 432.89,569.43 490.34,557.49" fill="none" id="CompletableFutureMonadError-backto-MonadError" style="stroke:#F5BDE6;stroke-width:1;stroke-dasharray:7.0,7.0;"/><polygon fill="none" points="275.05,602.24,293.8944,604.4511,291.4522,592.7022,275.05,602.24" style="stroke:#F5BDE6;stroke-width:1;"/></g><!--reverse link TryMonadError to MonadError--><g class="link" data-entity-1="TryMonadError" data-entity-2="MonadError" data-source-line="24" data-uid="lnk22" id="link_TryMonadError_MonadError"><path codeLine="24" d="M256.37,545 C329.39,545 422.47,545 490.54,545" fill="none" id="TryMonadError-backto-MonadError" style="stroke:#F5BDE6;stroke-width:1;stroke-dasharray:7.0,7.0;"/><polygon fill="none" points="238.37,545,256.37,551,256.37,539,238.37,545" style="stroke:#F5BDE6;stroke-width:1;"/></g><!--reverse link IOMonad to Monad--><g class="link" data-entity-1="IOMonad" data-entity-2="Monad" data-source-line="25" data-uid="lnk23" id="link_IOMonad_Monad"><path codeLine="25" d="M232.27,465 C309.15,465 439.1,465 510.28,465" fill="none" id="IOMonad-backto-Monad" style="stroke:#F5BDE6;stroke-width:1;stroke-dasharray:7.0,7.0;"/><polygon fill="none" points="214.27,465,232.27,471,232.27,459,214.27,465" style="stroke:#F5BDE6;stroke-width:1;"/></g><!--reverse link LazyMonad to Monad--><g class="link" data-entity-1="LazyMonad" data-entity-2="Monad" data-source-line="26" data-uid="lnk24" id="link_LazyMonad_Monad"><path codeLine="26" d="M241.6032,400.8137 C320.6832,417.2537 442.07,442.47 510.33,456.66" fill="none" id="LazyMonad-backto-Monad" style="stroke:#F5BDE6;stroke-width:1;stroke-dasharray:7.0,7.0;"/><polygon fill="none" points="223.98,397.15,240.382,406.6881,242.8244,394.9393,223.98,397.15" style="stroke:#F5BDE6;stroke-width:1;"/></g><!--reverse link ReaderMonad to Monad--><g class="link" data-entity-1="ReaderMonad" data-entity-2="Monad" data-source-line="27" data-uid="lnk25" id="link_ReaderMonad_Monad"><path codeLine="27" d="M257.9224,329.666 C278.0724,335.576 282.43,337.46 302.02,345 C377.79,374.17 462.14,417.32 510.49,443.15" fill="none" id="ReaderMonad-backto-Monad" style="stroke:#F5BDE6;stroke-width:1;stroke-dasharray:7.0,7.0;"/><polygon fill="none" points="240.65,324.6,256.2337,335.4235,259.6111,323.9085,240.65,324.6" style="stroke:#F5BDE6;stroke-width:1;"/></g><!--reverse link StateMonad to Monad--><g class="link" data-entity-1="StateMonad" data-entity-2="Monad" data-source-line="28" data-uid="lnk26" id="link_StateMonad_Monad"><path codeLine="28" d="M249.8948,244.3962 C272.6048,250.6462 280.34,254.25 302.02,265 C397.04,312.08 488.92,400.64 529.19,442.27" fill="none" id="StateMonad-backto-Monad" style="stroke:#F5BDE6;stroke-width:1;stroke-dasharray:7.0,7.0;"/><polygon fill="none" points="232.54,239.62,248.3027,250.1811,251.4868,238.6113,232.54,239.62" style="stroke:#F5BDE6;stroke-width:1;"/></g><!--reverse link WriterMonad to Monad--><g class="link" data-entity-1="WriterMonad" data-entity-2="Monad" data-source-line="29" data-uid="lnk27" id="link_WriterMonad_Monad"><path codeLine="29" d="M255.6066,165.0627 C276.8966,171.1027 282.39,174.32 302.02,185 C380.37,227.61 395.42,248.77 454.02,316 C489.66,356.88 521.88,411.98 538.54,442.42" fill="none" id="WriterMonad-backto-Monad" style="stroke:#F5BDE6;stroke-width:1;stroke-dasharray:7.0,7.0;"/><polygon fill="none" points="238.29,160.15,253.969,170.8349,257.2442,159.2905,238.29,160.15" style="stroke:#F5BDE6;stroke-width:1;"/></g><!--link OptionalMonad to OptionalKind--><g class="link" data-entity-1="OptionalMonad" data-entity-2="OptionalKind" data-source-line="32" data-uid="lnk30" id="link_OptionalMonad_OptionalKind"><path codeLine="32" d="M239.28,860.4 C310.56,855.96 411.4816,849.6636 479.6016,845.4136" fill="none" id="OptionalMonad-to-OptionalKind" style="stroke:#F5BDE6;stroke-width:1;stroke-dasharray:7.0,7.0;"/><polygon fill="#F5BDE6" points="485.59,845.04,476.3584,841.6082,480.5997,845.3513,476.8565,849.5927,485.59,845.04" style="stroke:#F5BDE6;stroke-width:1;"/><text fill="#CAD3F5" font-family="Helvetica" font-size="12" lengthAdjust="spacing" textLength="120.8906" x="333.02" y="844.1387">operates on witness</text></g><!--SRC=[ZPDBJyCm48Jl-HLBBy2XpXrLN52HAbeLKIJEMsVRM3YsPQy5vV7VSHDAJ7cqEKMZpwFnZ7p2DJK4JgConOaoKiUAe6PsuQ8iFJw9jU8wBcCWBwrXCYoaRKeZRM0SAbbAPEUYbCeC6vIoLiXscFmCnqOFM_koIUvb-ojSKej2qug1BNYrhXagvKcoigOe7Cf7N1CC5j4vwvagkDyu2d0simOhc3HE9nl3kEN3-G1U2qYVr1W2J5NWbikqkTkIgFVr6MwMj2yEnkcsv5jvDBqS00R8f8oyijiaZ4jDrv6Zxwp6tbkVKVT-ywi-cU_xJV5byoFD7M6rItFNfScad5oaGhe8eqK7zahEFNZ5EyU73ioaeaM_MeJHcn3fffucQNc_Gab1z9RVclsRxU_ULtuCdVL-3FxF8CSS_xRKCGS-9ppGqTUi1xXirWDal-i1CDlr7x95Js7yZDlwm9DkNnQiKWkxWNzPMuXBMAWcTlIjZirIcRNOGJVAL701rf5FQGCamoV5Xa8etZy0]--></g></svg>